<?xml version="1.0" encoding="UTF-8" standalone="no"?>
<!-- Generated by graphviz version 11.0.0 (0)
 -->

<!-- Title: cyclic_combinational Pages: 1 -->

<svg
   width="1362pt"
   height="236.5pt"
   viewBox="0 0 1362 236.5"
   version="1.1"
   id="svg89"
   sodipodi:docname="circuit.svg"
   inkscape:version="1.3.2 (091e20ef0f, 2023-11-25, custom)"
   xmlns:inkscape="http://www.inkscape.org/namespaces/inkscape"
   xmlns:sodipodi="http://sodipodi.sourceforge.net/DTD/sodipodi-0.dtd"
   xmlns="http://www.w3.org/2000/svg"
   xmlns:svg="http://www.w3.org/2000/svg">
  <defs
     id="defs89" />
  <sodipodi:namedview
     id="namedview89"
     pagecolor="#ffffff"
     bordercolor="#000000"
     borderopacity="0.25"
     inkscape:showpageshadow="2"
     inkscape:pageopacity="0.0"
     inkscape:pagecheckerboard="0"
     inkscape:deskcolor="#d1d1d1"
     inkscape:document-units="pt"
     inkscape:zoom="1.0868231"
     inkscape:cx="907.69141"
     inkscape:cy="173.90135"
     inkscape:window-width="2560"
     inkscape:window-height="1380"
     inkscape:window-x="1920"
     inkscape:window-y="32"
     inkscape:window-maximized="1"
     inkscape:current-layer="svg89" />
  <path
     id="ellipse2"
     style="stroke:#000000"
     d="m 103.75,66.25 a 9,9 0 0 1 -9,9 9,9 0 0 1 -9,-9 9,9 0 0 1 9,-9 9,9 0 0 1 9,9 z" />
  <path
     d="m 92.902,71.300003 h 3.864 v -0.21 c -1.078,0 -1.316,-0.154 -1.33,-0.826 v -8.4 l -0.112,-0.028 -2.52,1.274 v 0.196 c 0.546,-0.21 0.882,-0.308 1.008,-0.308 0.294,0 0.42,0.21 0.42,0.658 v 6.342 c -0.028,0.882 -0.266,1.078 -1.33,1.092 z"
     id="text2"
     style="font-size:14px;font-family:Times, serif;text-anchor:middle;fill:#ffffff"
     aria-label="1" />
  <path
     id="polygon4"
     style="fill:#00ced1"
     d="M 147.75,135 V 45.5 h 148 V 135 Z" />
  <path
     id="polygon5"
     style="fill:none;stroke:#000000"
     d="M 150.75,132 V 48.5 H 193.5 V 132 Z" />
  <path
     id="polygon6"
     style="fill:none;stroke:#000000"
     d="M 156.75,77 V 54.5 H 187.5 V 77 Z" />
  <path
     d="m 166.008,61.336003 h -0.294 c -0.056,0.308 -0.21,0.476 -0.448,0.476 -0.14,0 -0.378,-0.056 -0.616,-0.168 -0.518,-0.196 -1.036,-0.308 -1.498,-0.308 -0.588,0 -1.204,0.238 -1.666,0.644 -0.49,0.434 -0.742,1.022 -0.742,1.75 0,1.12 0.616,1.904 2.184,2.73 1.008,0.546 1.736,1.106 2.086,1.638 0.126,0.182 0.196,0.476 0.196,0.826 0,0.924 -0.7,1.568 -1.722,1.568 -1.26,0 -2.128,-0.77 -2.828,-2.478 h -0.322 l 0.42,2.968 h 0.308 c 0.014,-0.266 0.182,-0.462 0.392,-0.462 0.154,0 0.392,0.056 0.658,0.154 0.532,0.21 1.106,0.322 1.652,0.322 1.624,0 2.856,-1.106 2.856,-2.562 0,-1.148 -0.77,-2.044 -2.618,-3.052 -1.47,-0.798 -2.058,-1.414 -2.058,-2.184 0,-0.77 0.588,-1.288 1.456,-1.288 0.63,0 1.218,0.266 1.708,0.77 0.434,0.448 0.63,0.812 0.854,1.638 h 0.35 z m 5.082,0 c -0.77,0 -1.358,0.224 -1.876,0.728 -0.812,0.784 -1.344,2.394 -1.344,4.032 0,1.54 0.462,3.164 1.12,3.948 0.518,0.616 1.232,0.952 2.044,0.952 0.714,0 1.316,-0.238 1.82,-0.728 0.812,-0.77 1.344,-2.394 1.344,-4.088 0,-2.87 -1.274,-4.844 -3.108,-4.844 z m -0.042,0.364 c 1.176,0 1.806,1.582 1.806,4.508 0,2.926 -0.616,4.424 -1.82,4.424 -1.204,0 -1.82,-1.498 -1.82,-4.41 0,-2.982 0.63,-4.522 1.834,-4.522 z m 5.39,2.674 c -0.42,0 -0.77,0.35 -0.77,0.798 0,0.406 0.35,0.756 0.756,0.756 0.434,0 0.798,-0.336 0.798,-0.756 0,-0.434 -0.364,-0.798 -0.784,-0.798 z m 0,5.026 c -0.42,0 -0.77,0.35 -0.77,0.798 0,0.406 0.35,0.756 0.756,0.756 0.434,0 0.798,-0.336 0.798,-0.756 0,-0.434 -0.364,-0.798 -0.784,-0.798 z m 3.63999,1.4 h 3.864 v -0.21 c -1.078,0 -1.316,-0.154 -1.33,-0.826 v -8.4 l -0.112,-0.028 -2.52,1.274 v 0.196 c 0.546,-0.21 0.882,-0.308 1.008,-0.308 0.294,0 0.42,0.21 0.42,0.658 v 6.342 c -0.028,0.882 -0.266,1.078 -1.33,1.092 z"
     id="text6"
     style="font-size:14px;font-family:Times, serif"
     aria-label="S0:1" />
  <path
     id="polygon7"
     style="fill:none;stroke:#000000"
     d="M 156.75,101.5 V 79 h 30.75 v 22.5 z" />
  <path
     d="m 161.502,95.3 h 4.158 v -0.266 c -1.148,-0.028 -1.344,-0.224 -1.372,-1.26 v -6.215997 c 0.028,-1.05 0.21,-1.218 1.372,-1.26 v -0.266 h -4.158 v 0.266 c 1.19,0.07 1.344,0.21 1.358,1.26 V 93.774 c -0.014,1.064 -0.182,1.218 -1.358,1.26 z m 7.966,-9.463997 c -0.77,0 -1.358,0.224 -1.876,0.728 -0.812,0.784 -1.344,2.394 -1.344,4.032 0,1.54 0.462,3.163997 1.12,3.947997 0.518,0.616 1.232,0.952 2.044,0.952 0.714,0 1.316,-0.238 1.82,-0.728 0.812,-0.77 1.344,-2.393997 1.344,-4.087997 0,-2.87 -1.274,-4.844 -3.108,-4.844 z m -0.042,0.364 c 1.176,0 1.806,1.582 1.806,4.508 0,2.925997 -0.616,4.423997 -1.82,4.423997 -1.204,0 -1.82,-1.498 -1.82,-4.409997 0,-2.982 0.63,-4.522 1.834,-4.522 z m 5.39,2.674 c -0.42,0 -0.77,0.35 -0.77,0.798 0,0.406 0.35,0.756 0.756,0.756 0.434,0 0.798,-0.336 0.798,-0.756 0,-0.434 -0.364,-0.798 -0.784,-0.798 z m 0,5.025997 c -0.42,0 -0.77,0.35 -0.77,0.798 0,0.406 0.35,0.756 0.756,0.756 0.434,0 0.798,-0.336 0.798,-0.756 0,-0.434 -0.364,-0.798 -0.784,-0.798 z m 3.64,1.4 h 3.864 v -0.21 c -1.078,0 -1.316,-0.154 -1.33,-0.826 v -8.399997 l -0.112,-0.028 -2.52,1.274 v 0.196 c 0.546,-0.21 0.882,-0.308 1.008,-0.308 0.294,0 0.42,0.21 0.42,0.658 V 93.998 c -0.028,0.882 -0.266,1.078 -1.33,1.092 z"
     id="text7"
     style="font-size:14px;font-family:Times, serif"
     aria-label="I0:1" />
  <path
     id="polygon8"
     style="fill:none;stroke:#000000"
     d="M 156.75,126 V 103.5 H 187.5 V 126 Z" />
  <path
     d="m 161.502,119.8 h 4.158 v -0.266 c -1.148,-0.028 -1.344,-0.224 -1.372,-1.26 v -6.216 c 0.028,-1.05 0.21,-1.218 1.372,-1.26 v -0.266 h -4.158 v 0.266 c 1.19,0.07 1.344,0.21 1.358,1.26 v 6.216 c -0.014,1.064 -0.182,1.218 -1.358,1.26 z m 6.062,0 h 3.864 v -0.21 c -1.078,0 -1.316,-0.154 -1.33,-0.826 v -8.4 l -0.112,-0.028 -2.52,1.274 v 0.196 c 0.546,-0.21 0.882,-0.308 1.008,-0.308 0.294,0 0.42,0.21 0.42,0.658 v 6.342 c -0.028,0.882 -0.266,1.078 -1.33,1.092 z m 7.252,-6.426 c -0.42,0 -0.77,0.35 -0.77,0.798 0,0.406 0.35,0.756 0.756,0.756 0.434,0 0.798,-0.336 0.798,-0.756 0,-0.434 -0.364,-0.798 -0.784,-0.798 z m 0,5.026 c -0.42,0 -0.77,0.35 -0.77,0.798 0,0.406 0.35,0.756 0.756,0.756 0.434,0 0.798,-0.336 0.798,-0.756 0,-0.434 -0.364,-0.798 -0.784,-0.798 z m 3.64,1.4 h 3.864 v -0.21 c -1.078,0 -1.316,-0.154 -1.33,-0.826 v -8.4 l -0.112,-0.028 -2.52,1.274 v 0.196 c 0.546,-0.21 0.882,-0.308 1.008,-0.308 0.294,0 0.42,0.21 0.42,0.658 v 6.342 c -0.028,0.882 -0.266,1.078 -1.33,1.092 z"
     id="text8"
     style="font-size:14px;font-family:Times, serif"
     aria-label="I1:1" />
  <path
     id="polygon9"
     style="fill:none;stroke:#000000"
     d="M 153.75,129 V 51.5 H 190.5 V 129 Z" />
  <path
     id="polygon10"
     style="fill:none;stroke:#000000"
     d="M 195.5,132 V 48.5 H 254 V 132 Z" />
  <path
     d="m 210.582,86.032003 h -2.786 l -3.094,7.069997 -3.234,-7.069997 h -2.772 v 0.266 c 1.148,0.056 1.302,0.21 1.33,1.26 V 93.242 c -0.028,1.484 -0.21,1.722 -1.358,1.792 V 95.3 h 3.29 v -0.266 c -1.078,-0.056 -1.288,-0.35 -1.316,-1.792 V 87.600003 L 204.156,95.3 h 0.196 l 3.584,-8.021997 V 93.62 c -0.014,1.19 -0.168,1.344 -1.274,1.414 V 95.3 h 3.92 v -0.266 c -1.008,-0.056 -1.19,-0.252 -1.218,-1.26 v -6.215997 c 0.028,-1.008 0.196,-1.19 1.218,-1.26 z m 10.234,0 h -3.248 v 0.266 c 1.078,0.07 1.288,0.35 1.316,1.792 v 3.78 c 0,0.951997 -0.084,1.483997 -0.322,1.903997 -0.378,0.672 -1.274,1.106 -2.324,1.106 -0.994,0 -1.68,-0.336 -2.058,-0.994 -0.252,-0.448 -0.35,-0.966 -0.35,-1.847997 v -4.48 c 0.014,-1.022 0.154,-1.162 1.274,-1.26 v -0.266 h -3.962 v 0.266 c 1.106,0.084 1.246,0.224 1.26,1.26 v 4.368 c 0,2.421997 1.134,3.569997 3.514,3.569997 1.526,0 2.576,-0.49 3.122,-1.442 0.336,-0.588 0.462,-1.232 0.462,-2.309997 v -3.654 c 0.028,-1.47 0.182,-1.666 1.316,-1.792 z m 10.178,0 h -3.332 v 0.266 c 0.756,0.028 0.98,0.126 0.98,0.448 0,0.21 -0.14,0.462 -0.56,0.966 l -1.582,1.932 -0.588,-0.826 c -0.854,-1.204 -1.19,-1.792 -1.19,-2.1 0,-0.28 0.21,-0.392 0.672,-0.406 l 0.392,-0.014 v -0.266 h -4.228 v 0.266 c 0.91,0.042 1.162,0.252 2.534,2.198 l 1.526,2.24 -2.198,2.701997 c -1.246,1.484 -1.316,1.54 -2.03,1.596 V 95.3 h 3.262 v -0.266 c -0.826,-0.056 -1.064,-0.168 -1.064,-0.49 0,-0.21 0.21,-0.56 0.728,-1.204 l 1.666,-2.071997 1.33,1.959997 c 0.476,0.714 0.714,1.162 0.714,1.372 0,0.252 -0.224,0.392 -0.7,0.406 -0.056,0 -0.21,0.014 -0.378,0.028 V 95.3 h 4.158 v -0.266 c -0.742,-0.084 -0.952,-0.224 -1.554,-1.036 l -2.688,-3.835997 2.044,-2.548 c 0.91,-1.092 1.19,-1.26 2.086,-1.316 z m 7.014,7.349997 -0.182,-0.07 c -0.518,0.812 -0.672,0.91 -1.33,0.924 h -3.346 l 2.352,-2.463997 c 1.246,-1.302 1.792,-2.366 1.792,-3.458 0,-1.4 -1.134,-2.478 -2.59,-2.478 -0.77,0 -1.498,0.308 -2.016,0.868 -0.448,0.476 -0.658,0.924 -0.896,1.918 l 0.294,0.07 c 0.56,-1.372 1.05,-1.82 2.03,-1.82 1.19,0 1.974,0.798 1.974,1.974 0,1.106 -0.644,2.394 -1.82,3.64 L 231.778,95.132 V 95.3 h 5.46 z m 7.336,3.766 v -0.7 h -6.958 v 0.7 z M 247.01,95.3 h 3.864 v -0.21 c -1.078,0 -1.316,-0.154 -1.33,-0.826 v -8.399997 l -0.112,-0.028 -2.52,1.274 v 0.196 c 0.546,-0.21 0.882,-0.308 1.008,-0.308 0.294,0 0.42,0.21 0.42,0.658 V 93.998 c -0.028,0.882 -0.266,1.078 -1.33,1.092 z"
     id="text10"
     style="font-size:14px;font-family:Times, serif"
     aria-label="MUX2_1" />
  <path
     id="polygon11"
     style="fill:none;stroke:#000000"
     d="M 256,132 V 48.5 h 36.75 V 132 Z" />
  <path
     id="polygon12"
     style="fill:none;stroke:#000000"
     d="M 262,126 V 54.5 h 24.75 V 126 Z" />
  <path
     d="m 273.036,92.836 c -0.42,1.498 -0.896,1.876 -2.408,1.932 h -3.598 l 6.048,-8.525997 v -0.21 h -7.364 l -0.28,2.394 h 0.364 c 0.238,-1.414 0.742,-1.82 2.352,-1.862 h 3.094 L 265.126,95.09 v 0.21 h 7.896 l 0.336,-2.464 z m 2.618,-3.961997 c -0.42,0 -0.77,0.35 -0.77,0.798 0,0.406 0.35,0.756 0.756,0.756 0.434,0 0.798,-0.336 0.798,-0.756 0,-0.434 -0.364,-0.798 -0.784,-0.798 z m 0,5.025997 c -0.42,0 -0.77,0.35 -0.77,0.798 0,0.406 0.35,0.756 0.756,0.756 0.434,0 0.798,-0.336 0.798,-0.756 0,-0.434 -0.364,-0.798 -0.784,-0.798 z m 3.64,1.4 h 3.864 v -0.21 c -1.078,0 -1.316,-0.154 -1.33,-0.826 v -8.399997 l -0.112,-0.028 -2.52,1.274 v 0.196 c 0.546,-0.21 0.882,-0.308 1.008,-0.308 0.294,0 0.42,0.21 0.42,0.658 V 93.998 c -0.028,0.882 -0.266,1.078 -1.33,1.092 z"
     id="text12"
     style="font-size:14px;font-family:Times, serif"
     aria-label="Z:1" />
  <path
     id="polygon13"
     style="fill:none;stroke:#000000"
     d="M 259,129 V 51.5 h 30.75 V 129 Z" />
  <path
     id="polygon14"
     style="fill:none;stroke:#000000"
     d="M 147.75,135 V 45.5 h 148 V 135 Z" />
  <path
     fill="none"
     stroke="#000000"
     d="m 103.75,66.25 c 23.11,0 28.89,-0.5 52,-0.5"
     id="path14" />
  <path
     id="polygon16"
     style="fill:#00ced1"
     d="m 606.25,236 v -89.5 h 148 V 236 Z" />
  <path
     id="polygon17"
     style="fill:none;stroke:#000000"
     d="M 609.25,233 V 149.5 H 652 V 233 Z" />
  <path
     id="polygon18"
     style="fill:none;stroke:#000000"
     d="M 615.25,178 V 155.5 H 646 V 178 Z" />
  <path
     d="m 624.508,162.336 h -0.294 c -0.056,0.308 -0.21,0.476 -0.448,0.476 -0.14,0 -0.378,-0.056 -0.616,-0.168 -0.518,-0.196 -1.036,-0.308 -1.498,-0.308 -0.588,0 -1.204,0.238 -1.666,0.644 -0.49,0.434 -0.742,1.022 -0.742,1.75 0,1.12 0.616,1.904 2.184,2.73 1.008,0.546 1.736,1.106 2.086,1.638 0.126,0.182 0.196,0.476 0.196,0.826 0,0.924 -0.7,1.568 -1.722,1.568 -1.26,0 -2.128,-0.77 -2.828,-2.478 h -0.322 l 0.42,2.968 h 0.308 c 0.014,-0.266 0.182,-0.462 0.392,-0.462 0.154,0 0.392,0.056 0.658,0.154 0.532,0.21 1.106,0.322 1.652,0.322 1.624,0 2.856,-1.106 2.856,-2.562 0,-1.148 -0.77,-2.044 -2.618,-3.052 -1.47,-0.798 -2.058,-1.414 -2.058,-2.184 0,-0.77 0.588,-1.288 1.456,-1.288 0.63,0 1.218,0.266 1.708,0.77 0.434,0.448 0.63,0.812 0.854,1.638 h 0.35 z m 5.082,0 c -0.77,0 -1.358,0.224 -1.876,0.728 -0.812,0.784 -1.344,2.394 -1.344,4.032 0,1.54 0.462,3.164 1.12,3.948 0.518,0.616 1.232,0.952 2.044,0.952 0.714,0 1.316,-0.238 1.82,-0.728 0.812,-0.77 1.344,-2.394 1.344,-4.088 0,-2.87 -1.274,-4.844 -3.108,-4.844 z m -0.042,0.364 c 1.176,0 1.806,1.582 1.806,4.508 0,2.926 -0.616,4.424 -1.82,4.424 -1.204,0 -1.82,-1.498 -1.82,-4.41 0,-2.982 0.63,-4.522 1.834,-4.522 z m 5.39,2.674 c -0.42,0 -0.77,0.35 -0.77,0.798 0,0.406 0.35,0.756 0.756,0.756 0.434,0 0.798,-0.336 0.798,-0.756 0,-0.434 -0.364,-0.798 -0.784,-0.798 z m 0,5.026 c -0.42,0 -0.77,0.35 -0.77,0.798 0,0.406 0.35,0.756 0.756,0.756 0.434,0 0.798,-0.336 0.798,-0.756 0,-0.434 -0.364,-0.798 -0.784,-0.798 z m 3.63999,1.4 h 3.864 v -0.21 c -1.078,0 -1.316,-0.154 -1.33,-0.826 v -8.4 l -0.112,-0.028 -2.52,1.274 v 0.196 c 0.546,-0.21 0.882,-0.308 1.008,-0.308 0.294,0 0.42,0.21 0.42,0.658 v 6.342 c -0.028,0.882 -0.266,1.078 -1.33,1.092 z"
     id="text18"
     style="font-size:14px;font-family:Times, serif"
     aria-label="S0:1" />
  <path
     id="polygon19"
     style="fill:none;stroke:#000000"
     d="M 615.25,202.5 V 180 H 646 v 22.5 z" />
  <path
     d="m 620.002,196.3 h 4.158 v -0.266 c -1.148,-0.028 -1.344,-0.224 -1.372,-1.26 v -6.216 c 0.028,-1.05 0.21,-1.218 1.372,-1.26 v -0.266 h -4.158 v 0.266 c 1.19,0.07 1.344,0.21 1.358,1.26 v 6.216 c -0.014,1.064 -0.182,1.218 -1.358,1.26 z m 7.966,-9.464 c -0.77,0 -1.358,0.224 -1.876,0.728 -0.812,0.784 -1.344,2.394 -1.344,4.032 0,1.54 0.462,3.164 1.12,3.948 0.518,0.616 1.232,0.952 2.044,0.952 0.714,0 1.316,-0.238 1.82,-0.728 0.812,-0.77 1.344,-2.394 1.344,-4.088 0,-2.87 -1.274,-4.844 -3.108,-4.844 z m -0.042,0.364 c 1.176,0 1.806,1.582 1.806,4.508 0,2.926 -0.616,4.424 -1.82,4.424 -1.204,0 -1.82,-1.498 -1.82,-4.41 0,-2.982 0.63,-4.522 1.834,-4.522 z m 5.39,2.674 c -0.42,0 -0.77,0.35 -0.77,0.798 0,0.406 0.35,0.756 0.756,0.756 0.434,0 0.798,-0.336 0.798,-0.756 0,-0.434 -0.364,-0.798 -0.784,-0.798 z m 0,5.026 c -0.42,0 -0.77,0.35 -0.77,0.798 0,0.406 0.35,0.756 0.756,0.756 0.434,0 0.798,-0.336 0.798,-0.756 0,-0.434 -0.364,-0.798 -0.784,-0.798 z m 3.64,1.4 h 3.864 v -0.21 c -1.078,0 -1.316,-0.154 -1.33,-0.826 v -8.4 l -0.112,-0.028 -2.52,1.274 v 0.196 c 0.546,-0.21 0.882,-0.308 1.008,-0.308 0.294,0 0.42,0.21 0.42,0.658 v 6.342 c -0.028,0.882 -0.266,1.078 -1.33,1.092 z"
     id="text19"
     style="font-size:14px;font-family:Times, serif"
     aria-label="I0:1" />
  <path
     id="polygon20"
     style="fill:none;stroke:#000000"
     d="M 615.25,227 V 204.5 H 646 V 227 Z" />
  <path
     d="m 620.002,220.8 h 4.158 v -0.266 c -1.148,-0.028 -1.344,-0.224 -1.372,-1.26 v -6.216 c 0.028,-1.05 0.21,-1.218 1.372,-1.26 v -0.266 h -4.158 v 0.266 c 1.19,0.07 1.344,0.21 1.358,1.26 v 6.216 c -0.014,1.064 -0.182,1.218 -1.358,1.26 z m 6.062,0 h 3.864 v -0.21 c -1.078,0 -1.316,-0.154 -1.33,-0.826 v -8.4 l -0.112,-0.028 -2.52,1.274 v 0.196 c 0.546,-0.21 0.882,-0.308 1.008,-0.308 0.294,0 0.42,0.21 0.42,0.658 v 6.342 c -0.028,0.882 -0.266,1.078 -1.33,1.092 z m 7.252,-6.426 c -0.42,0 -0.77,0.35 -0.77,0.798 0,0.406 0.35,0.756 0.756,0.756 0.434,0 0.798,-0.336 0.798,-0.756 0,-0.434 -0.364,-0.798 -0.784,-0.798 z m 0,5.026 c -0.42,0 -0.77,0.35 -0.77,0.798 0,0.406 0.35,0.756 0.756,0.756 0.434,0 0.798,-0.336 0.798,-0.756 0,-0.434 -0.364,-0.798 -0.784,-0.798 z m 3.64,1.4 h 3.864 v -0.21 c -1.078,0 -1.316,-0.154 -1.33,-0.826 v -8.4 l -0.112,-0.028 -2.52,1.274 v 0.196 c 0.546,-0.21 0.882,-0.308 1.008,-0.308 0.294,0 0.42,0.21 0.42,0.658 v 6.342 c -0.028,0.882 -0.266,1.078 -1.33,1.092 z"
     id="text20"
     style="font-size:14px;font-family:Times, serif"
     aria-label="I1:1" />
  <path
     id="polygon21"
     style="fill:none;stroke:#000000"
     d="M 612.25,230 V 152.5 H 649 V 230 Z" />
  <path
     id="polygon22"
     style="fill:none;stroke:#000000"
     d="m 654,233 v -83.5 h 58.5 V 233 Z" />
  <path
     d="m 669.082,187.032 h -2.786 l -3.094,7.07 -3.234,-7.07 h -2.772 v 0.266 c 1.148,0.056 1.302,0.21 1.33,1.26 v 5.684 c -0.028,1.484 -0.21,1.722 -1.358,1.792 v 0.266 h 3.29 v -0.266 c -1.078,-0.056 -1.288,-0.35 -1.316,-1.792 V 188.6 l 3.514,7.7 h 0.196 l 3.584,-8.022 v 6.342 c -0.014,1.19 -0.168,1.344 -1.274,1.414 v 0.266 h 3.92 v -0.266 c -1.008,-0.056 -1.19,-0.252 -1.218,-1.26 v -6.216 c 0.028,-1.008 0.196,-1.19 1.218,-1.26 z m 10.234,0 h -3.248 v 0.266 c 1.078,0.07 1.288,0.35 1.316,1.792 v 3.78 c 0,0.952 -0.084,1.484 -0.322,1.904 -0.378,0.672 -1.274,1.106 -2.324,1.106 -0.994,0 -1.68,-0.336 -2.058,-0.994 -0.252,-0.448 -0.35,-0.966 -0.35,-1.848 v -4.48 c 0.014,-1.022 0.154,-1.162 1.274,-1.26 v -0.266 h -3.962 v 0.266 c 1.106,0.084 1.246,0.224 1.26,1.26 v 4.368 c 0,2.422 1.134,3.57 3.514,3.57 1.526,0 2.576,-0.49 3.122,-1.442 0.336,-0.588 0.462,-1.232 0.462,-2.31 v -3.654 c 0.028,-1.47 0.182,-1.666 1.316,-1.792 z m 10.178,0 h -3.332 v 0.266 c 0.756,0.028 0.98,0.126 0.98,0.448 0,0.21 -0.14,0.462 -0.56,0.966 l -1.582,1.932 -0.588,-0.826 c -0.854,-1.204 -1.19,-1.792 -1.19,-2.1 0,-0.28 0.21,-0.392 0.672,-0.406 l 0.392,-0.014 v -0.266 h -4.228 v 0.266 c 0.91,0.042 1.162,0.252 2.534,2.198 l 1.526,2.24 -2.198,2.702 c -1.246,1.484 -1.316,1.54 -2.03,1.596 v 0.266 h 3.262 v -0.266 c -0.826,-0.056 -1.064,-0.168 -1.064,-0.49 0,-0.21 0.21,-0.56 0.728,-1.204 l 1.666,-2.072 1.33,1.96 c 0.476,0.714 0.714,1.162 0.714,1.372 0,0.252 -0.224,0.392 -0.7,0.406 -0.056,0 -0.21,0.014 -0.378,0.028 v 0.266 h 4.158 v -0.266 c -0.742,-0.084 -0.952,-0.224 -1.554,-1.036 l -2.688,-3.836 2.044,-2.548 c 0.91,-1.092 1.19,-1.26 2.086,-1.316 z m 7.014,7.35 -0.182,-0.07 c -0.518,0.812 -0.672,0.91 -1.33,0.924 h -3.346 l 2.352,-2.464 c 1.246,-1.302 1.792,-2.366 1.792,-3.458 0,-1.4 -1.134,-2.478 -2.59,-2.478 -0.77,0 -1.498,0.308 -2.016,0.868 -0.448,0.476 -0.658,0.924 -0.896,1.918 l 0.294,0.07 c 0.56,-1.372 1.05,-1.82 2.03,-1.82 1.19,0 1.974,0.798 1.974,1.974 0,1.106 -0.644,2.394 -1.82,3.64 l -2.492,2.646 v 0.168 h 5.46 z m 7.336,3.766 v -0.7 h -6.958 v 0.7 z m 1.666,-1.848 h 3.864 v -0.21 c -1.078,0 -1.316,-0.154 -1.33,-0.826 v -8.4 l -0.112,-0.028 -2.52,1.274 v 0.196 c 0.546,-0.21 0.882,-0.308 1.008,-0.308 0.294,0 0.42,0.21 0.42,0.658 v 6.342 c -0.028,0.882 -0.266,1.078 -1.33,1.092 z"
     id="text22"
     style="font-size:14px;font-family:Times, serif"
     aria-label="MUX2_1" />
  <path
     id="polygon23"
     style="fill:none;stroke:#000000"
     d="m 714.5,233 v -83.5 h 36.75 V 233 Z" />
  <path
     id="polygon24"
     style="fill:none;stroke:#000000"
     d="m 720.5,227 v -71.5 h 24.75 V 227 Z" />
  <path
     d="m 731.536,193.836 c -0.42,1.498 -0.896,1.876 -2.408,1.932 h -3.598 l 6.048,-8.526 v -0.21 h -7.364 l -0.28,2.394 h 0.364 c 0.238,-1.414 0.742,-1.82 2.352,-1.862 h 3.094 l -6.118,8.526 v 0.21 h 7.896 l 0.336,-2.464 z m 2.618,-3.962 c -0.42,0 -0.77,0.35 -0.77,0.798 0,0.406 0.35,0.756 0.756,0.756 0.434,0 0.798,-0.336 0.798,-0.756 0,-0.434 -0.364,-0.798 -0.784,-0.798 z m 0,5.026 c -0.42,0 -0.77,0.35 -0.77,0.798 0,0.406 0.35,0.756 0.756,0.756 0.434,0 0.798,-0.336 0.798,-0.756 0,-0.434 -0.364,-0.798 -0.784,-0.798 z m 3.64,1.4 h 3.864 v -0.21 c -1.078,0 -1.316,-0.154 -1.33,-0.826 v -8.4 l -0.112,-0.028 -2.52,1.274 v 0.196 c 0.546,-0.21 0.882,-0.308 1.008,-0.308 0.294,0 0.42,0.21 0.42,0.658 v 6.342 c -0.028,0.882 -0.266,1.078 -1.33,1.092 z"
     id="text24"
     style="font-size:14px;font-family:Times, serif"
     aria-label="Z:1" />
  <path
     id="polygon25"
     style="fill:none;stroke:#000000"
     d="m 717.5,230 v -77.5 h 30.75 V 230 Z" />
  <path
     id="polygon26"
     style="fill:none;stroke:#000000"
     d="m 606.25,236 v -89.5 h 148 V 236 Z" />
  <path
     fill="none"
     stroke="#000000"
     d="m 103.75,66.25 c 39.8,0 3.7,58.74 36,82 75.33,54.25 115.17,19 208,19 0,0 0,0 104.25,0 72.11,0 90.14,-0.5 162.25,-0.5"
     id="path26" />
  <path
     id="polygon28"
     style="fill:#00ced1"
     d="M 1067,90 V 0.5 h 148 V 90 Z" />
  <path
     id="polygon29"
     style="fill:none;stroke:#000000"
     d="M 1070,87 V 3.5 h 42.75 V 87 Z" />
  <path
     id="polygon30"
     style="fill:none;stroke:#000000"
     d="M 1076,32 V 9.5 h 30.75 V 32 Z" />
  <path
     d="m 1085.258,16.336003 h -0.294 c -0.056,0.308 -0.21,0.476 -0.448,0.476 -0.14,0 -0.378,-0.056 -0.616,-0.168 -0.518,-0.196 -1.036,-0.308 -1.498,-0.308 -0.588,0 -1.204,0.238 -1.666,0.644 -0.49,0.434 -0.742,1.022 -0.742,1.75 0,1.12 0.616,1.904 2.184,2.73 1.008,0.546 1.736,1.106 2.086,1.638 0.126,0.182 0.196,0.476 0.196,0.826 0,0.924 -0.7,1.568 -1.722,1.568 -1.26,0 -2.128,-0.77 -2.828,-2.478 h -0.322 l 0.42,2.968 h 0.308 c 0.014,-0.266 0.182,-0.462 0.392,-0.462 0.154,0 0.392,0.056 0.658,0.154 0.532,0.21 1.106,0.322 1.652,0.322 1.624,0 2.856,-1.106 2.856,-2.562 0,-1.148 -0.77,-2.044 -2.618,-3.052 -1.47,-0.798 -2.058,-1.414 -2.058,-2.184 0,-0.77 0.588,-1.288 1.456,-1.288 0.63,0 1.218,0.266 1.708,0.77 0.434,0.448 0.63,0.812 0.854,1.638 h 0.35 z m 5.082,0 c -0.77,0 -1.358,0.224 -1.876,0.728 -0.812,0.784 -1.344,2.394 -1.344,4.032 0,1.54 0.462,3.164 1.12,3.948 0.518,0.616 1.232,0.952 2.044,0.952 0.714,0 1.316,-0.238 1.82,-0.728 0.812,-0.77 1.344,-2.394 1.344,-4.088 0,-2.87 -1.274,-4.844 -3.108,-4.844 z m -0.042,0.364 c 1.176,0 1.806,1.582 1.806,4.508 0,2.926 -0.616,4.424 -1.82,4.424 -1.204,0 -1.82,-1.498 -1.82,-4.41 0,-2.982 0.63,-4.522 1.834,-4.522 z m 5.39,2.674 c -0.42,0 -0.77,0.35 -0.77,0.798 0,0.406 0.35,0.756 0.756,0.756 0.434,0 0.798,-0.336 0.798,-0.756 0,-0.434 -0.364,-0.798 -0.784,-0.798 z m 0,5.026 c -0.42,0 -0.77,0.35 -0.77,0.798 0,0.406 0.35,0.756 0.756,0.756 0.434,0 0.798,-0.336 0.798,-0.756 0,-0.434 -0.364,-0.798 -0.784,-0.798 z m 3.64,1.4 h 3.864 v -0.21 c -1.078,0 -1.316,-0.154 -1.33,-0.826 v -8.4 l -0.112,-0.028 -2.52,1.274 v 0.196 c 0.546,-0.21 0.882,-0.308 1.008,-0.308 0.294,0 0.42,0.21 0.42,0.658 v 6.342 c -0.028,0.882 -0.266,1.078 -1.33,1.092 z"
     id="text30"
     style="font-size:14px;font-family:Times, serif"
     aria-label="S0:1" />
  <path
     id="polygon31"
     style="fill:none;stroke:#000000"
     d="M 1076,56.5 V 34 h 30.75 v 22.5 z" />
  <path
     d="m 1080.752,50.300003 h 4.158 v -0.266 c -1.148,-0.028 -1.344,-0.224 -1.372,-1.26 v -6.216 c 0.028,-1.05 0.21,-1.218 1.372,-1.26 v -0.266 h -4.158 v 0.266 c 1.19,0.07 1.344,0.21 1.358,1.26 v 6.216 c -0.014,1.064 -0.182,1.218 -1.358,1.26 z m 7.966,-9.464 c -0.77,0 -1.358,0.224 -1.876,0.728 -0.812,0.784 -1.344,2.394 -1.344,4.032 0,1.54 0.462,3.164 1.12,3.948 0.518,0.616 1.232,0.952 2.044,0.952 0.714,0 1.316,-0.238 1.82,-0.728 0.812,-0.77 1.344,-2.394 1.344,-4.088 0,-2.87 -1.274,-4.844 -3.108,-4.844 z m -0.042,0.364 c 1.176,0 1.806,1.582 1.806,4.508 0,2.926 -0.616,4.424 -1.82,4.424 -1.204,0 -1.82,-1.498 -1.82,-4.41 0,-2.982 0.63,-4.522 1.834,-4.522 z m 5.39,2.674 c -0.42,0 -0.77,0.35 -0.77,0.798 0,0.406 0.35,0.756 0.756,0.756 0.434,0 0.798,-0.336 0.798,-0.756 0,-0.434 -0.364,-0.798 -0.784,-0.798 z m 0,5.026 c -0.42,0 -0.77,0.35 -0.77,0.798 0,0.406 0.35,0.756 0.756,0.756 0.434,0 0.798,-0.336 0.798,-0.756 0,-0.434 -0.364,-0.798 -0.784,-0.798 z m 3.64,1.4 h 3.864 v -0.21 c -1.078,0 -1.316,-0.154 -1.33,-0.826 v -8.4 l -0.112,-0.028 -2.52,1.274 v 0.196 c 0.546,-0.21 0.882,-0.308 1.008,-0.308 0.294,0 0.42,0.21 0.42,0.658 v 6.342 c -0.028,0.882 -0.266,1.078 -1.33,1.092 z"
     id="text31"
     style="font-size:14px;font-family:Times, serif"
     aria-label="I0:1" />
  <path
     id="polygon32"
     style="fill:none;stroke:#000000"
     d="M 1076,81 V 58.5 h 30.75 V 81 Z" />
  <path
     d="m 1080.752,74.800003 h 4.158 v -0.266 c -1.148,-0.028 -1.344,-0.224 -1.372,-1.26 v -6.216 c 0.028,-1.05 0.21,-1.218 1.372,-1.26 v -0.266 h -4.158 v 0.266 c 1.19,0.07 1.344,0.21 1.358,1.26 v 6.216 c -0.014,1.064 -0.182,1.218 -1.358,1.26 z m 6.062,0 h 3.864 v -0.21 c -1.078,0 -1.316,-0.154 -1.33,-0.826 v -8.4 l -0.112,-0.028 -2.52,1.274 v 0.196 c 0.546,-0.21 0.882,-0.308 1.008,-0.308 0.294,0 0.42,0.21 0.42,0.658 v 6.342 c -0.028,0.882 -0.266,1.078 -1.33,1.092 z m 7.252,-6.426 c -0.42,0 -0.77,0.35 -0.77,0.798 0,0.406 0.35,0.756 0.756,0.756 0.434,0 0.798,-0.336 0.798,-0.756 0,-0.434 -0.364,-0.798 -0.784,-0.798 z m 0,5.026 c -0.42,0 -0.77,0.35 -0.77,0.798 0,0.406 0.35,0.756 0.756,0.756 0.434,0 0.798,-0.336 0.798,-0.756 0,-0.434 -0.364,-0.798 -0.784,-0.798 z m 3.64,1.4 h 3.864 v -0.21 c -1.078,0 -1.316,-0.154 -1.33,-0.826 v -8.4 l -0.112,-0.028 -2.52,1.274 v 0.196 c 0.546,-0.21 0.882,-0.308 1.008,-0.308 0.294,0 0.42,0.21 0.42,0.658 v 6.342 c -0.028,0.882 -0.266,1.078 -1.33,1.092 z"
     id="text32"
     style="font-size:14px;font-family:Times, serif"
     aria-label="I1:1" />
  <path
     id="polygon33"
     style="fill:none;stroke:#000000"
     d="M 1073,84 V 6.5 h 36.75 V 84 Z" />
  <path
     id="polygon34"
     style="fill:none;stroke:#000000"
     d="M 1114.75,87 V 3.5 h 58.5 V 87 Z" />
  <path
     d="m 1129.832,41.032003 h -2.786 l -3.094,7.07 -3.234,-7.07 h -2.772 v 0.266 c 1.148,0.056 1.302,0.21 1.33,1.26 v 5.684 c -0.028,1.484 -0.21,1.722 -1.358,1.792 v 0.266 h 3.29 v -0.266 c -1.078,-0.056 -1.288,-0.35 -1.316,-1.792 v -5.642 l 3.514,7.7 h 0.196 l 3.584,-8.022 v 6.342 c -0.014,1.19 -0.168,1.344 -1.274,1.414 v 0.266 h 3.92 v -0.266 c -1.008,-0.056 -1.19,-0.252 -1.218,-1.26 v -6.216 c 0.028,-1.008 0.196,-1.19 1.218,-1.26 z m 10.234,0 h -3.248 v 0.266 c 1.078,0.07 1.288,0.35 1.316,1.792 v 3.78 c 0,0.952 -0.084,1.484 -0.322,1.904 -0.378,0.672 -1.274,1.106 -2.324,1.106 -0.994,0 -1.68,-0.336 -2.058,-0.994 -0.252,-0.448 -0.35,-0.966 -0.35,-1.848 v -4.48 c 0.014,-1.022 0.154,-1.162 1.274,-1.26 v -0.266 h -3.962 v 0.266 c 1.106,0.084 1.246,0.224 1.26,1.26 v 4.368 c 0,2.422 1.134,3.57 3.514,3.57 1.526,0 2.576,-0.49 3.122,-1.442 0.336,-0.588 0.462,-1.232 0.462,-2.31 v -3.654 c 0.028,-1.47 0.182,-1.666 1.316,-1.792 z m 10.178,0 h -3.332 v 0.266 c 0.756,0.028 0.98,0.126 0.98,0.448 0,0.21 -0.14,0.462 -0.56,0.966 l -1.582,1.932 -0.588,-0.826 c -0.854,-1.204 -1.19,-1.792 -1.19,-2.1 0,-0.28 0.21,-0.392 0.672,-0.406 l 0.392,-0.014 v -0.266 h -4.228 v 0.266 c 0.91,0.042 1.162,0.252 2.534,2.198 l 1.526,2.24 -2.198,2.702 c -1.246,1.484 -1.316,1.54 -2.03,1.596 v 0.266 h 3.262 v -0.266 c -0.826,-0.056 -1.064,-0.168 -1.064,-0.49 0,-0.21 0.21,-0.56 0.728,-1.204 l 1.666,-2.072 1.33,1.96 c 0.476,0.714 0.714,1.162 0.714,1.372 0,0.252 -0.224,0.392 -0.7,0.406 -0.056,0 -0.21,0.014 -0.378,0.028 v 0.266 h 4.158 v -0.266 c -0.742,-0.084 -0.952,-0.224 -1.554,-1.036 l -2.688,-3.836 2.044,-2.548 c 0.91,-1.092 1.19,-1.26 2.086,-1.316 z m 7.014,7.35 -0.182,-0.07 c -0.518,0.812 -0.672,0.91 -1.33,0.924 h -3.346 l 2.352,-2.464 c 1.246,-1.302 1.792,-2.366 1.792,-3.458 0,-1.4 -1.134,-2.478 -2.59,-2.478 -0.77,0 -1.498,0.308 -2.016,0.868 -0.448,0.476 -0.658,0.924 -0.896,1.918 l 0.294,0.07 c 0.56,-1.372 1.05,-1.82 2.03,-1.82 1.19,0 1.974,0.798 1.974,1.974 0,1.106 -0.644,2.394 -1.82,3.64 l -2.492,2.646 v 0.168 h 5.46 z m 7.336,3.766 v -0.7 h -6.958 v 0.7 z m 1.666,-1.848 h 3.864 v -0.21 c -1.078,0 -1.316,-0.154 -1.33,-0.826 v -8.4 l -0.112,-0.028 -2.52,1.274 v 0.196 c 0.546,-0.21 0.882,-0.308 1.008,-0.308 0.294,0 0.42,0.21 0.42,0.658 v 6.342 c -0.028,0.882 -0.266,1.078 -1.33,1.092 z"
     id="text34"
     style="font-size:14px;font-family:Times, serif"
     aria-label="MUX2_1" />
  <path
     id="polygon35"
     style="fill:none;stroke:#000000"
     d="M 1175.25,87 V 3.5 H 1212 V 87 Z" />
  <path
     id="polygon36"
     style="fill:none;stroke:#000000"
     d="M 1181.25,81 V 9.5 H 1206 V 81 Z" />
  <path
     d="m 1192.286,47.836003 c -0.42,1.498 -0.896,1.876 -2.408,1.932 h -3.598 l 6.048,-8.526 v -0.21 h -7.364 l -0.28,2.394 h 0.364 c 0.238,-1.414 0.742,-1.82 2.352,-1.862 h 3.094 l -6.118,8.526 v 0.21 h 7.896 l 0.336,-2.464 z m 2.618,-3.962 c -0.42,0 -0.77,0.35 -0.77,0.798 0,0.406 0.35,0.756 0.756,0.756 0.434,0 0.798,-0.336 0.798,-0.756 0,-0.434 -0.364,-0.798 -0.784,-0.798 z m 0,5.026 c -0.42,0 -0.77,0.35 -0.77,0.798 0,0.406 0.35,0.756 0.756,0.756 0.434,0 0.798,-0.336 0.798,-0.756 0,-0.434 -0.364,-0.798 -0.784,-0.798 z m 3.64,1.4 h 3.864 v -0.21 c -1.078,0 -1.316,-0.154 -1.33,-0.826 v -8.4 l -0.112,-0.028 -2.52,1.274 v 0.196 c 0.546,-0.21 0.882,-0.308 1.008,-0.308 0.294,0 0.42,0.21 0.42,0.658 v 6.342 c -0.028,0.882 -0.266,1.078 -1.33,1.092 z"
     id="text36"
     style="font-size:14px;font-family:Times, serif"
     aria-label="Z:1" />
  <path
     id="polygon37"
     style="fill:none;stroke:#000000"
     d="M 1178.25,84 V 6.5 H 1209 V 84 Z" />
  <path
     id="polygon38"
     style="fill:none;stroke:#000000"
     d="M 1067,90 V 0.5 h 148 V 90 Z" />
  <path
     fill="none"
     stroke="#000000"
     d="m 103.75,66.25 c 22.01,0 16.01,-24.8 36,-34 84.45,-38.85 115.04,-22 208,-22 0,0 0,0 563.87,0 72.77,0 90.62,10.5 163.38,10.5"
     id="path38" />
  <path
     id="ellipse39"
     style="stroke:#000000"
     d="m 103.75,102.25 a 9,9 0 0 1 -9,9 9,9 0 0 1 -9,-9 9,9 0 0 1 9,-9 9,9 0 0 1 9,9 z" />
  <path
     d="m 92.902,107.3 h 3.864 v -0.21 c -1.078,0 -1.316,-0.154 -1.33,-0.826 v -8.4 l -0.112,-0.028 -2.52,1.274 v 0.196 c 0.546,-0.21 0.882,-0.308 1.008,-0.308 0.294,0 0.42,0.21 0.42,0.658 v 6.342 c -0.028,0.882 -0.266,1.078 -1.33,1.092 z"
     id="text39"
     style="font-size:14px;font-family:Times, serif;text-anchor:middle;fill:#ffffff"
     aria-label="1" />
  <path
     fill="none"
     stroke="#000000"
     d="m 103.75,102.25 c 23.72,0 28.28,-12 52,-12"
     id="path40" />
  <path
     fill="none"
     stroke="#000000"
     d="m 103.75,102.25 c 38.58,0 5.07,55.93 36,79 74.82,55.81 114.66,29 208,29 0,0 0,0 104.25,0 72.15,0 90.1,5.5 162.25,5.5"
     id="path41" />
  <path
     id="ellipse42"
     style="stroke:#000000"
     d="m 1277,45.25 a 9,9 0 0 1 -9,9 9,9 0 0 1 -9,-9 9,9 0 0 1 9,-9 9,9 0 0 1 9,9 z" />
  <path
     d="m 1266.152,50.300003 h 3.864 v -0.21 c -1.078,0 -1.316,-0.154 -1.33,-0.826 v -8.4 l -0.112,-0.028 -2.52,1.274 v 0.196 c 0.546,-0.21 0.882,-0.308 1.008,-0.308 0.294,0 0.42,0.21 0.42,0.658 v 6.342 c -0.028,0.882 -0.266,1.078 -1.33,1.092 z"
     id="text42"
     style="font-size:14px;font-family:Times, serif;text-anchor:middle;fill:#ffffff"
     aria-label="1" />
  <path
     id="polygon44"
     style="fill:#808080"
     d="M 1321,65.5 V 25 h 40.5 v 40.5 z" />
  <path
     id="polygon45"
     style="fill:none;stroke:#000000"
     d="M 1324,62.5 V 28 h 34.5 v 34.5 z" />
  <path
     id="polygon46"
     style="fill:none;stroke:#000000"
     d="M 1330,56.5 V 34 h 22.5 v 22.5 z" />
  <path
     d="m 1338.852,48.410003 -0.252,-0.056 c -0.252,1.316 -0.448,1.484 -1.792,1.526 h -1.932 l 3.766,-5.67 v -0.21 h -4.858 l -0.042,1.652 h 0.252 c 0.112,-0.994 0.308,-1.204 1.176,-1.232 h 1.932 l -3.724,5.67 v 0.21 h 5.278 z m 2.436,-4.536 c -0.42,0 -0.77,0.35 -0.77,0.798 0,0.406 0.35,0.756 0.756,0.756 0.434,0 0.798,-0.336 0.798,-0.756 0,-0.434 -0.364,-0.798 -0.784,-0.798 z m 0,5.026 c -0.42,0 -0.77,0.35 -0.77,0.798 0,0.406 0.35,0.756 0.756,0.756 0.434,0 0.798,-0.336 0.798,-0.756 0,-0.434 -0.364,-0.798 -0.784,-0.798 z m 3.64,1.4 h 3.864 v -0.21 c -1.078,0 -1.316,-0.154 -1.33,-0.826 v -8.4 l -0.112,-0.028 -2.52,1.274 v 0.196 c 0.546,-0.21 0.882,-0.308 1.008,-0.308 0.294,0 0.42,0.21 0.42,0.658 v 6.342 c -0.028,0.882 -0.266,1.078 -1.33,1.092 z"
     id="text46"
     style="font-size:14px;font-family:Times, serif"
     aria-label="z:1" />
  <path
     id="polygon47"
     style="fill:none;stroke:#000000"
     d="M 1327,59.5 V 31 h 28.5 v 28.5 z" />
  <path
     id="polygon48"
     style="fill:none;stroke:#000000"
     d="M 1321,65.5 V 25 h 40.5 v 40.5 z" />
  <path
     fill="none"
     stroke="#000000"
     d="m 1277,45.25 c 23.11,0 28.89,0 52,0"
     id="path48" />
  <path
     id="ellipse49"
     style="stroke:#000000"
     d="m 357.75,70.25 a 9,9 0 0 1 -9,9 9,9 0 0 1 -9,-9 9,9 0 0 1 9,-9 9,9 0 0 1 9,9 z" />
  <path
     d="m 346.902,75.300003 h 3.864 v -0.21 c -1.078,0 -1.316,-0.154 -1.33,-0.826 v -8.4 l -0.112,-0.028 -2.52,1.274 v 0.196 c 0.546,-0.21 0.882,-0.308 1.008,-0.308 0.294,0 0.42,0.21 0.42,0.658 v 6.342 c -0.028,0.882 -0.266,1.078 -1.33,1.092 z"
     id="text49"
     style="font-size:14px;font-family:Times, serif;text-anchor:middle;fill:#ffffff"
     aria-label="1" />
  <path
     id="polygon50"
     style="fill:#ffffff"
     d="m 508.25,38 h -114.5 v 48.5 h 114.5 z" />
  <path
     id="polygon51"
     style="fill:#ffffff"
     d="M 401.75,82.5 V 42 h 98.5 v 40.5 z" />
  <path
     id="polygon52"
     style="fill:none;stroke:#000000"
     d="M 404.75,79.5 V 45 H 443 v 34.5 z" />
  <path
     id="polygon53"
     style="fill:none;stroke:#000000"
     d="M 410.75,73.5 V 51 H 437 v 22.5 z" />
  <path
     d="m 423.634,67.034003 c -0.63,-0.042 -0.77,-0.182 -1.26,-1.218 l -3.486,-7.952 h -0.28 l -2.912,6.874 c -0.896,2.044 -1.064,2.268 -1.736,2.296 v 0.266 h 2.772 v -0.266 c -0.672,0 -0.952,-0.168 -0.952,-0.574 0,-0.168 0.042,-0.364 0.112,-0.546 l 0.644,-1.638 h 3.668 l 0.574,1.344 c 0.168,0.378 0.266,0.742 0.266,0.938 0,0.35 -0.238,0.462 -0.98,0.476 v 0.266 h 3.57 z m -6.86,-3.332 1.61,-3.85 1.624,3.85 z m 8.988,-2.828 c -0.42,0 -0.77,0.35 -0.77,0.798 0,0.406 0.35,0.756 0.756,0.756 0.434,0 0.798,-0.336 0.798,-0.756 0,-0.434 -0.364,-0.798 -0.784,-0.798 z m 0,5.026 c -0.42,0 -0.77,0.35 -0.77,0.798 0,0.406 0.35,0.756 0.756,0.756 0.434,0 0.798,-0.336 0.798,-0.756 0,-0.434 -0.364,-0.798 -0.784,-0.798 z m 3.64,1.4 h 3.864 v -0.21 c -1.078,0 -1.316,-0.154 -1.33,-0.826 v -8.4 l -0.112,-0.028 -2.52,1.274 v 0.196 c 0.546,-0.21 0.882,-0.308 1.008,-0.308 0.294,0 0.42,0.21 0.42,0.658 v 6.342 c -0.028,0.882 -0.266,1.078 -1.33,1.092 z"
     id="text53"
     style="font-size:14px;font-family:Times, serif"
     aria-label="A:1" />
  <path
     id="polygon54"
     style="fill:none;stroke:#000000"
     d="M 407.75,76.5 V 48 H 440 v 28.5 z" />
  <path
     id="polygon55"
     style="fill:none;stroke:#000000"
     d="M 445,79.5 V 45 h 13.5 v 34.5 z" />
  <path
     d="m 454.706,64.066003 v -3.248 h -0.322 c -0.154,1.106 -0.392,1.302 -1.54,1.33 h -2.03 v -3.108 c 0.014,-0.42 0.056,-0.462 0.448,-0.476 h 1.904 c 1.624,0.028 1.904,0.224 2.128,1.47 h 0.35 l -0.042,-2.002 h -7.434 v 0.266 c 1.022,0.07 1.19,0.252 1.218,1.26 v 6.062 c -0.014,1.19 -0.154,1.344 -1.218,1.414 v 0.266 h 3.92 v -0.266 c -1.064,-0.042 -1.26,-0.238 -1.274,-1.26 v -3.052 h 2.03 c 1.148,0.014 1.372,0.21 1.54,1.344 z"
     id="text55"
     style="font-size:14px;font-family:Times, serif"
     aria-label="F" />
  <path
     id="polygon56"
     style="fill:none;stroke:#000000"
     d="M 460.5,79.5 V 45 h 36.75 v 34.5 z" />
  <path
     id="polygon57"
     style="fill:none;stroke:#000000"
     d="M 466.5,73.5 V 51 h 24.75 v 22.5 z" />
  <path
     d="m 477.536,64.836003 c -0.42,1.498 -0.896,1.876 -2.408,1.932 h -3.598 l 6.048,-8.526 v -0.21 h -7.364 l -0.28,2.394 h 0.364 c 0.238,-1.414 0.742,-1.82 2.352,-1.862 h 3.094 l -6.118,8.526 v 0.21 h 7.896 l 0.336,-2.464 z m 2.618,-3.962 c -0.42,0 -0.77,0.35 -0.77,0.798 0,0.406 0.35,0.756 0.756,0.756 0.434,0 0.798,-0.336 0.798,-0.756 0,-0.434 -0.364,-0.798 -0.784,-0.798 z m 0,5.026 c -0.42,0 -0.77,0.35 -0.77,0.798 0,0.406 0.35,0.756 0.756,0.756 0.434,0 0.798,-0.336 0.798,-0.756 0,-0.434 -0.364,-0.798 -0.784,-0.798 z m 3.64,1.4 h 3.864 v -0.21 c -1.078,0 -1.316,-0.154 -1.33,-0.826 v -8.4 l -0.112,-0.028 -2.52,1.274 v 0.196 c 0.546,-0.21 0.882,-0.308 1.008,-0.308 0.294,0 0.42,0.21 0.42,0.658 v 6.342 c -0.028,0.882 -0.266,1.078 -1.33,1.092 z"
     id="text57"
     style="font-size:14px;font-family:Times, serif"
     aria-label="Z:1" />
  <path
     id="polygon58"
     style="fill:none;stroke:#000000"
     d="M 463.5,76.5 V 48 h 30.75 v 28.5 z" />
  <path
     id="polygon59"
     style="fill:none;stroke:#000000"
     d="M 401.75,82.5 V 42 h 98.5 v 40.5 z" />
  <path
     fill="none"
     stroke="#000000"
     d="m 357.75,70.25 c 23.38,0 28.62,-8 52,-8"
     id="path59" />
  <path
     id="ellipse60"
     style="stroke:#000000"
     d="m 562.25,69.25 a 9,9 0 0 1 -9,9 9,9 0 0 1 -9,-9 9,9 0 0 1 9,-9 9,9 0 0 1 9,9 z" />
  <path
     d="m 551.402,74.300003 h 3.864 v -0.21 c -1.078,0 -1.316,-0.154 -1.33,-0.826 v -8.4 l -0.112,-0.028 -2.52,1.274 v 0.196 c 0.546,-0.21 0.882,-0.308 1.008,-0.308 0.294,0 0.42,0.21 0.42,0.658 v 6.342 c -0.028,0.882 -0.266,1.078 -1.33,1.092 z"
     id="text60"
     style="font-size:14px;font-family:Times, serif;text-anchor:middle;fill:#ffffff"
     aria-label="1" />
  <path
     fill="none"
     stroke="#000000"
     d="m 562.25,69.25 c 58.94,0 -6.94,122 52,122"
     id="path61" />
  <path
     fill="none"
     stroke="#000000"
     d="m 562.25,69.25 c 108.44,0 135.56,0 244,0 0,0 0,0 105.37,0 72.62,0 90.77,0.5 163.38,0.5"
     id="path62" />
  <path
     id="ellipse63"
     style="stroke:#000000"
     d="m 816.25,179.25 a 9,9 0 0 1 -9,9 9,9 0 0 1 -9,-9 9,9 0 0 1 9,-9 9,9 0 0 1 9,9 z" />
  <path
     d="m 805.402,184.3 h 3.864 v -0.21 c -1.078,0 -1.316,-0.154 -1.33,-0.826 v -8.4 l -0.112,-0.028 -2.52,1.274 v 0.196 c 0.546,-0.21 0.882,-0.308 1.008,-0.308 0.294,0 0.42,0.21 0.42,0.658 v 6.342 c -0.028,0.882 -0.266,1.078 -1.33,1.092 z"
     id="text63"
     style="font-size:14px;font-family:Times, serif;text-anchor:middle;fill:#ffffff"
     aria-label="1" />
  <path
     id="polygon65"
     style="fill:#ffffff"
     d="M 860.25,192.5 V 152 H 961 v 40.5 z" />
  <path
     id="polygon66"
     style="fill:none;stroke:#000000"
     d="M 863.25,189.5 V 155 h 38.25 v 34.5 z" />
  <path
     id="polygon67"
     style="fill:none;stroke:#000000"
     d="M 869.25,183.5 V 161 h 26.25 v 22.5 z" />
  <path
     d="m 882.134,177.034 c -0.63,-0.042 -0.77,-0.182 -1.26,-1.218 l -3.486,-7.952 h -0.28 l -2.912,6.874 c -0.896,2.044 -1.064,2.268 -1.736,2.296 v 0.266 h 2.772 v -0.266 c -0.672,0 -0.952,-0.168 -0.952,-0.574 0,-0.168 0.042,-0.364 0.112,-0.546 l 0.644,-1.638 h 3.668 l 0.574,1.344 c 0.168,0.378 0.266,0.742 0.266,0.938 0,0.35 -0.238,0.462 -0.98,0.476 v 0.266 h 3.57 z m -6.86,-3.332 1.61,-3.85 1.624,3.85 z m 8.988,-2.828 c -0.42,0 -0.77,0.35 -0.77,0.798 0,0.406 0.35,0.756 0.756,0.756 0.434,0 0.798,-0.336 0.798,-0.756 0,-0.434 -0.364,-0.798 -0.784,-0.798 z m 0,5.026 c -0.42,0 -0.77,0.35 -0.77,0.798 0,0.406 0.35,0.756 0.756,0.756 0.434,0 0.798,-0.336 0.798,-0.756 0,-0.434 -0.364,-0.798 -0.784,-0.798 z m 3.64,1.4 h 3.864 v -0.21 c -1.078,0 -1.316,-0.154 -1.33,-0.826 v -8.4 l -0.112,-0.028 -2.52,1.274 v 0.196 c 0.546,-0.21 0.882,-0.308 1.008,-0.308 0.294,0 0.42,0.21 0.42,0.658 v 6.342 c -0.028,0.882 -0.266,1.078 -1.33,1.092 z"
     id="text67"
     style="font-size:14px;font-family:Times, serif"
     aria-label="A:1" />
  <path
     id="polygon68"
     style="fill:none;stroke:#000000"
     d="M 866.25,186.5 V 158 h 32.25 v 28.5 z" />
  <path
     id="polygon69"
     style="fill:none;stroke:#000000"
     d="M 903.5,189.5 V 155 h 15.75 v 34.5 z" />
  <path
     d="m 916.426,172.344 h -3.57 v 0.252 c 1.092,0.07 1.204,0.182 1.232,1.246 v 2.268 c 0,0.448 -0.84,0.826 -1.862,0.826 -2.282,0 -3.682,-1.596 -3.682,-4.2 0,-1.316 0.392,-2.59 1.008,-3.276 0.602,-0.686 1.484,-1.064 2.436,-1.064 0.784,0 1.484,0.266 2.016,0.77 0.42,0.406 0.644,0.77 0.994,1.624 h 0.322 l -0.112,-2.954 H 914.9 c -0.084,0.28 -0.336,0.462 -0.63,0.462 -0.14,0 -0.364,-0.042 -0.616,-0.14 -0.63,-0.21 -1.288,-0.322 -1.918,-0.322 -2.786,0 -4.788,2.058 -4.788,4.914 0,1.372 0.378,2.422 1.162,3.248 0.924,0.966 2.282,1.498 3.822,1.498 1.218,0 2.954,-0.49 3.514,-0.98 v -2.842 c 0.028,-0.854 0.182,-1.022 0.98,-1.078 z"
     id="text69"
     style="font-size:14px;font-family:Times, serif"
     aria-label="G" />
  <path
     id="polygon70"
     style="fill:none;stroke:#000000"
     d="M 921.25,189.5 V 155 H 958 v 34.5 z" />
  <path
     id="polygon71"
     style="fill:none;stroke:#000000"
     d="M 927.25,183.5 V 161 H 952 v 22.5 z" />
  <path
     d="m 938.286,174.836 c -0.42,1.498 -0.896,1.876 -2.408,1.932 h -3.598 l 6.048,-8.526 v -0.21 h -7.364 l -0.28,2.394 h 0.364 c 0.238,-1.414 0.742,-1.82 2.352,-1.862 h 3.094 l -6.118,8.526 v 0.21 h 7.896 l 0.336,-2.464 z m 2.618,-3.962 c -0.42,0 -0.77,0.35 -0.77,0.798 0,0.406 0.35,0.756 0.756,0.756 0.434,0 0.798,-0.336 0.798,-0.756 0,-0.434 -0.364,-0.798 -0.784,-0.798 z m 0,5.026 c -0.42,0 -0.77,0.35 -0.77,0.798 0,0.406 0.35,0.756 0.756,0.756 0.434,0 0.798,-0.336 0.798,-0.756 0,-0.434 -0.364,-0.798 -0.784,-0.798 z m 3.64,1.4 h 3.864 v -0.21 c -1.078,0 -1.316,-0.154 -1.33,-0.826 v -8.4 l -0.112,-0.028 -2.52,1.274 v 0.196 c 0.546,-0.21 0.882,-0.308 1.008,-0.308 0.294,0 0.42,0.21 0.42,0.658 v 6.342 c -0.028,0.882 -0.266,1.078 -1.33,1.092 z"
     id="text71"
     style="font-size:14px;font-family:Times, serif"
     aria-label="Z:1" />
  <path
     id="polygon72"
     style="fill:none;stroke:#000000"
     d="M 924.25,186.5 V 158 H 955 v 28.5 z" />
  <path
     id="polygon73"
     style="fill:none;stroke:#000000"
     d="M 860.25,192.5 V 152 H 961 v 40.5 z" />
  <path
     fill="none"
     stroke="#000000"
     d="m 816.25,179.25 c 23.32,0 28.68,-7 52,-7"
     id="path73" />
  <path
     id="ellipse74"
     style="stroke:#000000"
     d="m 1023,114.25 a 9,9 0 0 1 -9,9 9,9 0 0 1 -9,-9 9,9 0 0 1 9,-9 9,9 0 0 1 9,9 z" />
  <path
     d="m 1012.152,119.3 h 3.864 v -0.21 c -1.078,0 -1.316,-0.154 -1.33,-0.826 v -8.4 l -0.112,-0.028 -2.52,1.274 v 0.196 c 0.546,-0.21 0.882,-0.308 1.008,-0.308 0.294,0 0.42,0.21 0.42,0.658 v 6.342 c -0.028,0.882 -0.266,1.078 -1.33,1.092 z"
     id="text74"
     style="font-size:14px;font-family:Times, serif;text-anchor:middle;fill:#ffffff"
     aria-label="1" />
  <path
     fill="none"
     stroke="#ff0000"
     d="m 1024.46,114.25 c 4.02,0 2,-6.32 -1,-9 -6.11,-5.47 -10.26,-0.19 -18.46,0 -87.51,2 -109.21,9 -196.75,9 -358.25,0 -358.25,0 -358.25,0 -65.92,0 -80.56,19.23 -146.25,24.75 -32.55,2.73 -123.43,22.62 -147,0 -7.78,-7.47 -11.79,-24.25 -1,-24.25"
     id="path75" />
  <path
     fill="none"
     stroke="#000000"
     d="m 1023,114.25 c 38.4,0 13.6,-69 52,-69"
     id="path76" />
  <path
     fill="none"
     stroke="#000000"
     d="m 287.75,90.25 c 24.76,0 27.24,-20 52,-20"
     id="path77" />
  <path
     fill="none"
     stroke="#000000"
     d="m 492.25,62.25 c 23.32,0 28.68,7 52,7"
     id="path78" />
  <path
     fill="none"
     stroke="#000000"
     d="m 746.25,191.25 c 23.72,0 28.28,-12 52,-12"
     id="path79" />
  <path
     fill="none"
     stroke="#000000"
     d="m 953,172.25 c 34.62,0 17.38,-58 52,-58"
     id="path80" />
  <path
     fill="none"
     stroke="#000000"
     d="m 1207,45.25 c 23.11,0 28.89,0 52,0"
     id="path81" />
  <path
     id="polygon83"
     style="fill:#808080"
     d="m 0.5,116.75 v -65 h 41.25 v 65 z" />
  <path
     id="polygon84"
     style="fill:none;stroke:#000000"
     d="m 3.5,113.75 v -59 h 35.25 v 59 z" />
  <path
     id="polygon85"
     style="fill:none;stroke:#000000"
     d="m 9.5,83.25 v -22.5 h 23.25 v 22.5 z" />
  <path
     d="m 16.392,77.050003 h 2.814 v -0.21 c -0.434,0 -0.714,-0.224 -1.148,-0.84 l -1.792,-2.744 1.162,-1.68 c 0.266,-0.378 0.672,-0.588 1.134,-0.616 v -0.21 H 16.35 v 0.21 c 0.42,0.028 0.56,0.112 0.56,0.308 0,0.168 -0.168,0.476 -0.518,0.91 -0.07,0.084 -0.238,0.336 -0.42,0.616 l -0.112,-0.168 c -0.21,-0.322 -0.336,-0.504 -0.364,-0.56 -0.266,-0.434 -0.364,-0.658 -0.364,-0.798 0,-0.21 0.182,-0.294 0.602,-0.308 v -0.21 h -2.898 v 0.21 h 0.126 c 0.42,0 0.644,0.182 1.078,0.84 l 1.316,2.016 -1.596,2.31 c -0.42,0.574 -0.56,0.672 -1.022,0.714 v 0.21 h 2.03 v -0.21 c -0.406,0 -0.56,-0.07 -0.56,-0.252 0,-0.098 0.084,-0.28 0.28,-0.574 l 1.106,-1.722 1.274,1.96 c 0.056,0.084 0.084,0.154 0.084,0.252 0,0.252 -0.098,0.308 -0.56,0.336 z m 4.718001,-6.426 c -0.42,0 -0.77,0.35 -0.77,0.798 0,0.406 0.35,0.756 0.756,0.756 0.434,0 0.798,-0.336 0.798,-0.756 0,-0.434 -0.364,-0.798 -0.784,-0.798 z m 0,5.026 c -0.42,0 -0.77,0.35 -0.77,0.798 0,0.406 0.35,0.756 0.756,0.756 0.434,0 0.798,-0.336 0.798,-0.756 0,-0.434 -0.364,-0.798 -0.784,-0.798 z m 3.639999,1.4 h 3.864 v -0.21 c -1.078,0 -1.316,-0.154 -1.33,-0.826 v -8.4 l -0.112,-0.028 -2.52,1.274 v 0.196 c 0.546,-0.21 0.882,-0.308 1.008,-0.308 0.294,0 0.42,0.21 0.42,0.658 v 6.342 c -0.028,0.882 -0.266,1.078 -1.33,1.092 z"
     id="text85"
     style="font-size:14px;font-family:Times, serif"
     aria-label="x:1" />
  <path
     id="polygon86"
     style="fill:none;stroke:#000000"
     d="m 9.5,107.75 v -22.5 h 23.25 v 22.5 z" />
  <path
     d="m 18.451999,99.366 c -0.672,0.98 -1.176,1.316 -1.974,1.316 -1.288,0 -2.17,-1.12 -2.17,-2.73 0,-1.456 0.77,-2.436 1.904,-2.436 0.504,0 0.686,0.14 0.826,0.672 l 0.084,0.308 c 0.112,0.406 0.364,0.644 0.672,0.644 0.364,0 0.658,-0.266 0.658,-0.588 0,-0.784 -0.98,-1.442 -2.156,-1.442 -0.686,0 -1.4,0.28 -1.974,0.784 -0.7,0.616 -1.092,1.568 -1.092,2.688 0,1.806 1.106,3.108 2.66,3.108 0.63,0 1.19,-0.224 1.694,-0.658 0.378,-0.322 0.644,-0.714 1.064,-1.54 z m 2.576015,-4.242 c -0.42,0 -0.77,0.35 -0.77,0.798 0,0.406 0.35,0.756 0.756,0.756 0.434,0 0.798,-0.336 0.798,-0.756 0,-0.434 -0.364,-0.798 -0.784,-0.798 z m 0,5.026 c -0.42,0 -0.77,0.35 -0.77,0.798 0,0.406 0.35,0.756 0.756,0.756 0.434,0 0.798,-0.336 0.798,-0.756 0,-0.434 -0.364,-0.798 -0.784,-0.798 z m 3.639998,1.4 h 3.864 v -0.21 c -1.078,0 -1.316,-0.154 -1.33,-0.826 v -8.399997 l -0.112,-0.028 -2.52,1.273997 v 0.196 c 0.546,-0.21 0.882,-0.308 1.008,-0.308 0.294,0 0.42,0.21 0.42,0.658 v 6.342 c -0.028,0.882 -0.266,1.078 -1.33,1.092 z"
     id="text86"
     style="font-size:14px;font-family:Times, serif"
     aria-label="c:1" />
  <path
     id="polygon87"
     style="fill:none;stroke:#000000"
     d="m 6.5,110.75 v -53 h 29.25 v 53 z" />
  <path
     id="polygon88"
     style="fill:none;stroke:#000000"
     d="m 0.5,116.75 v -65 h 41.25 v 65 z" />
  <path
     fill="none"
     stroke="#000000"
     d="m 33.75,96.5 c 26.74,0 25.26,-30.25 52,-30.25"
     id="path88" />
  <path
     fill="none"
     stroke="#000000"
     d="m 33.75,72 c 26.74,0 25.26,30.25 52,30.25"
     id="path89" />
</svg>
