<?xml version="1.0" encoding="UTF-8" standalone="no"?>
<!-- Generated by graphviz version 11.0.0 (0)
 -->

<!-- Title: cyclic_combinational Pages: 1 -->

<svg
   width="1361.0042pt"
   height="236.45729pt"
   viewBox="0 0 1361.25 236.45729"
   version="1.1"
   id="svg89"
   sodipodi:docname="circuit.svg"
   inkscape:version="1.3.2 (091e20ef0f, 2023-11-25, custom)"
   xmlns:inkscape="http://www.inkscape.org/namespaces/inkscape"
   xmlns:sodipodi="http://sodipodi.sourceforge.net/DTD/sodipodi-0.dtd"
   xmlns="http://www.w3.org/2000/svg"
   xmlns:svg="http://www.w3.org/2000/svg">
  <defs
     id="defs89" />
  <sodipodi:namedview
     id="namedview89"
     pagecolor="#ffffff"
     bordercolor="#000000"
     borderopacity="0.25"
     inkscape:showpageshadow="2"
     inkscape:pageopacity="0.0"
     inkscape:pagecheckerboard="0"
     inkscape:deskcolor="#d1d1d1"
     inkscape:document-units="pt"
     showgrid="false"
     inkscape:zoom="1.0876084"
     inkscape:cx="907.03604"
     inkscape:cy="173.77578"
     inkscape:window-width="2560"
     inkscape:window-height="1380"
     inkscape:window-x="1920"
     inkscape:window-y="32"
     inkscape:window-maximized="1"
     inkscape:current-layer="svg89" />
  <path
     id="ellipse2"
     style="stroke:#000000"
     d="m 106.75,66.225075 a 9,9 0 0 1 -9,9 9,9 0 0 1 -9,-9 9,9 0 0 1 9,-9 9,9 0 0 1 9,9 z" />
  <path
     d="m 95.902,71.275078 h 3.864 v -0.21 c -1.078,0 -1.316,-0.154 -1.33,-0.826 v -8.4 l -0.112,-0.028 -2.52,1.274 v 0.196 c 0.546,-0.21 0.882,-0.308 1.008,-0.308 0.294,0 0.42,0.21 0.42,0.658 v 6.342 c -0.028,0.882 -0.266,1.078 -1.33,1.092 z"
     id="text2"
     style="font-size:14px;font-family:Times, serif;text-anchor:middle;fill:#ffffff"
     aria-label="1" />
  <path
     id="polygon4"
     style="fill:#00ced1"
     d="M 150.75,134.97508 V 45.475075 h 148 v 89.500005 z" />
  <path
     id="polygon5"
     style="fill:none;stroke:#000000"
     d="M 153.75,131.97508 V 48.475075 h 42.75 v 83.500005 z" />
  <path
     id="polygon6"
     style="fill:none;stroke:#000000"
     d="m 159.75,76.975075 v -22.5 h 30.75 v 22.5 z" />
  <path
     d="m 169.008,61.311078 h -0.294 c -0.056,0.308 -0.21,0.476 -0.448,0.476 -0.14,0 -0.378,-0.056 -0.616,-0.168 -0.518,-0.196 -1.036,-0.308 -1.498,-0.308 -0.588,0 -1.204,0.238 -1.666,0.644 -0.49,0.434 -0.742,1.022 -0.742,1.75 0,1.12 0.616,1.904 2.184,2.73 1.008,0.546 1.736,1.106 2.086,1.638 0.126,0.182 0.196,0.476 0.196,0.826 0,0.924 -0.7,1.568 -1.722,1.568 -1.26,0 -2.128,-0.77 -2.828,-2.478 h -0.322 l 0.42,2.968 h 0.308 c 0.014,-0.266 0.182,-0.462 0.392,-0.462 0.154,0 0.392,0.056 0.658,0.154 0.532,0.21 1.106,0.322 1.652,0.322 1.624,0 2.856,-1.106 2.856,-2.562 0,-1.148 -0.77,-2.044 -2.618,-3.052 -1.47,-0.798 -2.058,-1.414 -2.058,-2.184 0,-0.77 0.588,-1.288 1.456,-1.288 0.63,0 1.218,0.266 1.708,0.77 0.434,0.448 0.63,0.812 0.854,1.638 h 0.35 z m 5.082,0 c -0.77,0 -1.358,0.224 -1.876,0.728 -0.812,0.784 -1.344,2.394 -1.344,4.032 0,1.54 0.462,3.164 1.12,3.948 0.518,0.616 1.232,0.952 2.044,0.952 0.714,0 1.316,-0.238 1.82,-0.728 0.812,-0.77 1.344,-2.394 1.344,-4.088 0,-2.87 -1.274,-4.844 -3.108,-4.844 z m -0.042,0.364 c 1.176,0 1.806,1.582 1.806,4.508 0,2.926 -0.616,4.424 -1.82,4.424 -1.204,0 -1.82,-1.498 -1.82,-4.41 0,-2.982 0.63,-4.522 1.834,-4.522 z m 5.39,2.674 c -0.42,0 -0.77,0.35 -0.77,0.798 0,0.406 0.35,0.756 0.756,0.756 0.434,0 0.798,-0.336 0.798,-0.756 0,-0.434 -0.364,-0.798 -0.784,-0.798 z m 0,5.026 c -0.42,0 -0.77,0.35 -0.77,0.798 0,0.406 0.35,0.756 0.756,0.756 0.434,0 0.798,-0.336 0.798,-0.756 0,-0.434 -0.364,-0.798 -0.784,-0.798 z m 3.63999,1.4 h 3.864 v -0.21 c -1.078,0 -1.316,-0.154 -1.33,-0.826 v -8.4 l -0.112,-0.028 -2.52,1.274 v 0.196 c 0.546,-0.21 0.882,-0.308 1.008,-0.308 0.294,0 0.42,0.21 0.42,0.658 v 6.342 c -0.028,0.882 -0.266,1.078 -1.33,1.092 z"
     id="text6"
     style="font-size:14px;font-family:Times, serif"
     aria-label="S0:1" />
  <path
     id="polygon7"
     style="fill:none;stroke:#000000"
     d="M 159.75,101.47508 V 78.975075 h 30.75 v 22.500005 z" />
  <path
     d="m 164.502,95.275075 h 4.158 v -0.266 c -1.148,-0.028 -1.344,-0.224 -1.372,-1.26 v -6.215997 c 0.028,-1.05 0.21,-1.218 1.372,-1.26 v -0.266 h -4.158 v 0.266 c 1.19,0.07 1.344,0.21 1.358,1.26 v 6.215997 c -0.014,1.064 -0.182,1.218 -1.358,1.26 z m 7.966,-9.463997 c -0.77,0 -1.358,0.224 -1.876,0.728 -0.812,0.784 -1.344,2.394 -1.344,4.032 0,1.54 0.462,3.163997 1.12,3.947997 0.518,0.616 1.232,0.952 2.044,0.952 0.714,0 1.316,-0.238 1.82,-0.728 0.812,-0.77 1.344,-2.393997 1.344,-4.087997 0,-2.87 -1.274,-4.844 -3.108,-4.844 z m -0.042,0.364 c 1.176,0 1.806,1.582 1.806,4.508 0,2.925997 -0.616,4.423997 -1.82,4.423997 -1.204,0 -1.82,-1.498 -1.82,-4.409997 0,-2.982 0.63,-4.522 1.834,-4.522 z m 5.39,2.674 c -0.42,0 -0.77,0.35 -0.77,0.798 0,0.406 0.35,0.756 0.756,0.756 0.434,0 0.798,-0.336 0.798,-0.756 0,-0.434 -0.364,-0.798 -0.784,-0.798 z m 0,5.025997 c -0.42,0 -0.77,0.35 -0.77,0.798 0,0.406 0.35,0.756 0.756,0.756 0.434,0 0.798,-0.336 0.798,-0.756 0,-0.434 -0.364,-0.798 -0.784,-0.798 z m 3.64,1.4 h 3.864 v -0.21 c -1.078,0 -1.316,-0.154 -1.33,-0.826 v -8.399997 l -0.112,-0.028 -2.52,1.274 v 0.196 c 0.546,-0.21 0.882,-0.308 1.008,-0.308 0.294,0 0.42,0.21 0.42,0.658 v 6.341997 c -0.028,0.882 -0.266,1.078 -1.33,1.092 z"
     id="text7"
     style="font-size:14px;font-family:Times, serif"
     aria-label="I0:1" />
  <path
     id="polygon8"
     style="fill:none;stroke:#000000"
     d="m 159.75,125.97508 v -22.5 h 30.75 v 22.5 z" />
  <path
     d="m 164.502,119.77508 h 4.158 v -0.266 c -1.148,-0.028 -1.344,-0.224 -1.372,-1.26 v -6.216 c 0.028,-1.05 0.21,-1.218 1.372,-1.26 v -0.266 h -4.158 v 0.266 c 1.19,0.07 1.344,0.21 1.358,1.26 v 6.216 c -0.014,1.064 -0.182,1.218 -1.358,1.26 z m 6.062,0 h 3.864 v -0.21 c -1.078,0 -1.316,-0.154 -1.33,-0.826 v -8.4 l -0.112,-0.028 -2.52,1.274 v 0.196 c 0.546,-0.21 0.882,-0.308 1.008,-0.308 0.294,0 0.42,0.21 0.42,0.658 v 6.342 c -0.028,0.882 -0.266,1.078 -1.33,1.092 z m 7.252,-6.426 c -0.42,0 -0.77,0.35 -0.77,0.798 0,0.406 0.35,0.756 0.756,0.756 0.434,0 0.798,-0.336 0.798,-0.756 0,-0.434 -0.364,-0.798 -0.784,-0.798 z m 0,5.026 c -0.42,0 -0.77,0.35 -0.77,0.798 0,0.406 0.35,0.756 0.756,0.756 0.434,0 0.798,-0.336 0.798,-0.756 0,-0.434 -0.364,-0.798 -0.784,-0.798 z m 3.64,1.4 h 3.864 v -0.21 c -1.078,0 -1.316,-0.154 -1.33,-0.826 v -8.4 l -0.112,-0.028 -2.52,1.274 v 0.196 c 0.546,-0.21 0.882,-0.308 1.008,-0.308 0.294,0 0.42,0.21 0.42,0.658 v 6.342 c -0.028,0.882 -0.266,1.078 -1.33,1.092 z"
     id="text8"
     style="font-size:14px;font-family:Times, serif"
     aria-label="I1:1" />
  <path
     id="polygon9"
     style="fill:none;stroke:#000000"
     d="M 156.75,128.97508 V 51.475075 h 36.75 v 77.500005 z" />
  <path
     id="polygon10"
     style="fill:none;stroke:#000000"
     d="M 198.5,131.97508 V 48.475075 H 257 v 83.500005 z" />
  <path
     d="m 213.582,86.007078 h -2.786 l -3.094,7.069997 -3.234,-7.069997 h -2.772 v 0.266 c 1.148,0.056 1.302,0.21 1.33,1.26 v 5.683997 c -0.028,1.484 -0.21,1.722 -1.358,1.792 v 0.266 h 3.29 v -0.266 c -1.078,-0.056 -1.288,-0.35 -1.316,-1.792 v -5.641997 l 3.514,7.699997 h 0.196 l 3.584,-8.021997 v 6.341997 c -0.014,1.19 -0.168,1.344 -1.274,1.414 v 0.266 h 3.92 v -0.266 c -1.008,-0.056 -1.19,-0.252 -1.218,-1.26 v -6.215997 c 0.028,-1.008 0.196,-1.19 1.218,-1.26 z m 10.234,0 h -3.248 v 0.266 c 1.078,0.07 1.288,0.35 1.316,1.792 v 3.78 c 0,0.951997 -0.084,1.483997 -0.322,1.903997 -0.378,0.672 -1.274,1.106 -2.324,1.106 -0.994,0 -1.68,-0.336 -2.058,-0.994 -0.252,-0.448 -0.35,-0.966 -0.35,-1.847997 v -4.48 c 0.014,-1.022 0.154,-1.162 1.274,-1.26 v -0.266 h -3.962 v 0.266 c 1.106,0.084 1.246,0.224 1.26,1.26 v 4.368 c 0,2.421997 1.134,3.569997 3.514,3.569997 1.526,0 2.576,-0.49 3.122,-1.442 0.336,-0.588 0.462,-1.232 0.462,-2.309997 v -3.654 c 0.028,-1.47 0.182,-1.666 1.316,-1.792 z m 10.178,0 h -3.332 v 0.266 c 0.756,0.028 0.98,0.126 0.98,0.448 0,0.21 -0.14,0.462 -0.56,0.966 l -1.582,1.932 -0.588,-0.826 c -0.854,-1.204 -1.19,-1.792 -1.19,-2.1 0,-0.28 0.21,-0.392 0.672,-0.406 l 0.392,-0.014 v -0.266 h -4.228 v 0.266 c 0.91,0.042 1.162,0.252 2.534,2.198 l 1.526,2.24 -2.198,2.701997 c -1.246,1.484 -1.316,1.54 -2.03,1.596 v 0.266 h 3.262 v -0.266 c -0.826,-0.056 -1.064,-0.168 -1.064,-0.49 0,-0.21 0.21,-0.56 0.728,-1.204 l 1.666,-2.071997 1.33,1.959997 c 0.476,0.714 0.714,1.162 0.714,1.372 0,0.252 -0.224,0.392 -0.7,0.406 -0.056,0 -0.21,0.014 -0.378,0.028 v 0.266 h 4.158 v -0.266 c -0.742,-0.084 -0.952,-0.224 -1.554,-1.036 l -2.688,-3.835997 2.044,-2.548 c 0.91,-1.092 1.19,-1.26 2.086,-1.316 z m 7.014,7.349997 -0.182,-0.07 c -0.518,0.812 -0.672,0.91 -1.33,0.924 h -3.346 l 2.352,-2.463997 c 1.246,-1.302 1.792,-2.366 1.792,-3.458 0,-1.4 -1.134,-2.478 -2.59,-2.478 -0.77,0 -1.498,0.308 -2.016,0.868 -0.448,0.476 -0.658,0.924 -0.896,1.918 l 0.294,0.07 c 0.56,-1.372 1.05,-1.82 2.03,-1.82 1.19,0 1.974,0.798 1.974,1.974 0,1.106 -0.644,2.394 -1.82,3.64 l -2.492,2.645997 v 0.168 h 5.46 z m 7.336,3.766 v -0.7 h -6.958 v 0.7 z m 1.666,-1.848 h 3.864 v -0.21 c -1.078,0 -1.316,-0.154 -1.33,-0.826 v -8.399997 l -0.112,-0.028 -2.52,1.274 v 0.196 c 0.546,-0.21 0.882,-0.308 1.008,-0.308 0.294,0 0.42,0.21 0.42,0.658 v 6.341997 c -0.028,0.882 -0.266,1.078 -1.33,1.092 z"
     id="text10"
     style="font-size:14px;font-family:Times, serif"
     aria-label="MUX2_1" />
  <path
     id="polygon11"
     style="fill:none;stroke:#000000"
     d="M 259,131.97508 V 48.475075 h 36.75 v 83.500005 z" />
  <path
     id="polygon12"
     style="fill:none;stroke:#000000"
     d="M 265,125.97508 V 54.475075 h 24.75 v 71.500005 z" />
  <path
     d="m 276.036,92.811075 c -0.42,1.498 -0.896,1.876 -2.408,1.932 h -3.598 l 6.048,-8.525997 v -0.21 h -7.364 l -0.28,2.394 h 0.364 c 0.238,-1.414 0.742,-1.82 2.352,-1.862 h 3.094 l -6.118,8.525997 v 0.21 h 7.896 l 0.336,-2.464 z m 2.618,-3.961997 c -0.42,0 -0.77,0.35 -0.77,0.798 0,0.406 0.35,0.756 0.756,0.756 0.434,0 0.798,-0.336 0.798,-0.756 0,-0.434 -0.364,-0.798 -0.784,-0.798 z m 0,5.025997 c -0.42,0 -0.77,0.35 -0.77,0.798 0,0.406 0.35,0.756 0.756,0.756 0.434,0 0.798,-0.336 0.798,-0.756 0,-0.434 -0.364,-0.798 -0.784,-0.798 z m 3.64,1.4 h 3.864 v -0.21 c -1.078,0 -1.316,-0.154 -1.33,-0.826 v -8.399997 l -0.112,-0.028 -2.52,1.274 v 0.196 c 0.546,-0.21 0.882,-0.308 1.008,-0.308 0.294,0 0.42,0.21 0.42,0.658 v 6.341997 c -0.028,0.882 -0.266,1.078 -1.33,1.092 z"
     id="text12"
     style="font-size:14px;font-family:Times, serif"
     aria-label="Z:1" />
  <path
     id="polygon13"
     style="fill:none;stroke:#000000"
     d="M 262,128.97508 V 51.475075 h 30.75 v 77.500005 z" />
  <path
     id="polygon14"
     style="fill:none;stroke:#000000"
     d="M 150.75,134.97508 V 45.475075 h 148 v 89.500005 z" />
  <path
     fill="none"
     stroke="#000000"
     d="m 106.75,66.225075 c 23.11,0 28.89,-0.5 52,-0.5"
     id="path14" />
  <path
     id="polygon16"
     style="fill:#00ced1"
     d="m 606.25,235.97508 v -89.5 h 148 v 89.5 z" />
  <path
     id="polygon17"
     style="fill:none;stroke:#000000"
     d="m 609.25,232.97508 v -83.5 H 652 v 83.5 z" />
  <path
     id="polygon18"
     style="fill:none;stroke:#000000"
     d="m 615.25,177.97508 v -22.5 H 646 v 22.5 z" />
  <path
     d="m 624.508,162.31108 h -0.294 c -0.056,0.308 -0.21,0.476 -0.448,0.476 -0.14,0 -0.378,-0.056 -0.616,-0.168 -0.518,-0.196 -1.036,-0.308 -1.498,-0.308 -0.588,0 -1.204,0.238 -1.666,0.644 -0.49,0.434 -0.742,1.022 -0.742,1.75 0,1.12 0.616,1.904 2.184,2.73 1.008,0.546 1.736,1.106 2.086,1.638 0.126,0.182 0.196,0.476 0.196,0.826 0,0.924 -0.7,1.568 -1.722,1.568 -1.26,0 -2.128,-0.77 -2.828,-2.478 h -0.322 l 0.42,2.968 h 0.308 c 0.014,-0.266 0.182,-0.462 0.392,-0.462 0.154,0 0.392,0.056 0.658,0.154 0.532,0.21 1.106,0.322 1.652,0.322 1.624,0 2.856,-1.106 2.856,-2.562 0,-1.148 -0.77,-2.044 -2.618,-3.052 -1.47,-0.798 -2.058,-1.414 -2.058,-2.184 0,-0.77 0.588,-1.288 1.456,-1.288 0.63,0 1.218,0.266 1.708,0.77 0.434,0.448 0.63,0.812 0.854,1.638 h 0.35 z m 5.082,0 c -0.77,0 -1.358,0.224 -1.876,0.728 -0.812,0.784 -1.344,2.394 -1.344,4.032 0,1.54 0.462,3.164 1.12,3.948 0.518,0.616 1.232,0.952 2.044,0.952 0.714,0 1.316,-0.238 1.82,-0.728 0.812,-0.77 1.344,-2.394 1.344,-4.088 0,-2.87 -1.274,-4.844 -3.108,-4.844 z m -0.042,0.364 c 1.176,0 1.806,1.582 1.806,4.508 0,2.926 -0.616,4.424 -1.82,4.424 -1.204,0 -1.82,-1.498 -1.82,-4.41 0,-2.982 0.63,-4.522 1.834,-4.522 z m 5.39,2.674 c -0.42,0 -0.77,0.35 -0.77,0.798 0,0.406 0.35,0.756 0.756,0.756 0.434,0 0.798,-0.336 0.798,-0.756 0,-0.434 -0.364,-0.798 -0.784,-0.798 z m 0,5.026 c -0.42,0 -0.77,0.35 -0.77,0.798 0,0.406 0.35,0.756 0.756,0.756 0.434,0 0.798,-0.336 0.798,-0.756 0,-0.434 -0.364,-0.798 -0.784,-0.798 z m 3.63999,1.4 h 3.864 v -0.21 c -1.078,0 -1.316,-0.154 -1.33,-0.826 v -8.4 l -0.112,-0.028 -2.52,1.274 v 0.196 c 0.546,-0.21 0.882,-0.308 1.008,-0.308 0.294,0 0.42,0.21 0.42,0.658 v 6.342 c -0.028,0.882 -0.266,1.078 -1.33,1.092 z"
     id="text18"
     style="font-size:14px;font-family:Times, serif"
     aria-label="S0:1" />
  <path
     id="polygon19"
     style="fill:none;stroke:#000000"
     d="m 615.25,202.47508 v -22.5 H 646 v 22.5 z" />
  <path
     d="m 620.002,196.27508 h 4.158 v -0.266 c -1.148,-0.028 -1.344,-0.224 -1.372,-1.26 v -6.216 c 0.028,-1.05 0.21,-1.218 1.372,-1.26 v -0.266 h -4.158 v 0.266 c 1.19,0.07 1.344,0.21 1.358,1.26 v 6.216 c -0.014,1.064 -0.182,1.218 -1.358,1.26 z m 7.966,-9.464 c -0.77,0 -1.358,0.224 -1.876,0.728 -0.812,0.784 -1.344,2.394 -1.344,4.032 0,1.54 0.462,3.164 1.12,3.948 0.518,0.616 1.232,0.952 2.044,0.952 0.714,0 1.316,-0.238 1.82,-0.728 0.812,-0.77 1.344,-2.394 1.344,-4.088 0,-2.87 -1.274,-4.844 -3.108,-4.844 z m -0.042,0.364 c 1.176,0 1.806,1.582 1.806,4.508 0,2.926 -0.616,4.424 -1.82,4.424 -1.204,0 -1.82,-1.498 -1.82,-4.41 0,-2.982 0.63,-4.522 1.834,-4.522 z m 5.39,2.674 c -0.42,0 -0.77,0.35 -0.77,0.798 0,0.406 0.35,0.756 0.756,0.756 0.434,0 0.798,-0.336 0.798,-0.756 0,-0.434 -0.364,-0.798 -0.784,-0.798 z m 0,5.026 c -0.42,0 -0.77,0.35 -0.77,0.798 0,0.406 0.35,0.756 0.756,0.756 0.434,0 0.798,-0.336 0.798,-0.756 0,-0.434 -0.364,-0.798 -0.784,-0.798 z m 3.64,1.4 h 3.864 v -0.21 c -1.078,0 -1.316,-0.154 -1.33,-0.826 v -8.4 l -0.112,-0.028 -2.52,1.274 v 0.196 c 0.546,-0.21 0.882,-0.308 1.008,-0.308 0.294,0 0.42,0.21 0.42,0.658 v 6.342 c -0.028,0.882 -0.266,1.078 -1.33,1.092 z"
     id="text19"
     style="font-size:14px;font-family:Times, serif"
     aria-label="I0:1" />
  <path
     id="polygon20"
     style="fill:none;stroke:#000000"
     d="m 615.25,226.97508 v -22.5 H 646 v 22.5 z" />
  <path
     d="m 620.002,220.77508 h 4.158 v -0.266 c -1.148,-0.028 -1.344,-0.224 -1.372,-1.26 v -6.216 c 0.028,-1.05 0.21,-1.218 1.372,-1.26 v -0.266 h -4.158 v 0.266 c 1.19,0.07 1.344,0.21 1.358,1.26 v 6.216 c -0.014,1.064 -0.182,1.218 -1.358,1.26 z m 6.062,0 h 3.864 v -0.21 c -1.078,0 -1.316,-0.154 -1.33,-0.826 v -8.4 l -0.112,-0.028 -2.52,1.274 v 0.196 c 0.546,-0.21 0.882,-0.308 1.008,-0.308 0.294,0 0.42,0.21 0.42,0.658 v 6.342 c -0.028,0.882 -0.266,1.078 -1.33,1.092 z m 7.252,-6.426 c -0.42,0 -0.77,0.35 -0.77,0.798 0,0.406 0.35,0.756 0.756,0.756 0.434,0 0.798,-0.336 0.798,-0.756 0,-0.434 -0.364,-0.798 -0.784,-0.798 z m 0,5.026 c -0.42,0 -0.77,0.35 -0.77,0.798 0,0.406 0.35,0.756 0.756,0.756 0.434,0 0.798,-0.336 0.798,-0.756 0,-0.434 -0.364,-0.798 -0.784,-0.798 z m 3.64,1.4 h 3.864 v -0.21 c -1.078,0 -1.316,-0.154 -1.33,-0.826 v -8.4 l -0.112,-0.028 -2.52,1.274 v 0.196 c 0.546,-0.21 0.882,-0.308 1.008,-0.308 0.294,0 0.42,0.21 0.42,0.658 v 6.342 c -0.028,0.882 -0.266,1.078 -1.33,1.092 z"
     id="text20"
     style="font-size:14px;font-family:Times, serif"
     aria-label="I1:1" />
  <path
     id="polygon21"
     style="fill:none;stroke:#000000"
     d="m 612.25,229.97508 v -77.5 H 649 v 77.5 z" />
  <path
     id="polygon22"
     style="fill:none;stroke:#000000"
     d="m 654,232.97508 v -83.5 h 58.5 v 83.5 z" />
  <path
     d="m 669.082,187.00708 h -2.786 l -3.094,7.07 -3.234,-7.07 h -2.772 v 0.266 c 1.148,0.056 1.302,0.21 1.33,1.26 v 5.684 c -0.028,1.484 -0.21,1.722 -1.358,1.792 v 0.266 h 3.29 v -0.266 c -1.078,-0.056 -1.288,-0.35 -1.316,-1.792 v -5.642 l 3.514,7.7 h 0.196 l 3.584,-8.022 v 6.342 c -0.014,1.19 -0.168,1.344 -1.274,1.414 v 0.266 h 3.92 v -0.266 c -1.008,-0.056 -1.19,-0.252 -1.218,-1.26 v -6.216 c 0.028,-1.008 0.196,-1.19 1.218,-1.26 z m 10.234,0 h -3.248 v 0.266 c 1.078,0.07 1.288,0.35 1.316,1.792 v 3.78 c 0,0.952 -0.084,1.484 -0.322,1.904 -0.378,0.672 -1.274,1.106 -2.324,1.106 -0.994,0 -1.68,-0.336 -2.058,-0.994 -0.252,-0.448 -0.35,-0.966 -0.35,-1.848 v -4.48 c 0.014,-1.022 0.154,-1.162 1.274,-1.26 v -0.266 h -3.962 v 0.266 c 1.106,0.084 1.246,0.224 1.26,1.26 v 4.368 c 0,2.422 1.134,3.57 3.514,3.57 1.526,0 2.576,-0.49 3.122,-1.442 0.336,-0.588 0.462,-1.232 0.462,-2.31 v -3.654 c 0.028,-1.47 0.182,-1.666 1.316,-1.792 z m 10.178,0 h -3.332 v 0.266 c 0.756,0.028 0.98,0.126 0.98,0.448 0,0.21 -0.14,0.462 -0.56,0.966 l -1.582,1.932 -0.588,-0.826 c -0.854,-1.204 -1.19,-1.792 -1.19,-2.1 0,-0.28 0.21,-0.392 0.672,-0.406 l 0.392,-0.014 v -0.266 h -4.228 v 0.266 c 0.91,0.042 1.162,0.252 2.534,2.198 l 1.526,2.24 -2.198,2.702 c -1.246,1.484 -1.316,1.54 -2.03,1.596 v 0.266 h 3.262 v -0.266 c -0.826,-0.056 -1.064,-0.168 -1.064,-0.49 0,-0.21 0.21,-0.56 0.728,-1.204 l 1.666,-2.072 1.33,1.96 c 0.476,0.714 0.714,1.162 0.714,1.372 0,0.252 -0.224,0.392 -0.7,0.406 -0.056,0 -0.21,0.014 -0.378,0.028 v 0.266 h 4.158 v -0.266 c -0.742,-0.084 -0.952,-0.224 -1.554,-1.036 l -2.688,-3.836 2.044,-2.548 c 0.91,-1.092 1.19,-1.26 2.086,-1.316 z m 7.014,7.35 -0.182,-0.07 c -0.518,0.812 -0.672,0.91 -1.33,0.924 h -3.346 l 2.352,-2.464 c 1.246,-1.302 1.792,-2.366 1.792,-3.458 0,-1.4 -1.134,-2.478 -2.59,-2.478 -0.77,0 -1.498,0.308 -2.016,0.868 -0.448,0.476 -0.658,0.924 -0.896,1.918 l 0.294,0.07 c 0.56,-1.372 1.05,-1.82 2.03,-1.82 1.19,0 1.974,0.798 1.974,1.974 0,1.106 -0.644,2.394 -1.82,3.64 l -2.492,2.646 v 0.168 h 5.46 z m 7.336,3.766 v -0.7 h -6.958 v 0.7 z m 1.666,-1.848 h 3.864 v -0.21 c -1.078,0 -1.316,-0.154 -1.33,-0.826 v -8.4 l -0.112,-0.028 -2.52,1.274 v 0.196 c 0.546,-0.21 0.882,-0.308 1.008,-0.308 0.294,0 0.42,0.21 0.42,0.658 v 6.342 c -0.028,0.882 -0.266,1.078 -1.33,1.092 z"
     id="text22"
     style="font-size:14px;font-family:Times, serif"
     aria-label="MUX2_1" />
  <path
     id="polygon23"
     style="fill:none;stroke:#000000"
     d="m 714.5,232.97508 v -83.5 h 36.75 v 83.5 z" />
  <path
     id="polygon24"
     style="fill:none;stroke:#000000"
     d="m 720.5,226.97508 v -71.5 h 24.75 v 71.5 z" />
  <path
     d="m 731.536,193.81108 c -0.42,1.498 -0.896,1.876 -2.408,1.932 h -3.598 l 6.048,-8.526 v -0.21 h -7.364 l -0.28,2.394 h 0.364 c 0.238,-1.414 0.742,-1.82 2.352,-1.862 h 3.094 l -6.118,8.526 v 0.21 h 7.896 l 0.336,-2.464 z m 2.618,-3.962 c -0.42,0 -0.77,0.35 -0.77,0.798 0,0.406 0.35,0.756 0.756,0.756 0.434,0 0.798,-0.336 0.798,-0.756 0,-0.434 -0.364,-0.798 -0.784,-0.798 z m 0,5.026 c -0.42,0 -0.77,0.35 -0.77,0.798 0,0.406 0.35,0.756 0.756,0.756 0.434,0 0.798,-0.336 0.798,-0.756 0,-0.434 -0.364,-0.798 -0.784,-0.798 z m 3.64,1.4 h 3.864 v -0.21 c -1.078,0 -1.316,-0.154 -1.33,-0.826 v -8.4 l -0.112,-0.028 -2.52,1.274 v 0.196 c 0.546,-0.21 0.882,-0.308 1.008,-0.308 0.294,0 0.42,0.21 0.42,0.658 v 6.342 c -0.028,0.882 -0.266,1.078 -1.33,1.092 z"
     id="text24"
     style="font-size:14px;font-family:Times, serif"
     aria-label="Z:1" />
  <path
     id="polygon25"
     style="fill:none;stroke:#000000"
     d="m 717.5,229.97508 v -77.5 h 30.75 v 77.5 z" />
  <path
     id="polygon26"
     style="fill:none;stroke:#000000"
     d="m 606.25,235.97508 v -89.5 h 148 v 89.5 z" />
  <path
     fill="none"
     stroke="#000000"
     d="m 106.75,66.225075 c 39.8,0 3.7,58.740005 36,82.000005 75.33,54.25 115.17,19 208,19 0,0 0,0 102.75,0 71.44,0 89.31,-0.5 160.75,-0.5"
     id="path26" />
  <path
     id="polygon28"
     style="fill:#00ced1"
     d="M 1064,89.975075 V 0.4750753 h 148 V 89.975075 Z" />
  <path
     id="polygon29"
     style="fill:none;stroke:#000000"
     d="M 1067,86.975075 V 3.4750753 h 42.75 V 86.975075 Z" />
  <path
     id="polygon30"
     style="fill:none;stroke:#000000"
     d="M 1073,31.975075 V 9.4750753 h 30.75 V 31.975075 Z" />
  <path
     d="m 1082.258,16.311078 h -0.294 c -0.056,0.308 -0.21,0.476 -0.448,0.476 -0.14,0 -0.378,-0.056 -0.616,-0.168 -0.518,-0.196 -1.036,-0.308 -1.498,-0.308 -0.588,0 -1.204,0.238 -1.666,0.644 -0.49,0.434 -0.742,1.022 -0.742,1.75 0,1.12 0.616,1.904 2.184,2.73 1.008,0.546 1.736,1.106 2.086,1.638 0.126,0.182 0.196,0.476 0.196,0.826 0,0.924 -0.7,1.568 -1.722,1.568 -1.26,0 -2.128,-0.77 -2.828,-2.478 h -0.322 l 0.42,2.968 h 0.308 c 0.014,-0.266 0.182,-0.462 0.392,-0.462 0.154,0 0.392,0.056 0.658,0.154 0.532,0.21 1.106,0.322 1.652,0.322 1.624,0 2.856,-1.106 2.856,-2.562 0,-1.148 -0.77,-2.044 -2.618,-3.052 -1.47,-0.798 -2.058,-1.414 -2.058,-2.184 0,-0.77 0.588,-1.288 1.456,-1.288 0.63,0 1.218,0.266 1.708,0.77 0.434,0.448 0.63,0.812 0.854,1.638 h 0.35 z m 5.082,0 c -0.77,0 -1.358,0.224 -1.876,0.728 -0.812,0.784 -1.344,2.394 -1.344,4.032 0,1.54 0.462,3.164 1.12,3.948 0.518,0.616 1.232,0.952 2.044,0.952 0.714,0 1.316,-0.238 1.82,-0.728 0.812,-0.77 1.344,-2.394 1.344,-4.088 0,-2.87 -1.274,-4.844 -3.108,-4.844 z m -0.042,0.364 c 1.176,0 1.806,1.582 1.806,4.508 0,2.926 -0.616,4.424 -1.82,4.424 -1.204,0 -1.82,-1.498 -1.82,-4.41 0,-2.982 0.63,-4.522 1.834,-4.522 z m 5.39,2.674 c -0.42,0 -0.77,0.35 -0.77,0.798 0,0.406 0.35,0.756 0.756,0.756 0.434,0 0.798,-0.336 0.798,-0.756 0,-0.434 -0.364,-0.798 -0.784,-0.798 z m 0,5.026 c -0.42,0 -0.77,0.35 -0.77,0.798 0,0.406 0.35,0.756 0.756,0.756 0.434,0 0.798,-0.336 0.798,-0.756 0,-0.434 -0.364,-0.798 -0.784,-0.798 z m 3.64,1.4 h 3.864 v -0.21 c -1.078,0 -1.316,-0.154 -1.33,-0.826 v -8.4 l -0.112,-0.028 -2.52,1.274 v 0.196 c 0.546,-0.21 0.882,-0.308 1.008,-0.308 0.294,0 0.42,0.21 0.42,0.658 v 6.342 c -0.028,0.882 -0.266,1.078 -1.33,1.092 z"
     id="text30"
     style="font-size:14px;font-family:Times, serif"
     aria-label="S0:1" />
  <path
     id="polygon31"
     style="fill:none;stroke:#000000"
     d="m 1073,56.475075 v -22.5 h 30.75 v 22.5 z" />
  <path
     d="m 1077.752,50.275078 h 4.158 v -0.266 c -1.148,-0.028 -1.344,-0.224 -1.372,-1.26 v -6.216 c 0.028,-1.05 0.21,-1.218 1.372,-1.26 v -0.266 h -4.158 v 0.266 c 1.19,0.07 1.344,0.21 1.358,1.26 v 6.216 c -0.014,1.064 -0.182,1.218 -1.358,1.26 z m 7.966,-9.464 c -0.77,0 -1.358,0.224 -1.876,0.728 -0.812,0.784 -1.344,2.394 -1.344,4.032 0,1.54 0.462,3.164 1.12,3.948 0.518,0.616 1.232,0.952 2.044,0.952 0.714,0 1.316,-0.238 1.82,-0.728 0.812,-0.77 1.344,-2.394 1.344,-4.088 0,-2.87 -1.274,-4.844 -3.108,-4.844 z m -0.042,0.364 c 1.176,0 1.806,1.582 1.806,4.508 0,2.926 -0.616,4.424 -1.82,4.424 -1.204,0 -1.82,-1.498 -1.82,-4.41 0,-2.982 0.63,-4.522 1.834,-4.522 z m 5.39,2.674 c -0.42,0 -0.77,0.35 -0.77,0.798 0,0.406 0.35,0.756 0.756,0.756 0.434,0 0.798,-0.336 0.798,-0.756 0,-0.434 -0.364,-0.798 -0.784,-0.798 z m 0,5.026 c -0.42,0 -0.77,0.35 -0.77,0.798 0,0.406 0.35,0.756 0.756,0.756 0.434,0 0.798,-0.336 0.798,-0.756 0,-0.434 -0.364,-0.798 -0.784,-0.798 z m 3.64,1.4 h 3.864 v -0.21 c -1.078,0 -1.316,-0.154 -1.33,-0.826 v -8.4 l -0.112,-0.028 -2.52,1.274 v 0.196 c 0.546,-0.21 0.882,-0.308 1.008,-0.308 0.294,0 0.42,0.21 0.42,0.658 v 6.342 c -0.028,0.882 -0.266,1.078 -1.33,1.092 z"
     id="text31"
     style="font-size:14px;font-family:Times, serif"
     aria-label="I0:1" />
  <path
     id="polygon32"
     style="fill:none;stroke:#000000"
     d="m 1073,80.975075 v -22.5 h 30.75 v 22.5 z" />
  <path
     d="m 1077.752,74.775078 h 4.158 v -0.266 c -1.148,-0.028 -1.344,-0.224 -1.372,-1.26 v -6.216 c 0.028,-1.05 0.21,-1.218 1.372,-1.26 v -0.266 h -4.158 v 0.266 c 1.19,0.07 1.344,0.21 1.358,1.26 v 6.216 c -0.014,1.064 -0.182,1.218 -1.358,1.26 z m 6.062,0 h 3.864 v -0.21 c -1.078,0 -1.316,-0.154 -1.33,-0.826 v -8.4 l -0.112,-0.028 -2.52,1.274 v 0.196 c 0.546,-0.21 0.882,-0.308 1.008,-0.308 0.294,0 0.42,0.21 0.42,0.658 v 6.342 c -0.028,0.882 -0.266,1.078 -1.33,1.092 z m 7.252,-6.426 c -0.42,0 -0.77,0.35 -0.77,0.798 0,0.406 0.35,0.756 0.756,0.756 0.434,0 0.798,-0.336 0.798,-0.756 0,-0.434 -0.364,-0.798 -0.784,-0.798 z m 0,5.026 c -0.42,0 -0.77,0.35 -0.77,0.798 0,0.406 0.35,0.756 0.756,0.756 0.434,0 0.798,-0.336 0.798,-0.756 0,-0.434 -0.364,-0.798 -0.784,-0.798 z m 3.64,1.4 h 3.864 v -0.21 c -1.078,0 -1.316,-0.154 -1.33,-0.826 v -8.4 l -0.112,-0.028 -2.52,1.274 v 0.196 c 0.546,-0.21 0.882,-0.308 1.008,-0.308 0.294,0 0.42,0.21 0.42,0.658 v 6.342 c -0.028,0.882 -0.266,1.078 -1.33,1.092 z"
     id="text32"
     style="font-size:14px;font-family:Times, serif"
     aria-label="I1:1" />
  <path
     id="polygon33"
     style="fill:none;stroke:#000000"
     d="M 1070,83.975075 V 6.4750753 h 36.75 V 83.975075 Z" />
  <path
     id="polygon34"
     style="fill:none;stroke:#000000"
     d="M 1111.75,86.975075 V 3.4750753 h 58.5 V 86.975075 Z" />
  <path
     d="m 1126.832,41.007078 h -2.786 l -3.094,7.07 -3.234,-7.07 h -2.772 v 0.266 c 1.148,0.056 1.302,0.21 1.33,1.26 v 5.684 c -0.028,1.484 -0.21,1.722 -1.358,1.792 v 0.266 h 3.29 v -0.266 c -1.078,-0.056 -1.288,-0.35 -1.316,-1.792 v -5.642 l 3.514,7.7 h 0.196 l 3.584,-8.022 v 6.342 c -0.014,1.19 -0.168,1.344 -1.274,1.414 v 0.266 h 3.92 v -0.266 c -1.008,-0.056 -1.19,-0.252 -1.218,-1.26 v -6.216 c 0.028,-1.008 0.196,-1.19 1.218,-1.26 z m 10.234,0 h -3.248 v 0.266 c 1.078,0.07 1.288,0.35 1.316,1.792 v 3.78 c 0,0.952 -0.084,1.484 -0.322,1.904 -0.378,0.672 -1.274,1.106 -2.324,1.106 -0.994,0 -1.68,-0.336 -2.058,-0.994 -0.252,-0.448 -0.35,-0.966 -0.35,-1.848 v -4.48 c 0.014,-1.022 0.154,-1.162 1.274,-1.26 v -0.266 h -3.962 v 0.266 c 1.106,0.084 1.246,0.224 1.26,1.26 v 4.368 c 0,2.422 1.134,3.57 3.514,3.57 1.526,0 2.576,-0.49 3.122,-1.442 0.336,-0.588 0.462,-1.232 0.462,-2.31 v -3.654 c 0.028,-1.47 0.182,-1.666 1.316,-1.792 z m 10.178,0 h -3.332 v 0.266 c 0.756,0.028 0.98,0.126 0.98,0.448 0,0.21 -0.14,0.462 -0.56,0.966 l -1.582,1.932 -0.588,-0.826 c -0.854,-1.204 -1.19,-1.792 -1.19,-2.1 0,-0.28 0.21,-0.392 0.672,-0.406 l 0.392,-0.014 v -0.266 h -4.228 v 0.266 c 0.91,0.042 1.162,0.252 2.534,2.198 l 1.526,2.24 -2.198,2.702 c -1.246,1.484 -1.316,1.54 -2.03,1.596 v 0.266 h 3.262 v -0.266 c -0.826,-0.056 -1.064,-0.168 -1.064,-0.49 0,-0.21 0.21,-0.56 0.728,-1.204 l 1.666,-2.072 1.33,1.96 c 0.476,0.714 0.714,1.162 0.714,1.372 0,0.252 -0.224,0.392 -0.7,0.406 -0.056,0 -0.21,0.014 -0.378,0.028 v 0.266 h 4.158 v -0.266 c -0.742,-0.084 -0.952,-0.224 -1.554,-1.036 l -2.688,-3.836 2.044,-2.548 c 0.91,-1.092 1.19,-1.26 2.086,-1.316 z m 7.014,7.35 -0.182,-0.07 c -0.518,0.812 -0.672,0.91 -1.33,0.924 h -3.346 l 2.352,-2.464 c 1.246,-1.302 1.792,-2.366 1.792,-3.458 0,-1.4 -1.134,-2.478 -2.59,-2.478 -0.77,0 -1.498,0.308 -2.016,0.868 -0.448,0.476 -0.658,0.924 -0.896,1.918 l 0.294,0.07 c 0.56,-1.372 1.05,-1.82 2.03,-1.82 1.19,0 1.974,0.798 1.974,1.974 0,1.106 -0.644,2.394 -1.82,3.64 l -2.492,2.646 v 0.168 h 5.46 z m 7.336,3.766 v -0.7 h -6.958 v 0.7 z m 1.666,-1.848 h 3.864 v -0.21 c -1.078,0 -1.316,-0.154 -1.33,-0.826 v -8.4 l -0.112,-0.028 -2.52,1.274 v 0.196 c 0.546,-0.21 0.882,-0.308 1.008,-0.308 0.294,0 0.42,0.21 0.42,0.658 v 6.342 c -0.028,0.882 -0.266,1.078 -1.33,1.092 z"
     id="text34"
     style="font-size:14px;font-family:Times, serif"
     aria-label="MUX2_1" />
  <path
     id="polygon35"
     style="fill:none;stroke:#000000"
     d="M 1172.25,86.975075 V 3.4750753 H 1209 V 86.975075 Z" />
  <path
     id="polygon36"
     style="fill:none;stroke:#000000"
     d="M 1178.25,80.975075 V 9.4750753 H 1203 V 80.975075 Z" />
  <path
     d="m 1189.286,47.811078 c -0.42,1.498 -0.896,1.876 -2.408,1.932 h -3.598 l 6.048,-8.526 v -0.21 h -7.364 l -0.28,2.394 h 0.364 c 0.238,-1.414 0.742,-1.82 2.352,-1.862 h 3.094 l -6.118,8.526 v 0.21 h 7.896 l 0.336,-2.464 z m 2.618,-3.962 c -0.42,0 -0.77,0.35 -0.77,0.798 0,0.406 0.35,0.756 0.756,0.756 0.434,0 0.798,-0.336 0.798,-0.756 0,-0.434 -0.364,-0.798 -0.784,-0.798 z m 0,5.026 c -0.42,0 -0.77,0.35 -0.77,0.798 0,0.406 0.35,0.756 0.756,0.756 0.434,0 0.798,-0.336 0.798,-0.756 0,-0.434 -0.364,-0.798 -0.784,-0.798 z m 3.64,1.4 h 3.864 v -0.21 c -1.078,0 -1.316,-0.154 -1.33,-0.826 v -8.4 l -0.112,-0.028 -2.52,1.274 v 0.196 c 0.546,-0.21 0.882,-0.308 1.008,-0.308 0.294,0 0.42,0.21 0.42,0.658 v 6.342 c -0.028,0.882 -0.266,1.078 -1.33,1.092 z"
     id="text36"
     style="font-size:14px;font-family:Times, serif"
     aria-label="Z:1" />
  <path
     id="polygon37"
     style="fill:none;stroke:#000000"
     d="M 1175.25,83.975075 V 6.4750753 H 1206 V 83.975075 Z" />
  <path
     id="polygon38"
     style="fill:none;stroke:#000000"
     d="M 1064,89.975075 V 0.4750753 h 148 V 89.975075 Z" />
  <path
     fill="none"
     stroke="#000000"
     d="m 106.75,66.225075 c 22.01,0 16.01,-24.8 36,-34 84.45,-38.8499997 115.04,-22 208,-22 0,0 0,0 559.37,0 72.1,0 89.78,10.5 161.88,10.5"
     id="path38" />
  <path
     id="ellipse39"
     style="stroke:#000000"
     d="m 106.75,102.22508 a 9,9 0 0 1 -9,9 9,9 0 0 1 -9,-9 9,9 0 0 1 9,-9.000005 9,9 0 0 1 9,9.000005 z" />
  <path
     d="m 95.902,107.27508 h 3.864 v -0.21 c -1.078,0 -1.316,-0.154 -1.33,-0.826 v -8.400005 l -0.112,-0.028 -2.52,1.274 v 0.196 c 0.546,-0.21 0.882,-0.308 1.008,-0.308 0.294,0 0.42,0.21 0.42,0.658 v 6.342005 c -0.028,0.882 -0.266,1.078 -1.33,1.092 z"
     id="text39"
     style="font-size:14px;font-family:Times, serif;text-anchor:middle;fill:#ffffff"
     aria-label="1" />
  <path
     fill="none"
     stroke="#000000"
     d="m 106.75,102.22508 c 23.72,0 28.28,-12.000005 52,-12.000005"
     id="path40" />
  <path
     fill="none"
     stroke="#000000"
     d="m 106.75,102.22508 c 38.58,0 5.07,55.93 36,79 74.82,55.81 114.66,29 208,29 0,0 0,0 102.75,0 71.49,0 89.26,5.5 160.75,5.5"
     id="path41" />
  <path
     id="ellipse42"
     style="stroke:#000000"
     d="m 1274,45.225075 a 9,9 0 0 1 -9,9 9,9 0 0 1 -9,-9 9,9 0 0 1 9,-9 9,9 0 0 1 9,9 z" />
  <path
     d="m 1263.152,50.275078 h 3.864 v -0.21 c -1.078,0 -1.316,-0.154 -1.33,-0.826 v -8.4 l -0.112,-0.028 -2.52,1.274 v 0.196 c 0.546,-0.21 0.882,-0.308 1.008,-0.308 0.294,0 0.42,0.21 0.42,0.658 v 6.342 c -0.028,0.882 -0.266,1.078 -1.33,1.092 z"
     id="text42"
     style="font-size:14px;font-family:Times, serif;text-anchor:middle;fill:#ffffff"
     aria-label="1" />
  <path
     id="polygon44"
     style="fill:#808080"
     d="m 1318,65.475075 v -40.5 h 42.75 v 40.5 z" />
  <path
     id="polygon45"
     style="fill:none;stroke:#000000"
     d="m 1321,62.475075 v -34.5 h 36.75 v 34.5 z" />
  <path
     id="polygon46"
     style="fill:none;stroke:#000000"
     d="m 1327,56.475075 v -22.5 h 24.75 v 22.5 z" />
  <path
     d="m 1338.036,47.811078 c -0.42,1.498 -0.896,1.876 -2.408,1.932 h -3.598 l 6.048,-8.526 v -0.21 h -7.364 l -0.28,2.394 h 0.364 c 0.238,-1.414 0.742,-1.82 2.352,-1.862 h 3.094 l -6.118,8.526 v 0.21 h 7.896 l 0.336,-2.464 z m 2.618,-3.962 c -0.42,0 -0.77,0.35 -0.77,0.798 0,0.406 0.35,0.756 0.756,0.756 0.434,0 0.798,-0.336 0.798,-0.756 0,-0.434 -0.364,-0.798 -0.784,-0.798 z m 0,5.026 c -0.42,0 -0.77,0.35 -0.77,0.798 0,0.406 0.35,0.756 0.756,0.756 0.434,0 0.798,-0.336 0.798,-0.756 0,-0.434 -0.364,-0.798 -0.784,-0.798 z m 3.64,1.4 h 3.864 v -0.21 c -1.078,0 -1.316,-0.154 -1.33,-0.826 v -8.4 l -0.112,-0.028 -2.52,1.274 v 0.196 c 0.546,-0.21 0.882,-0.308 1.008,-0.308 0.294,0 0.42,0.21 0.42,0.658 v 6.342 c -0.028,0.882 -0.266,1.078 -1.33,1.092 z"
     id="text46"
     style="font-size:14px;font-family:Times, serif"
     aria-label="Z:1" />
  <path
     id="polygon47"
     style="fill:none;stroke:#000000"
     d="m 1324,59.475075 v -28.5 h 30.75 v 28.5 z" />
  <path
     id="polygon48"
     style="fill:none;stroke:#000000"
     d="m 1318,65.475075 v -40.5 h 42.75 v 40.5 z" />
  <path
     fill="none"
     stroke="#000000"
     d="m 1274,45.225075 c 23.11,0 28.89,0 52,0"
     id="path48" />
  <path
     id="ellipse49"
     style="stroke:#000000"
     d="m 360.75,70.225075 a 9,9 0 0 1 -9,9 9,9 0 0 1 -9,-9 9,9 0 0 1 9,-9 9,9 0 0 1 9,9 z" />
  <path
     d="m 349.902,75.275078 h 3.864 v -0.21 c -1.078,0 -1.316,-0.154 -1.33,-0.826 v -8.4 l -0.112,-0.028 -2.52,1.274 v 0.196 c 0.546,-0.21 0.882,-0.308 1.008,-0.308 0.294,0 0.42,0.21 0.42,0.658 v 6.342 c -0.028,0.882 -0.266,1.078 -1.33,1.092 z"
     id="text49"
     style="font-size:14px;font-family:Times, serif;text-anchor:middle;fill:#ffffff"
     aria-label="1" />
  <path
     id="polygon51"
     style="fill:#ffffff"
     d="m 404.75,82.475075 v -40.5 h 95.5 v 40.5 z" />
  <path
     id="polygon52"
     style="fill:none;stroke:#000000"
     d="m 407.75,79.475075 v -34.5 H 446 v 34.5 z" />
  <path
     id="polygon53"
     style="fill:none;stroke:#000000"
     d="m 413.75,73.475075 v -22.5 H 440 v 22.5 z" />
  <path
     d="m 426.634,67.009078 c -0.63,-0.042 -0.77,-0.182 -1.26,-1.218 l -3.486,-7.952 h -0.28 l -2.912,6.874 c -0.896,2.044 -1.064,2.268 -1.736,2.296 v 0.266 h 2.772 v -0.266 c -0.672,0 -0.952,-0.168 -0.952,-0.574 0,-0.168 0.042,-0.364 0.112,-0.546 l 0.644,-1.638 h 3.668 l 0.574,1.344 c 0.168,0.378 0.266,0.742 0.266,0.938 0,0.35 -0.238,0.462 -0.98,0.476 v 0.266 h 3.57 z m -6.86,-3.332 1.61,-3.85 1.624,3.85 z m 8.988,-2.828 c -0.42,0 -0.77,0.35 -0.77,0.798 0,0.406 0.35,0.756 0.756,0.756 0.434,0 0.798,-0.336 0.798,-0.756 0,-0.434 -0.364,-0.798 -0.784,-0.798 z m 0,5.026 c -0.42,0 -0.77,0.35 -0.77,0.798 0,0.406 0.35,0.756 0.756,0.756 0.434,0 0.798,-0.336 0.798,-0.756 0,-0.434 -0.364,-0.798 -0.784,-0.798 z m 3.64,1.4 h 3.864 v -0.21 c -1.078,0 -1.316,-0.154 -1.33,-0.826 v -8.4 l -0.112,-0.028 -2.52,1.274 v 0.196 c 0.546,-0.21 0.882,-0.308 1.008,-0.308 0.294,0 0.42,0.21 0.42,0.658 v 6.342 c -0.028,0.882 -0.266,1.078 -1.33,1.092 z"
     id="text53"
     style="font-size:14px;font-family:Times, serif"
     aria-label="A:1" />
  <path
     id="polygon54"
     style="fill:none;stroke:#000000"
     d="m 410.75,76.475075 v -28.5 H 443 v 28.5 z" />
  <path
     id="polygon55"
     style="fill:none;stroke:#000000"
     d="m 448,79.475075 v -34.5 h 10.5 v 34.5 z" />
  <path
     d="m 455.326,60.975078 h -1.722 v -1.624 c 0,-0.826 0.266,-1.246 0.798,-1.246 0.308,0 0.49,0.14 0.742,0.546 0.224,0.364 0.392,0.504 0.63,0.504 0.336,0 0.588,-0.252 0.588,-0.574 0,-0.504 -0.616,-0.868 -1.456,-0.868 -0.882,0 -1.61,0.378 -1.974,1.008 -0.364,0.63 -0.476,1.134 -0.49,2.254 h -1.148 v 0.448 h 1.148 v 4.396 c -0.028,1.05 -0.168,1.204 -1.162,1.246 v 0.21 h 3.64 v -0.21 c -1.148,-0.042 -1.302,-0.196 -1.302,-1.246 v -4.396 h 1.708 z"
     id="text55"
     style="font-size:14px;font-family:Times, serif"
     aria-label="f" />
  <path
     id="polygon56"
     style="fill:none;stroke:#000000"
     d="m 460.5,79.475075 v -34.5 h 36.75 v 34.5 z" />
  <path
     id="polygon57"
     style="fill:none;stroke:#000000"
     d="m 466.5,73.475075 v -22.5 h 24.75 v 22.5 z" />
  <path
     d="m 477.536,64.811078 c -0.42,1.498 -0.896,1.876 -2.408,1.932 h -3.598 l 6.048,-8.526 v -0.21 h -7.364 l -0.28,2.394 h 0.364 c 0.238,-1.414 0.742,-1.82 2.352,-1.862 h 3.094 l -6.118,8.526 v 0.21 h 7.896 l 0.336,-2.464 z m 2.618,-3.962 c -0.42,0 -0.77,0.35 -0.77,0.798 0,0.406 0.35,0.756 0.756,0.756 0.434,0 0.798,-0.336 0.798,-0.756 0,-0.434 -0.364,-0.798 -0.784,-0.798 z m 0,5.026 c -0.42,0 -0.77,0.35 -0.77,0.798 0,0.406 0.35,0.756 0.756,0.756 0.434,0 0.798,-0.336 0.798,-0.756 0,-0.434 -0.364,-0.798 -0.784,-0.798 z m 3.64,1.4 h 3.864 v -0.21 c -1.078,0 -1.316,-0.154 -1.33,-0.826 v -8.4 l -0.112,-0.028 -2.52,1.274 v 0.196 c 0.546,-0.21 0.882,-0.308 1.008,-0.308 0.294,0 0.42,0.21 0.42,0.658 v 6.342 c -0.028,0.882 -0.266,1.078 -1.33,1.092 z"
     id="text57"
     style="font-size:14px;font-family:Times, serif"
     aria-label="Z:1" />
  <path
     id="polygon58"
     style="fill:none;stroke:#000000"
     d="m 463.5,76.475075 v -28.5 h 30.75 v 28.5 z" />
  <path
     id="polygon59"
     style="fill:none;stroke:#000000"
     d="m 404.75,82.475075 v -40.5 h 95.5 v 40.5 z" />
  <path
     fill="none"
     stroke="#000000"
     d="m 360.75,70.225075 c 23.38,0 28.62,-8 52,-8"
     id="path59" />
  <path
     id="ellipse60"
     style="stroke:#000000"
     d="m 562.25,69.225075 a 9,9 0 0 1 -9,9 9,9 0 0 1 -9,-9 9,9 0 0 1 9,-9 9,9 0 0 1 9,9 z" />
  <path
     d="m 551.402,74.275078 h 3.864 v -0.21 c -1.078,0 -1.316,-0.154 -1.33,-0.826 v -8.4 l -0.112,-0.028 -2.52,1.274 v 0.196 c 0.546,-0.21 0.882,-0.308 1.008,-0.308 0.294,0 0.42,0.21 0.42,0.658 v 6.342 c -0.028,0.882 -0.266,1.078 -1.33,1.092 z"
     id="text60"
     style="font-size:14px;font-family:Times, serif;text-anchor:middle;fill:#ffffff"
     aria-label="1" />
  <path
     fill="none"
     stroke="#000000"
     d="m 562.25,69.225075 c 58.94,0 -6.94,122.000005 52,122.000005"
     id="path61" />
  <path
     fill="none"
     stroke="#000000"
     d="m 562.25,69.225075 c 108.44,0 135.56,0 244,0 0,0 0,0 103.87,0 71.95,0 89.94,0.5 161.88,0.5"
     id="path62" />
  <path
     id="ellipse63"
     style="stroke:#000000"
     d="m 816.25,179.22508 a 9,9 0 0 1 -9,9 9,9 0 0 1 -9,-9 9,9 0 0 1 9,-9 9,9 0 0 1 9,9 z" />
  <path
     d="m 805.402,184.27508 h 3.864 v -0.21 c -1.078,0 -1.316,-0.154 -1.33,-0.826 v -8.4 l -0.112,-0.028 -2.52,1.274 v 0.196 c 0.546,-0.21 0.882,-0.308 1.008,-0.308 0.294,0 0.42,0.21 0.42,0.658 v 6.342 c -0.028,0.882 -0.266,1.078 -1.33,1.092 z"
     id="text63"
     style="font-size:14px;font-family:Times, serif;text-anchor:middle;fill:#ffffff"
     aria-label="1" />
  <path
     id="polygon65"
     style="fill:#ffffff"
     d="m 860.25,192.47508 v -40.5 H 958 v 40.5 z" />
  <path
     id="polygon66"
     style="fill:none;stroke:#000000"
     d="m 863.25,189.47508 v -34.5 h 38.25 v 34.5 z" />
  <path
     id="polygon67"
     style="fill:none;stroke:#000000"
     d="m 869.25,183.47508 v -22.5 h 26.25 v 22.5 z" />
  <path
     d="m 882.134,177.00908 c -0.63,-0.042 -0.77,-0.182 -1.26,-1.218 l -3.486,-7.952 h -0.28 l -2.912,6.874 c -0.896,2.044 -1.064,2.268 -1.736,2.296 v 0.266 h 2.772 v -0.266 c -0.672,0 -0.952,-0.168 -0.952,-0.574 0,-0.168 0.042,-0.364 0.112,-0.546 l 0.644,-1.638 h 3.668 l 0.574,1.344 c 0.168,0.378 0.266,0.742 0.266,0.938 0,0.35 -0.238,0.462 -0.98,0.476 v 0.266 h 3.57 z m -6.86,-3.332 1.61,-3.85 1.624,3.85 z m 8.988,-2.828 c -0.42,0 -0.77,0.35 -0.77,0.798 0,0.406 0.35,0.756 0.756,0.756 0.434,0 0.798,-0.336 0.798,-0.756 0,-0.434 -0.364,-0.798 -0.784,-0.798 z m 0,5.026 c -0.42,0 -0.77,0.35 -0.77,0.798 0,0.406 0.35,0.756 0.756,0.756 0.434,0 0.798,-0.336 0.798,-0.756 0,-0.434 -0.364,-0.798 -0.784,-0.798 z m 3.64,1.4 h 3.864 v -0.21 c -1.078,0 -1.316,-0.154 -1.33,-0.826 v -8.4 l -0.112,-0.028 -2.52,1.274 v 0.196 c 0.546,-0.21 0.882,-0.308 1.008,-0.308 0.294,0 0.42,0.21 0.42,0.658 v 6.342 c -0.028,0.882 -0.266,1.078 -1.33,1.092 z"
     id="text67"
     style="font-size:14px;font-family:Times, serif"
     aria-label="A:1" />
  <path
     id="polygon68"
     style="fill:none;stroke:#000000"
     d="m 866.25,186.47508 v -28.5 h 32.25 v 28.5 z" />
  <path
     id="polygon69"
     style="fill:none;stroke:#000000"
     d="m 903.5,189.47508 v -34.5 h 12.75 v 34.5 z" />
  <path
     d="m 913.08,171.84308 v -0.546 h -1.078 c -0.294,0 -0.49,-0.042 -0.77,-0.14 l -0.308,-0.112 c -0.364,-0.14 -0.756,-0.21 -1.12,-0.21 -1.302,0 -2.338,0.994 -2.338,2.282 0,0.882 0.364,1.414 1.302,1.876 l -0.364,0.336 c -0.294,0.28 -0.462,0.434 -0.504,0.49 -0.294,0.308 -0.378,0.462 -0.378,0.7 0,0.308 0.154,0.462 0.742,0.742 -1.008,0.728 -1.372,1.19 -1.372,1.708 0,0.742 1.078,1.358 2.422,1.358 1.05,0 2.142,-0.364 2.87,-0.952 0.532,-0.434 0.77,-0.882 0.77,-1.414 0,-0.868 -0.658,-1.442 -1.694,-1.498 l -1.806,-0.084 c -0.756,-0.028 -1.092,-0.154 -1.092,-0.378 0,-0.28 0.462,-0.77 0.84,-0.882 0.504,0.042 0.77,0.07 0.798,0.07 0.518,0 1.078,-0.21 1.512,-0.588 0.462,-0.392 0.672,-0.882 0.672,-1.582 0,-0.406 -0.07,-0.728 -0.266,-1.176 z m -4.522,5.46 c 0.476,0.098 1.568,0.182 2.282,0.182 1.26,0 1.722,0.182 1.722,0.686 0,0.812 -1.064,1.358 -2.646,1.358 -1.246,0 -2.044,-0.406 -2.044,-1.022 0,-0.322 0.126,-0.532 0.686,-1.204 z m 0.07,-4.76 c 0,-0.826 0.392,-1.316 1.036,-1.316 0.434,0 0.798,0.238 1.022,0.658 0.266,0.49 0.42,1.12 0.42,1.68 0,0.784 -0.392,1.274 -1.036,1.274 -0.868,0 -1.442,-0.91 -1.442,-2.254 z"
     id="text69"
     style="font-size:14px;font-family:Times, serif"
     aria-label="g" />
  <path
     id="polygon70"
     style="fill:none;stroke:#000000"
     d="m 918.25,189.47508 v -34.5 H 955 v 34.5 z" />
  <path
     id="polygon71"
     style="fill:none;stroke:#000000"
     d="m 924.25,183.47508 v -22.5 H 949 v 22.5 z" />
  <path
     d="m 935.286,174.81108 c -0.42,1.498 -0.896,1.876 -2.408,1.932 h -3.598 l 6.048,-8.526 v -0.21 h -7.364 l -0.28,2.394 h 0.364 c 0.238,-1.414 0.742,-1.82 2.352,-1.862 h 3.094 l -6.118,8.526 v 0.21 h 7.896 l 0.336,-2.464 z m 2.618,-3.962 c -0.42,0 -0.77,0.35 -0.77,0.798 0,0.406 0.35,0.756 0.756,0.756 0.434,0 0.798,-0.336 0.798,-0.756 0,-0.434 -0.364,-0.798 -0.784,-0.798 z m 0,5.026 c -0.42,0 -0.77,0.35 -0.77,0.798 0,0.406 0.35,0.756 0.756,0.756 0.434,0 0.798,-0.336 0.798,-0.756 0,-0.434 -0.364,-0.798 -0.784,-0.798 z m 3.64,1.4 h 3.864 v -0.21 c -1.078,0 -1.316,-0.154 -1.33,-0.826 v -8.4 l -0.112,-0.028 -2.52,1.274 v 0.196 c 0.546,-0.21 0.882,-0.308 1.008,-0.308 0.294,0 0.42,0.21 0.42,0.658 v 6.342 c -0.028,0.882 -0.266,1.078 -1.33,1.092 z"
     id="text71"
     style="font-size:14px;font-family:Times, serif"
     aria-label="Z:1" />
  <path
     id="polygon72"
     style="fill:none;stroke:#000000"
     d="m 921.25,186.47508 v -28.5 H 952 v 28.5 z" />
  <path
     id="polygon73"
     style="fill:none;stroke:#000000"
     d="m 860.25,192.47508 v -40.5 H 958 v 40.5 z" />
  <path
     fill="none"
     stroke="#000000"
     d="m 816.25,179.22508 c 23.32,0 28.68,-7 52,-7"
     id="path73" />
  <path
     id="ellipse74"
     style="stroke:#000000"
     d="m 1020,114.22508 a 9,9 0 0 1 -9,9 9,9 0 0 1 -9,-9 9,9 0 0 1 9,-9 9,9 0 0 1 9,9 z" />
  <path
     d="m 1009.152,119.27508 h 3.864 v -0.21 c -1.078,0 -1.316,-0.154 -1.33,-0.826 v -8.4 l -0.112,-0.028 -2.52,1.274 v 0.196 c 0.546,-0.21 0.882,-0.308 1.008,-0.308 0.294,0 0.42,0.21 0.42,0.658 v 6.342 c -0.028,0.882 -0.266,1.078 -1.33,1.092 z"
     id="text74"
     style="font-size:14px;font-family:Times, serif;text-anchor:middle;fill:#ffffff"
     aria-label="1" />
  <path
     fill="none"
     stroke="#ff0000"
     d="m 1021.46,114.22508 c 4.02,0 2,-6.32 -1,-9 -6.11,-5.470005 -10.26,-0.19 -18.46,0 -86.18,2 -107.55,9 -193.75,9 -356.75,0 -356.75,0 -356.75,0 -65.27,0 -79.72,19.23 -144.75,24.75 -32.55,2.76 -123.43,22.62 -147,0 -7.78,-7.47 -11.79,-24.25 -1,-24.25"
     id="path75" />
  <path
     fill="none"
     stroke="#000000"
     d="m 1020,114.22508 c 38.4,0 13.6,-69.000005 52,-69.000005"
     id="path76" />
  <path
     fill="none"
     stroke="#000000"
     d="m 290.75,90.225075 c 24.76,0 27.24,-20 52,-20"
     id="path77" />
  <path
     fill="none"
     stroke="#000000"
     d="m 492.25,62.225075 c 23.32,0 28.68,7 52,7"
     id="path78" />
  <path
     fill="none"
     stroke="#000000"
     d="m 746.25,191.22508 c 23.72,0 28.28,-12 52,-12"
     id="path79" />
  <path
     fill="none"
     stroke="#000000"
     d="m 950,172.22508 c 34.62,0 17.38,-58 52,-58"
     id="path80" />
  <path
     fill="none"
     stroke="#000000"
     d="m 1204,45.225075 c 23.11,0 28.89,0 52,0"
     id="path81" />
  <path
     id="polygon83"
     style="fill:#808080"
     d="M 0.5,116.72508 V 51.725075 h 44.25 v 65.000005 z" />
  <path
     id="polygon84"
     style="fill:none;stroke:#000000"
     d="M 3.5,113.72508 V 54.725075 h 38.25 v 59.000005 z" />
  <path
     id="polygon85"
     style="fill:none;stroke:#000000"
     d="m 9.5,83.225075 v -22.5 h 26.25 v 22.5 z" />
  <path
     d="m 22.244,67.757078 h -3.332 v 0.266 c 0.756,0.028 0.98,0.126 0.98,0.448 0,0.21 -0.14,0.462 -0.56,0.966 l -1.582,1.932 -0.588,-0.826 c -0.854,-1.204 -1.19,-1.792 -1.19,-2.1 0,-0.28 0.21,-0.392 0.672,-0.406 l 0.392,-0.014 v -0.266 h -4.228 v 0.266 c 0.91,0.042 1.162,0.252 2.534,2.198 l 1.526,2.24 -2.198,2.702 c -1.246,1.484 -1.316,1.54 -2.03,1.596 v 0.266 h 3.262 v -0.266 c -0.826,-0.056 -1.064,-0.168 -1.064,-0.49 0,-0.21 0.21,-0.56 0.728,-1.204 l 1.666,-2.072 1.33,1.96 c 0.476,0.714 0.714,1.162 0.714,1.372 0,0.252 -0.224,0.392 -0.7,0.406 -0.056,0 -0.21,0.014 -0.378,0.028 v 0.266 h 4.158 v -0.266 c -0.742,-0.084 -0.952,-0.224 -1.554,-1.036 l -2.688,-3.836 2.044,-2.548 c 0.91,-1.092 1.19,-1.26 2.086,-1.316 z m 2.268002,2.842 c -0.42,0 -0.77,0.35 -0.77,0.798 0,0.406 0.35,0.756 0.756,0.756 0.434,0 0.798,-0.336 0.798,-0.756 0,-0.434 -0.364,-0.798 -0.784,-0.798 z m 0,5.026 c -0.42,0 -0.77,0.35 -0.77,0.798 0,0.406 0.35,0.756 0.756,0.756 0.434,0 0.798,-0.336 0.798,-0.756 0,-0.434 -0.364,-0.798 -0.784,-0.798 z m 3.639998,1.4 h 3.864 v -0.21 c -1.078,0 -1.316,-0.154 -1.33,-0.826 v -8.4 l -0.112,-0.028 -2.52,1.274 v 0.196 c 0.546,-0.21 0.882,-0.308 1.008,-0.308 0.294,0 0.42,0.21 0.42,0.658 v 6.342 c -0.028,0.882 -0.266,1.078 -1.33,1.092 z"
     id="text85"
     style="font-size:14px;font-family:Times, serif"
     aria-label="X:1" />
  <path
     id="polygon86"
     style="fill:none;stroke:#000000"
     d="M 9.5,107.72508 V 85.225075 h 26.25 v 22.500005 z" />
  <path
     d="m 21.559999,95.211075 -0.126,-3.149997 h -0.294 c -0.084,0.294 -0.308,0.461997 -0.588,0.461997 -0.126,0 -0.336,-0.042 -0.546,-0.111997 -0.686,-0.238 -1.386,-0.35 -2.044,-0.35 -1.148,0 -2.31,0.433997 -3.178,1.203997 -0.98,0.868 -1.512,2.156 -1.512,3.696 0,2.856 1.862,4.760005 4.648,4.760005 1.582,0 2.982,-0.644 3.822,-1.778005 l -0.252,-0.252 c -1.022,0.994005 -1.96,1.414005 -3.122,1.414005 -0.882,0 -1.666,-0.28 -2.268,-0.812 -0.77,-0.686005 -1.204,-1.946005 -1.204,-3.514005 0,-2.534 1.302,-4.158 3.332,-4.158 0.798,0 1.526,0.294 2.086,0.84 0.448,0.448 0.658,0.84 0.924,1.75 z m 2.604001,-0.112 c -0.42,0 -0.77,0.35 -0.77,0.798 0,0.406 0.35,0.756 0.756,0.756 0.434,0 0.798,-0.336 0.798,-0.756 0,-0.434 -0.364,-0.798 -0.784,-0.798 z m 0,5.026005 c -0.42,0 -0.77,0.35 -0.77,0.798 0,0.406 0.35,0.756 0.756,0.756 0.434,0 0.798,-0.336 0.798,-0.756 0,-0.434 -0.364,-0.798 -0.784,-0.798 z m 3.639999,1.4 h 3.864 v -0.21 c -1.078,0 -1.316,-0.154 -1.33,-0.826 v -8.400002 l -0.112,-0.028 -2.52,1.273997 v 0.196 c 0.546,-0.21 0.882,-0.308 1.008,-0.308 0.294,0 0.42,0.21 0.42,0.658 v 6.342005 c -0.028,0.882 -0.266,1.078 -1.33,1.092 z"
     id="text86"
     style="font-size:14px;font-family:Times, serif"
     aria-label="C:1" />
  <path
     id="polygon87"
     style="fill:none;stroke:#000000"
     d="M 6.5,110.72508 V 57.725075 h 32.25 v 53.000005 z" />
  <path
     id="polygon88"
     style="fill:none;stroke:#000000"
     d="M 0.5,116.72508 V 51.725075 h 44.25 v 65.000005 z" />
  <path
     fill="none"
     stroke="#000000"
     d="m 36.75,96.475075 c 26.74,0 25.26,-30.25 52,-30.25"
     id="path88" />
  <path
     fill="none"
     stroke="#000000"
     d="m 36.75,71.975075 c 26.74,0 25.26,30.250005 52,30.250005"
     id="path89" />
</svg>
