<?xml version="1.0" encoding="UTF-8" standalone="no"?>
<!-- Generated by graphviz version 11.0.0 (0)
 -->

<!-- Title: cyclic_combinational Pages: 1 -->

<svg
   width="1263.7285pt"
   height="242.07938pt"
   viewBox="0 0 1263.6224 242.10415"
   version="1.1"
   id="svg630"
   sodipodi:docname="reduced.svg"
   inkscape:version="1.3.2 (091e20ef0f, 2023-11-25, custom)"
   xmlns:inkscape="http://www.inkscape.org/namespaces/inkscape"
   xmlns:sodipodi="http://sodipodi.sourceforge.net/DTD/sodipodi-0.dtd"
   xmlns="http://www.w3.org/2000/svg"
   xmlns:svg="http://www.w3.org/2000/svg">
  <defs
     id="defs630" />
  <sodipodi:namedview
     id="namedview630"
     pagecolor="#ffffff"
     bordercolor="#000000"
     borderopacity="0.25"
     inkscape:showpageshadow="2"
     inkscape:pageopacity="0.0"
     inkscape:pagecheckerboard="0"
     inkscape:deskcolor="#d1d1d1"
     inkscape:document-units="pt"
     inkscape:zoom="0.71446382"
     inkscape:cx="1002.8499"
     inkscape:cy="258.93543"
     inkscape:window-width="2560"
     inkscape:window-height="1380"
     inkscape:window-x="1920"
     inkscape:window-y="32"
     inkscape:window-maximized="1"
     inkscape:current-layer="svg630" />
  <path
     id="ellipse5"
     style="stroke:#000000"
     d="m 770.49014,96.7488 a 9,9 0 0 1 -9.00002,9 9,9 0 0 1 -9,-9 9,9 0 0 1 9,-8.999997 9,9 0 0 1 9.00002,8.999997 z" />
  <path
     d="m 759.64212,101.79879 h 3.864 v -0.21 c -1.078,0 -1.316,-0.154 -1.33,-0.826 v -8.399997 l -0.112,-0.028 -2.52,1.274 v 0.196 c 0.546,-0.21 0.882,-0.308 1.008,-0.308 0.294,0 0.42,0.21 0.42,0.658 v 6.341997 c -0.028,0.882 -0.266,1.078 -1.33,1.092 z"
     id="text5"
     style="font-size:14px;font-family:Times, serif;text-anchor:middle;fill:#ffffff"
     aria-label="1" />
  <path
     id="polygon7"
     style="fill:#ffff00"
     d="M 814.49014,106.99877 V 66.498773 h 108.25 v 40.499997 z" />
  <path
     id="polygon8"
     style="fill:none;stroke:#000000"
     d="M 817.49014,103.99877 V 69.498773 h 24.75 v 34.499997 z" />
  <path
     id="polygon9"
     style="fill:none;stroke:#000000"
     d="M 823.49014,97.99877 V 75.498773 h 12.75 V 97.99877 Z" />
  <path
     d="m 828.14214,91.798793 h 3.864 v -0.21 c -1.078,0 -1.316,-0.154 -1.33,-0.826 v -8.4 l -0.112,-0.028 -2.52,1.274 v 0.196 c 0.546,-0.21 0.882,-0.308 1.008,-0.308 0.294,0 0.42,0.21 0.42,0.658 v 6.342 c -0.028,0.882 -0.266,1.078 -1.33,1.092 z"
     id="text9"
     style="font-size:14px;font-family:Times, serif"
     aria-label="1" />
  <path
     id="polygon10"
     style="fill:none;stroke:#000000"
     d="M 820.49014,100.99877 V 72.498773 h 18.75 v 28.499997 z" />
  <path
     id="polygon11"
     style="fill:none;stroke:#000000"
     d="M 844.24014,103.99877 V 69.498773 h 48.75 v 34.499997 z" />
  <path
     d="m 854.11414,90.986793 c -0.182,0.014 -0.266,0.014 -0.322,0.014 -0.49,0 -0.616,-0.154 -0.616,-0.798 v -7.938 l -0.07,-0.028 c -0.658,0.224 -1.134,0.378 -2.058,0.616 v 0.224 c 0.112,-0.014 0.182,-0.014 0.308,-0.014 0.518,0 0.644,0.14 0.644,0.714 v 2.184 c -0.532,-0.448 -0.91,-0.602 -1.47,-0.602 -1.61,0 -2.912,1.582 -2.912,3.57 0,1.792 1.036,3.01 2.59,3.01 0.784,0 1.316,-0.28 1.792,-0.938 v 0.896 l 0.056,0.042 2.058,-0.728 z m -2.114,-0.616 c 0,0.098 -0.098,0.266 -0.238,0.42 -0.238,0.28 -0.602,0.42 -1.008,0.42 -1.176,0 -1.932,-1.12 -1.932,-2.856 0,-1.568 0.686,-2.604 1.75,-2.604 0.756,0 1.428,0.658 1.428,1.4 z m 7.952,-0.868 c -0.672,1.064 -1.274,1.47 -2.17,1.47 -0.798,0 -1.4,-0.406 -1.806,-1.204 -0.252,-0.532 -0.35,-0.98 -0.378,-1.848 h 4.312 c -0.112,-0.91 -0.252,-1.316 -0.602,-1.764 -0.42,-0.504 -1.064,-0.798 -1.792,-0.798 -0.7,0 -1.358,0.252 -1.89,0.728 -0.658,0.574 -1.036,1.568 -1.036,2.716 0,1.932 1.008,3.136 2.618,3.136 1.33,0 2.38,-0.826 2.968,-2.338 z m -4.326,-2.03 c 0.154,-1.092 0.63,-1.61 1.484,-1.61 0.854,0 1.19,0.392 1.372,1.61 z m 4.816,4.326 h 3.304 v -0.21 c -0.882,-0.042 -1.036,-0.182 -1.05,-0.966 v -8.358 l -0.056,-0.028 c -0.714,0.224 -1.232,0.378 -2.226,0.616 v 0.224 h 0.084 c 0.154,-0.014 0.322,-0.028 0.434,-0.028 0.448,0 0.588,0.196 0.588,0.854 v 6.678 c -0.014,0.756 -0.21,0.952 -1.078,1.008 z m 9.786,-0.924 c -0.238,0.196 -0.406,0.266 -0.616,0.266 -0.322,0 -0.42,-0.196 -0.42,-0.812 v -2.73 c 0,-0.728 -0.07,-1.134 -0.28,-1.47 -0.308,-0.504 -0.91,-0.77 -1.736,-0.77 -1.316,0 -2.352,0.686 -2.352,1.568 0,0.322 0.266,0.602 0.602,0.602 0.336,0 0.63,-0.28 0.63,-0.588 0,-0.056 -0.014,-0.126 -0.028,-0.224 -0.028,-0.126 -0.042,-0.238 -0.042,-0.336 0,-0.378 0.448,-0.686 1.008,-0.686 0.686,0 1.064,0.406 1.064,1.162 v 0.854 c -2.142,0.854 -2.394,0.98 -2.996,1.512 -0.308,0.28 -0.504,0.756 -0.504,1.218 0,0.882 0.616,1.498 1.47,1.498 0.616,0 1.19,-0.294 2.044,-1.022 0.07,0.742 0.322,1.022 0.896,1.022 0.476,0 0.77,-0.168 1.26,-0.7 z m -2.17,-0.798 c 0,0.42 -0.07,0.574 -0.364,0.742 -0.35,0.196 -0.728,0.308 -1.022,0.308 -0.49,0 -0.882,-0.476 -0.882,-1.078 v -0.056 c 0.014,-0.84 0.63,-1.372 2.268,-1.946 z m 8.302,-4.578 h -1.89 v 0.21 c 0.448,0 0.672,0.126 0.672,0.35 0,0.056 -0.014,0.14 -0.056,0.238 l -1.358,3.864 -1.61,-3.542 c -0.084,-0.196 -0.14,-0.392 -0.14,-0.532 0,-0.252 0.21,-0.35 0.812,-0.378 v -0.21 h -2.884 v 0.196 c 0.364,0.056 0.602,0.21 0.714,0.448 l 1.596,3.444 c 0.168,0.378 0.182,0.392 0.252,0.532 0.392,0.7 0.616,1.218 0.616,1.428 0,0.224 -0.322,1.078 -0.56,1.512 -0.21,0.35 -0.504,0.616 -0.7,0.616 -0.084,0 -0.21,-0.028 -0.364,-0.098 -0.252,-0.098 -0.504,-0.154 -0.728,-0.154 -0.336,0 -0.602,0.266 -0.602,0.616 0,0.462 0.434,0.812 1.036,0.812 0.952,0 1.596,-0.77 2.366,-2.8 l 2.156,-5.712 c 0.182,-0.448 0.336,-0.588 0.672,-0.63 z m 7.336,8.148 v -0.7 h -6.958 v 0.7 z m 1.666,-1.848 h 3.864 v -0.21 c -1.078,0 -1.316,-0.154 -1.33,-0.826 v -8.4 l -0.112,-0.028 -2.52,1.274 v 0.196 c 0.546,-0.21 0.882,-0.308 1.008,-0.308 0.294,0 0.42,0.21 0.42,0.658 v 6.342 c -0.028,0.882 -0.266,1.078 -1.33,1.092 z"
     id="text11"
     style="font-size:14px;font-family:Times, serif"
     aria-label="delay_1" />
  <path
     id="polygon12"
     style="fill:none;stroke:#000000"
     d="M 894.99014,103.99877 V 69.498773 h 24.75 v 34.499997 z" />
  <path
     id="polygon13"
     style="fill:none;stroke:#000000"
     d="M 900.99014,97.99877 V 75.498773 h 12.75 V 97.99877 Z" />
  <path
     d="m 905.64214,91.798793 h 3.864 v -0.21 c -1.078,0 -1.316,-0.154 -1.33,-0.826 v -8.4 l -0.112,-0.028 -2.52,1.274 v 0.196 c 0.546,-0.21 0.882,-0.308 1.008,-0.308 0.294,0 0.42,0.21 0.42,0.658 v 6.342 c -0.028,0.882 -0.266,1.078 -1.33,1.092 z"
     id="text13"
     style="font-size:14px;font-family:Times, serif"
     aria-label="1" />
  <path
     id="polygon14"
     style="fill:none;stroke:#000000"
     d="M 897.99014,100.99877 V 72.498773 h 18.75 v 28.499997 z" />
  <path
     id="polygon15"
     style="fill:none;stroke:#000000"
     d="M 814.49014,106.99877 V 66.498773 h 108.25 v 40.499997 z" />
  <path
     fill="none"
     stroke="#000000"
     d="m 770.49014,96.74877 c 23.53,0 28.47,-9.999997 52,-9.999997"
     id="path15" />
  <path
     id="ellipse16"
     style="stroke:#000000"
     d="m 984.74014,65.748793 a 9,9 0 0 1 -9,9 9,9 0 0 1 -9,-9 9,9 0 0 1 9,-9 9,9 0 0 1 9,9 z" />
  <path
     d="m 973.89214,70.798793 h 3.864 v -0.21 c -1.078,0 -1.316,-0.154 -1.33,-0.826 v -8.4 l -0.112,-0.028 -2.52,1.274 v 0.196 c 0.546,-0.21 0.882,-0.308 1.008,-0.308 0.294,0 0.42,0.21 0.42,0.658 v 6.342 c -0.028,0.882 -0.266,1.078 -1.33,1.092 z"
     id="text16"
     style="font-size:14px;font-family:Times, serif;text-anchor:middle;fill:#ffffff"
     aria-label="1" />
  <path
     id="polygon18"
     style="fill:#ee82ee"
     d="m 1028.7402,80.248773 v -65 h 88 v 65 z" />
  <path
     id="polygon19"
     style="fill:none;stroke:#000000"
     d="m 1031.7402,77.248773 v -59 h 24.75 v 59 z" />
  <path
     id="polygon20"
     style="fill:none;stroke:#000000"
     d="m 1037.7402,46.748773 v -22.5 h 12.75 v 22.5 z" />
  <path
     d="m 1042.3922,40.548783 h 3.864 v -0.21 c -1.078,0 -1.316,-0.154 -1.33,-0.825999 v -8.4 l -0.112,-0.028 -2.52,1.274 v 0.196 c 0.546,-0.21 0.882,-0.308 1.008,-0.308 0.294,0 0.42,0.21 0.42,0.658 v 6.342 c -0.028,0.881999 -0.266,1.077999 -1.33,1.091999 z"
     id="text20"
     style="font-size:14px;font-family:Times, serif"
     aria-label="1" />
  <path
     id="polygon21"
     style="fill:none;stroke:#000000"
     d="m 1037.7402,71.248773 v -22.5 h 12.75 v 22.5 z" />
  <path
     d="m 1042.3922,65.048783 h 3.864 v -0.21 c -1.078,0 -1.316,-0.154 -1.33,-0.826 v -8.4 l -0.112,-0.028 -2.52,1.274 v 0.196 c 0.546,-0.21 0.882,-0.308 1.008,-0.308 0.294,0 0.42,0.21 0.42,0.658 v 6.342 c -0.028,0.882 -0.266,1.078 -1.33,1.092 z"
     id="text21"
     style="font-size:14px;font-family:Times, serif"
     aria-label="1" />
  <path
     id="polygon22"
     style="fill:none;stroke:#000000"
     d="m 1034.7402,74.248773 v -53 h 18.75 v 53 z" />
  <path
     id="polygon23"
     style="fill:none;stroke:#000000"
     d="m 1058.4902,77.248773 v -59 h 28.5 v 59 z" />
  <path
     d="m 1061.9242,43.608793 3.598,8.82 h 1.232 l 3.626,-8.82 z m 4.214,7.392 -2.548,-6.37 h 5.11 z m 11.676,3.276 v -0.7 h -6.958 v 0.7 z m 1.666,-1.848 h 3.864 v -0.21 c -1.078,0 -1.316,-0.154 -1.33,-0.826 v -8.4 l -0.112,-0.028 -2.52,1.274 v 0.196 c 0.546,-0.21 0.882,-0.308 1.008,-0.308 0.294,0 0.42,0.21 0.42,0.658 v 6.342 c -0.028,0.882 -0.266,1.078 -1.33,1.092 z"
     id="text23"
     style="font-size:14px;font-family:Times, serif"
     aria-label="∇_1" />
  <path
     id="polygon24"
     style="fill:none;stroke:#000000"
     d="m 1088.9902,77.248773 v -59 h 24.75 v 59 z" />
  <path
     id="polygon25"
     style="fill:none;stroke:#000000"
     d="m 1094.9902,71.248773 v -47 h 12.75 v 47 z" />
  <path
     d="m 1099.6422,52.798783 h 3.864 v -0.21 c -1.078,0 -1.316,-0.154 -1.33,-0.826 v -8.4 l -0.112,-0.028 -2.52,1.274 v 0.196 c 0.546,-0.21 0.882,-0.308 1.008,-0.308 0.294,0 0.42,0.21 0.42,0.658 v 6.342 c -0.028,0.882 -0.266,1.078 -1.33,1.092 z"
     id="text25"
     style="font-size:14px;font-family:Times, serif"
     aria-label="1" />
  <path
     id="polygon26"
     style="fill:none;stroke:#000000"
     d="m 1091.9902,74.248773 v -53 h 18.75 v 53 z" />
  <path
     id="polygon27"
     style="fill:none;stroke:#000000"
     d="m 1028.7402,80.248773 v -65 h 88 v 65 z" />
  <path
     fill="none"
     stroke="#000000"
     d="m 984.74014,65.748773 c 23.25006,0 28.75006,-5.75 52.00006,-5.75"
     id="path27" />
  <path
     id="ellipse38"
     style="stroke:#000000"
     d="m 1178.7402,47.748793 a 9,9 0 0 1 -9,9 9,9 0 0 1 -9,-9 9,9 0 0 1 9,-8.999997 9,9 0 0 1 9,8.999997 z" />
  <path
     d="m 1167.8922,52.798783 h 3.864 v -0.21 c -1.078,0 -1.316,-0.154 -1.33,-0.826 v -8.4 l -0.112,-0.028 -2.52,1.274 v 0.196 c 0.546,-0.21 0.882,-0.308 1.008,-0.308 0.294,0 0.42,0.21 0.42,0.658 v 6.342 c -0.028,0.882 -0.266,1.078 -1.33,1.092 z"
     id="text38"
     style="font-size:14px;font-family:Times, serif;text-anchor:middle;fill:#ffffff"
     aria-label="1" />
  <path
     id="polygon40"
     style="fill:#808080"
     d="m 1222.7402,67.998773 v -40.5 h 40.5 v 40.5 z" />
  <path
     id="polygon41"
     style="fill:none;stroke:#000000"
     d="m 1225.7402,64.998773 v -34.5 h 34.5 v 34.5 z" />
  <path
     id="polygon42"
     style="fill:none;stroke:#000000"
     d="m 1231.7402,58.998773 v -22.5 h 22.5 v 22.5 z" />
  <path
     d="m 1240.5922,50.908783 -0.252,-0.056 c -0.252,1.316 -0.448,1.484 -1.792,1.526 h -1.932 l 3.766,-5.67 v -0.21 h -4.858 l -0.042,1.652 h 0.252 c 0.112,-0.994 0.308,-1.204 1.176,-1.232 h 1.932 l -3.724,5.67 v 0.21 h 5.278 z m 2.436,-4.536 c -0.42,0 -0.77,0.35 -0.77,0.798 0,0.406 0.35,0.756 0.756,0.756 0.434,0 0.798,-0.336 0.798,-0.756 0,-0.434 -0.364,-0.798 -0.784,-0.798 z m 0,5.026 c -0.42,0 -0.77,0.35 -0.77,0.798 0,0.406 0.35,0.756 0.756,0.756 0.434,0 0.798,-0.336 0.798,-0.756 0,-0.434 -0.364,-0.798 -0.784,-0.798 z m 3.64,1.4 h 3.864 v -0.21 c -1.078,0 -1.316,-0.154 -1.33,-0.826 v -8.4 l -0.112,-0.028 -2.52,1.274 v 0.196 c 0.546,-0.21 0.882,-0.308 1.008,-0.308 0.294,0 0.42,0.21 0.42,0.658 v 6.342 c -0.028,0.882 -0.266,1.078 -1.33,1.092 z"
     id="text42"
     style="font-size:14px;font-family:Times, serif"
     aria-label="z:1" />
  <path
     id="polygon43"
     style="fill:none;stroke:#000000"
     d="m 1228.7402,61.998773 v -28.5 h 28.5 v 28.5 z" />
  <path
     id="polygon44"
     style="fill:none;stroke:#000000"
     d="m 1222.7402,67.998773 v -40.5 h 40.5 v 40.5 z" />
  <path
     fill="none"
     stroke="#000000"
     d="m 1178.7402,47.748773 c 23.11,0 28.89,0 52,0"
     id="path44" />
  <path
     fill="none"
     stroke="#000000"
     d="m 984.74014,19.748773 c 24.15006,0 27.85006,15.75 52.00006,15.75"
     id="path46" />
  <path
     id="ellipse47"
     style="stroke:#000000"
     d="m 565.99012,220.7488 a 9,9 0 0 1 -9,9 9,9 0 0 1 -9,-9 9,9 0 0 1 9,-9 9,9 0 0 1 9,9 z" />
  <path
     d="m 555.14212,225.79879 h 3.864 v -0.21 c -1.078,0 -1.316,-0.154 -1.33,-0.826 v -8.4 l -0.112,-0.028 -2.52,1.274 v 0.196 c 0.546,-0.21 0.882,-0.308 1.008,-0.308 0.294,0 0.42,0.21 0.42,0.658 v 6.342 c -0.028,0.882 -0.266,1.078 -1.33,1.092 z"
     id="text47"
     style="font-size:14px;font-family:Times, serif;text-anchor:middle;fill:#ffffff"
     aria-label="1" />
  <path
     id="polygon49"
     style="fill:#ee82ee"
     d="M 615.24012,150.24877 V 85.248773 h 88 v 64.999997 z" />
  <path
     id="polygon50"
     style="fill:none;stroke:#000000"
     d="M 618.24012,147.24877 V 88.248773 h 24.75 v 58.999997 z" />
  <path
     id="polygon51"
     style="fill:none;stroke:#000000"
     d="M 624.24012,116.74877 V 94.248773 h 12.75 v 22.499997 z" />
  <path
     d="m 628.89212,110.54879 h 3.864 v -0.21 c -1.078,0 -1.316,-0.154 -1.33,-0.826 v -8.4 l -0.112,-0.028 -2.52,1.274 v 0.196 c 0.546,-0.21 0.882,-0.308 1.008,-0.308 0.294,0 0.42,0.21 0.42,0.658 v 6.342 c -0.028,0.882 -0.266,1.078 -1.33,1.092 z"
     id="text51"
     style="font-size:14px;font-family:Times, serif"
     aria-label="1" />
  <path
     id="polygon52"
     style="fill:none;stroke:#000000"
     d="m 624.24012,141.24877 v -22.5 h 12.75 v 22.5 z" />
  <path
     d="m 628.89212,135.04879 h 3.864 v -0.21 c -1.078,0 -1.316,-0.154 -1.33,-0.826 v -8.4 l -0.112,-0.028 -2.52,1.274 v 0.196 c 0.546,-0.21 0.882,-0.308 1.008,-0.308 0.294,0 0.42,0.21 0.42,0.658 v 6.342 c -0.028,0.882 -0.266,1.078 -1.33,1.092 z"
     id="text52"
     style="font-size:14px;font-family:Times, serif"
     aria-label="1" />
  <path
     id="polygon53"
     style="fill:none;stroke:#000000"
     d="M 621.24012,144.24877 V 91.248773 h 18.75 v 52.999997 z" />
  <path
     id="polygon54"
     style="fill:none;stroke:#000000"
     d="M 644.99012,147.24877 V 88.248773 h 28.5 v 58.999997 z" />
  <path
     d="m 648.42412,113.60879 3.598,8.82 h 1.232 l 3.626,-8.82 z m 4.214,7.392 -2.548,-6.37 h 5.11 z m 11.676,3.276 v -0.7 h -6.958 v 0.7 z m 1.666,-1.848 h 3.864 v -0.21 c -1.078,0 -1.316,-0.154 -1.33,-0.826 v -8.4 l -0.112,-0.028 -2.52,1.274 v 0.196 c 0.546,-0.21 0.882,-0.308 1.008,-0.308 0.294,0 0.42,0.21 0.42,0.658 v 6.342 c -0.028,0.882 -0.266,1.078 -1.33,1.092 z"
     id="text54"
     style="font-size:14px;font-family:Times, serif"
     aria-label="∇_1" />
  <path
     id="polygon55"
     style="fill:none;stroke:#000000"
     d="M 675.49012,147.24877 V 88.248773 h 24.75 v 58.999997 z" />
  <path
     id="polygon56"
     style="fill:none;stroke:#000000"
     d="M 681.49012,141.24877 V 94.248773 h 12.75 v 46.999997 z" />
  <path
     d="m 686.14212,122.79879 h 3.864 v -0.21 c -1.078,0 -1.316,-0.154 -1.33,-0.826 v -8.4 l -0.112,-0.028 -2.52,1.274 v 0.196 c 0.546,-0.21 0.882,-0.308 1.008,-0.308 0.294,0 0.42,0.21 0.42,0.658 v 6.342 c -0.028,0.882 -0.266,1.078 -1.33,1.092 z"
     id="text56"
     style="font-size:14px;font-family:Times, serif"
     aria-label="1" />
  <path
     id="polygon57"
     style="fill:none;stroke:#000000"
     d="M 678.49012,144.24877 V 91.248773 h 18.75 v 52.999997 z" />
  <path
     id="polygon58"
     style="fill:none;stroke:#000000"
     d="M 615.24012,150.24877 V 85.248773 h 88 v 64.999997 z" />
  <path
     fill="none"
     stroke="#000000"
     d="m 565.99012,220.74877 c 47.69,0 9.56,-90.75 57.25,-90.75"
     id="path58" />
  <path
     fill="none"
     stroke="#000000"
     d="m 565.99012,105.74877 c 25.44,0 31.81,-0.25 57.25,-0.25"
     id="path60" />
  <path
     id="polygon63"
     style="fill:#ffff00"
     d="m 396.11126,241.60416 v -40.5 h 108.25 v 40.5 z" />
  <path
     id="polygon64"
     style="fill:none;stroke:#000000"
     d="m 399.11126,238.60416 v -34.5 h 24.75 v 34.5 z" />
  <path
     id="polygon65"
     style="fill:none;stroke:#000000"
     d="m 405.11126,232.60416 v -22.5 h 12.75 v 22.5 z" />
  <path
     d="m 409.76326,226.40418 h 3.864 v -0.21 c -1.078,0 -1.316,-0.154 -1.33,-0.826 v -8.4 l -0.112,-0.028 -2.52,1.274 v 0.196 c 0.546,-0.21 0.882,-0.308 1.008,-0.308 0.294,0 0.42,0.21 0.42,0.658 v 6.342 c -0.028,0.882 -0.266,1.078 -1.33,1.092 z"
     id="text65"
     style="font-size:14px;font-family:Times, serif"
     aria-label="1" />
  <path
     id="polygon66"
     style="fill:none;stroke:#000000"
     d="m 402.11126,235.60416 v -28.5 h 18.75 v 28.5 z" />
  <path
     id="polygon67"
     style="fill:none;stroke:#000000"
     d="m 425.86126,238.60416 v -34.5 h 48.75 v 34.5 z" />
  <path
     d="m 435.73526,225.59218 c -0.182,0.014 -0.266,0.014 -0.322,0.014 -0.49,0 -0.616,-0.154 -0.616,-0.798 v -7.938 l -0.07,-0.028 c -0.658,0.224 -1.134,0.378 -2.058,0.616 v 0.224 c 0.112,-0.014 0.182,-0.014 0.308,-0.014 0.518,0 0.644,0.14 0.644,0.714 v 2.184 c -0.532,-0.448 -0.91,-0.602 -1.47,-0.602 -1.61,0 -2.912,1.582 -2.912,3.57 0,1.792 1.036,3.01 2.59,3.01 0.784,0 1.316,-0.28 1.792,-0.938 v 0.896 l 0.056,0.042 2.058,-0.728 z m -2.114,-0.616 c 0,0.098 -0.098,0.266 -0.238,0.42 -0.238,0.28 -0.602,0.42 -1.008,0.42 -1.176,0 -1.932,-1.12 -1.932,-2.856 0,-1.568 0.686,-2.604 1.75,-2.604 0.756,0 1.428,0.658 1.428,1.4 z m 7.952,-0.868 c -0.672,1.064 -1.274,1.47 -2.17,1.47 -0.798,0 -1.4,-0.406 -1.806,-1.204 -0.252,-0.532 -0.35,-0.98 -0.378,-1.848 h 4.312 c -0.112,-0.91 -0.252,-1.316 -0.602,-1.764 -0.42,-0.504 -1.064,-0.798 -1.792,-0.798 -0.7,0 -1.358,0.252 -1.89,0.728 -0.658,0.574 -1.036,1.568 -1.036,2.716 0,1.932 1.008,3.136 2.618,3.136 1.33,0 2.38,-0.826 2.968,-2.338 z m -4.326,-2.03 c 0.154,-1.092 0.63,-1.61 1.484,-1.61 0.854,0 1.19,0.392 1.372,1.61 z m 4.816,4.326 h 3.304 v -0.21 c -0.882,-0.042 -1.036,-0.182 -1.05,-0.966 v -8.358 l -0.056,-0.028 c -0.714,0.224 -1.232,0.378 -2.226,0.616 v 0.224 h 0.084 c 0.154,-0.014 0.322,-0.028 0.434,-0.028 0.448,0 0.588,0.196 0.588,0.854 v 6.678 c -0.014,0.756 -0.21,0.952 -1.078,1.008 z m 9.786,-0.924 c -0.238,0.196 -0.406,0.266 -0.616,0.266 -0.322,0 -0.42,-0.196 -0.42,-0.812 v -2.73 c 0,-0.728 -0.07,-1.134 -0.28,-1.47 -0.308,-0.504 -0.91,-0.77 -1.736,-0.77 -1.316,0 -2.352,0.686 -2.352,1.568 0,0.322 0.266,0.602 0.602,0.602 0.336,0 0.63,-0.28 0.63,-0.588 0,-0.056 -0.014,-0.126 -0.028,-0.224 -0.028,-0.126 -0.042,-0.238 -0.042,-0.336 0,-0.378 0.448,-0.686 1.008,-0.686 0.686,0 1.064,0.406 1.064,1.162 v 0.854 c -2.142,0.854 -2.394,0.98 -2.996,1.512 -0.308,0.28 -0.504,0.756 -0.504,1.218 0,0.882 0.616,1.498 1.47,1.498 0.616,0 1.19,-0.294 2.044,-1.022 0.07,0.742 0.322,1.022 0.896,1.022 0.476,0 0.77,-0.168 1.26,-0.7 z m -2.17,-0.798 c 0,0.42 -0.07,0.574 -0.364,0.742 -0.35,0.196 -0.728,0.308 -1.022,0.308 -0.49,0 -0.882,-0.476 -0.882,-1.078 v -0.056 c 0.014,-0.84 0.63,-1.372 2.268,-1.946 z m 8.302,-4.578 h -1.89 v 0.21 c 0.448,0 0.672,0.126 0.672,0.35 0,0.056 -0.014,0.14 -0.056,0.238 l -1.358,3.864 -1.61,-3.542 c -0.084,-0.196 -0.14,-0.392 -0.14,-0.532 0,-0.252 0.21,-0.35 0.812,-0.378 v -0.21 h -2.884 v 0.196 c 0.364,0.056 0.602,0.21 0.714,0.448 l 1.596,3.444 c 0.168,0.378 0.182,0.392 0.252,0.532 0.392,0.7 0.616,1.218 0.616,1.428 0,0.224 -0.322,1.078 -0.56,1.512 -0.21,0.35 -0.504,0.616 -0.7,0.616 -0.084,0 -0.21,-0.028 -0.364,-0.098 -0.252,-0.098 -0.504,-0.154 -0.728,-0.154 -0.336,0 -0.602,0.266 -0.602,0.616 0,0.462 0.434,0.812 1.036,0.812 0.952,0 1.596,-0.77 2.366,-2.8 l 2.156,-5.712 c 0.182,-0.448 0.336,-0.588 0.672,-0.63 z m 7.336,8.148 v -0.7 h -6.958 v 0.7 z m 1.666,-1.848 h 3.864 v -0.21 c -1.078,0 -1.316,-0.154 -1.33,-0.826 v -8.4 l -0.112,-0.028 -2.52,1.274 v 0.196 c 0.546,-0.21 0.882,-0.308 1.008,-0.308 0.294,0 0.42,0.21 0.42,0.658 v 6.342 c -0.028,0.882 -0.266,1.078 -1.33,1.092 z"
     id="text67"
     style="font-size:14px;font-family:Times, serif"
     aria-label="delay_1" />
  <path
     id="polygon68"
     style="fill:none;stroke:#000000"
     d="m 476.61126,238.60416 v -34.5 h 24.75 v 34.5 z" />
  <path
     id="polygon69"
     style="fill:none;stroke:#000000"
     d="m 482.61126,232.60416 v -22.5 h 12.75 v 22.5 z" />
  <path
     d="m 487.26326,226.40418 h 3.864 v -0.21 c -1.078,0 -1.316,-0.154 -1.33,-0.826 v -8.4 l -0.112,-0.028 -2.52,1.274 v 0.196 c 0.546,-0.21 0.882,-0.308 1.008,-0.308 0.294,0 0.42,0.21 0.42,0.658 v 6.342 c -0.028,0.882 -0.266,1.078 -1.33,1.092 z"
     id="text69"
     style="font-size:14px;font-family:Times, serif"
     aria-label="1" />
  <path
     id="polygon70"
     style="fill:none;stroke:#000000"
     d="m 479.61126,235.60416 v -28.5 h 18.75 v 28.5 z" />
  <path
     id="polygon71"
     style="fill:none;stroke:#000000"
     d="m 396.11126,241.60416 v -40.5 h 108.25 v 40.5 z" />
  <path
     fill="none"
     stroke="#000000"
     d="m 1108.7402,47.748773 c 23.11,0 28.89,0 52,0"
     id="path72" />
  <path
     fill="none"
     stroke="#000000"
     d="m 914.74014,86.748773 c 24.92,0 27.08,-21 52,-21"
     id="path542" />
  <path
     fill="none"
     stroke="#000000"
     d="m 695.24012,117.74877 c 27.1,0 30.15,-21 57.25,-21"
     id="path544" />
  <path
     id="ellipse545"
     style="stroke:#000000"
     d="m 986.51244,20.750023 a 9,9 0 0 1 -9.0003,9 9,9 0 0 1 -9.0002,-9 9,9 0 0 1 9.0002,-9 9,9 0 0 1 9.0003,9 z" />
  <path
     d="m 975.66414,25.800011 h 3.8641 v -0.21 c -1.078,0 -1.3161,-0.154 -1.3301,-0.826 v -8.4 l -0.112,-0.028 -2.52,1.274 v 0.196 c 0.546,-0.21 0.882,-0.308 1.008,-0.308 0.294,0 0.42,0.21 0.42,0.658 v 6.342 c -0.028,0.882 -0.266,1.078 -1.33,1.092 z"
     id="text545"
     style="font-size:14px;font-family:Times, serif;text-anchor:middle;fill:#ffffff"
     aria-label="1" />
  <path
     id="ellipse552"
     style="stroke:#000000"
     d="m 782.01244,20.750023 a 9,9 0 0 1 -9,9 9,9 0 0 1 -9.0002,-9 9,9 0 0 1 9.0002,-9 9,9 0 0 1 9,9 z" />
  <path
     d="m 771.16434,25.800011 h 3.8641 v -0.21 c -1.078,0 -1.316,-0.154 -1.33,-0.826 v -8.4 l -0.112,-0.028 -2.5201,1.274 v 0.196 c 0.546,-0.21 0.882,-0.308 1.008,-0.308 0.294,0 0.42,0.21 0.42,0.658 v 6.342 c -0.028,0.882 -0.266,1.078 -1.33,1.092 z"
     id="text552"
     style="font-size:14px;font-family:Times, serif;text-anchor:middle;fill:#ffffff"
     aria-label="1" />
  <path
     id="polygon554"
     style="fill:#ffffff"
     d="M 826.01234,41 V 0.5 h 98.4997 V 41 Z" />
  <path
     id="polygon555"
     style="fill:none;stroke:#000000"
     d="M 829.01234,38 V 3.5 h 38.2499 V 38 Z" />
  <path
     id="polygon556"
     style="fill:none;stroke:#000000"
     d="M 835.01224,32 V 9.5 h 26.25 V 32 Z" />
  <path
     d="m 847.89624,25.534011 c -0.63,-0.042 -0.77,-0.182 -1.26,-1.218 l -3.486,-7.952 h -0.28 l -2.912,6.874 c -0.896,2.044 -1.064,2.268 -1.736,2.296 v 0.266 h 2.772 v -0.266 c -0.672,0 -0.952,-0.168 -0.952,-0.574 0,-0.168 0.042,-0.364 0.112,-0.546 l 0.644,-1.638 h 3.668 l 0.574,1.344 c 0.168,0.378 0.266,0.742 0.266,0.938 0,0.35 -0.238,0.462 -0.98,0.476 v 0.266 h 3.57 z m -6.86,-3.332 1.61,-3.85 1.624,3.85 z m 8.988,-2.828 c -0.42,0 -0.77,0.35 -0.77,0.798 0,0.406 0.35,0.756 0.756,0.756 0.434,0 0.798,-0.336 0.798,-0.756 0,-0.434 -0.364,-0.798 -0.784,-0.798 z m 0,5.026 c -0.42,0 -0.77,0.35 -0.77,0.798 0,0.406 0.35,0.756 0.756,0.756 0.434,0 0.798,-0.336 0.798,-0.756 0,-0.434 -0.364,-0.798 -0.784,-0.798 z m 3.64,1.4 h 3.864 v -0.21 c -1.078,0 -1.316,-0.154 -1.33,-0.826 v -8.4 l -0.112,-0.028 -2.52,1.274 v 0.196 c 0.546,-0.21 0.882,-0.308 1.008,-0.308 0.294,0 0.42,0.21 0.42,0.658 v 6.342 c -0.028,0.882 -0.266,1.078 -1.33,1.092 z"
     id="text556"
     style="font-size:14px;font-family:Times, serif"
     aria-label="A:1" />
  <path
     id="polygon557"
     style="fill:none;stroke:#000000"
     d="M 832.01234,35 V 6.5 h 32.2499 V 35 Z" />
  <path
     id="polygon558"
     style="fill:none;stroke:#000000"
     d="M 869.26224,38 V 3.5 h 13.4999 V 38 Z" />
  <path
     d="m 878.96824,22.566011 v -3.248 h -0.322 c -0.154,1.106 -0.392,1.302 -1.54,1.33 h -2.03 v -3.108 c 0.014,-0.42 0.056,-0.462 0.448,-0.476 h 1.904 c 1.624,0.028 1.904,0.224 2.1279,1.47 h 0.35 l -0.042,-2.002 h -7.4339 v 0.266 c 1.022,0.07 1.19,0.252 1.218,1.26 v 6.062 c -0.014,1.19 -0.154,1.344 -1.218,1.414 v 0.266 h 3.92 v -0.266 c -1.064,-0.042 -1.26,-0.238 -1.274,-1.26 v -3.052 h 2.03 c 1.148,0.014 1.372,0.21 1.54,1.344 z"
     id="text558"
     style="font-size:14px;font-family:Times, serif"
     aria-label="F" />
  <path
     id="polygon559"
     style="fill:none;stroke:#000000"
     d="M 884.76214,38 V 3.5 h 36.7499 V 38 Z" />
  <path
     id="polygon560"
     style="fill:none;stroke:#000000"
     d="M 890.76214,32 V 9.5 h 24.7499 V 32 Z" />
  <path
     d="m 901.79814,23.336011 c -0.42,1.498 -0.896,1.876 -2.408,1.932 h -3.598 l 6.048,-8.526 v -0.21 h -7.364 l -0.28,2.394 h 0.364 c 0.238,-1.414 0.742,-1.82 2.352,-1.862 h 3.094 l -6.118,8.526 v 0.21 h 7.896 l 0.336,-2.464 z m 2.618,-3.962 c -0.42,0 -0.77,0.35 -0.77,0.798 0,0.406 0.35,0.756 0.756,0.756 0.434,0 0.798,-0.336 0.798,-0.756 0,-0.434 -0.364,-0.798 -0.784,-0.798 z m 0,5.026 c -0.42,0 -0.77,0.35 -0.77,0.798 0,0.406 0.35,0.756 0.756,0.756 0.434,0 0.798,-0.336 0.798,-0.756 0,-0.434 -0.364,-0.798 -0.784,-0.798 z m 3.64,1.4 h 3.8639 v -0.21 c -1.078,0 -1.316,-0.154 -1.33,-0.826 v -8.4 l -0.112,-0.028 -2.5199,1.274 v 0.196 c 0.546,-0.21 0.882,-0.308 1.008,-0.308 0.294,0 0.42,0.21 0.42,0.658 v 6.342 c -0.028,0.882 -0.266,1.078 -1.33,1.092 z"
     id="text560"
     style="font-size:14px;font-family:Times, serif"
     aria-label="Z:1" />
  <path
     id="polygon561"
     style="fill:none;stroke:#000000"
     d="M 887.76214,35 V 6.5 h 30.7499 V 35 Z" />
  <path
     id="polygon562"
     style="fill:none;stroke:#000000"
     d="M 826.01234,41 V 0.5 h 98.4997 V 41 Z" />
  <path
     fill="none"
     stroke="#000000"
     d="m 782.01244,20.75 c 23.1099,0 28.8899,0 51.9999,0"
     id="path562" />
  <path
     id="ellipse563"
     style="stroke:#000000"
     d="m 567.76224,20.750023 a 9,9 0 0 1 -9,9 9,9 0 0 1 -9,-9 9,9 0 0 1 9,-9 9,9 0 0 1 9,9 z" />
  <path
     d="m 556.91424,25.800011 h 3.864 v -0.21 c -1.078,0 -1.316,-0.154 -1.33,-0.826 v -8.4 l -0.112,-0.028 -2.52,1.274 v 0.196 c 0.546,-0.21 0.882,-0.308 1.008,-0.308 0.294,0 0.42,0.21 0.42,0.658 v 6.342 c -0.028,0.882 -0.266,1.078 -1.33,1.092 z"
     id="text563"
     style="font-size:14px;font-family:Times, serif;text-anchor:middle;fill:#ffffff"
     aria-label="1" />
  <path
     id="polygon565"
     style="fill:#ffffff"
     d="M 615.51224,41 V 0.5 h 100.75 V 41 Z" />
  <path
     id="polygon566"
     style="fill:none;stroke:#000000"
     d="M 618.51224,38 V 3.5 h 38.25 V 38 Z" />
  <path
     id="polygon567"
     style="fill:none;stroke:#000000"
     d="M 624.51224,32 V 9.5 h 26.25 V 32 Z" />
  <path
     d="m 637.39624,25.534011 c -0.63,-0.042 -0.77,-0.182 -1.26,-1.218 l -3.486,-7.952 h -0.28 l -2.912,6.874 c -0.896,2.044 -1.064,2.268 -1.736,2.296 v 0.266 h 2.772 v -0.266 c -0.672,0 -0.952,-0.168 -0.952,-0.574 0,-0.168 0.042,-0.364 0.112,-0.546 l 0.644,-1.638 h 3.668 l 0.574,1.344 c 0.168,0.378 0.266,0.742 0.266,0.938 0,0.35 -0.238,0.462 -0.98,0.476 v 0.266 h 3.57 z m -6.86,-3.332 1.61,-3.85 1.624,3.85 z m 8.988,-2.828 c -0.42,0 -0.77,0.35 -0.77,0.798 0,0.406 0.35,0.756 0.756,0.756 0.434,0 0.798,-0.336 0.798,-0.756 0,-0.434 -0.364,-0.798 -0.784,-0.798 z m 0,5.026 c -0.42,0 -0.77,0.35 -0.77,0.798 0,0.406 0.35,0.756 0.756,0.756 0.434,0 0.798,-0.336 0.798,-0.756 0,-0.434 -0.364,-0.798 -0.784,-0.798 z m 3.64,1.4 h 3.864 v -0.21 c -1.078,0 -1.316,-0.154 -1.33,-0.826 v -8.4 l -0.112,-0.028 -2.52,1.274 v 0.196 c 0.546,-0.21 0.882,-0.308 1.008,-0.308 0.294,0 0.42,0.21 0.42,0.658 v 6.342 c -0.028,0.882 -0.266,1.078 -1.33,1.092 z"
     id="text567"
     style="font-size:14px;font-family:Times, serif"
     aria-label="A:1" />
  <path
     id="polygon568"
     style="fill:none;stroke:#000000"
     d="M 621.51224,35 V 6.5 h 32.25 V 35 Z" />
  <path
     id="polygon569"
     style="fill:none;stroke:#000000"
     d="M 658.76224,38 V 3.5 h 15.75 V 38 Z" />
  <path
     d="m 671.68824,20.844011 h -3.57 v 0.252 c 1.092,0.07 1.204,0.182 1.232,1.246 v 2.268 c 0,0.448 -0.84,0.826 -1.862,0.826 -2.282,0 -3.682,-1.596 -3.682,-4.2 0,-1.316 0.392,-2.59 1.008,-3.276 0.602,-0.686 1.484,-1.064 2.436,-1.064 0.784,0 1.484,0.266 2.016,0.77 0.42,0.406 0.644,0.77 0.994,1.624 h 0.322 l -0.112,-2.954 h -0.308 c -0.084,0.28 -0.336,0.462 -0.63,0.462 -0.14,0 -0.364,-0.042 -0.616,-0.14 -0.63,-0.21 -1.288,-0.322 -1.918,-0.322 -2.786,0 -4.788,2.058 -4.788,4.914 0,1.372 0.378,2.422 1.162,3.248 0.924,0.966 2.282,1.498 3.822,1.498 1.218,0 2.954,-0.49 3.514,-0.98 v -2.842 c 0.028,-0.854 0.182,-1.022 0.98,-1.078 z"
     id="text569"
     style="font-size:14px;font-family:Times, serif"
     aria-label="G" />
  <path
     id="polygon570"
     style="fill:none;stroke:#000000"
     d="M 676.51224,38 V 3.5 h 36.75 V 38 Z" />
  <path
     id="polygon571"
     style="fill:none;stroke:#000000"
     d="M 682.51224,32 V 9.5 h 24.75 V 32 Z" />
  <path
     d="m 693.54824,23.336011 c -0.42,1.498 -0.896,1.876 -2.408,1.932 h -3.598 l 6.048,-8.526 v -0.21 h -7.364 l -0.28,2.394 h 0.364 c 0.238,-1.414 0.742,-1.82 2.352,-1.862 h 3.094 l -6.118,8.526 v 0.21 h 7.896 l 0.336,-2.464 z m 2.618,-3.962 c -0.42,0 -0.77,0.35 -0.77,0.798 0,0.406 0.35,0.756 0.756,0.756 0.434,0 0.798,-0.336 0.798,-0.756 0,-0.434 -0.364,-0.798 -0.784,-0.798 z m 0,5.026 c -0.42,0 -0.77,0.35 -0.77,0.798 0,0.406 0.35,0.756 0.756,0.756 0.434,0 0.798,-0.336 0.798,-0.756 0,-0.434 -0.364,-0.798 -0.784,-0.798 z m 3.64,1.4 h 3.864 v -0.21 c -1.078,0 -1.316,-0.154 -1.33,-0.826 v -8.4 l -0.112,-0.028 -2.52,1.274 v 0.196 c 0.546,-0.21 0.882,-0.308 1.008,-0.308 0.294,0 0.42,0.21 0.42,0.658 v 6.342 c -0.028,0.882 -0.266,1.078 -1.33,1.092 z"
     id="text571"
     style="font-size:14px;font-family:Times, serif"
     aria-label="Z:1" />
  <path
     id="polygon572"
     style="fill:none;stroke:#000000"
     d="M 679.51224,35 V 6.5 h 30.75 V 35 Z" />
  <path
     id="polygon573"
     style="fill:none;stroke:#000000"
     d="M 615.51224,41 V 0.5 h 100.75 V 41 Z" />
  <path
     fill="none"
     stroke="#000000"
     d="m 567.76224,20.75 c 24.78,0 30.97,0 55.75,0"
     id="path573" />
  <path
     fill="none"
     stroke="#000000"
     d="m 916.51204,20.75 c 23.11,0 28.89,0 51.9999,0"
     id="path574" />
  <path
     fill="none"
     stroke="#000000"
     d="m 708.26224,20.75 c 24.78,0 30.97,0 55.75,0"
     id="path575" />
  <path
     id="polygon577"
     style="fill:#caff70"
     d="M 432.64224,41 V 0.5 h 45.5 V 41 Z" />
  <path
     id="polygon578"
     style="fill:none;stroke:#000000"
     d="M 435.64224,38 V 3.5 h 12.74 V 38 Z" />
  <path
     d="m 440.29414,25.800011 h 3.864 v -0.21 c -1.078,0 -1.316,-0.154 -1.33,-0.826 v -8.4 l -0.112,-0.028 -2.52,1.274 v 0.196 c 0.546,-0.21 0.882,-0.308 1.008,-0.308 0.294,0 0.42,0.21 0.42,0.658 v 6.342 c -0.028,0.882 -0.266,1.078 -1.33,1.092 z"
     id="text578"
     style="font-size:14px;font-family:Times, serif"
     aria-label="1" />
  <path
     id="polygon579"
     style="fill:none;stroke:#000000"
     d="M 450.38224,38 V 3.5 h 24.76 V 38 Z" />
  <path
     id="polygon580"
     style="fill:none;stroke:#000000"
     d="M 456.38224,32 V 9.5 h 12.76 V 32 Z" />
  <path
     d="m 461.03434,25.800011 h 3.864 v -0.21 c -1.078,0 -1.316,-0.154 -1.33,-0.826 v -8.4 l -0.112,-0.028 -2.52,1.274 v 0.196 c 0.546,-0.21 0.882,-0.308 1.008,-0.308 0.294,0 0.42,0.21 0.42,0.658 v 6.342 c -0.028,0.882 -0.266,1.078 -1.33,1.092 z"
     id="text580"
     style="font-size:14px;font-family:Times, serif"
     aria-label="1" />
  <path
     id="polygon581"
     style="fill:none;stroke:#000000"
     d="M 453.38224,35 V 6.5 h 18.76 V 35 Z" />
  <path
     id="polygon582"
     style="fill:none;stroke:#000000"
     d="M 432.64224,41 V 0.5 h 45.5 V 41 Z" />
  <path
     fill="none"
     stroke="#000000"
     d="m 470.14224,20.75 c 35.38,0 44.23,0 79.62,0"
     id="path582" />
  <path
     id="ellipse584"
     style="stroke:#000000"
     d="m 567.76228,105.7488 a 9,9 0 0 1 -9,9 9,9 0 0 1 -9,-9 9,9 0 0 1 9,-9 9,9 0 0 1 9,9 z" />
  <path
     d="m 556.91428,110.79879 h 3.864 v -0.21 c -1.078,0 -1.316,-0.154 -1.33,-0.826 v -8.4 l -0.112,-0.028 -2.52,1.274 v 0.196 c 0.546,-0.21 0.882,-0.308 1.008,-0.308 0.294,0 0.42,0.21 0.42,0.658 v 6.342 c -0.028,0.882 -0.266,1.078 -1.33,1.092 z"
     id="text584"
     style="font-size:14px;font-family:Times, serif;text-anchor:middle;fill:#ffffff"
     aria-label="1" />
  <path
     id="ellipse591"
     style="stroke:#000000"
     d="m 361.01228,105.7488 a 9,9 0 0 1 -9,9 9,9 0 0 1 -9,-9 9,9 0 0 1 9,-9 9,9 0 0 1 9,9 z" />
  <path
     d="m 350.16428,110.79879 h 3.864 v -0.21 c -1.078,0 -1.316,-0.154 -1.33,-0.826 v -8.4 l -0.112,-0.028 -2.52,1.274 v 0.196 c 0.546,-0.21 0.882,-0.308 1.008,-0.308 0.294,0 0.42,0.21 0.42,0.658 v 6.342 c -0.028,0.882 -0.266,1.078 -1.33,1.092 z"
     id="text591"
     style="font-size:14px;font-family:Times, serif;text-anchor:middle;fill:#ffffff"
     aria-label="1" />
  <path
     id="polygon593"
     style="fill:#ffffff"
     d="M 405.01228,125.99877 V 85.498773 h 100.75 v 40.499997 z" />
  <path
     id="polygon594"
     style="fill:none;stroke:#000000"
     d="M 408.01228,122.99877 V 88.498773 h 38.25 v 34.499997 z" />
  <path
     id="polygon595"
     style="fill:none;stroke:#000000"
     d="M 414.01228,116.99877 V 94.498773 h 26.25 v 22.499997 z" />
  <path
     d="m 426.89628,110.53279 c -0.63,-0.042 -0.77,-0.182 -1.26,-1.218 l -3.486,-7.952 h -0.28 l -2.912,6.874 c -0.896,2.044 -1.064,2.268 -1.736,2.296 v 0.266 h 2.772 v -0.266 c -0.672,0 -0.952,-0.168 -0.952,-0.574 0,-0.168 0.042,-0.364 0.112,-0.546 l 0.644,-1.638 h 3.668 l 0.574,1.344 c 0.168,0.378 0.266,0.742 0.266,0.938 0,0.35 -0.238,0.462 -0.98,0.476 v 0.266 h 3.57 z m -6.86,-3.332 1.61,-3.85 1.624,3.85 z m 8.988,-2.828 c -0.42,0 -0.77,0.35 -0.77,0.798 0,0.406 0.35,0.756 0.756,0.756 0.434,0 0.798,-0.336 0.798,-0.756 0,-0.434 -0.364,-0.798 -0.784,-0.798 z m 0,5.026 c -0.42,0 -0.77,0.35 -0.77,0.798 0,0.406 0.35,0.756 0.756,0.756 0.434,0 0.798,-0.336 0.798,-0.756 0,-0.434 -0.364,-0.798 -0.784,-0.798 z m 3.64,1.4 h 3.864 v -0.21 c -1.078,0 -1.316,-0.154 -1.33,-0.826 v -8.4 l -0.112,-0.028 -2.52,1.274 v 0.196 c 0.546,-0.21 0.882,-0.308 1.008,-0.308 0.294,0 0.42,0.21 0.42,0.658 v 6.342 c -0.028,0.882 -0.266,1.078 -1.33,1.092 z"
     id="text595"
     style="font-size:14px;font-family:Times, serif"
     aria-label="A:1" />
  <path
     id="polygon596"
     style="fill:none;stroke:#000000"
     d="M 411.01228,119.99877 V 91.498773 h 32.25 v 28.499997 z" />
  <path
     id="polygon597"
     style="fill:none;stroke:#000000"
     d="M 448.26228,122.99877 V 88.498773 h 15.75 v 34.499997 z" />
  <path
     d="m 461.18828,105.84279 h -3.57 v 0.252 c 1.092,0.07 1.204,0.182 1.232,1.246 v 2.268 c 0,0.448 -0.84,0.826 -1.862,0.826 -2.282,0 -3.682,-1.596 -3.682,-4.2 0,-1.316 0.392,-2.59 1.008,-3.276 0.602,-0.686 1.484,-1.064 2.436,-1.064 0.784,0 1.484,0.266 2.016,0.77 0.42,0.406 0.644,0.77 0.994,1.624 h 0.322 l -0.112,-2.954 h -0.308 c -0.084,0.28 -0.336,0.462 -0.63,0.462 -0.14,0 -0.364,-0.042 -0.616,-0.14 -0.63,-0.21 -1.288,-0.322 -1.918,-0.322 -2.786,0 -4.788,2.058 -4.788,4.914 0,1.372 0.378,2.422 1.162,3.248 0.924,0.966 2.282,1.498 3.822,1.498 1.218,0 2.954,-0.49 3.514,-0.98 v -2.842 c 0.028,-0.854 0.182,-1.022 0.98,-1.078 z"
     id="text597"
     style="font-size:14px;font-family:Times, serif"
     aria-label="G" />
  <path
     id="polygon598"
     style="fill:none;stroke:#000000"
     d="M 466.01228,122.99877 V 88.498773 h 36.75 v 34.499997 z" />
  <path
     id="polygon599"
     style="fill:none;stroke:#000000"
     d="M 472.01228,116.99877 V 94.498773 h 24.75 v 22.499997 z" />
  <path
     d="m 483.04828,108.33479 c -0.42,1.498 -0.896,1.876 -2.408,1.932 h -3.598 l 6.048,-8.526 v -0.21 h -7.364 l -0.28,2.394 h 0.364 c 0.238,-1.414 0.742,-1.82 2.352,-1.862 h 3.094 l -6.118,8.526 v 0.21 h 7.896 l 0.336,-2.464 z m 2.618,-3.962 c -0.42,0 -0.77,0.35 -0.77,0.798 0,0.406 0.35,0.756 0.756,0.756 0.434,0 0.798,-0.336 0.798,-0.756 0,-0.434 -0.364,-0.798 -0.784,-0.798 z m 0,5.026 c -0.42,0 -0.77,0.35 -0.77,0.798 0,0.406 0.35,0.756 0.756,0.756 0.434,0 0.798,-0.336 0.798,-0.756 0,-0.434 -0.364,-0.798 -0.784,-0.798 z m 3.64,1.4 h 3.864 v -0.21 c -1.078,0 -1.316,-0.154 -1.33,-0.826 v -8.4 l -0.112,-0.028 -2.52,1.274 v 0.196 c 0.546,-0.21 0.882,-0.308 1.008,-0.308 0.294,0 0.42,0.21 0.42,0.658 v 6.342 c -0.028,0.882 -0.266,1.078 -1.33,1.092 z"
     id="text599"
     style="font-size:14px;font-family:Times, serif"
     aria-label="Z:1" />
  <path
     id="polygon600"
     style="fill:none;stroke:#000000"
     d="M 469.01228,119.99877 V 91.498773 h 30.75 v 28.499997 z" />
  <path
     id="polygon601"
     style="fill:none;stroke:#000000"
     d="M 405.01228,125.99877 V 85.498773 h 100.75 v 40.499997 z" />
  <path
     fill="none"
     stroke="#000000"
     d="m 361.01228,105.74877 c 23.11,0 28.89,0 52,0"
     id="path601" />
  <path
     id="ellipse591-2"
     style="stroke:#000000"
     d="m 351.91392,221.15909 a 9,9 0 0 1 -9,9 9,9 0 0 1 -9,-9 9,9 0 0 1 9,-9 9,9 0 0 1 9,9 z" />
  <path
     d="m 341.06592,226.20908 h 3.86399 v -0.21 c -1.07799,0 -1.31599,-0.154 -1.32999,-0.826 v -8.4 l -0.11201,-0.028 -2.52,1.274 v 0.196 c 0.546,-0.21 0.88201,-0.308 1.008,-0.308 0.294,0 0.42,0.21 0.42,0.658 v 6.342 c -0.028,0.882 -0.266,1.078 -1.32999,1.092 z"
     id="text591-0"
     style="font-size:14px;font-family:Times, serif;text-anchor:middle;fill:#ffffff"
     aria-label="1" />
  <path
     fill="none"
     stroke="#000000"
     d="m 351.91392,221.15906 c 23.11,0 28.89,0 52,0"
     id="path601-6" />
  <path
     id="ellipse602"
     style="stroke:#000000"
     d="m 145.26228,105.7488 a 9,9 0 0 1 -9,9 9,9 0 0 1 -9,-9 9,9 0 0 1 9,-9 9,9 0 0 1 9,9 z" />
  <path
     d="m 134.41428,110.79879 h 3.864 v -0.21 c -1.078,0 -1.316,-0.154 -1.33,-0.826 v -8.4 l -0.112,-0.028 -2.52,1.274 v 0.196 c 0.546,-0.21 0.882,-0.308 1.008,-0.308 0.294,0 0.42,0.21 0.42,0.658 v 6.342 c -0.028,0.882 -0.266,1.078 -1.33,1.092 z"
     id="text602"
     style="font-size:14px;font-family:Times, serif;text-anchor:middle;fill:#ffffff"
     aria-label="1" />
  <path
     id="polygon604"
     style="fill:#ffffff"
     d="M 194.88228,125.99877 V 85.498773 h 98.5 v 40.499997 z" />
  <path
     id="polygon605"
     style="fill:none;stroke:#000000"
     d="M 197.88228,122.99877 V 88.498773 h 38.26 v 34.499997 z" />
  <path
     id="polygon606"
     style="fill:none;stroke:#000000"
     d="M 203.88228,116.99877 V 94.498773 h 26.26 v 22.499997 z" />
  <path
     d="m 216.76638,110.53279 c -0.63,-0.042 -0.77,-0.182 -1.26,-1.218 l -3.486,-7.952 h -0.28 l -2.912,6.874 c -0.896,2.044 -1.064,2.268 -1.736,2.296 v 0.266 h 2.772 v -0.266 c -0.672,0 -0.952,-0.168 -0.952,-0.574 0,-0.168 0.042,-0.364 0.112,-0.546 l 0.644,-1.638 h 3.668 l 0.574,1.344 c 0.168,0.378 0.266,0.742 0.266,0.938 0,0.35 -0.238,0.462 -0.98,0.476 v 0.266 h 3.57 z m -6.86,-3.332 1.61,-3.85 1.624,3.85 z m 8.988,-2.828 c -0.42,0 -0.77,0.35 -0.77,0.798 0,0.406 0.35,0.756 0.756,0.756 0.434,0 0.798,-0.336 0.798,-0.756 0,-0.434 -0.364,-0.798 -0.784,-0.798 z m 0,5.026 c -0.42,0 -0.77,0.35 -0.77,0.798 0,0.406 0.35,0.756 0.756,0.756 0.434,0 0.798,-0.336 0.798,-0.756 0,-0.434 -0.364,-0.798 -0.784,-0.798 z m 3.64,1.4 h 3.864 v -0.21 c -1.078,0 -1.316,-0.154 -1.33,-0.826 v -8.4 l -0.112,-0.028 -2.52,1.274 v 0.196 c 0.546,-0.21 0.882,-0.308 1.008,-0.308 0.294,0 0.42,0.21 0.42,0.658 v 6.342 c -0.028,0.882 -0.266,1.078 -1.33,1.092 z"
     id="text606"
     style="font-size:14px;font-family:Times, serif"
     aria-label="A:1" />
  <path
     id="polygon607"
     style="fill:none;stroke:#000000"
     d="M 200.88228,119.99877 V 91.498773 h 32.26 v 28.499997 z" />
  <path
     id="polygon608"
     style="fill:none;stroke:#000000"
     d="M 238.14228,122.99877 V 88.498773 h 13.5 v 34.499997 z" />
  <path
     d="m 247.84818,107.56479 v -3.248 h -0.322 c -0.154,1.106 -0.392,1.302 -1.54,1.33 h -2.03 v -3.108 c 0.014,-0.42 0.056,-0.462 0.448,-0.476 h 1.904 c 1.624,0.028 1.904,0.224 2.128,1.47 h 0.35 l -0.042,-2.002 h -7.434 v 0.266 c 1.022,0.07 1.19,0.252 1.218,1.26 v 6.062 c -0.014,1.19 -0.154,1.344 -1.218,1.414 v 0.266 h 3.92 v -0.266 c -1.064,-0.042 -1.26,-0.238 -1.274,-1.26 v -3.052 h 2.03 c 1.148,0.014 1.372,0.21 1.54,1.344 z"
     id="text608"
     style="font-size:14px;font-family:Times, serif"
     aria-label="F" />
  <path
     id="polygon609"
     style="fill:none;stroke:#000000"
     d="M 253.64228,122.99877 V 88.498773 h 36.74 v 34.499997 z" />
  <path
     id="polygon610"
     style="fill:none;stroke:#000000"
     d="M 259.64228,116.99877 V 94.498773 h 24.74 v 22.499997 z" />
  <path
     d="m 270.67818,108.33479 c -0.42,1.498 -0.896,1.876 -2.408,1.932 h -3.598 l 6.048,-8.526 v -0.21 h -7.364 l -0.28,2.394 h 0.364 c 0.238,-1.414 0.742,-1.82 2.352,-1.862 h 3.094 l -6.118,8.526 v 0.21 h 7.896 l 0.336,-2.464 z m 2.618,-3.962 c -0.42,0 -0.77,0.35 -0.77,0.798 0,0.406 0.35,0.756 0.756,0.756 0.434,0 0.798,-0.336 0.798,-0.756 0,-0.434 -0.364,-0.798 -0.784,-0.798 z m 0,5.026 c -0.42,0 -0.77,0.35 -0.77,0.798 0,0.406 0.35,0.756 0.756,0.756 0.434,0 0.798,-0.336 0.798,-0.756 0,-0.434 -0.364,-0.798 -0.784,-0.798 z m 3.64,1.4 h 3.864 v -0.21 c -1.078,0 -1.316,-0.154 -1.33,-0.826 v -8.4 l -0.112,-0.028 -2.52,1.274 v 0.196 c 0.546,-0.21 0.882,-0.308 1.008,-0.308 0.294,0 0.42,0.21 0.42,0.658 v 6.342 c -0.028,0.882 -0.266,1.078 -1.33,1.092 z"
     id="text610"
     style="font-size:14px;font-family:Times, serif"
     aria-label="Z:1" />
  <path
     id="polygon611"
     style="fill:none;stroke:#000000"
     d="M 256.64228,119.99877 V 91.498773 h 30.74 v 28.499997 z" />
  <path
     id="polygon612"
     style="fill:none;stroke:#000000"
     d="M 194.88228,125.99877 V 85.498773 h 98.5 v 40.499997 z" />
  <path
     fill="none"
     stroke="#000000"
     d="m 145.26228,105.74877 c 25.61,0 32.01,0 57.62,0"
     id="path612" />
  <path
     fill="none"
     stroke="#000000"
     d="m 497.76228,105.74877 c 23.11,0 28.89,0 52,0"
     id="path613" />
  <path
     fill="none"
     stroke="#000000"
     d="m 496.55803,221.34872 c 23.11,0 28.89,0 52,0"
     id="path613-9" />
  <path
     fill="none"
     stroke="#000000"
     d="m 285.38228,105.74877 c 25.62,0 32.02,0 57.63,0"
     id="path614" />
  <path
     id="polygon616"
     style="fill:#caff70"
     d="M 0.3822717,125.99877 V 85.498773 H 45.882282 v 40.499997 z" />
  <path
     id="polygon617"
     style="fill:none;stroke:#000000"
     d="M 3.3822719,122.99877 V 88.498773 H 16.142272 v 34.499997 z" />
  <path
     d="m 8.0343719,110.79879 h 3.8640001 v -0.21 c -1.078,0 -1.316,-0.154 -1.33,-0.826 v -8.4 l -0.112,-0.028 -2.5200001,1.274 v 0.196 c 0.546,-0.21 0.882,-0.308 1.008,-0.308 0.294,0 0.42,0.21 0.42,0.658 v 6.342 c -0.028,0.882 -0.266,1.078 -1.33,1.092 z"
     id="text617"
     style="font-size:14px;font-family:Times, serif"
     aria-label="1" />
  <path
     id="polygon618"
     style="fill:none;stroke:#000000"
     d="M 18.142272,122.99877 V 88.498773 h 24.74001 v 34.499997 z" />
  <path
     id="polygon619"
     style="fill:none;stroke:#000000"
     d="M 24.142282,116.99877 V 94.498773 h 12.74 v 22.499997 z" />
  <path
     d="m 28.794182,110.79879 h 3.864 v -0.21 c -1.078,0 -1.316,-0.154 -1.33,-0.826 v -8.4 l -0.112,-0.028 -2.52,1.274 v 0.196 c 0.546,-0.21 0.882,-0.308 1.008,-0.308 0.294,0 0.42,0.21 0.42,0.658 v 6.342 c -0.028,0.882 -0.266,1.078 -1.33,1.092 z"
     id="text619"
     style="font-size:14px;font-family:Times, serif"
     aria-label="1" />
  <path
     id="polygon620"
     style="fill:none;stroke:#000000"
     d="M 21.142282,119.99877 V 91.498773 h 18.74 v 28.499997 z" />
  <path
     id="polygon621"
     style="fill:none;stroke:#000000"
     d="M 0.3822717,125.99877 V 85.498773 H 45.882282 v 40.499997 z" />
  <path
     fill="none"
     stroke="#000000"
     d="m 37.882282,105.74877 c 39.73001,0 49.66,0 89.379998,0"
     id="path621" />
</svg>
