<?xml version="1.0" encoding="UTF-8" standalone="no"?>
<!-- Generated by graphviz version 11.0.0 (0)
 -->

<!-- Title: circuit Pages: 1 -->

<svg
   width="1279.2999pt"
   height="165.38559pt"
   viewBox="0 0 1279.2999 165.4761"
   version="1.1"
   id="svg88"
   sodipodi:docname="protocol-applied.svg"
   inkscape:version="1.3.2 (091e20ef0f, 2023-11-25, custom)"
   xmlns:inkscape="http://www.inkscape.org/namespaces/inkscape"
   xmlns:sodipodi="http://sodipodi.sourceforge.net/DTD/sodipodi-0.dtd"
   xmlns="http://www.w3.org/2000/svg"
   xmlns:svg="http://www.w3.org/2000/svg">
  <path
     id="polygon88"
     style="fill:none;stroke:#000000"
     d="m 22.143442,146.9761 v -40.5 h 43.5 v 40.5 z" />
  <defs
     id="defs88" />
  <sodipodi:namedview
     id="namedview88"
     pagecolor="#ffffff"
     bordercolor="#000000"
     borderopacity="0.25"
     inkscape:showpageshadow="2"
     inkscape:pageopacity="0.0"
     inkscape:pagecheckerboard="0"
     inkscape:deskcolor="#d1d1d1"
     inkscape:document-units="pt"
     inkscape:zoom="1.1552187"
     inkscape:cx="853.0852"
     inkscape:cy="128.9799"
     inkscape:window-width="2560"
     inkscape:window-height="1380"
     inkscape:window-x="1920"
     inkscape:window-y="32"
     inkscape:window-maximized="1"
     inkscape:current-layer="svg88" />
  <path
     id="ellipse2"
     style="stroke:#000000"
     d="m 149.64344,47.726104 a 9,9 0 0 1 -9,9 9,9 0 0 1 -9,-9 9,9 0 0 1 9,-9 9,9 0 0 1 9,9 z" />
  <path
     d="m 138.79544,52.776107 h 3.864 v -0.21 c -1.078,0 -1.316,-0.154 -1.33,-0.826 v -8.4 l -0.112,-0.028 -2.52,1.274 v 0.196 c 0.546,-0.21 0.882,-0.308 1.008,-0.308 0.294,0 0.42,0.21 0.42,0.658 v 6.342 c -0.028,0.882 -0.266,1.078 -1.33,1.092 z"
     id="text2"
     style="font-size:14px;font-family:Times, serif;text-anchor:middle;fill:#ffffff"
     aria-label="1" />
  <path
     id="polygon4"
     style="fill:#00ffff"
     d="M 193.64344,48.976103 V 8.4761035 h 118.75 V 48.976103 Z" />
  <path
     id="polygon5"
     style="fill:none;stroke:#000000"
     d="m 196.64344,45.976103 v -34.5 h 38.25 v 34.5 z" />
  <path
     id="polygon6"
     style="fill:none;stroke:#000000"
     d="m 202.64344,39.976103 v -22.5 h 26.25 v 22.5 z" />
  <path
     d="m 215.52744,33.510107 c -0.63,-0.042 -0.77,-0.182 -1.26,-1.218 l -3.486,-7.952 h -0.28 l -2.912,6.874 c -0.896,2.044 -1.064,2.268 -1.736,2.296 v 0.266 h 2.772 v -0.266 c -0.672,0 -0.952,-0.168 -0.952,-0.574 0,-0.168 0.042,-0.364 0.112,-0.546 l 0.644,-1.638 h 3.668 l 0.574,1.344 c 0.168,0.378 0.266,0.742 0.266,0.938 0,0.35 -0.238,0.462 -0.98,0.476 v 0.266 h 3.57 z m -6.86,-3.332 1.61,-3.85 1.624,3.85 z m 8.988,-2.828 c -0.42,0 -0.77,0.35 -0.77,0.798 0,0.406 0.35,0.756 0.756,0.756 0.434,0 0.798,-0.336 0.798,-0.756 0,-0.434 -0.364,-0.798 -0.784,-0.798 z m 0,5.026 c -0.42,0 -0.77,0.35 -0.77,0.798 0,0.406 0.35,0.756 0.756,0.756 0.434,0 0.798,-0.336 0.798,-0.756 0,-0.434 -0.364,-0.798 -0.784,-0.798 z m 3.64,1.4 h 3.864 v -0.21 c -1.078,0 -1.316,-0.154 -1.33,-0.826 v -8.4 l -0.112,-0.028 -2.52,1.274 v 0.196 c 0.546,-0.21 0.882,-0.308 1.008,-0.308 0.294,0 0.42,0.21 0.42,0.658 v 6.342 c -0.028,0.882 -0.266,1.078 -1.33,1.092 z"
     id="text6"
     style="font-size:14px;font-family:Times, serif"
     aria-label="A:1" />
  <path
     id="polygon7"
     style="fill:none;stroke:#000000"
     d="m 199.64344,42.976103 v -28.5 h 32.25 v 28.5 z" />
  <path
     id="polygon8"
     style="fill:none;stroke:#000000"
     d="m 236.89344,45.976103 v -34.5 h 33.75 v 34.5 z" />
  <path
     d="m 249.79144,24.508107 h -3.29 v 0.266 c 1.12,0.07 1.302,0.308 1.344,1.792 v 4.718 l -5.39,-6.776 h -2.394 v 0.266 c 0.602,0 0.798,0.112 1.358,0.77 v 6.174 c -0.028,1.484 -0.21,1.722 -1.358,1.792 v 0.266 h 3.29 v -0.266 c -1.078,-0.056 -1.288,-0.35 -1.316,-1.792 v -5.488 l 6.188,7.7 h 0.238 v -7.364 c 0.042,-1.456 0.224,-1.694 1.33,-1.792 z m 4.99801,-0.196 c -2.674,0 -4.578,2.002 -4.578,4.83 0,1.316 0.448,2.604 1.204,3.402 0.812,0.882 2.058,1.428 3.29,1.428 2.758,0 4.662,-1.946 4.662,-4.774 0,-1.386 -0.406,-2.59 -1.176,-3.416 -0.882,-0.966 -2.058,-1.47 -3.402,-1.47 z m 0,0.504 c 0.644,0 1.288,0.252 1.792,0.7 0.756,0.686 1.19,2.002 1.19,3.668 0,0.826 -0.168,1.792 -0.462,2.52 -0.126,0.35 -0.364,0.7 -0.686,1.022 -0.49,0.49 -1.12,0.742 -1.862,0.742 -0.644,0 -1.274,-0.252 -1.778,-0.686 -0.714,-0.644 -1.176,-2.058 -1.176,-3.612 0,-1.428 0.392,-2.786 0.98,-3.444 0.546,-0.602 1.232,-0.91 2.002,-0.91 z m 11.28401,8.694 c -1.148,-0.056 -1.33,-0.224 -1.344,-1.26 v -7.154 h 0.756 c 1.624,0.028 1.918,0.266 2.226,1.792 h 0.336 l -0.084,-2.38 h -7.896 l -0.084,2.38 h 0.336 c 0.322,-1.526 0.616,-1.764 2.226,-1.792 h 0.756 v 7 c -0.014,1.204 -0.14,1.344 -1.316,1.414 v 0.266 h 4.088 z"
     id="text8"
     style="font-size:14px;font-family:Times, serif"
     aria-label="NOT" />
  <path
     id="polygon9"
     style="fill:none;stroke:#000000"
     d="m 272.64344,45.976103 v -34.5 h 36.75 v 34.5 z" />
  <path
     id="polygon10"
     style="fill:none;stroke:#000000"
     d="m 278.64344,39.976103 v -22.5 h 24.75 v 22.5 z" />
  <path
     d="m 289.67944,31.312107 c -0.42,1.498 -0.896,1.876 -2.408,1.932 h -3.598 l 6.048,-8.526 v -0.21 h -7.364 l -0.28,2.394 h 0.364 c 0.238,-1.414 0.742,-1.82 2.352,-1.862 h 3.094 l -6.118,8.526 v 0.21 h 7.896 l 0.336,-2.464 z m 2.618,-3.962 c -0.42,0 -0.77,0.35 -0.77,0.798 0,0.406 0.35,0.756 0.756,0.756 0.434,0 0.798,-0.336 0.798,-0.756 0,-0.434 -0.364,-0.798 -0.784,-0.798 z m 0,5.026 c -0.42,0 -0.77,0.35 -0.77,0.798 0,0.406 0.35,0.756 0.756,0.756 0.434,0 0.798,-0.336 0.798,-0.756 0,-0.434 -0.364,-0.798 -0.784,-0.798 z m 3.64,1.4 h 3.864 v -0.21 c -1.078,0 -1.316,-0.154 -1.33,-0.826 v -8.4 l -0.112,-0.028 -2.52,1.274 v 0.196 c 0.546,-0.21 0.882,-0.308 1.008,-0.308 0.294,0 0.42,0.21 0.42,0.658 v 6.342 c -0.028,0.882 -0.266,1.078 -1.33,1.092 z"
     id="text10"
     style="font-size:14px;font-family:Times, serif"
     aria-label="Z:1" />
  <path
     id="polygon11"
     style="fill:none;stroke:#000000"
     d="m 275.64344,42.976103 v -28.5 h 30.75 v 28.5 z" />
  <path
     id="polygon12"
     style="fill:none;stroke:#000000"
     d="M 193.64344,48.976103 V 8.4761035 h 118.75 V 48.976103 Z" />
  <path
     fill="none"
     stroke="#000000"
     d="m 149.64344,47.726103 c 24.61,0 27.39,-19 52,-19"
     id="path12" />
  <path
     id="polygon14"
     style="fill:#00ffff"
     d="m 418.39344,94.226103 v -65 h 109.75 v 65 z" />
  <path
     id="polygon15"
     style="fill:none;stroke:#000000"
     d="m 421.39344,91.226103 v -59 h 38.25 v 59 z" />
  <path
     id="polygon16"
     style="fill:none;stroke:#000000"
     d="m 427.39344,60.726103 v -22.5 h 26.25 v 22.5 z" />
  <path
     d="m 440.27744,54.260107 c -0.63,-0.042 -0.77,-0.182 -1.26,-1.218 l -3.486,-7.952 h -0.28 l -2.912,6.874 c -0.896,2.044 -1.064,2.268 -1.736,2.296 v 0.266 h 2.772 v -0.266 c -0.672,0 -0.952,-0.168 -0.952,-0.574 0,-0.168 0.042,-0.364 0.112,-0.546 l 0.644,-1.638 h 3.668 l 0.574,1.344 c 0.168,0.378 0.266,0.742 0.266,0.938 0,0.35 -0.238,0.462 -0.98,0.476 v 0.266 h 3.57 z m -6.86,-3.332 1.61,-3.85 1.624,3.85 z m 8.988,-2.828 c -0.42,0 -0.77,0.35 -0.77,0.798 0,0.406 0.35,0.756 0.756,0.756 0.434,0 0.798,-0.336 0.798,-0.756 0,-0.434 -0.364,-0.798 -0.784,-0.798 z m 0,5.026 c -0.42,0 -0.77,0.35 -0.77,0.798 0,0.406 0.35,0.756 0.756,0.756 0.434,0 0.798,-0.336 0.798,-0.756 0,-0.434 -0.364,-0.798 -0.784,-0.798 z m 3.64,1.4 h 3.864 v -0.21 c -1.078,0 -1.316,-0.154 -1.33,-0.826 v -8.4 l -0.112,-0.028 -2.52,1.274 v 0.196 c 0.546,-0.21 0.882,-0.308 1.008,-0.308 0.294,0 0.42,0.21 0.42,0.658 v 6.342 c -0.028,0.882 -0.266,1.078 -1.33,1.092 z"
     id="text16"
     style="font-size:14px;font-family:Times, serif"
     aria-label="A:1" />
  <path
     id="polygon17"
     style="fill:none;stroke:#000000"
     d="m 427.39344,85.226103 v -22.5 h 26.25 v 22.5 z" />
  <path
     d="m 431.00144,70.024107 c 1.176,0.07 1.33,0.21 1.344,1.26 v 6.216 c -0.014,1.05 -0.196,1.218 -1.344,1.26 v 0.266 h 4.676 c 1.078,0 2.086,-0.294 2.604,-0.77 0.504,-0.448 0.784,-1.078 0.784,-1.75 0,-0.616 -0.238,-1.176 -0.686,-1.582 -0.42,-0.378 -0.798,-0.546 -1.708,-0.77 0.728,-0.182 1.022,-0.322 1.358,-0.616 0.35,-0.308 0.56,-0.812 0.56,-1.4 0,-1.568 -1.26,-2.38 -3.668,-2.38 h -3.92 z m 2.772,4.438 c 1.358,0 2.002,0.084 2.506,0.294 0.798,0.322 1.176,0.896 1.176,1.764 0,0.756 -0.294,1.302 -0.854,1.624 -0.448,0.252 -1.022,0.364 -1.946,0.364 -0.686,0 -0.882,-0.126 -0.882,-0.574 z m 0,-0.546 v -3.22 c 0.014,-0.308 0.07,-0.392 0.308,-0.406 l 0.616,-0.014 c 1.554,-0.042 2.464,0.672 2.464,1.918 0,1.106 -0.714,1.694 -2.058,1.708 z m 8.23199,-1.316 c -0.42,0 -0.77,0.35 -0.77,0.798 0,0.406 0.35,0.756 0.756,0.756 0.434,0 0.798,-0.336 0.798,-0.756 0,-0.434 -0.364,-0.798 -0.784,-0.798 z m 0,5.026 c -0.42,0 -0.77,0.35 -0.77,0.798 0,0.406 0.35,0.756 0.756,0.756 0.434,0 0.798,-0.336 0.798,-0.756 0,-0.434 -0.364,-0.798 -0.784,-0.798 z m 3.64,1.4 h 3.864 v -0.21 c -1.078,0 -1.316,-0.154 -1.33,-0.826 v -8.4 l -0.112,-0.028 -2.52,1.274 v 0.196 c 0.546,-0.21 0.882,-0.308 1.008,-0.308 0.294,0 0.42,0.21 0.42,0.658 v 6.342 c -0.028,0.882 -0.266,1.078 -1.33,1.092 z"
     id="text17"
     style="font-size:14px;font-family:Times, serif"
     aria-label="B:1" />
  <path
     id="polygon18"
     style="fill:none;stroke:#000000"
     d="m 424.39344,88.226103 v -53 h 32.25 v 53 z" />
  <path
     id="polygon19"
     style="fill:none;stroke:#000000"
     d="m 461.64344,91.226103 v -59 h 24.75 v 59 z" />
  <path
     d="m 469.69744,57.312107 c -2.674,0 -4.578,2.002 -4.578,4.83 0,1.316 0.448,2.604 1.204,3.402 0.812,0.882 2.058,1.428 3.29,1.428 2.758,0 4.662,-1.946 4.662,-4.774 0,-1.386 -0.406,-2.59 -1.176,-3.416 -0.882,-0.966 -2.058,-1.47 -3.402,-1.47 z m 0,0.504 c 0.644,0 1.288,0.252 1.792,0.7 0.756,0.686 1.19,2.002 1.19,3.668 0,0.826 -0.168,1.792 -0.462,2.52 -0.126,0.35 -0.364,0.7 -0.686,1.022 -0.49,0.49 -1.12,0.742 -1.862,0.742 -0.644,0 -1.274,-0.252 -1.778,-0.686 -0.714,-0.644 -1.176,-2.058 -1.176,-3.612 0,-1.428 0.392,-2.786 0.98,-3.444 0.546,-0.602 1.232,-0.91 2.002,-0.91 z m 14.28,8.694 c -0.532,-0.042 -0.812,-0.182 -1.218,-0.658 l -2.884,-3.542 c 1.778,-0.35 2.534,-1.05 2.534,-2.338 0,-0.602 -0.182,-1.12 -0.546,-1.526 -0.532,-0.574 -1.708,-0.938 -3.01,-0.938 h -3.864 v 0.266 c 1.036,0.112 1.176,0.238 1.19,1.26 v 6.062 c -0.014,1.19 -0.14,1.33 -1.19,1.414 v 0.266 h 3.878 v -0.266 c -1.078,-0.07 -1.246,-0.238 -1.26,-1.26 v -2.758 l 0.784,-0.028 3.332,4.312 h 2.254 z m -6.37,-7.98 c 0,-0.392 0.154,-0.504 0.714,-0.504 1.75,0 2.562,0.602 2.562,1.918 0,0.7 -0.294,1.288 -0.798,1.554 -0.644,0.364 -1.134,0.448 -2.478,0.476 z"
     id="text19"
     style="font-size:14px;font-family:Times, serif"
     aria-label="OR" />
  <path
     id="polygon20"
     style="fill:none;stroke:#000000"
     d="m 488.39344,91.226103 v -59 h 36.75 v 59 z" />
  <path
     id="polygon21"
     style="fill:none;stroke:#000000"
     d="m 494.39344,85.226103 v -47 h 24.75 v 47 z" />
  <path
     d="m 505.42944,64.312107 c -0.42,1.498 -0.896,1.876 -2.408,1.932 h -3.598 l 6.048,-8.526 v -0.21 h -7.364 l -0.28,2.394 h 0.364 c 0.238,-1.414 0.742,-1.82 2.352,-1.862 h 3.094 l -6.118,8.526 v 0.21 h 7.896 l 0.336,-2.464 z m 2.618,-3.962 c -0.42,0 -0.77,0.35 -0.77,0.798 0,0.406 0.35,0.756 0.756,0.756 0.434,0 0.798,-0.336 0.798,-0.756 0,-0.434 -0.364,-0.798 -0.784,-0.798 z m 0,5.026 c -0.42,0 -0.77,0.35 -0.77,0.798 0,0.406 0.35,0.756 0.756,0.756 0.434,0 0.798,-0.336 0.798,-0.756 0,-0.434 -0.364,-0.798 -0.784,-0.798 z m 3.64,1.4 h 3.864 v -0.21 c -1.078,0 -1.316,-0.154 -1.33,-0.826 v -8.4 l -0.112,-0.028 -2.52,1.274 v 0.196 c 0.546,-0.21 0.882,-0.308 1.008,-0.308 0.294,0 0.42,0.21 0.42,0.658 v 6.342 c -0.028,0.882 -0.266,1.078 -1.33,1.092 z"
     id="text21"
     style="font-size:14px;font-family:Times, serif"
     aria-label="Z:1" />
  <path
     id="polygon22"
     style="fill:none;stroke:#000000"
     d="m 491.39344,88.226103 v -53 h 30.75 v 53 z" />
  <path
     id="polygon23"
     style="fill:none;stroke:#000000"
     d="m 418.39344,94.226103 v -65 h 109.75 v 65 z" />
  <path
     fill="none"
     stroke="#000000"
     d="m 149.64344,47.726103 c 17.17,0 19.21,10.41 36,14 104.77,22.42 133.61,12.25 240.75,12.25"
     id="path23" />
  <path
     id="ellipse24"
     style="stroke:#000000"
     d="m 262.02344,126.7261 a 9,9 0 0 1 -9,9 9,9 0 0 1 -9,-9 9,9 0 0 1 9,-9 9,9 0 0 1 9,9 z" />
  <path
     d="m 251.17544,131.7761 h 3.864 v -0.21 c -1.078,0 -1.316,-0.154 -1.33,-0.826 v -8.4 l -0.112,-0.028 -2.52,1.274 v 0.196 c 0.546,-0.21 0.882,-0.308 1.008,-0.308 0.294,0 0.42,0.21 0.42,0.658 v 6.342 c -0.028,0.882 -0.266,1.078 -1.33,1.092 z"
     id="text24"
     style="font-size:14px;font-family:Times, serif;text-anchor:middle;fill:#ffffff"
     aria-label="1" />
  <path
     id="polygon26"
     style="fill:#00ffff"
     d="M 849.89344,141.2261 V 76.226103 h 120.25 V 141.2261 Z" />
  <path
     id="polygon27"
     style="fill:none;stroke:#000000"
     d="M 852.89344,138.2261 V 79.226103 h 38.25 V 138.2261 Z" />
  <path
     id="polygon28"
     style="fill:none;stroke:#000000"
     d="M 858.89344,107.7261 V 85.226103 h 26.25 V 107.7261 Z" />
  <path
     d="m 871.77744,101.2601 c -0.63,-0.042 -0.77,-0.182 -1.26,-1.218 l -3.486,-7.951993 h -0.28 l -2.912,6.873996 c -0.896,2.043997 -1.064,2.267997 -1.736,2.295997 v 0.266 h 2.772 v -0.266 c -0.672,0 -0.952,-0.168 -0.952,-0.574 0,-0.168 0.042,-0.364 0.112,-0.546 l 0.644,-1.637997 h 3.668 l 0.574,1.344 c 0.168,0.377997 0.266,0.741997 0.266,0.937997 0,0.35 -0.238,0.462 -0.98,0.476 v 0.266 h 3.57 z m -6.86,-3.331997 1.61,-3.849996 1.624,3.849996 z m 8.988,-2.827996 c -0.42,0 -0.77,0.35 -0.77,0.798 0,0.406 0.35,0.755996 0.756,0.755996 0.434,0 0.798,-0.335996 0.798,-0.755996 0,-0.434 -0.364,-0.798 -0.784,-0.798 z m 0,5.025993 c -0.42,0 -0.77,0.35 -0.77,0.798 0,0.406 0.35,0.756 0.756,0.756 0.434,0 0.798,-0.336 0.798,-0.756 0,-0.434 -0.364,-0.798 -0.784,-0.798 z m 3.64,1.4 h 3.864 v -0.21 c -1.078,0 -1.316,-0.154 -1.33,-0.826 v -8.399993 l -0.112,-0.028 -2.52,1.274 v 0.196 c 0.546,-0.21 0.882,-0.308 1.008,-0.308 0.294,0 0.42,0.21 0.42,0.658 v 6.341993 c -0.028,0.882 -0.266,1.078 -1.33,1.092 z"
     id="text28"
     style="font-size:14px;font-family:Times, serif"
     aria-label="A:1" />
  <path
     id="polygon29"
     style="fill:none;stroke:#000000"
     d="m 858.89344,132.2261 v -22.5 h 26.25 v 22.5 z" />
  <path
     d="m 862.50144,117.0241 c 1.176,0.07 1.33,0.21 1.344,1.26 v 6.216 c -0.014,1.05 -0.196,1.218 -1.344,1.26 v 0.266 h 4.676 c 1.078,0 2.086,-0.294 2.604,-0.77 0.504,-0.448 0.784,-1.078 0.784,-1.75 0,-0.616 -0.238,-1.176 -0.686,-1.582 -0.42,-0.378 -0.798,-0.546 -1.708,-0.77 0.728,-0.182 1.022,-0.322 1.358,-0.616 0.35,-0.308 0.56,-0.812 0.56,-1.4 0,-1.568 -1.26,-2.38 -3.668,-2.38 h -3.92 z m 2.772,4.438 c 1.358,0 2.002,0.084 2.506,0.294 0.798,0.322 1.176,0.896 1.176,1.764 0,0.756 -0.294,1.302 -0.854,1.624 -0.448,0.252 -1.022,0.364 -1.946,0.364 -0.686,0 -0.882,-0.126 -0.882,-0.574 z m 0,-0.546 v -3.22 c 0.014,-0.308 0.07,-0.392 0.308,-0.406 l 0.616,-0.014 c 1.554,-0.042 2.464,0.672 2.464,1.918 0,1.106 -0.714,1.694 -2.058,1.708 z m 8.23199,-1.316 c -0.42,0 -0.77,0.35 -0.77,0.798 0,0.406 0.35,0.756 0.756,0.756 0.434,0 0.798,-0.336 0.798,-0.756 0,-0.434 -0.364,-0.798 -0.784,-0.798 z m 0,5.026 c -0.42,0 -0.77,0.35 -0.77,0.798 0,0.406 0.35,0.756 0.756,0.756 0.434,0 0.798,-0.336 0.798,-0.756 0,-0.434 -0.364,-0.798 -0.784,-0.798 z m 3.64,1.4 h 3.864 v -0.21 c -1.078,0 -1.316,-0.154 -1.33,-0.826 v -8.4 l -0.112,-0.028 -2.52,1.274 v 0.196 c 0.546,-0.21 0.882,-0.308 1.008,-0.308 0.294,0 0.42,0.21 0.42,0.658 v 6.342 c -0.028,0.882 -0.266,1.078 -1.33,1.092 z"
     id="text29"
     style="font-size:14px;font-family:Times, serif"
     aria-label="B:1" />
  <path
     id="polygon30"
     style="fill:none;stroke:#000000"
     d="M 855.89344,135.2261 V 82.226103 h 32.25 V 135.2261 Z" />
  <path
     id="polygon31"
     style="fill:none;stroke:#000000"
     d="M 893.14344,138.2261 V 79.226103 h 35.25 V 138.2261 Z" />
  <path
     d="m 906.02744,113.5101 c -0.63,-0.042 -0.77,-0.182 -1.26,-1.218 l -3.486,-7.952 h -0.28 l -2.912,6.874 c -0.896,2.044 -1.064,2.268 -1.736,2.296 v 0.266 h 2.772 v -0.266 c -0.672,0 -0.952,-0.168 -0.952,-0.574 0,-0.168 0.042,-0.364 0.112,-0.546 l 0.644,-1.638 h 3.668 l 0.574,1.344 c 0.168,0.378 0.266,0.742 0.266,0.938 0,0.35 -0.238,0.462 -0.98,0.476 v 0.266 h 3.57 z m -6.86,-3.332 1.61,-3.85 1.624,3.85 z m 16.982,-5.67 h -3.29 v 0.266 c 1.12,0.07 1.302,0.308 1.344,1.792 v 4.718 l -5.39,-6.776 h -2.394 v 0.266 c 0.602,0 0.798,0.112 1.358,0.77 v 6.174 c -0.028,1.484 -0.21,1.722 -1.358,1.792 v 0.266 h 3.29 v -0.266 c -1.078,-0.056 -1.288,-0.35 -1.316,-1.792 v -5.488 l 6.188,7.7 h 0.238 v -7.364 c 0.042,-1.456 0.224,-1.694 1.33,-1.792 z m 0.434,9.268 h 3.976 c 1.624,0 3.094,-0.462 3.962,-1.246 0.91,-0.826 1.428,-2.072 1.428,-3.43 0,-1.26 -0.406,-2.352 -1.19,-3.122 -0.952,-0.966 -2.478,-1.47 -4.396,-1.47 h -3.78 v 0.266 c 1.106,0.098 1.218,0.21 1.232,1.26 v 6.216 c -0.014,1.022 -0.182,1.19 -1.232,1.26 z m 2.66,-8.204 c 0,-0.434 0.14,-0.546 0.728,-0.546 1.218,0 2.114,0.224 2.786,0.7 1.092,0.756 1.666,1.96 1.666,3.472 0,1.652 -0.574,2.828 -1.708,3.486 -0.714,0.406 -1.526,0.574 -2.744,0.574 -0.56,0 -0.728,-0.126 -0.728,-0.574 z"
     id="text31"
     style="font-size:14px;font-family:Times, serif"
     aria-label="AND" />
  <path
     id="polygon32"
     style="fill:none;stroke:#000000"
     d="M 930.39344,138.2261 V 79.226103 h 36.75 V 138.2261 Z" />
  <path
     id="polygon33"
     style="fill:none;stroke:#000000"
     d="M 936.39344,132.2261 V 85.226103 h 24.75 V 132.2261 Z" />
  <path
     d="m 947.42944,111.3121 c -0.42,1.498 -0.896,1.876 -2.408,1.932 h -3.598 l 6.048,-8.526 v -0.21 h -7.364 l -0.28,2.394 h 0.364 c 0.238,-1.414 0.742,-1.82 2.352,-1.862 h 3.094 l -6.118,8.526 v 0.21 h 7.896 l 0.336,-2.464 z m 2.618,-3.962 c -0.42,0 -0.77,0.35 -0.77,0.798 0,0.406 0.35,0.756 0.756,0.756 0.434,0 0.798,-0.336 0.798,-0.756 0,-0.434 -0.364,-0.798 -0.784,-0.798 z m 0,5.026 c -0.42,0 -0.77,0.35 -0.77,0.798 0,0.406 0.35,0.756 0.756,0.756 0.434,0 0.798,-0.336 0.798,-0.756 0,-0.434 -0.364,-0.798 -0.784,-0.798 z m 3.64,1.4 h 3.864 v -0.21 c -1.078,0 -1.316,-0.154 -1.33,-0.826 v -8.4 l -0.112,-0.028 -2.52,1.274 v 0.196 c 0.546,-0.21 0.882,-0.308 1.008,-0.308 0.294,0 0.42,0.21 0.42,0.658 v 6.342 c -0.028,0.882 -0.266,1.078 -1.33,1.092 z"
     id="text33"
     style="font-size:14px;font-family:Times, serif"
     aria-label="Z:1" />
  <path
     id="polygon34"
     style="fill:none;stroke:#000000"
     d="M 933.39344,135.2261 V 82.226103 h 30.75 V 135.2261 Z" />
  <path
     id="polygon35"
     style="fill:none;stroke:#000000"
     d="M 849.89344,141.2261 V 76.226103 h 120.25 V 141.2261 Z" />
  <path
     fill="none"
     stroke="#000000"
     d="m 263.47344,126.7261 c 92.8,0 116,0 208.79,0 0,0 0,0 217.76,0 74.65,0 93.22,-5.75 167.87,-5.75"
     id="path35" />
  <path
     id="ellipse36"
     style="stroke:#000000"
     d="m 1032.1434,108.7261 a 9,9 0 0 1 -9,9 9,9 0 0 1 -9,-9 9,9 0 0 1 9,-8.999997 9,9 0 0 1 9,8.999997 z" />
  <path
     d="m 1021.2954,113.7761 h 3.864 v -0.21 c -1.078,0 -1.316,-0.154 -1.33,-0.826 v -8.4 l -0.112,-0.028 -2.52,1.274 v 0.196 c 0.546,-0.21 0.882,-0.308 1.008,-0.308 0.294,0 0.42,0.21 0.42,0.658 v 6.342 c -0.028,0.882 -0.266,1.078 -1.33,1.092 z"
     id="text36"
     style="font-size:14px;font-family:Times, serif;text-anchor:middle;fill:#ffffff"
     aria-label="1" />
  <path
     id="polygon38"
     style="fill:#ffff00"
     d="M 1076.1434,112.9761 V 72.476103 h 108.25 V 112.9761 Z" />
  <path
     id="polygon39"
     style="fill:none;stroke:#000000"
     d="M 1079.1434,109.9761 V 75.476103 h 24.75 V 109.9761 Z" />
  <path
     id="polygon40"
     style="fill:none;stroke:#000000"
     d="M 1085.1434,103.9761 V 81.476103 h 12.75 V 103.9761 Z" />
  <path
     d="m 1089.7954,97.776103 h 3.864 v -0.21 c -1.078,0 -1.316,-0.154 -1.33,-0.826 v -8.399996 l -0.112,-0.028 -2.52,1.274 v 0.196 c 0.546,-0.21 0.882,-0.308 1.008,-0.308 0.294,0 0.42,0.21 0.42,0.658 v 6.341996 c -0.028,0.882 -0.266,1.078 -1.33,1.092 z"
     id="text40"
     style="font-size:14px;font-family:Times, serif"
     aria-label="1" />
  <path
     id="polygon41"
     style="fill:none;stroke:#000000"
     d="M 1082.1434,106.9761 V 78.476103 h 18.75 V 106.9761 Z" />
  <path
     id="polygon42"
     style="fill:none;stroke:#000000"
     d="M 1105.8934,109.9761 V 75.476103 h 48.75 V 109.9761 Z" />
  <path
     d="m 1115.7674,96.964103 c -0.182,0.014 -0.266,0.014 -0.322,0.014 -0.49,0 -0.616,-0.154 -0.616,-0.797996 v -7.938 l -0.07,-0.028 c -0.658,0.224 -1.134,0.378 -2.058,0.616 v 0.224 c 0.112,-0.014 0.182,-0.014 0.308,-0.014 0.518,0 0.644,0.14 0.644,0.714 v 2.184 c -0.532,-0.448 -0.91,-0.602 -1.47,-0.602 -1.61,0 -2.912,1.582 -2.912,3.57 0,1.791996 1.036,3.009996 2.59,3.009996 0.784,0 1.316,-0.28 1.792,-0.938 v 0.896 l 0.056,0.042 2.058,-0.728 z m -2.114,-0.615996 c 0,0.098 -0.098,0.265996 -0.238,0.419996 -0.238,0.28 -0.602,0.42 -1.008,0.42 -1.176,0 -1.932,-1.119996 -1.932,-2.855996 0,-1.568 0.686,-2.604 1.75,-2.604 0.756,0 1.428,0.658 1.428,1.4 z m 7.952,-0.868 c -0.672,1.063996 -1.274,1.469996 -2.17,1.469996 -0.798,0 -1.4,-0.406 -1.806,-1.203996 -0.252,-0.532 -0.35,-0.98 -0.378,-1.848 h 4.312 c -0.112,-0.91 -0.252,-1.316 -0.602,-1.764 -0.42,-0.504 -1.064,-0.798 -1.792,-0.798 -0.7,0 -1.358,0.252 -1.89,0.728 -0.658,0.574 -1.036,1.568 -1.036,2.716 0,1.931996 1.008,3.135996 2.618,3.135996 1.33,0 2.38,-0.826 2.968,-2.337996 z m -4.326,-2.03 c 0.154,-1.092 0.63,-1.61 1.484,-1.61 0.854,0 1.19,0.392 1.372,1.61 z m 4.816,4.325996 h 3.304 v -0.21 c -0.882,-0.042 -1.036,-0.182 -1.05,-0.966 v -8.357996 l -0.056,-0.028 c -0.714,0.224 -1.232,0.378 -2.226,0.616 v 0.224 h 0.084 c 0.154,-0.014 0.322,-0.028 0.434,-0.028 0.448,0 0.588,0.196 0.588,0.854 v 6.677996 c -0.014,0.756 -0.21,0.952 -1.078,1.008 z m 9.786,-0.924 c -0.238,0.196 -0.406,0.266 -0.616,0.266 -0.322,0 -0.42,-0.196 -0.42,-0.811996 v -2.73 c 0,-0.728 -0.07,-1.134 -0.28,-1.47 -0.308,-0.504 -0.91,-0.77 -1.736,-0.77 -1.316,0 -2.352,0.686 -2.352,1.568 0,0.322 0.266,0.602 0.602,0.602 0.336,0 0.63,-0.28 0.63,-0.588 0,-0.056 -0.014,-0.126 -0.028,-0.224 -0.028,-0.126 -0.042,-0.238 -0.042,-0.336 0,-0.378 0.448,-0.686 1.008,-0.686 0.686,0 1.064,0.406 1.064,1.162 v 0.854 c -2.142,0.854 -2.394,0.98 -2.996,1.512 -0.308,0.28 -0.504,0.756 -0.504,1.217996 0,0.882 0.616,1.498 1.47,1.498 0.616,0 1.19,-0.294 2.044,-1.022 0.07,0.742 0.322,1.022 0.896,1.022 0.476,0 0.77,-0.168 1.26,-0.7 z m -2.17,-0.797996 c 0,0.419996 -0.07,0.573996 -0.364,0.741996 -0.35,0.196 -0.728,0.308 -1.022,0.308 -0.49,0 -0.882,-0.476 -0.882,-1.077996 v -0.056 c 0.014,-0.84 0.63,-1.372 2.268,-1.946 z m 8.302,-4.578 h -1.89 v 0.21 c 0.448,0 0.672,0.126 0.672,0.35 0,0.056 -0.014,0.14 -0.056,0.238 l -1.358,3.864 -1.61,-3.542 c -0.084,-0.196 -0.14,-0.392 -0.14,-0.532 0,-0.252 0.21,-0.35 0.812,-0.378 v -0.21 h -2.884 v 0.196 c 0.364,0.056 0.602,0.21 0.714,0.448 l 1.596,3.444 c 0.168,0.378 0.182,0.392 0.252,0.532 0.392,0.699996 0.616,1.217996 0.616,1.427996 0,0.224 -0.322,1.078 -0.56,1.512 -0.21,0.35 -0.504,0.616 -0.7,0.616 -0.084,0 -0.21,-0.028 -0.364,-0.098 -0.252,-0.098 -0.504,-0.154 -0.728,-0.154 -0.336,0 -0.602,0.266 -0.602,0.615997 0,0.462 0.434,0.812 1.036,0.812 0.952,0 1.596,-0.77 2.366,-2.799997 l 2.156,-5.711996 c 0.182,-0.448 0.336,-0.588 0.672,-0.63 z m 7.336,8.147996 v -0.7 h -6.958 v 0.7 z m 1.666,-1.848 h 3.864 v -0.21 c -1.078,0 -1.316,-0.154 -1.33,-0.826 v -8.399996 l -0.112,-0.028 -2.52,1.274 v 0.196 c 0.546,-0.21 0.882,-0.308 1.008,-0.308 0.294,0 0.42,0.21 0.42,0.658 v 6.341996 c -0.028,0.882 -0.266,1.078 -1.33,1.092 z"
     id="text42"
     style="font-size:14px;font-family:Times, serif"
     aria-label="delay_1" />
  <path
     id="polygon43"
     style="fill:none;stroke:#000000"
     d="M 1156.6434,109.9761 V 75.476103 h 24.75 V 109.9761 Z" />
  <path
     id="polygon44"
     style="fill:none;stroke:#000000"
     d="M 1162.6434,103.9761 V 81.476103 h 12.75 V 103.9761 Z" />
  <path
     d="m 1167.2954,97.776103 h 3.864 v -0.21 c -1.078,0 -1.316,-0.154 -1.33,-0.826 v -8.399996 l -0.112,-0.028 -2.52,1.274 v 0.196 c 0.546,-0.21 0.882,-0.308 1.008,-0.308 0.294,0 0.42,0.21 0.42,0.658 v 6.341996 c -0.028,0.882 -0.266,1.078 -1.33,1.092 z"
     id="text44"
     style="font-size:14px;font-family:Times, serif"
     aria-label="1" />
  <path
     id="polygon45"
     style="fill:none;stroke:#000000"
     d="M 1159.6434,106.9761 V 78.476103 h 18.75 V 106.9761 Z" />
  <path
     id="polygon46"
     style="fill:none;stroke:#000000"
     d="M 1076.1434,112.9761 V 72.476103 h 108.25 V 112.9761 Z" />
  <path
     fill="none"
     stroke="#000000"
     d="m 1032.1434,108.7261 c 24.18,0 27.82,-15.999997 52,-15.999997"
     id="path46" />
  <path
     id="polygon48"
     style="fill:#808080"
     d="m 1236.3934,164.9761 v -40.5 h 42.75 v 40.5 z" />
  <path
     id="polygon49"
     style="fill:none;stroke:#000000"
     d="m 1239.3934,161.9761 v -34.5 h 36.75 v 34.5 z" />
  <path
     id="polygon50"
     style="fill:none;stroke:#000000"
     d="m 1245.3934,155.9761 v -22.5 h 24.75 v 22.5 z" />
  <path
     d="m 1256.4294,147.3121 c -0.42,1.498 -0.896,1.876 -2.408,1.932 h -3.598 l 6.048,-8.526 v -0.21 h -7.364 l -0.28,2.394 h 0.364 c 0.238,-1.414 0.742,-1.82 2.352,-1.862 h 3.094 l -6.118,8.526 v 0.21 h 7.896 l 0.336,-2.464 z m 2.618,-3.962 c -0.42,0 -0.77,0.35 -0.77,0.798 0,0.406 0.35,0.756 0.756,0.756 0.434,0 0.798,-0.336 0.798,-0.756 0,-0.434 -0.364,-0.798 -0.784,-0.798 z m 0,5.026 c -0.42,0 -0.77,0.35 -0.77,0.798 0,0.406 0.35,0.756 0.756,0.756 0.434,0 0.798,-0.336 0.798,-0.756 0,-0.434 -0.364,-0.798 -0.784,-0.798 z m 3.64,1.4 h 3.864 v -0.21 c -1.078,0 -1.316,-0.154 -1.33,-0.826 v -8.4 l -0.112,-0.028 -2.52,1.274 v 0.196 c 0.546,-0.21 0.882,-0.308 1.008,-0.308 0.294,0 0.42,0.21 0.42,0.658 v 6.342 c -0.028,0.882 -0.266,1.078 -1.33,1.092 z"
     id="text50"
     style="font-size:14px;font-family:Times, serif"
     aria-label="Z:1" />
  <path
     id="polygon51"
     style="fill:none;stroke:#000000"
     d="m 1242.3934,158.9761 v -28.5 h 30.75 v 28.5 z" />
  <path
     id="polygon52"
     style="fill:none;stroke:#000000"
     d="m 1236.3934,164.9761 v -40.5 h 42.75 v 40.5 z" />
  <path
     fill="none"
     stroke="#000000"
     d="m 1032.1434,108.7261 c 17.69,0 18.97,12.21 36,17 75.84,21.34 97.46,19 176.25,19"
     id="path52" />
  <path
     id="ellipse53"
     style="stroke:#000000"
     d="m 374.39344,42.726104 a 9,9 0 0 1 -9,9 9,9 0 0 1 -9,-9 9,9 0 0 1 9,-9 9,9 0 0 1 9,9 z" />
  <path
     d="m 363.54544,47.776107 h 3.864 v -0.21 c -1.078,0 -1.316,-0.154 -1.33,-0.826 v -8.4 l -0.112,-0.028 -2.52,1.274 v 0.196 c 0.546,-0.21 0.882,-0.308 1.008,-0.308 0.294,0 0.42,0.21 0.42,0.658 v 6.342 c -0.028,0.882 -0.266,1.078 -1.33,1.092 z"
     id="text53"
     style="font-size:14px;font-family:Times, serif;text-anchor:middle;fill:#ffffff"
     aria-label="1" />
  <path
     fill="none"
     stroke="#000000"
     d="m 374.39344,42.726103 c 23.31,0 28.69,6.75 52,6.75"
     id="path54" />
  <path
     id="ellipse55"
     style="stroke:#000000"
     d="m 590.14344,63.726104 a 9,9 0 0 1 -9,9 9,9 0 0 1 -9,-9 9,9 0 0 1 9,-9 9,9 0 0 1 9,9 z" />
  <path
     d="m 579.29544,68.776107 h 3.864 v -0.21 c -1.078,0 -1.316,-0.154 -1.33,-0.826 v -8.4 l -0.112,-0.028 -2.52,1.274 v 0.196 c 0.546,-0.21 0.882,-0.308 1.008,-0.308 0.294,0 0.42,0.21 0.42,0.658 v 6.342 c -0.028,0.882 -0.266,1.078 -1.33,1.092 z"
     id="text55"
     style="font-size:14px;font-family:Times, serif;text-anchor:middle;fill:#ffffff"
     aria-label="1" />
  <path
     id="polygon57"
     style="fill:#00ffff"
     d="m 634.14344,85.226103 v -65 h 109.75 v 65 z" />
  <path
     id="polygon58"
     style="fill:none;stroke:#000000"
     d="m 637.14344,82.226103 v -59 h 38.25 v 59 z" />
  <path
     id="polygon59"
     style="fill:none;stroke:#000000"
     d="m 643.14344,51.726103 v -22.5 h 26.25 v 22.5 z" />
  <path
     d="m 656.02744,45.260107 c -0.63,-0.042 -0.77,-0.182 -1.26,-1.218 l -3.486,-7.952 h -0.28 l -2.912,6.874 c -0.896,2.044 -1.064,2.268 -1.736,2.296 v 0.266 h 2.772 v -0.266 c -0.672,0 -0.952,-0.168 -0.952,-0.574 0,-0.168 0.042,-0.364 0.112,-0.546 l 0.644,-1.638 h 3.668 l 0.574,1.344 c 0.168,0.378 0.266,0.742 0.266,0.938 0,0.35 -0.238,0.462 -0.98,0.476 v 0.266 h 3.57 z m -6.86,-3.332 1.61,-3.85 1.624,3.85 z m 8.988,-2.828 c -0.42,0 -0.77,0.35 -0.77,0.798 0,0.406 0.35,0.756 0.756,0.756 0.434,0 0.798,-0.336 0.798,-0.756 0,-0.434 -0.364,-0.798 -0.784,-0.798 z m 0,5.026 c -0.42,0 -0.77,0.35 -0.77,0.798 0,0.406 0.35,0.756 0.756,0.756 0.434,0 0.798,-0.336 0.798,-0.756 0,-0.434 -0.364,-0.798 -0.784,-0.798 z m 3.64,1.4 h 3.864 v -0.21 c -1.078,0 -1.316,-0.154 -1.33,-0.826 v -8.4 l -0.112,-0.028 -2.52,1.274 v 0.196 c 0.546,-0.21 0.882,-0.308 1.008,-0.308 0.294,0 0.42,0.21 0.42,0.658 v 6.342 c -0.028,0.882 -0.266,1.078 -1.33,1.092 z"
     id="text59"
     style="font-size:14px;font-family:Times, serif"
     aria-label="A:1" />
  <path
     id="polygon60"
     style="fill:none;stroke:#000000"
     d="m 643.14344,76.226103 v -22.5 h 26.25 v 22.5 z" />
  <path
     d="m 646.76144,61.024107 c 1.176,0.07 1.33,0.21 1.344,1.26 v 6.216 c -0.014,1.05 -0.196,1.218 -1.344,1.26 v 0.266 h 4.676 c 1.078,0 2.086,-0.294 2.604,-0.77 0.504,-0.448 0.784,-1.078 0.784,-1.75 0,-0.616 -0.238,-1.176 -0.686,-1.582 -0.42,-0.378 -0.798,-0.546 -1.708,-0.77 0.728,-0.182 1.022,-0.322 1.358,-0.616 0.35,-0.308 0.56,-0.812 0.56,-1.4 0,-1.568 -1.26,-2.38 -3.668,-2.38 h -3.92 z m 2.772,4.438 c 1.358,0 2.002,0.084 2.506,0.294 0.798,0.322 1.176,0.896 1.176,1.764 0,0.756 -0.294,1.302 -0.854,1.624 -0.448,0.252 -1.022,0.364 -1.946,0.364 -0.686,0 -0.882,-0.126 -0.882,-0.574 z m 0,-0.546 v -3.22 c 0.014,-0.308 0.07,-0.392 0.308,-0.406 l 0.616,-0.014 c 1.554,-0.042 2.464,0.672 2.464,1.918 0,1.106 -0.714,1.694 -2.058,1.708 z m 8.232,-1.316 c -0.42,0 -0.77,0.35 -0.77,0.798 0,0.406 0.35,0.756 0.756,0.756 0.434,0 0.798,-0.336 0.798,-0.756 0,-0.434 -0.364,-0.798 -0.784,-0.798 z m 0,5.026 c -0.42,0 -0.77,0.35 -0.77,0.798 0,0.406 0.35,0.756 0.756,0.756 0.434,0 0.798,-0.336 0.798,-0.756 0,-0.434 -0.364,-0.798 -0.784,-0.798 z m 3.64,1.4 h 3.864 v -0.21 c -1.078,0 -1.316,-0.154 -1.33,-0.826 v -8.4 l -0.112,-0.028 -2.52,1.274 v 0.196 c 0.546,-0.21 0.882,-0.308 1.008,-0.308 0.294,0 0.42,0.21 0.42,0.658 v 6.342 c -0.028,0.882 -0.266,1.078 -1.33,1.092 z"
     id="text60"
     style="font-size:14px;font-family:Times, serif"
     aria-label="B:1" />
  <path
     id="polygon61"
     style="fill:none;stroke:#000000"
     d="m 640.14344,79.226103 v -53 h 32.25 v 53 z" />
  <path
     id="polygon62"
     style="fill:none;stroke:#000000"
     d="m 677.39344,82.226103 v -59 h 24.75 v 59 z" />
  <path
     d="m 685.44744,48.312107 c -2.674,0 -4.578,2.002 -4.578,4.83 0,1.316 0.448,2.604 1.204,3.402 0.812,0.882 2.058,1.428 3.29,1.428 2.758,0 4.662,-1.946 4.662,-4.774 0,-1.386 -0.406,-2.59 -1.176,-3.416 -0.882,-0.966 -2.058,-1.47 -3.402,-1.47 z m 0,0.504 c 0.644,0 1.288,0.252 1.792,0.7 0.756,0.686 1.19,2.002 1.19,3.668 0,0.826 -0.168,1.792 -0.462,2.52 -0.126,0.35 -0.364,0.7 -0.686,1.022 -0.49,0.49 -1.12,0.742 -1.862,0.742 -0.644,0 -1.274,-0.252 -1.778,-0.686 -0.714,-0.644 -1.176,-2.058 -1.176,-3.612 0,-1.428 0.392,-2.786 0.98,-3.444 0.546,-0.602 1.232,-0.91 2.002,-0.91 z m 14.28,8.694 c -0.532,-0.042 -0.812,-0.182 -1.218,-0.658 l -2.884,-3.542 c 1.778,-0.35 2.534,-1.05 2.534,-2.338 0,-0.602 -0.182,-1.12 -0.546,-1.526 -0.532,-0.574 -1.708,-0.938 -3.01,-0.938 h -3.864 v 0.266 c 1.036,0.112 1.176,0.238 1.19,1.26 v 6.062 c -0.014,1.19 -0.14,1.33 -1.19,1.414 v 0.266 h 3.878 v -0.266 c -1.078,-0.07 -1.246,-0.238 -1.26,-1.26 v -2.758 l 0.784,-0.028 3.332,4.312 h 2.254 z m -6.37,-7.98 c 0,-0.392 0.154,-0.504 0.714,-0.504 1.75,0 2.562,0.602 2.562,1.918 0,0.7 -0.294,1.288 -0.798,1.554 -0.644,0.364 -1.134,0.448 -2.478,0.476 z"
     id="text62"
     style="font-size:14px;font-family:Times, serif"
     aria-label="OR" />
  <path
     id="polygon63"
     style="fill:none;stroke:#000000"
     d="m 704.14344,82.226103 v -59 h 36.75 v 59 z" />
  <path
     id="polygon64"
     style="fill:none;stroke:#000000"
     d="m 710.14344,76.226103 v -47 h 24.75 v 47 z" />
  <path
     d="m 721.17944,55.312107 c -0.42,1.498 -0.896,1.876 -2.408,1.932 h -3.598 l 6.048,-8.526 v -0.21 h -7.364 l -0.28,2.394 h 0.364 c 0.238,-1.414 0.742,-1.82 2.352,-1.862 h 3.094 l -6.118,8.526 v 0.21 h 7.896 l 0.336,-2.464 z m 2.618,-3.962 c -0.42,0 -0.77,0.35 -0.77,0.798 0,0.406 0.35,0.756 0.756,0.756 0.434,0 0.798,-0.336 0.798,-0.756 0,-0.434 -0.364,-0.798 -0.784,-0.798 z m 0,5.026 c -0.42,0 -0.77,0.35 -0.77,0.798 0,0.406 0.35,0.756 0.756,0.756 0.434,0 0.798,-0.336 0.798,-0.756 0,-0.434 -0.364,-0.798 -0.784,-0.798 z m 3.64,1.4 h 3.864 v -0.21 c -1.078,0 -1.316,-0.154 -1.33,-0.826 v -8.4 l -0.112,-0.028 -2.52,1.274 v 0.196 c 0.546,-0.21 0.882,-0.308 1.008,-0.308 0.294,0 0.42,0.21 0.42,0.658 v 6.342 c -0.028,0.882 -0.266,1.078 -1.33,1.092 z"
     id="text64"
     style="font-size:14px;font-family:Times, serif"
     aria-label="Z:1" />
  <path
     id="polygon65"
     style="fill:none;stroke:#000000"
     d="m 707.14344,79.226103 v -53 h 30.75 v 53 z" />
  <path
     id="polygon66"
     style="fill:none;stroke:#000000"
     d="m 634.14344,85.226103 v -65 h 109.75 v 65 z" />
  <path
     fill="none"
     stroke="#000000"
     d="m 590.14344,63.726103 c 23.12,0 28.88,1.25 52,1.25"
     id="path66" />
  <path
     id="ellipse67"
     style="stroke:#000000"
     d="m 1266.7634,66.726104 a 9,9 0 0 1 -9,9 9,9 0 0 1 -9,-9 9,9 0 0 1 9,-9 9,9 0 0 1 9,9 z" />
  <path
     d="m 1255.9154,71.776107 h 3.864 v -0.21 c -1.078,0 -1.316,-0.154 -1.33,-0.826 v -8.4 l -0.112,-0.028 -2.52,1.274 v 0.196 c 0.546,-0.21 0.882,-0.308 1.008,-0.308 0.294,0 0.42,0.21 0.42,0.658 v 6.342 c -0.028,0.882 -0.266,1.078 -1.33,1.092 z"
     id="text67"
     style="font-size:14px;font-family:Times, serif;text-anchor:middle;fill:#ffffff"
     aria-label="1" />
  <path
     fill="none"
     stroke="#000000"
     d="m 1268.2234,66.726103 c 4.03,0 1.91,-6.21 -1,-9 -78.12,-75 -134.78,-17 -243.08,-17 -115.11996,0 -115.11996,0 -115.11996,0 -70.68,0 -86.66,-19.04 -157.13,-24.5 -48.19,-3.73 -73.88,-33.47 -108.75,0 -7.78,7.47 -11.79,24.25 -1,24.25"
     id="path68" />
  <path
     id="ellipse69"
     style="stroke:#000000"
     d="m 805.89344,83.726104 a 9,9 0 0 1 -9,9 9,9 0 0 1 -9,-9 9,9 0 0 1 9,-9 9,9 0 0 1 9,9 z" />
  <path
     d="m 795.04544,88.776107 h 3.864 v -0.21 c -1.078,0 -1.316,-0.154 -1.33,-0.826 v -8.4 l -0.112,-0.028 -2.52,1.274 v 0.196 c 0.546,-0.21 0.882,-0.308 1.008,-0.308 0.294,0 0.42,0.21 0.42,0.658 v 6.342 c -0.028,0.882 -0.266,1.078 -1.33,1.092 z"
     id="text69"
     style="font-size:14px;font-family:Times, serif;text-anchor:middle;fill:#ffffff"
     aria-label="1" />
  <path
     fill="none"
     stroke="#000000"
     d="m 805.89344,83.726103 c 23.8,0 28.2,12.75 52,12.75"
     id="path70" />
  <path
     id="polygon72"
     style="fill:#20b2aa"
     d="m 0.14344244,67.976103 v -40.5 H 87.643442 v 40.5 z" />
  <path
     id="polygon73"
     style="fill:none;stroke:#000000"
     d="m 3.1434424,64.976103 v -34.5 H 57.893442 v 34.5 z" />
  <path
     d="m 10.273442,43.312107 c -1.0359996,0.686 -1.4559996,1.036 -1.9739996,1.68 -0.994,1.218 -1.484,2.618 -1.484,4.256 0,1.792 0.518,3.15 1.75,4.578 0.574,0.672 0.938,0.98 1.6659996,1.428 l 0.168,-0.224 c -1.1199996,-0.882 -1.5119996,-1.386 -1.8899996,-2.422 -0.336,-0.938 -0.49,-1.988 -0.49,-3.402 0,-1.47 0.182,-2.632 0.56,-3.486 0.392,-0.868 0.812,-1.372 1.8199996,-2.184 z m 5.432003,11.844 c -0.952,-0.224 -1.26,-0.658 -1.274,-1.722 v -2.352 c -0.014,-1.19 -0.28,-1.54 -1.316,-1.792 1.036,-0.266 1.302,-0.63 1.316,-1.806 v -2.352 c 0.014,-1.064 0.322,-1.498 1.274,-1.722 v -0.154 c -1.736,0 -2.282,0.462 -2.31,1.946 v 2.492 c -0.014,0.98 -0.266,1.33 -1.19,1.582 0.924,0.266 1.176,0.616 1.19,1.596 v 2.478 c 0.042,1.498 0.574,1.96 2.31,1.96 z m 3.471993,-2.38 h 3.864 v -0.21 c -1.078,0 -1.316,-0.154 -1.33,-0.826 v -8.4 l -0.112,-0.028 -2.52,1.274 v 0.196 c 0.546,-0.21 0.882,-0.308 1.008,-0.308 0.294,0 0.42,0.21 0.42,0.658 v 6.342 c -0.028,0.882 -0.266,1.078 -1.33,1.092 z m 9.366,-9.464 h -0.938 l -3.206,9.66 h 0.952 z m 3.429998,0 c -0.77,0 -1.358,0.224 -1.876,0.728 -0.812,0.784 -1.344,2.394 -1.344,4.032 0,1.54 0.462,3.164 1.12,3.948 0.518,0.616 1.232,0.952 2.044,0.952 0.714,0 1.316,-0.238 1.82,-0.728 0.812,-0.77 1.344,-2.394 1.344,-4.088 0,-2.87 -1.274,-4.844 -3.108,-4.844 z m -0.042,0.364 c 1.176,0 1.806,1.582 1.806,4.508 0,2.926 -0.616,4.424 -1.82,4.424 -1.204,0 -1.82,-1.498 -1.82,-4.41 0,-2.982 0.63,-4.522 1.834,-4.522 z m 5.306,-0.266 c 0.938,0.224 1.26,0.658 1.274,1.722 v 2.352 c 0.014,1.19 0.28,1.54 1.316,1.792 -1.036,0.266 -1.302,0.63 -1.316,1.806 v 2.352 c -0.014,1.064 -0.336,1.498 -1.274,1.722 v 0.154 c 1.736,0 2.282,-0.462 2.31,-1.946 v -2.492 c 0.014,-0.98 0.266,-1.33 1.19,-1.596 -0.924,-0.252 -1.176,-0.602 -1.19,-1.582 v -2.478 c -0.042,-1.512 -0.574,-1.96 -2.31,-1.96 z m 5.431994,11.844 c 1.036,-0.686 1.456,-1.036 1.974,-1.68 0.994,-1.218 1.484,-2.618 1.484,-4.256 0,-1.792 -0.518,-3.15 -1.75,-4.578 -0.574,-0.672 -0.938,-0.98 -1.666,-1.428 l -0.168,0.224 c 1.12,0.882 1.498,1.372 1.89,2.422 0.336,0.938 0.49,1.988 0.49,3.402 0,1.47 -0.182,2.618 -0.56,3.472 -0.378,0.868 -0.812,1.386 -1.82,2.198 z m 6.664003,-8.946 c -1.148,0.84 -1.75,2.072 -1.75,3.514 0,1.75 0.868,3.052 2.044,3.052 0.756,0 1.4,-0.504 1.848,-1.47 0.448,0.98 0.994,1.47 1.666,1.47 1.176,0 2.086,-1.484 2.086,-3.402 0,-1.876 -0.686,-3.164 -1.68,-3.164 -0.35,0 -0.602,0.252 -0.602,0.602 0,0.266 0.168,0.518 0.392,0.616 0.7,0.266 0.77,0.308 0.98,0.63 0.252,0.364 0.392,0.938 0.392,1.54 0,1.288 -0.686,2.254 -1.624,2.254 -0.602,0 -1.008,-0.322 -1.358,-1.078 0.252,-0.742 0.35,-1.218 0.35,-1.806 0,-0.7 -0.196,-1.092 -0.532,-1.092 -0.392,0 -0.616,0.434 -0.616,1.19 0,0.63 0.098,1.092 0.35,1.736 -0.364,0.728 -0.784,1.064 -1.274,1.064 -0.812,0 -1.288,-0.91 -1.288,-2.478 0,-1.176 0.294,-2.156 0.882,-2.996 z"
     id="text73"
     style="font-size:14px;font-family:Times, serif"
     aria-label="({1/0})ω" />
  <path
     id="polygon74"
     style="fill:none;stroke:#000000"
     d="m 59.893442,64.976103 v -34.5 h 24.75 v 34.5 z" />
  <path
     id="polygon75"
     style="fill:none;stroke:#000000"
     d="m 65.893442,58.976103 v -22.5 h 12.75 v 22.5 z" />
  <path
     d="m 70.545442,52.776107 h 3.864 v -0.21 c -1.078,0 -1.316,-0.154 -1.33,-0.826 v -8.4 l -0.112,-0.028 -2.52,1.274 v 0.196 c 0.546,-0.21 0.882,-0.308 1.008,-0.308 0.294,0 0.42,0.21 0.42,0.658 v 6.342 c -0.028,0.882 -0.266,1.078 -1.33,1.092 z"
     id="text75"
     style="font-size:14px;font-family:Times, serif"
     aria-label="1" />
  <path
     id="polygon76"
     style="fill:none;stroke:#000000"
     d="m 62.893442,61.976103 v -28.5 h 18.75 v 28.5 z" />
  <path
     id="polygon77"
     style="fill:none;stroke:#000000"
     d="m 0.14344244,67.976103 v -40.5 H 87.643442 v 40.5 z" />
  <path
     fill="none"
     stroke="#000000"
     d="m 79.643442,47.726103 c 23.109998,0 28.889998,0 51.999998,0"
     id="path77" />
  <path
     fill="none"
     stroke="#000000"
     d="m 304.39344,28.726103 c 23.93,0 28.07,14 52,14"
     id="path78" />
  <path
     fill="none"
     stroke="#000000"
     d="m 520.14344,61.726103 c 23.13,0 28.87,2 52,2"
     id="path79" />
  <path
     fill="none"
     stroke="#000000"
     d="m 735.89344,52.726103 c 26.91,0 25.09,31 52,31"
     id="path80" />
  <path
     fill="none"
     stroke="#000000"
     d="m 962.14344,108.7261 c 23.11,0 28.89,0 51.99996,0"
     id="path81" />
  <path
     fill="none"
     stroke="#000000"
     d="m 1176.3934,92.726103 c 33.57,0 37.35,-26 70.92,-26"
     id="path82" />
  <path
     id="polygon84"
     style="fill:#808080"
     d="m 22.143442,146.9761 v -40.5 h 43.5 v 40.5 z" />
  <path
     id="polygon85"
     style="fill:none;stroke:#000000"
     d="m 25.143442,143.9761 v -34.5 h 37.5 v 34.5 z" />
  <path
     id="polygon86"
     style="fill:none;stroke:#000000"
     d="m 31.143442,137.9761 v -22.5 h 25.5 v 22.5 z" />
  <path
     d="m 34.381442,122.7741 c 1.176,0.07 1.33,0.21 1.344,1.26 v 6.216 c -0.014,1.05 -0.196,1.218 -1.344,1.26 v 0.266 h 4.676 c 1.078,0 2.086,-0.294 2.604,-0.77 0.504,-0.448 0.784,-1.078 0.784,-1.75 0,-0.616 -0.238,-1.176 -0.686,-1.582 -0.42,-0.378 -0.798,-0.546 -1.708,-0.77 0.728,-0.182 1.022,-0.322 1.358,-0.616 0.35,-0.308 0.56,-0.812 0.56,-1.4 0,-1.568 -1.26,-2.38 -3.668,-2.38 h -3.92 z m 2.772,4.438 c 1.358,0 2.002,0.084 2.506,0.294 0.798,0.322 1.176,0.896 1.176,1.764 0,0.756 -0.294,1.302 -0.854,1.624 -0.448,0.252 -1.022,0.364 -1.946,0.364 -0.686,0 -0.882,-0.126 -0.882,-0.574 z m 0,-0.546 v -3.22 c 0.014,-0.308 0.07,-0.392 0.308,-0.406 l 0.616,-0.014 c 1.554,-0.042 2.464,0.672 2.464,1.918 0,1.106 -0.714,1.694 -2.058,1.708 z m 8.231997,-1.316 c -0.42,0 -0.77,0.35 -0.77,0.798 0,0.406 0.35,0.756 0.756,0.756 0.434,0 0.798,-0.336 0.798,-0.756 0,-0.434 -0.364,-0.798 -0.784,-0.798 z m 0,5.026 c -0.42,0 -0.77,0.35 -0.77,0.798 0,0.406 0.35,0.756 0.756,0.756 0.434,0 0.798,-0.336 0.798,-0.756 0,-0.434 -0.364,-0.798 -0.784,-0.798 z m 3.639999,1.4 h 3.864 v -0.21 c -1.078,0 -1.316,-0.154 -1.33,-0.826 v -8.4 l -0.112,-0.028 -2.52,1.274 v 0.196 c 0.546,-0.21 0.882,-0.308 1.008,-0.308 0.294,0 0.42,0.21 0.42,0.658 v 6.342 c -0.028,0.882 -0.266,1.078 -1.33,1.092 z"
     id="text86"
     style="font-size:14px;font-family:Times, serif"
     aria-label="B:1" />
  <path
     id="polygon87"
     style="fill:none;stroke:#000000"
     d="m 28.143442,140.9761 v -28.5 h 31.5 v 28.5 z" />
  <path
     fill="none"
     stroke="#000000"
     d="m 57.643442,126.7261 c 82.189998,0 102.729998,0 184.919998,0"
     id="path88" />
</svg>
