<?xml version="1.0" encoding="UTF-8" standalone="no"?>
<!-- Generated by graphviz version 11.0.0 (0)
 -->

<!-- Title: circuit Pages: 1 -->

<svg
   width="1236.0735pt"
   height="165.38559pt"
   viewBox="0 0 1235.8282 165.4761"
   version="1.1"
   id="svg83"
   sodipodi:docname="circuit.svg"
   inkscape:version="1.3.2 (091e20ef0f, 2023-11-25, custom)"
   xmlns:inkscape="http://www.inkscape.org/namespaces/inkscape"
   xmlns:sodipodi="http://sodipodi.sourceforge.net/DTD/sodipodi-0.dtd"
   xmlns="http://www.w3.org/2000/svg"
   xmlns:svg="http://www.w3.org/2000/svg">
  <defs
     id="defs83" />
  <sodipodi:namedview
     id="namedview83"
     pagecolor="#ffffff"
     bordercolor="#000000"
     borderopacity="0.25"
     inkscape:showpageshadow="2"
     inkscape:pageopacity="0.0"
     inkscape:pagecheckerboard="0"
     inkscape:deskcolor="#d1d1d1"
     inkscape:document-units="pt"
     inkscape:zoom="1.1946429"
     inkscape:cx="824.09567"
     inkscape:cy="128.90882"
     inkscape:window-width="2560"
     inkscape:window-height="1380"
     inkscape:window-x="1920"
     inkscape:window-y="32"
     inkscape:window-maximized="1"
     inkscape:current-layer="graph0" />
  <g
     id="graph0"
     class="graph"
     transform="translate(-7.9697761,193.4761)">
    <title
       id="title1">circuit</title>
    <!-- v27 -->
    <path
       id="ellipse2"
       style="stroke:#000000"
       d="m 114.25,-107.75 a 9,9 0 0 1 -9,9 9,9 0 0 1 -9,-9 9,9 0 0 1 9,-9 9,9 0 0 1 9,9 z" />
    <path
       d="m 103.402,-102.7 h 3.864 v -0.21 c -1.078,0 -1.316,-0.154 -1.33,-0.826 v -8.4 l -0.112,-0.028 -2.52,1.274 v 0.196 c 0.546,-0.21 0.882,-0.308 1.008,-0.308 0.294,0 0.42,0.21 0.42,0.658 v 6.342 c -0.028,0.882 -0.266,1.078 -1.33,1.092 z"
       id="text2"
       style="font-size:14px;font-family:Times, serif;text-anchor:middle;fill:#ffffff"
       aria-label="1" />
    <!-- e34 -->
    <path
       id="polygon4"
       style="fill:#00ffff"
       d="m 277,-180 v 40.5 H 158.25 V -180 Z" />
    <path
       id="polygon5"
       style="fill:none;stroke:#000000"
       d="m 199.5,-177 v 34.5 H 161.25 V -177 Z" />
    <path
       id="polygon6"
       style="fill:none;stroke:#000000"
       d="m 193.5,-171 v 22.5 H 167.25 V -171 Z" />
    <path
       d="m 180.134,-154.966 c -0.63,-0.042 -0.77,-0.182 -1.26,-1.218 l -3.486,-7.952 h -0.28 l -2.912,6.874 c -0.896,2.044 -1.064,2.268 -1.736,2.296 v 0.266 h 2.772 v -0.266 c -0.672,0 -0.952,-0.168 -0.952,-0.574 0,-0.168 0.042,-0.364 0.112,-0.546 l 0.644,-1.638 h 3.668 l 0.574,1.344 c 0.168,0.378 0.266,0.742 0.266,0.938 0,0.35 -0.238,0.462 -0.98,0.476 v 0.266 h 3.57 z m -6.86,-3.332 1.61,-3.85 1.624,3.85 z m 8.988,-2.828 c -0.42,0 -0.77,0.35 -0.77,0.798 0,0.406 0.35,0.756 0.756,0.756 0.434,0 0.798,-0.336 0.798,-0.756 0,-0.434 -0.364,-0.798 -0.784,-0.798 z m 0,5.026 c -0.42,0 -0.77,0.35 -0.77,0.798 0,0.406 0.35,0.756 0.756,0.756 0.434,0 0.798,-0.336 0.798,-0.756 0,-0.434 -0.364,-0.798 -0.784,-0.798 z m 3.64,1.4 h 3.864 v -0.21 c -1.078,0 -1.316,-0.154 -1.33,-0.826 v -8.4 l -0.112,-0.028 -2.52,1.274 v 0.196 c 0.546,-0.21 0.882,-0.308 1.008,-0.308 0.294,0 0.42,0.21 0.42,0.658 v 6.342 c -0.028,0.882 -0.266,1.078 -1.33,1.092 z"
       id="text6"
       style="font-size:14px;font-family:Times, serif"
       aria-label="A:1" />
    <path
       id="polygon7"
       style="fill:none;stroke:#000000"
       d="m 196.5,-174 v 28.5 H 164.25 V -174 Z" />
    <path
       id="polygon8"
       style="fill:none;stroke:#000000"
       d="m 235.25,-177 v 34.5 H 201.5 V -177 Z" />
    <path
       d="m 214.398,-163.968 h -3.29 v 0.266 c 1.12,0.07 1.302,0.308 1.344,1.792 v 4.718 l -5.39,-6.776 h -2.394 v 0.266 c 0.602,0 0.798,0.112 1.358,0.77 v 6.174 c -0.028,1.484 -0.21,1.722 -1.358,1.792 v 0.266 h 3.29 v -0.266 c -1.078,-0.056 -1.288,-0.35 -1.316,-1.792 v -5.488 l 6.188,7.7 h 0.238 v -7.364 c 0.042,-1.456 0.224,-1.694 1.33,-1.792 z m 4.99801,-0.196 c -2.674,0 -4.578,2.002 -4.578,4.83 0,1.316 0.448,2.604 1.204,3.402 0.812,0.882 2.058,1.428 3.29,1.428 2.758,0 4.662,-1.946 4.662,-4.774 0,-1.386 -0.406,-2.59 -1.176,-3.416 -0.882,-0.966 -2.058,-1.47 -3.402,-1.47 z m 0,0.504 c 0.644,0 1.288,0.252 1.792,0.7 0.756,0.686 1.19,2.002 1.19,3.668 0,0.826 -0.168,1.792 -0.462,2.52 -0.126,0.35 -0.364,0.7 -0.686,1.022 -0.49,0.49 -1.12,0.742 -1.862,0.742 -0.644,0 -1.274,-0.252 -1.778,-0.686 -0.714,-0.644 -1.176,-2.058 -1.176,-3.612 0,-1.428 0.392,-2.786 0.98,-3.444 0.546,-0.602 1.232,-0.91 2.002,-0.91 z m 11.28401,8.694 c -1.148,-0.056 -1.33,-0.224 -1.344,-1.26 v -7.154 h 0.756 c 1.624,0.028 1.918,0.266 2.226,1.792 h 0.336 l -0.084,-2.38 h -7.896 l -0.084,2.38 h 0.336 c 0.322,-1.526 0.616,-1.764 2.226,-1.792 h 0.756 v 7 c -0.014,1.204 -0.14,1.344 -1.316,1.414 v 0.266 h 4.088 z"
       id="text8"
       style="font-size:14px;font-family:Times, serif"
       aria-label="NOT" />
    <path
       id="polygon9"
       style="fill:none;stroke:#000000"
       d="m 274,-177 v 34.5 H 237.25 V -177 Z" />
    <path
       id="polygon10"
       style="fill:none;stroke:#000000"
       d="m 268,-171 v 22.5 H 243.25 V -171 Z" />
    <path
       d="m 254.286,-157.164 c -0.42,1.498 -0.896,1.876 -2.408,1.932 h -3.598 l 6.048,-8.526 v -0.21 h -7.364 l -0.28,2.394 h 0.364 c 0.238,-1.414 0.742,-1.82 2.352,-1.862 h 3.094 l -6.118,8.526 v 0.21 h 7.896 l 0.336,-2.464 z m 2.618,-3.962 c -0.42,0 -0.77,0.35 -0.77,0.798 0,0.406 0.35,0.756 0.756,0.756 0.434,0 0.798,-0.336 0.798,-0.756 0,-0.434 -0.364,-0.798 -0.784,-0.798 z m 0,5.026 c -0.42,0 -0.77,0.35 -0.77,0.798 0,0.406 0.35,0.756 0.756,0.756 0.434,0 0.798,-0.336 0.798,-0.756 0,-0.434 -0.364,-0.798 -0.784,-0.798 z m 3.64,1.4 h 3.864 v -0.21 c -1.078,0 -1.316,-0.154 -1.33,-0.826 v -8.4 l -0.112,-0.028 -2.52,1.274 v 0.196 c 0.546,-0.21 0.882,-0.308 1.008,-0.308 0.294,0 0.42,0.21 0.42,0.658 v 6.342 c -0.028,0.882 -0.266,1.078 -1.33,1.092 z"
       id="text10"
       style="font-size:14px;font-family:Times, serif"
       aria-label="Z:1" />
    <path
       id="polygon11"
       style="fill:none;stroke:#000000"
       d="m 271,-174 v 28.5 H 240.25 V -174 Z" />
    <path
       id="polygon12"
       style="fill:none;stroke:#000000"
       d="m 277,-180 v 40.5 H 158.25 V -180 Z" />
    <!-- v27&#45;&#45;e34 -->
    <path
       fill="none"
       stroke="#000000"
       d="m 114.25,-107.75 c 32.68,0 19.32,-52 52,-52"
       id="path12" />
    <!-- e35 -->
    <path
       id="polygon14"
       style="fill:#00ffff"
       d="m 492.75,-167.25 v 65 H 383 v -65 z" />
    <path
       id="polygon15"
       style="fill:none;stroke:#000000"
       d="m 424.25,-164.25 v 59 H 386 v -59 z" />
    <path
       id="polygon16"
       style="fill:none;stroke:#000000"
       d="m 418.25,-158.25 v 22.5 H 392 v -22.5 z" />
    <path
       d="m 404.884,-142.216 c -0.63,-0.042 -0.77,-0.182 -1.26,-1.218 l -3.486,-7.952 h -0.28 l -2.912,6.874 c -0.896,2.044 -1.064,2.268 -1.736,2.296 v 0.266 h 2.772 v -0.266 c -0.672,0 -0.952,-0.168 -0.952,-0.574 0,-0.168 0.042,-0.364 0.112,-0.546 l 0.644,-1.638 h 3.668 l 0.574,1.344 c 0.168,0.378 0.266,0.742 0.266,0.938 0,0.35 -0.238,0.462 -0.98,0.476 v 0.266 h 3.57 z m -6.86,-3.332 1.61,-3.85 1.624,3.85 z m 8.988,-2.828 c -0.42,0 -0.77,0.35 -0.77,0.798 0,0.406 0.35,0.756 0.756,0.756 0.434,0 0.798,-0.336 0.798,-0.756 0,-0.434 -0.364,-0.798 -0.784,-0.798 z m 0,5.026 c -0.42,0 -0.77,0.35 -0.77,0.798 0,0.406 0.35,0.756 0.756,0.756 0.434,0 0.798,-0.336 0.798,-0.756 0,-0.434 -0.364,-0.798 -0.784,-0.798 z m 3.64,1.4 h 3.864 v -0.21 c -1.078,0 -1.316,-0.154 -1.33,-0.826 v -8.4 l -0.112,-0.028 -2.52,1.274 v 0.196 c 0.546,-0.21 0.882,-0.308 1.008,-0.308 0.294,0 0.42,0.21 0.42,0.658 v 6.342 c -0.028,0.882 -0.266,1.078 -1.33,1.092 z"
       id="text16"
       style="font-size:14px;font-family:Times, serif"
       aria-label="A:1" />
    <path
       id="polygon17"
       style="fill:none;stroke:#000000"
       d="m 418.25,-133.75 v 22.5 H 392 v -22.5 z" />
    <path
       d="m 395.618,-126.452 c 1.176,0.07 1.33,0.21 1.344,1.26 v 6.216 c -0.014,1.05 -0.196,1.218 -1.344,1.26 v 0.266 h 4.676 c 1.078,0 2.086,-0.294 2.604,-0.77 0.504,-0.448 0.784,-1.078 0.784,-1.75 0,-0.616 -0.238,-1.176 -0.686,-1.582 -0.42,-0.378 -0.798,-0.546 -1.708,-0.77 0.728,-0.182 1.022,-0.322 1.358,-0.616 0.35,-0.308 0.56,-0.812 0.56,-1.4 0,-1.568 -1.26,-2.38 -3.668,-2.38 h -3.92 z m 2.772,4.438 c 1.358,0 2.002,0.084 2.506,0.294 0.798,0.322 1.176,0.896 1.176,1.764 0,0.756 -0.294,1.302 -0.854,1.624 -0.448,0.252 -1.022,0.364 -1.946,0.364 -0.686,0 -0.882,-0.126 -0.882,-0.574 z m 0,-0.546 v -3.22 c 0.014,-0.308 0.07,-0.392 0.308,-0.406 l 0.616,-0.014 c 1.554,-0.042 2.464,0.672 2.464,1.918 0,1.106 -0.714,1.694 -2.058,1.708 z m 8.232,-1.316 c -0.42,0 -0.77,0.35 -0.77,0.798 0,0.406 0.35,0.756 0.756,0.756 0.434,0 0.798,-0.336 0.798,-0.756 0,-0.434 -0.364,-0.798 -0.784,-0.798 z m 0,5.026 c -0.42,0 -0.77,0.35 -0.77,0.798 0,0.406 0.35,0.756 0.756,0.756 0.434,0 0.798,-0.336 0.798,-0.756 0,-0.434 -0.364,-0.798 -0.784,-0.798 z m 3.64,1.4 h 3.864 v -0.21 c -1.078,0 -1.316,-0.154 -1.33,-0.826 v -8.4 l -0.112,-0.028 -2.52,1.274 v 0.196 c 0.546,-0.21 0.882,-0.308 1.008,-0.308 0.294,0 0.42,0.21 0.42,0.658 v 6.342 c -0.028,0.882 -0.266,1.078 -1.33,1.092 z"
       id="text17"
       style="font-size:14px;font-family:Times, serif"
       aria-label="B:1" />
    <path
       id="polygon18"
       style="fill:none;stroke:#000000"
       d="m 421.25,-161.25 v 53 H 389 v -53 z" />
    <path
       id="polygon19"
       style="fill:none;stroke:#000000"
       d="m 451,-164.25 v 59 h -24.75 v -59 z" />
    <path
       d="m 434.304,-139.164 c -2.674,0 -4.578,2.002 -4.578,4.83 0,1.316 0.448,2.604 1.204,3.402 0.812,0.882 2.058,1.428 3.29,1.428 2.758,0 4.662,-1.946 4.662,-4.774 0,-1.386 -0.406,-2.59 -1.176,-3.416 -0.882,-0.966 -2.058,-1.47 -3.402,-1.47 z m 0,0.504 c 0.644,0 1.288,0.252 1.792,0.7 0.756,0.686 1.19,2.002 1.19,3.668 0,0.826 -0.168,1.792 -0.462,2.52 -0.126,0.35 -0.364,0.7 -0.686,1.022 -0.49,0.49 -1.12,0.742 -1.862,0.742 -0.644,0 -1.274,-0.252 -1.778,-0.686 -0.714,-0.644 -1.176,-2.058 -1.176,-3.612 0,-1.428 0.392,-2.786 0.98,-3.444 0.546,-0.602 1.232,-0.91 2.002,-0.91 z m 14.28,8.694 c -0.532,-0.042 -0.812,-0.182 -1.218,-0.658 l -2.884,-3.542 c 1.778,-0.35 2.534,-1.05 2.534,-2.338 0,-0.602 -0.182,-1.12 -0.546,-1.526 -0.532,-0.574 -1.708,-0.938 -3.01,-0.938 h -3.864 v 0.266 c 1.036,0.112 1.176,0.238 1.19,1.26 v 6.062 c -0.014,1.19 -0.14,1.33 -1.19,1.414 v 0.266 h 3.878 v -0.266 c -1.078,-0.07 -1.246,-0.238 -1.26,-1.26 v -2.758 l 0.784,-0.028 3.332,4.312 h 2.254 z m -6.37,-7.98 c 0,-0.392 0.154,-0.504 0.714,-0.504 1.75,0 2.562,0.602 2.562,1.918 0,0.7 -0.294,1.288 -0.798,1.554 -0.644,0.364 -1.134,0.448 -2.478,0.476 z"
       id="text19"
       style="font-size:14px;font-family:Times, serif"
       aria-label="OR" />
    <path
       id="polygon20"
       style="fill:none;stroke:#000000"
       d="m 489.75,-164.25 v 59 H 453 v -59 z" />
    <path
       id="polygon21"
       style="fill:none;stroke:#000000"
       d="m 483.75,-158.25 v 47 H 459 v -47 z" />
    <path
       d="m 470.036,-132.164 c -0.42,1.498 -0.896,1.876 -2.408,1.932 h -3.598 l 6.048,-8.526 v -0.21 h -7.364 l -0.28,2.394 h 0.364 c 0.238,-1.414 0.742,-1.82 2.352,-1.862 h 3.094 l -6.118,8.526 v 0.21 h 7.896 l 0.336,-2.464 z m 2.618,-3.962 c -0.42,0 -0.77,0.35 -0.77,0.798 0,0.406 0.35,0.756 0.756,0.756 0.434,0 0.798,-0.336 0.798,-0.756 0,-0.434 -0.364,-0.798 -0.784,-0.798 z m 0,5.026 c -0.42,0 -0.77,0.35 -0.77,0.798 0,0.406 0.35,0.756 0.756,0.756 0.434,0 0.798,-0.336 0.798,-0.756 0,-0.434 -0.364,-0.798 -0.784,-0.798 z m 3.64,1.4 h 3.864 v -0.21 c -1.078,0 -1.316,-0.154 -1.33,-0.826 v -8.4 l -0.112,-0.028 -2.52,1.274 v 0.196 c 0.546,-0.21 0.882,-0.308 1.008,-0.308 0.294,0 0.42,0.21 0.42,0.658 v 6.342 c -0.028,0.882 -0.266,1.078 -1.33,1.092 z"
       id="text21"
       style="font-size:14px;font-family:Times, serif"
       aria-label="Z:1" />
    <path
       id="polygon22"
       style="fill:none;stroke:#000000"
       d="m 486.75,-161.25 v 53 H 456 v -53 z" />
    <path
       id="polygon23"
       style="fill:none;stroke:#000000"
       d="m 492.75,-167.25 v 65 H 383 v -65 z" />
    <!-- v27&#45;&#45;e35 -->
    <path
       fill="none"
       stroke="#000000"
       d="m 114.25,-107.75 c 123.17,0 153.58,-14.75 276.75,-14.75"
       id="path23" />
    <!-- v28 -->
    <path
       id="ellipse24"
       style="stroke:#000000"
       d="m 339,-152.75 a 9,9 0 0 1 -9,9 9,9 0 0 1 -9,-9 9,9 0 0 1 9,-9 9,9 0 0 1 9,9 z" />
    <path
       d="m 328.152,-147.7 h 3.864 v -0.21 c -1.078,0 -1.316,-0.154 -1.33,-0.826 v -8.4 l -0.112,-0.028 -2.52,1.274 v 0.196 c 0.546,-0.21 0.882,-0.308 1.008,-0.308 0.294,0 0.42,0.21 0.42,0.658 v 6.342 c -0.028,0.882 -0.266,1.078 -1.33,1.092 z"
       id="text24"
       style="font-size:14px;font-family:Times, serif;text-anchor:middle;fill:#ffffff"
       aria-label="1" />
    <!-- v28&#45;&#45;e35 -->
    <path
       fill="none"
       stroke="#000000"
       d="m 339,-152.75 c 23.25,0 28.75,5.75 52,5.75"
       id="path25" />
    <!-- v29 -->
    <path
       id="ellipse26"
       style="stroke:#000000"
       d="m 554.75,-131.75 a 9,9 0 0 1 -9,9 9,9 0 0 1 -9,-9 9,9 0 0 1 9,-9 9,9 0 0 1 9,9 z" />
    <path
       d="m 543.902,-126.7 h 3.864 v -0.21 c -1.078,0 -1.316,-0.154 -1.33,-0.826 v -8.4 l -0.112,-0.028 -2.52,1.274 v 0.196 c 0.546,-0.21 0.882,-0.308 1.008,-0.308 0.294,0 0.42,0.21 0.42,0.658 v 6.342 c -0.028,0.882 -0.266,1.078 -1.33,1.092 z"
       id="text26"
       style="font-size:14px;font-family:Times, serif;text-anchor:middle;fill:#ffffff"
       aria-label="1" />
    <!-- e36 -->
    <path
       id="polygon28"
       style="fill:#00ffff"
       d="m 708.5,-173.25 v 65 H 598.75 v -65 z" />
    <path
       id="polygon29"
       style="fill:none;stroke:#000000"
       d="m 640,-170.25 v 59 h -38.25 v -59 z" />
    <path
       id="polygon30"
       style="fill:none;stroke:#000000"
       d="m 634,-164.25 v 22.5 h -26.25 v -22.5 z" />
    <path
       d="m 620.634,-148.216 c -0.63,-0.042 -0.77,-0.182 -1.26,-1.218 l -3.486,-7.952 h -0.28 l -2.912,6.874 c -0.896,2.044 -1.064,2.268 -1.736,2.296 v 0.266 h 2.772 v -0.266 c -0.672,0 -0.952,-0.168 -0.952,-0.574 0,-0.168 0.042,-0.364 0.112,-0.546 l 0.644,-1.638 h 3.668 l 0.574,1.344 c 0.168,0.378 0.266,0.742 0.266,0.938 0,0.35 -0.238,0.462 -0.98,0.476 v 0.266 h 3.57 z m -6.86,-3.332 1.61,-3.85 1.624,3.85 z m 8.988,-2.828 c -0.42,0 -0.77,0.35 -0.77,0.798 0,0.406 0.35,0.756 0.756,0.756 0.434,0 0.798,-0.336 0.798,-0.756 0,-0.434 -0.364,-0.798 -0.784,-0.798 z m 0,5.026 c -0.42,0 -0.77,0.35 -0.77,0.798 0,0.406 0.35,0.756 0.756,0.756 0.434,0 0.798,-0.336 0.798,-0.756 0,-0.434 -0.364,-0.798 -0.784,-0.798 z m 3.64,1.4 h 3.864 v -0.21 c -1.078,0 -1.316,-0.154 -1.33,-0.826 v -8.4 l -0.112,-0.028 -2.52,1.274 v 0.196 c 0.546,-0.21 0.882,-0.308 1.008,-0.308 0.294,0 0.42,0.21 0.42,0.658 v 6.342 c -0.028,0.882 -0.266,1.078 -1.33,1.092 z"
       id="text30"
       style="font-size:14px;font-family:Times, serif"
       aria-label="A:1" />
    <path
       id="polygon31"
       style="fill:none;stroke:#000000"
       d="m 634,-139.75 v 22.5 h -26.25 v -22.5 z" />
    <path
       d="m 611.358,-132.452 c 1.176,0.07 1.33,0.21 1.344,1.26 v 6.216 c -0.014,1.05 -0.196,1.218 -1.344,1.26 v 0.266 h 4.676 c 1.078,0 2.086,-0.294 2.604,-0.77 0.504,-0.448 0.784,-1.078 0.784,-1.75 0,-0.616 -0.238,-1.176 -0.686,-1.582 -0.42,-0.378 -0.798,-0.546 -1.708,-0.77 0.728,-0.182 1.022,-0.322 1.358,-0.616 0.35,-0.308 0.56,-0.812 0.56,-1.4 0,-1.568 -1.26,-2.38 -3.668,-2.38 h -3.92 z m 2.772,4.438 c 1.358,0 2.002,0.084 2.506,0.294 0.798,0.322 1.176,0.896 1.176,1.764 0,0.756 -0.294,1.302 -0.854,1.624 -0.448,0.252 -1.022,0.364 -1.946,0.364 -0.686,0 -0.882,-0.126 -0.882,-0.574 z m 0,-0.546 v -3.22 c 0.014,-0.308 0.07,-0.392 0.308,-0.406 l 0.616,-0.014 c 1.554,-0.042 2.464,0.672 2.464,1.918 0,1.106 -0.714,1.694 -2.058,1.708 z m 8.23199,-1.316 c -0.42,0 -0.77,0.35 -0.77,0.798 0,0.406 0.35,0.756 0.756,0.756 0.434,0 0.798,-0.336 0.798,-0.756 0,-0.434 -0.364,-0.798 -0.784,-0.798 z m 0,5.026 c -0.42,0 -0.77,0.35 -0.77,0.798 0,0.406 0.35,0.756 0.756,0.756 0.434,0 0.798,-0.336 0.798,-0.756 0,-0.434 -0.364,-0.798 -0.784,-0.798 z m 3.64,1.4 h 3.864 v -0.21 c -1.078,0 -1.316,-0.154 -1.33,-0.826 v -8.4 l -0.112,-0.028 -2.52,1.274 v 0.196 c 0.546,-0.21 0.882,-0.308 1.008,-0.308 0.294,0 0.42,0.21 0.42,0.658 v 6.342 c -0.028,0.882 -0.266,1.078 -1.33,1.092 z"
       id="text31"
       style="font-size:14px;font-family:Times, serif"
       aria-label="B:1" />
    <path
       id="polygon32"
       style="fill:none;stroke:#000000"
       d="m 637,-167.25 v 53 h -32.25 v -53 z" />
    <path
       id="polygon33"
       style="fill:none;stroke:#000000"
       d="m 666.75,-170.25 v 59 H 642 v -59 z" />
    <path
       d="m 650.054,-145.164 c -2.674,0 -4.578,2.002 -4.578,4.83 0,1.316 0.448,2.604 1.204,3.402 0.812,0.882 2.058,1.428 3.29,1.428 2.758,0 4.662,-1.946 4.662,-4.774 0,-1.386 -0.406,-2.59 -1.176,-3.416 -0.882,-0.966 -2.058,-1.47 -3.402,-1.47 z m 0,0.504 c 0.644,0 1.288,0.252 1.792,0.7 0.756,0.686 1.19,2.002 1.19,3.668 0,0.826 -0.168,1.792 -0.462,2.52 -0.126,0.35 -0.364,0.7 -0.686,1.022 -0.49,0.49 -1.12,0.742 -1.862,0.742 -0.644,0 -1.274,-0.252 -1.778,-0.686 -0.714,-0.644 -1.176,-2.058 -1.176,-3.612 0,-1.428 0.392,-2.786 0.98,-3.444 0.546,-0.602 1.232,-0.91 2.002,-0.91 z m 14.28,8.694 c -0.532,-0.042 -0.812,-0.182 -1.218,-0.658 l -2.884,-3.542 c 1.778,-0.35 2.534,-1.05 2.534,-2.338 0,-0.602 -0.182,-1.12 -0.546,-1.526 -0.532,-0.574 -1.708,-0.938 -3.01,-0.938 h -3.864 v 0.266 c 1.036,0.112 1.176,0.238 1.19,1.26 v 6.062 c -0.014,1.19 -0.14,1.33 -1.19,1.414 v 0.266 h 3.878 v -0.266 c -1.078,-0.07 -1.246,-0.238 -1.26,-1.26 v -2.758 l 0.784,-0.028 3.332,4.312 h 2.254 z m -6.37,-7.98 c 0,-0.392 0.154,-0.504 0.714,-0.504 1.75,0 2.562,0.602 2.562,1.918 0,0.7 -0.294,1.288 -0.798,1.554 -0.644,0.364 -1.134,0.448 -2.478,0.476 z"
       id="text33"
       style="font-size:14px;font-family:Times, serif"
       aria-label="OR" />
    <path
       id="polygon34"
       style="fill:none;stroke:#000000"
       d="m 705.5,-170.25 v 59 h -36.75 v -59 z" />
    <path
       id="polygon35"
       style="fill:none;stroke:#000000"
       d="m 699.5,-164.25 v 47 h -24.75 v -47 z" />
    <path
       d="m 685.786,-138.164 c -0.42,1.498 -0.896,1.876 -2.408,1.932 h -3.598 l 6.048,-8.526 v -0.21 h -7.364 l -0.28,2.394 h 0.364 c 0.238,-1.414 0.742,-1.82 2.352,-1.862 h 3.094 l -6.118,8.526 v 0.21 h 7.896 l 0.336,-2.464 z m 2.618,-3.962 c -0.42,0 -0.77,0.35 -0.77,0.798 0,0.406 0.35,0.756 0.756,0.756 0.434,0 0.798,-0.336 0.798,-0.756 0,-0.434 -0.364,-0.798 -0.784,-0.798 z m 0,5.026 c -0.42,0 -0.77,0.35 -0.77,0.798 0,0.406 0.35,0.756 0.756,0.756 0.434,0 0.798,-0.336 0.798,-0.756 0,-0.434 -0.364,-0.798 -0.784,-0.798 z m 3.64,1.4 h 3.864 v -0.21 c -1.078,0 -1.316,-0.154 -1.33,-0.826 v -8.4 l -0.112,-0.028 -2.52,1.274 v 0.196 c 0.546,-0.21 0.882,-0.308 1.008,-0.308 0.294,0 0.42,0.21 0.42,0.658 v 6.342 c -0.028,0.882 -0.266,1.078 -1.33,1.092 z"
       id="text35"
       style="font-size:14px;font-family:Times, serif"
       aria-label="Z:1" />
    <path
       id="polygon36"
       style="fill:none;stroke:#000000"
       d="m 702.5,-167.25 v 53 h -30.75 v -53 z" />
    <path
       id="polygon37"
       style="fill:none;stroke:#000000"
       d="m 708.5,-173.25 v 65 H 598.75 v -65 z" />
    <!-- v29&#45;&#45;e36 -->
    <path
       fill="none"
       stroke="#000000"
       d="m 554.75,-131.75 c 23.16,0 28.84,3.25 52,3.25"
       id="path37" />
    <!-- v30 -->
    <path
       id="ellipse38"
       style="stroke:#000000"
       d="m 770.5,-114.75 a 9,9 0 0 1 -9,9 9,9 0 0 1 -9,-9 9,9 0 0 1 9,-9 9,9 0 0 1 9,9 z" />
    <path
       d="m 759.652,-109.7 h 3.864 v -0.21 c -1.078,0 -1.316,-0.154 -1.33,-0.826 v -8.4 l -0.112,-0.028 -2.52,1.274 v 0.196 c 0.546,-0.21 0.882,-0.308 1.008,-0.308 0.294,0 0.42,0.21 0.42,0.658 v 6.342 c -0.028,0.882 -0.266,1.078 -1.33,1.092 z"
       id="text38"
       style="font-size:14px;font-family:Times, serif;text-anchor:middle;fill:#ffffff"
       aria-label="1" />
    <!-- e37 -->
    <path
       id="polygon40"
       style="fill:#00ffff"
       d="m 934.75,-114.25 v 65 H 814.5 v -65 z" />
    <path
       id="polygon41"
       style="fill:none;stroke:#000000"
       d="m 855.75,-111.25 v 59 H 817.5 v -59 z" />
    <path
       id="polygon42"
       style="fill:none;stroke:#000000"
       d="m 849.75,-105.25 v 22.5 H 823.5 v -22.5 z" />
    <path
       d="m 836.384,-89.215997 c -0.63,-0.042 -0.77,-0.182 -1.26,-1.218 l -3.486,-7.952 h -0.28 l -2.912,6.874 c -0.896,2.044 -1.064,2.268 -1.736,2.296 v 0.266 h 2.772 v -0.266 c -0.672,0 -0.952,-0.168 -0.952,-0.574 0,-0.168 0.042,-0.364 0.112,-0.546 l 0.644,-1.638 h 3.668 l 0.574,1.344 c 0.168,0.378 0.266,0.742 0.266,0.938 0,0.35 -0.238,0.462 -0.98,0.476 v 0.266 h 3.57 z m -6.86,-3.332 1.61,-3.85 1.624,3.85 z m 8.988,-2.828 c -0.42,0 -0.77,0.35 -0.77,0.798 0,0.406 0.35,0.756 0.756,0.756 0.434,0 0.798,-0.336 0.798,-0.756 0,-0.434 -0.364,-0.798 -0.784,-0.798 z m 0,5.026 c -0.42,0 -0.77,0.35 -0.77,0.798 0,0.406 0.35,0.756 0.756,0.756 0.434,0 0.798,-0.336 0.798,-0.756 0,-0.434 -0.364,-0.798 -0.784,-0.798 z m 3.64,1.4 h 3.864 v -0.21 c -1.078,0 -1.316,-0.154 -1.33,-0.826 v -8.4 l -0.112,-0.028 -2.52,1.274 v 0.196 c 0.546,-0.21 0.882,-0.308 1.008,-0.308 0.294,0 0.42,0.21 0.42,0.658 v 6.342 c -0.028,0.882 -0.266,1.078 -1.33,1.092 z"
       id="text42"
       style="font-size:14px;font-family:Times, serif"
       aria-label="A:1" />
    <path
       id="polygon43"
       style="fill:none;stroke:#000000"
       d="m 849.75,-80.75 v 22.5 H 823.5 v -22.5 z" />
    <path
       d="m 827.118,-73.451997 c 1.176,0.07 1.33,0.21 1.344,1.26 v 6.216 c -0.014,1.05 -0.196,1.218 -1.344,1.26 v 0.266 h 4.676 c 1.078,0 2.086,-0.294 2.604,-0.77 0.504,-0.448 0.784,-1.078 0.784,-1.75 0,-0.616 -0.238,-1.176 -0.686,-1.582 -0.42,-0.378 -0.798,-0.546 -1.708,-0.77 0.728,-0.182 1.022,-0.322 1.358,-0.616 0.35,-0.308 0.56,-0.812 0.56,-1.4 0,-1.568 -1.26,-2.38 -3.668,-2.38 h -3.92 z m 2.772,4.438 c 1.358,0 2.002,0.084 2.506,0.294 0.798,0.322 1.176,0.896 1.176,1.764 0,0.756 -0.294,1.302 -0.854,1.624 -0.448,0.252 -1.022,0.364 -1.946,0.364 -0.686,0 -0.882,-0.126 -0.882,-0.574 z m 0,-0.546 v -3.22 c 0.014,-0.308 0.07,-0.392 0.308,-0.406 l 0.616,-0.014 c 1.554,-0.042 2.464,0.672 2.464,1.918 0,1.106 -0.714,1.694 -2.058,1.708 z m 8.232,-1.316 c -0.42,0 -0.77,0.35 -0.77,0.798 0,0.406 0.35,0.756 0.756,0.756 0.434,0 0.798,-0.336 0.798,-0.756 0,-0.434 -0.364,-0.798 -0.784,-0.798 z m 0,5.026 c -0.42,0 -0.77,0.35 -0.77,0.798 0,0.406 0.35,0.756 0.756,0.756 0.434,0 0.798,-0.336 0.798,-0.756 0,-0.434 -0.364,-0.798 -0.784,-0.798 z m 3.64,1.4 h 3.864 v -0.21 c -1.078,0 -1.316,-0.154 -1.33,-0.826 v -8.4 l -0.112,-0.028 -2.52,1.274 v 0.196 c 0.546,-0.21 0.882,-0.308 1.008,-0.308 0.294,0 0.42,0.21 0.42,0.658 v 6.342 c -0.028,0.882 -0.266,1.078 -1.33,1.092 z"
       id="text43"
       style="font-size:14px;font-family:Times, serif"
       aria-label="B:1" />
    <path
       id="polygon44"
       style="fill:none;stroke:#000000"
       d="m 852.75,-108.25 v 53 H 820.5 v -53 z" />
    <path
       id="polygon45"
       style="fill:none;stroke:#000000"
       d="m 893,-111.25 v 59 h -35.25 v -59 z" />
    <path
       d="m 870.634,-76.965997 c -0.63,-0.042 -0.77,-0.182 -1.26,-1.218 l -3.486,-7.952 h -0.28 l -2.912,6.874 c -0.896,2.044 -1.064,2.268 -1.736,2.296 v 0.266 h 2.772 v -0.266 c -0.672,0 -0.952,-0.168 -0.952,-0.574 0,-0.168 0.042,-0.364 0.112,-0.546 l 0.644,-1.638 h 3.668 l 0.574,1.344 c 0.168,0.378 0.266,0.742 0.266,0.938 0,0.35 -0.238,0.462 -0.98,0.476 v 0.266 h 3.57 z m -6.86,-3.332 1.61,-3.85 1.624,3.85 z m 16.982,-5.67 h -3.29 v 0.266 c 1.12,0.07 1.302,0.308 1.344,1.792 v 4.718 l -5.39,-6.776 h -2.394 v 0.266 c 0.602,0 0.798,0.112 1.358,0.77 v 6.174 c -0.028,1.484 -0.21,1.722 -1.358,1.792 v 0.266 h 3.29 v -0.266 c -1.078,-0.056 -1.288,-0.35 -1.316,-1.792 v -5.488 l 6.188,7.7 h 0.238 v -7.364 c 0.042,-1.456 0.224,-1.694 1.33,-1.792 z m 0.434,9.268 h 3.976 c 1.624,0 3.094,-0.462 3.962,-1.246 0.91,-0.826 1.428,-2.072 1.428,-3.43 0,-1.26 -0.406,-2.352 -1.19,-3.122 -0.952,-0.966 -2.478,-1.47 -4.396,-1.47 h -3.78 v 0.266 c 1.106,0.098 1.218,0.21 1.232,1.26 v 6.216 c -0.014,1.022 -0.182,1.19 -1.232,1.26 z m 2.66,-8.204 c 0,-0.434 0.14,-0.546 0.728,-0.546 1.218,0 2.114,0.224 2.786,0.7 1.092,0.756 1.666,1.96 1.666,3.472 0,1.652 -0.574,2.828 -1.708,3.486 -0.714,0.406 -1.526,0.574 -2.744,0.574 -0.56,0 -0.728,-0.126 -0.728,-0.574 z"
       id="text45"
       style="font-size:14px;font-family:Times, serif"
       aria-label="AND" />
    <path
       id="polygon46"
       style="fill:none;stroke:#000000"
       d="m 931.75,-111.25 v 59 H 895 v -59 z" />
    <path
       id="polygon47"
       style="fill:none;stroke:#000000"
       d="m 925.75,-105.25 v 47 H 901 v -47 z" />
    <path
       d="m 912.036,-79.163997 c -0.42,1.498 -0.896,1.876 -2.408,1.932 h -3.598 l 6.048,-8.526 v -0.21 h -7.364 l -0.28,2.394 h 0.364 c 0.238,-1.414 0.742,-1.82 2.352,-1.862 h 3.094 l -6.118,8.526 v 0.21 h 7.896 l 0.336,-2.464 z m 2.618,-3.962 c -0.42,0 -0.77,0.35 -0.77,0.798 0,0.406 0.35,0.756 0.756,0.756 0.434,0 0.798,-0.336 0.798,-0.756 0,-0.434 -0.364,-0.798 -0.784,-0.798 z m 0,5.026 c -0.42,0 -0.77,0.35 -0.77,0.798 0,0.406 0.35,0.756 0.756,0.756 0.434,0 0.798,-0.336 0.798,-0.756 0,-0.434 -0.364,-0.798 -0.784,-0.798 z m 3.64,1.4 h 3.864 v -0.21 c -1.078,0 -1.316,-0.154 -1.33,-0.826 v -8.4 l -0.112,-0.028 -2.52,1.274 v 0.196 c 0.546,-0.21 0.882,-0.308 1.008,-0.308 0.294,0 0.42,0.21 0.42,0.658 v 6.342 c -0.028,0.882 -0.266,1.078 -1.33,1.092 z"
       id="text47"
       style="font-size:14px;font-family:Times, serif"
       aria-label="Z:1" />
    <path
       id="polygon48"
       style="fill:none;stroke:#000000"
       d="m 928.75,-108.25 v 53 H 898 v -53 z" />
    <path
       id="polygon49"
       style="fill:none;stroke:#000000"
       d="m 934.75,-114.25 v 65 H 814.5 v -65 z" />
    <!-- v30&#45;&#45;e37 -->
    <path
       fill="none"
       stroke="#000000"
       d="m 770.5,-114.75 c 24.88,0 27.12,20.75 52,20.75"
       id="path49" />
    <!-- v31 -->
    <path
       id="ellipse50"
       style="stroke:#000000"
       d="m 226.62,-70.75 a 9,9 0 0 1 -9,9 9,9 0 0 1 -9,-9 9,9 0 0 1 9,-9 9,9 0 0 1 9,9 z" />
    <path
       d="m 215.772,-65.699997 h 3.864 v -0.21 c -1.078,0 -1.316,-0.154 -1.33,-0.826 v -8.4 l -0.112,-0.028 -2.52,1.274 v 0.196 c 0.546,-0.21 0.882,-0.308 1.008,-0.308 0.294,0 0.42,0.21 0.42,0.658 v 6.342 c -0.028,0.882 -0.266,1.078 -1.33,1.092 z"
       id="text50"
       style="font-size:14px;font-family:Times, serif;text-anchor:middle;fill:#ffffff"
       aria-label="1" />
    <!-- v31&#45;&#45;e37 -->
    <path
       fill="none"
       stroke="#000000"
       d="m 228.08,-70.75 c 92.8,0 116,1 208.8,1 0,0 0,0 217.74,0 74.62,0 93.27,0.25 167.88,0.25"
       id="path51" />
    <!-- v32 -->
    <path
       id="ellipse52"
       style="stroke:#000000"
       d="m 996.75,-81.75 a 9,9 0 0 1 -9,9 9,9 0 0 1 -9,-9 9,9 0 0 1 9,-9 9,9 0 0 1 9,9 z" />
    <path
       d="m 985.902,-76.699997 h 3.864 v -0.21 c -1.078,0 -1.316,-0.154 -1.33,-0.826 v -8.4 l -0.112,-0.028 -2.52,1.274 v 0.196 c 0.546,-0.21 0.882,-0.308 1.008,-0.308 0.294,0 0.42,0.21 0.42,0.658 v 6.342 c -0.028,0.882 -0.266,1.078 -1.33,1.092 z"
       id="text52"
       style="font-size:14px;font-family:Times, serif;text-anchor:middle;fill:#ffffff"
       aria-label="1" />
    <!-- e38 -->
    <path
       id="polygon54"
       style="fill:#ffff00"
       d="m 1149,-121 v 40.5 H 1040.75 V -121 Z" />
    <path
       id="polygon55"
       style="fill:none;stroke:#000000"
       d="m 1068.5,-118 v 34.5 h -24.75 V -118 Z" />
    <path
       id="polygon56"
       style="fill:none;stroke:#000000"
       d="m 1062.5,-112 v 22.5 h -12.75 V -112 Z" />
    <path
       d="m 1054.402,-95.699997 h 3.864 v -0.21 c -1.078,0 -1.316,-0.154 -1.33,-0.826 V -105.136 l -0.112,-0.028 -2.52,1.274 v 0.196 c 0.546,-0.21 0.882,-0.308 1.008,-0.308 0.294,0 0.42,0.21 0.42,0.658 v 6.342003 c -0.028,0.882 -0.266,1.078 -1.33,1.092 z"
       id="text56"
       style="font-size:14px;font-family:Times, serif"
       aria-label="1" />
    <path
       id="polygon57"
       style="fill:none;stroke:#000000"
       d="m 1065.5,-115 v 28.5 h -18.75 V -115 Z" />
    <path
       id="polygon58"
       style="fill:none;stroke:#000000"
       d="m 1119.25,-118 v 34.5 H 1070.5 V -118 Z" />
    <path
       d="m 1080.374,-96.511997 c -0.182,0.014 -0.266,0.014 -0.322,0.014 -0.49,0 -0.616,-0.154 -0.616,-0.798 V -105.234 l -0.07,-0.028 c -0.658,0.224 -1.134,0.378 -2.058,0.616 v 0.224 c 0.112,-0.014 0.182,-0.014 0.308,-0.014 0.518,0 0.644,0.14 0.644,0.714 v 2.184 c -0.532,-0.448 -0.91,-0.602 -1.47,-0.602 -1.61,0 -2.912,1.582 -2.912,3.570003 0,1.792 1.036,3.01 2.59,3.01 0.784,0 1.316,-0.28 1.792,-0.938 v 0.896 l 0.056,0.042 2.058,-0.728 z m -2.114,-0.616 c 0,0.098 -0.098,0.266 -0.238,0.42 -0.238,0.28 -0.602,0.42 -1.008,0.42 -1.176,0 -1.932,-1.12 -1.932,-2.856 0,-1.568003 0.686,-2.604003 1.75,-2.604003 0.756,0 1.428,0.658 1.428,1.4 z m 7.952,-0.868 c -0.672,1.064 -1.274,1.47 -2.17,1.47 -0.798,0 -1.4,-0.406 -1.806,-1.204 -0.252,-0.532 -0.35,-0.98 -0.378,-1.848 h 4.312 c -0.112,-0.910003 -0.252,-1.316003 -0.602,-1.764003 -0.42,-0.504 -1.064,-0.798 -1.792,-0.798 -0.7,0 -1.358,0.252 -1.89,0.728 -0.658,0.574 -1.036,1.568003 -1.036,2.716003 0,1.932 1.008,3.136 2.618,3.136 1.33,0 2.38,-0.826 2.968,-2.338 z m -4.326,-2.030003 c 0.154,-1.092 0.63,-1.61 1.484,-1.61 0.854,0 1.19,0.392 1.372,1.61 z m 4.816,4.326003 h 3.304 v -0.21 c -0.882,-0.042 -1.036,-0.182 -1.05,-0.966 V -105.234 l -0.056,-0.028 c -0.714,0.224 -1.232,0.378 -2.226,0.616 v 0.224 h 0.084 c 0.154,-0.014 0.322,-0.028 0.434,-0.028 0.448,0 0.588,0.196 0.588,0.854 v 6.678003 c -0.014,0.756 -0.21,0.952 -1.078,1.008 z m 9.786,-0.924 c -0.238,0.196 -0.406,0.266 -0.616,0.266 -0.322,0 -0.42,-0.196 -0.42,-0.812 v -2.73 c 0,-0.728003 -0.07,-1.134003 -0.28,-1.470003 -0.308,-0.504 -0.91,-0.77 -1.736,-0.77 -1.316,0 -2.352,0.686 -2.352,1.568 0,0.322 0.266,0.602003 0.602,0.602003 0.336,0 0.63,-0.280003 0.63,-0.588003 0,-0.056 -0.014,-0.126 -0.028,-0.224 -0.028,-0.126 -0.042,-0.238 -0.042,-0.336 0,-0.378 0.448,-0.686 1.008,-0.686 0.686,0 1.064,0.406 1.064,1.162 v 0.854003 c -2.142,0.854 -2.394,0.98 -2.996,1.512 -0.308,0.28 -0.504,0.756 -0.504,1.218 0,0.882 0.616,1.498 1.47,1.498 0.616,0 1.19,-0.294 2.044,-1.022 0.07,0.742 0.322,1.022 0.896,1.022 0.476,0 0.77,-0.168 1.26,-0.7 z m -2.17,-0.798 c 0,0.42 -0.07,0.574 -0.364,0.742 -0.35,0.196 -0.728,0.308 -1.022,0.308 -0.49,0 -0.882,-0.476 -0.882,-1.078 v -0.056 c 0.014,-0.84 0.63,-1.372 2.268,-1.946 z M 1102.62,-102 h -1.89 v 0.21 c 0.448,0 0.672,0.126 0.672,0.35 0,0.056 -0.014,0.14 -0.056,0.238 l -1.358,3.864003 -1.61,-3.542003 c -0.084,-0.196 -0.14,-0.392 -0.14,-0.532 0,-0.252 0.21,-0.35 0.812,-0.378 V -102 h -2.884 v 0.196 c 0.364,0.056 0.602,0.21 0.714,0.448 l 1.596,3.444003 c 0.168,0.378 0.182,0.392 0.252,0.532 0.392,0.7 0.616,1.218 0.616,1.428 0,0.224 -0.322,1.078 -0.56,1.512 -0.21,0.35 -0.504,0.616 -0.7,0.616 -0.084,0 -0.21,-0.028 -0.364,-0.098 -0.252,-0.098 -0.504,-0.154 -0.728,-0.154 -0.336,0 -0.602,0.266 -0.602,0.616 0,0.462 0.434,0.812 1.036,0.812 0.952,0 1.596,-0.77 2.366,-2.8 l 2.156,-5.712003 c 0.182,-0.448 0.336,-0.588 0.672,-0.63 z m 7.336,8.148003 v -0.7 h -6.958 v 0.7 z m 1.666,-1.848 h 3.864 v -0.21 c -1.078,0 -1.316,-0.154 -1.33,-0.826 V -105.136 l -0.112,-0.028 -2.52,1.274 v 0.196 c 0.546,-0.21 0.882,-0.308 1.008,-0.308 0.294,0 0.42,0.21 0.42,0.658 v 6.342003 c -0.028,0.882 -0.266,1.078 -1.33,1.092 z"
       id="text58"
       style="font-size:14px;font-family:Times, serif"
       aria-label="delay_1" />
    <path
       id="polygon59"
       style="fill:none;stroke:#000000"
       d="m 1146,-118 v 34.5 h -24.75 V -118 Z" />
    <path
       id="polygon60"
       style="fill:none;stroke:#000000"
       d="m 1140,-112 v 22.5 h -12.75 V -112 Z" />
    <path
       d="m 1131.902,-95.699997 h 3.864 v -0.21 c -1.078,0 -1.316,-0.154 -1.33,-0.826 V -105.136 l -0.112,-0.028 -2.52,1.274 v 0.196 c 0.546,-0.21 0.882,-0.308 1.008,-0.308 0.294,0 0.42,0.21 0.42,0.658 v 6.342003 c -0.028,0.882 -0.266,1.078 -1.33,1.092 z"
       id="text60"
       style="font-size:14px;font-family:Times, serif"
       aria-label="1" />
    <path
       id="polygon61"
       style="fill:none;stroke:#000000"
       d="m 1143,-115 v 28.5 h -18.75 V -115 Z" />
    <path
       id="polygon62"
       style="fill:none;stroke:#000000"
       d="m 1149,-121 v 40.5 H 1040.75 V -121 Z" />
    <!-- v32&#45;&#45;e38 -->
    <path
       fill="none"
       stroke="#000000"
       d="m 996.75,-81.75 c 24.61,0 27.39,-19 52,-19"
       id="path62" />
    <!-- 39_outputs -->
    <path
       id="polygon64"
       style="fill:#808080"
       d="m 1243.75,-69 v 40.5 H 1201 V -69 Z" />
    <path
       id="polygon65"
       style="fill:none;stroke:#000000"
       d="m 1240.75,-66 v 34.5 H 1204 V -66 Z" />
    <path
       id="polygon66"
       style="fill:none;stroke:#000000"
       d="m 1234.75,-60 v 22.5 H 1210 V -60 Z" />
    <path
       d="m 1221.036,-46.164001 c -0.42,1.498 -0.896,1.876 -2.408,1.932 h -3.598 l 6.048,-8.526 v -0.21 h -7.364 l -0.28,2.394 h 0.364 c 0.238,-1.414 0.742,-1.82 2.352,-1.862 h 3.094 l -6.118,8.526 v 0.21 h 7.896 l 0.336,-2.464 z m 2.618,-3.962 c -0.42,0 -0.77,0.35 -0.77,0.798 0,0.406 0.35,0.756 0.756,0.756 0.434,0 0.798,-0.336 0.798,-0.756 0,-0.434 -0.364,-0.798 -0.784,-0.798 z m 0,5.026 c -0.42,0 -0.77,0.35 -0.77,0.798 0,0.406 0.35,0.756 0.756,0.756 0.434,0 0.798,-0.336 0.798,-0.756 0,-0.434 -0.364,-0.798 -0.784,-0.798 z m 3.64,1.4 h 3.864 v -0.21 c -1.078,0 -1.316,-0.154 -1.33,-0.826 v -8.4 l -0.112,-0.028 -2.52,1.274 v 0.196 c 0.546,-0.21 0.882,-0.308 1.008,-0.308 0.294,0 0.42,0.21 0.42,0.658 v 6.342 c -0.028,0.882 -0.266,1.078 -1.33,1.092 z"
       id="text66"
       style="font-size:14px;font-family:Times, serif"
       aria-label="Z:1" />
    <path
       id="polygon67"
       style="fill:none;stroke:#000000"
       d="m 1237.75,-63 v 28.5 H 1207 V -63 Z" />
    <path
       id="polygon68"
       style="fill:none;stroke:#000000"
       d="m 1243.75,-69 v 40.5 H 1201 V -69 Z" />
    <!-- v32&#45;&#45;39_outputs -->
    <path
       fill="none"
       stroke="#000000"
       d="m 996.75,-81.75 c 17.17,0 19.32,9.93 36,14 76.55,18.66 97.46,19 176.25,19"
       id="path68" />
    <!-- v33 -->
    <path
       id="ellipse69"
       style="stroke:#000000"
       d="m 1231.38,-126.75 a 9,9 0 0 1 -9,9 9,9 0 0 1 -9,-9 9,9 0 0 1 9,-9 9,9 0 0 1 9,9 z" />
    <path
       d="m 1220.532,-121.7 h 3.864 v -0.21 c -1.078,0 -1.316,-0.154 -1.33,-0.826 v -8.4 l -0.112,-0.028 -2.52,1.274 v 0.196 c 0.546,-0.21 0.882,-0.308 1.008,-0.308 0.294,0 0.42,0.21 0.42,0.658 v 6.342 c -0.028,0.882 -0.266,1.078 -1.33,1.092 z"
       id="text69"
       style="font-size:14px;font-family:Times, serif;text-anchor:middle;fill:#ffffff"
       aria-label="1" />
    <!-- v33&#45;&#45;e36 -->
    <path
       fill="none"
       stroke="#000000"
       d="m 1232.83,-126.75 c 4.03,0 1.91,-6.21 -1,-9 -78.12,-75 -134.78,-17 -243.08,-17 -115.13,0 -115.13,0 -115.13,0 -70.67,0 -86.65,-19.04 -157.12,-24.5 -48.19,-3.73 -73.88,-33.47 -108.75,0 -7.78,7.47 -11.79,24.25 -1,24.25"
       id="path70" />
    <!-- e34&#45;&#45;v28 -->
    <path
       fill="none"
       stroke="#000000"
       d="m 269,-159.75 c 23.32,0 28.68,7 52,7"
       id="path71" />
    <!-- e35&#45;&#45;v29 -->
    <path
       fill="none"
       stroke="#000000"
       d="m 484.75,-134.75 c 23.15,0 28.85,3 52,3"
       id="path72" />
    <!-- e36&#45;&#45;v30 -->
    <path
       fill="none"
       stroke="#000000"
       d="m 700.5,-140.75 c 25.84,0 26.16,26 52,26"
       id="path73" />
    <!-- e37&#45;&#45;v32 -->
    <path
       fill="none"
       stroke="#000000"
       d="m 926.75,-81.75 c 23.11,0 28.89,0 52,0"
       id="path74" />
    <!-- e38&#45;&#45;v33 -->
    <path
       fill="none"
       stroke="#000000"
       d="m 1141,-100.75 c 33.57,0 37.35,-26 70.92,-26"
       id="path75" />
    <!-- 39_inputs -->
    <path
       id="polygon77"
       style="fill:#808080"
       d="m 52.25,-121.25 v 65 H 8 v -65 z" />
    <path
       id="polygon78"
       style="fill:none;stroke:#000000"
       d="m 49.25,-118.25 v 59 H 11 v -59 z" />
    <path
       id="polygon79"
       style="fill:none;stroke:#000000"
       d="m 43.25,-112.25 v 22.5 H 17 v -22.5 z" />
    <path
       d="m 29.884,-96.215997 c -0.63,-0.042 -0.77,-0.182 -1.26,-1.218 L 25.138,-105.386 h -0.28 l -2.912,6.874003 c -0.896,2.044 -1.064,2.268 -1.736,2.296 v 0.266 h 2.772 v -0.266 c -0.672,0 -0.952,-0.168 -0.952,-0.574 0,-0.168 0.042,-0.364 0.112,-0.546 l 0.644,-1.638 h 3.668 l 0.574,1.344 c 0.168,0.378 0.266,0.742 0.266,0.938 0,0.35 -0.238,0.462 -0.98,0.476 v 0.266 h 3.57 z m -6.86,-3.332 1.61,-3.850003 1.624,3.850003 z m 8.988002,-2.828003 c -0.42,0 -0.77,0.35 -0.77,0.798 0,0.406 0.35,0.756 0.756,0.756 0.434,0 0.798,-0.336 0.798,-0.756 0,-0.434 -0.364,-0.798 -0.784,-0.798 z m 0,5.026003 c -0.42,0 -0.77,0.35 -0.77,0.798 0,0.406 0.35,0.756 0.756,0.756 0.434,0 0.798,-0.336 0.798,-0.756 0,-0.434 -0.364,-0.798 -0.784,-0.798 z m 3.639998,1.4 h 3.864 v -0.21 c -1.078,0 -1.316,-0.154 -1.33,-0.826 V -105.386 l -0.112,-0.028 -2.52,1.274 v 0.196 c 0.546,-0.21 0.882,-0.308 1.008,-0.308 0.294,0 0.42,0.21 0.42,0.658 v 6.342003 c -0.028,0.882 -0.266,1.078 -1.33,1.092 z"
       id="text79"
       style="font-size:14px;font-family:Times, serif"
       aria-label="A:1" />
    <path
       id="polygon80"
       style="fill:none;stroke:#000000"
       d="m 43.25,-87.75 v 22.5 H 17 v -22.5 z" />
    <path
       d="m 20.617999,-80.451997 c 1.176,0.07 1.33,0.21 1.344,1.26 v 6.216 c -0.014,1.05 -0.196,1.218 -1.344,1.26 v 0.266 h 4.676 c 1.078,0 2.086,-0.294 2.604,-0.77 0.504,-0.448 0.784,-1.078 0.784,-1.75 0,-0.616 -0.238,-1.176 -0.686,-1.582 -0.42,-0.378 -0.798,-0.546 -1.708,-0.77 0.728,-0.182 1.022,-0.322 1.358,-0.616 0.35,-0.308 0.56,-0.812 0.56,-1.4 0,-1.568 -1.26,-2.38 -3.668,-2.38 h -3.92 z m 2.772,4.438 c 1.358,0 2.002,0.084 2.506,0.294 0.798,0.322 1.176,0.896 1.176,1.764 0,0.756 -0.294,1.302 -0.854,1.624 -0.448,0.252 -1.022,0.364 -1.946,0.364 -0.686,0 -0.882,-0.126 -0.882,-0.574 z m 0,-0.546 v -3.22 c 0.014,-0.308 0.07,-0.392 0.308,-0.406 l 0.616,-0.014 c 1.554,-0.042 2.464,0.672 2.464,1.918 0,1.106 -0.714,1.694 -2.058,1.708 z m 8.231998,-1.316 c -0.42,0 -0.77,0.35 -0.77,0.798 0,0.406 0.35,0.756 0.756,0.756 0.434,0 0.798,-0.336 0.798,-0.756 0,-0.434 -0.364,-0.798 -0.784,-0.798 z m 0,5.026 c -0.42,0 -0.77,0.35 -0.77,0.798 0,0.406 0.35,0.756 0.756,0.756 0.434,0 0.798,-0.336 0.798,-0.756 0,-0.434 -0.364,-0.798 -0.784,-0.798 z m 3.639998,1.4 h 3.864 v -0.21 c -1.078,0 -1.316,-0.154 -1.33,-0.826 v -8.4 l -0.112,-0.028 -2.52,1.274 v 0.196 c 0.546,-0.21 0.882,-0.308 1.008,-0.308 0.294,0 0.42,0.21 0.42,0.658 v 6.342 c -0.028,0.882 -0.266,1.078 -1.33,1.092 z"
       id="text80"
       style="font-size:14px;font-family:Times, serif"
       aria-label="B:1" />
    <path
       id="polygon81"
       style="fill:none;stroke:#000000"
       d="m 46.25,-115.25 v 53 H 14 v -53 z" />
    <path
       id="polygon82"
       style="fill:none;stroke:#000000"
       d="m 52.25,-121.25 v 65 H 8 v -65 z" />
    <!-- 39_inputs&#45;&#45;v27 -->
    <path
       fill="none"
       stroke="#000000"
       d="m 44.25,-101 c 23.31,0 28.69,-6.75 52,-6.75"
       id="path82" />
    <!-- 39_inputs&#45;&#45;v31 -->
    <path
       fill="none"
       stroke="#000000"
       d="m 44.25,-76.5 c 72.45,0 90.46,5.75 162.92,5.75"
       id="path83" />
  </g>
</svg>
