<?xml version="1.0" encoding="UTF-8" standalone="no"?>
<!-- Generated by graphviz version 11.0.0 (0)
 -->

<!-- Title: circuit Pages: 1 -->

<svg
   width="1236.0735pt"
   height="165.38559pt"
   viewBox="0 0 1235.8282 165.4761"
   version="1.1"
   id="svg83"
   sodipodi:docname="protocol-circuit.svg"
   inkscape:version="1.3.2 (091e20ef0f, 2023-11-25, custom)"
   xmlns:inkscape="http://www.inkscape.org/namespaces/inkscape"
   xmlns:sodipodi="http://sodipodi.sourceforge.net/DTD/sodipodi-0.dtd"
   xmlns="http://www.w3.org/2000/svg"
   xmlns:svg="http://www.w3.org/2000/svg">
  <defs
     id="defs83" />
  <sodipodi:namedview
     id="namedview83"
     pagecolor="#ffffff"
     bordercolor="#000000"
     borderopacity="0.25"
     inkscape:showpageshadow="2"
     inkscape:pageopacity="0.0"
     inkscape:pagecheckerboard="0"
     inkscape:deskcolor="#d1d1d1"
     inkscape:document-units="pt"
     showgrid="false"
     inkscape:zoom="1.1946429"
     inkscape:cx="824.09567"
     inkscape:cy="128.90882"
     inkscape:window-width="2560"
     inkscape:window-height="1380"
     inkscape:window-x="1920"
     inkscape:window-y="32"
     inkscape:window-maximized="1"
     inkscape:current-layer="svg83" />
  <path
     id="ellipse2"
     style="stroke:#000000"
     d="m 106.28022,85.726104 a 9,9 0 0 1 -8.999996,9 9,9 0 0 1 -9,-9 9,9 0 0 1 9,-9 9,9 0 0 1 8.999996,9 z" />
  <path
     d="m 95.432224,90.776107 h 3.864 v -0.21 c -1.078,0 -1.316,-0.154 -1.33,-0.826 v -8.4 l -0.112,-0.028 -2.52,1.274 v 0.196 c 0.546,-0.21 0.882,-0.308 1.008,-0.308 0.294,0 0.42,0.21 0.42,0.658 v 6.342 c -0.028,0.882 -0.266,1.078 -1.33,1.092 z"
     id="text2"
     style="font-size:14px;font-family:Times, serif;text-anchor:middle;fill:#ffffff"
     aria-label="1" />
  <path
     id="polygon4"
     style="fill:#00ffff"
     d="m 150.28022,53.976103 v -40.5 h 118.75 v 40.5 z" />
  <path
     id="polygon5"
     style="fill:none;stroke:#000000"
     d="m 153.28022,50.976103 v -34.5 h 38.25 v 34.5 z" />
  <path
     id="polygon6"
     style="fill:none;stroke:#000000"
     d="m 159.28022,44.976103 v -22.5 h 26.25 v 22.5 z" />
  <path
     d="m 172.16422,38.510107 c -0.63,-0.042 -0.77,-0.182 -1.26,-1.218 l -3.486,-7.952 h -0.28 l -2.912,6.874 c -0.896,2.044 -1.064,2.268 -1.736,2.296 v 0.266 h 2.772 v -0.266 c -0.672,0 -0.952,-0.168 -0.952,-0.574 0,-0.168 0.042,-0.364 0.112,-0.546 l 0.644,-1.638 h 3.668 l 0.574,1.344 c 0.168,0.378 0.266,0.742 0.266,0.938 0,0.35 -0.238,0.462 -0.98,0.476 v 0.266 h 3.57 z m -6.86,-3.332 1.61,-3.85 1.624,3.85 z m 8.988,-2.828 c -0.42,0 -0.77,0.35 -0.77,0.798 0,0.406 0.35,0.756 0.756,0.756 0.434,0 0.798,-0.336 0.798,-0.756 0,-0.434 -0.364,-0.798 -0.784,-0.798 z m 0,5.026 c -0.42,0 -0.77,0.35 -0.77,0.798 0,0.406 0.35,0.756 0.756,0.756 0.434,0 0.798,-0.336 0.798,-0.756 0,-0.434 -0.364,-0.798 -0.784,-0.798 z m 3.64,1.4 h 3.864 v -0.21 c -1.078,0 -1.316,-0.154 -1.33,-0.826 v -8.4 l -0.112,-0.028 -2.52,1.274 v 0.196 c 0.546,-0.21 0.882,-0.308 1.008,-0.308 0.294,0 0.42,0.21 0.42,0.658 v 6.342 c -0.028,0.882 -0.266,1.078 -1.33,1.092 z"
     id="text6"
     style="font-size:14px;font-family:Times, serif"
     aria-label="A:1" />
  <path
     id="polygon7"
     style="fill:none;stroke:#000000"
     d="m 156.28022,47.976103 v -28.5 h 32.25 v 28.5 z" />
  <path
     id="polygon8"
     style="fill:none;stroke:#000000"
     d="m 193.53022,50.976103 v -34.5 h 33.75 v 34.5 z" />
  <path
     d="m 206.42822,29.508107 h -3.29 v 0.266 c 1.12,0.07 1.302,0.308 1.344,1.792 v 4.718 l -5.39,-6.776 h -2.394 v 0.266 c 0.602,0 0.798,0.112 1.358,0.77 v 6.174 c -0.028,1.484 -0.21,1.722 -1.358,1.792 v 0.266 h 3.29 v -0.266 c -1.078,-0.056 -1.288,-0.35 -1.316,-1.792 v -5.488 l 6.188,7.7 h 0.238 v -7.364 c 0.042,-1.456 0.224,-1.694 1.33,-1.792 z m 4.99801,-0.196 c -2.674,0 -4.578,2.002 -4.578,4.83 0,1.316 0.448,2.604 1.204,3.402 0.812,0.882 2.058,1.428 3.29,1.428 2.758,0 4.662,-1.946 4.662,-4.774 0,-1.386 -0.406,-2.59 -1.176,-3.416 -0.882,-0.966 -2.058,-1.47 -3.402,-1.47 z m 0,0.504 c 0.644,0 1.288,0.252 1.792,0.7 0.756,0.686 1.19,2.002 1.19,3.668 0,0.826 -0.168,1.792 -0.462,2.52 -0.126,0.35 -0.364,0.7 -0.686,1.022 -0.49,0.49 -1.12,0.742 -1.862,0.742 -0.644,0 -1.274,-0.252 -1.778,-0.686 -0.714,-0.644 -1.176,-2.058 -1.176,-3.612 0,-1.428 0.392,-2.786 0.98,-3.444 0.546,-0.602 1.232,-0.91 2.002,-0.91 z m 11.28401,8.694 c -1.148,-0.056 -1.33,-0.224 -1.344,-1.26 v -7.154 h 0.756 c 1.624,0.028 1.918,0.266 2.226,1.792 h 0.336 l -0.084,-2.38 h -7.896 l -0.084,2.38 h 0.336 c 0.322,-1.526 0.616,-1.764 2.226,-1.792 h 0.756 v 7 c -0.014,1.204 -0.14,1.344 -1.316,1.414 v 0.266 h 4.088 z"
     id="text8"
     style="font-size:14px;font-family:Times, serif"
     aria-label="NOT" />
  <path
     id="polygon9"
     style="fill:none;stroke:#000000"
     d="m 229.28022,50.976103 v -34.5 h 36.75 v 34.5 z" />
  <path
     id="polygon10"
     style="fill:none;stroke:#000000"
     d="m 235.28022,44.976103 v -22.5 h 24.75 v 22.5 z" />
  <path
     d="m 246.31622,36.312107 c -0.42,1.498 -0.896,1.876 -2.408,1.932 h -3.598 l 6.048,-8.526 v -0.21 h -7.364 l -0.28,2.394 h 0.364 c 0.238,-1.414 0.742,-1.82 2.352,-1.862 h 3.094 l -6.118,8.526 v 0.21 h 7.896 l 0.336,-2.464 z m 2.618,-3.962 c -0.42,0 -0.77,0.35 -0.77,0.798 0,0.406 0.35,0.756 0.756,0.756 0.434,0 0.798,-0.336 0.798,-0.756 0,-0.434 -0.364,-0.798 -0.784,-0.798 z m 0,5.026 c -0.42,0 -0.77,0.35 -0.77,0.798 0,0.406 0.35,0.756 0.756,0.756 0.434,0 0.798,-0.336 0.798,-0.756 0,-0.434 -0.364,-0.798 -0.784,-0.798 z m 3.64,1.4 h 3.864 v -0.21 c -1.078,0 -1.316,-0.154 -1.33,-0.826 v -8.4 l -0.112,-0.028 -2.52,1.274 v 0.196 c 0.546,-0.21 0.882,-0.308 1.008,-0.308 0.294,0 0.42,0.21 0.42,0.658 v 6.342 c -0.028,0.882 -0.266,1.078 -1.33,1.092 z"
     id="text10"
     style="font-size:14px;font-family:Times, serif"
     aria-label="Z:1" />
  <path
     id="polygon11"
     style="fill:none;stroke:#000000"
     d="m 232.28022,47.976103 v -28.5 h 30.75 v 28.5 z" />
  <path
     id="polygon12"
     style="fill:none;stroke:#000000"
     d="m 150.28022,53.976103 v -40.5 h 118.75 v 40.5 z" />
  <path
     fill="none"
     stroke="#000000"
     d="m 106.28022,85.726103 c 32.68,0 19.32,-52 52,-52"
     id="path12" />
  <path
     id="polygon14"
     style="fill:#00ffff"
     d="m 375.03022,91.226103 v -65 h 109.75 v 65 z" />
  <path
     id="polygon15"
     style="fill:none;stroke:#000000"
     d="m 378.03022,88.226103 v -59 h 38.25 v 59 z" />
  <path
     id="polygon16"
     style="fill:none;stroke:#000000"
     d="m 384.03022,57.726103 v -22.5 h 26.25 v 22.5 z" />
  <path
     d="m 396.91422,51.260107 c -0.63,-0.042 -0.77,-0.182 -1.26,-1.218 l -3.486,-7.952 h -0.28 l -2.912,6.874 c -0.896,2.044 -1.064,2.268 -1.736,2.296 v 0.266 h 2.772 v -0.266 c -0.672,0 -0.952,-0.168 -0.952,-0.574 0,-0.168 0.042,-0.364 0.112,-0.546 l 0.644,-1.638 h 3.668 l 0.574,1.344 c 0.168,0.378 0.266,0.742 0.266,0.938 0,0.35 -0.238,0.462 -0.98,0.476 v 0.266 h 3.57 z m -6.86,-3.332 1.61,-3.85 1.624,3.85 z m 8.988,-2.828 c -0.42,0 -0.77,0.35 -0.77,0.798 0,0.406 0.35,0.756 0.756,0.756 0.434,0 0.798,-0.336 0.798,-0.756 0,-0.434 -0.364,-0.798 -0.784,-0.798 z m 0,5.026 c -0.42,0 -0.77,0.35 -0.77,0.798 0,0.406 0.35,0.756 0.756,0.756 0.434,0 0.798,-0.336 0.798,-0.756 0,-0.434 -0.364,-0.798 -0.784,-0.798 z m 3.64,1.4 h 3.864 v -0.21 c -1.078,0 -1.316,-0.154 -1.33,-0.826 v -8.4 l -0.112,-0.028 -2.52,1.274 v 0.196 c 0.546,-0.21 0.882,-0.308 1.008,-0.308 0.294,0 0.42,0.21 0.42,0.658 v 6.342 c -0.028,0.882 -0.266,1.078 -1.33,1.092 z"
     id="text16"
     style="font-size:14px;font-family:Times, serif"
     aria-label="A:1" />
  <path
     id="polygon17"
     style="fill:none;stroke:#000000"
     d="m 384.03022,82.226103 v -22.5 h 26.25 v 22.5 z" />
  <path
     d="m 387.64822,67.024107 c 1.176,0.07 1.33,0.21 1.344,1.26 v 6.216 c -0.014,1.05 -0.196,1.218 -1.344,1.26 v 0.266 h 4.676 c 1.078,0 2.086,-0.294 2.604,-0.77 0.504,-0.448 0.784,-1.078 0.784,-1.75 0,-0.616 -0.238,-1.176 -0.686,-1.582 -0.42,-0.378 -0.798,-0.546 -1.708,-0.77 0.728,-0.182 1.022,-0.322 1.358,-0.616 0.35,-0.308 0.56,-0.812 0.56,-1.4 0,-1.568 -1.26,-2.38 -3.668,-2.38 h -3.92 z m 2.772,4.438 c 1.358,0 2.002,0.084 2.506,0.294 0.798,0.322 1.176,0.896 1.176,1.764 0,0.756 -0.294,1.302 -0.854,1.624 -0.448,0.252 -1.022,0.364 -1.946,0.364 -0.686,0 -0.882,-0.126 -0.882,-0.574 z m 0,-0.546 v -3.22 c 0.014,-0.308 0.07,-0.392 0.308,-0.406 l 0.616,-0.014 c 1.554,-0.042 2.464,0.672 2.464,1.918 0,1.106 -0.714,1.694 -2.058,1.708 z m 8.232,-1.316 c -0.42,0 -0.77,0.35 -0.77,0.798 0,0.406 0.35,0.756 0.756,0.756 0.434,0 0.798,-0.336 0.798,-0.756 0,-0.434 -0.364,-0.798 -0.784,-0.798 z m 0,5.026 c -0.42,0 -0.77,0.35 -0.77,0.798 0,0.406 0.35,0.756 0.756,0.756 0.434,0 0.798,-0.336 0.798,-0.756 0,-0.434 -0.364,-0.798 -0.784,-0.798 z m 3.64,1.4 h 3.864 v -0.21 c -1.078,0 -1.316,-0.154 -1.33,-0.826 v -8.4 l -0.112,-0.028 -2.52,1.274 v 0.196 c 0.546,-0.21 0.882,-0.308 1.008,-0.308 0.294,0 0.42,0.21 0.42,0.658 v 6.342 c -0.028,0.882 -0.266,1.078 -1.33,1.092 z"
     id="text17"
     style="font-size:14px;font-family:Times, serif"
     aria-label="B:1" />
  <path
     id="polygon18"
     style="fill:none;stroke:#000000"
     d="m 381.03022,85.226103 v -53 h 32.25 v 53 z" />
  <path
     id="polygon19"
     style="fill:none;stroke:#000000"
     d="m 418.28022,88.226103 v -59 h 24.75 v 59 z" />
  <path
     d="m 426.33422,54.312107 c -2.674,0 -4.578,2.002 -4.578,4.83 0,1.316 0.448,2.604 1.204,3.402 0.812,0.882 2.058,1.428 3.29,1.428 2.758,0 4.662,-1.946 4.662,-4.774 0,-1.386 -0.406,-2.59 -1.176,-3.416 -0.882,-0.966 -2.058,-1.47 -3.402,-1.47 z m 0,0.504 c 0.644,0 1.288,0.252 1.792,0.7 0.756,0.686 1.19,2.002 1.19,3.668 0,0.826 -0.168,1.792 -0.462,2.52 -0.126,0.35 -0.364,0.7 -0.686,1.022 -0.49,0.49 -1.12,0.742 -1.862,0.742 -0.644,0 -1.274,-0.252 -1.778,-0.686 -0.714,-0.644 -1.176,-2.058 -1.176,-3.612 0,-1.428 0.392,-2.786 0.98,-3.444 0.546,-0.602 1.232,-0.91 2.002,-0.91 z m 14.28,8.694 c -0.532,-0.042 -0.812,-0.182 -1.218,-0.658 l -2.884,-3.542 c 1.778,-0.35 2.534,-1.05 2.534,-2.338 0,-0.602 -0.182,-1.12 -0.546,-1.526 -0.532,-0.574 -1.708,-0.938 -3.01,-0.938 h -3.864 v 0.266 c 1.036,0.112 1.176,0.238 1.19,1.26 v 6.062 c -0.014,1.19 -0.14,1.33 -1.19,1.414 v 0.266 h 3.878 v -0.266 c -1.078,-0.07 -1.246,-0.238 -1.26,-1.26 v -2.758 l 0.784,-0.028 3.332,4.312 h 2.254 z m -6.37,-7.98 c 0,-0.392 0.154,-0.504 0.714,-0.504 1.75,0 2.562,0.602 2.562,1.918 0,0.7 -0.294,1.288 -0.798,1.554 -0.644,0.364 -1.134,0.448 -2.478,0.476 z"
     id="text19"
     style="font-size:14px;font-family:Times, serif"
     aria-label="OR" />
  <path
     id="polygon20"
     style="fill:none;stroke:#000000"
     d="m 445.03022,88.226103 v -59 h 36.75 v 59 z" />
  <path
     id="polygon21"
     style="fill:none;stroke:#000000"
     d="m 451.03022,82.226103 v -47 h 24.75 v 47 z" />
  <path
     d="m 462.06622,61.312107 c -0.42,1.498 -0.896,1.876 -2.408,1.932 h -3.598 l 6.048,-8.526 v -0.21 h -7.364 l -0.28,2.394 h 0.364 c 0.238,-1.414 0.742,-1.82 2.352,-1.862 h 3.094 l -6.118,8.526 v 0.21 h 7.896 l 0.336,-2.464 z m 2.618,-3.962 c -0.42,0 -0.77,0.35 -0.77,0.798 0,0.406 0.35,0.756 0.756,0.756 0.434,0 0.798,-0.336 0.798,-0.756 0,-0.434 -0.364,-0.798 -0.784,-0.798 z m 0,5.026 c -0.42,0 -0.77,0.35 -0.77,0.798 0,0.406 0.35,0.756 0.756,0.756 0.434,0 0.798,-0.336 0.798,-0.756 0,-0.434 -0.364,-0.798 -0.784,-0.798 z m 3.64,1.4 h 3.864 v -0.21 c -1.078,0 -1.316,-0.154 -1.33,-0.826 v -8.4 l -0.112,-0.028 -2.52,1.274 v 0.196 c 0.546,-0.21 0.882,-0.308 1.008,-0.308 0.294,0 0.42,0.21 0.42,0.658 v 6.342 c -0.028,0.882 -0.266,1.078 -1.33,1.092 z"
     id="text21"
     style="font-size:14px;font-family:Times, serif"
     aria-label="Z:1" />
  <path
     id="polygon22"
     style="fill:none;stroke:#000000"
     d="m 448.03022,85.226103 v -53 h 30.75 v 53 z" />
  <path
     id="polygon23"
     style="fill:none;stroke:#000000"
     d="m 375.03022,91.226103 v -65 h 109.75 v 65 z" />
  <path
     fill="none"
     stroke="#000000"
     d="m 106.28022,85.726103 c 123.17,0 153.58,-14.75 276.75,-14.75"
     id="path23" />
  <path
     id="ellipse24"
     style="stroke:#000000"
     d="m 331.03022,40.726104 a 9,9 0 0 1 -9,9 9,9 0 0 1 -9,-9 9,9 0 0 1 9,-9 9,9 0 0 1 9,9 z" />
  <path
     d="m 320.18222,45.776107 h 3.864 v -0.21 c -1.078,0 -1.316,-0.154 -1.33,-0.826 v -8.4 l -0.112,-0.028 -2.52,1.274 v 0.196 c 0.546,-0.21 0.882,-0.308 1.008,-0.308 0.294,0 0.42,0.21 0.42,0.658 v 6.342 c -0.028,0.882 -0.266,1.078 -1.33,1.092 z"
     id="text24"
     style="font-size:14px;font-family:Times, serif;text-anchor:middle;fill:#ffffff"
     aria-label="1" />
  <path
     fill="none"
     stroke="#000000"
     d="m 331.03022,40.726103 c 23.25,0 28.75,5.75 52,5.75"
     id="path25" />
  <path
     id="ellipse26"
     style="stroke:#000000"
     d="m 546.78022,61.726104 a 9,9 0 0 1 -9,9 9,9 0 0 1 -9,-9 9,9 0 0 1 9,-9 9,9 0 0 1 9,9 z" />
  <path
     d="m 535.93222,66.776107 h 3.864 v -0.21 c -1.078,0 -1.316,-0.154 -1.33,-0.826 v -8.4 l -0.112,-0.028 -2.52,1.274 v 0.196 c 0.546,-0.21 0.882,-0.308 1.008,-0.308 0.294,0 0.42,0.21 0.42,0.658 v 6.342 c -0.028,0.882 -0.266,1.078 -1.33,1.092 z"
     id="text26"
     style="font-size:14px;font-family:Times, serif;text-anchor:middle;fill:#ffffff"
     aria-label="1" />
  <path
     id="polygon28"
     style="fill:#00ffff"
     d="m 590.78022,85.226103 v -65 h 109.75 v 65 z" />
  <path
     id="polygon29"
     style="fill:none;stroke:#000000"
     d="m 593.78022,82.226103 v -59 h 38.25 v 59 z" />
  <path
     id="polygon30"
     style="fill:none;stroke:#000000"
     d="m 599.78022,51.726103 v -22.5 h 26.25 v 22.5 z" />
  <path
     d="m 612.66422,45.260107 c -0.63,-0.042 -0.77,-0.182 -1.26,-1.218 l -3.486,-7.952 h -0.28 l -2.912,6.874 c -0.896,2.044 -1.064,2.268 -1.736,2.296 v 0.266 h 2.772 v -0.266 c -0.672,0 -0.952,-0.168 -0.952,-0.574 0,-0.168 0.042,-0.364 0.112,-0.546 l 0.644,-1.638 h 3.668 l 0.574,1.344 c 0.168,0.378 0.266,0.742 0.266,0.938 0,0.35 -0.238,0.462 -0.98,0.476 v 0.266 h 3.57 z m -6.86,-3.332 1.61,-3.85 1.624,3.85 z m 8.988,-2.828 c -0.42,0 -0.77,0.35 -0.77,0.798 0,0.406 0.35,0.756 0.756,0.756 0.434,0 0.798,-0.336 0.798,-0.756 0,-0.434 -0.364,-0.798 -0.784,-0.798 z m 0,5.026 c -0.42,0 -0.77,0.35 -0.77,0.798 0,0.406 0.35,0.756 0.756,0.756 0.434,0 0.798,-0.336 0.798,-0.756 0,-0.434 -0.364,-0.798 -0.784,-0.798 z m 3.64,1.4 h 3.864 v -0.21 c -1.078,0 -1.316,-0.154 -1.33,-0.826 v -8.4 l -0.112,-0.028 -2.52,1.274 v 0.196 c 0.546,-0.21 0.882,-0.308 1.008,-0.308 0.294,0 0.42,0.21 0.42,0.658 v 6.342 c -0.028,0.882 -0.266,1.078 -1.33,1.092 z"
     id="text30"
     style="font-size:14px;font-family:Times, serif"
     aria-label="A:1" />
  <path
     id="polygon31"
     style="fill:none;stroke:#000000"
     d="m 599.78022,76.226103 v -22.5 h 26.25 v 22.5 z" />
  <path
     d="m 603.38822,61.024107 c 1.176,0.07 1.33,0.21 1.344,1.26 v 6.216 c -0.014,1.05 -0.196,1.218 -1.344,1.26 v 0.266 h 4.676 c 1.078,0 2.086,-0.294 2.604,-0.77 0.504,-0.448 0.784,-1.078 0.784,-1.75 0,-0.616 -0.238,-1.176 -0.686,-1.582 -0.42,-0.378 -0.798,-0.546 -1.708,-0.77 0.728,-0.182 1.022,-0.322 1.358,-0.616 0.35,-0.308 0.56,-0.812 0.56,-1.4 0,-1.568 -1.26,-2.38 -3.668,-2.38 h -3.92 z m 2.772,4.438 c 1.358,0 2.002,0.084 2.506,0.294 0.798,0.322 1.176,0.896 1.176,1.764 0,0.756 -0.294,1.302 -0.854,1.624 -0.448,0.252 -1.022,0.364 -1.946,0.364 -0.686,0 -0.882,-0.126 -0.882,-0.574 z m 0,-0.546 v -3.22 c 0.014,-0.308 0.07,-0.392 0.308,-0.406 l 0.616,-0.014 c 1.554,-0.042 2.464,0.672 2.464,1.918 0,1.106 -0.714,1.694 -2.058,1.708 z m 8.23199,-1.316 c -0.42,0 -0.77,0.35 -0.77,0.798 0,0.406 0.35,0.756 0.756,0.756 0.434,0 0.798,-0.336 0.798,-0.756 0,-0.434 -0.364,-0.798 -0.784,-0.798 z m 0,5.026 c -0.42,0 -0.77,0.35 -0.77,0.798 0,0.406 0.35,0.756 0.756,0.756 0.434,0 0.798,-0.336 0.798,-0.756 0,-0.434 -0.364,-0.798 -0.784,-0.798 z m 3.64,1.4 h 3.864 v -0.21 c -1.078,0 -1.316,-0.154 -1.33,-0.826 v -8.4 l -0.112,-0.028 -2.52,1.274 v 0.196 c 0.546,-0.21 0.882,-0.308 1.008,-0.308 0.294,0 0.42,0.21 0.42,0.658 v 6.342 c -0.028,0.882 -0.266,1.078 -1.33,1.092 z"
     id="text31"
     style="font-size:14px;font-family:Times, serif"
     aria-label="B:1" />
  <path
     id="polygon32"
     style="fill:none;stroke:#000000"
     d="m 596.78022,79.226103 v -53 h 32.25 v 53 z" />
  <path
     id="polygon33"
     style="fill:none;stroke:#000000"
     d="m 634.03022,82.226103 v -59 h 24.75 v 59 z" />
  <path
     d="m 642.08422,48.312107 c -2.674,0 -4.578,2.002 -4.578,4.83 0,1.316 0.448,2.604 1.204,3.402 0.812,0.882 2.058,1.428 3.29,1.428 2.758,0 4.662,-1.946 4.662,-4.774 0,-1.386 -0.406,-2.59 -1.176,-3.416 -0.882,-0.966 -2.058,-1.47 -3.402,-1.47 z m 0,0.504 c 0.644,0 1.288,0.252 1.792,0.7 0.756,0.686 1.19,2.002 1.19,3.668 0,0.826 -0.168,1.792 -0.462,2.52 -0.126,0.35 -0.364,0.7 -0.686,1.022 -0.49,0.49 -1.12,0.742 -1.862,0.742 -0.644,0 -1.274,-0.252 -1.778,-0.686 -0.714,-0.644 -1.176,-2.058 -1.176,-3.612 0,-1.428 0.392,-2.786 0.98,-3.444 0.546,-0.602 1.232,-0.91 2.002,-0.91 z m 14.28,8.694 c -0.532,-0.042 -0.812,-0.182 -1.218,-0.658 l -2.884,-3.542 c 1.778,-0.35 2.534,-1.05 2.534,-2.338 0,-0.602 -0.182,-1.12 -0.546,-1.526 -0.532,-0.574 -1.708,-0.938 -3.01,-0.938 h -3.864 v 0.266 c 1.036,0.112 1.176,0.238 1.19,1.26 v 6.062 c -0.014,1.19 -0.14,1.33 -1.19,1.414 v 0.266 h 3.878 v -0.266 c -1.078,-0.07 -1.246,-0.238 -1.26,-1.26 v -2.758 l 0.784,-0.028 3.332,4.312 h 2.254 z m -6.37,-7.98 c 0,-0.392 0.154,-0.504 0.714,-0.504 1.75,0 2.562,0.602 2.562,1.918 0,0.7 -0.294,1.288 -0.798,1.554 -0.644,0.364 -1.134,0.448 -2.478,0.476 z"
     id="text33"
     style="font-size:14px;font-family:Times, serif"
     aria-label="OR" />
  <path
     id="polygon34"
     style="fill:none;stroke:#000000"
     d="m 660.78022,82.226103 v -59 h 36.75 v 59 z" />
  <path
     id="polygon35"
     style="fill:none;stroke:#000000"
     d="m 666.78022,76.226103 v -47 h 24.75 v 47 z" />
  <path
     d="m 677.81622,55.312107 c -0.42,1.498 -0.896,1.876 -2.408,1.932 h -3.598 l 6.048,-8.526 v -0.21 h -7.364 l -0.28,2.394 h 0.364 c 0.238,-1.414 0.742,-1.82 2.352,-1.862 h 3.094 l -6.118,8.526 v 0.21 h 7.896 l 0.336,-2.464 z m 2.618,-3.962 c -0.42,0 -0.77,0.35 -0.77,0.798 0,0.406 0.35,0.756 0.756,0.756 0.434,0 0.798,-0.336 0.798,-0.756 0,-0.434 -0.364,-0.798 -0.784,-0.798 z m 0,5.026 c -0.42,0 -0.77,0.35 -0.77,0.798 0,0.406 0.35,0.756 0.756,0.756 0.434,0 0.798,-0.336 0.798,-0.756 0,-0.434 -0.364,-0.798 -0.784,-0.798 z m 3.64,1.4 h 3.864 v -0.21 c -1.078,0 -1.316,-0.154 -1.33,-0.826 v -8.4 l -0.112,-0.028 -2.52,1.274 v 0.196 c 0.546,-0.21 0.882,-0.308 1.008,-0.308 0.294,0 0.42,0.21 0.42,0.658 v 6.342 c -0.028,0.882 -0.266,1.078 -1.33,1.092 z"
     id="text35"
     style="font-size:14px;font-family:Times, serif"
     aria-label="Z:1" />
  <path
     id="polygon36"
     style="fill:none;stroke:#000000"
     d="m 663.78022,79.226103 v -53 h 30.75 v 53 z" />
  <path
     id="polygon37"
     style="fill:none;stroke:#000000"
     d="m 590.78022,85.226103 v -65 h 109.75 v 65 z" />
  <path
     fill="none"
     stroke="#000000"
     d="m 546.78022,61.726103 c 23.16,0 28.84,3.25 52,3.25"
     id="path37" />
  <path
     id="ellipse38"
     style="stroke:#000000"
     d="m 762.53022,78.726104 a 9,9 0 0 1 -9,9 9,9 0 0 1 -9,-9 9,9 0 0 1 9,-9 9,9 0 0 1 9,9 z" />
  <path
     d="m 751.68222,83.776107 h 3.864 v -0.21 c -1.078,0 -1.316,-0.154 -1.33,-0.826 v -8.4 l -0.112,-0.028 -2.52,1.274 v 0.196 c 0.546,-0.21 0.882,-0.308 1.008,-0.308 0.294,0 0.42,0.21 0.42,0.658 v 6.342 c -0.028,0.882 -0.266,1.078 -1.33,1.092 z"
     id="text38"
     style="font-size:14px;font-family:Times, serif;text-anchor:middle;fill:#ffffff"
     aria-label="1" />
  <path
     id="polygon40"
     style="fill:#00ffff"
     d="M 806.53022,144.2261 V 79.226103 h 120.25 V 144.2261 Z" />
  <path
     id="polygon41"
     style="fill:none;stroke:#000000"
     d="M 809.53022,141.2261 V 82.226103 h 38.25 V 141.2261 Z" />
  <path
     id="polygon42"
     style="fill:none;stroke:#000000"
     d="M 815.53022,110.7261 V 88.226103 h 26.25 V 110.7261 Z" />
  <path
     d="m 828.41422,104.2601 c -0.63,-0.042 -0.77,-0.182 -1.26,-1.218 l -3.486,-7.951993 h -0.28 l -2.912,6.873993 c -0.896,2.044 -1.064,2.268 -1.736,2.296 v 0.266 h 2.772 v -0.266 c -0.672,0 -0.952,-0.168 -0.952,-0.574 0,-0.168 0.042,-0.364 0.112,-0.546 l 0.644,-1.638 h 3.668 l 0.574,1.344 c 0.168,0.378 0.266,0.742 0.266,0.938 0,0.35 -0.238,0.462 -0.98,0.476 v 0.266 h 3.57 z m -6.86,-3.332 1.61,-3.849997 1.624,3.849997 z m 8.988,-2.827997 c -0.42,0 -0.77,0.35 -0.77,0.798 0,0.406 0.35,0.756 0.756,0.756 0.434,0 0.798,-0.336 0.798,-0.756 0,-0.434 -0.364,-0.798 -0.784,-0.798 z m 0,5.025997 c -0.42,0 -0.77,0.35 -0.77,0.798 0,0.406 0.35,0.756 0.756,0.756 0.434,0 0.798,-0.336 0.798,-0.756 0,-0.434 -0.364,-0.798 -0.784,-0.798 z m 3.64,1.4 h 3.864 v -0.21 c -1.078,0 -1.316,-0.154 -1.33,-0.826 v -8.399993 l -0.112,-0.028 -2.52,1.274 v 0.195996 c 0.546,-0.209996 0.882,-0.307996 1.008,-0.307996 0.294,0 0.42,0.209996 0.42,0.657996 v 6.341997 c -0.028,0.882 -0.266,1.078 -1.33,1.092 z"
     id="text42"
     style="font-size:14px;font-family:Times, serif"
     aria-label="A:1" />
  <path
     id="polygon43"
     style="fill:none;stroke:#000000"
     d="m 815.53022,135.2261 v -22.5 h 26.25 v 22.5 z" />
  <path
     d="m 819.14822,120.0241 c 1.176,0.07 1.33,0.21 1.344,1.26 v 6.216 c -0.014,1.05 -0.196,1.218 -1.344,1.26 v 0.266 h 4.676 c 1.078,0 2.086,-0.294 2.604,-0.77 0.504,-0.448 0.784,-1.078 0.784,-1.75 0,-0.616 -0.238,-1.176 -0.686,-1.582 -0.42,-0.378 -0.798,-0.546 -1.708,-0.77 0.728,-0.182 1.022,-0.322 1.358,-0.616 0.35,-0.308 0.56,-0.812 0.56,-1.4 0,-1.568 -1.26,-2.38 -3.668,-2.38 h -3.92 z m 2.772,4.438 c 1.358,0 2.002,0.084 2.506,0.294 0.798,0.322 1.176,0.896 1.176,1.764 0,0.756 -0.294,1.302 -0.854,1.624 -0.448,0.252 -1.022,0.364 -1.946,0.364 -0.686,0 -0.882,-0.126 -0.882,-0.574 z m 0,-0.546 v -3.22 c 0.014,-0.308 0.07,-0.392 0.308,-0.406 l 0.616,-0.014 c 1.554,-0.042 2.464,0.672 2.464,1.918 0,1.106 -0.714,1.694 -2.058,1.708 z m 8.232,-1.316 c -0.42,0 -0.77,0.35 -0.77,0.798 0,0.406 0.35,0.756 0.756,0.756 0.434,0 0.798,-0.336 0.798,-0.756 0,-0.434 -0.364,-0.798 -0.784,-0.798 z m 0,5.026 c -0.42,0 -0.77,0.35 -0.77,0.798 0,0.406 0.35,0.756 0.756,0.756 0.434,0 0.798,-0.336 0.798,-0.756 0,-0.434 -0.364,-0.798 -0.784,-0.798 z m 3.64,1.4 h 3.864 v -0.21 c -1.078,0 -1.316,-0.154 -1.33,-0.826 v -8.4 l -0.112,-0.028 -2.52,1.274 v 0.196 c 0.546,-0.21 0.882,-0.308 1.008,-0.308 0.294,0 0.42,0.21 0.42,0.658 v 6.342 c -0.028,0.882 -0.266,1.078 -1.33,1.092 z"
     id="text43"
     style="font-size:14px;font-family:Times, serif"
     aria-label="B:1" />
  <path
     id="polygon44"
     style="fill:none;stroke:#000000"
     d="M 812.53022,138.2261 V 85.226103 h 32.25 V 138.2261 Z" />
  <path
     id="polygon45"
     style="fill:none;stroke:#000000"
     d="M 849.78022,141.2261 V 82.226103 h 35.25 V 141.2261 Z" />
  <path
     d="m 862.66422,116.5101 c -0.63,-0.042 -0.77,-0.182 -1.26,-1.218 l -3.486,-7.952 h -0.28 l -2.912,6.874 c -0.896,2.044 -1.064,2.268 -1.736,2.296 v 0.266 h 2.772 v -0.266 c -0.672,0 -0.952,-0.168 -0.952,-0.574 0,-0.168 0.042,-0.364 0.112,-0.546 l 0.644,-1.638 h 3.668 l 0.574,1.344 c 0.168,0.378 0.266,0.742 0.266,0.938 0,0.35 -0.238,0.462 -0.98,0.476 v 0.266 h 3.57 z m -6.86,-3.332 1.61,-3.85 1.624,3.85 z m 16.982,-5.67 h -3.29 v 0.266 c 1.12,0.07 1.302,0.308 1.344,1.792 v 4.718 l -5.39,-6.776 h -2.394 v 0.266 c 0.602,0 0.798,0.112 1.358,0.77 v 6.174 c -0.028,1.484 -0.21,1.722 -1.358,1.792 v 0.266 h 3.29 v -0.266 c -1.078,-0.056 -1.288,-0.35 -1.316,-1.792 v -5.488 l 6.188,7.7 h 0.238 v -7.364 c 0.042,-1.456 0.224,-1.694 1.33,-1.792 z m 0.434,9.268 h 3.976 c 1.624,0 3.094,-0.462 3.962,-1.246 0.91,-0.826 1.428,-2.072 1.428,-3.43 0,-1.26 -0.406,-2.352 -1.19,-3.122 -0.952,-0.966 -2.478,-1.47 -4.396,-1.47 h -3.78 v 0.266 c 1.106,0.098 1.218,0.21 1.232,1.26 v 6.216 c -0.014,1.022 -0.182,1.19 -1.232,1.26 z m 2.66,-8.204 c 0,-0.434 0.14,-0.546 0.728,-0.546 1.218,0 2.114,0.224 2.786,0.7 1.092,0.756 1.666,1.96 1.666,3.472 0,1.652 -0.574,2.828 -1.708,3.486 -0.714,0.406 -1.526,0.574 -2.744,0.574 -0.56,0 -0.728,-0.126 -0.728,-0.574 z"
     id="text45"
     style="font-size:14px;font-family:Times, serif"
     aria-label="AND" />
  <path
     id="polygon46"
     style="fill:none;stroke:#000000"
     d="M 887.03022,141.2261 V 82.226103 h 36.75 V 141.2261 Z" />
  <path
     id="polygon47"
     style="fill:none;stroke:#000000"
     d="M 893.03022,135.2261 V 88.226103 h 24.75 V 135.2261 Z" />
  <path
     d="m 904.06622,114.3121 c -0.42,1.498 -0.896,1.876 -2.408,1.932 h -3.598 l 6.048,-8.526 v -0.21 h -7.364 l -0.28,2.394 h 0.364 c 0.238,-1.414 0.742,-1.82 2.352,-1.862 h 3.094 l -6.118,8.526 v 0.21 h 7.896 l 0.336,-2.464 z m 2.618,-3.962 c -0.42,0 -0.77,0.35 -0.77,0.798 0,0.406 0.35,0.756 0.756,0.756 0.434,0 0.798,-0.336 0.798,-0.756 0,-0.434 -0.364,-0.798 -0.784,-0.798 z m 0,5.026 c -0.42,0 -0.77,0.35 -0.77,0.798 0,0.406 0.35,0.756 0.756,0.756 0.434,0 0.798,-0.336 0.798,-0.756 0,-0.434 -0.364,-0.798 -0.784,-0.798 z m 3.64,1.4 h 3.864 v -0.21 c -1.078,0 -1.316,-0.154 -1.33,-0.826 v -8.4 l -0.112,-0.028 -2.52,1.274 v 0.196 c 0.546,-0.21 0.882,-0.308 1.008,-0.308 0.294,0 0.42,0.21 0.42,0.658 v 6.342 c -0.028,0.882 -0.266,1.078 -1.33,1.092 z"
     id="text47"
     style="font-size:14px;font-family:Times, serif"
     aria-label="Z:1" />
  <path
     id="polygon48"
     style="fill:none;stroke:#000000"
     d="M 890.03022,138.2261 V 85.226103 h 30.75 V 138.2261 Z" />
  <path
     id="polygon49"
     style="fill:none;stroke:#000000"
     d="M 806.53022,144.2261 V 79.226103 h 120.25 V 144.2261 Z" />
  <path
     fill="none"
     stroke="#000000"
     d="m 762.53022,78.726103 c 24.88,0 27.12,20.75 52,20.75"
     id="path49" />
  <path
     id="ellipse50"
     style="stroke:#000000"
     d="m 218.65022,122.7261 a 9,9 0 0 1 -9,9 9,9 0 0 1 -9,-9 9,9 0 0 1 9,-9 9,9 0 0 1 9,9 z" />
  <path
     d="m 207.80222,127.7761 h 3.864 v -0.21 c -1.078,0 -1.316,-0.154 -1.33,-0.826 v -8.4 l -0.112,-0.028 -2.52,1.274 v 0.196 c 0.546,-0.21 0.882,-0.308 1.008,-0.308 0.294,0 0.42,0.21 0.42,0.658 v 6.342 c -0.028,0.882 -0.266,1.078 -1.33,1.092 z"
     id="text50"
     style="font-size:14px;font-family:Times, serif;text-anchor:middle;fill:#ffffff"
     aria-label="1" />
  <path
     fill="none"
     stroke="#000000"
     d="m 220.11022,122.7261 c 92.8,0 116,1 208.8,1 0,0 0,0 217.74,0 74.62,0 93.27,0.25 167.88,0.25"
     id="path51" />
  <path
     id="ellipse52"
     style="stroke:#000000"
     d="m 988.78022,111.7261 a 9,9 0 0 1 -9,9 9,9 0 0 1 -9,-9 9,9 0 0 1 9,-9 9,9 0 0 1 9,9 z" />
  <path
     d="m 977.93222,116.7761 h 3.864 v -0.21 c -1.078,0 -1.316,-0.154 -1.33,-0.826 v -8.4 l -0.112,-0.028 -2.52,1.274 v 0.196 c 0.546,-0.21 0.882,-0.308 1.008,-0.308 0.294,0 0.42,0.21 0.42,0.658 v 6.342 c -0.028,0.882 -0.266,1.078 -1.33,1.092 z"
     id="text52"
     style="font-size:14px;font-family:Times, serif;text-anchor:middle;fill:#ffffff"
     aria-label="1" />
  <path
     id="polygon54"
     style="fill:#ffff00"
     d="M 1032.7802,112.9761 V 72.476103 h 108.25 V 112.9761 Z" />
  <path
     id="polygon55"
     style="fill:none;stroke:#000000"
     d="M 1035.7802,109.9761 V 75.476103 h 24.75 V 109.9761 Z" />
  <path
     id="polygon56"
     style="fill:none;stroke:#000000"
     d="M 1041.7802,103.9761 V 81.476103 h 12.75 V 103.9761 Z" />
  <path
     d="m 1046.4322,97.776103 h 3.864 v -0.21 c -1.078,0 -1.316,-0.154 -1.33,-0.826 v -8.399996 l -0.112,-0.028 -2.52,1.274 v 0.196 c 0.546,-0.21 0.882,-0.308 1.008,-0.308 0.294,0 0.42,0.21 0.42,0.658 v 6.341996 c -0.028,0.882 -0.266,1.078 -1.33,1.092 z"
     id="text56"
     style="font-size:14px;font-family:Times, serif"
     aria-label="1" />
  <path
     id="polygon57"
     style="fill:none;stroke:#000000"
     d="M 1038.7802,106.9761 V 78.476103 h 18.75 V 106.9761 Z" />
  <path
     id="polygon58"
     style="fill:none;stroke:#000000"
     d="M 1062.5302,109.9761 V 75.476103 h 48.75 V 109.9761 Z" />
  <path
     d="m 1072.4042,96.964103 c -0.182,0.014 -0.266,0.014 -0.322,0.014 -0.49,0 -0.616,-0.154 -0.616,-0.797996 v -7.938 l -0.07,-0.028 c -0.658,0.224 -1.134,0.378 -2.058,0.616 v 0.224 c 0.112,-0.014 0.182,-0.014 0.308,-0.014 0.518,0 0.644,0.14 0.644,0.714 v 2.184 c -0.532,-0.448 -0.91,-0.602 -1.47,-0.602 -1.61,0 -2.912,1.582 -2.912,3.57 0,1.791996 1.036,3.009996 2.59,3.009996 0.784,0 1.316,-0.28 1.792,-0.938 v 0.896 l 0.056,0.042 2.058,-0.728 z m -2.114,-0.615996 c 0,0.098 -0.098,0.265996 -0.238,0.419996 -0.238,0.28 -0.602,0.42 -1.008,0.42 -1.176,0 -1.932,-1.119996 -1.932,-2.855996 0,-1.568 0.686,-2.604 1.75,-2.604 0.756,0 1.428,0.658 1.428,1.4 z m 7.952,-0.868 c -0.672,1.063996 -1.274,1.469996 -2.17,1.469996 -0.798,0 -1.4,-0.406 -1.806,-1.203996 -0.252,-0.532 -0.35,-0.98 -0.378,-1.848 h 4.312 c -0.112,-0.91 -0.252,-1.316 -0.602,-1.764 -0.42,-0.504 -1.064,-0.798 -1.792,-0.798 -0.7,0 -1.358,0.252 -1.89,0.728 -0.658,0.574 -1.036,1.568 -1.036,2.716 0,1.931996 1.008,3.135996 2.618,3.135996 1.33,0 2.38,-0.826 2.968,-2.337996 z m -4.326,-2.03 c 0.154,-1.092 0.63,-1.61 1.484,-1.61 0.854,0 1.19,0.392 1.372,1.61 z m 4.816,4.325996 h 3.304 v -0.21 c -0.882,-0.042 -1.036,-0.182 -1.05,-0.966 v -8.357996 l -0.056,-0.028 c -0.714,0.224 -1.232,0.378 -2.226,0.616 v 0.224 h 0.084 c 0.154,-0.014 0.322,-0.028 0.434,-0.028 0.448,0 0.588,0.196 0.588,0.854 v 6.677996 c -0.014,0.756 -0.21,0.952 -1.078,1.008 z m 9.786,-0.924 c -0.238,0.196 -0.406,0.266 -0.616,0.266 -0.322,0 -0.42,-0.196 -0.42,-0.811996 v -2.73 c 0,-0.728 -0.07,-1.134 -0.28,-1.47 -0.308,-0.504 -0.91,-0.77 -1.736,-0.77 -1.316,0 -2.352,0.686 -2.352,1.568 0,0.322 0.266,0.602 0.602,0.602 0.336,0 0.63,-0.28 0.63,-0.588 0,-0.056 -0.014,-0.126 -0.028,-0.224 -0.028,-0.126 -0.042,-0.238 -0.042,-0.336 0,-0.378 0.448,-0.686 1.008,-0.686 0.686,0 1.064,0.406 1.064,1.162 v 0.854 c -2.142,0.854 -2.394,0.98 -2.996,1.512 -0.308,0.28 -0.504,0.756 -0.504,1.217996 0,0.882 0.616,1.498 1.47,1.498 0.616,0 1.19,-0.294 2.044,-1.022 0.07,0.742 0.322,1.022 0.896,1.022 0.476,0 0.77,-0.168 1.26,-0.7 z m -2.17,-0.797996 c 0,0.419996 -0.07,0.573996 -0.364,0.741996 -0.35,0.196 -0.728,0.308 -1.022,0.308 -0.49,0 -0.882,-0.476 -0.882,-1.077996 v -0.056 c 0.014,-0.84 0.63,-1.372 2.268,-1.946 z m 8.302,-4.578 h -1.89 v 0.21 c 0.448,0 0.672,0.126 0.672,0.35 0,0.056 -0.014,0.14 -0.056,0.238 l -1.358,3.864 -1.61,-3.542 c -0.084,-0.196 -0.14,-0.392 -0.14,-0.532 0,-0.252 0.21,-0.35 0.812,-0.378 v -0.21 h -2.884 v 0.196 c 0.364,0.056 0.602,0.21 0.714,0.448 l 1.596,3.444 c 0.168,0.378 0.182,0.392 0.252,0.532 0.392,0.699996 0.616,1.217996 0.616,1.427996 0,0.224 -0.322,1.078 -0.56,1.512 -0.21,0.35 -0.504,0.616 -0.7,0.616 -0.084,0 -0.21,-0.028 -0.364,-0.098 -0.252,-0.098 -0.504,-0.154 -0.728,-0.154 -0.336,0 -0.602,0.266 -0.602,0.615997 0,0.462 0.434,0.812 1.036,0.812 0.952,0 1.596,-0.77 2.366,-2.799997 l 2.156,-5.711996 c 0.182,-0.448 0.336,-0.588 0.672,-0.63 z m 7.336,8.147996 v -0.7 h -6.958 v 0.7 z m 1.666,-1.848 h 3.864 v -0.21 c -1.078,0 -1.316,-0.154 -1.33,-0.826 v -8.399996 l -0.112,-0.028 -2.52,1.274 v 0.196 c 0.546,-0.21 0.882,-0.308 1.008,-0.308 0.294,0 0.42,0.21 0.42,0.658 v 6.341996 c -0.028,0.882 -0.266,1.078 -1.33,1.092 z"
     id="text58"
     style="font-size:14px;font-family:Times, serif"
     aria-label="delay_1" />
  <path
     id="polygon59"
     style="fill:none;stroke:#000000"
     d="M 1113.2802,109.9761 V 75.476103 h 24.75 V 109.9761 Z" />
  <path
     id="polygon60"
     style="fill:none;stroke:#000000"
     d="M 1119.2802,103.9761 V 81.476103 h 12.75 V 103.9761 Z" />
  <path
     d="m 1123.9322,97.776103 h 3.864 v -0.21 c -1.078,0 -1.316,-0.154 -1.33,-0.826 v -8.399996 l -0.112,-0.028 -2.52,1.274 v 0.196 c 0.546,-0.21 0.882,-0.308 1.008,-0.308 0.294,0 0.42,0.21 0.42,0.658 v 6.341996 c -0.028,0.882 -0.266,1.078 -1.33,1.092 z"
     id="text60"
     style="font-size:14px;font-family:Times, serif"
     aria-label="1" />
  <path
     id="polygon61"
     style="fill:none;stroke:#000000"
     d="M 1116.2802,106.9761 V 78.476103 h 18.75 V 106.9761 Z" />
  <path
     id="polygon62"
     style="fill:none;stroke:#000000"
     d="M 1032.7802,112.9761 V 72.476103 h 108.25 V 112.9761 Z" />
  <path
     fill="none"
     stroke="#000000"
     d="m 988.78022,111.7261 c 24.60998,0 27.38998,-18.999997 51.99998,-18.999997"
     id="path62" />
  <path
     id="polygon64"
     style="fill:#808080"
     d="m 1193.0302,164.9761 v -40.5 h 42.75 v 40.5 z" />
  <path
     id="polygon65"
     style="fill:none;stroke:#000000"
     d="m 1196.0302,161.9761 v -34.5 h 36.75 v 34.5 z" />
  <path
     id="polygon66"
     style="fill:none;stroke:#000000"
     d="m 1202.0302,155.9761 v -22.5 h 24.75 v 22.5 z" />
  <path
     d="m 1213.0662,147.3121 c -0.42,1.498 -0.896,1.876 -2.408,1.932 h -3.598 l 6.048,-8.526 v -0.21 h -7.364 l -0.28,2.394 h 0.364 c 0.238,-1.414 0.742,-1.82 2.352,-1.862 h 3.094 l -6.118,8.526 v 0.21 h 7.896 l 0.336,-2.464 z m 2.618,-3.962 c -0.42,0 -0.77,0.35 -0.77,0.798 0,0.406 0.35,0.756 0.756,0.756 0.434,0 0.798,-0.336 0.798,-0.756 0,-0.434 -0.364,-0.798 -0.784,-0.798 z m 0,5.026 c -0.42,0 -0.77,0.35 -0.77,0.798 0,0.406 0.35,0.756 0.756,0.756 0.434,0 0.798,-0.336 0.798,-0.756 0,-0.434 -0.364,-0.798 -0.784,-0.798 z m 3.64,1.4 h 3.864 v -0.21 c -1.078,0 -1.316,-0.154 -1.33,-0.826 v -8.4 l -0.112,-0.028 -2.52,1.274 v 0.196 c 0.546,-0.21 0.882,-0.308 1.008,-0.308 0.294,0 0.42,0.21 0.42,0.658 v 6.342 c -0.028,0.882 -0.266,1.078 -1.33,1.092 z"
     id="text66"
     style="font-size:14px;font-family:Times, serif"
     aria-label="Z:1" />
  <path
     id="polygon67"
     style="fill:none;stroke:#000000"
     d="m 1199.0302,158.9761 v -28.5 h 30.75 v 28.5 z" />
  <path
     id="polygon68"
     style="fill:none;stroke:#000000"
     d="m 1193.0302,164.9761 v -40.5 h 42.75 v 40.5 z" />
  <path
     fill="none"
     stroke="#000000"
     d="m 988.78022,111.7261 c 17.16998,0 19.31998,9.93 35.99998,14 76.55,18.66 97.46,19 176.25,19"
     id="path68" />
  <path
     id="ellipse69"
     style="stroke:#000000"
     d="m 1223.4102,66.726104 a 9,9 0 0 1 -9,9 9,9 0 0 1 -9,-9 9,9 0 0 1 9,-9 9,9 0 0 1 9,9 z" />
  <path
     d="m 1212.5622,71.776107 h 3.864 v -0.21 c -1.078,0 -1.316,-0.154 -1.33,-0.826 v -8.4 l -0.112,-0.028 -2.52,1.274 v 0.196 c 0.546,-0.21 0.882,-0.308 1.008,-0.308 0.294,0 0.42,0.21 0.42,0.658 v 6.342 c -0.028,0.882 -0.266,1.078 -1.33,1.092 z"
     id="text69"
     style="font-size:14px;font-family:Times, serif;text-anchor:middle;fill:#ffffff"
     aria-label="1" />
  <path
     fill="none"
     stroke="#000000"
     d="m 1224.8602,66.726103 c 4.03,0 1.91,-6.21 -1,-9 -78.12,-75 -134.78,-17 -243.07998,-17 -115.13,0 -115.13,0 -115.13,0 -70.67,0 -86.65,-19.04 -157.12,-24.5 -48.19,-3.73 -73.88,-33.47 -108.75,0 -7.78,7.47 -11.79,24.25 -1,24.25"
     id="path70" />
  <path
     fill="none"
     stroke="#000000"
     d="m 261.03022,33.726103 c 23.32,0 28.68,7 52,7"
     id="path71" />
  <path
     fill="none"
     stroke="#000000"
     d="m 476.78022,58.726103 c 23.15,0 28.85,3 52,3"
     id="path72" />
  <path
     fill="none"
     stroke="#000000"
     d="m 692.53022,52.726103 c 25.84,0 26.16,26 52,26"
     id="path73" />
  <path
     fill="none"
     stroke="#000000"
     d="m 918.78022,111.7261 c 23.11,0 28.89,0 52,0"
     id="path74" />
  <path
     fill="none"
     stroke="#000000"
     d="m 1133.0302,92.726103 c 33.57,0 37.35,-26 70.92,-26"
     id="path75" />
  <path
     id="polygon77"
     style="fill:#808080"
     d="M 0.03022388,137.2261 V 72.226103 H 44.280224 V 137.2261 Z" />
  <path
     id="polygon78"
     style="fill:none;stroke:#000000"
     d="M 3.0302239,134.2261 V 75.226103 H 41.280224 V 134.2261 Z" />
  <path
     id="polygon79"
     style="fill:none;stroke:#000000"
     d="M 9.0302239,103.7261 V 81.226103 H 35.280224 V 103.7261 Z" />
  <path
     d="m 21.914224,97.260103 c -0.63,-0.042 -0.77,-0.182 -1.26,-1.217996 l -3.486,-7.952 h -0.28 l -2.912,6.874 c -0.896,2.043996 -1.064,2.267996 -1.736,2.295996 v 0.266 h 2.772 v -0.266 c -0.672,0 -0.952,-0.168 -0.952,-0.574 0,-0.168 0.042,-0.363996 0.112,-0.545996 l 0.644,-1.638 h 3.668 l 0.574,1.344 c 0.168,0.378 0.266,0.741996 0.266,0.937996 0,0.35 -0.238,0.462 -0.98,0.476 v 0.266 h 3.57 z m -6.86,-3.331996 1.61,-3.85 1.624,3.85 z m 8.988002,-2.828 c -0.42,0 -0.77,0.35 -0.77,0.798 0,0.406 0.35,0.756 0.756,0.756 0.434,0 0.798,-0.336 0.798,-0.756 0,-0.434 -0.364,-0.798 -0.784,-0.798 z m 0,5.026 c -0.42,0 -0.77,0.349996 -0.77,0.797996 0,0.406 0.35,0.756 0.756,0.756 0.434,0 0.798,-0.336 0.798,-0.756 0,-0.434 -0.364,-0.797996 -0.784,-0.797996 z m 3.639998,1.399996 h 3.864 v -0.21 c -1.078,0 -1.316,-0.154 -1.33,-0.826 v -8.399996 l -0.112,-0.028 -2.52,1.274 v 0.196 c 0.546,-0.21 0.882,-0.308 1.008,-0.308 0.294,0 0.42,0.21 0.42,0.658 v 6.342 c -0.028,0.881996 -0.266,1.077996 -1.33,1.091996 z"
     id="text79"
     style="font-size:14px;font-family:Times, serif"
     aria-label="A:1" />
  <path
     id="polygon80"
     style="fill:none;stroke:#000000"
     d="m 9.0302239,128.2261 v -22.5 H 35.280224 v 22.5 z" />
  <path
     d="m 12.648223,113.0241 c 1.176,0.07 1.33,0.21 1.344,1.26 v 6.216 c -0.014,1.05 -0.196,1.218 -1.344,1.26 v 0.266 h 4.676 c 1.078,0 2.086,-0.294 2.604,-0.77 0.504,-0.448 0.784,-1.078 0.784,-1.75 0,-0.616 -0.238,-1.176 -0.686,-1.582 -0.42,-0.378 -0.798,-0.546 -1.708,-0.77 0.728,-0.182 1.022,-0.322 1.358,-0.616 0.35,-0.308 0.56,-0.812 0.56,-1.4 0,-1.568 -1.26,-2.38 -3.668,-2.38 h -3.92 z m 2.772,4.438 c 1.358,0 2.002,0.084 2.506,0.294 0.798,0.322 1.176,0.896 1.176,1.764 0,0.756 -0.294,1.302 -0.854,1.624 -0.448,0.252 -1.022,0.364 -1.946,0.364 -0.686,0 -0.882,-0.126 -0.882,-0.574 z m 0,-0.546 v -3.22 c 0.014,-0.308 0.07,-0.392 0.308,-0.406 l 0.616,-0.014 c 1.554,-0.042 2.464,0.672 2.464,1.918 0,1.106 -0.714,1.694 -2.058,1.708 z m 8.231998,-1.316 c -0.42,0 -0.77,0.35 -0.77,0.798 0,0.406 0.35,0.756 0.756,0.756 0.434,0 0.798,-0.336 0.798,-0.756 0,-0.434 -0.364,-0.798 -0.784,-0.798 z m 0,5.026 c -0.42,0 -0.77,0.35 -0.77,0.798 0,0.406 0.35,0.756 0.756,0.756 0.434,0 0.798,-0.336 0.798,-0.756 0,-0.434 -0.364,-0.798 -0.784,-0.798 z m 3.639998,1.4 h 3.864 v -0.21 c -1.078,0 -1.316,-0.154 -1.33,-0.826 v -8.4 l -0.112,-0.028 -2.52,1.274 v 0.196 c 0.546,-0.21 0.882,-0.308 1.008,-0.308 0.294,0 0.42,0.21 0.42,0.658 v 6.342 c -0.028,0.882 -0.266,1.078 -1.33,1.092 z"
     id="text80"
     style="font-size:14px;font-family:Times, serif"
     aria-label="B:1" />
  <path
     id="polygon81"
     style="fill:none;stroke:#000000"
     d="M 6.0302239,131.2261 V 78.226103 H 38.280224 V 131.2261 Z" />
  <path
     id="polygon82"
     style="fill:none;stroke:#000000"
     d="M 0.03022388,137.2261 V 72.226103 H 44.280224 V 137.2261 Z" />
  <path
     fill="none"
     stroke="#000000"
     d="m 36.280224,92.476103 c 23.31,0 28.69,-6.75 52,-6.75"
     id="path82" />
  <path
     fill="none"
     stroke="#000000"
     d="m 36.280224,116.9761 c 72.449996,0 90.459996,5.75 162.919996,5.75"
     id="path83" />
</svg>
