<?xml version="1.0" encoding="UTF-8" standalone="no"?>
<!-- Generated by graphviz version 11.0.0 (0)
 -->

<!-- Title: circuit Pages: 1 -->

<svg
   width="797pt"
   height="274.91821pt"
   viewBox="0 0 797 274.6707"
   version="1.1"
   id="svg84"
   sodipodi:docname="rewrite-2.svg"
   inkscape:version="1.3.2 (091e20ef0f, 2023-11-25, custom)"
   xmlns:inkscape="http://www.inkscape.org/namespaces/inkscape"
   xmlns:sodipodi="http://sodipodi.sourceforge.net/DTD/sodipodi-0.dtd"
   xmlns="http://www.w3.org/2000/svg"
   xmlns:svg="http://www.w3.org/2000/svg">
  <defs
     id="defs84" />
  <sodipodi:namedview
     id="namedview84"
     pagecolor="#ffffff"
     bordercolor="#000000"
     borderopacity="0.25"
     inkscape:showpageshadow="2"
     inkscape:pageopacity="0.0"
     inkscape:pagecheckerboard="0"
     inkscape:deskcolor="#d1d1d1"
     inkscape:document-units="pt"
     inkscape:zoom="1.8356707"
     inkscape:cx="531.41339"
     inkscape:cy="202.10596"
     inkscape:window-width="2560"
     inkscape:window-height="1380"
     inkscape:window-x="1920"
     inkscape:window-y="32"
     inkscape:window-maximized="1"
     inkscape:current-layer="svg84" />
  <path
     id="ellipse2"
     style="stroke:#000000"
     d="m 106,62.028217 a 9,9 0 0 1 -9,9 9,9 0 0 1 -9,-9 9,9 0 0 1 9,-9 9,9 0 0 1 9,9 z" />
  <path
     d="m 95.152,67.07822 h 3.864 v -0.21 c -1.078,0 -1.316,-0.154 -1.33,-0.826 v -8.4 l -0.112,-0.028 -2.52,1.274 v 0.196 c 0.546,-0.21 0.882,-0.308 1.008,-0.308 0.294,0 0.42,0.21 0.42,0.658 v 6.342 c -0.028,0.882 -0.266,1.078 -1.33,1.092 z"
     id="text2"
     style="font-size:14px;font-family:Times, serif;text-anchor:middle;fill:#ffffff"
     aria-label="1" />
  <path
     id="polygon4"
     style="fill:#00ffff"
     d="m 150,82.528216 v -65 h 120.25 v 65 z" />
  <path
     id="polygon5"
     style="fill:none;stroke:#000000"
     d="m 153,79.528216 v -59 h 38.25 v 59 z" />
  <path
     id="polygon6"
     style="fill:none;stroke:#000000"
     d="m 159,49.028216 v -22.5 h 26.25 v 22.5 z" />
  <path
     d="m 171.884,42.562205 c -0.63,-0.042 -0.77,-0.182 -1.26,-1.218 l -3.486,-7.952 h -0.28 l -2.912,6.874 c -0.896,2.044 -1.064,2.268 -1.736,2.296 v 0.266 h 2.772 v -0.266 c -0.672,0 -0.952,-0.168 -0.952,-0.574 0,-0.168 0.042,-0.364 0.112,-0.546 l 0.644,-1.638 h 3.668 l 0.574,1.344 c 0.168,0.378 0.266,0.742 0.266,0.938 0,0.35 -0.238,0.462 -0.98,0.476 v 0.266 h 3.57 z m -6.86,-3.332 1.61,-3.85 1.624,3.85 z m 8.988,-2.828 c -0.42,0 -0.77,0.35 -0.77,0.798 0,0.406 0.35,0.756 0.756,0.756 0.434,0 0.798,-0.336 0.798,-0.756 0,-0.434 -0.364,-0.798 -0.784,-0.798 z m 0,5.026 c -0.42,0 -0.77,0.35 -0.77,0.798 0,0.406 0.35,0.756 0.756,0.756 0.434,0 0.798,-0.336 0.798,-0.756 0,-0.434 -0.364,-0.798 -0.784,-0.798 z m 3.64,1.4 h 3.864 v -0.21 c -1.078,0 -1.316,-0.154 -1.33,-0.826 v -8.4 l -0.112,-0.028 -2.52,1.274 v 0.196 c 0.546,-0.21 0.882,-0.308 1.008,-0.308 0.294,0 0.42,0.21 0.42,0.658 v 6.342 c -0.028,0.882 -0.266,1.078 -1.33,1.092 z"
     id="text6"
     style="font-size:14px;font-family:Times, serif"
     aria-label="A:1" />
  <path
     id="polygon7"
     style="fill:none;stroke:#000000"
     d="m 159,73.528216 v -22.5 h 26.25 v 22.5 z" />
  <path
     d="m 162.618,58.32622 c 1.176,0.07 1.33,0.21 1.344,1.26 v 6.216 c -0.014,1.05 -0.196,1.218 -1.344,1.26 v 0.266 h 4.676 c 1.078,0 2.086,-0.294 2.604,-0.77 0.504,-0.448 0.784,-1.078 0.784,-1.75 0,-0.616 -0.238,-1.176 -0.686,-1.582 -0.42,-0.378 -0.798,-0.546 -1.708,-0.77 0.728,-0.182 1.022,-0.322 1.358,-0.616 0.35,-0.308 0.56,-0.812 0.56,-1.4 0,-1.568 -1.26,-2.38 -3.668,-2.38 h -3.92 z m 2.772,4.438 c 1.358,0 2.002,0.084 2.506,0.294 0.798,0.322 1.176,0.896 1.176,1.764 0,0.756 -0.294,1.302 -0.854,1.624 -0.448,0.252 -1.022,0.364 -1.946,0.364 -0.686,0 -0.882,-0.126 -0.882,-0.574 z m 0,-0.546 v -3.22 c 0.014,-0.308 0.07,-0.392 0.308,-0.406 l 0.616,-0.014 c 1.554,-0.042 2.464,0.672 2.464,1.918 0,1.106 -0.714,1.694 -2.058,1.708 z m 8.232,-1.316 c -0.42,0 -0.77,0.35 -0.77,0.798 0,0.406 0.35,0.756 0.756,0.756 0.434,0 0.798,-0.336 0.798,-0.756 0,-0.434 -0.364,-0.798 -0.784,-0.798 z m 0,5.026 c -0.42,0 -0.77,0.35 -0.77,0.798 0,0.406 0.35,0.756 0.756,0.756 0.434,0 0.798,-0.336 0.798,-0.756 0,-0.434 -0.364,-0.798 -0.784,-0.798 z m 3.64,1.4 h 3.864 v -0.21 c -1.078,0 -1.316,-0.154 -1.33,-0.826 v -8.4 l -0.112,-0.028 -2.52,1.274 v 0.196 c 0.546,-0.21 0.882,-0.308 1.008,-0.308 0.294,0 0.42,0.21 0.42,0.658 v 6.342 c -0.028,0.882 -0.266,1.078 -1.33,1.092 z"
     id="text7"
     style="font-size:14px;font-family:Times, serif"
     aria-label="B:1" />
  <path
     id="polygon8"
     style="fill:none;stroke:#000000"
     d="m 156,76.528216 v -53 h 32.25 v 53 z" />
  <path
     id="polygon9"
     style="fill:none;stroke:#000000"
     d="m 193.25,79.528216 v -59 h 35.25 v 59 z" />
  <path
     d="m 206.134,54.81222 c -0.63,-0.042 -0.77,-0.182 -1.26,-1.218 l -3.486,-7.952 h -0.28 l -2.912,6.874 c -0.896,2.044 -1.064,2.268 -1.736,2.296 v 0.266 h 2.772 v -0.266 c -0.672,0 -0.952,-0.168 -0.952,-0.574 0,-0.168 0.042,-0.364 0.112,-0.546 l 0.644,-1.638 h 3.668 l 0.574,1.344 c 0.168,0.378 0.266,0.742 0.266,0.938 0,0.35 -0.238,0.462 -0.98,0.476 v 0.266 h 3.57 z m -6.86,-3.332 1.61,-3.85 1.624,3.85 z m 16.982,-5.67 h -3.29 v 0.266 c 1.12,0.07 1.302,0.308 1.344,1.792 v 4.718 l -5.39,-6.776 h -2.394 v 0.266 c 0.602,0 0.798,0.112 1.358,0.77 v 6.174 c -0.028,1.484 -0.21,1.722 -1.358,1.792 v 0.266 h 3.29 v -0.266 c -1.078,-0.056 -1.288,-0.35 -1.316,-1.792 v -5.488 l 6.188,7.7 h 0.238 v -7.364 c 0.042,-1.456 0.224,-1.694 1.33,-1.792 z m 0.434,9.268 h 3.976 c 1.624,0 3.094,-0.462 3.962,-1.246 0.91,-0.826 1.428,-2.072 1.428,-3.43 0,-1.26 -0.406,-2.352 -1.19,-3.122 -0.952,-0.966 -2.478,-1.47 -4.396,-1.47 h -3.78 v 0.266 c 1.106,0.098 1.218,0.21 1.232,1.26 v 6.216 c -0.014,1.022 -0.182,1.19 -1.232,1.26 z m 2.66,-8.204 c 0,-0.434 0.14,-0.546 0.728,-0.546 1.218,0 2.114,0.224 2.786,0.7 1.092,0.756 1.666,1.96 1.666,3.472 0,1.652 -0.574,2.828 -1.708,3.486 -0.714,0.406 -1.526,0.574 -2.744,0.574 -0.56,0 -0.728,-0.126 -0.728,-0.574 z"
     id="text9"
     style="font-size:14px;font-family:Times, serif"
     aria-label="AND" />
  <path
     id="polygon10"
     style="fill:none;stroke:#000000"
     d="m 230.5,79.528216 v -59 h 36.75 v 59 z" />
  <path
     id="polygon11"
     style="fill:none;stroke:#000000"
     d="m 236.5,73.528216 v -47 h 24.75 v 47 z" />
  <path
     d="m 247.536,52.61422 c -0.42,1.498 -0.896,1.876 -2.408,1.932 h -3.598 l 6.048,-8.526 v -0.21 h -7.364 l -0.28,2.394 h 0.364 c 0.238,-1.414 0.742,-1.82 2.352,-1.862 h 3.094 l -6.118,8.526 v 0.21 h 7.896 l 0.336,-2.464 z m 2.618,-3.962 c -0.42,0 -0.77,0.35 -0.77,0.798 0,0.406 0.35,0.756 0.756,0.756 0.434,0 0.798,-0.336 0.798,-0.756 0,-0.434 -0.364,-0.798 -0.784,-0.798 z m 0,5.026 c -0.42,0 -0.77,0.35 -0.77,0.798 0,0.406 0.35,0.756 0.756,0.756 0.434,0 0.798,-0.336 0.798,-0.756 0,-0.434 -0.364,-0.798 -0.784,-0.798 z m 3.64,1.4 h 3.864 v -0.21 c -1.078,0 -1.316,-0.154 -1.33,-0.826 v -8.4 l -0.112,-0.028 -2.52,1.274 v 0.196 c 0.546,-0.21 0.882,-0.308 1.008,-0.308 0.294,0 0.42,0.21 0.42,0.658 v 6.342 c -0.028,0.882 -0.266,1.078 -1.33,1.092 z"
     id="text11"
     style="font-size:14px;font-family:Times, serif"
     aria-label="Z:1" />
  <path
     id="polygon12"
     style="fill:none;stroke:#000000"
     d="m 233.5,76.528216 v -53 h 30.75 v 53 z" />
  <path
     id="polygon13"
     style="fill:none;stroke:#000000"
     d="m 150,82.528216 v -65 h 120.25 v 65 z" />
  <path
     fill="none"
     stroke="#000000"
     d="m 106,62.028216 c 23.11,0 28.89,0.25 52,0.25"
     id="path13" />
  <path
     id="ellipse14"
     style="stroke:#000000"
     d="m 332.25,71.028217 a 9,9 0 0 1 -9,9 9,9 0 0 1 -9,-9 9,9 0 0 1 9,-9 9,9 0 0 1 9,9 z" />
  <path
     d="m 321.402,76.07822 h 3.864 v -0.21 c -1.078,0 -1.316,-0.154 -1.33,-0.826 v -8.4 l -0.112,-0.028 -2.52,1.274 v 0.196 c 0.546,-0.21 0.882,-0.308 1.008,-0.308 0.294,0 0.42,0.21 0.42,0.658 v 6.342 c -0.028,0.882 -0.266,1.078 -1.33,1.092 z"
     id="text14"
     style="font-size:14px;font-family:Times, serif;text-anchor:middle;fill:#ffffff"
     aria-label="1" />
  <path
     id="polygon16"
     style="fill:#ffff00"
     d="m 377,91.278216 v -40.5 h 108.25 v 40.5 z" />
  <path
     id="polygon17"
     style="fill:none;stroke:#000000"
     d="m 380,88.278216 v -34.5 h 24.75 v 34.5 z" />
  <path
     id="polygon18"
     style="fill:none;stroke:#000000"
     d="m 386,82.278216 v -22.5 h 12.75 v 22.5 z" />
  <path
     d="m 390.652,76.07822 h 3.864 v -0.21 c -1.078,0 -1.316,-0.154 -1.33,-0.826 v -8.4 l -0.112,-0.028 -2.52,1.274 v 0.196 c 0.546,-0.21 0.882,-0.308 1.008,-0.308 0.294,0 0.42,0.21 0.42,0.658 v 6.342 c -0.028,0.882 -0.266,1.078 -1.33,1.092 z"
     id="text18"
     style="font-size:14px;font-family:Times, serif"
     aria-label="1" />
  <path
     id="polygon19"
     style="fill:none;stroke:#000000"
     d="m 383,85.278216 v -28.5 h 18.75 v 28.5 z" />
  <path
     id="polygon20"
     style="fill:none;stroke:#000000"
     d="m 406.75,88.278216 v -34.5 h 48.75 v 34.5 z" />
  <path
     d="m 416.624,75.26622 c -0.182,0.014 -0.266,0.014 -0.322,0.014 -0.49,0 -0.616,-0.154 -0.616,-0.798 v -7.938 l -0.07,-0.028 c -0.658,0.224 -1.134,0.378 -2.058,0.616 v 0.224 c 0.112,-0.014 0.182,-0.014 0.308,-0.014 0.518,0 0.644,0.14 0.644,0.714 v 2.184 c -0.532,-0.448 -0.91,-0.602 -1.47,-0.602 -1.61,0 -2.912,1.582 -2.912,3.57 0,1.792 1.036,3.01 2.59,3.01 0.784,0 1.316,-0.28 1.792,-0.938 v 0.896 l 0.056,0.042 2.058,-0.728 z m -2.114,-0.616 c 0,0.098 -0.098,0.266 -0.238,0.42 -0.238,0.28 -0.602,0.42 -1.008,0.42 -1.176,0 -1.932,-1.12 -1.932,-2.856 0,-1.568 0.686,-2.604 1.75,-2.604 0.756,0 1.428,0.658 1.428,1.4 z m 7.952,-0.868 c -0.672,1.064 -1.274,1.47 -2.17,1.47 -0.798,0 -1.4,-0.406 -1.806,-1.204 -0.252,-0.532 -0.35,-0.98 -0.378,-1.848 h 4.312 c -0.112,-0.91 -0.252,-1.316 -0.602,-1.764 -0.42,-0.504 -1.064,-0.798 -1.792,-0.798 -0.7,0 -1.358,0.252 -1.89,0.728 -0.658,0.574 -1.036,1.568 -1.036,2.716 0,1.932 1.008,3.136 2.618,3.136 1.33,0 2.38,-0.826 2.968,-2.338 z m -4.326,-2.03 c 0.154,-1.092 0.63,-1.61 1.484,-1.61 0.854,0 1.19,0.392 1.372,1.61 z m 4.81601,4.326 h 3.304 v -0.21 c -0.882,-0.042 -1.036,-0.182 -1.05,-0.966 v -8.358 l -0.056,-0.028 c -0.714,0.224 -1.232,0.378 -2.226,0.616 v 0.224 h 0.084 c 0.154,-0.014 0.322,-0.028 0.434,-0.028 0.448,0 0.588,0.196 0.588,0.854 v 6.678 c -0.014,0.756 -0.21,0.952 -1.078,1.008 z m 9.786,-0.924 c -0.238,0.196 -0.406,0.266 -0.616,0.266 -0.322,0 -0.42,-0.196 -0.42,-0.812 v -2.73 c 0,-0.728 -0.07,-1.134 -0.28,-1.47 -0.308,-0.504 -0.91,-0.77 -1.736,-0.77 -1.316,0 -2.352,0.686 -2.352,1.568 0,0.322 0.266,0.602 0.602,0.602 0.336,0 0.63,-0.28 0.63,-0.588 0,-0.056 -0.014,-0.126 -0.028,-0.224 -0.028,-0.126 -0.042,-0.238 -0.042,-0.336 0,-0.378 0.448,-0.686 1.008,-0.686 0.686,0 1.064,0.406 1.064,1.162 v 0.854 c -2.142,0.854 -2.394,0.98 -2.996,1.512 -0.308,0.28 -0.504,0.756 -0.504,1.218 0,0.882 0.616,1.498 1.47,1.498 0.616,0 1.19,-0.294 2.044,-1.022 0.07,0.742 0.322,1.022 0.896,1.022 0.476,0 0.77,-0.168 1.26,-0.7 z m -2.17,-0.798 c 0,0.42 -0.07,0.574 -0.364,0.742 -0.35,0.196 -0.728,0.308 -1.022,0.308 -0.49,0 -0.882,-0.476 -0.882,-1.078 v -0.056 c 0.014,-0.84 0.63,-1.372 2.268,-1.946 z m 8.30201,-4.578 h -1.89 v 0.21 c 0.448,0 0.672,0.126 0.672,0.35 0,0.056 -0.014,0.14 -0.056,0.238 l -1.358,3.864 -1.61,-3.542 c -0.084,-0.196 -0.14,-0.392 -0.14,-0.532 0,-0.252 0.21,-0.35 0.812,-0.378 v -0.21 h -2.884 v 0.196 c 0.364,0.056 0.602,0.21 0.714,0.448 l 1.596,3.444 c 0.168,0.378 0.182,0.392 0.252,0.532 0.392,0.7 0.616,1.218 0.616,1.428 0,0.224 -0.322,1.078 -0.56,1.512 -0.21,0.35 -0.504,0.616 -0.7,0.616 -0.084,0 -0.21,-0.028 -0.364,-0.098 -0.252,-0.098 -0.504,-0.154 -0.728,-0.154 -0.336,0 -0.602,0.266 -0.602,0.616 0,0.462 0.434,0.812 1.036,0.812 0.952,0 1.596,-0.77 2.366,-2.8 l 2.156,-5.712 c 0.182,-0.448 0.336,-0.588 0.672,-0.63 z m 7.336,8.148 v -0.7 h -6.958 v 0.7 z m 1.666,-1.848 h 3.864 v -0.21 c -1.078,0 -1.316,-0.154 -1.33,-0.826 v -8.4 l -0.112,-0.028 -2.52,1.274 v 0.196 c 0.546,-0.21 0.882,-0.308 1.008,-0.308 0.294,0 0.42,0.21 0.42,0.658 v 6.342 c -0.028,0.882 -0.266,1.078 -1.33,1.092 z"
     id="text20"
     style="font-size:14px;font-family:Times, serif"
     aria-label="delay_1" />
  <path
     id="polygon21"
     style="fill:none;stroke:#000000"
     d="m 457.5,88.278216 v -34.5 h 24.75 v 34.5 z" />
  <path
     id="polygon22"
     style="fill:none;stroke:#000000"
     d="m 463.5,82.278216 v -22.5 h 12.75 v 22.5 z" />
  <path
     d="m 468.152,76.07822 h 3.864 v -0.21 c -1.078,0 -1.316,-0.154 -1.33,-0.826 v -8.4 l -0.112,-0.028 -2.52,1.274 v 0.196 c 0.546,-0.21 0.882,-0.308 1.008,-0.308 0.294,0 0.42,0.21 0.42,0.658 v 6.342 c -0.028,0.882 -0.266,1.078 -1.33,1.092 z"
     id="text22"
     style="font-size:14px;font-family:Times, serif"
     aria-label="1" />
  <path
     id="polygon23"
     style="fill:none;stroke:#000000"
     d="m 460.5,85.278216 v -28.5 h 18.75 v 28.5 z" />
  <path
     id="polygon24"
     style="fill:none;stroke:#000000"
     d="m 377,91.278216 v -40.5 h 108.25 v 40.5 z" />
  <path
     fill="none"
     stroke="#000000"
     d="m 332.25,71.028216 c 23.44,0 29.31,0 52.75,0"
     id="path24" />
  <path
     id="polygon26"
     style="fill:#808080"
     d="m 753.75,168.27822 v -40.5 h 42.75 v 40.5 z" />
  <path
     id="polygon27"
     style="fill:none;stroke:#000000"
     d="m 756.75,165.27822 v -34.5 h 36.75 v 34.5 z" />
  <path
     id="polygon28"
     style="fill:none;stroke:#000000"
     d="m 762.75,159.27822 v -22.5 h 24.75 v 22.5 z" />
  <path
     d="m 773.786,150.61422 c -0.42,1.498 -0.896,1.876 -2.408,1.932 h -3.598 l 6.048,-8.526 v -0.21 h -7.364 l -0.28,2.394 h 0.364 c 0.238,-1.414 0.742,-1.82 2.352,-1.862 h 3.094 l -6.118,8.526 v 0.21 h 7.896 l 0.336,-2.464 z m 2.618,-3.962 c -0.42,0 -0.77,0.35 -0.77,0.798 0,0.406 0.35,0.756 0.756,0.756 0.434,0 0.798,-0.336 0.798,-0.756 0,-0.434 -0.364,-0.798 -0.784,-0.798 z m 0,5.026 c -0.42,0 -0.77,0.35 -0.77,0.798 0,0.406 0.35,0.756 0.756,0.756 0.434,0 0.798,-0.336 0.798,-0.756 0,-0.434 -0.364,-0.798 -0.784,-0.798 z m 3.64,1.4 h 3.864 v -0.21 c -1.078,0 -1.316,-0.154 -1.33,-0.826 v -8.4 l -0.112,-0.028 -2.52,1.274 v 0.196 c 0.546,-0.21 0.882,-0.308 1.008,-0.308 0.294,0 0.42,0.21 0.42,0.658 v 6.342 c -0.028,0.882 -0.266,1.078 -1.33,1.092 z"
     id="text28"
     style="font-size:14px;font-family:Times, serif"
     aria-label="Z:1" />
  <path
     id="polygon29"
     style="fill:none;stroke:#000000"
     d="m 759.75,162.27822 v -28.5 h 30.75 v 28.5 z" />
  <path
     id="polygon30"
     style="fill:none;stroke:#000000"
     d="m 753.75,168.27822 v -40.5 h 42.75 v 40.5 z" />
  <path
     fill="none"
     stroke="#000000"
     d="m 332.25,71.028216 c 21.71,0 16.24,24.02 36,33.000004 160.2,72.82 217.52,44 393.5,44"
     id="path30" />
  <path
     id="ellipse31"
     style="stroke:#000000"
     d="m 332.25,194.02822 a 9,9 0 0 1 -9,9 9,9 0 0 1 -9,-9 9,9 0 0 1 9,-9 9,9 0 0 1 9,9 z" />
  <path
     d="m 321.402,199.07822 h 3.864 v -0.21 c -1.078,0 -1.316,-0.154 -1.33,-0.826 v -8.4 l -0.112,-0.028 -2.52,1.274 v 0.196 c 0.546,-0.21 0.882,-0.308 1.008,-0.308 0.294,0 0.42,0.21 0.42,0.658 v 6.342 c -0.028,0.882 -0.266,1.078 -1.33,1.092 z"
     id="text31"
     style="font-size:14px;font-family:Times, serif;text-anchor:middle;fill:#ffffff"
     aria-label="1" />
  <path
     id="polygon33"
     style="fill:#00ffff"
     d="m 376.25,245.52822 v -65 H 486 v 65 z" />
  <path
     id="polygon34"
     style="fill:none;stroke:#000000"
     d="m 379.25,242.52822 v -59 h 38.25 v 59 z" />
  <path
     id="polygon35"
     style="fill:none;stroke:#000000"
     d="m 385.25,212.02822 v -22.5 h 26.25 v 22.5 z" />
  <path
     d="m 398.134,205.56222 c -0.63,-0.042 -0.77,-0.182 -1.26,-1.218 l -3.486,-7.952 h -0.28 l -2.912,6.874 c -0.896,2.044 -1.064,2.268 -1.736,2.296 v 0.266 h 2.772 v -0.266 c -0.672,0 -0.952,-0.168 -0.952,-0.574 0,-0.168 0.042,-0.364 0.112,-0.546 l 0.644,-1.638 h 3.668 l 0.574,1.344 c 0.168,0.378 0.266,0.742 0.266,0.938 0,0.35 -0.238,0.462 -0.98,0.476 v 0.266 h 3.57 z m -6.86,-3.332 1.61,-3.85 1.624,3.85 z m 8.988,-2.828 c -0.42,0 -0.77,0.35 -0.77,0.798 0,0.406 0.35,0.756 0.756,0.756 0.434,0 0.798,-0.336 0.798,-0.756 0,-0.434 -0.364,-0.798 -0.784,-0.798 z m 0,5.026 c -0.42,0 -0.77,0.35 -0.77,0.798 0,0.406 0.35,0.756 0.756,0.756 0.434,0 0.798,-0.336 0.798,-0.756 0,-0.434 -0.364,-0.798 -0.784,-0.798 z m 3.64,1.4 h 3.864 v -0.21 c -1.078,0 -1.316,-0.154 -1.33,-0.826 v -8.4 l -0.112,-0.028 -2.52,1.274 v 0.196 c 0.546,-0.21 0.882,-0.308 1.008,-0.308 0.294,0 0.42,0.21 0.42,0.658 v 6.342 c -0.028,0.882 -0.266,1.078 -1.33,1.092 z"
     id="text35"
     style="font-size:14px;font-family:Times, serif"
     aria-label="A:1" />
  <path
     id="polygon36"
     style="fill:none;stroke:#000000"
     d="m 385.25,236.52822 v -22.5 h 26.25 v 22.5 z" />
  <path
     d="m 388.858,221.32622 c 1.176,0.07 1.33,0.21 1.344,1.26 v 6.216 c -0.014,1.05 -0.196,1.218 -1.344,1.26 v 0.266 h 4.676 c 1.078,0 2.086,-0.294 2.604,-0.77 0.504,-0.448 0.784,-1.078 0.784,-1.75 0,-0.616 -0.238,-1.176 -0.686,-1.582 -0.42,-0.378 -0.798,-0.546 -1.708,-0.77 0.728,-0.182 1.022,-0.322 1.358,-0.616 0.35,-0.308 0.56,-0.812 0.56,-1.4 0,-1.568 -1.26,-2.38 -3.668,-2.38 h -3.92 z m 2.772,4.438 c 1.358,0 2.002,0.084 2.506,0.294 0.798,0.322 1.176,0.896 1.176,1.764 0,0.756 -0.294,1.302 -0.854,1.624 -0.448,0.252 -1.022,0.364 -1.946,0.364 -0.686,0 -0.882,-0.126 -0.882,-0.574 z m 0,-0.546 v -3.22 c 0.014,-0.308 0.07,-0.392 0.308,-0.406 l 0.616,-0.014 c 1.554,-0.042 2.464,0.672 2.464,1.918 0,1.106 -0.714,1.694 -2.058,1.708 z m 8.23199,-1.316 c -0.42,0 -0.77,0.35 -0.77,0.798 0,0.406 0.35,0.756 0.756,0.756 0.434,0 0.798,-0.336 0.798,-0.756 0,-0.434 -0.364,-0.798 -0.784,-0.798 z m 0,5.026 c -0.42,0 -0.77,0.35 -0.77,0.798 0,0.406 0.35,0.756 0.756,0.756 0.434,0 0.798,-0.336 0.798,-0.756 0,-0.434 -0.364,-0.798 -0.784,-0.798 z m 3.64,1.4 h 3.864 v -0.21 c -1.078,0 -1.316,-0.154 -1.33,-0.826 v -8.4 l -0.112,-0.028 -2.52,1.274 v 0.196 c 0.546,-0.21 0.882,-0.308 1.008,-0.308 0.294,0 0.42,0.21 0.42,0.658 v 6.342 c -0.028,0.882 -0.266,1.078 -1.33,1.092 z"
     id="text36"
     style="font-size:14px;font-family:Times, serif"
     aria-label="B:1" />
  <path
     id="polygon37"
     style="fill:none;stroke:#000000"
     d="m 382.25,239.52822 v -53 h 32.25 v 53 z" />
  <path
     id="polygon38"
     style="fill:none;stroke:#000000"
     d="m 419.5,242.52822 v -59 h 24.75 v 59 z" />
  <path
     d="m 427.554,208.61422 c -2.674,0 -4.578,2.002 -4.578,4.83 0,1.316 0.448,2.604 1.204,3.402 0.812,0.882 2.058,1.428 3.29,1.428 2.758,0 4.662,-1.946 4.662,-4.774 0,-1.386 -0.406,-2.59 -1.176,-3.416 -0.882,-0.966 -2.058,-1.47 -3.402,-1.47 z m 0,0.504 c 0.644,0 1.288,0.252 1.792,0.7 0.756,0.686 1.19,2.002 1.19,3.668 0,0.826 -0.168,1.792 -0.462,2.52 -0.126,0.35 -0.364,0.7 -0.686,1.022 -0.49,0.49 -1.12,0.742 -1.862,0.742 -0.644,0 -1.274,-0.252 -1.778,-0.686 -0.714,-0.644 -1.176,-2.058 -1.176,-3.612 0,-1.428 0.392,-2.786 0.98,-3.444 0.546,-0.602 1.232,-0.91 2.002,-0.91 z m 14.28,8.694 c -0.532,-0.042 -0.812,-0.182 -1.218,-0.658 l -2.884,-3.542 c 1.778,-0.35 2.534,-1.05 2.534,-2.338 0,-0.602 -0.182,-1.12 -0.546,-1.526 -0.532,-0.574 -1.708,-0.938 -3.01,-0.938 h -3.864 v 0.266 c 1.036,0.112 1.176,0.238 1.19,1.26 v 6.062 c -0.014,1.19 -0.14,1.33 -1.19,1.414 v 0.266 h 3.878 v -0.266 c -1.078,-0.07 -1.246,-0.238 -1.26,-1.26 v -2.758 l 0.784,-0.028 3.332,4.312 h 2.254 z m -6.37,-7.98 c 0,-0.392 0.154,-0.504 0.714,-0.504 1.75,0 2.562,0.602 2.562,1.918 0,0.7 -0.294,1.288 -0.798,1.554 -0.644,0.364 -1.134,0.448 -2.478,0.476 z"
     id="text38"
     style="font-size:14px;font-family:Times, serif"
     aria-label="OR" />
  <path
     id="polygon39"
     style="fill:none;stroke:#000000"
     d="m 446.25,242.52822 v -59 H 483 v 59 z" />
  <path
     id="polygon40"
     style="fill:none;stroke:#000000"
     d="m 452.25,236.52822 v -47 H 477 v 47 z" />
  <path
     d="m 463.286,215.61422 c -0.42,1.498 -0.896,1.876 -2.408,1.932 h -3.598 l 6.048,-8.526 v -0.21 h -7.364 l -0.28,2.394 h 0.364 c 0.238,-1.414 0.742,-1.82 2.352,-1.862 h 3.094 l -6.118,8.526 v 0.21 h 7.896 l 0.336,-2.464 z m 2.618,-3.962 c -0.42,0 -0.77,0.35 -0.77,0.798 0,0.406 0.35,0.756 0.756,0.756 0.434,0 0.798,-0.336 0.798,-0.756 0,-0.434 -0.364,-0.798 -0.784,-0.798 z m 0,5.026 c -0.42,0 -0.77,0.35 -0.77,0.798 0,0.406 0.35,0.756 0.756,0.756 0.434,0 0.798,-0.336 0.798,-0.756 0,-0.434 -0.364,-0.798 -0.784,-0.798 z m 3.64,1.4 h 3.864 v -0.21 c -1.078,0 -1.316,-0.154 -1.33,-0.826 v -8.4 l -0.112,-0.028 -2.52,1.274 v 0.196 c 0.546,-0.21 0.882,-0.308 1.008,-0.308 0.294,0 0.42,0.21 0.42,0.658 v 6.342 c -0.028,0.882 -0.266,1.078 -1.33,1.092 z"
     id="text40"
     style="font-size:14px;font-family:Times, serif"
     aria-label="Z:1" />
  <path
     id="polygon41"
     style="fill:none;stroke:#000000"
     d="m 449.25,239.52822 v -53 H 480 v 53 z" />
  <path
     id="polygon42"
     style="fill:none;stroke:#000000"
     d="m 376.25,245.52822 v -65 H 486 v 65 z" />
  <path
     fill="none"
     stroke="#000000"
     d="m 332.25,194.02822 c 23.31,0 28.69,6.75 52,6.75"
     id="path42" />
  <path
     id="ellipse43"
     style="stroke:#000000"
     d="m 548,199.02822 a 9,9 0 0 1 -9,9 9,9 0 0 1 -9,-9 9,9 0 0 1 9,-9 9,9 0 0 1 9,9 z" />
  <path
     d="m 537.152,204.07822 h 3.864 v -0.21 c -1.078,0 -1.316,-0.154 -1.33,-0.826 v -8.4 l -0.112,-0.028 -2.52,1.274 v 0.196 c 0.546,-0.21 0.882,-0.308 1.008,-0.308 0.294,0 0.42,0.21 0.42,0.658 v 6.342 c -0.028,0.882 -0.266,1.078 -1.33,1.092 z"
     id="text43"
     style="font-size:14px;font-family:Times, serif;text-anchor:middle;fill:#ffffff"
     aria-label="1" />
  <path
     id="polygon45"
     style="fill:#00ffff"
     d="M 592,115.52822 V 50.528216 h 109.75 v 65.000004 z" />
  <path
     id="polygon46"
     style="fill:none;stroke:#000000"
     d="M 595,112.52822 V 53.528216 h 38.25 v 59.000004 z" />
  <path
     id="polygon47"
     style="fill:none;stroke:#000000"
     d="m 601,82.028216 v -22.5 h 26.25 v 22.5 z" />
  <path
     d="m 613.884,75.56222 c -0.63,-0.042 -0.77,-0.182 -1.26,-1.218 l -3.486,-7.952 h -0.28 l -2.912,6.874 c -0.896,2.044 -1.064,2.268 -1.736,2.296 v 0.266 h 2.772 v -0.266 c -0.672,0 -0.952,-0.168 -0.952,-0.574 0,-0.168 0.042,-0.364 0.112,-0.546 l 0.644,-1.638 h 3.668 l 0.574,1.344 c 0.168,0.378 0.266,0.742 0.266,0.938 0,0.35 -0.238,0.462 -0.98,0.476 v 0.266 h 3.57 z m -6.86,-3.332 1.61,-3.85 1.624,3.85 z m 8.988,-2.828 c -0.42,0 -0.77,0.35 -0.77,0.798 0,0.406 0.35,0.756 0.756,0.756 0.434,0 0.798,-0.336 0.798,-0.756 0,-0.434 -0.364,-0.798 -0.784,-0.798 z m 0,5.026 c -0.42,0 -0.77,0.35 -0.77,0.798 0,0.406 0.35,0.756 0.756,0.756 0.434,0 0.798,-0.336 0.798,-0.756 0,-0.434 -0.364,-0.798 -0.784,-0.798 z m 3.64,1.4 h 3.864 v -0.21 c -1.078,0 -1.316,-0.154 -1.33,-0.826 v -8.4 l -0.112,-0.028 -2.52,1.274 v 0.196 c 0.546,-0.21 0.882,-0.308 1.008,-0.308 0.294,0 0.42,0.21 0.42,0.658 v 6.342 c -0.028,0.882 -0.266,1.078 -1.33,1.092 z"
     id="text47"
     style="font-size:14px;font-family:Times, serif"
     aria-label="A:1" />
  <path
     id="polygon48"
     style="fill:none;stroke:#000000"
     d="M 601,106.52822 V 84.028216 h 26.25 v 22.500004 z" />
  <path
     d="m 604.618,91.326213 c 1.176,0.07 1.33,0.21 1.344,1.26 v 6.216003 c -0.014,1.05 -0.196,1.218004 -1.344,1.260004 v 0.266 h 4.676 c 1.078,0 2.086,-0.294 2.604,-0.770004 0.504,-0.448 0.784,-1.078 0.784,-1.75 0,-0.616 -0.238,-1.176 -0.686,-1.582 -0.42,-0.378003 -0.798,-0.546003 -1.708,-0.770003 0.728,-0.182 1.022,-0.322 1.358,-0.616 0.35,-0.308 0.56,-0.812 0.56,-1.4 0,-1.568 -1.26,-2.38 -3.668,-2.38 h -3.92 z m 2.772,4.438 c 1.358,0 2.002,0.084 2.506,0.294 0.798,0.322003 1.176,0.896003 1.176,1.764003 0,0.756 -0.294,1.302 -0.854,1.624 -0.448,0.252 -1.022,0.364 -1.946,0.364 -0.686,0 -0.882,-0.126 -0.882,-0.574 z m 0,-0.546 v -3.22 c 0.014,-0.308 0.07,-0.392 0.308,-0.406 l 0.616,-0.014 c 1.554,-0.042 2.464,0.672 2.464,1.918 0,1.106 -0.714,1.694 -2.058,1.708 z m 8.232,-1.316 c -0.42,0 -0.77,0.35 -0.77,0.798 0,0.406 0.35,0.756 0.756,0.756 0.434,0 0.798,-0.336 0.798,-0.756 0,-0.434 -0.364,-0.798 -0.784,-0.798 z m 0,5.026003 c -0.42,0 -0.77,0.35 -0.77,0.798 0,0.406004 0.35,0.756004 0.756,0.756004 0.434,0 0.798,-0.336 0.798,-0.756004 0,-0.434 -0.364,-0.798 -0.784,-0.798 z m 3.64,1.400004 h 3.864 v -0.21 c -1.078,0 -1.316,-0.154004 -1.33,-0.826004 v -8.400003 l -0.112,-0.028 -2.52,1.274 v 0.196 c 0.546,-0.21 0.882,-0.308 1.008,-0.308 0.294,0 0.42,0.21 0.42,0.658 v 6.342003 c -0.028,0.882 -0.266,1.078004 -1.33,1.092004 z"
     id="text48"
     style="font-size:14px;font-family:Times, serif"
     aria-label="B:1" />
  <path
     id="polygon49"
     style="fill:none;stroke:#000000"
     d="M 598,109.52822 V 56.528216 h 32.25 v 53.000004 z" />
  <path
     id="polygon50"
     style="fill:none;stroke:#000000"
     d="M 635.25,112.52822 V 53.528216 H 660 v 59.000004 z" />
  <path
     d="m 643.304,78.61422 c -2.674,0 -4.578,2.002 -4.578,4.83 0,1.316 0.448,2.604 1.204,3.402 0.812,0.882 2.058,1.428 3.29,1.428 2.758,0 4.662,-1.946 4.662,-4.774 0,-1.386 -0.406,-2.59 -1.176,-3.416 -0.882,-0.966 -2.058,-1.47 -3.402,-1.47 z m 0,0.504 c 0.644,0 1.288,0.252 1.792,0.7 0.756,0.686 1.19,2.002 1.19,3.668 0,0.826 -0.168,1.792 -0.462,2.52 -0.126,0.35 -0.364,0.7 -0.686,1.022 -0.49,0.49 -1.12,0.742 -1.862,0.742 -0.644,0 -1.274,-0.252 -1.778,-0.686 -0.714,-0.644 -1.176,-2.058 -1.176,-3.612 0,-1.428 0.392,-2.786 0.98,-3.444 0.546,-0.602 1.232,-0.91 2.002,-0.91 z m 14.28,8.694 c -0.532,-0.042 -0.812,-0.182 -1.218,-0.658 l -2.884,-3.542 c 1.778,-0.35 2.534,-1.05 2.534,-2.338 0,-0.602 -0.182,-1.12 -0.546,-1.526 -0.532,-0.574 -1.708,-0.938 -3.01,-0.938 h -3.864 v 0.266 c 1.036,0.112 1.176,0.238 1.19,1.26 v 6.062 c -0.014,1.19 -0.14,1.33 -1.19,1.414 v 0.266 h 3.878 v -0.266 c -1.078,-0.07 -1.246,-0.238 -1.26,-1.26 v -2.758 l 0.784,-0.028 3.332,4.312 h 2.254 z m -6.37,-7.98 c 0,-0.392 0.154,-0.504 0.714,-0.504 1.75,0 2.562,0.602 2.562,1.918 0,0.7 -0.294,1.288 -0.798,1.554 -0.644,0.364 -1.134,0.448 -2.478,0.476 z"
     id="text50"
     style="font-size:14px;font-family:Times, serif"
     aria-label="OR" />
  <path
     id="polygon51"
     style="fill:none;stroke:#000000"
     d="M 662,112.52822 V 53.528216 h 36.75 v 59.000004 z" />
  <path
     id="polygon52"
     style="fill:none;stroke:#000000"
     d="M 668,106.52822 V 59.528216 h 24.75 v 47.000004 z" />
  <path
     d="m 679.036,85.61422 c -0.42,1.498 -0.896,1.876 -2.408,1.932 h -3.598 l 6.048,-8.526 v -0.21 h -7.364 l -0.28,2.394 h 0.364 c 0.238,-1.414 0.742,-1.82 2.352,-1.862 h 3.094 l -6.118,8.526 v 0.21 h 7.896 l 0.336,-2.464 z m 2.618,-3.962 c -0.42,0 -0.77,0.35 -0.77,0.798 0,0.406 0.35,0.756 0.756,0.756 0.434,0 0.798,-0.336 0.798,-0.756 0,-0.434 -0.364,-0.798 -0.784,-0.798 z m 0,5.026 c -0.42,0 -0.77,0.35 -0.77,0.798 0,0.406 0.35,0.756 0.756,0.756 0.434,0 0.798,-0.336 0.798,-0.756 0,-0.434 -0.364,-0.798 -0.784,-0.798 z m 3.64,1.4 h 3.864 v -0.21 c -1.078,0 -1.316,-0.154 -1.33,-0.826 v -8.4 l -0.112,-0.028 -2.52,1.274 v 0.196 c 0.546,-0.21 0.882,-0.308 1.008,-0.308 0.294,0 0.42,0.21 0.42,0.658 v 6.342 c -0.028,0.882 -0.266,1.078 -1.33,1.092 z"
     id="text52"
     style="font-size:14px;font-family:Times, serif"
     aria-label="Z:1" />
  <path
     id="polygon53"
     style="fill:none;stroke:#000000"
     d="M 665,109.52822 V 56.528216 h 30.75 v 53.000004 z" />
  <path
     id="polygon54"
     style="fill:none;stroke:#000000"
     d="M 592,115.52822 V 50.528216 h 109.75 v 65.000004 z" />
  <path
     fill="none"
     stroke="#000000"
     d="m 548,199.02822 c 51.58,0 0.42,-103.750004 52,-103.750004"
     id="path54" />
  <path
     id="ellipse55"
     style="stroke:#000000"
     d="m 548,71.028217 a 9,9 0 0 1 -9,9 9,9 0 0 1 -9,-9 9,9 0 0 1 9,-9 9,9 0 0 1 9,9 z" />
  <path
     d="m 537.152,76.07822 h 3.864 v -0.21 c -1.078,0 -1.316,-0.154 -1.33,-0.826 v -8.4 l -0.112,-0.028 -2.52,1.274 v 0.196 c 0.546,-0.21 0.882,-0.308 1.008,-0.308 0.294,0 0.42,0.21 0.42,0.658 v 6.342 c -0.028,0.882 -0.266,1.078 -1.33,1.092 z"
     id="text55"
     style="font-size:14px;font-family:Times, serif;text-anchor:middle;fill:#ffffff"
     aria-label="1" />
  <path
     fill="none"
     stroke="#000000"
     d="m 548,71.028216 c 23.11,0 28.89,-0.25 52,-0.25"
     id="path56" />
  <path
     id="ellipse57"
     style="stroke:#000000"
     d="m 784.12,51.028217 a 9,9 0 0 1 -9,9 9,9 0 0 1 -9,-9 9,9 0 0 1 9,-9 9,9 0 0 1 9,9 z" />
  <path
     d="m 773.272,56.07822 h 3.864 v -0.21 c -1.078,0 -1.316,-0.154 -1.33,-0.826 v -8.4 l -0.112,-0.028 -2.52,1.274 v 0.196 c 0.546,-0.21 0.882,-0.308 1.008,-0.308 0.294,0 0.42,0.21 0.42,0.658 v 6.342 c -0.028,0.882 -0.266,1.078 -1.33,1.092 z"
     id="text57"
     style="font-size:14px;font-family:Times, serif;text-anchor:middle;fill:#ffffff"
     aria-label="1" />
  <path
     fill="none"
     stroke="#000000"
     d="m 785.58,51.028216 c 4.03,0 1.87,-6.17 -1,-9 -77.73,-76.74 -135.35,-24 -244.58,-24 -109.88,0 -109.88,0 -109.88,0 -25.26,0 -264.93,-10.4399999 -271.12,-4.5 -7.78,7.47 -11.79,24.25 -1,24.25"
     id="path58" />
  <path
     id="ellipse59"
     style="stroke:#000000"
     d="m 332.25,239.02822 a 9,9 0 0 1 -9,9 9,9 0 0 1 -9,-9 9,9 0 0 1 9,-9 9,9 0 0 1 9,9 z" />
  <path
     d="m 321.402,244.07822 h 3.864 v -0.21 c -1.078,0 -1.316,-0.154 -1.33,-0.826 v -8.4 l -0.112,-0.028 -2.52,1.274 v 0.196 c 0.546,-0.21 0.882,-0.308 1.008,-0.308 0.294,0 0.42,0.21 0.42,0.658 v 6.342 c -0.028,0.882 -0.266,1.078 -1.33,1.092 z"
     id="text59"
     style="font-size:14px;font-family:Times, serif;text-anchor:middle;fill:#ffffff"
     aria-label="1" />
  <path
     fill="none"
     stroke="#000000"
     d="m 332.25,239.02822 c 23.91,0 28.09,-13.75 52,-13.75"
     id="path60" />
  <path
     id="polygon62"
     style="fill:#20b2aa"
     d="m 166.38,207.27822 v -40.5 h 87.5 v 40.5 z" />
  <path
     id="polygon63"
     style="fill:none;stroke:#000000"
     d="m 169.38,204.27822 v -34.5 h 54.74 v 34.5 z" />
  <path
     d="m 176.51,182.61422 c -1.036,0.686 -1.456,1.036 -1.974,1.68 -0.994,1.218 -1.484,2.618 -1.484,4.256 0,1.792 0.518,3.15 1.75,4.578 0.574,0.672 0.938,0.98 1.666,1.428 l 0.168,-0.224 c -1.12,-0.882 -1.512,-1.386 -1.89,-2.422 -0.336,-0.938 -0.49,-1.988 -0.49,-3.402 0,-1.47 0.182,-2.632 0.56,-3.486 0.392,-0.868 0.812,-1.372 1.82,-2.184 z m 5.43201,11.844 c -0.952,-0.224 -1.26,-0.658 -1.274,-1.722 v -2.352 c -0.014,-1.19 -0.28,-1.54 -1.316,-1.792 1.036,-0.266 1.302,-0.63 1.316,-1.806 v -2.352 c 0.014,-1.064 0.322,-1.498 1.274,-1.722 v -0.154 c -1.736,0 -2.282,0.462 -2.31,1.946 v 2.492 c -0.014,0.98 -0.266,1.33 -1.19,1.582 0.924,0.266 1.176,0.616 1.19,1.596 v 2.478 c 0.042,1.498 0.574,1.96 2.31,1.96 z m 5.37599,-11.844 c -0.77,0 -1.358,0.224 -1.876,0.728 -0.812,0.784 -1.344,2.394 -1.344,4.032 0,1.54 0.462,3.164 1.12,3.948 0.518,0.616 1.232,0.952 2.044,0.952 0.714,0 1.316,-0.238 1.82,-0.728 0.812,-0.77 1.344,-2.394 1.344,-4.088 0,-2.87 -1.274,-4.844 -3.108,-4.844 z m -0.042,0.364 c 1.176,0 1.806,1.582 1.806,4.508 0,2.926 -0.616,4.424 -1.82,4.424 -1.204,0 -1.82,-1.498 -1.82,-4.41 0,-2.982 0.63,-4.522 1.834,-4.522 z m 7.504,-0.364 h -0.938 l -3.206,9.66 h 0.952 z m 1.526,9.464 h 3.864 v -0.21 c -1.078,0 -1.316,-0.154 -1.33,-0.826 v -8.4 l -0.112,-0.028 -2.52,1.274 v 0.196 c 0.546,-0.21 0.882,-0.308 1.008,-0.308 0.294,0 0.42,0.21 0.42,0.658 v 6.342 c -0.028,0.882 -0.266,1.078 -1.33,1.092 z m 7.168,-9.366 c 0.938,0.224 1.26,0.658 1.274,1.722 v 2.352 c 0.014,1.19 0.28,1.54 1.316,1.792 -1.036,0.266 -1.302,0.63 -1.316,1.806 v 2.352 c -0.014,1.064 -0.336,1.498 -1.274,1.722 v 0.154 c 1.736,0 2.282,-0.462 2.31,-1.946 v -2.492 c 0.014,-0.98 0.266,-1.33 1.19,-1.596 -0.924,-0.252 -1.176,-0.602 -1.19,-1.582 v -2.478 c -0.042,-1.512 -0.574,-1.96 -2.31,-1.96 z m 5.43199,11.844 c 1.036,-0.686 1.456,-1.036 1.974,-1.68 0.994,-1.218 1.484,-2.618 1.484,-4.256 0,-1.792 -0.518,-3.15 -1.75,-4.578 -0.574,-0.672 -0.938,-0.98 -1.666,-1.428 l -0.168,0.224 c 1.12,0.882 1.498,1.372 1.89,2.422 0.336,0.938 0.49,1.988 0.49,3.402 0,1.47 -0.182,2.618 -0.56,3.472 -0.378,0.868 -0.812,1.386 -1.82,2.198 z m 6.66401,-8.946 c -1.148,0.84 -1.75,2.072 -1.75,3.514 0,1.75 0.868,3.052 2.044,3.052 0.756,0 1.4,-0.504 1.848,-1.47 0.448,0.98 0.994,1.47 1.666,1.47 1.176,0 2.086,-1.484 2.086,-3.402 0,-1.876 -0.686,-3.164 -1.68,-3.164 -0.35,0 -0.602,0.252 -0.602,0.602 0,0.266 0.168,0.518 0.392,0.616 0.7,0.266 0.77,0.308 0.98,0.63 0.252,0.364 0.392,0.938 0.392,1.54 0,1.288 -0.686,2.254 -1.624,2.254 -0.602,0 -1.008,-0.322 -1.358,-1.078 0.252,-0.742 0.35,-1.218 0.35,-1.806 0,-0.7 -0.196,-1.092 -0.532,-1.092 -0.392,0 -0.616,0.434 -0.616,1.19 0,0.63 0.098,1.092 0.35,1.736 -0.364,0.728 -0.784,1.064 -1.274,1.064 -0.812,0 -1.288,-0.91 -1.288,-2.478 0,-1.176 0.294,-2.156 0.882,-2.996 z"
     id="text63"
     style="font-size:14px;font-family:Times, serif"
     aria-label="({0/1})ω" />
  <path
     id="polygon64"
     style="fill:none;stroke:#000000"
     d="m 226.12,204.27822 v -34.5 h 24.76 v 34.5 z" />
  <path
     id="polygon65"
     style="fill:none;stroke:#000000"
     d="m 232.12,198.27822 v -22.5 h 12.76 v 22.5 z" />
  <path
     d="m 236.772,192.07822 h 3.864 v -0.21 c -1.078,0 -1.316,-0.154 -1.33,-0.826 v -8.4 l -0.112,-0.028 -2.52,1.274 v 0.196 c 0.546,-0.21 0.882,-0.308 1.008,-0.308 0.294,0 0.42,0.21 0.42,0.658 v 6.342 c -0.028,0.882 -0.266,1.078 -1.33,1.092 z"
     id="text65"
     style="font-size:14px;font-family:Times, serif"
     aria-label="1" />
  <path
     id="polygon66"
     style="fill:none;stroke:#000000"
     d="m 229.12,201.27822 v -28.5 h 18.76 v 28.5 z" />
  <path
     id="polygon67"
     style="fill:none;stroke:#000000"
     d="m 166.38,207.27822 v -40.5 h 87.5 v 40.5 z" />
  <path
     fill="none"
     stroke="#000000"
     d="m 245.88,187.02822 c 30.54,0 37.82,7 68.37,7"
     id="path67" />
  <path
     fill="none"
     stroke="#000000"
     d="m 478,213.02822 c 23.93,0 28.07,-14 52,-14"
     id="path68" />
  <path
     fill="none"
     stroke="#000000"
     d="m 693.75,83.028216 c 34.58,0 36.34,-32 70.92,-32"
     id="path69" />
  <path
     fill="none"
     stroke="#000000"
     d="m 262.25,50.028216 c 24.92,0 27.08,21 52,21"
     id="path70" />
  <path
     fill="none"
     stroke="#000000"
     d="m 477.25,71.028216 c 23.44,0 29.31,0 52.75,0"
     id="path71" />
  <path
     id="polygon73"
     style="fill:#20b2aa"
     d="m 166.38,274.27822 v -40.5 h 87.5 v 40.5 z" />
  <path
     id="polygon74"
     style="fill:none;stroke:#000000"
     d="m 169.38,271.27822 v -34.5 h 54.74 v 34.5 z" />
  <path
     d="m 176.51,249.61421 c -1.036,0.686 -1.456,1.036 -1.974,1.68 -0.994,1.218 -1.484,2.618 -1.484,4.256 0,1.792 0.518,3.15 1.75,4.578 0.574,0.672 0.938,0.98 1.666,1.428 l 0.168,-0.224 c -1.12,-0.882 -1.512,-1.386 -1.89,-2.422 -0.336,-0.938 -0.49,-1.988 -0.49,-3.402 0,-1.47 0.182,-2.632 0.56,-3.486 0.392,-0.868 0.812,-1.372 1.82,-2.184 z m 5.43201,11.844 c -0.952,-0.224 -1.26,-0.658 -1.274,-1.722 v -2.352 c -0.014,-1.19 -0.28,-1.54 -1.316,-1.792 1.036,-0.266 1.302,-0.63 1.316,-1.806 v -2.352 c 0.014,-1.064 0.322,-1.498 1.274,-1.722 v -0.154 c -1.736,0 -2.282,0.462 -2.31,1.946 v 2.492 c -0.014,0.98 -0.266,1.33 -1.19,1.582 0.924,0.266 1.176,0.616 1.19,1.596 v 2.478 c 0.042,1.498 0.574,1.96 2.31,1.96 z m 3.47199,-2.38 h 3.864 v -0.21 c -1.078,0 -1.316,-0.154 -1.33,-0.826 v -8.4 l -0.112,-0.028 -2.52,1.274 v 0.196 c 0.546,-0.21 0.882,-0.308 1.008,-0.308 0.294,0 0.42,0.21 0.42,0.658 v 6.342 c -0.028,0.882 -0.266,1.078 -1.33,1.092 z m 9.366,-9.464 h -0.938 l -3.206,9.66 h 0.952 z m 3.43,0 c -0.77,0 -1.358,0.224 -1.876,0.728 -0.812,0.784 -1.344,2.394 -1.344,4.032 0,1.54 0.462,3.164 1.12,3.948 0.518,0.616 1.232,0.952 2.044,0.952 0.714,0 1.316,-0.238 1.82,-0.728 0.812,-0.77 1.344,-2.394 1.344,-4.088 0,-2.87 -1.274,-4.844 -3.108,-4.844 z m -0.042,0.364 c 1.176,0 1.806,1.582 1.806,4.508 0,2.926 -0.616,4.424 -1.82,4.424 -1.204,0 -1.82,-1.498 -1.82,-4.41 0,-2.982 0.63,-4.522 1.834,-4.522 z m 5.306,-0.266 c 0.938,0.224 1.26,0.658 1.274,1.722 v 2.352 c 0.014,1.19 0.28,1.54 1.316,1.792 -1.036,0.266 -1.302,0.63 -1.316,1.806 v 2.352 c -0.014,1.064 -0.336,1.498 -1.274,1.722 v 0.154 c 1.736,0 2.282,-0.462 2.31,-1.946 v -2.492 c 0.014,-0.98 0.266,-1.33 1.19,-1.596 -0.924,-0.252 -1.176,-0.602 -1.19,-1.582 v -2.478 c -0.042,-1.512 -0.574,-1.96 -2.31,-1.96 z m 5.43199,11.844 c 1.036,-0.686 1.456,-1.036 1.974,-1.68 0.994,-1.218 1.484,-2.618 1.484,-4.256 0,-1.792 -0.518,-3.15 -1.75,-4.578 -0.574,-0.672 -0.938,-0.98 -1.666,-1.428 l -0.168,0.224 c 1.12,0.882 1.498,1.372 1.89,2.422 0.336,0.938 0.49,1.988 0.49,3.402 0,1.47 -0.182,2.618 -0.56,3.472 -0.378,0.868 -0.812,1.386 -1.82,2.198 z m 6.66401,-8.946 c -1.148,0.84 -1.75,2.072 -1.75,3.514 0,1.75 0.868,3.052 2.044,3.052 0.756,0 1.4,-0.504 1.848,-1.47 0.448,0.98 0.994,1.47 1.666,1.47 1.176,0 2.086,-1.484 2.086,-3.402 0,-1.876 -0.686,-3.164 -1.68,-3.164 -0.35,0 -0.602,0.252 -0.602,0.602 0,0.266 0.168,0.518 0.392,0.616 0.7,0.266 0.77,0.308 0.98,0.63 0.252,0.364 0.392,0.938 0.392,1.54 0,1.288 -0.686,2.254 -1.624,2.254 -0.602,0 -1.008,-0.322 -1.358,-1.078 0.252,-0.742 0.35,-1.218 0.35,-1.806 0,-0.7 -0.196,-1.092 -0.532,-1.092 -0.392,0 -0.616,0.434 -0.616,1.19 0,0.63 0.098,1.092 0.35,1.736 -0.364,0.728 -0.784,1.064 -1.274,1.064 -0.812,0 -1.288,-0.91 -1.288,-2.478 0,-1.176 0.294,-2.156 0.882,-2.996 z"
     id="text74"
     style="font-size:14px;font-family:Times, serif"
     aria-label="({1/0})ω" />
  <path
     id="polygon75"
     style="fill:none;stroke:#000000"
     d="m 226.12,271.27822 v -34.5 h 24.76 v 34.5 z" />
  <path
     id="polygon76"
     style="fill:none;stroke:#000000"
     d="m 232.12,265.27822 v -22.5 h 12.76 v 22.5 z" />
  <path
     d="m 236.772,259.07821 h 3.864 v -0.21 c -1.078,0 -1.316,-0.154 -1.33,-0.826 v -8.4 l -0.112,-0.028 -2.52,1.274 v 0.196 c 0.546,-0.21 0.882,-0.308 1.008,-0.308 0.294,0 0.42,0.21 0.42,0.658 v 6.342 c -0.028,0.882 -0.266,1.078 -1.33,1.092 z"
     id="text76"
     style="font-size:14px;font-family:Times, serif"
     aria-label="1" />
  <path
     id="polygon77"
     style="fill:none;stroke:#000000"
     d="m 229.12,268.27822 v -28.5 h 18.76 v 28.5 z" />
  <path
     id="polygon78"
     style="fill:none;stroke:#000000"
     d="m 166.38,274.27822 v -40.5 h 87.5 v 40.5 z" />
  <path
     fill="none"
     stroke="#000000"
     d="m 245.88,254.02822 c 31.11,0 37.26,-15 68.37,-15"
     id="path78" />
  <path
     id="polygon80"
     style="fill:#808080"
     d="m 0.5,82.278216 v -40.5 H 44 v 40.5 z" />
  <path
     id="polygon81"
     style="fill:none;stroke:#000000"
     d="m 3.5,79.278216 v -34.5 H 41 v 34.5 z" />
  <path
     id="polygon82"
     style="fill:none;stroke:#000000"
     d="m 9.5,73.278216 v -22.5 H 35 v 22.5 z" />
  <path
     d="m 12.738,58.07622 c 1.176,0.07 1.33,0.21 1.344,1.26 v 6.216 c -0.014,1.05 -0.196,1.218 -1.344,1.26 v 0.266 h 4.676 c 1.078,0 2.086,-0.294 2.604,-0.77 0.504,-0.448 0.784,-1.078 0.784,-1.75 0,-0.616 -0.238,-1.176 -0.686,-1.582 -0.42,-0.378 -0.798,-0.546 -1.708,-0.77 0.728,-0.182 1.022,-0.322 1.358,-0.616 0.35,-0.308 0.56,-0.812 0.56,-1.4 0,-1.568 -1.26,-2.38 -3.668,-2.38 h -3.92 z m 2.772,4.438 c 1.358,0 2.002,0.084 2.506,0.294 0.798,0.322 1.176,0.896 1.176,1.764 0,0.756 -0.294,1.302 -0.854,1.624 -0.448,0.252 -1.022,0.364 -1.946,0.364 -0.686,0 -0.882,-0.126 -0.882,-0.574 z m 0,-0.546 v -3.22 c 0.014,-0.308 0.07,-0.392 0.308,-0.406 l 0.616,-0.014 c 1.554,-0.042 2.464,0.672 2.464,1.918 0,1.106 -0.714,1.694 -2.058,1.708 z m 8.231997,-1.316 c -0.42,0 -0.77,0.35 -0.77,0.798 0,0.406 0.35,0.756 0.756,0.756 0.434,0 0.798,-0.336 0.798,-0.756 0,-0.434 -0.364,-0.798 -0.784,-0.798 z m 0,5.026 c -0.42,0 -0.77,0.35 -0.77,0.798 0,0.406 0.35,0.756 0.756,0.756 0.434,0 0.798,-0.336 0.798,-0.756 0,-0.434 -0.364,-0.798 -0.784,-0.798 z m 3.639999,1.4 h 3.864 v -0.21 c -1.078,0 -1.316,-0.154 -1.33,-0.826 v -8.4 l -0.112,-0.028 -2.52,1.274 v 0.196 c 0.546,-0.21 0.882,-0.308 1.008,-0.308 0.294,0 0.42,0.21 0.42,0.658 v 6.342 c -0.028,0.882 -0.266,1.078 -1.33,1.092 z"
     id="text82"
     style="font-size:14px;font-family:Times, serif"
     aria-label="B:1" />
  <path
     id="polygon83"
     style="fill:none;stroke:#000000"
     d="m 6.5,76.278216 v -28.5 H 38 v 28.5 z" />
  <path
     id="polygon84"
     style="fill:none;stroke:#000000"
     d="m 0.5,82.278216 v -40.5 H 44 v 40.5 z" />
  <path
     fill="none"
     stroke="#000000"
     d="m 36,62.028216 c 23.11,0 28.89,0 52,0"
     id="path84" />
</svg>
