<?xml version="1.0" encoding="UTF-8" standalone="no"?>
<!-- Generated by graphviz version 11.0.0 (0)
 -->

<!-- Title: circuit Pages: 1 -->

<svg
   width="439.5pt"
   height="108.5pt"
   viewBox="0 0 439.02538 108.5"
   version="1.1"
   id="svg36"
   sodipodi:docname="rewrite-5.svg"
   inkscape:version="1.3.2 (091e20ef0f, 2023-11-25, custom)"
   xmlns:inkscape="http://www.inkscape.org/namespaces/inkscape"
   xmlns:sodipodi="http://sodipodi.sourceforge.net/DTD/sodipodi-0.dtd"
   xmlns="http://www.w3.org/2000/svg"
   xmlns:svg="http://www.w3.org/2000/svg">
  <defs
     id="defs36" />
  <sodipodi:namedview
     id="namedview36"
     pagecolor="#ffffff"
     bordercolor="#000000"
     borderopacity="0.25"
     inkscape:showpageshadow="2"
     inkscape:pageopacity="0.0"
     inkscape:pagecheckerboard="0"
     inkscape:deskcolor="#d1d1d1"
     inkscape:document-units="pt"
     inkscape:zoom="3.2510799"
     inkscape:cx="292.97957"
     inkscape:cy="88.585949"
     inkscape:window-width="2560"
     inkscape:window-height="1380"
     inkscape:window-x="1920"
     inkscape:window-y="32"
     inkscape:window-maximized="1"
     inkscape:current-layer="svg36" />
  <path
     id="ellipse2"
     style="stroke:#000000"
     d="m 125.75,72.75 a 9,9 0 0 1 -9,9 9,9 0 0 1 -9,-9 9,9 0 0 1 9,-9 9,9 0 0 1 9,9 z" />
  <path
     d="m 114.902,77.800003 h 3.864 v -0.21 c -1.078,0 -1.316,-0.154 -1.33,-0.826 v -8.4 l -0.112,-0.028 -2.52,1.274 v 0.196 c 0.546,-0.21 0.882,-0.308 1.008,-0.308 0.294,0 0.42,0.21 0.42,0.658 v 6.342 c -0.028,0.882 -0.266,1.078 -1.33,1.092 z"
     id="text2"
     style="font-size:14px;font-family:Times, serif;text-anchor:middle;fill:#ffffff"
     aria-label="1" />
  <path
     id="polygon4"
     transform="translate(-7.7499983,136.5)"
     style="fill:#00ffff"
     d="m 297.75,-114.25 v 65 H 177.5 v -65 z" />
  <path
     id="polygon5"
     transform="translate(-7.7499983,136.5)"
     style="fill:none;stroke:#000000"
     d="m 218.75,-111.25 v 59 H 180.5 v -59 z" />
  <path
     id="polygon6"
     transform="translate(-7.7499983,136.5)"
     style="fill:none;stroke:#000000"
     d="m 212.75,-105.25 v 22.5 H 186.5 v -22.5 z" />
  <path
     d="m 191.634,47.284003 c -0.63,-0.042 -0.77,-0.182 -1.26,-1.218 l -3.486,-7.952 h -0.28 l -2.912,6.874 c -0.896,2.044 -1.064,2.268 -1.736,2.296 v 0.266 h 2.772 v -0.266 c -0.672,0 -0.952,-0.168 -0.952,-0.574 0,-0.168 0.042,-0.364 0.112,-0.546 l 0.644,-1.638 h 3.668 l 0.574,1.344 c 0.168,0.378 0.266,0.742 0.266,0.938 0,0.35 -0.238,0.462 -0.98,0.476 v 0.266 h 3.57 z m -6.86,-3.332 1.61,-3.85 1.624,3.85 z m 8.988,-2.828 c -0.42,0 -0.77,0.35 -0.77,0.798 0,0.406 0.35,0.756 0.756,0.756 0.434,0 0.798,-0.336 0.798,-0.756 0,-0.434 -0.364,-0.798 -0.784,-0.798 z m 0,5.026 c -0.42,0 -0.77,0.35 -0.77,0.798 0,0.406 0.35,0.756 0.756,0.756 0.434,0 0.798,-0.336 0.798,-0.756 0,-0.434 -0.364,-0.798 -0.784,-0.798 z m 3.64,1.4 h 3.864 v -0.21 c -1.078,0 -1.316,-0.154 -1.33,-0.826 v -8.4 l -0.112,-0.028 -2.52,1.274 v 0.196 c 0.546,-0.21 0.882,-0.308 1.008,-0.308 0.294,0 0.42,0.21 0.42,0.658 v 6.342 c -0.028,0.882 -0.266,1.078 -1.33,1.092 z"
     id="text6"
     style="font-size:14px;font-family:Times, serif"
     aria-label="A:1" />
  <path
     id="polygon7"
     transform="translate(-7.7499983,136.5)"
     style="fill:none;stroke:#000000"
     d="m 212.75,-80.75 v 22.5 H 186.5 v -22.5 z" />
  <path
     d="m 182.368,63.048003 c 1.176,0.07 1.33,0.21 1.344,1.26 v 6.216 c -0.014,1.05 -0.196,1.218 -1.344,1.26 v 0.266 h 4.676 c 1.078,0 2.086,-0.294 2.604,-0.77 0.504,-0.448 0.784,-1.078 0.784,-1.75 0,-0.616 -0.238,-1.176 -0.686,-1.582 -0.42,-0.378 -0.798,-0.546 -1.708,-0.77 0.728,-0.182 1.022,-0.322 1.358,-0.616 0.35,-0.308 0.56,-0.812 0.56,-1.4 0,-1.568 -1.26,-2.38 -3.668,-2.38 h -3.92 z m 2.772,4.438 c 1.358,0 2.002,0.084 2.506,0.294 0.798,0.322 1.176,0.896 1.176,1.764 0,0.756 -0.294,1.302 -0.854,1.624 -0.448,0.252 -1.022,0.364 -1.946,0.364 -0.686,0 -0.882,-0.126 -0.882,-0.574 z m 0,-0.546 v -3.22 c 0.014,-0.308 0.07,-0.392 0.308,-0.406 l 0.616,-0.014 c 1.554,-0.042 2.464,0.672 2.464,1.918 0,1.106 -0.714,1.694 -2.058,1.708 z m 8.232,-1.316 c -0.42,0 -0.77,0.35 -0.77,0.798 0,0.406 0.35,0.756 0.756,0.756 0.434,0 0.798,-0.336 0.798,-0.756 0,-0.434 -0.364,-0.798 -0.784,-0.798 z m 0,5.026 c -0.42,0 -0.77,0.35 -0.77,0.798 0,0.406 0.35,0.756 0.756,0.756 0.434,0 0.798,-0.336 0.798,-0.756 0,-0.434 -0.364,-0.798 -0.784,-0.798 z m 3.64,1.4 h 3.864 v -0.21 c -1.078,0 -1.316,-0.154 -1.33,-0.826 v -8.4 l -0.112,-0.028 -2.52,1.274 v 0.196 c 0.546,-0.21 0.882,-0.308 1.008,-0.308 0.294,0 0.42,0.21 0.42,0.658 v 6.342 c -0.028,0.882 -0.266,1.078 -1.33,1.092 z"
     id="text7"
     style="font-size:14px;font-family:Times, serif"
     aria-label="B:1" />
  <path
     id="polygon8"
     transform="translate(-7.7499983,136.5)"
     style="fill:none;stroke:#000000"
     d="m 215.75,-108.25 v 53 H 183.5 v -53 z" />
  <path
     id="polygon9"
     transform="translate(-7.7499983,136.5)"
     style="fill:none;stroke:#000000"
     d="m 256,-111.25 v 59 h -35.25 v -59 z" />
  <path
     d="m 225.884,59.534003 c -0.63,-0.042 -0.77,-0.182 -1.26,-1.218 l -3.486,-7.952 h -0.28 l -2.912,6.874 c -0.896,2.044 -1.064,2.268 -1.736,2.296 v 0.266 h 2.772 v -0.266 c -0.672,0 -0.952,-0.168 -0.952,-0.574 0,-0.168 0.042,-0.364 0.112,-0.546 l 0.644,-1.638 h 3.668 l 0.574,1.344 c 0.168,0.378 0.266,0.742 0.266,0.938 0,0.35 -0.238,0.462 -0.98,0.476 v 0.266 h 3.57 z m -6.86,-3.332 1.61,-3.85 1.624,3.85 z m 16.982,-5.67 h -3.29 v 0.266 c 1.12,0.07 1.302,0.308 1.344,1.792 v 4.718 l -5.39,-6.776 h -2.394 v 0.266 c 0.602,0 0.798,0.112 1.358,0.77 v 6.174 c -0.028,1.484 -0.21,1.722 -1.358,1.792 v 0.266 h 3.29 v -0.266 c -1.078,-0.056 -1.288,-0.35 -1.316,-1.792 v -5.488 l 6.188,7.7 h 0.238 v -7.364 c 0.042,-1.456 0.224,-1.694 1.33,-1.792 z m 0.434,9.268 h 3.976 c 1.624,0 3.094,-0.462 3.962,-1.246 0.91,-0.826 1.428,-2.072 1.428,-3.43 0,-1.26 -0.406,-2.352 -1.19,-3.122 -0.952,-0.966 -2.478,-1.47 -4.396,-1.47 h -3.78 v 0.266 c 1.106,0.098 1.218,0.21 1.232,1.26 v 6.216 c -0.014,1.022 -0.182,1.19 -1.232,1.26 z m 2.66,-8.204 c 0,-0.434 0.14,-0.546 0.728,-0.546 1.218,0 2.114,0.224 2.786,0.7 1.092,0.756 1.666,1.96 1.666,3.472 0,1.652 -0.574,2.828 -1.708,3.486 -0.714,0.406 -1.526,0.574 -2.744,0.574 -0.56,0 -0.728,-0.126 -0.728,-0.574 z"
     id="text9"
     style="font-size:14px;font-family:Times, serif"
     aria-label="AND" />
  <path
     id="polygon10"
     transform="translate(-7.7499983,136.5)"
     style="fill:none;stroke:#000000"
     d="m 294.75,-111.25 v 59 H 258 v -59 z" />
  <path
     id="polygon11"
     transform="translate(-7.7499983,136.5)"
     style="fill:none;stroke:#000000"
     d="m 288.75,-105.25 v 47 H 264 v -47 z" />
  <path
     d="m 267.286,57.336003 c -0.42,1.498 -0.896,1.876 -2.408,1.932 h -3.598 l 6.048,-8.526 v -0.21 h -7.364 l -0.28,2.394 h 0.364 c 0.238,-1.414 0.742,-1.82 2.352,-1.862 h 3.094 l -6.118,8.526 v 0.21 h 7.896 l 0.336,-2.464 z m 2.618,-3.962 c -0.42,0 -0.77,0.35 -0.77,0.798 0,0.406 0.35,0.756 0.756,0.756 0.434,0 0.798,-0.336 0.798,-0.756 0,-0.434 -0.364,-0.798 -0.784,-0.798 z m 0,5.026 c -0.42,0 -0.77,0.35 -0.77,0.798 0,0.406 0.35,0.756 0.756,0.756 0.434,0 0.798,-0.336 0.798,-0.756 0,-0.434 -0.364,-0.798 -0.784,-0.798 z m 3.64,1.4 h 3.864 v -0.21 c -1.078,0 -1.316,-0.154 -1.33,-0.826 v -8.4 l -0.112,-0.028 -2.52,1.274 v 0.196 c 0.546,-0.21 0.882,-0.308 1.008,-0.308 0.294,0 0.42,0.21 0.42,0.658 v 6.342 c -0.028,0.882 -0.266,1.078 -1.33,1.092 z"
     id="text11"
     style="font-size:14px;font-family:Times, serif"
     aria-label="Z:1" />
  <path
     id="polygon12"
     transform="translate(-7.7499983,136.5)"
     style="fill:none;stroke:#000000"
     d="m 291.75,-108.25 v 53 H 261 v -53 z" />
  <path
     id="polygon13"
     transform="translate(-7.7499983,136.5)"
     style="fill:none;stroke:#000000"
     d="m 297.75,-114.25 v 65 H 177.5 v -65 z" />
  <path
     fill="none"
     stroke="#000000"
     d="M 125.75,72.75 C 149,72.75 154.5,67 177.75,67"
     id="path13" />
  <path
     id="ellipse14"
     style="stroke:#000000"
     d="m 352,54.75 a 9,9 0 0 1 -9,9 9,9 0 0 1 -9,-9 9,9 0 0 1 9,-9 9,9 0 0 1 9,9 z" />
  <path
     d="m 341.152,59.800003 h 3.864 v -0.21 c -1.078,0 -1.316,-0.154 -1.33,-0.826 v -8.4 l -0.112,-0.028 -2.52,1.274 v 0.196 c 0.546,-0.21 0.882,-0.308 1.008,-0.308 0.294,0 0.42,0.21 0.42,0.658 v 6.342 c -0.028,0.882 -0.266,1.078 -1.33,1.092 z"
     id="text14"
     style="font-size:14px;font-family:Times, serif;text-anchor:middle;fill:#ffffff"
     aria-label="1" />
  <path
     id="polygon16"
     transform="translate(-7.7499983,136.5)"
     style="fill:#808080"
     d="m 446.5,-102 v 40.5 H 403.75 V -102 Z" />
  <path
     id="polygon17"
     transform="translate(-7.7499983,136.5)"
     style="fill:none;stroke:#000000"
     d="m 443.5,-99 v 34.5 H 406.75 V -99 Z" />
  <path
     id="polygon18"
     transform="translate(-7.7499983,136.5)"
     style="fill:none;stroke:#000000"
     d="m 437.5,-93 v 22.5 H 412.75 V -93 Z" />
  <path
     d="m 416.036,57.336003 c -0.42,1.498 -0.896,1.876 -2.408,1.932 h -3.598 l 6.048,-8.526 v -0.21 h -7.364 l -0.28,2.394 h 0.364 c 0.238,-1.414 0.742,-1.82 2.352,-1.862 h 3.094 l -6.118,8.526 v 0.21 h 7.896 l 0.336,-2.464 z m 2.618,-3.962 c -0.42,0 -0.77,0.35 -0.77,0.798 0,0.406 0.35,0.756 0.756,0.756 0.434,0 0.798,-0.336 0.798,-0.756 0,-0.434 -0.364,-0.798 -0.784,-0.798 z m 0,5.026 c -0.42,0 -0.77,0.35 -0.77,0.798 0,0.406 0.35,0.756 0.756,0.756 0.434,0 0.798,-0.336 0.798,-0.756 0,-0.434 -0.364,-0.798 -0.784,-0.798 z m 3.64,1.4 h 3.864 v -0.21 c -1.078,0 -1.316,-0.154 -1.33,-0.826 v -8.4 l -0.112,-0.028 -2.52,1.274 v 0.196 c 0.546,-0.21 0.882,-0.308 1.008,-0.308 0.294,0 0.42,0.21 0.42,0.658 v 6.342 c -0.028,0.882 -0.266,1.078 -1.33,1.092 z"
     id="text18"
     style="font-size:14px;font-family:Times, serif"
     aria-label="Z:1" />
  <path
     id="polygon19"
     transform="translate(-7.7499983,136.5)"
     style="fill:none;stroke:#000000"
     d="m 440.5,-96 v 28.5 H 409.75 V -96 Z" />
  <path
     id="polygon20"
     transform="translate(-7.7499983,136.5)"
     style="fill:none;stroke:#000000"
     d="m 446.5,-102 v 40.5 H 403.75 V -102 Z" />
  <path
     fill="none"
     stroke="#000000"
     d="m 352,54.75 c 23.11,0 28.89,0 52,0"
     id="path20" />
  <path
     id="ellipse21"
     style="stroke:#000000"
     d="m 125.75,28.75 a 9,9 0 0 1 -9,9 9,9 0 0 1 -9,-9 9,9 0 0 1 9,-9 9,9 0 0 1 9,9 z" />
  <path
     d="m 114.902,33.800003 h 3.864 v -0.21 c -1.078,0 -1.316,-0.154 -1.33,-0.826 v -8.4 l -0.112,-0.028 -2.52,1.274 v 0.196 c 0.546,-0.21 0.882,-0.308 1.008,-0.308 0.294,0 0.42,0.21 0.42,0.658 v 6.342 c -0.028,0.882 -0.266,1.078 -1.33,1.092 z"
     id="text21"
     style="font-size:14px;font-family:Times, serif;text-anchor:middle;fill:#ffffff"
     aria-label="1" />
  <path
     fill="none"
     stroke="#000000"
     d="m 125.75,28.75 c 23.91,0 28.09,13.75 52,13.75"
     id="path22" />
  <path
     id="polygon24"
     transform="translate(-7.7499983,136.5)"
     style="fill:#20b2aa"
     d="m 71.5,-136 v 40.5 H 8 V -136 Z" />
  <path
     id="polygon25"
     transform="translate(-7.7499983,136.5)"
     style="fill:none;stroke:#000000"
     d="m 41.75,-133 v 34.5 H 11 V -133 Z" />
  <path
     d="m 10.380001,16.336003 c -1.0359996,0.686 -1.4559996,1.036 -1.9739996,1.68 -0.994,1.218 -1.484,2.618 -1.484,4.256 0,1.792 0.518,3.15 1.75,4.578 0.574,0.672 0.938,0.98 1.6659996,1.428 l 0.168,-0.224 c -1.1199996,-0.882 -1.5119996,-1.386 -1.8899996,-2.422 -0.336,-0.938 -0.49,-1.988 -0.49,-3.402 0,-1.47 0.182,-2.632 0.56,-3.486 0.392,-0.868 0.812,-1.372 1.8199996,-2.184 z m 2.184003,9.464 h 3.864 v -0.21 c -1.078,0 -1.316,-0.154 -1.33,-0.826 v -8.4 l -0.112,-0.028 -2.52,1.274 v 0.196 c 0.546,-0.21 0.882,-0.308 1.008,-0.308 0.294,0 0.42,0.21 0.42,0.658 v 6.342 c -0.028,0.882 -0.266,1.078 -1.33,1.092 z m 5.88,2.478 c 1.036,-0.686 1.456,-1.036 1.974,-1.68 0.994,-1.218 1.484,-2.618 1.484,-4.256 0,-1.792 -0.518,-3.15 -1.75,-4.578 -0.574,-0.672 -0.938,-0.98 -1.666,-1.428 l -0.168,0.224 c 1.12,0.882 1.498,1.372 1.89,2.422 0.336,0.938 0.49,1.988 0.49,3.402 0,1.47 -0.182,2.618 -0.56,3.472 -0.378,0.868 -0.812,1.386 -1.82,2.198 z m 6.664003,-8.946 c -1.148,0.84 -1.75,2.072 -1.75,3.514 0,1.75 0.868,3.052 2.044,3.052 0.756,0 1.4,-0.504 1.848,-1.47 0.448,0.98 0.994,1.47 1.666,1.47 1.176,0 2.086,-1.484 2.086,-3.402 0,-1.876 -0.686,-3.164 -1.68,-3.164 -0.35,0 -0.602,0.252 -0.602,0.602 0,0.266 0.168,0.518 0.392,0.616 0.7,0.266 0.77,0.308 0.98,0.63 0.252,0.364 0.392,0.938 0.392,1.54 0,1.288 -0.686,2.254 -1.624,2.254 -0.602,0 -1.008,-0.322 -1.358,-1.078 0.252,-0.742 0.35,-1.218 0.35,-1.806 0,-0.7 -0.196,-1.092 -0.532,-1.092 -0.392,0 -0.616,0.434 -0.616,1.19 0,0.63 0.098,1.092 0.35,1.736 -0.364,0.728 -0.784,1.064 -1.274,1.064 -0.812,0 -1.288,-0.91 -1.288,-2.478 0,-1.176 0.294,-2.156 0.882,-2.996 z"
     id="text25"
     style="font-size:14px;font-family:Times, serif"
     aria-label="(1)ω" />
  <path
     id="polygon26"
     transform="translate(-7.7499983,136.5)"
     style="fill:none;stroke:#000000"
     d="m 68.5,-133 v 34.5 H 43.75 V -133 Z" />
  <path
     id="polygon27"
     transform="translate(-7.7499983,136.5)"
     style="fill:none;stroke:#000000"
     d="m 62.5,-127 v 22.5 H 49.75 V -127 Z" />
  <path
     d="m 46.652,25.800003 h 3.864 v -0.21 c -1.078,0 -1.316,-0.154 -1.33,-0.826 v -8.4 l -0.112,-0.028 -2.52,1.274 v 0.196 c 0.546,-0.21 0.882,-0.308 1.008,-0.308 0.294,0 0.42,0.21 0.42,0.658 v 6.342 c -0.028,0.882 -0.266,1.078 -1.33,1.092 z"
     id="text27"
     style="font-size:14px;font-family:Times, serif"
     aria-label="1" />
  <path
     id="polygon28"
     transform="translate(-7.7499983,136.5)"
     style="fill:none;stroke:#000000"
     d="m 65.5,-130 v 28.5 H 46.75 V -130 Z" />
  <path
     id="polygon29"
     transform="translate(-7.7499983,136.5)"
     style="fill:none;stroke:#000000"
     d="m 71.5,-136 v 40.5 H 8 V -136 Z" />
  <path
     fill="none"
     stroke="#000000"
     d="m 55.750002,20.75 c 23.38,0 28.62,8 51.999998,8"
     id="path29" />
  <path
     fill="none"
     stroke="#000000"
     d="m 282,54.75 c 23.11,0 28.89,0 52,0"
     id="path30" />
  <path
     id="polygon32"
     transform="translate(-7.7499983,136.5)"
     style="fill:#808080"
     d="m 61.5,-69 v 40.5 H 18 V -69 Z" />
  <path
     id="polygon33"
     transform="translate(-7.7499983,136.5)"
     style="fill:none;stroke:#000000"
     d="m 58.5,-66 v 34.5 H 21 V -66 Z" />
  <path
     id="polygon34"
     transform="translate(-7.7499983,136.5)"
     style="fill:none;stroke:#000000"
     d="m 52.5,-60 v 22.5 H 27 V -60 Z" />
  <path
     d="m 22.488002,83.798003 c 1.176,0.07 1.33,0.21 1.344,1.26 v 6.216 c -0.014,1.05 -0.196,1.218 -1.344,1.26 v 0.266 h 4.676 c 1.078,0 2.086,-0.294 2.604,-0.77 0.504,-0.448 0.784,-1.078 0.784,-1.75 0,-0.616 -0.238,-1.176 -0.686,-1.582 -0.42,-0.378 -0.798,-0.546 -1.708,-0.77 0.728,-0.182 1.022,-0.322 1.358,-0.616 0.35,-0.308 0.56,-0.812 0.56,-1.4 0,-1.568 -1.26,-2.38 -3.668,-2.38 h -3.92 z m 2.772,4.438 c 1.358,0 2.002,0.084 2.506,0.294 0.798,0.322 1.176,0.896 1.176,1.764 0,0.756 -0.294,1.302 -0.854,1.624 -0.448,0.252 -1.022,0.364 -1.946,0.364 -0.686,0 -0.882,-0.126 -0.882,-0.574 z m 0,-0.546 v -3.22 c 0.014,-0.308 0.07,-0.392 0.308,-0.406 l 0.616,-0.014 c 1.554,-0.042 2.464,0.672 2.464,1.918 0,1.106 -0.714,1.694 -2.058,1.708 z m 8.231997,-1.316 c -0.42,0 -0.77,0.35 -0.77,0.798 0,0.406 0.35,0.756 0.756,0.756 0.434,0 0.798,-0.336 0.798,-0.756 0,-0.434 -0.364,-0.798 -0.784,-0.798 z m 0,5.026 c -0.42,0 -0.77,0.35 -0.77,0.798 0,0.406 0.35,0.756 0.756,0.756 0.434,0 0.798,-0.336 0.798,-0.756 0,-0.434 -0.364,-0.798 -0.784,-0.798 z m 3.639999,1.4 h 3.864 v -0.21 c -1.078,0 -1.316,-0.154 -1.33,-0.826 v -8.4 l -0.112,-0.028 -2.52,1.274 v 0.196 c 0.546,-0.21 0.882,-0.308 1.008,-0.308 0.294,0 0.42,0.21 0.42,0.658 v 6.342 c -0.028,0.882 -0.266,1.078 -1.33,1.092 z"
     id="text34"
     style="font-size:14px;font-family:Times, serif"
     aria-label="B:1" />
  <path
     id="polygon35"
     transform="translate(-7.7499983,136.5)"
     style="fill:none;stroke:#000000"
     d="m 55.5,-63 v 28.5 H 24 V -63 Z" />
  <path
     id="polygon36"
     transform="translate(-7.7499983,136.5)"
     style="fill:none;stroke:#000000"
     d="m 61.5,-69 v 40.5 H 18 V -69 Z" />
  <path
     fill="none"
     stroke="#000000"
     d="m 45.750002,87.75 c 28.35,0 33.65,-15 61.999998,-15"
     id="path36" />
</svg>
