<?xml version="1.0" encoding="UTF-8" standalone="no"?>
<!-- Generated by graphviz version 11.0.0 (0)
 -->

<!-- Title: circuit Pages: 1 -->

<svg
   width="1280pt"
   height="178.5pt"
   viewBox="0 0 1280 178.5"
   version="1.1"
   id="svg96"
   sodipodi:docname="rewrite-1.svg"
   inkscape:version="1.3.2 (091e20ef0f, 2023-11-25, custom)"
   xmlns:inkscape="http://www.inkscape.org/namespaces/inkscape"
   xmlns:sodipodi="http://sodipodi.sourceforge.net/DTD/sodipodi-0.dtd"
   xmlns="http://www.w3.org/2000/svg"
   xmlns:svg="http://www.w3.org/2000/svg">
  <defs
     id="defs96" />
  <sodipodi:namedview
     id="namedview96"
     pagecolor="#ffffff"
     bordercolor="#000000"
     borderopacity="0.25"
     inkscape:showpageshadow="2"
     inkscape:pageopacity="0.0"
     inkscape:pagecheckerboard="0"
     inkscape:deskcolor="#d1d1d1"
     inkscape:document-units="pt"
     inkscape:zoom="1.1552187"
     inkscape:cx="853.0852"
     inkscape:cy="135.03936"
     inkscape:window-width="2560"
     inkscape:window-height="1380"
     inkscape:window-x="1920"
     inkscape:window-y="32"
     inkscape:window-maximized="1"
     inkscape:current-layer="svg96" />
  <path
     id="ellipse2"
     style="stroke:#000000"
     d="m 150,20.75 a 9,9 0 0 1 -9,9 9,9 0 0 1 -9,-9 9,9 0 0 1 9,-9 9,9 0 0 1 9,9 z" />
  <path
     d="m 139.152,25.800003 h 3.864 v -0.21 c -1.078,0 -1.316,-0.154 -1.33,-0.826 v -8.4 l -0.112,-0.028 -2.52,1.274 v 0.196 c 0.546,-0.21 0.882,-0.308 1.008,-0.308 0.294,0 0.42,0.21 0.42,0.658 v 6.342 c -0.028,0.882 -0.266,1.078 -1.33,1.092 z"
     id="text2"
     style="font-size:14px;font-family:Times, serif;text-anchor:middle;fill:#ffffff"
     aria-label="1" />
  <path
     id="polygon4"
     style="fill:#00ffff"
     d="M 194,41 V 0.5 H 312.75 V 41 Z" />
  <path
     id="polygon5"
     style="fill:none;stroke:#000000"
     d="M 197,38 V 3.5 h 38.25 V 38 Z" />
  <path
     id="polygon6"
     style="fill:none;stroke:#000000"
     d="M 203,32 V 9.5 h 26.25 V 32 Z" />
  <path
     d="m 215.884,25.534003 c -0.63,-0.042 -0.77,-0.182 -1.26,-1.218 l -3.486,-7.952 h -0.28 l -2.912,6.874 c -0.896,2.044 -1.064,2.268 -1.736,2.296 v 0.266 h 2.772 v -0.266 c -0.672,0 -0.952,-0.168 -0.952,-0.574 0,-0.168 0.042,-0.364 0.112,-0.546 l 0.644,-1.638 h 3.668 l 0.574,1.344 c 0.168,0.378 0.266,0.742 0.266,0.938 0,0.35 -0.238,0.462 -0.98,0.476 v 0.266 h 3.57 z m -6.86,-3.332 1.61,-3.85 1.624,3.85 z m 8.988,-2.828 c -0.42,0 -0.77,0.35 -0.77,0.798 0,0.406 0.35,0.756 0.756,0.756 0.434,0 0.798,-0.336 0.798,-0.756 0,-0.434 -0.364,-0.798 -0.784,-0.798 z m 0,5.026 c -0.42,0 -0.77,0.35 -0.77,0.798 0,0.406 0.35,0.756 0.756,0.756 0.434,0 0.798,-0.336 0.798,-0.756 0,-0.434 -0.364,-0.798 -0.784,-0.798 z m 3.64,1.4 h 3.864 v -0.21 c -1.078,0 -1.316,-0.154 -1.33,-0.826 v -8.4 l -0.112,-0.028 -2.52,1.274 v 0.196 c 0.546,-0.21 0.882,-0.308 1.008,-0.308 0.294,0 0.42,0.21 0.42,0.658 v 6.342 c -0.028,0.882 -0.266,1.078 -1.33,1.092 z"
     id="text6"
     style="font-size:14px;font-family:Times, serif"
     aria-label="A:1" />
  <path
     id="polygon7"
     style="fill:none;stroke:#000000"
     d="M 200,35 V 6.5 h 32.25 V 35 Z" />
  <path
     id="polygon8"
     style="fill:none;stroke:#000000"
     d="M 237.25,38 V 3.5 H 271 V 38 Z" />
  <path
     d="m 250.148,16.532003 h -3.29 v 0.266 c 1.12,0.07 1.302,0.308 1.344,1.792 v 4.718 l -5.39,-6.776 h -2.394 v 0.266 c 0.602,0 0.798,0.112 1.358,0.77 v 6.174 c -0.028,1.484 -0.21,1.722 -1.358,1.792 v 0.266 h 3.29 v -0.266 c -1.078,-0.056 -1.288,-0.35 -1.316,-1.792 v -5.488 l 6.188,7.7 h 0.238 v -7.364 c 0.042,-1.456 0.224,-1.694 1.33,-1.792 z m 4.99801,-0.196 c -2.674,0 -4.578,2.002 -4.578,4.83 0,1.316 0.448,2.604 1.204,3.402 0.812,0.882 2.058,1.428 3.29,1.428 2.758,0 4.662,-1.946 4.662,-4.774 0,-1.386 -0.406,-2.59 -1.176,-3.416 -0.882,-0.966 -2.058,-1.47 -3.402,-1.47 z m 0,0.504 c 0.644,0 1.288,0.252 1.792,0.7 0.756,0.686 1.19,2.002 1.19,3.668 0,0.826 -0.168,1.792 -0.462,2.52 -0.126,0.35 -0.364,0.7 -0.686,1.022 -0.49,0.49 -1.12,0.742 -1.862,0.742 -0.644,0 -1.274,-0.252 -1.778,-0.686 -0.714,-0.644 -1.176,-2.058 -1.176,-3.612 0,-1.428 0.392,-2.786 0.98,-3.444 0.546,-0.602 1.232,-0.91 2.002,-0.91 z m 11.28401,8.694 c -1.148,-0.056 -1.33,-0.224 -1.344,-1.26 v -7.154 h 0.756 c 1.624,0.028 1.918,0.266 2.226,1.792 h 0.336 l -0.084,-2.38 h -7.896 l -0.084,2.38 h 0.336 c 0.322,-1.526 0.616,-1.764 2.226,-1.792 h 0.756 v 7 c -0.014,1.204 -0.14,1.344 -1.316,1.414 v 0.266 h 4.088 z"
     id="text8"
     style="font-size:14px;font-family:Times, serif"
     aria-label="NOT" />
  <path
     id="polygon9"
     style="fill:none;stroke:#000000"
     d="M 273,38 V 3.5 h 36.75 V 38 Z" />
  <path
     id="polygon10"
     style="fill:none;stroke:#000000"
     d="M 279,32 V 9.5 h 24.75 V 32 Z" />
  <path
     d="m 290.036,23.336003 c -0.42,1.498 -0.896,1.876 -2.408,1.932 h -3.598 l 6.048,-8.526 v -0.21 h -7.364 l -0.28,2.394 h 0.364 c 0.238,-1.414 0.742,-1.82 2.352,-1.862 h 3.094 l -6.118,8.526 v 0.21 h 7.896 l 0.336,-2.464 z m 2.618,-3.962 c -0.42,0 -0.77,0.35 -0.77,0.798 0,0.406 0.35,0.756 0.756,0.756 0.434,0 0.798,-0.336 0.798,-0.756 0,-0.434 -0.364,-0.798 -0.784,-0.798 z m 0,5.026 c -0.42,0 -0.77,0.35 -0.77,0.798 0,0.406 0.35,0.756 0.756,0.756 0.434,0 0.798,-0.336 0.798,-0.756 0,-0.434 -0.364,-0.798 -0.784,-0.798 z m 3.64,1.4 h 3.864 v -0.21 c -1.078,0 -1.316,-0.154 -1.33,-0.826 v -8.4 l -0.112,-0.028 -2.52,1.274 v 0.196 c 0.546,-0.21 0.882,-0.308 1.008,-0.308 0.294,0 0.42,0.21 0.42,0.658 v 6.342 c -0.028,0.882 -0.266,1.078 -1.33,1.092 z"
     id="text10"
     style="font-size:14px;font-family:Times, serif"
     aria-label="Z:1" />
  <path
     id="polygon11"
     style="fill:none;stroke:#000000"
     d="M 276,35 V 6.5 h 30.75 V 35 Z" />
  <path
     id="polygon12"
     style="fill:none;stroke:#000000"
     d="M 194,41 V 0.5 H 312.75 V 41 Z" />
  <path
     fill="none"
     stroke="#000000"
     d="m 150,20.75 c 23.11,0 28.89,0 52,0"
     id="path12" />
  <path
     id="ellipse13"
     style="stroke:#000000"
     d="m 482.62,139.75 a 9,9 0 0 1 -9,9 9,9 0 0 1 -9,-9 9,9 0 0 1 9,-9 9,9 0 0 1 9,9 z" />
  <path
     d="m 471.772,144.8 h 3.864 v -0.21 c -1.078,0 -1.316,-0.154 -1.33,-0.826 v -8.4 l -0.112,-0.028 -2.52,1.274 v 0.196 c 0.546,-0.21 0.882,-0.308 1.008,-0.308 0.294,0 0.42,0.21 0.42,0.658 v 6.342 c -0.028,0.882 -0.266,1.078 -1.33,1.092 z"
     id="text13"
     style="font-size:14px;font-family:Times, serif;text-anchor:middle;fill:#ffffff"
     aria-label="1" />
  <path
     id="polygon15"
     style="fill:#00ffff"
     d="m 850.25,152.25 v -65 H 970.5 v 65 z" />
  <path
     id="polygon16"
     style="fill:none;stroke:#000000"
     d="m 853.25,149.25 v -59 h 38.25 v 59 z" />
  <path
     id="polygon17"
     style="fill:none;stroke:#000000"
     d="m 859.25,118.75 v -22.5 h 26.25 v 22.5 z" />
  <path
     d="m 872.134,112.284 c -0.63,-0.042 -0.77,-0.182 -1.26,-1.218 l -3.486,-7.952 h -0.28 l -2.912,6.874 c -0.896,2.044 -1.064,2.268 -1.736,2.296 v 0.266 h 2.772 v -0.266 c -0.672,0 -0.952,-0.168 -0.952,-0.574 0,-0.168 0.042,-0.364 0.112,-0.546 l 0.644,-1.638 h 3.668 l 0.574,1.344 c 0.168,0.378 0.266,0.742 0.266,0.938 0,0.35 -0.238,0.462 -0.98,0.476 v 0.266 h 3.57 z m -6.86,-3.332 1.61,-3.85 1.624,3.85 z m 8.988,-2.828 c -0.42,0 -0.77,0.35 -0.77,0.798 0,0.406 0.35,0.756 0.756,0.756 0.434,0 0.798,-0.336 0.798,-0.756 0,-0.434 -0.364,-0.798 -0.784,-0.798 z m 0,5.026 c -0.42,0 -0.77,0.35 -0.77,0.798 0,0.406 0.35,0.756 0.756,0.756 0.434,0 0.798,-0.336 0.798,-0.756 0,-0.434 -0.364,-0.798 -0.784,-0.798 z m 3.64,1.4 h 3.864 v -0.21 c -1.078,0 -1.316,-0.154 -1.33,-0.826 v -8.4 l -0.112,-0.028 -2.52,1.274 v 0.196 c 0.546,-0.21 0.882,-0.308 1.008,-0.308 0.294,0 0.42,0.21 0.42,0.658 v 6.342 c -0.028,0.882 -0.266,1.078 -1.33,1.092 z"
     id="text17"
     style="font-size:14px;font-family:Times, serif"
     aria-label="A:1" />
  <path
     id="polygon18"
     style="fill:none;stroke:#000000"
     d="m 859.25,143.25 v -22.5 h 26.25 v 22.5 z" />
  <path
     d="m 862.858,128.048 c 1.176,0.07 1.33,0.21 1.344,1.26 v 6.216 c -0.014,1.05 -0.196,1.218 -1.344,1.26 v 0.266 h 4.676 c 1.078,0 2.086,-0.294 2.604,-0.77 0.504,-0.448 0.784,-1.078 0.784,-1.75 0,-0.616 -0.238,-1.176 -0.686,-1.582 -0.42,-0.378 -0.798,-0.546 -1.708,-0.77 0.728,-0.182 1.022,-0.322 1.358,-0.616 0.35,-0.308 0.56,-0.812 0.56,-1.4 0,-1.568 -1.26,-2.38 -3.668,-2.38 h -3.92 z m 2.772,4.438 c 1.358,0 2.002,0.084 2.506,0.294 0.798,0.322 1.176,0.896 1.176,1.764 0,0.756 -0.294,1.302 -0.854,1.624 -0.448,0.252 -1.022,0.364 -1.946,0.364 -0.686,0 -0.882,-0.126 -0.882,-0.574 z m 0,-0.546 v -3.22 c 0.014,-0.308 0.07,-0.392 0.308,-0.406 l 0.616,-0.014 c 1.554,-0.042 2.464,0.672 2.464,1.918 0,1.106 -0.714,1.694 -2.058,1.708 z m 8.23199,-1.316 c -0.42,0 -0.77,0.35 -0.77,0.798 0,0.406 0.35,0.756 0.756,0.756 0.434,0 0.798,-0.336 0.798,-0.756 0,-0.434 -0.364,-0.798 -0.784,-0.798 z m 0,5.026 c -0.42,0 -0.77,0.35 -0.77,0.798 0,0.406 0.35,0.756 0.756,0.756 0.434,0 0.798,-0.336 0.798,-0.756 0,-0.434 -0.364,-0.798 -0.784,-0.798 z m 3.64,1.4 h 3.864 v -0.21 c -1.078,0 -1.316,-0.154 -1.33,-0.826 v -8.4 l -0.112,-0.028 -2.52,1.274 v 0.196 c 0.546,-0.21 0.882,-0.308 1.008,-0.308 0.294,0 0.42,0.21 0.42,0.658 v 6.342 c -0.028,0.882 -0.266,1.078 -1.33,1.092 z"
     id="text18"
     style="font-size:14px;font-family:Times, serif"
     aria-label="B:1" />
  <path
     id="polygon19"
     style="fill:none;stroke:#000000"
     d="m 856.25,146.25 v -53 h 32.25 v 53 z" />
  <path
     id="polygon20"
     style="fill:none;stroke:#000000"
     d="m 893.5,149.25 v -59 h 35.25 v 59 z" />
  <path
     d="m 906.384,124.534 c -0.63,-0.042 -0.77,-0.182 -1.26,-1.218 l -3.486,-7.952 h -0.28 l -2.912,6.874 c -0.896,2.044 -1.064,2.268 -1.736,2.296 v 0.266 h 2.772 v -0.266 c -0.672,0 -0.952,-0.168 -0.952,-0.574 0,-0.168 0.042,-0.364 0.112,-0.546 l 0.644,-1.638 h 3.668 l 0.574,1.344 c 0.168,0.378 0.266,0.742 0.266,0.938 0,0.35 -0.238,0.462 -0.98,0.476 v 0.266 h 3.57 z m -6.86,-3.332 1.61,-3.85 1.624,3.85 z m 16.982,-5.67 h -3.29 v 0.266 c 1.12,0.07 1.302,0.308 1.344,1.792 v 4.718 l -5.39,-6.776 h -2.394 v 0.266 c 0.602,0 0.798,0.112 1.358,0.77 v 6.174 c -0.028,1.484 -0.21,1.722 -1.358,1.792 v 0.266 h 3.29 v -0.266 c -1.078,-0.056 -1.288,-0.35 -1.316,-1.792 v -5.488 l 6.188,7.7 h 0.238 v -7.364 c 0.042,-1.456 0.224,-1.694 1.33,-1.792 z m 0.434,9.268 h 3.976 c 1.624,0 3.094,-0.462 3.962,-1.246 0.91,-0.826 1.428,-2.072 1.428,-3.43 0,-1.26 -0.406,-2.352 -1.19,-3.122 -0.952,-0.966 -2.478,-1.47 -4.396,-1.47 h -3.78 v 0.266 c 1.106,0.098 1.218,0.21 1.232,1.26 v 6.216 c -0.014,1.022 -0.182,1.19 -1.232,1.26 z m 2.66,-8.204 c 0,-0.434 0.14,-0.546 0.728,-0.546 1.218,0 2.114,0.224 2.786,0.7 1.092,0.756 1.666,1.96 1.666,3.472 0,1.652 -0.574,2.828 -1.708,3.486 -0.714,0.406 -1.526,0.574 -2.744,0.574 -0.56,0 -0.728,-0.126 -0.728,-0.574 z"
     id="text20"
     style="font-size:14px;font-family:Times, serif"
     aria-label="AND" />
  <path
     id="polygon21"
     style="fill:none;stroke:#000000"
     d="m 930.75,149.25 v -59 h 36.75 v 59 z" />
  <path
     id="polygon22"
     style="fill:none;stroke:#000000"
     d="m 936.75,143.25 v -47 h 24.75 v 47 z" />
  <path
     d="m 947.786,122.336 c -0.42,1.498 -0.896,1.876 -2.408,1.932 h -3.598 l 6.048,-8.526 v -0.21 h -7.364 l -0.28,2.394 h 0.364 c 0.238,-1.414 0.742,-1.82 2.352,-1.862 h 3.094 l -6.118,8.526 v 0.21 h 7.896 l 0.336,-2.464 z m 2.618,-3.962 c -0.42,0 -0.77,0.35 -0.77,0.798 0,0.406 0.35,0.756 0.756,0.756 0.434,0 0.798,-0.336 0.798,-0.756 0,-0.434 -0.364,-0.798 -0.784,-0.798 z m 0,5.026 c -0.42,0 -0.77,0.35 -0.77,0.798 0,0.406 0.35,0.756 0.756,0.756 0.434,0 0.798,-0.336 0.798,-0.756 0,-0.434 -0.364,-0.798 -0.784,-0.798 z m 3.64,1.4 h 3.864 v -0.21 c -1.078,0 -1.316,-0.154 -1.33,-0.826 v -8.4 l -0.112,-0.028 -2.52,1.274 v 0.196 c 0.546,-0.21 0.882,-0.308 1.008,-0.308 0.294,0 0.42,0.21 0.42,0.658 v 6.342 c -0.028,0.882 -0.266,1.078 -1.33,1.092 z"
     id="text22"
     style="font-size:14px;font-family:Times, serif"
     aria-label="Z:1" />
  <path
     id="polygon23"
     style="fill:none;stroke:#000000"
     d="m 933.75,146.25 v -53 h 30.75 v 53 z" />
  <path
     id="polygon24"
     style="fill:none;stroke:#000000"
     d="m 850.25,152.25 v -65 H 970.5 v 65 z" />
  <path
     fill="none"
     stroke="#000000"
     d="m 484.08,139.75 c 166.34,0 207.84,-7.75 374.17,-7.75"
     id="path24" />
  <path
     id="ellipse25"
     style="stroke:#000000"
     d="m 1032.5,119.75 a 9,9 0 0 1 -9,9 9,9 0 0 1 -9,-9 9,9 0 0 1 9,-9 9,9 0 0 1 9,9 z" />
  <path
     d="m 1021.652,124.8 h 3.864 v -0.21 c -1.078,0 -1.316,-0.154 -1.33,-0.826 v -8.4 l -0.112,-0.028 -2.52,1.274 v 0.196 c 0.546,-0.21 0.882,-0.308 1.008,-0.308 0.294,0 0.42,0.21 0.42,0.658 v 6.342 c -0.028,0.882 -0.266,1.078 -1.33,1.092 z"
     id="text25"
     style="font-size:14px;font-family:Times, serif;text-anchor:middle;fill:#ffffff"
     aria-label="1" />
  <path
     id="polygon27"
     style="fill:#ffff00"
     d="M 1076.5,126 V 85.5 h 108.25 V 126 Z" />
  <path
     id="polygon28"
     style="fill:none;stroke:#000000"
     d="M 1079.5,123 V 88.5 h 24.75 V 123 Z" />
  <path
     id="polygon29"
     style="fill:none;stroke:#000000"
     d="M 1085.5,117 V 94.5 h 12.75 V 117 Z" />
  <path
     d="m 1090.152,110.8 h 3.864 v -0.21 c -1.078,0 -1.316,-0.154 -1.33,-0.826 v -8.4 l -0.112,-0.028 -2.52,1.274 v 0.196 c 0.546,-0.21 0.882,-0.308 1.008,-0.308 0.294,0 0.42,0.21 0.42,0.658 v 6.342 c -0.028,0.882 -0.266,1.078 -1.33,1.092 z"
     id="text29"
     style="font-size:14px;font-family:Times, serif"
     aria-label="1" />
  <path
     id="polygon30"
     style="fill:none;stroke:#000000"
     d="M 1082.5,120 V 91.5 h 18.75 V 120 Z" />
  <path
     id="polygon31"
     style="fill:none;stroke:#000000"
     d="M 1106.25,123 V 88.5 H 1155 V 123 Z" />
  <path
     d="m 1116.124,109.988 c -0.182,0.014 -0.266,0.014 -0.322,0.014 -0.49,0 -0.616,-0.154 -0.616,-0.798 v -7.938 l -0.07,-0.028 c -0.658,0.224 -1.134,0.378 -2.058,0.616 v 0.224 c 0.112,-0.014 0.182,-0.014 0.308,-0.014 0.518,0 0.644,0.14 0.644,0.714 v 2.184 c -0.532,-0.448 -0.91,-0.602 -1.47,-0.602 -1.61,0 -2.912,1.582 -2.912,3.57 0,1.792 1.036,3.01 2.59,3.01 0.784,0 1.316,-0.28 1.792,-0.938 v 0.896 l 0.056,0.042 2.058,-0.728 z m -2.114,-0.616 c 0,0.098 -0.098,0.266 -0.238,0.42 -0.238,0.28 -0.602,0.42 -1.008,0.42 -1.176,0 -1.932,-1.12 -1.932,-2.856 0,-1.568 0.686,-2.604 1.75,-2.604 0.756,0 1.428,0.658 1.428,1.4 z m 7.952,-0.868 c -0.672,1.064 -1.274,1.47 -2.17,1.47 -0.798,0 -1.4,-0.406 -1.806,-1.204 -0.252,-0.532 -0.35,-0.98 -0.378,-1.848 h 4.312 c -0.112,-0.91 -0.252,-1.316 -0.602,-1.764 -0.42,-0.504 -1.064,-0.798 -1.792,-0.798 -0.7,0 -1.358,0.252 -1.89,0.728 -0.658,0.574 -1.036,1.568 -1.036,2.716 0,1.932 1.008,3.136 2.618,3.136 1.33,0 2.38,-0.826 2.968,-2.338 z m -4.326,-2.03 c 0.154,-1.092 0.63,-1.61 1.484,-1.61 0.854,0 1.19,0.392 1.372,1.61 z m 4.816,4.326 h 3.304 v -0.21 c -0.882,-0.042 -1.036,-0.182 -1.05,-0.966 v -8.358 l -0.056,-0.028 c -0.714,0.224 -1.232,0.378 -2.226,0.616 v 0.224 h 0.084 c 0.154,-0.014 0.322,-0.028 0.434,-0.028 0.448,0 0.588,0.196 0.588,0.854 v 6.678 c -0.014,0.756 -0.21,0.952 -1.078,1.008 z m 9.786,-0.924 c -0.238,0.196 -0.406,0.266 -0.616,0.266 -0.322,0 -0.42,-0.196 -0.42,-0.812 v -2.73 c 0,-0.728 -0.07,-1.134 -0.28,-1.47 -0.308,-0.504 -0.91,-0.77 -1.736,-0.77 -1.316,0 -2.352,0.686 -2.352,1.568 0,0.322 0.266,0.602 0.602,0.602 0.336,0 0.63,-0.28 0.63,-0.588 0,-0.056 -0.014,-0.126 -0.028,-0.224 -0.028,-0.126 -0.042,-0.238 -0.042,-0.336 0,-0.378 0.448,-0.686 1.008,-0.686 0.686,0 1.064,0.406 1.064,1.162 v 0.854 c -2.142,0.854 -2.394,0.98 -2.996,1.512 -0.308,0.28 -0.504,0.756 -0.504,1.218 0,0.882 0.616,1.498 1.47,1.498 0.616,0 1.19,-0.294 2.044,-1.022 0.07,0.742 0.322,1.022 0.896,1.022 0.476,0 0.77,-0.168 1.26,-0.7 z m -2.17,-0.798 c 0,0.42 -0.07,0.574 -0.364,0.742 -0.35,0.196 -0.728,0.308 -1.022,0.308 -0.49,0 -0.882,-0.476 -0.882,-1.078 v -0.056 c 0.014,-0.84 0.63,-1.372 2.268,-1.946 z m 8.302,-4.578 h -1.89 v 0.21 c 0.448,0 0.672,0.126 0.672,0.35 0,0.056 -0.014,0.14 -0.056,0.238 l -1.358,3.864 -1.61,-3.542 c -0.084,-0.196 -0.14,-0.392 -0.14,-0.532 0,-0.252 0.21,-0.35 0.812,-0.378 v -0.21 h -2.884 v 0.196 c 0.364,0.056 0.602,0.21 0.714,0.448 l 1.596,3.444 c 0.168,0.378 0.182,0.392 0.252,0.532 0.392,0.7 0.616,1.218 0.616,1.428 0,0.224 -0.322,1.078 -0.56,1.512 -0.21,0.35 -0.504,0.616 -0.7,0.616 -0.084,0 -0.21,-0.028 -0.364,-0.098 -0.252,-0.098 -0.504,-0.154 -0.728,-0.154 -0.336,0 -0.602,0.266 -0.602,0.616 0,0.462 0.434,0.812 1.036,0.812 0.952,0 1.596,-0.77 2.366,-2.8 l 2.156,-5.712 c 0.182,-0.448 0.336,-0.588 0.672,-0.63 z m 7.336,8.148 v -0.7 h -6.958 v 0.7 z m 1.666,-1.848 h 3.864 v -0.21 c -1.078,0 -1.316,-0.154 -1.33,-0.826 v -8.4 l -0.112,-0.028 -2.52,1.274 v 0.196 c 0.546,-0.21 0.882,-0.308 1.008,-0.308 0.294,0 0.42,0.21 0.42,0.658 v 6.342 c -0.028,0.882 -0.266,1.078 -1.33,1.092 z"
     id="text31"
     style="font-size:14px;font-family:Times, serif"
     aria-label="delay_1" />
  <path
     id="polygon32"
     style="fill:none;stroke:#000000"
     d="M 1157,123 V 88.5 h 24.75 V 123 Z" />
  <path
     id="polygon33"
     style="fill:none;stroke:#000000"
     d="M 1163,117 V 94.5 h 12.75 V 117 Z" />
  <path
     d="m 1167.652,110.8 h 3.864 v -0.21 c -1.078,0 -1.316,-0.154 -1.33,-0.826 v -8.4 l -0.112,-0.028 -2.52,1.274 v 0.196 c 0.546,-0.21 0.882,-0.308 1.008,-0.308 0.294,0 0.42,0.21 0.42,0.658 v 6.342 c -0.028,0.882 -0.266,1.078 -1.33,1.092 z"
     id="text33"
     style="font-size:14px;font-family:Times, serif"
     aria-label="1" />
  <path
     id="polygon34"
     style="fill:none;stroke:#000000"
     d="M 1160,120 V 91.5 h 18.75 V 120 Z" />
  <path
     id="polygon35"
     style="fill:none;stroke:#000000"
     d="M 1076.5,126 V 85.5 h 108.25 V 126 Z" />
  <path
     fill="none"
     stroke="#000000"
     d="m 1032.5,119.75 c 23.93,0 28.07,-14 52,-14"
     id="path35" />
  <path
     id="polygon37"
     style="fill:#808080"
     d="m 1236.75,178 v -40.5 h 42.75 V 178 Z" />
  <path
     id="polygon38"
     style="fill:none;stroke:#000000"
     d="m 1239.75,175 v -34.5 h 36.75 V 175 Z" />
  <path
     id="polygon39"
     style="fill:none;stroke:#000000"
     d="m 1245.75,169 v -22.5 h 24.75 V 169 Z" />
  <path
     d="m 1256.786,160.336 c -0.42,1.498 -0.896,1.876 -2.408,1.932 h -3.598 l 6.048,-8.526 v -0.21 h -7.364 l -0.28,2.394 h 0.364 c 0.238,-1.414 0.742,-1.82 2.352,-1.862 h 3.094 l -6.118,8.526 v 0.21 h 7.896 l 0.336,-2.464 z m 2.618,-3.962 c -0.42,0 -0.77,0.35 -0.77,0.798 0,0.406 0.35,0.756 0.756,0.756 0.434,0 0.798,-0.336 0.798,-0.756 0,-0.434 -0.364,-0.798 -0.784,-0.798 z m 0,5.026 c -0.42,0 -0.77,0.35 -0.77,0.798 0,0.406 0.35,0.756 0.756,0.756 0.434,0 0.798,-0.336 0.798,-0.756 0,-0.434 -0.364,-0.798 -0.784,-0.798 z m 3.64,1.4 h 3.864 v -0.21 c -1.078,0 -1.316,-0.154 -1.33,-0.826 v -8.4 l -0.112,-0.028 -2.52,1.274 v 0.196 c 0.546,-0.21 0.882,-0.308 1.008,-0.308 0.294,0 0.42,0.21 0.42,0.658 v 6.342 c -0.028,0.882 -0.266,1.078 -1.33,1.092 z"
     id="text39"
     style="font-size:14px;font-family:Times, serif"
     aria-label="Z:1" />
  <path
     id="polygon40"
     style="fill:none;stroke:#000000"
     d="m 1242.75,172 v -28.5 h 30.75 V 172 Z" />
  <path
     id="polygon41"
     style="fill:none;stroke:#000000"
     d="m 1236.75,178 v -40.5 h 42.75 V 178 Z" />
  <path
     fill="none"
     stroke="#000000"
     d="m 1032.5,119.75 c 18.09,0 18.7,13.71 36,19 75.35,23.02 97.46,19 176.25,19"
     id="path41" />
  <path
     id="ellipse42"
     style="stroke:#000000"
     d="m 374.75,36.75 a 9,9 0 0 1 -9,9 9,9 0 0 1 -9,-9 9,9 0 0 1 9,-9 9,9 0 0 1 9,9 z" />
  <path
     d="m 363.902,41.800003 h 3.864 v -0.21 c -1.078,0 -1.316,-0.154 -1.33,-0.826 v -8.4 l -0.112,-0.028 -2.52,1.274 v 0.196 c 0.546,-0.21 0.882,-0.308 1.008,-0.308 0.294,0 0.42,0.21 0.42,0.658 v 6.342 c -0.028,0.882 -0.266,1.078 -1.33,1.092 z"
     id="text42"
     style="font-size:14px;font-family:Times, serif;text-anchor:middle;fill:#ffffff"
     aria-label="1" />
  <path
     id="polygon44"
     style="fill:#00ffff"
     d="m 418.75,108.25 v -65 H 528.5 v 65 z" />
  <path
     id="polygon45"
     style="fill:none;stroke:#000000"
     d="m 421.75,105.25 v -59 H 460 v 59 z" />
  <path
     id="polygon46"
     style="fill:none;stroke:#000000"
     d="M 427.75,74.75 V 52.25 H 454 v 22.5 z" />
  <path
     d="m 440.634,68.284003 c -0.63,-0.042 -0.77,-0.182 -1.26,-1.218 l -3.486,-7.952 h -0.28 l -2.912,6.874 c -0.896,2.044 -1.064,2.268 -1.736,2.296 v 0.266 h 2.772 v -0.266 c -0.672,0 -0.952,-0.168 -0.952,-0.574 0,-0.168 0.042,-0.364 0.112,-0.546 l 0.644,-1.638 h 3.668 l 0.574,1.344 c 0.168,0.378 0.266,0.742 0.266,0.938 0,0.35 -0.238,0.462 -0.98,0.476 v 0.266 h 3.57 z m -6.86,-3.332 1.61,-3.85 1.624,3.85 z m 8.988,-2.828 c -0.42,0 -0.77,0.35 -0.77,0.798 0,0.406 0.35,0.756 0.756,0.756 0.434,0 0.798,-0.336 0.798,-0.756 0,-0.434 -0.364,-0.798 -0.784,-0.798 z m 0,5.026 c -0.42,0 -0.77,0.35 -0.77,0.798 0,0.406 0.35,0.756 0.756,0.756 0.434,0 0.798,-0.336 0.798,-0.756 0,-0.434 -0.364,-0.798 -0.784,-0.798 z m 3.64,1.4 h 3.864 v -0.21 c -1.078,0 -1.316,-0.154 -1.33,-0.826 v -8.4 l -0.112,-0.028 -2.52,1.274 v 0.196 c 0.546,-0.21 0.882,-0.308 1.008,-0.308 0.294,0 0.42,0.21 0.42,0.658 v 6.342 c -0.028,0.882 -0.266,1.078 -1.33,1.092 z"
     id="text46"
     style="font-size:14px;font-family:Times, serif"
     aria-label="A:1" />
  <path
     id="polygon47"
     style="fill:none;stroke:#000000"
     d="M 427.75,99.25 V 76.75 H 454 v 22.5 z" />
  <path
     d="m 431.358,84.048003 c 1.176,0.07 1.33,0.21 1.344,1.26 v 6.216 C 432.688,92.574 432.506,92.742 431.358,92.784 v 0.266 h 4.676 c 1.078,0 2.086,-0.294 2.604,-0.769997 0.504,-0.448 0.784,-1.078 0.784,-1.75 0,-0.616 -0.238,-1.176 -0.686,-1.582 -0.42,-0.378 -0.798,-0.546 -1.708,-0.77 0.728,-0.182 1.022,-0.322 1.358,-0.616 0.35,-0.308 0.56,-0.812 0.56,-1.4 0,-1.568 -1.26,-2.38 -3.668,-2.38 h -3.92 z m 2.772,4.438 c 1.358,0 2.002,0.084 2.506,0.294 0.798,0.322 1.176,0.896 1.176,1.764 0,0.756 -0.294,1.302 -0.854,1.624 -0.448,0.252 -1.022,0.363997 -1.946,0.363997 -0.686,0 -0.882,-0.125997 -0.882,-0.573997 z m 0,-0.546 v -3.22 c 0.014,-0.308 0.07,-0.392 0.308,-0.406 l 0.616,-0.014 c 1.554,-0.042 2.464,0.672 2.464,1.918 0,1.106 -0.714,1.694 -2.058,1.708 z m 8.23199,-1.316 c -0.42,0 -0.77,0.35 -0.77,0.798 0,0.406 0.35,0.756 0.756,0.756 0.434,0 0.798,-0.336 0.798,-0.756 0,-0.434 -0.364,-0.798 -0.784,-0.798 z m 0,5.026 c -0.42,0 -0.77,0.35 -0.77,0.798 0,0.405997 0.35,0.755997 0.756,0.755997 0.434,0 0.798,-0.336 0.798,-0.755997 0,-0.434 -0.364,-0.798 -0.784,-0.798 z m 3.64,1.399997 h 3.864 v -0.21 c -1.078,0 -1.316,-0.154 -1.33,-0.825997 v -8.4 l -0.112,-0.028 -2.52,1.274 v 0.196 c 0.546,-0.21 0.882,-0.308 1.008,-0.308 0.294,0 0.42,0.21 0.42,0.658 v 6.342 c -0.028,0.881997 -0.266,1.077997 -1.33,1.091997 z"
     id="text47"
     style="font-size:14px;font-family:Times, serif"
     aria-label="B:1" />
  <path
     id="polygon48"
     style="fill:none;stroke:#000000"
     d="m 424.75,102.25 v -53 H 457 v 53 z" />
  <path
     id="polygon49"
     style="fill:none;stroke:#000000"
     d="m 462,105.25 v -59 h 24.75 v 59 z" />
  <path
     d="m 470.054,71.336003 c -2.674,0 -4.578,2.002 -4.578,4.83 0,1.316 0.448,2.604 1.204,3.402 0.812,0.882 2.058,1.428 3.29,1.428 2.758,0 4.662,-1.946 4.662,-4.774 0,-1.386 -0.406,-2.59 -1.176,-3.416 -0.882,-0.966 -2.058,-1.47 -3.402,-1.47 z m 0,0.504 c 0.644,0 1.288,0.252 1.792,0.7 0.756,0.686 1.19,2.002 1.19,3.668 0,0.826 -0.168,1.792 -0.462,2.52 -0.126,0.35 -0.364,0.7 -0.686,1.022 -0.49,0.49 -1.12,0.742 -1.862,0.742 -0.644,0 -1.274,-0.252 -1.778,-0.686 -0.714,-0.644 -1.176,-2.058 -1.176,-3.612 0,-1.428 0.392,-2.786 0.98,-3.444 0.546,-0.602 1.232,-0.91 2.002,-0.91 z m 14.28,8.694 c -0.532,-0.042 -0.812,-0.182 -1.218,-0.658 l -2.884,-3.542 c 1.778,-0.35 2.534,-1.05 2.534,-2.338 0,-0.602 -0.182,-1.12 -0.546,-1.526 -0.532,-0.574 -1.708,-0.938 -3.01,-0.938 h -3.864 v 0.266 c 1.036,0.112 1.176,0.238 1.19,1.26 v 6.062 c -0.014,1.19 -0.14,1.33 -1.19,1.414 v 0.266 h 3.878 v -0.266 c -1.078,-0.07 -1.246,-0.238 -1.26,-1.26 v -2.758 l 0.784,-0.028 3.332,4.312 h 2.254 z m -6.37,-7.98 c 0,-0.392 0.154,-0.504 0.714,-0.504 1.75,0 2.562,0.602 2.562,1.918 0,0.7 -0.294,1.288 -0.798,1.554 -0.644,0.364 -1.134,0.448 -2.478,0.476 z"
     id="text49"
     style="font-size:14px;font-family:Times, serif"
     aria-label="OR" />
  <path
     id="polygon50"
     style="fill:none;stroke:#000000"
     d="m 488.75,105.25 v -59 h 36.75 v 59 z" />
  <path
     id="polygon51"
     style="fill:none;stroke:#000000"
     d="m 494.75,99.25 v -47 h 24.75 v 47 z" />
  <path
     d="m 505.786,78.336003 c -0.42,1.498 -0.896,1.876 -2.408,1.932 h -3.598 l 6.048,-8.526 v -0.21 h -7.364 l -0.28,2.394 h 0.364 c 0.238,-1.414 0.742,-1.82 2.352,-1.862 h 3.094 l -6.118,8.526 v 0.21 h 7.896 l 0.336,-2.464 z m 2.618,-3.962 c -0.42,0 -0.77,0.35 -0.77,0.798 0,0.406 0.35,0.756 0.756,0.756 0.434,0 0.798,-0.336 0.798,-0.756 0,-0.434 -0.364,-0.798 -0.784,-0.798 z m 0,5.026 c -0.42,0 -0.77,0.35 -0.77,0.798 0,0.406 0.35,0.756 0.756,0.756 0.434,0 0.798,-0.336 0.798,-0.756 0,-0.434 -0.364,-0.798 -0.784,-0.798 z m 3.64,1.4 h 3.864 v -0.21 c -1.078,0 -1.316,-0.154 -1.33,-0.826 v -8.4 l -0.112,-0.028 -2.52,1.274 v 0.196 c 0.546,-0.21 0.882,-0.308 1.008,-0.308 0.294,0 0.42,0.21 0.42,0.658 v 6.342 c -0.028,0.882 -0.266,1.078 -1.33,1.092 z"
     id="text51"
     style="font-size:14px;font-family:Times, serif"
     aria-label="Z:1" />
  <path
     id="polygon52"
     style="fill:none;stroke:#000000"
     d="m 491.75,102.25 v -53 h 30.75 v 53 z" />
  <path
     id="polygon53"
     style="fill:none;stroke:#000000"
     d="m 418.75,108.25 v -65 H 528.5 v 65 z" />
  <path
     fill="none"
     stroke="#000000"
     d="m 374.75,36.75 c 25.99,0 26.01,26.75 52,26.75"
     id="path53" />
  <path
     id="ellipse54"
     style="stroke:#000000"
     d="m 590.5,76.75 a 9,9 0 0 1 -9,9 9,9 0 0 1 -9,-9 9,9 0 0 1 9,-9 9,9 0 0 1 9,9 z" />
  <path
     d="m 579.652,81.800003 h 3.864 v -0.21 c -1.078,0 -1.316,-0.154 -1.33,-0.826 v -8.4 l -0.112,-0.028 -2.52,1.274 v 0.196 c 0.546,-0.21 0.882,-0.308 1.008,-0.308 0.294,0 0.42,0.21 0.42,0.658 v 6.342 c -0.028,0.882 -0.266,1.078 -1.33,1.092 z"
     id="text54"
     style="font-size:14px;font-family:Times, serif;text-anchor:middle;fill:#ffffff"
     aria-label="1" />
  <path
     id="polygon56"
     style="fill:#00ffff"
     d="m 634.5,98.25 v -65 h 109.75 v 65 z" />
  <path
     id="polygon57"
     style="fill:none;stroke:#000000"
     d="m 637.5,95.25 v -59 h 38.25 v 59 z" />
  <path
     id="polygon58"
     style="fill:none;stroke:#000000"
     d="m 643.5,64.75 v -22.5 h 26.25 v 22.5 z" />
  <path
     d="m 656.384,58.284003 c -0.63,-0.042 -0.77,-0.182 -1.26,-1.218 l -3.486,-7.952 h -0.28 l -2.912,6.874 c -0.896,2.044 -1.064,2.268 -1.736,2.296 v 0.266 h 2.772 v -0.266 c -0.672,0 -0.952,-0.168 -0.952,-0.574 0,-0.168 0.042,-0.364 0.112,-0.546 l 0.644,-1.638 h 3.668 l 0.574,1.344 c 0.168,0.378 0.266,0.742 0.266,0.938 0,0.35 -0.238,0.462 -0.98,0.476 v 0.266 h 3.57 z m -6.86,-3.332 1.61,-3.85 1.624,3.85 z m 8.988,-2.828 c -0.42,0 -0.77,0.35 -0.77,0.798 0,0.406 0.35,0.756 0.756,0.756 0.434,0 0.798,-0.336 0.798,-0.756 0,-0.434 -0.364,-0.798 -0.784,-0.798 z m 0,5.026 c -0.42,0 -0.77,0.35 -0.77,0.798 0,0.406 0.35,0.756 0.756,0.756 0.434,0 0.798,-0.336 0.798,-0.756 0,-0.434 -0.364,-0.798 -0.784,-0.798 z m 3.64,1.4 h 3.864 v -0.21 c -1.078,0 -1.316,-0.154 -1.33,-0.826 v -8.4 l -0.112,-0.028 -2.52,1.274 v 0.196 c 0.546,-0.21 0.882,-0.308 1.008,-0.308 0.294,0 0.42,0.21 0.42,0.658 v 6.342 c -0.028,0.882 -0.266,1.078 -1.33,1.092 z"
     id="text58"
     style="font-size:14px;font-family:Times, serif"
     aria-label="A:1" />
  <path
     id="polygon59"
     style="fill:none;stroke:#000000"
     d="m 643.5,89.25 v -22.5 h 26.25 v 22.5 z" />
  <path
     d="m 647.118,74.048003 c 1.176,0.07 1.33,0.21 1.344,1.26 v 6.216 c -0.014,1.05 -0.196,1.218 -1.344,1.26 v 0.266 h 4.676 c 1.078,0 2.086,-0.294 2.604,-0.77 0.504,-0.448 0.784,-1.078 0.784,-1.75 0,-0.616 -0.238,-1.176 -0.686,-1.582 -0.42,-0.378 -0.798,-0.546 -1.708,-0.77 0.728,-0.182 1.022,-0.322 1.358,-0.616 0.35,-0.308 0.56,-0.812 0.56,-1.4 0,-1.568 -1.26,-2.38 -3.668,-2.38 h -3.92 z m 2.772,4.438 c 1.358,0 2.002,0.084 2.506,0.294 0.798,0.322 1.176,0.896 1.176,1.764 0,0.756 -0.294,1.302 -0.854,1.624 -0.448,0.252 -1.022,0.364 -1.946,0.364 -0.686,0 -0.882,-0.126 -0.882,-0.574 z m 0,-0.546 v -3.22 c 0.014,-0.308 0.07,-0.392 0.308,-0.406 l 0.616,-0.014 c 1.554,-0.042 2.464,0.672 2.464,1.918 0,1.106 -0.714,1.694 -2.058,1.708 z m 8.232,-1.316 c -0.42,0 -0.77,0.35 -0.77,0.798 0,0.406 0.35,0.756 0.756,0.756 0.434,0 0.798,-0.336 0.798,-0.756 0,-0.434 -0.364,-0.798 -0.784,-0.798 z m 0,5.026 c -0.42,0 -0.77,0.35 -0.77,0.798 0,0.406 0.35,0.756 0.756,0.756 0.434,0 0.798,-0.336 0.798,-0.756 0,-0.434 -0.364,-0.798 -0.784,-0.798 z m 3.64,1.4 h 3.864 v -0.21 c -1.078,0 -1.316,-0.154 -1.33,-0.826 v -8.4 l -0.112,-0.028 -2.52,1.274 v 0.196 c 0.546,-0.21 0.882,-0.308 1.008,-0.308 0.294,0 0.42,0.21 0.42,0.658 v 6.342 c -0.028,0.882 -0.266,1.078 -1.33,1.092 z"
     id="text59"
     style="font-size:14px;font-family:Times, serif"
     aria-label="B:1" />
  <path
     id="polygon60"
     style="fill:none;stroke:#000000"
     d="m 640.5,92.25 v -53 h 32.25 v 53 z" />
  <path
     id="polygon61"
     style="fill:none;stroke:#000000"
     d="m 677.75,95.25 v -59 h 24.75 v 59 z" />
  <path
     d="m 685.804,61.336003 c -2.674,0 -4.578,2.002 -4.578,4.83 0,1.316 0.448,2.604 1.204,3.402 0.812,0.882 2.058,1.428 3.29,1.428 2.758,0 4.662,-1.946 4.662,-4.774 0,-1.386 -0.406,-2.59 -1.176,-3.416 -0.882,-0.966 -2.058,-1.47 -3.402,-1.47 z m 0,0.504 c 0.644,0 1.288,0.252 1.792,0.7 0.756,0.686 1.19,2.002 1.19,3.668 0,0.826 -0.168,1.792 -0.462,2.52 -0.126,0.35 -0.364,0.7 -0.686,1.022 -0.49,0.49 -1.12,0.742 -1.862,0.742 -0.644,0 -1.274,-0.252 -1.778,-0.686 -0.714,-0.644 -1.176,-2.058 -1.176,-3.612 0,-1.428 0.392,-2.786 0.98,-3.444 0.546,-0.602 1.232,-0.91 2.002,-0.91 z m 14.28,8.694 c -0.532,-0.042 -0.812,-0.182 -1.218,-0.658 l -2.884,-3.542 c 1.778,-0.35 2.534,-1.05 2.534,-2.338 0,-0.602 -0.182,-1.12 -0.546,-1.526 -0.532,-0.574 -1.708,-0.938 -3.01,-0.938 h -3.864 v 0.266 c 1.036,0.112 1.176,0.238 1.19,1.26 v 6.062 c -0.014,1.19 -0.14,1.33 -1.19,1.414 v 0.266 h 3.878 v -0.266 c -1.078,-0.07 -1.246,-0.238 -1.26,-1.26 v -2.758 l 0.784,-0.028 3.332,4.312 h 2.254 z m -6.37,-7.98 c 0,-0.392 0.154,-0.504 0.714,-0.504 1.75,0 2.562,0.602 2.562,1.918 0,0.7 -0.294,1.288 -0.798,1.554 -0.644,0.364 -1.134,0.448 -2.478,0.476 z"
     id="text61"
     style="font-size:14px;font-family:Times, serif"
     aria-label="OR" />
  <path
     id="polygon62"
     style="fill:none;stroke:#000000"
     d="m 704.5,95.25 v -59 h 36.75 v 59 z" />
  <path
     id="polygon63"
     style="fill:none;stroke:#000000"
     d="m 710.5,89.25 v -47 h 24.75 v 47 z" />
  <path
     d="m 721.536,68.336003 c -0.42,1.498 -0.896,1.876 -2.408,1.932 h -3.598 l 6.048,-8.526 v -0.21 h -7.364 l -0.28,2.394 h 0.364 c 0.238,-1.414 0.742,-1.82 2.352,-1.862 h 3.094 l -6.118,8.526 v 0.21 h 7.896 l 0.336,-2.464 z m 2.618,-3.962 c -0.42,0 -0.77,0.35 -0.77,0.798 0,0.406 0.35,0.756 0.756,0.756 0.434,0 0.798,-0.336 0.798,-0.756 0,-0.434 -0.364,-0.798 -0.784,-0.798 z m 0,5.026 c -0.42,0 -0.77,0.35 -0.77,0.798 0,0.406 0.35,0.756 0.756,0.756 0.434,0 0.798,-0.336 0.798,-0.756 0,-0.434 -0.364,-0.798 -0.784,-0.798 z m 3.64,1.4 h 3.864 v -0.21 c -1.078,0 -1.316,-0.154 -1.33,-0.826 v -8.4 l -0.112,-0.028 -2.52,1.274 v 0.196 c 0.546,-0.21 0.882,-0.308 1.008,-0.308 0.294,0 0.42,0.21 0.42,0.658 v 6.342 c -0.028,0.882 -0.266,1.078 -1.33,1.092 z"
     id="text63"
     style="font-size:14px;font-family:Times, serif"
     aria-label="Z:1" />
  <path
     id="polygon64"
     style="fill:none;stroke:#000000"
     d="m 707.5,92.25 v -53 h 30.75 v 53 z" />
  <path
     id="polygon65"
     style="fill:none;stroke:#000000"
     d="m 634.5,98.25 v -65 h 109.75 v 65 z" />
  <path
     fill="none"
     stroke="#000000"
     d="m 590.5,76.75 c 23.12,0 28.88,1.25 52,1.25"
     id="path65" />
  <path
     id="ellipse66"
     style="stroke:#000000"
     d="m 1267.12,79.75 a 9,9 0 0 1 -9,9 9,9 0 0 1 -9,-9 9,9 0 0 1 9,-9 9,9 0 0 1 9,9 z" />
  <path
     d="m 1256.272,84.800003 h 3.864 v -0.21 c -1.078,0 -1.316,-0.154 -1.33,-0.826 v -8.4 l -0.112,-0.028 -2.52,1.274 v 0.196 c 0.546,-0.21 0.882,-0.308 1.008,-0.308 0.294,0 0.42,0.21 0.42,0.658 v 6.342 c -0.028,0.882 -0.266,1.078 -1.33,1.092 z"
     id="text66"
     style="font-size:14px;font-family:Times, serif;text-anchor:middle;fill:#ffffff"
     aria-label="1" />
  <path
     fill="none"
     stroke="#000000"
     d="m 1268.58,79.75 c 4.03,0 1.91,-6.21 -1,-9 -78.12,-75 -134.78,-17 -243.08,-17 -115.12,0 -115.12,0 -115.12,0 -70.68,0 -86.66,-19.04 -157.13,-24.5 -48.19,-3.73 -73.88,-33.47 -108.75,0 -7.78,7.47 -11.79,24.25 -1,24.25"
     id="path67" />
  <path
     id="ellipse68"
     style="stroke:#000000"
     d="m 806.25,93.75 a 9,9 0 0 1 -9,9 9,9 0 0 1 -9,-9 9,9 0 0 1 9,-9 9,9 0 0 1 9,9 z" />
  <path
     d="m 795.402,98.8 h 3.864 v -0.21 c -1.078,0 -1.316,-0.154 -1.33,-0.826 v -8.399997 l -0.112,-0.028 -2.52,1.274 v 0.196 c 0.546,-0.21 0.882,-0.308 1.008,-0.308 0.294,0 0.42,0.21 0.42,0.658 V 97.498 c -0.028,0.882 -0.266,1.078 -1.33,1.092 z"
     id="text68"
     style="font-size:14px;font-family:Times, serif;text-anchor:middle;fill:#ffffff"
     aria-label="1" />
  <path
     fill="none"
     stroke="#000000"
     d="m 806.25,93.75 c 23.91,0 28.09,13.75 52,13.75"
     id="path69" />
  <path
     id="ellipse70"
     style="stroke:#000000"
     d="m 374.75,87.75 a 9,9 0 0 1 -9,9 9,9 0 0 1 -9,-9 9,9 0 0 1 9,-9 9,9 0 0 1 9,9 z" />
  <path
     d="m 363.902,92.8 h 3.864 v -0.21 c -1.078,0 -1.316,-0.153997 -1.33,-0.825997 v -8.4 l -0.112,-0.028 -2.52,1.274 v 0.196 c 0.546,-0.21 0.882,-0.308 1.008,-0.308 0.294,0 0.42,0.21 0.42,0.658 v 6.342 c -0.028,0.882 -0.266,1.077997 -1.33,1.091997 z"
     id="text70"
     style="font-size:14px;font-family:Times, serif;text-anchor:middle;fill:#ffffff"
     aria-label="1" />
  <path
     fill="none"
     stroke="#000000"
     d="m 374.75,87.75 c 23.11,0 28.89,0.25 52,0.25"
     id="path71" />
  <path
     id="polygon73"
     style="fill:#20b2aa"
     d="M 0.5,41 V 0.5 H 88 V 41 Z" />
  <path
     id="polygon74"
     style="fill:none;stroke:#000000"
     d="M 3.5,38 V 3.5 H 58.25 V 38 Z" />
  <path
     d="m 10.63,16.336003 c -1.036,0.686 -1.456,1.036 -1.974,1.68 -0.994,1.218 -1.484,2.618 -1.484,4.256 0,1.792 0.518,3.15 1.75,4.578 0.574,0.672 0.938,0.98 1.666,1.428 l 0.168,-0.224 c -1.12,-0.882 -1.512,-1.386 -1.89,-2.422 -0.336,-0.938 -0.49,-1.988 -0.49,-3.402 0,-1.47 0.182,-2.632 0.56,-3.486 0.392,-0.868 0.812,-1.372 1.82,-2.184 z m 5.432003,11.844 c -0.952,-0.224 -1.26,-0.658 -1.274,-1.722 v -2.352 c -0.014,-1.19 -0.28,-1.54 -1.316,-1.792 1.036,-0.266 1.302,-0.63 1.316,-1.806 v -2.352 c 0.014,-1.064 0.322,-1.498 1.274,-1.722 v -0.154 c -1.736,0 -2.282,0.462 -2.31,1.946 v 2.492 c -0.014,0.98 -0.266,1.33 -1.19,1.582 0.924,0.266 1.176,0.616 1.19,1.596 v 2.478 c 0.042,1.498 0.574,1.96 2.31,1.96 z m 3.471993,-2.38 h 3.864 v -0.21 c -1.078,0 -1.316,-0.154 -1.33,-0.826 v -8.4 l -0.112,-0.028 -2.52,1.274 v 0.196 c 0.546,-0.21 0.882,-0.308 1.008,-0.308 0.294,0 0.42,0.21 0.42,0.658 v 6.342 c -0.028,0.882 -0.266,1.078 -1.33,1.092 z m 9.366,-9.464 h -0.938 l -3.206,9.66 h 0.952 z m 3.429998,0 c -0.77,0 -1.358,0.224 -1.876,0.728 -0.812,0.784 -1.344,2.394 -1.344,4.032 0,1.54 0.462,3.164 1.12,3.948 0.518,0.616 1.232,0.952 2.044,0.952 0.714,0 1.316,-0.238 1.82,-0.728 0.812,-0.77 1.344,-2.394 1.344,-4.088 0,-2.87 -1.274,-4.844 -3.108,-4.844 z m -0.042,0.364 c 1.176,0 1.806,1.582 1.806,4.508 0,2.926 -0.616,4.424 -1.82,4.424 -1.204,0 -1.82,-1.498 -1.82,-4.41 0,-2.982 0.63,-4.522 1.834,-4.522 z m 5.306,-0.266 c 0.938,0.224 1.26,0.658 1.274,1.722 v 2.352 c 0.014,1.19 0.28,1.54 1.316,1.792 -1.036,0.266 -1.302,0.63 -1.316,1.806 v 2.352 c -0.014,1.064 -0.336,1.498 -1.274,1.722 v 0.154 c 1.736,0 2.282,-0.462 2.31,-1.946 v -2.492 c 0.014,-0.98 0.266,-1.33 1.19,-1.596 -0.924,-0.252 -1.176,-0.602 -1.19,-1.582 v -2.478 c -0.042,-1.512 -0.574,-1.96 -2.31,-1.96 z m 5.431994,11.844 c 1.036,-0.686 1.456,-1.036 1.974,-1.68 0.994,-1.218 1.484,-2.618 1.484,-4.256 0,-1.792 -0.518,-3.15 -1.75,-4.578 -0.574,-0.672 -0.938,-0.98 -1.666,-1.428 l -0.168,0.224 c 1.12,0.882 1.498,1.372 1.89,2.422 0.336,0.938 0.49,1.988 0.49,3.402 0,1.47 -0.182,2.618 -0.56,3.472 -0.378,0.868 -0.812,1.386 -1.82,2.198 z m 6.664003,-8.946 c -1.148,0.84 -1.75,2.072 -1.75,3.514 0,1.75 0.868,3.052 2.044,3.052 0.756,0 1.4,-0.504 1.848,-1.47 0.448,0.98 0.994,1.47 1.666,1.47 1.176,0 2.086,-1.484 2.086,-3.402 0,-1.876 -0.686,-3.164 -1.68,-3.164 -0.35,0 -0.602,0.252 -0.602,0.602 0,0.266 0.168,0.518 0.392,0.616 0.7,0.266 0.77,0.308 0.98,0.63 0.252,0.364 0.392,0.938 0.392,1.54 0,1.288 -0.686,2.254 -1.624,2.254 -0.602,0 -1.008,-0.322 -1.358,-1.078 0.252,-0.742 0.35,-1.218 0.35,-1.806 0,-0.7 -0.196,-1.092 -0.532,-1.092 -0.392,0 -0.616,0.434 -0.616,1.19 0,0.63 0.098,1.092 0.35,1.736 -0.364,0.728 -0.784,1.064 -1.274,1.064 -0.812,0 -1.288,-0.91 -1.288,-2.478 0,-1.176 0.294,-2.156 0.882,-2.996 z"
     id="text74"
     style="font-size:14px;font-family:Times, serif"
     aria-label="({1/0})ω" />
  <path
     id="polygon75"
     style="fill:none;stroke:#000000"
     d="M 60.25,38 V 3.5 H 85 V 38 Z" />
  <path
     id="polygon76"
     style="fill:none;stroke:#000000"
     d="M 66.25,32 V 9.5 H 79 V 32 Z" />
  <path
     d="m 70.902,25.800003 h 3.864 v -0.21 c -1.078,0 -1.316,-0.154 -1.33,-0.826 v -8.4 l -0.112,-0.028 -2.52,1.274 v 0.196 c 0.546,-0.21 0.882,-0.308 1.008,-0.308 0.294,0 0.42,0.21 0.42,0.658 v 6.342 c -0.028,0.882 -0.266,1.078 -1.33,1.092 z"
     id="text76"
     style="font-size:14px;font-family:Times, serif"
     aria-label="1" />
  <path
     id="polygon77"
     style="fill:none;stroke:#000000"
     d="M 63.25,35 V 6.5 H 82 V 35 Z" />
  <path
     id="polygon78"
     style="fill:none;stroke:#000000"
     d="M 0.5,41 V 0.5 H 88 V 41 Z" />
  <path
     fill="none"
     stroke="#000000"
     d="m 80,20.75 c 23.11,0 28.89,0 52,0"
     id="path78" />
  <path
     fill="none"
     stroke="#000000"
     d="m 304.75,20.75 c 24.18,0 27.82,16 52,16"
     id="path79" />
  <path
     fill="none"
     stroke="#000000"
     d="m 520.5,75.75 c 23.12,0 28.88,1 52,1"
     id="path80" />
  <path
     fill="none"
     stroke="#000000"
     d="m 736.25,65.75 c 26.25,0 25.75,28 52,28"
     id="path81" />
  <path
     fill="none"
     stroke="#000000"
     d="m 962.5,119.75 c 23.11,0 28.89,0 52,0"
     id="path82" />
  <path
     fill="none"
     stroke="#000000"
     d="m 1176.75,105.75 c 33.57,0 37.35,-26 70.92,-26"
     id="path83" />
  <path
     id="polygon85"
     style="fill:#20b2aa"
     d="M 209.62,108 V 67.5 h 87.5 V 108 Z" />
  <path
     id="polygon86"
     style="fill:none;stroke:#000000"
     d="M 212.62,105 V 70.5 h 54.76 V 105 Z" />
  <path
     d="m 219.75,83.336003 c -1.036,0.686 -1.456,1.036 -1.974,1.68 -0.994,1.218 -1.484,2.618 -1.484,4.256 0,1.792 0.518,3.15 1.75,4.577997 0.574,0.672 0.938,0.98 1.666,1.428 l 0.168,-0.224 c -1.12,-0.882 -1.512,-1.386 -1.89,-2.422 -0.336,-0.937997 -0.49,-1.987997 -0.49,-3.401997 0,-1.47 0.182,-2.632 0.56,-3.486 0.392,-0.868 0.812,-1.372 1.82,-2.184 z M 225.182,95.18 c -0.952,-0.224 -1.26,-0.658 -1.274,-1.722 v -2.351997 c -0.014,-1.19 -0.28,-1.54 -1.316,-1.792 1.036,-0.266 1.302,-0.63 1.316,-1.806 v -2.352 c 0.014,-1.064 0.322,-1.498 1.274,-1.722 v -0.154 c -1.736,0 -2.282,0.462 -2.31,1.946 v 2.492 c -0.014,0.98 -0.266,1.33 -1.19,1.582 0.924,0.266 1.176,0.616 1.19,1.596 V 93.374 c 0.042,1.498 0.574,1.96 2.31,1.96 z m 3.47199,-2.38 h 3.864 v -0.21 c -1.078,0 -1.316,-0.153997 -1.33,-0.825997 v -8.4 l -0.112,-0.028 -2.52,1.274 v 0.196 c 0.546,-0.21 0.882,-0.308 1.008,-0.308 0.294,0 0.42,0.21 0.42,0.658 v 6.342 c -0.028,0.882 -0.266,1.077997 -1.33,1.091997 z m 9.366,-9.463997 h -0.938 l -3.206,9.659997 h 0.952 z m 3.43,0 c -0.77,0 -1.358,0.224 -1.876,0.728 -0.812,0.784 -1.344,2.394 -1.344,4.032 0,1.54 0.462,3.164 1.12,3.948 0.518,0.615997 1.232,0.951997 2.044,0.951997 0.714,0 1.316,-0.238 1.82,-0.727997 0.812,-0.77 1.344,-2.394 1.344,-4.088 0,-2.87 -1.274,-4.844 -3.108,-4.844 z m -0.042,0.364 c 1.176,0 1.806,1.582 1.806,4.508 0,2.926 -0.616,4.423997 -1.82,4.423997 -1.204,0 -1.82,-1.497997 -1.82,-4.409997 0,-2.982 0.63,-4.522 1.834,-4.522 z m 5.306,-0.266 c 0.938,0.224 1.26,0.658 1.274,1.722 v 2.352 c 0.014,1.19 0.28,1.54 1.316,1.792 -1.036,0.266 -1.302,0.63 -1.316,1.806 V 93.458 c -0.014,1.064 -0.336,1.498 -1.274,1.722 v 0.154 c 1.736,0 2.282,-0.462 2.31,-1.946 v -2.491997 c 0.014,-0.98 0.266,-1.33 1.19,-1.596 -0.924,-0.252 -1.176,-0.602 -1.19,-1.582 v -2.478 c -0.042,-1.512 -0.574,-1.96 -2.31,-1.96 z M 252.14598,95.278 c 1.036,-0.686 1.456,-1.036 1.974,-1.68 0.994,-1.217997 1.484,-2.617997 1.484,-4.255997 0,-1.792 -0.518,-3.15 -1.75,-4.578 -0.574,-0.672 -0.938,-0.98 -1.666,-1.428 l -0.168,0.224 c 1.12,0.882 1.498,1.372 1.89,2.422 0.336,0.938 0.49,1.988 0.49,3.402 0,1.47 -0.182,2.618 -0.56,3.471997 -0.378,0.868 -0.812,1.386 -1.82,2.198 z m 6.66401,-8.945997 c -1.148,0.84 -1.75,2.072 -1.75,3.514 0,1.75 0.868,3.051997 2.044,3.051997 0.756,0 1.4,-0.503997 1.848,-1.469997 0.448,0.98 0.994,1.469997 1.666,1.469997 1.176,0 2.086,-1.483997 2.086,-3.401997 0,-1.876 -0.686,-3.164 -1.68,-3.164 -0.35,0 -0.602,0.252 -0.602,0.602 0,0.266 0.168,0.518 0.392,0.616 0.7,0.266 0.77,0.308 0.98,0.63 0.252,0.364 0.392,0.938 0.392,1.54 0,1.288 -0.686,2.254 -1.624,2.254 -0.602,0 -1.008,-0.322 -1.358,-1.078 0.252,-0.742 0.35,-1.218 0.35,-1.806 0,-0.7 -0.196,-1.092 -0.532,-1.092 -0.392,0 -0.616,0.434 -0.616,1.19 0,0.63 0.098,1.092 0.35,1.736 -0.364,0.728 -0.784,1.064 -1.274,1.064 -0.812,0 -1.288,-0.91 -1.288,-2.478 0,-1.176 0.294,-2.156 0.882,-2.996 z"
     id="text86"
     style="font-size:14px;font-family:Times, serif"
     aria-label="({1/0})ω" />
  <path
     id="polygon87"
     style="fill:none;stroke:#000000"
     d="M 269.38,105 V 70.5 h 24.74 V 105 Z" />
  <path
     id="polygon88"
     style="fill:none;stroke:#000000"
     d="M 275.38,99 V 76.5 h 12.74 V 99 Z" />
  <path
     d="m 280.032,92.8 h 3.864 v -0.21 c -1.078,0 -1.316,-0.153997 -1.33,-0.825997 v -8.4 l -0.112,-0.028 -2.52,1.274 v 0.196 c 0.546,-0.21 0.882,-0.308 1.008,-0.308 0.294,0 0.42,0.21 0.42,0.658 v 6.342 c -0.028,0.882 -0.266,1.077997 -1.33,1.091997 z"
     id="text88"
     style="font-size:14px;font-family:Times, serif"
     aria-label="1" />
  <path
     id="polygon89"
     style="fill:none;stroke:#000000"
     d="M 272.38,102 V 73.5 h 18.74 V 102 Z" />
  <path
     id="polygon90"
     style="fill:none;stroke:#000000"
     d="M 209.62,108 V 67.5 h 87.5 V 108 Z" />
  <path
     fill="none"
     stroke="#000000"
     d="m 289.12,87.75 c 30.06,0 37.57,0 67.63,0"
     id="path90" />
  <path
     id="polygon92"
     style="fill:#808080"
     d="M 22.5,160 V 119.5 H 66 V 160 Z" />
  <path
     id="polygon93"
     style="fill:none;stroke:#000000"
     d="M 25.5,157 V 122.5 H 63 V 157 Z" />
  <path
     id="polygon94"
     style="fill:none;stroke:#000000"
     d="M 31.5,151 V 128.5 H 57 V 151 Z" />
  <path
     d="m 34.738,135.798 c 1.176,0.07 1.33,0.21 1.344,1.26 v 6.216 c -0.014,1.05 -0.196,1.218 -1.344,1.26 v 0.266 h 4.676 c 1.078,0 2.086,-0.294 2.604,-0.77 0.504,-0.448 0.784,-1.078 0.784,-1.75 0,-0.616 -0.238,-1.176 -0.686,-1.582 -0.42,-0.378 -0.798,-0.546 -1.708,-0.77 0.728,-0.182 1.022,-0.322 1.358,-0.616 0.35,-0.308 0.56,-0.812 0.56,-1.4 0,-1.568 -1.26,-2.38 -3.668,-2.38 h -3.92 z m 2.772,4.438 c 1.358,0 2.002,0.084 2.506,0.294 0.798,0.322 1.176,0.896 1.176,1.764 0,0.756 -0.294,1.302 -0.854,1.624 -0.448,0.252 -1.022,0.364 -1.946,0.364 -0.686,0 -0.882,-0.126 -0.882,-0.574 z m 0,-0.546 v -3.22 c 0.014,-0.308 0.07,-0.392 0.308,-0.406 l 0.616,-0.014 c 1.554,-0.042 2.464,0.672 2.464,1.918 0,1.106 -0.714,1.694 -2.058,1.708 z m 8.231997,-1.316 c -0.42,0 -0.77,0.35 -0.77,0.798 0,0.406 0.35,0.756 0.756,0.756 0.434,0 0.798,-0.336 0.798,-0.756 0,-0.434 -0.364,-0.798 -0.784,-0.798 z m 0,5.026 c -0.42,0 -0.77,0.35 -0.77,0.798 0,0.406 0.35,0.756 0.756,0.756 0.434,0 0.798,-0.336 0.798,-0.756 0,-0.434 -0.364,-0.798 -0.784,-0.798 z m 3.639999,1.4 h 3.864 v -0.21 c -1.078,0 -1.316,-0.154 -1.33,-0.826 v -8.4 l -0.112,-0.028 -2.52,1.274 v 0.196 c 0.546,-0.21 0.882,-0.308 1.008,-0.308 0.294,0 0.42,0.21 0.42,0.658 v 6.342 c -0.028,0.882 -0.266,1.078 -1.33,1.092 z"
     id="text94"
     style="font-size:14px;font-family:Times, serif"
     aria-label="B:1" />
  <path
     id="polygon95"
     style="fill:none;stroke:#000000"
     d="M 28.5,154 V 125.5 H 60 V 154 Z" />
  <path
     id="polygon96"
     style="fill:none;stroke:#000000"
     d="M 22.5,160 V 119.5 H 66 V 160 Z" />
  <path
     fill="none"
     stroke="#000000"
     d="m 58,139.75 c 180.07,0 225.09,0 405.17,0"
     id="path96" />
</svg>
