<?xml version="1.0" encoding="UTF-8" standalone="no"?>
<!-- Generated by graphviz version 11.0.0 (0)
 -->

<!-- Title: circuit Pages: 1 -->

<svg
   width="794.9679pt"
   height="222.1111pt"
   viewBox="0 0 794.48257 222.25976"
   version="1.1"
   id="svg62"
   sodipodi:docname="rewrite-3.svg"
   inkscape:version="1.3.2 (091e20ef0f, 2023-11-25, custom)"
   xmlns:inkscape="http://www.inkscape.org/namespaces/inkscape"
   xmlns:sodipodi="http://sodipodi.sourceforge.net/DTD/sodipodi-0.dtd"
   xmlns="http://www.w3.org/2000/svg"
   xmlns:svg="http://www.w3.org/2000/svg">
  <defs
     id="defs62" />
  <sodipodi:namedview
     id="namedview62"
     pagecolor="#ffffff"
     bordercolor="#000000"
     borderopacity="0.25"
     inkscape:showpageshadow="2"
     inkscape:pageopacity="0.0"
     inkscape:pagecheckerboard="0"
     inkscape:deskcolor="#d1d1d1"
     inkscape:document-units="pt"
     inkscape:zoom="1.8379121"
     inkscape:cx="530.22123"
     inkscape:cy="164.31689"
     inkscape:window-width="2560"
     inkscape:window-height="1380"
     inkscape:window-x="1920"
     inkscape:window-y="32"
     inkscape:window-maximized="1"
     inkscape:current-layer="svg62" />
  <path
     id="ellipse2"
     style="stroke:#000000"
     d="m 105.47591,62.168202 a 9,9 0 0 1 -8.999997,9 9,9 0 0 1 -9,-9 9,9 0 0 1 9,-9 9,9 0 0 1 8.999997,9 z" />
  <path
     d="m 94.627913,67.218205 h 3.864 v -0.21 c -1.078,0 -1.316,-0.154 -1.33,-0.826 v -8.4 l -0.112,-0.028 -2.52,1.274 v 0.196 c 0.546,-0.21 0.882,-0.308 1.008,-0.308 0.294,0 0.42,0.21 0.42,0.658 v 6.342 c -0.028,0.882 -0.266,1.078 -1.33,1.092 z"
     id="text2"
     style="font-size:14px;font-family:Times, serif;text-anchor:middle;fill:#ffffff"
     aria-label="1" />
  <path
     id="polygon4"
     style="fill:#00ffff"
     d="m 149.47591,82.668206 v -65 h 120.25 v 65 z" />
  <path
     id="polygon5"
     style="fill:none;stroke:#000000"
     d="m 152.47591,79.668206 v -59 h 38.25 v 59 z" />
  <path
     id="polygon6"
     style="fill:none;stroke:#000000"
     d="m 158.47591,49.168206 v -22.5 h 26.25 v 22.5 z" />
  <path
     d="m 171.35991,42.702205 c -0.63,-0.042 -0.77,-0.182 -1.26,-1.218 l -3.486,-7.952 h -0.28 l -2.912,6.874 c -0.896,2.044 -1.064,2.268 -1.736,2.296 v 0.266 h 2.772 v -0.266 c -0.672,0 -0.952,-0.168 -0.952,-0.574 0,-0.168 0.042,-0.364 0.112,-0.546 l 0.644,-1.638 h 3.668 l 0.574,1.344 c 0.168,0.378 0.266,0.742 0.266,0.938 0,0.35 -0.238,0.462 -0.98,0.476 v 0.266 h 3.57 z m -6.86,-3.332 1.61,-3.85 1.624,3.85 z m 8.988,-2.828 c -0.42,0 -0.77,0.35 -0.77,0.798 0,0.406 0.35,0.756 0.756,0.756 0.434,0 0.798,-0.336 0.798,-0.756 0,-0.434 -0.364,-0.798 -0.784,-0.798 z m 0,5.026 c -0.42,0 -0.77,0.35 -0.77,0.798 0,0.406 0.35,0.756 0.756,0.756 0.434,0 0.798,-0.336 0.798,-0.756 0,-0.434 -0.364,-0.798 -0.784,-0.798 z m 3.64,1.4 h 3.864 v -0.21 c -1.078,0 -1.316,-0.154 -1.33,-0.826 v -8.4 l -0.112,-0.028 -2.52,1.274 v 0.196 c 0.546,-0.21 0.882,-0.308 1.008,-0.308 0.294,0 0.42,0.21 0.42,0.658 v 6.342 c -0.028,0.882 -0.266,1.078 -1.33,1.092 z"
     id="text6"
     style="font-size:14px;font-family:Times, serif"
     aria-label="A:1" />
  <path
     id="polygon7"
     style="fill:none;stroke:#000000"
     d="m 158.47591,73.668206 v -22.5 h 26.25 v 22.5 z" />
  <path
     d="m 162.09391,58.466205 c 1.176,0.07 1.33,0.21 1.344,1.26 v 6.216 c -0.014,1.05 -0.196,1.218 -1.344,1.26 v 0.266 h 4.676 c 1.078,0 2.086,-0.294 2.604,-0.77 0.504,-0.448 0.784,-1.078 0.784,-1.75 0,-0.616 -0.238,-1.176 -0.686,-1.582 -0.42,-0.378 -0.798,-0.546 -1.708,-0.77 0.728,-0.182 1.022,-0.322 1.358,-0.616 0.35,-0.308 0.56,-0.812 0.56,-1.4 0,-1.568 -1.26,-2.38 -3.668,-2.38 h -3.92 z m 2.772,4.438 c 1.358,0 2.002,0.084 2.506,0.294 0.798,0.322 1.176,0.896 1.176,1.764 0,0.756 -0.294,1.302 -0.854,1.624 -0.448,0.252 -1.022,0.364 -1.946,0.364 -0.686,0 -0.882,-0.126 -0.882,-0.574 z m 0,-0.546 v -3.22 c 0.014,-0.308 0.07,-0.392 0.308,-0.406 l 0.616,-0.014 c 1.554,-0.042 2.464,0.672 2.464,1.918 0,1.106 -0.714,1.694 -2.058,1.708 z m 8.232,-1.316 c -0.42,0 -0.77,0.35 -0.77,0.798 0,0.406 0.35,0.756 0.756,0.756 0.434,0 0.798,-0.336 0.798,-0.756 0,-0.434 -0.364,-0.798 -0.784,-0.798 z m 0,5.026 c -0.42,0 -0.77,0.35 -0.77,0.798 0,0.406 0.35,0.756 0.756,0.756 0.434,0 0.798,-0.336 0.798,-0.756 0,-0.434 -0.364,-0.798 -0.784,-0.798 z m 3.64,1.4 h 3.864 v -0.21 c -1.078,0 -1.316,-0.154 -1.33,-0.826 v -8.4 l -0.112,-0.028 -2.52,1.274 v 0.196 c 0.546,-0.21 0.882,-0.308 1.008,-0.308 0.294,0 0.42,0.21 0.42,0.658 v 6.342 c -0.028,0.882 -0.266,1.078 -1.33,1.092 z"
     id="text7"
     style="font-size:14px;font-family:Times, serif"
     aria-label="B:1" />
  <path
     id="polygon8"
     style="fill:none;stroke:#000000"
     d="m 155.47591,76.668206 v -53 h 32.25 v 53 z" />
  <path
     id="polygon9"
     style="fill:none;stroke:#000000"
     d="m 192.72591,79.668206 v -59 h 35.25 v 59 z" />
  <path
     d="m 205.60991,54.952205 c -0.63,-0.042 -0.77,-0.182 -1.26,-1.218 l -3.486,-7.952 h -0.28 l -2.912,6.874 c -0.896,2.044 -1.064,2.268 -1.736,2.296 v 0.266 h 2.772 v -0.266 c -0.672,0 -0.952,-0.168 -0.952,-0.574 0,-0.168 0.042,-0.364 0.112,-0.546 l 0.644,-1.638 h 3.668 l 0.574,1.344 c 0.168,0.378 0.266,0.742 0.266,0.938 0,0.35 -0.238,0.462 -0.98,0.476 v 0.266 h 3.57 z m -6.86,-3.332 1.61,-3.85 1.624,3.85 z m 16.982,-5.67 h -3.29 v 0.266 c 1.12,0.07 1.302,0.308 1.344,1.792 v 4.718 l -5.39,-6.776 h -2.394 v 0.266 c 0.602,0 0.798,0.112 1.358,0.77 v 6.174 c -0.028,1.484 -0.21,1.722 -1.358,1.792 v 0.266 h 3.29 v -0.266 c -1.078,-0.056 -1.288,-0.35 -1.316,-1.792 v -5.488 l 6.188,7.7 h 0.238 v -7.364 c 0.042,-1.456 0.224,-1.694 1.33,-1.792 z m 0.434,9.268 h 3.976 c 1.624,0 3.094,-0.462 3.962,-1.246 0.91,-0.826 1.428,-2.072 1.428,-3.43 0,-1.26 -0.406,-2.352 -1.19,-3.122 -0.952,-0.966 -2.478,-1.47 -4.396,-1.47 h -3.78 v 0.266 c 1.106,0.098 1.218,0.21 1.232,1.26 v 6.216 c -0.014,1.022 -0.182,1.19 -1.232,1.26 z m 2.66,-8.204 c 0,-0.434 0.14,-0.546 0.728,-0.546 1.218,0 2.114,0.224 2.786,0.7 1.092,0.756 1.666,1.96 1.666,3.472 0,1.652 -0.574,2.828 -1.708,3.486 -0.714,0.406 -1.526,0.574 -2.744,0.574 -0.56,0 -0.728,-0.126 -0.728,-0.574 z"
     id="text9"
     style="font-size:14px;font-family:Times, serif"
     aria-label="AND" />
  <path
     id="polygon10"
     style="fill:none;stroke:#000000"
     d="m 229.97591,79.668206 v -59 h 36.75 v 59 z" />
  <path
     id="polygon11"
     style="fill:none;stroke:#000000"
     d="m 235.97591,73.668206 v -47 h 24.75 v 47 z" />
  <path
     d="m 247.01191,52.754205 c -0.42,1.498 -0.896,1.876 -2.408,1.932 h -3.598 l 6.048,-8.526 v -0.21 h -7.364 l -0.28,2.394 h 0.364 c 0.238,-1.414 0.742,-1.82 2.352,-1.862 h 3.094 l -6.118,8.526 v 0.21 h 7.896 l 0.336,-2.464 z m 2.618,-3.962 c -0.42,0 -0.77,0.35 -0.77,0.798 0,0.406 0.35,0.756 0.756,0.756 0.434,0 0.798,-0.336 0.798,-0.756 0,-0.434 -0.364,-0.798 -0.784,-0.798 z m 0,5.026 c -0.42,0 -0.77,0.35 -0.77,0.798 0,0.406 0.35,0.756 0.756,0.756 0.434,0 0.798,-0.336 0.798,-0.756 0,-0.434 -0.364,-0.798 -0.784,-0.798 z m 3.64,1.4 h 3.864 v -0.21 c -1.078,0 -1.316,-0.154 -1.33,-0.826 v -8.4 l -0.112,-0.028 -2.52,1.274 v 0.196 c 0.546,-0.21 0.882,-0.308 1.008,-0.308 0.294,0 0.42,0.21 0.42,0.658 v 6.342 c -0.028,0.882 -0.266,1.078 -1.33,1.092 z"
     id="text11"
     style="font-size:14px;font-family:Times, serif"
     aria-label="Z:1" />
  <path
     id="polygon12"
     style="fill:none;stroke:#000000"
     d="m 232.97591,76.668206 v -53 h 30.75 v 53 z" />
  <path
     id="polygon13"
     style="fill:none;stroke:#000000"
     d="m 149.47591,82.668206 v -65 h 120.25 v 65 z" />
  <path
     fill="none"
     stroke="#000000"
     d="m 105.47591,62.168206 c 23.11,0 28.89,0.25 52,0.25"
     id="path13" />
  <path
     id="ellipse14"
     style="stroke:#000000"
     d="m 331.72591,70.168202 a 9,9 0 0 1 -9,9 9,9 0 0 1 -9,-9 9,9 0 0 1 9,-9 9,9 0 0 1 9,9 z" />
  <path
     d="m 320.87791,75.218205 h 3.864 v -0.21 c -1.078,0 -1.316,-0.154 -1.33,-0.826 v -8.4 l -0.112,-0.028 -2.52,1.274 v 0.196 c 0.546,-0.21 0.882,-0.308 1.008,-0.308 0.294,0 0.42,0.21 0.42,0.658 v 6.342 c -0.028,0.882 -0.266,1.078 -1.33,1.092 z"
     id="text14"
     style="font-size:14px;font-family:Times, serif;text-anchor:middle;fill:#ffffff"
     aria-label="1" />
  <path
     id="polygon16"
     style="fill:#ffff00"
     d="m 375.72591,90.418206 v -40.5 h 108.25 v 40.5 z" />
  <path
     id="polygon17"
     style="fill:none;stroke:#000000"
     d="m 378.72591,87.418206 v -34.5 h 24.75 v 34.5 z" />
  <path
     id="polygon18"
     style="fill:none;stroke:#000000"
     d="m 384.72591,81.418206 v -22.5 h 12.75 v 22.5 z" />
  <path
     d="m 389.37791,75.218205 h 3.864 v -0.21 c -1.078,0 -1.316,-0.154 -1.33,-0.826 v -8.4 l -0.112,-0.028 -2.52,1.274 v 0.196 c 0.546,-0.21 0.882,-0.308 1.008,-0.308 0.294,0 0.42,0.21 0.42,0.658 v 6.342 c -0.028,0.882 -0.266,1.078 -1.33,1.092 z"
     id="text18"
     style="font-size:14px;font-family:Times, serif"
     aria-label="1" />
  <path
     id="polygon19"
     style="fill:none;stroke:#000000"
     d="m 381.72591,84.418206 v -28.5 h 18.75 v 28.5 z" />
  <path
     id="polygon20"
     style="fill:none;stroke:#000000"
     d="m 405.47591,87.418206 v -34.5 h 48.75 v 34.5 z" />
  <path
     d="m 415.34991,74.406205 c -0.182,0.014 -0.266,0.014 -0.322,0.014 -0.49,0 -0.616,-0.154 -0.616,-0.798 v -7.938 l -0.07,-0.028 c -0.658,0.224 -1.134,0.378 -2.058,0.616 v 0.224 c 0.112,-0.014 0.182,-0.014 0.308,-0.014 0.518,0 0.644,0.14 0.644,0.714 v 2.184 c -0.532,-0.448 -0.91,-0.602 -1.47,-0.602 -1.61,0 -2.912,1.582 -2.912,3.57 0,1.792 1.036,3.01 2.59,3.01 0.784,0 1.316,-0.28 1.792,-0.938 v 0.896 l 0.056,0.042 2.058,-0.728 z m -2.114,-0.616 c 0,0.098 -0.098,0.266 -0.238,0.42 -0.238,0.28 -0.602,0.42 -1.008,0.42 -1.176,0 -1.932,-1.12 -1.932,-2.856 0,-1.568 0.686,-2.604 1.75,-2.604 0.756,0 1.428,0.658 1.428,1.4 z m 7.952,-0.868 c -0.672,1.064 -1.274,1.47 -2.17,1.47 -0.798,0 -1.4,-0.406 -1.806,-1.204 -0.252,-0.532 -0.35,-0.98 -0.378,-1.848 h 4.312 c -0.112,-0.91 -0.252,-1.316 -0.602,-1.764 -0.42,-0.504 -1.064,-0.798 -1.792,-0.798 -0.7,0 -1.358,0.252 -1.89,0.728 -0.658,0.574 -1.036,1.568 -1.036,2.716 0,1.932 1.008,3.136 2.618,3.136 1.33,0 2.38,-0.826 2.968,-2.338 z m -4.326,-2.03 c 0.154,-1.092 0.63,-1.61 1.484,-1.61 0.854,0 1.19,0.392 1.372,1.61 z m 4.81601,4.326 h 3.304 v -0.21 c -0.882,-0.042 -1.036,-0.182 -1.05,-0.966 v -8.358 l -0.056,-0.028 c -0.714,0.224 -1.232,0.378 -2.226,0.616 v 0.224 h 0.084 c 0.154,-0.014 0.322,-0.028 0.434,-0.028 0.448,0 0.588,0.196 0.588,0.854 v 6.678 c -0.014,0.756 -0.21,0.952 -1.078,1.008 z m 9.786,-0.924 c -0.238,0.196 -0.406,0.266 -0.616,0.266 -0.322,0 -0.42,-0.196 -0.42,-0.812 v -2.73 c 0,-0.728 -0.07,-1.134 -0.28,-1.47 -0.308,-0.504 -0.91,-0.77 -1.736,-0.77 -1.316,0 -2.352,0.686 -2.352,1.568 0,0.322 0.266,0.602 0.602,0.602 0.336,0 0.63,-0.28 0.63,-0.588 0,-0.056 -0.014,-0.126 -0.028,-0.224 -0.028,-0.126 -0.042,-0.238 -0.042,-0.336 0,-0.378 0.448,-0.686 1.008,-0.686 0.686,0 1.064,0.406 1.064,1.162 v 0.854 c -2.142,0.854 -2.394,0.98 -2.996,1.512 -0.308,0.28 -0.504,0.756 -0.504,1.218 0,0.882 0.616,1.498 1.47,1.498 0.616,0 1.19,-0.294 2.044,-1.022 0.07,0.742 0.322,1.022 0.896,1.022 0.476,0 0.77,-0.168 1.26,-0.7 z m -2.17,-0.798 c 0,0.42 -0.07,0.574 -0.364,0.742 -0.35,0.196 -0.728,0.308 -1.022,0.308 -0.49,0 -0.882,-0.476 -0.882,-1.078 v -0.056 c 0.014,-0.84 0.63,-1.372 2.268,-1.946 z m 8.30201,-4.578 h -1.89 v 0.21 c 0.448,0 0.672,0.126 0.672,0.35 0,0.056 -0.014,0.14 -0.056,0.238 l -1.358,3.864 -1.61,-3.542 c -0.084,-0.196 -0.14,-0.392 -0.14,-0.532 0,-0.252 0.21,-0.35 0.812,-0.378 v -0.21 h -2.884 v 0.196 c 0.364,0.056 0.602,0.21 0.714,0.448 l 1.596,3.444 c 0.168,0.378 0.182,0.392 0.252,0.532 0.392,0.7 0.616,1.218 0.616,1.428 0,0.224 -0.322,1.078 -0.56,1.512 -0.21,0.35 -0.504,0.616 -0.7,0.616 -0.084,0 -0.21,-0.028 -0.364,-0.098 -0.252,-0.098 -0.504,-0.154 -0.728,-0.154 -0.336,0 -0.602,0.266 -0.602,0.616 0,0.462 0.434,0.812 1.036,0.812 0.952,0 1.596,-0.77 2.366,-2.8 l 2.156,-5.712 c 0.182,-0.448 0.336,-0.588 0.672,-0.63 z m 7.336,8.148 v -0.7 h -6.958 v 0.7 z m 1.666,-1.848 h 3.864 v -0.21 c -1.078,0 -1.316,-0.154 -1.33,-0.826 v -8.4 l -0.112,-0.028 -2.52,1.274 v 0.196 c 0.546,-0.21 0.882,-0.308 1.008,-0.308 0.294,0 0.42,0.21 0.42,0.658 v 6.342 c -0.028,0.882 -0.266,1.078 -1.33,1.092 z"
     id="text20"
     style="font-size:14px;font-family:Times, serif"
     aria-label="delay_1" />
  <path
     id="polygon21"
     style="fill:none;stroke:#000000"
     d="m 456.22591,87.418206 v -34.5 h 24.75 v 34.5 z" />
  <path
     id="polygon22"
     style="fill:none;stroke:#000000"
     d="m 462.22591,81.418206 v -22.5 h 12.75 v 22.5 z" />
  <path
     d="m 466.87791,75.218205 h 3.864 v -0.21 c -1.078,0 -1.316,-0.154 -1.33,-0.826 v -8.4 l -0.112,-0.028 -2.52,1.274 v 0.196 c 0.546,-0.21 0.882,-0.308 1.008,-0.308 0.294,0 0.42,0.21 0.42,0.658 v 6.342 c -0.028,0.882 -0.266,1.078 -1.33,1.092 z"
     id="text22"
     style="font-size:14px;font-family:Times, serif"
     aria-label="1" />
  <path
     id="polygon23"
     style="fill:none;stroke:#000000"
     d="m 459.22591,84.418206 v -28.5 h 18.75 v 28.5 z" />
  <path
     id="polygon24"
     style="fill:none;stroke:#000000"
     d="m 375.72591,90.418206 v -40.5 h 108.25 v 40.5 z" />
  <path
     fill="none"
     stroke="#000000"
     d="m 331.72591,70.168206 c 23.11,0 28.89,0 52,0"
     id="path24" />
  <path
     id="polygon26"
     style="fill:#808080"
     d="m 751.72591,209.41821 v -40.5 h 42.75 v 40.5 z" />
  <path
     id="polygon27"
     style="fill:none;stroke:#000000"
     d="m 754.72591,206.41821 v -34.5 h 36.75 v 34.5 z" />
  <path
     id="polygon28"
     style="fill:none;stroke:#000000"
     d="m 760.72591,200.41821 v -22.5 h 24.75 v 22.5 z" />
  <path
     d="m 771.76191,191.75421 c -0.42,1.498 -0.896,1.876 -2.408,1.932 h -3.598 l 6.048,-8.526 v -0.21 h -7.364 l -0.28,2.394 h 0.364 c 0.238,-1.414 0.742,-1.82 2.352,-1.862 h 3.094 l -6.118,8.526 v 0.21 h 7.896 l 0.336,-2.464 z m 2.618,-3.962 c -0.42,0 -0.77,0.35 -0.77,0.798 0,0.406 0.35,0.756 0.756,0.756 0.434,0 0.798,-0.336 0.798,-0.756 0,-0.434 -0.364,-0.798 -0.784,-0.798 z m 0,5.026 c -0.42,0 -0.77,0.35 -0.77,0.798 0,0.406 0.35,0.756 0.756,0.756 0.434,0 0.798,-0.336 0.798,-0.756 0,-0.434 -0.364,-0.798 -0.784,-0.798 z m 3.64,1.4 h 3.864 v -0.21 c -1.078,0 -1.316,-0.154 -1.33,-0.826 v -8.4 l -0.112,-0.028 -2.52,1.274 v 0.196 c 0.546,-0.21 0.882,-0.308 1.008,-0.308 0.294,0 0.42,0.21 0.42,0.658 v 6.342 c -0.028,0.882 -0.266,1.078 -1.33,1.092 z"
     id="text28"
     style="font-size:14px;font-family:Times, serif"
     aria-label="Z:1" />
  <path
     id="polygon29"
     style="fill:none;stroke:#000000"
     d="m 757.72591,203.41821 v -28.5 h 30.75 v 28.5 z" />
  <path
     id="polygon30"
     style="fill:none;stroke:#000000"
     d="m 751.72591,209.41821 v -40.5 h 42.75 v 40.5 z" />
  <path
     fill="none"
     stroke="#000000"
     d="m 331.72591,70.168206 c 47.24,0 -1.98,71.910004 36,100.000004 140.24,103.72 217.57,19 392,19"
     id="path30" />
  <path
     id="ellipse31"
     style="stroke:#000000"
     d="m 545.97591,122.16821 a 9,9 0 0 1 -9,9 9,9 0 0 1 -9,-9 9,9 0 0 1 9,-9 9,9 0 0 1 9,9 z" />
  <path
     d="m 535.12791,127.21821 h 3.864 v -0.21 c -1.078,0 -1.316,-0.154 -1.33,-0.826 v -8.4 l -0.112,-0.028 -2.52,1.274 v 0.196 c 0.546,-0.21 0.882,-0.308 1.008,-0.308 0.294,0 0.42,0.21 0.42,0.658 v 6.342 c -0.028,0.882 -0.266,1.078 -1.33,1.092 z"
     id="text31"
     style="font-size:14px;font-family:Times, serif;text-anchor:middle;fill:#ffffff"
     aria-label="1" />
  <path
     id="polygon33"
     style="fill:#00ffff"
     d="M 589.97591,115.66821 V 50.668206 h 109.75 v 65.000004 z" />
  <path
     id="polygon34"
     style="fill:none;stroke:#000000"
     d="M 592.97591,112.66821 V 53.668206 h 38.25 v 59.000004 z" />
  <path
     id="polygon35"
     style="fill:none;stroke:#000000"
     d="m 598.97591,82.168206 v -22.5 h 26.25 v 22.5 z" />
  <path
     d="m 611.85991,75.702205 c -0.63,-0.042 -0.77,-0.182 -1.26,-1.218 l -3.486,-7.952 h -0.28 l -2.912,6.874 c -0.896,2.044 -1.064,2.268 -1.736,2.296 v 0.266 h 2.772 v -0.266 c -0.672,0 -0.952,-0.168 -0.952,-0.574 0,-0.168 0.042,-0.364 0.112,-0.546 l 0.644,-1.638 h 3.668 l 0.574,1.344 c 0.168,0.378 0.266,0.742 0.266,0.938 0,0.35 -0.238,0.462 -0.98,0.476 v 0.266 h 3.57 z m -6.86,-3.332 1.61,-3.85 1.624,3.85 z m 8.988,-2.828 c -0.42,0 -0.77,0.35 -0.77,0.798 0,0.406 0.35,0.756 0.756,0.756 0.434,0 0.798,-0.336 0.798,-0.756 0,-0.434 -0.364,-0.798 -0.784,-0.798 z m 0,5.026 c -0.42,0 -0.77,0.35 -0.77,0.798 0,0.406 0.35,0.756 0.756,0.756 0.434,0 0.798,-0.336 0.798,-0.756 0,-0.434 -0.364,-0.798 -0.784,-0.798 z m 3.64,1.4 h 3.864 v -0.21 c -1.078,0 -1.316,-0.154 -1.33,-0.826 v -8.4 l -0.112,-0.028 -2.52,1.274 v 0.196 c 0.546,-0.21 0.882,-0.308 1.008,-0.308 0.294,0 0.42,0.21 0.42,0.658 v 6.342 c -0.028,0.882 -0.266,1.078 -1.33,1.092 z"
     id="text35"
     style="font-size:14px;font-family:Times, serif"
     aria-label="A:1" />
  <path
     id="polygon36"
     style="fill:none;stroke:#000000"
     d="M 598.97591,106.66821 V 84.168206 h 26.25 v 22.500004 z" />
  <path
     d="m 602.59391,91.466205 c 1.176,0.07 1.33,0.21 1.344,1.26 v 6.216001 c -0.014,1.05 -0.196,1.218004 -1.344,1.260004 v 0.266 h 4.676 c 1.078,0 2.086,-0.294 2.604,-0.770004 0.504,-0.448 0.784,-1.078 0.784,-1.75 0,-0.616 -0.238,-1.176 -0.686,-1.582 -0.42,-0.378001 -0.798,-0.546001 -1.708,-0.770001 0.728,-0.182 1.022,-0.322 1.358,-0.616 0.35,-0.308 0.56,-0.812 0.56,-1.4 0,-1.568 -1.26,-2.38 -3.668,-2.38 h -3.92 z m 2.772,4.438 c 1.358,0 2.002,0.084 2.506,0.294001 0.798,0.322 1.176,0.896 1.176,1.764 0,0.756 -0.294,1.302 -0.854,1.624 -0.448,0.252 -1.022,0.364 -1.946,0.364 -0.686,0 -0.882,-0.126 -0.882,-0.574 z m 0,-0.546 v -3.22 c 0.014,-0.308 0.07,-0.392 0.308,-0.406 l 0.616,-0.014 c 1.554,-0.042 2.464,0.672 2.464,1.918 0,1.106 -0.714,1.694 -2.058,1.708 z m 8.232,-1.316 c -0.42,0 -0.77,0.35 -0.77,0.798 0,0.406 0.35,0.756 0.756,0.756 0.434,0 0.798,-0.336 0.798,-0.756 0,-0.434 -0.364,-0.798 -0.784,-0.798 z m 0,5.026001 c -0.42,0 -0.77,0.35 -0.77,0.798 0,0.406004 0.35,0.756004 0.756,0.756004 0.434,0 0.798,-0.336 0.798,-0.756004 0,-0.434 -0.364,-0.798 -0.784,-0.798 z m 3.64,1.400004 h 3.864 v -0.21 c -1.078,0 -1.316,-0.154 -1.33,-0.826004 v -8.400001 l -0.112,-0.028 -2.52,1.274 v 0.196 c 0.546,-0.21 0.882,-0.308 1.008,-0.308 0.294,0 0.42,0.21 0.42,0.658 v 6.342001 c -0.028,0.882004 -0.266,1.078004 -1.33,1.092004 z"
     id="text36"
     style="font-size:14px;font-family:Times, serif"
     aria-label="B:1" />
  <path
     id="polygon37"
     style="fill:none;stroke:#000000"
     d="M 595.97591,109.66821 V 56.668206 h 32.25 v 53.000004 z" />
  <path
     id="polygon38"
     style="fill:none;stroke:#000000"
     d="M 633.22591,112.66821 V 53.668206 h 24.75 v 59.000004 z" />
  <path
     d="m 641.27991,78.754205 c -2.674,0 -4.578,2.002 -4.578,4.83 0,1.316 0.448,2.604 1.204,3.402 0.812,0.882 2.058,1.428 3.29,1.428 2.758,0 4.662,-1.946 4.662,-4.774 0,-1.386 -0.406,-2.59 -1.176,-3.416 -0.882,-0.966 -2.058,-1.47 -3.402,-1.47 z m 0,0.504 c 0.644,0 1.288,0.252 1.792,0.7 0.756,0.686 1.19,2.002 1.19,3.668 0,0.826 -0.168,1.792 -0.462,2.52 -0.126,0.35 -0.364,0.7 -0.686,1.022 -0.49,0.49 -1.12,0.742 -1.862,0.742 -0.644,0 -1.274,-0.252 -1.778,-0.686 -0.714,-0.644 -1.176,-2.058 -1.176,-3.612 0,-1.428 0.392,-2.786 0.98,-3.444 0.546,-0.602 1.232,-0.91 2.002,-0.91 z m 14.28,8.694 c -0.532,-0.042 -0.812,-0.182 -1.218,-0.658 l -2.884,-3.542 c 1.778,-0.35 2.534,-1.05 2.534,-2.338 0,-0.602 -0.182,-1.12 -0.546,-1.526 -0.532,-0.574 -1.708,-0.938 -3.01,-0.938 h -3.864 v 0.266 c 1.036,0.112 1.176,0.238 1.19,1.26 v 6.062 c -0.014,1.19 -0.14,1.33 -1.19,1.414 v 0.266 h 3.878 v -0.266 c -1.078,-0.07 -1.246,-0.238 -1.26,-1.26 v -2.758 l 0.784,-0.028 3.332,4.312 h 2.254 z m -6.37,-7.98 c 0,-0.392 0.154,-0.504 0.714,-0.504 1.75,0 2.562,0.602 2.562,1.918 0,0.7 -0.294,1.288 -0.798,1.554 -0.644,0.364 -1.134,0.448 -2.478,0.476 z"
     id="text38"
     style="font-size:14px;font-family:Times, serif"
     aria-label="OR" />
  <path
     id="polygon39"
     style="fill:none;stroke:#000000"
     d="M 659.97591,112.66821 V 53.668206 h 36.75 v 59.000004 z" />
  <path
     id="polygon40"
     style="fill:none;stroke:#000000"
     d="M 665.97591,106.66821 V 59.668206 h 24.75 v 47.000004 z" />
  <path
     d="m 677.01191,85.754205 c -0.42,1.498 -0.896,1.876 -2.408,1.932 h -3.598 l 6.048,-8.526 v -0.21 h -7.364 l -0.28,2.394 h 0.364 c 0.238,-1.414 0.742,-1.82 2.352,-1.862 h 3.094 l -6.118,8.526 v 0.21 h 7.896 l 0.336,-2.464 z m 2.618,-3.962 c -0.42,0 -0.77,0.35 -0.77,0.798 0,0.406 0.35,0.756 0.756,0.756 0.434,0 0.798,-0.336 0.798,-0.756 0,-0.434 -0.364,-0.798 -0.784,-0.798 z m 0,5.026 c -0.42,0 -0.77,0.35 -0.77,0.798 0,0.406 0.35,0.756 0.756,0.756 0.434,0 0.798,-0.336 0.798,-0.756 0,-0.434 -0.364,-0.798 -0.784,-0.798 z m 3.64,1.4 h 3.864 v -0.21 c -1.078,0 -1.316,-0.154 -1.33,-0.826 v -8.4 l -0.112,-0.028 -2.52,1.274 v 0.196 c 0.546,-0.21 0.882,-0.308 1.008,-0.308 0.294,0 0.42,0.21 0.42,0.658 v 6.342 c -0.028,0.882 -0.266,1.078 -1.33,1.092 z"
     id="text40"
     style="font-size:14px;font-family:Times, serif"
     aria-label="Z:1" />
  <path
     id="polygon41"
     style="fill:none;stroke:#000000"
     d="M 662.97591,109.66821 V 56.668206 h 30.75 v 53.000004 z" />
  <path
     id="polygon42"
     style="fill:none;stroke:#000000"
     d="M 589.97591,115.66821 V 50.668206 h 109.75 v 65.000004 z" />
  <path
     fill="none"
     stroke="#000000"
     d="m 545.97591,122.16821 c 25.99,0 26.01,-26.750004 52,-26.750004"
     id="path42" />
  <path
     id="ellipse43"
     style="stroke:#000000"
     d="m 545.97591,70.168202 a 9,9 0 0 1 -9,9 9,9 0 0 1 -9,-9 9,9 0 0 1 9,-9 9,9 0 0 1 9,9 z" />
  <path
     d="m 535.12791,75.218205 h 3.864 v -0.21 c -1.078,0 -1.316,-0.154 -1.33,-0.826 v -8.4 l -0.112,-0.028 -2.52,1.274 v 0.196 c 0.546,-0.21 0.882,-0.308 1.008,-0.308 0.294,0 0.42,0.21 0.42,0.658 v 6.342 c -0.028,0.882 -0.266,1.078 -1.33,1.092 z"
     id="text43"
     style="font-size:14px;font-family:Times, serif;text-anchor:middle;fill:#ffffff"
     aria-label="1" />
  <path
     fill="none"
     stroke="#000000"
     d="m 545.97591,70.168206 c 23.11,0 28.89,0.75 52,0.75"
     id="path44" />
  <path
     id="ellipse45"
     style="stroke:#000000"
     d="m 782.09591,51.168202 a 9,9 0 0 1 -9,9 9,9 0 0 1 -9,-9 9,9 0 0 1 9,-9 9,9 0 0 1 9,9 z" />
  <path
     d="m 771.24791,56.218205 h 3.864 v -0.21 c -1.078,0 -1.316,-0.154 -1.33,-0.826 v -8.4 l -0.112,-0.028 -2.52,1.274 v 0.196 c 0.546,-0.21 0.882,-0.308 1.008,-0.308 0.294,0 0.42,0.21 0.42,0.658 v 6.342 c -0.028,0.882 -0.266,1.078 -1.33,1.092 z"
     id="text45"
     style="font-size:14px;font-family:Times, serif;text-anchor:middle;fill:#ffffff"
     aria-label="1" />
  <path
     fill="none"
     stroke="#000000"
     d="m 783.55591,51.168206 c 4.03,0 1.87,-6.18 -1,-9 -77.73,-76.74 -135.35,-24 -244.58,-24 -109.12,0 -109.12,0 -109.12,0 -24.42,0 -264.15,-10.4799995 -270.38,-4.5 -7.78,7.46 -11.79,24.25 -1,24.25"
     id="path46" />
  <path
     id="polygon48"
     style="fill:#20b2aa"
     d="m 398.09591,157.41821 v -40.5 h 63.5 v 40.5 z" />
  <path
     id="polygon49"
     style="fill:none;stroke:#000000"
     d="m 401.09591,154.41821 v -34.5 h 30.76 v 34.5 z" />
  <path
     d="m 408.22591,132.75421 c -1.036,0.686 -1.456,1.036 -1.974,1.68 -0.994,1.218 -1.484,2.618 -1.484,4.256 0,1.792 0.518,3.15 1.75,4.578 0.574,0.672 0.938,0.98 1.666,1.428 l 0.168,-0.224 c -1.12,-0.882 -1.512,-1.386 -1.89,-2.422 -0.336,-0.938 -0.49,-1.988 -0.49,-3.402 0,-1.47 0.182,-2.632 0.56,-3.486 0.392,-0.868 0.812,-1.372 1.82,-2.184 z m 2.184,9.464 h 3.864 v -0.21 c -1.078,0 -1.316,-0.154 -1.33,-0.826 v -8.4 l -0.112,-0.028 -2.52,1.274 v 0.196 c 0.546,-0.21 0.882,-0.308 1.008,-0.308 0.294,0 0.42,0.21 0.42,0.658 v 6.342 c -0.028,0.882 -0.266,1.078 -1.33,1.092 z m 5.88,2.478 c 1.036,-0.686 1.456,-1.036 1.974,-1.68 0.994,-1.218 1.484,-2.618 1.484,-4.256 0,-1.792 -0.518,-3.15 -1.75,-4.578 -0.574,-0.672 -0.938,-0.98 -1.666,-1.428 l -0.168,0.224 c 1.12,0.882 1.498,1.372 1.89,2.422 0.336,0.938 0.49,1.988 0.49,3.402 0,1.47 -0.182,2.618 -0.56,3.472 -0.378,0.868 -0.812,1.386 -1.82,2.198 z m 6.664,-8.946 c -1.148,0.84 -1.75,2.072 -1.75,3.514 0,1.75 0.868,3.052 2.044,3.052 0.756,0 1.4,-0.504 1.848,-1.47 0.448,0.98 0.994,1.47 1.666,1.47 1.176,0 2.086,-1.484 2.086,-3.402 0,-1.876 -0.686,-3.164 -1.68,-3.164 -0.35,0 -0.602,0.252 -0.602,0.602 0,0.266 0.168,0.518 0.392,0.616 0.7,0.266 0.77,0.308 0.98,0.63 0.252,0.364 0.392,0.938 0.392,1.54 0,1.288 -0.686,2.254 -1.624,2.254 -0.602,0 -1.008,-0.322 -1.358,-1.078 0.252,-0.742 0.35,-1.218 0.35,-1.806 0,-0.7 -0.196,-1.092 -0.532,-1.092 -0.392,0 -0.616,0.434 -0.616,1.19 0,0.63 0.098,1.092 0.35,1.736 -0.364,0.728 -0.784,1.064 -1.274,1.064 -0.812,0 -1.288,-0.91 -1.288,-2.478 0,-1.176 0.294,-2.156 0.882,-2.996 z"
     id="text49"
     style="font-size:14px;font-family:Times, serif"
     aria-label="(1)ω" />
  <path
     id="polygon50"
     style="fill:none;stroke:#000000"
     d="m 433.85591,154.41821 v -34.5 h 24.74 v 34.5 z" />
  <path
     id="polygon51"
     style="fill:none;stroke:#000000"
     d="m 439.85591,148.41821 v -22.5 h 12.74 v 22.5 z" />
  <path
     d="m 444.50791,142.21821 h 3.864 v -0.21 c -1.078,0 -1.316,-0.154 -1.33,-0.826 v -8.4 l -0.112,-0.028 -2.52,1.274 v 0.196 c 0.546,-0.21 0.882,-0.308 1.008,-0.308 0.294,0 0.42,0.21 0.42,0.658 v 6.342 c -0.028,0.882 -0.266,1.078 -1.33,1.092 z"
     id="text51"
     style="font-size:14px;font-family:Times, serif"
     aria-label="1" />
  <path
     id="polygon52"
     style="fill:none;stroke:#000000"
     d="m 436.85591,151.41821 v -28.5 h 18.74 v 28.5 z" />
  <path
     id="polygon53"
     style="fill:none;stroke:#000000"
     d="m 398.09591,157.41821 v -40.5 h 63.5 v 40.5 z" />
  <path
     fill="none"
     stroke="#000000"
     d="m 453.59591,137.16821 c 33.73,0 40.66,-15 74.38,-15"
     id="path53" />
  <path
     fill="none"
     stroke="#000000"
     d="m 691.72591,83.168206 c 34.58,0 36.34,-32 70.92,-32"
     id="path54" />
  <path
     fill="none"
     stroke="#000000"
     d="m 261.72591,50.168206 c 24.76,0 27.24,20 52,20"
     id="path55" />
  <path
     fill="none"
     stroke="#000000"
     d="m 475.97591,70.168206 c 23.11,0 28.89,0 52,0"
     id="path56" />
  <path
     id="polygon58"
     style="fill:#808080"
     d="m -0.02408711,82.418206 v -40.5 H 43.475913 v 40.5 z" />
  <path
     id="polygon59"
     style="fill:none;stroke:#000000"
     d="m 2.9759129,79.418206 v -34.5 H 40.475913 v 34.5 z" />
  <path
     id="polygon60"
     style="fill:none;stroke:#000000"
     d="m 8.9759129,73.418206 v -22.5 H 34.475913 v 22.5 z" />
  <path
     d="m 12.213913,58.216205 c 1.176,0.07 1.33,0.21 1.344,1.26 v 6.216 c -0.014,1.05 -0.196,1.218 -1.344,1.26 v 0.266 h 4.676 c 1.078,0 2.086,-0.294 2.604,-0.77 0.504,-0.448 0.784,-1.078 0.784,-1.75 0,-0.616 -0.238,-1.176 -0.686,-1.582 -0.42,-0.378 -0.798,-0.546 -1.708,-0.77 0.728,-0.182 1.022,-0.322 1.358,-0.616 0.35,-0.308 0.56,-0.812 0.56,-1.4 0,-1.568 -1.26,-2.38 -3.668,-2.38 h -3.92 z m 2.772,4.438 c 1.358,0 2.002,0.084 2.506,0.294 0.798,0.322 1.176,0.896 1.176,1.764 0,0.756 -0.294,1.302 -0.854,1.624 -0.448,0.252 -1.022,0.364 -1.946,0.364 -0.686,0 -0.882,-0.126 -0.882,-0.574 z m 0,-0.546 v -3.22 c 0.014,-0.308 0.07,-0.392 0.308,-0.406 l 0.616,-0.014 c 1.554,-0.042 2.464,0.672 2.464,1.918 0,1.106 -0.714,1.694 -2.058,1.708 z m 8.231997,-1.316 c -0.42,0 -0.77,0.35 -0.77,0.798 0,0.406 0.35,0.756 0.756,0.756 0.434,0 0.798,-0.336 0.798,-0.756 0,-0.434 -0.364,-0.798 -0.784,-0.798 z m 0,5.026 c -0.42,0 -0.77,0.35 -0.77,0.798 0,0.406 0.35,0.756 0.756,0.756 0.434,0 0.798,-0.336 0.798,-0.756 0,-0.434 -0.364,-0.798 -0.784,-0.798 z m 3.639999,1.4 h 3.864 v -0.21 c -1.078,0 -1.316,-0.154 -1.33,-0.826 v -8.4 l -0.112,-0.028 -2.52,1.274 v 0.196 c 0.546,-0.21 0.882,-0.308 1.008,-0.308 0.294,0 0.42,0.21 0.42,0.658 v 6.342 c -0.028,0.882 -0.266,1.078 -1.33,1.092 z"
     id="text60"
     style="font-size:14px;font-family:Times, serif"
     aria-label="B:1" />
  <path
     id="polygon61"
     style="fill:none;stroke:#000000"
     d="m 5.9759129,76.418206 v -28.5 H 37.475913 v 28.5 z" />
  <path
     id="polygon62"
     style="fill:none;stroke:#000000"
     d="m -0.02408711,82.418206 v -40.5 H 43.475913 v 40.5 z" />
  <path
     fill="none"
     stroke="#000000"
     d="m 35.475913,62.168206 c 23.11,0 28.89,0 52,0"
     id="path62" />
</svg>
