<?xml version="1.0" encoding="UTF-8" standalone="no"?>
<!-- Generated by graphviz version 11.0.0 (0)
 -->

<!-- Title: half adder Pages: 1 -->

<svg
   width="421pt"
   height="157pt"
   viewBox="0 0 421 156.60152"
   version="1.1"
   id="svg47"
   sodipodi:docname="add-0.svg"
   inkscape:version="1.3.2 (091e20ef0f, 2023-11-25, custom)"
   xmlns:inkscape="http://www.inkscape.org/namespaces/inkscape"
   xmlns:sodipodi="http://sodipodi.sourceforge.net/DTD/sodipodi-0.dtd"
   xmlns="http://www.w3.org/2000/svg"
   xmlns:svg="http://www.w3.org/2000/svg">
  <defs
     id="defs47" />
  <sodipodi:namedview
     id="namedview47"
     pagecolor="#ffffff"
     bordercolor="#000000"
     borderopacity="0.25"
     inkscape:showpageshadow="2"
     inkscape:pageopacity="0.0"
     inkscape:pagecheckerboard="0"
     inkscape:deskcolor="#d1d1d1"
     inkscape:document-units="pt"
     inkscape:zoom="3.3902027"
     inkscape:cx="280.66168"
     inkscape:cy="120.93672"
     inkscape:window-width="2560"
     inkscape:window-height="1380"
     inkscape:window-x="1920"
     inkscape:window-y="32"
     inkscape:window-maximized="1"
     inkscape:current-layer="svg47" />
  <path
     id="ellipse2"
     style="stroke:#000000"
     d="m 106.75,60.750004 a 9,9 0 0 1 -9,9 9,9 0 0 1 -9,-9 9,9 0 0 1 9,-9 9,9 0 0 1 9,9 z" />
  <path
     d="m 95.902,65.800007 h 3.864 v -0.21 c -1.078,0 -1.316,-0.154 -1.33,-0.826 v -8.4 l -0.112,-0.028 -2.52,1.274 v 0.196 c 0.546,-0.21 0.882,-0.308 1.008,-0.308 0.294,0 0.42,0.21 0.42,0.658 v 6.342 c -0.028,0.882 -0.266,1.078 -1.33,1.092 z"
     id="text2"
     style="font-size:14px;font-family:Times, serif;text-anchor:middle;fill:#ffffff"
     aria-label="1" />
  <path
     id="polygon4"
     style="fill:#00ced1"
     d="M 151.12,65.250004 V 0.25000381 h 119.5 V 65.250004 Z" />
  <path
     id="polygon5"
     style="fill:none;stroke:#000000"
     d="M 154.12,62.250004 V 3.2500038 h 38.26 V 62.250004 Z" />
  <path
     id="polygon6"
     style="fill:none;stroke:#000000"
     d="M 160.12,31.750004 V 9.2500038 h 26.26 V 31.750004 Z" />
  <path
     d="m 173.004,25.284007 c -0.63,-0.042 -0.77,-0.182 -1.26,-1.218 l -3.486,-7.952 h -0.28 l -2.912,6.874 c -0.896,2.044 -1.064,2.268 -1.736,2.296 v 0.266 h 2.772 v -0.266 c -0.672,0 -0.952,-0.168 -0.952,-0.574 0,-0.168 0.042,-0.364 0.112,-0.546 l 0.644,-1.638 h 3.668 l 0.574,1.344 c 0.168,0.378 0.266,0.742 0.266,0.938 0,0.35 -0.238,0.462 -0.98,0.476 v 0.266 h 3.57 z m -6.86,-3.332 1.61,-3.85 1.624,3.85 z m 8.988,-2.828 c -0.42,0 -0.77,0.35 -0.77,0.798 0,0.406 0.35,0.756 0.756,0.756 0.434,0 0.798,-0.336 0.798,-0.756 0,-0.434 -0.364,-0.798 -0.784,-0.798 z m 0,5.026 c -0.42,0 -0.77,0.35 -0.77,0.798 0,0.406 0.35,0.756 0.756,0.756 0.434,0 0.798,-0.336 0.798,-0.756 0,-0.434 -0.364,-0.798 -0.784,-0.798 z m 3.64,1.4 h 3.864 v -0.21 c -1.078,0 -1.316,-0.154 -1.33,-0.826 v -8.4 l -0.112,-0.028 -2.52,1.274 v 0.196 c 0.546,-0.21 0.882,-0.308 1.008,-0.308 0.294,0 0.42,0.21 0.42,0.658 v 6.342 c -0.028,0.882 -0.266,1.078 -1.33,1.092 z"
     id="text6"
     style="font-size:14px;font-family:Times, serif"
     aria-label="A:1" />
  <path
     id="polygon7"
     style="fill:none;stroke:#000000"
     d="m 160.12,56.250004 v -22.5 h 26.26 v 22.5 z" />
  <path
     d="m 163.738,41.048007 c 1.176,0.07 1.33,0.21 1.344,1.26 v 6.216 c -0.014,1.05 -0.196,1.218 -1.344,1.26 v 0.266 h 4.676 c 1.078,0 2.086,-0.294 2.604,-0.77 0.504,-0.448 0.784,-1.078 0.784,-1.75 0,-0.616 -0.238,-1.176 -0.686,-1.582 -0.42,-0.378 -0.798,-0.546 -1.708,-0.77 0.728,-0.182 1.022,-0.322 1.358,-0.616 0.35,-0.308 0.56,-0.812 0.56,-1.4 0,-1.568 -1.26,-2.38 -3.668,-2.38 h -3.92 z m 2.772,4.438 c 1.358,0 2.002,0.084 2.506,0.294 0.798,0.322 1.176,0.896 1.176,1.764 0,0.756 -0.294,1.302 -0.854,1.624 -0.448,0.252 -1.022,0.364 -1.946,0.364 -0.686,0 -0.882,-0.126 -0.882,-0.574 z m 0,-0.546 v -3.22 c 0.014,-0.308 0.07,-0.392 0.308,-0.406 l 0.616,-0.014 c 1.554,-0.042 2.464,0.672 2.464,1.918 0,1.106 -0.714,1.694 -2.058,1.708 z m 8.232,-1.316 c -0.42,0 -0.77,0.35 -0.77,0.798 0,0.406 0.35,0.756 0.756,0.756 0.434,0 0.798,-0.336 0.798,-0.756 0,-0.434 -0.364,-0.798 -0.784,-0.798 z m 0,5.026 c -0.42,0 -0.77,0.35 -0.77,0.798 0,0.406 0.35,0.756 0.756,0.756 0.434,0 0.798,-0.336 0.798,-0.756 0,-0.434 -0.364,-0.798 -0.784,-0.798 z m 3.64,1.4 h 3.864 v -0.21 c -1.078,0 -1.316,-0.154 -1.33,-0.826 v -8.4 l -0.112,-0.028 -2.52,1.274 v 0.196 c 0.546,-0.21 0.882,-0.308 1.008,-0.308 0.294,0 0.42,0.21 0.42,0.658 v 6.342 c -0.028,0.882 -0.266,1.078 -1.33,1.092 z"
     id="text7"
     style="font-size:14px;font-family:Times, serif"
     aria-label="B:1" />
  <path
     id="polygon8"
     style="fill:none;stroke:#000000"
     d="M 157.12,59.250004 V 6.2500038 h 32.26 V 59.250004 Z" />
  <path
     id="polygon9"
     style="fill:none;stroke:#000000"
     d="M 194.38,62.250004 V 3.2500038 h 34.5 V 62.250004 Z" />
  <path
     d="m 207.124,28.532007 h -3.332 v 0.266 c 0.756,0.028 0.98,0.126 0.98,0.448 0,0.21 -0.14,0.462 -0.56,0.966 l -1.582,1.932 -0.588,-0.826 c -0.854,-1.204 -1.19,-1.792 -1.19,-2.1 0,-0.28 0.21,-0.392 0.672,-0.406 l 0.392,-0.014 v -0.266 h -4.228 v 0.266 c 0.91,0.042 1.162,0.252 2.534,2.198 l 1.526,2.24 -2.198,2.702 c -1.246,1.484 -1.316,1.54 -2.03,1.596 v 0.266 h 3.262 v -0.266 c -0.826,-0.056 -1.064,-0.168 -1.064,-0.49 0,-0.21 0.21,-0.56 0.728,-1.204 l 1.666,-2.072 1.33,1.96 c 0.476,0.714 0.714,1.162 0.714,1.372 0,0.252 -0.224,0.392 -0.7,0.406 -0.056,0 -0.21,0.014 -0.378,0.028 v 0.266 h 4.158 v -0.266 c -0.742,-0.084 -0.952,-0.224 -1.554,-1.036 l -2.688,-3.836 2.044,-2.548 c 0.91,-1.092 1.19,-1.26 2.086,-1.316 z m 4.53601,-0.196 c -2.674,0 -4.578,2.002 -4.578,4.83 0,1.316 0.448,2.604 1.204,3.402 0.812,0.882 2.058,1.428 3.29,1.428 2.758,0 4.662,-1.946 4.662,-4.774 0,-1.386 -0.406,-2.59 -1.176,-3.416 -0.882,-0.966 -2.058,-1.47 -3.402,-1.47 z m 0,0.504 c 0.644,0 1.288,0.252 1.792,0.7 0.756,0.686 1.19,2.002 1.19,3.668 0,0.826 -0.168,1.792 -0.462,2.52 -0.126,0.35 -0.364,0.7 -0.686,1.022 -0.49,0.49 -1.12,0.742 -1.862,0.742 -0.644,0 -1.274,-0.252 -1.778,-0.686 -0.714,-0.644 -1.176,-2.058 -1.176,-3.612 0,-1.428 0.392,-2.786 0.98,-3.444 0.546,-0.602 1.232,-0.91 2.002,-0.91 z m 14.28,8.694 c -0.532,-0.042 -0.812,-0.182 -1.218,-0.658 l -2.884,-3.542 c 1.778,-0.35 2.534,-1.05 2.534,-2.338 0,-0.602 -0.182,-1.12 -0.546,-1.526 -0.532,-0.574 -1.708,-0.938 -3.01,-0.938 h -3.864 v 0.266 c 1.036,0.112 1.176,0.238 1.19,1.26 v 6.062 c -0.014,1.19 -0.14,1.33 -1.19,1.414 v 0.266 h 3.878 v -0.266 c -1.078,-0.07 -1.246,-0.238 -1.26,-1.26 v -2.758 l 0.784,-0.028 3.332,4.312 h 2.254 z m -6.37,-7.98 c 0,-0.392 0.154,-0.504 0.714,-0.504 1.75,0 2.562,0.602 2.562,1.918 0,0.7 -0.294,1.288 -0.798,1.554 -0.644,0.364 -1.134,0.448 -2.478,0.476 z"
     id="text9"
     style="font-size:14px;font-family:Times, serif"
     aria-label="XOR" />
  <path
     id="polygon10"
     style="fill:none;stroke:#000000"
     d="M 230.88,62.250004 V 3.2500038 h 36.74 V 62.250004 Z" />
  <path
     id="polygon11"
     style="fill:none;stroke:#000000"
     d="M 236.88,56.250004 V 9.2500038 h 24.74 V 56.250004 Z" />
  <path
     d="m 247.916,35.336007 c -0.42,1.498 -0.896,1.876 -2.408,1.932 h -3.598 l 6.048,-8.526 v -0.21 h -7.364 l -0.28,2.394 h 0.364 c 0.238,-1.414 0.742,-1.82 2.352,-1.862 h 3.094 l -6.118,8.526 v 0.21 h 7.896 l 0.336,-2.464 z m 2.618,-3.962 c -0.42,0 -0.77,0.35 -0.77,0.798 0,0.406 0.35,0.756 0.756,0.756 0.434,0 0.798,-0.336 0.798,-0.756 0,-0.434 -0.364,-0.798 -0.784,-0.798 z m 0,5.026 c -0.42,0 -0.77,0.35 -0.77,0.798 0,0.406 0.35,0.756 0.756,0.756 0.434,0 0.798,-0.336 0.798,-0.756 0,-0.434 -0.364,-0.798 -0.784,-0.798 z m 3.64,1.4 h 3.864 v -0.21 c -1.078,0 -1.316,-0.154 -1.33,-0.826 v -8.4 l -0.112,-0.028 -2.52,1.274 v 0.196 c 0.546,-0.21 0.882,-0.308 1.008,-0.308 0.294,0 0.42,0.21 0.42,0.658 v 6.342 c -0.028,0.882 -0.266,1.078 -1.33,1.092 z"
     id="text11"
     style="font-size:14px;font-family:Times, serif"
     aria-label="Z:1" />
  <path
     id="polygon12"
     style="fill:none;stroke:#000000"
     d="M 233.88,59.250004 V 6.2500038 h 30.74 V 59.250004 Z" />
  <path
     id="polygon13"
     style="fill:none;stroke:#000000"
     d="M 151.12,65.250004 V 0.25000381 h 119.5 V 65.250004 Z" />
  <path
     fill="none"
     stroke="#000000"
     d="m 106.75,60.750004 c 29.36,0 23.02,-40.25 52.37,-40.25"
     id="path13" />
  <path
     id="polygon15"
     style="fill:#00ffff"
     d="M 150.75,156.25 V 91.250004 H 271 V 156.25 Z" />
  <path
     id="polygon16"
     style="fill:none;stroke:#000000"
     d="M 153.75,153.25 V 94.250004 H 192 V 153.25 Z" />
  <path
     id="polygon17"
     style="fill:none;stroke:#000000"
     d="m 159.75,122.75 v -22.5 H 186 v 22.5 z" />
  <path
     d="m 172.634,116.284 c -0.63,-0.042 -0.77,-0.182 -1.26,-1.218 l -3.486,-7.952 h -0.28 l -2.912,6.874 c -0.896,2.044 -1.064,2.268 -1.736,2.296 v 0.266 h 2.772 v -0.266 c -0.672,0 -0.952,-0.168 -0.952,-0.574 0,-0.168 0.042,-0.364 0.112,-0.546 l 0.644,-1.638 h 3.668 l 0.574,1.344 c 0.168,0.378 0.266,0.742 0.266,0.938 0,0.35 -0.238,0.462 -0.98,0.476 v 0.266 h 3.57 z m -6.86,-3.332 1.61,-3.85 1.624,3.85 z m 8.988,-2.828 c -0.42,0 -0.77,0.35 -0.77,0.798 0,0.406 0.35,0.756 0.756,0.756 0.434,0 0.798,-0.336 0.798,-0.756 0,-0.434 -0.364,-0.798 -0.784,-0.798 z m 0,5.026 c -0.42,0 -0.77,0.35 -0.77,0.798 0,0.406 0.35,0.756 0.756,0.756 0.434,0 0.798,-0.336 0.798,-0.756 0,-0.434 -0.364,-0.798 -0.784,-0.798 z m 3.64,1.4 h 3.864 v -0.21 c -1.078,0 -1.316,-0.154 -1.33,-0.826 v -8.4 l -0.112,-0.028 -2.52,1.274 v 0.196 c 0.546,-0.21 0.882,-0.308 1.008,-0.308 0.294,0 0.42,0.21 0.42,0.658 v 6.342 c -0.028,0.882 -0.266,1.078 -1.33,1.092 z"
     id="text17"
     style="font-size:14px;font-family:Times, serif"
     aria-label="A:1" />
  <path
     id="polygon18"
     style="fill:none;stroke:#000000"
     d="m 159.75,147.25 v -22.5 H 186 v 22.5 z" />
  <path
     d="m 163.358,132.048 c 1.176,0.07 1.33,0.21 1.344,1.26 v 6.216 c -0.014,1.05 -0.196,1.218 -1.344,1.26 v 0.266 h 4.676 c 1.078,0 2.086,-0.294 2.604,-0.77 0.504,-0.448 0.784,-1.078 0.784,-1.75 0,-0.616 -0.238,-1.176 -0.686,-1.582 -0.42,-0.378 -0.798,-0.546 -1.708,-0.77 0.728,-0.182 1.022,-0.322 1.358,-0.616 0.35,-0.308 0.56,-0.812 0.56,-1.4 0,-1.568 -1.26,-2.38 -3.668,-2.38 h -3.92 z m 2.772,4.438 c 1.358,0 2.002,0.084 2.506,0.294 0.798,0.322 1.176,0.896 1.176,1.764 0,0.756 -0.294,1.302 -0.854,1.624 -0.448,0.252 -1.022,0.364 -1.946,0.364 -0.686,0 -0.882,-0.126 -0.882,-0.574 z m 0,-0.546 v -3.22 c 0.014,-0.308 0.07,-0.392 0.308,-0.406 l 0.616,-0.014 c 1.554,-0.042 2.464,0.672 2.464,1.918 0,1.106 -0.714,1.694 -2.058,1.708 z m 8.23199,-1.316 c -0.42,0 -0.77,0.35 -0.77,0.798 0,0.406 0.35,0.756 0.756,0.756 0.434,0 0.798,-0.336 0.798,-0.756 0,-0.434 -0.364,-0.798 -0.784,-0.798 z m 0,5.026 c -0.42,0 -0.77,0.35 -0.77,0.798 0,0.406 0.35,0.756 0.756,0.756 0.434,0 0.798,-0.336 0.798,-0.756 0,-0.434 -0.364,-0.798 -0.784,-0.798 z m 3.64,1.4 h 3.864 v -0.21 c -1.078,0 -1.316,-0.154 -1.33,-0.826 v -8.4 l -0.112,-0.028 -2.52,1.274 v 0.196 c 0.546,-0.21 0.882,-0.308 1.008,-0.308 0.294,0 0.42,0.21 0.42,0.658 v 6.342 c -0.028,0.882 -0.266,1.078 -1.33,1.092 z"
     id="text18"
     style="font-size:14px;font-family:Times, serif"
     aria-label="B:1" />
  <path
     id="polygon19"
     style="fill:none;stroke:#000000"
     d="M 156.75,150.25 V 97.250004 H 189 V 150.25 Z" />
  <path
     id="polygon20"
     style="fill:none;stroke:#000000"
     d="M 194,153.25 V 94.250004 h 35.25 V 153.25 Z" />
  <path
     d="m 206.884,128.534 c -0.63,-0.042 -0.77,-0.182 -1.26,-1.218 l -3.486,-7.952 h -0.28 l -2.912,6.874 c -0.896,2.044 -1.064,2.268 -1.736,2.296 v 0.266 h 2.772 v -0.266 c -0.672,0 -0.952,-0.168 -0.952,-0.574 0,-0.168 0.042,-0.364 0.112,-0.546 l 0.644,-1.638 h 3.668 l 0.574,1.344 c 0.168,0.378 0.266,0.742 0.266,0.938 0,0.35 -0.238,0.462 -0.98,0.476 v 0.266 h 3.57 z m -6.86,-3.332 1.61,-3.85 1.624,3.85 z m 16.982,-5.67 h -3.29 v 0.266 c 1.12,0.07 1.302,0.308 1.344,1.792 v 4.718 l -5.39,-6.776 h -2.394 v 0.266 c 0.602,0 0.798,0.112 1.358,0.77 v 6.174 c -0.028,1.484 -0.21,1.722 -1.358,1.792 v 0.266 h 3.29 v -0.266 c -1.078,-0.056 -1.288,-0.35 -1.316,-1.792 v -5.488 l 6.188,7.7 h 0.238 v -7.364 c 0.042,-1.456 0.224,-1.694 1.33,-1.792 z m 0.434,9.268 h 3.976 c 1.624,0 3.094,-0.462 3.962,-1.246 0.91,-0.826 1.428,-2.072 1.428,-3.43 0,-1.26 -0.406,-2.352 -1.19,-3.122 -0.952,-0.966 -2.478,-1.47 -4.396,-1.47 h -3.78 v 0.266 c 1.106,0.098 1.218,0.21 1.232,1.26 v 6.216 c -0.014,1.022 -0.182,1.19 -1.232,1.26 z m 2.66,-8.204 c 0,-0.434 0.14,-0.546 0.728,-0.546 1.218,0 2.114,0.224 2.786,0.7 1.092,0.756 1.666,1.96 1.666,3.472 0,1.652 -0.574,2.828 -1.708,3.486 -0.714,0.406 -1.526,0.574 -2.744,0.574 -0.56,0 -0.728,-0.126 -0.728,-0.574 z"
     id="text20"
     style="font-size:14px;font-family:Times, serif"
     aria-label="AND" />
  <path
     id="polygon21"
     style="fill:none;stroke:#000000"
     d="M 231.25,153.25 V 94.250004 H 268 V 153.25 Z" />
  <path
     id="polygon22"
     style="fill:none;stroke:#000000"
     d="m 237.25,147.25 v -47 H 262 v 47 z" />
  <path
     d="m 248.286,126.336 c -0.42,1.498 -0.896,1.876 -2.408,1.932 h -3.598 l 6.048,-8.526 v -0.21 h -7.364 l -0.28,2.394 h 0.364 c 0.238,-1.414 0.742,-1.82 2.352,-1.862 h 3.094 l -6.118,8.526 v 0.21 h 7.896 l 0.336,-2.464 z m 2.618,-3.962 c -0.42,0 -0.77,0.35 -0.77,0.798 0,0.406 0.35,0.756 0.756,0.756 0.434,0 0.798,-0.336 0.798,-0.756 0,-0.434 -0.364,-0.798 -0.784,-0.798 z m 0,5.026 c -0.42,0 -0.77,0.35 -0.77,0.798 0,0.406 0.35,0.756 0.756,0.756 0.434,0 0.798,-0.336 0.798,-0.756 0,-0.434 -0.364,-0.798 -0.784,-0.798 z m 3.64,1.4 h 3.864 v -0.21 c -1.078,0 -1.316,-0.154 -1.33,-0.826 v -8.4 l -0.112,-0.028 -2.52,1.274 v 0.196 c 0.546,-0.21 0.882,-0.308 1.008,-0.308 0.294,0 0.42,0.21 0.42,0.658 v 6.342 c -0.028,0.882 -0.266,1.078 -1.33,1.092 z"
     id="text22"
     style="font-size:14px;font-family:Times, serif"
     aria-label="Z:1" />
  <path
     id="polygon23"
     style="fill:none;stroke:#000000"
     d="M 234.25,150.25 V 97.250004 H 265 V 150.25 Z" />
  <path
     id="polygon24"
     style="fill:none;stroke:#000000"
     d="M 150.75,156.25 V 91.250004 H 271 V 156.25 Z" />
  <path
     fill="none"
     stroke="#000000"
     d="m 106.75,60.750004 c 32.29,0 19.71,50.749996 52,50.749996"
     id="path24" />
  <path
     id="ellipse25"
     style="stroke:#000000"
     d="m 106.75,96.750004 a 9,9 0 0 1 -9,8.999996 9,9 0 0 1 -9,-8.999996 9,9 0 0 1 9,-9 9,9 0 0 1 9,9 z" />
  <path
     d="m 95.902,101.8 h 3.864 v -0.21 c -1.078,0 -1.316,-0.154 -1.33,-0.826 v -8.399996 l -0.112,-0.028 -2.52,1.274 v 0.196 c 0.546,-0.21 0.882,-0.308 1.008,-0.308 0.294,0 0.42,0.21 0.42,0.658 V 100.498 c -0.028,0.882 -0.266,1.078 -1.33,1.092 z"
     id="text25"
     style="font-size:14px;font-family:Times, serif;text-anchor:middle;fill:#ffffff"
     aria-label="1" />
  <path
     fill="none"
     stroke="#000000"
     d="m 106.75,96.750004 c 32.72,0 19.65,-51.75 52.37,-51.75"
     id="path26" />
  <path
     fill="none"
     stroke="#000000"
     d="m 106.75,96.750004 c 28.96,0 23.04,39.249996 52,39.249996"
     id="path27" />
  <path
     id="ellipse28"
     style="stroke:#000000"
     d="m 333,46.750004 a 9,9 0 0 1 -9,9 9,9 0 0 1 -9,-9 9,9 0 0 1 9,-9 9,9 0 0 1 9,9 z" />
  <path
     d="m 322.152,51.800007 h 3.864 v -0.21 c -1.078,0 -1.316,-0.154 -1.33,-0.826 v -8.4 l -0.112,-0.028 -2.52,1.274 v 0.196 c 0.546,-0.21 0.882,-0.308 1.008,-0.308 0.294,0 0.42,0.21 0.42,0.658 v 6.342 c -0.028,0.882 -0.266,1.078 -1.33,1.092 z"
     id="text28"
     style="font-size:14px;font-family:Times, serif;text-anchor:middle;fill:#ffffff"
     aria-label="1" />
  <path
     id="polygon30"
     style="fill:#808080"
     d="M 377,104.25 V 39.250004 h 43.5 V 104.25 Z" />
  <path
     id="polygon31"
     style="fill:none;stroke:#000000"
     d="M 380,101.25 V 42.250004 h 37.5 V 101.25 Z" />
  <path
     id="polygon32"
     style="fill:none;stroke:#000000"
     d="m 386,70.750004 v -22.5 h 25.5 v 22.5 z" />
  <path
     d="m 396.008,55.086007 h -0.294 c -0.056,0.308 -0.21,0.476 -0.448,0.476 -0.14,0 -0.378,-0.056 -0.616,-0.168 -0.518,-0.196 -1.036,-0.308 -1.498,-0.308 -0.588,0 -1.204,0.238 -1.666,0.644 -0.49,0.434 -0.742,1.022 -0.742,1.75 0,1.12 0.616,1.904 2.184,2.73 1.008,0.546 1.736,1.106 2.086,1.638 0.126,0.182 0.196,0.476 0.196,0.826 0,0.924 -0.7,1.568 -1.722,1.568 -1.26,0 -2.128,-0.77 -2.828,-2.478 h -0.322 l 0.42,2.968 h 0.308 c 0.014,-0.266 0.182,-0.462 0.392,-0.462 0.154,0 0.392,0.056 0.658,0.154 0.532,0.21 1.106,0.322 1.652,0.322 1.624,0 2.856,-1.106 2.856,-2.562 0,-1.148 -0.77,-2.044 -2.618,-3.052 -1.47,-0.798 -2.058,-1.414 -2.058,-2.184 0,-0.77 0.588,-1.288 1.456,-1.288 0.63,0 1.218,0.266 1.708,0.77 0.434,0.448 0.63,0.812 0.854,1.638 h 0.35 z m 3.43,3.038 c -0.42,0 -0.77,0.35 -0.77,0.798 0,0.406 0.35,0.756 0.756,0.756 0.434,0 0.798,-0.336 0.798,-0.756 0,-0.434 -0.364,-0.798 -0.784,-0.798 z m 0,5.026 c -0.42,0 -0.77,0.35 -0.77,0.798 0,0.406 0.35,0.756 0.756,0.756 0.434,0 0.798,-0.336 0.798,-0.756 0,-0.434 -0.364,-0.798 -0.784,-0.798 z m 3.63999,1.4 h 3.864 v -0.21 c -1.078,0 -1.316,-0.154 -1.33,-0.826 v -8.4 l -0.112,-0.028 -2.52,1.274 v 0.196 c 0.546,-0.21 0.882,-0.308 1.008,-0.308 0.294,0 0.42,0.21 0.42,0.658 v 6.342 c -0.028,0.882 -0.266,1.078 -1.33,1.092 z"
     id="text32"
     style="font-size:14px;font-family:Times, serif"
     aria-label="S:1" />
  <path
     id="polygon33"
     style="fill:none;stroke:#000000"
     d="m 386,95.250004 v -22.5 h 25.5 v 22.5 z" />
  <path
     d="m 397.68,82.736007 -0.126,-3.15 h -0.294 c -0.084,0.294 -0.308,0.462 -0.588,0.462 -0.126,0 -0.336,-0.042 -0.546,-0.112 -0.686,-0.238 -1.386,-0.35 -2.044,-0.35 -1.148,0 -2.31,0.434 -3.178,1.204 -0.98,0.868 -1.512,2.156 -1.512,3.696 0,2.856 1.862,4.76 4.648,4.76 1.582,0 2.982,-0.644 3.822,-1.778 l -0.252,-0.252 c -1.022,0.994 -1.96,1.414 -3.122,1.414 -0.882,0 -1.666,-0.28 -2.268,-0.812 -0.77,-0.686 -1.204,-1.946 -1.204,-3.514 0,-2.534 1.302,-4.158 3.332,-4.158 0.798,0 1.526,0.294 2.086,0.84 0.448,0.448 0.658,0.84 0.924,1.75 z m 2.604,-0.112 c -0.42,0 -0.77,0.35 -0.77,0.798 0,0.406 0.35,0.756 0.756,0.756 0.434,0 0.798,-0.336 0.798,-0.756 0,-0.434 -0.364,-0.798 -0.784,-0.798 z m 0,5.026 c -0.42,0 -0.77,0.35 -0.77,0.798 0,0.406 0.35,0.756 0.756,0.756 0.434,0 0.798,-0.336 0.798,-0.756 0,-0.434 -0.364,-0.798 -0.784,-0.798 z m 3.64,1.4 h 3.864 v -0.21 c -1.078,0 -1.316,-0.154 -1.33,-0.826 v -8.4 l -0.112,-0.028 -2.52,1.274 v 0.196 c 0.546,-0.21 0.882,-0.308 1.008,-0.308 0.294,0 0.42,0.21 0.42,0.658 v 6.342 c -0.028,0.882 -0.266,1.078 -1.33,1.092 z"
     id="text33"
     style="font-size:14px;font-family:Times, serif"
     aria-label="C:1" />
  <path
     id="polygon34"
     style="fill:none;stroke:#000000"
     d="m 383,98.250004 v -53 h 31.5 v 53 z" />
  <path
     id="polygon35"
     style="fill:none;stroke:#000000"
     d="M 377,104.25 V 39.250004 h 43.5 V 104.25 Z" />
  <path
     fill="none"
     stroke="#000000"
     d="m 333,46.750004 c 23.8,0 28.2,12.75 52,12.75"
     id="path35" />
  <path
     id="ellipse36"
     style="stroke:#000000"
     d="m 333,96.750004 a 9,9 0 0 1 -9,8.999996 9,9 0 0 1 -9,-8.999996 9,9 0 0 1 9,-9 9,9 0 0 1 9,9 z" />
  <path
     d="m 322.152,101.8 h 3.864 v -0.21 c -1.078,0 -1.316,-0.154 -1.33,-0.826 v -8.399996 l -0.112,-0.028 -2.52,1.274 v 0.196 c 0.546,-0.21 0.882,-0.308 1.008,-0.308 0.294,0 0.42,0.21 0.42,0.658 V 100.498 c -0.028,0.882 -0.266,1.078 -1.33,1.092 z"
     id="text36"
     style="font-size:14px;font-family:Times, serif;text-anchor:middle;fill:#ffffff"
     aria-label="1" />
  <path
     fill="none"
     stroke="#000000"
     d="m 333,96.750004 c 23.8,0 28.2,-12.75 52,-12.75"
     id="path37" />
  <path
     fill="none"
     stroke="#000000"
     d="m 262.62,32.750004 c 24.1,0 28.28,14 52.38,14"
     id="path38" />
  <path
     fill="none"
     stroke="#000000"
     d="m 263,123.75 c 26.04,0 25.96,-26.999996 52,-26.999996"
     id="path39" />
  <path
     id="polygon41"
     style="fill:#808080"
     d="M 0.5,111.25 V 46.250004 H 44.75 V 111.25 Z" />
  <path
     id="polygon42"
     style="fill:none;stroke:#000000"
     d="M 3.5,108.25 V 49.250004 H 41.75 V 108.25 Z" />
  <path
     id="polygon43"
     style="fill:none;stroke:#000000"
     d="m 9.5,77.750004 v -22.5 h 26.25 v 22.5 z" />
  <path
     d="m 22.384,71.284007 c -0.63,-0.042 -0.77,-0.182 -1.26,-1.218 l -3.486,-7.952 h -0.28 l -2.912,6.874 c -0.896,2.044 -1.064,2.268 -1.736,2.296 v 0.266 h 2.772 v -0.266 c -0.672,0 -0.952,-0.168 -0.952,-0.574 0,-0.168 0.042,-0.364 0.112,-0.546 l 0.644,-1.638 h 3.668 l 0.574,1.344 c 0.168,0.378 0.266,0.742 0.266,0.938 0,0.35 -0.238,0.462 -0.98,0.476 v 0.266 h 3.57 z m -6.86,-3.332 1.61,-3.85 1.624,3.85 z m 8.988002,-2.828 c -0.42,0 -0.77,0.35 -0.77,0.798 0,0.406 0.35,0.756 0.756,0.756 0.434,0 0.798,-0.336 0.798,-0.756 0,-0.434 -0.364,-0.798 -0.784,-0.798 z m 0,5.026 c -0.42,0 -0.77,0.35 -0.77,0.798 0,0.406 0.35,0.756 0.756,0.756 0.434,0 0.798,-0.336 0.798,-0.756 0,-0.434 -0.364,-0.798 -0.784,-0.798 z m 3.639998,1.4 h 3.864 v -0.21 c -1.078,0 -1.316,-0.154 -1.33,-0.826 v -8.4 l -0.112,-0.028 -2.52,1.274 v 0.196 c 0.546,-0.21 0.882,-0.308 1.008,-0.308 0.294,0 0.42,0.21 0.42,0.658 v 6.342 c -0.028,0.882 -0.266,1.078 -1.33,1.092 z"
     id="text43"
     style="font-size:14px;font-family:Times, serif"
     aria-label="A:1" />
  <path
     id="polygon44"
     style="fill:none;stroke:#000000"
     d="M 9.5,102.25 V 79.750004 H 35.75 V 102.25 Z" />
  <path
     d="m 13.117999,87.048007 c 1.176,0.07 1.33,0.21 1.344,1.26 v 6.215997 c -0.014,1.05 -0.196,1.218 -1.344,1.26 v 0.266 h 4.676 c 1.078,0 2.086,-0.294 2.604,-0.77 0.504,-0.448 0.784,-1.078 0.784,-1.75 0,-0.616 -0.238,-1.176 -0.686,-1.581997 -0.42,-0.378 -0.798,-0.546 -1.708,-0.77 0.728,-0.182 1.022,-0.322 1.358,-0.616 0.35,-0.308 0.56,-0.812 0.56,-1.4 0,-1.568 -1.26,-2.38 -3.668,-2.38 h -3.92 z m 2.772,4.438 c 1.358,0 2.002,0.084 2.506,0.294 0.798,0.322 1.176,0.895997 1.176,1.763997 0,0.756 -0.294,1.302 -0.854,1.624 -0.448,0.252 -1.022,0.364 -1.946,0.364 -0.686,0 -0.882,-0.126 -0.882,-0.574 z m 0,-0.546 v -3.22 c 0.014,-0.308 0.07,-0.392 0.308,-0.406 l 0.616,-0.014 c 1.554,-0.042 2.464,0.672 2.464,1.918 0,1.106 -0.714,1.694 -2.058,1.708 z m 8.231998,-1.316 c -0.42,0 -0.77,0.35 -0.77,0.798 0,0.406 0.35,0.756 0.756,0.756 0.434,0 0.798,-0.336 0.798,-0.756 0,-0.434 -0.364,-0.798 -0.784,-0.798 z m 0,5.025997 c -0.42,0 -0.77,0.35 -0.77,0.798 0,0.406 0.35,0.756 0.756,0.756 0.434,0 0.798,-0.336 0.798,-0.756 0,-0.434 -0.364,-0.798 -0.784,-0.798 z m 3.639998,1.4 h 3.864 v -0.21 c -1.078,0 -1.316,-0.154 -1.33,-0.826 v -8.399997 l -0.112,-0.028 -2.52,1.274 v 0.196 c 0.546,-0.21 0.882,-0.308 1.008,-0.308 0.294,0 0.42,0.21 0.42,0.658 v 6.341997 c -0.028,0.882 -0.266,1.078 -1.33,1.092 z"
     id="text44"
     style="font-size:14px;font-family:Times, serif"
     aria-label="B:1" />
  <path
     id="polygon45"
     style="fill:none;stroke:#000000"
     d="M 6.5,105.25 V 52.250004 H 38.75 V 105.25 Z" />
  <path
     id="polygon46"
     style="fill:none;stroke:#000000"
     d="M 0.5,111.25 V 46.250004 H 44.75 V 111.25 Z" />
  <path
     fill="none"
     stroke="#000000"
     d="m 36.75,66.500004 c 23.25,0 28.75,-5.75 52,-5.75"
     id="path46" />
  <path
     fill="none"
     stroke="#000000"
     d="m 36.75,91.000004 c 23.25,0 28.75,5.75 52,5.75"
     id="path47" />
</svg>
