<?xml version="1.0" encoding="UTF-8" standalone="no"?>
<!-- Generated by graphviz version 11.0.0 (0)
 -->

<!-- Title: half adder Pages: 1 -->

<svg
   width="1247pt"
   height="283.5pt"
   viewBox="0 0 1247 283.5"
   version="1.1"
   id="svg108"
   sodipodi:docname="add-1.svg"
   inkscape:version="1.3.2 (091e20ef0f, 2023-11-25, custom)"
   xmlns:inkscape="http://www.inkscape.org/namespaces/inkscape"
   xmlns:sodipodi="http://sodipodi.sourceforge.net/DTD/sodipodi-0.dtd"
   xmlns="http://www.w3.org/2000/svg"
   xmlns:svg="http://www.w3.org/2000/svg">
  <defs
     id="defs108" />
  <sodipodi:namedview
     id="namedview108"
     pagecolor="#ffffff"
     bordercolor="#000000"
     borderopacity="0.25"
     inkscape:showpageshadow="2"
     inkscape:pageopacity="0.0"
     inkscape:pagecheckerboard="0"
     inkscape:deskcolor="#d1d1d1"
     inkscape:document-units="pt"
     inkscape:zoom="1.6761771"
     inkscape:cx="223.42507"
     inkscape:cy="208.21188"
     inkscape:window-width="2560"
     inkscape:window-height="1380"
     inkscape:window-x="1920"
     inkscape:window-y="32"
     inkscape:window-maximized="1"
     inkscape:current-layer="svg108" />
  <path
     id="polygon2"
     style="fill:none;stroke:#000000"
     d="M 172.75,205.5 V 0.5 H 1113 v 205 z" />
  <path
     d="m 638.288,8.531988 h -3.332 v 0.266 c 0.756,0.028 0.98,0.126 0.98,0.448 0,0.21 -0.14,0.462 -0.56,0.966 l -1.582,1.932 -0.588,-0.826 c -0.854,-1.204 -1.19,-1.792 -1.19,-2.1 0,-0.28 0.21,-0.392 0.672,-0.406 l 0.392,-0.014 v -0.266 h -4.228 v 0.266 c 0.91,0.042 1.162,0.252 2.534,2.198 l 1.526,2.24 -2.198,2.702 c -1.246,1.484 -1.316,1.54 -2.03,1.596 v 0.266 h 3.262 v -0.266 c -0.826,-0.056 -1.064,-0.168 -1.064,-0.49 0,-0.21 0.21,-0.56 0.728,-1.204 l 1.666,-2.072 1.33,1.96 c 0.476,0.714 0.714,1.162 0.714,1.372 0,0.252 -0.224,0.392 -0.7,0.406 -0.056,0 -0.21,0.014 -0.378,0.028 v 0.266 h 4.158 v -0.266 c -0.742,-0.084 -0.952,-0.224 -1.554,-1.036 l -2.688,-3.836 2.044,-2.548 c 0.91,-1.092 1.19,-1.26 2.086,-1.316 z m 4.53601,-0.196 c -2.674,0 -4.578,2.002 -4.578,4.83 0,1.316 0.448,2.604 1.204,3.402 0.812,0.882 2.058,1.428 3.29,1.428 2.758,0 4.662,-1.946 4.662,-4.774 0,-1.386 -0.406,-2.59 -1.176,-3.416 -0.882,-0.966 -2.058,-1.47 -3.402,-1.47 z m 0,0.504 c 0.644,0 1.288,0.252 1.792,0.7 0.756,0.686 1.19,2.002 1.19,3.668 0,0.826 -0.168,1.792 -0.462,2.52 -0.126,0.35 -0.364,0.7 -0.686,1.022 -0.49,0.49 -1.12,0.742 -1.862,0.742 -0.644,0 -1.274,-0.252 -1.778,-0.686 -0.714,-0.644 -1.176,-2.058 -1.176,-3.612 0,-1.428 0.392,-2.786 0.98,-3.444 0.546,-0.602 1.232,-0.91 2.002,-0.91 z m 14.28,8.694 c -0.532,-0.042 -0.812,-0.182 -1.218,-0.658 l -2.884,-3.542 c 1.778,-0.35 2.534,-1.05 2.534,-2.338 0,-0.602 -0.182,-1.12 -0.546,-1.526 -0.532,-0.574 -1.708,-0.938 -3.01,-0.938 h -3.864 v 0.266 c 1.036,0.112 1.176,0.238 1.19,1.26 v 6.062 c -0.014,1.19 -0.14,1.33 -1.19,1.414 v 0.266 h 3.878 v -0.266 c -1.078,-0.07 -1.246,-0.238 -1.26,-1.26 v -2.758 l 0.784,-0.028 3.332,4.312 h 2.254 z m -6.37,-7.98 c 0,-0.392 0.154,-0.504 0.714,-0.504 1.75,0 2.562,0.602 2.562,1.918 0,0.7 -0.294,1.288 -0.798,1.554 -0.644,0.364 -1.134,0.448 -2.478,0.476 z"
     id="text2"
     style="font-size:14px;font-family:Times, serif;text-anchor:middle"
     aria-label="XOR" />
  <path
     id="ellipse3"
     style="stroke:#000000"
     d="m 106.75,187.5 a 9,9 0 0 1 -9,9 9,9 0 0 1 -9,-9 9,9 0 0 1 9,-9 9,9 0 0 1 9,9 z" />
  <path
     d="m 95.902,192.55 h 3.864 v -0.21 c -1.078,0 -1.316,-0.154 -1.33,-0.826 v -8.4 l -0.112,-0.028 -2.52,1.274 v 0.196 c 0.546,-0.21 0.882,-0.308 1.008,-0.308 0.294,0 0.42,0.21 0.42,0.658 v 6.342 c -0.028,0.882 -0.266,1.078 -1.33,1.092 z"
     id="text3"
     style="font-size:14px;font-family:Times, serif;text-anchor:middle;fill:#ffffff"
     aria-label="1" />
  <path
     id="polygon5"
     style="fill:#808080"
     d="M 188.75,192 V 127 H 233 v 65 z" />
  <path
     id="polygon6"
     style="fill:none;stroke:#000000"
     d="M 191.75,189 V 130 H 230 v 59 z" />
  <path
     id="polygon7"
     style="fill:none;stroke:#000000"
     d="M 197.75,158.5 V 136 H 224 v 22.5 z" />
  <path
     d="m 210.634,152.034 c -0.63,-0.042 -0.77,-0.182 -1.26,-1.218 l -3.486,-7.952 h -0.28 l -2.912,6.874 c -0.896,2.044 -1.064,2.268 -1.736,2.296 v 0.266 h 2.772 v -0.266 c -0.672,0 -0.952,-0.168 -0.952,-0.574 0,-0.168 0.042,-0.364 0.112,-0.546 l 0.644,-1.638 h 3.668 l 0.574,1.344 c 0.168,0.378 0.266,0.742 0.266,0.938 0,0.35 -0.238,0.462 -0.98,0.476 v 0.266 h 3.57 z m -6.86,-3.332 1.61,-3.85 1.624,3.85 z m 8.988,-2.828 c -0.42,0 -0.77,0.35 -0.77,0.798 0,0.406 0.35,0.756 0.756,0.756 0.434,0 0.798,-0.336 0.798,-0.756 0,-0.434 -0.364,-0.798 -0.784,-0.798 z m 0,5.026 c -0.42,0 -0.77,0.35 -0.77,0.798 0,0.406 0.35,0.756 0.756,0.756 0.434,0 0.798,-0.336 0.798,-0.756 0,-0.434 -0.364,-0.798 -0.784,-0.798 z m 3.64,1.4 h 3.864 v -0.21 c -1.078,0 -1.316,-0.154 -1.33,-0.826 v -8.4 l -0.112,-0.028 -2.52,1.274 v 0.196 c 0.546,-0.21 0.882,-0.308 1.008,-0.308 0.294,0 0.42,0.21 0.42,0.658 v 6.342 c -0.028,0.882 -0.266,1.078 -1.33,1.092 z"
     id="text7"
     style="font-size:14px;font-family:Times, serif"
     aria-label="A:1" />
  <path
     id="polygon8"
     style="fill:none;stroke:#000000"
     d="M 197.75,183 V 160.5 H 224 V 183 Z" />
  <path
     d="m 201.358,167.798 c 1.176,0.07 1.33,0.21 1.344,1.26 v 6.216 c -0.014,1.05 -0.196,1.218 -1.344,1.26 v 0.266 h 4.676 c 1.078,0 2.086,-0.294 2.604,-0.77 0.504,-0.448 0.784,-1.078 0.784,-1.75 0,-0.616 -0.238,-1.176 -0.686,-1.582 -0.42,-0.378 -0.798,-0.546 -1.708,-0.77 0.728,-0.182 1.022,-0.322 1.358,-0.616 0.35,-0.308 0.56,-0.812 0.56,-1.4 0,-1.568 -1.26,-2.38 -3.668,-2.38 h -3.92 z m 2.772,4.438 c 1.358,0 2.002,0.084 2.506,0.294 0.798,0.322 1.176,0.896 1.176,1.764 0,0.756 -0.294,1.302 -0.854,1.624 -0.448,0.252 -1.022,0.364 -1.946,0.364 -0.686,0 -0.882,-0.126 -0.882,-0.574 z m 0,-0.546 v -3.22 c 0.014,-0.308 0.07,-0.392 0.308,-0.406 l 0.616,-0.014 c 1.554,-0.042 2.464,0.672 2.464,1.918 0,1.106 -0.714,1.694 -2.058,1.708 z m 8.23199,-1.316 c -0.42,0 -0.77,0.35 -0.77,0.798 0,0.406 0.35,0.756 0.756,0.756 0.434,0 0.798,-0.336 0.798,-0.756 0,-0.434 -0.364,-0.798 -0.784,-0.798 z m 0,5.026 c -0.42,0 -0.77,0.35 -0.77,0.798 0,0.406 0.35,0.756 0.756,0.756 0.434,0 0.798,-0.336 0.798,-0.756 0,-0.434 -0.364,-0.798 -0.784,-0.798 z m 3.64,1.4 h 3.864 v -0.21 c -1.078,0 -1.316,-0.154 -1.33,-0.826 v -8.4 l -0.112,-0.028 -2.52,1.274 v 0.196 c 0.546,-0.21 0.882,-0.308 1.008,-0.308 0.294,0 0.42,0.21 0.42,0.658 v 6.342 c -0.028,0.882 -0.266,1.078 -1.33,1.092 z"
     id="text8"
     style="font-size:14px;font-family:Times, serif"
     aria-label="B:1" />
  <path
     id="polygon9"
     style="fill:none;stroke:#000000"
     d="M 194.75,186 V 133 H 227 v 53 z" />
  <path
     id="polygon10"
     style="fill:none;stroke:#000000"
     d="M 188.75,192 V 127 H 233 v 65 z" />
  <path
     fill="none"
     stroke="#000000"
     d="m 106.75,187.5 c 43.82,0 46.18,-40.25 90,-40.25"
     id="path10" />
  <path
     id="polygon12"
     style="fill:#00ffff"
     d="M 150.75,283 V 218 H 271 v 65 z" />
  <path
     id="polygon13"
     style="fill:none;stroke:#000000"
     d="M 153.75,280 V 221 H 192 v 59 z" />
  <path
     id="polygon14"
     style="fill:none;stroke:#000000"
     d="M 159.75,249.5 V 227 H 186 v 22.5 z" />
  <path
     d="m 172.634,243.034 c -0.63,-0.042 -0.77,-0.182 -1.26,-1.218 l -3.486,-7.952 h -0.28 l -2.912,6.874 c -0.896,2.044 -1.064,2.268 -1.736,2.296 v 0.266 h 2.772 v -0.266 c -0.672,0 -0.952,-0.168 -0.952,-0.574 0,-0.168 0.042,-0.364 0.112,-0.546 l 0.644,-1.638 h 3.668 l 0.574,1.344 c 0.168,0.378 0.266,0.742 0.266,0.938 0,0.35 -0.238,0.462 -0.98,0.476 v 0.266 h 3.57 z m -6.86,-3.332 1.61,-3.85 1.624,3.85 z m 8.988,-2.828 c -0.42,0 -0.77,0.35 -0.77,0.798 0,0.406 0.35,0.756 0.756,0.756 0.434,0 0.798,-0.336 0.798,-0.756 0,-0.434 -0.364,-0.798 -0.784,-0.798 z m 0,5.026 c -0.42,0 -0.77,0.35 -0.77,0.798 0,0.406 0.35,0.756 0.756,0.756 0.434,0 0.798,-0.336 0.798,-0.756 0,-0.434 -0.364,-0.798 -0.784,-0.798 z m 3.64,1.4 h 3.864 v -0.21 c -1.078,0 -1.316,-0.154 -1.33,-0.826 v -8.4 l -0.112,-0.028 -2.52,1.274 v 0.196 c 0.546,-0.21 0.882,-0.308 1.008,-0.308 0.294,0 0.42,0.21 0.42,0.658 v 6.342 c -0.028,0.882 -0.266,1.078 -1.33,1.092 z"
     id="text14"
     style="font-size:14px;font-family:Times, serif"
     aria-label="A:1" />
  <path
     id="polygon15"
     style="fill:none;stroke:#000000"
     d="M 159.75,274 V 251.5 H 186 V 274 Z" />
  <path
     d="m 163.358,258.79799 c 1.176,0.07 1.33,0.21 1.344,1.26 v 6.216 c -0.014,1.05 -0.196,1.218 -1.344,1.26 v 0.266 h 4.676 c 1.078,0 2.086,-0.294 2.604,-0.77 0.504,-0.448 0.784,-1.078 0.784,-1.75 0,-0.616 -0.238,-1.176 -0.686,-1.582 -0.42,-0.378 -0.798,-0.546 -1.708,-0.77 0.728,-0.182 1.022,-0.322 1.358,-0.616 0.35,-0.308 0.56,-0.812 0.56,-1.4 0,-1.568 -1.26,-2.38 -3.668,-2.38 h -3.92 z m 2.772,4.438 c 1.358,0 2.002,0.084 2.506,0.294 0.798,0.322 1.176,0.896 1.176,1.764 0,0.756 -0.294,1.302 -0.854,1.624 -0.448,0.252 -1.022,0.364 -1.946,0.364 -0.686,0 -0.882,-0.126 -0.882,-0.574 z m 0,-0.546 v -3.22 c 0.014,-0.308 0.07,-0.392 0.308,-0.406 l 0.616,-0.014 c 1.554,-0.042 2.464,0.672 2.464,1.918 0,1.106 -0.714,1.694 -2.058,1.708 z m 8.23199,-1.316 c -0.42,0 -0.77,0.35 -0.77,0.798 0,0.406 0.35,0.756 0.756,0.756 0.434,0 0.798,-0.336 0.798,-0.756 0,-0.434 -0.364,-0.798 -0.784,-0.798 z m 0,5.026 c -0.42,0 -0.77,0.35 -0.77,0.798 0,0.406 0.35,0.756 0.756,0.756 0.434,0 0.798,-0.336 0.798,-0.756 0,-0.434 -0.364,-0.798 -0.784,-0.798 z m 3.64,1.4 h 3.864 v -0.21 c -1.078,0 -1.316,-0.154 -1.33,-0.826 v -8.4 l -0.112,-0.028 -2.52,1.274 v 0.196 c 0.546,-0.21 0.882,-0.308 1.008,-0.308 0.294,0 0.42,0.21 0.42,0.658 v 6.342 c -0.028,0.882 -0.266,1.078 -1.33,1.092 z"
     id="text15"
     style="font-size:14px;font-family:Times, serif"
     aria-label="B:1" />
  <path
     id="polygon16"
     style="fill:none;stroke:#000000"
     d="M 156.75,277 V 224 H 189 v 53 z" />
  <path
     id="polygon17"
     style="fill:none;stroke:#000000"
     d="m 194,280 v -59 h 35.25 v 59 z" />
  <path
     d="m 206.884,255.28399 c -0.63,-0.042 -0.77,-0.182 -1.26,-1.218 l -3.486,-7.952 h -0.28 l -2.912,6.874 c -0.896,2.044 -1.064,2.268 -1.736,2.296 v 0.266 h 2.772 v -0.266 c -0.672,0 -0.952,-0.168 -0.952,-0.574 0,-0.168 0.042,-0.364 0.112,-0.546 l 0.644,-1.638 h 3.668 l 0.574,1.344 c 0.168,0.378 0.266,0.742 0.266,0.938 0,0.35 -0.238,0.462 -0.98,0.476 v 0.266 h 3.57 z m -6.86,-3.332 1.61,-3.85 1.624,3.85 z m 16.982,-5.67 h -3.29 v 0.266 c 1.12,0.07 1.302,0.308 1.344,1.792 v 4.718 l -5.39,-6.776 h -2.394 v 0.266 c 0.602,0 0.798,0.112 1.358,0.77 v 6.174 c -0.028,1.484 -0.21,1.722 -1.358,1.792 v 0.266 h 3.29 v -0.266 c -1.078,-0.056 -1.288,-0.35 -1.316,-1.792 v -5.488 l 6.188,7.7 h 0.238 v -7.364 c 0.042,-1.456 0.224,-1.694 1.33,-1.792 z m 0.434,9.268 h 3.976 c 1.624,0 3.094,-0.462 3.962,-1.246 0.91,-0.826 1.428,-2.072 1.428,-3.43 0,-1.26 -0.406,-2.352 -1.19,-3.122 -0.952,-0.966 -2.478,-1.47 -4.396,-1.47 h -3.78 v 0.266 c 1.106,0.098 1.218,0.21 1.232,1.26 v 6.216 c -0.014,1.022 -0.182,1.19 -1.232,1.26 z m 2.66,-8.204 c 0,-0.434 0.14,-0.546 0.728,-0.546 1.218,0 2.114,0.224 2.786,0.7 1.092,0.756 1.666,1.96 1.666,3.472 0,1.652 -0.574,2.828 -1.708,3.486 -0.714,0.406 -1.526,0.574 -2.744,0.574 -0.56,0 -0.728,-0.126 -0.728,-0.574 z"
     id="text17"
     style="font-size:14px;font-family:Times, serif"
     aria-label="AND" />
  <path
     id="polygon18"
     style="fill:none;stroke:#000000"
     d="M 231.25,280 V 221 H 268 v 59 z" />
  <path
     id="polygon19"
     style="fill:none;stroke:#000000"
     d="M 237.25,274 V 227 H 262 v 47 z" />
  <path
     d="m 248.286,253.08599 c -0.42,1.498 -0.896,1.876 -2.408,1.932 h -3.598 l 6.048,-8.526 v -0.21 h -7.364 l -0.28,2.394 h 0.364 c 0.238,-1.414 0.742,-1.82 2.352,-1.862 h 3.094 l -6.118,8.526 v 0.21 h 7.896 l 0.336,-2.464 z m 2.618,-3.962 c -0.42,0 -0.77,0.35 -0.77,0.798 0,0.406 0.35,0.756 0.756,0.756 0.434,0 0.798,-0.336 0.798,-0.756 0,-0.434 -0.364,-0.798 -0.784,-0.798 z m 0,5.026 c -0.42,0 -0.77,0.35 -0.77,0.798 0,0.406 0.35,0.756 0.756,0.756 0.434,0 0.798,-0.336 0.798,-0.756 0,-0.434 -0.364,-0.798 -0.784,-0.798 z m 3.64,1.4 h 3.864 v -0.21 c -1.078,0 -1.316,-0.154 -1.33,-0.826 v -8.4 l -0.112,-0.028 -2.52,1.274 v 0.196 c 0.546,-0.21 0.882,-0.308 1.008,-0.308 0.294,0 0.42,0.21 0.42,0.658 v 6.342 c -0.028,0.882 -0.266,1.078 -1.33,1.092 z"
     id="text19"
     style="font-size:14px;font-family:Times, serif"
     aria-label="Z:1" />
  <path
     id="polygon20"
     style="fill:none;stroke:#000000"
     d="M 234.25,277 V 224 H 265 v 53 z" />
  <path
     id="polygon21"
     style="fill:none;stroke:#000000"
     d="M 150.75,283 V 218 H 271 v 65 z" />
  <path
     fill="none"
     stroke="#000000"
     d="m 106.75,187.5 c 32.29,0 19.71,50.75 52,50.75"
     id="path21" />
  <path
     id="ellipse22"
     style="stroke:#000000"
     d="m 106.75,223.5 a 9,9 0 0 1 -9,9 9,9 0 0 1 -9,-9 9,9 0 0 1 9,-9 9,9 0 0 1 9,9 z" />
  <path
     d="m 95.902,228.55 h 3.864 v -0.21 c -1.078,0 -1.316,-0.154 -1.33,-0.826 v -8.4 l -0.112,-0.028 -2.52,1.274 v 0.196 c 0.546,-0.21 0.882,-0.308 1.008,-0.308 0.294,0 0.42,0.21 0.42,0.658 v 6.342 c -0.028,0.882 -0.266,1.078 -1.33,1.092 z"
     id="text22"
     style="font-size:14px;font-family:Times, serif;text-anchor:middle;fill:#ffffff"
     aria-label="1" />
  <path
     fill="none"
     stroke="#000000"
     d="m 106.75,223.5 c 11.54,0 78.46,-51.75 90,-51.75"
     id="path23" />
  <path
     fill="none"
     stroke="#000000"
     d="m 106.75,223.5 c 28.96,0 23.04,39.25 52,39.25"
     id="path24" />
  <path
     id="ellipse25"
     style="stroke:#000000"
     d="m 1159,178.5 a 9,9 0 0 1 -9,9 9,9 0 0 1 -9,-9 9,9 0 0 1 9,-9 9,9 0 0 1 9,9 z" />
  <path
     d="m 1148.152,183.55 h 3.864 v -0.21 c -1.078,0 -1.316,-0.154 -1.33,-0.826 v -8.4 l -0.112,-0.028 -2.52,1.274 v 0.196 c 0.546,-0.21 0.882,-0.308 1.008,-0.308 0.294,0 0.42,0.21 0.42,0.658 v 6.342 c -0.028,0.882 -0.266,1.078 -1.33,1.092 z"
     id="text25"
     style="font-size:14px;font-family:Times, serif;text-anchor:middle;fill:#ffffff"
     aria-label="1" />
  <path
     id="polygon27"
     style="fill:#808080"
     d="m 1203,247 v -65 h 43.5 v 65 z" />
  <path
     id="polygon28"
     style="fill:none;stroke:#000000"
     d="m 1206,244 v -59 h 37.5 v 59 z" />
  <path
     id="polygon29"
     style="fill:none;stroke:#000000"
     d="M 1212,213.5 V 191 h 25.5 v 22.5 z" />
  <path
     d="m 1222.008,197.836 h -0.294 c -0.056,0.308 -0.21,0.476 -0.448,0.476 -0.14,0 -0.378,-0.056 -0.616,-0.168 -0.518,-0.196 -1.036,-0.308 -1.498,-0.308 -0.588,0 -1.204,0.238 -1.666,0.644 -0.49,0.434 -0.742,1.022 -0.742,1.75 0,1.12 0.616,1.904 2.184,2.73 1.008,0.546 1.736,1.106 2.086,1.638 0.126,0.182 0.196,0.476 0.196,0.826 0,0.924 -0.7,1.568 -1.722,1.568 -1.26,0 -2.128,-0.77 -2.828,-2.478 h -0.322 l 0.42,2.968 h 0.308 c 0.014,-0.266 0.182,-0.462 0.392,-0.462 0.154,0 0.392,0.056 0.658,0.154 0.532,0.21 1.106,0.322 1.652,0.322 1.624,0 2.856,-1.106 2.856,-2.562 0,-1.148 -0.77,-2.044 -2.618,-3.052 -1.47,-0.798 -2.058,-1.414 -2.058,-2.184 0,-0.77 0.588,-1.288 1.456,-1.288 0.63,0 1.218,0.266 1.708,0.77 0.434,0.448 0.63,0.812 0.854,1.638 h 0.35 z m 3.43,3.038 c -0.42,0 -0.77,0.35 -0.77,0.798 0,0.406 0.35,0.756 0.756,0.756 0.434,0 0.798,-0.336 0.798,-0.756 0,-0.434 -0.364,-0.798 -0.784,-0.798 z m 0,5.026 c -0.42,0 -0.77,0.35 -0.77,0.798 0,0.406 0.35,0.756 0.756,0.756 0.434,0 0.798,-0.336 0.798,-0.756 0,-0.434 -0.364,-0.798 -0.784,-0.798 z m 3.64,1.4 h 3.864 v -0.21 c -1.078,0 -1.316,-0.154 -1.33,-0.826 v -8.4 l -0.112,-0.028 -2.52,1.274 v 0.196 c 0.546,-0.21 0.882,-0.308 1.008,-0.308 0.294,0 0.42,0.21 0.42,0.658 v 6.342 c -0.028,0.882 -0.266,1.078 -1.33,1.092 z"
     id="text29"
     style="font-size:14px;font-family:Times, serif"
     aria-label="S:1" />
  <path
     id="polygon30"
     style="fill:none;stroke:#000000"
     d="m 1212,238 v -22.5 h 25.5 V 238 Z" />
  <path
     d="m 1223.68,225.486 -0.126,-3.15 h -0.294 c -0.084,0.294 -0.308,0.462 -0.588,0.462 -0.126,0 -0.336,-0.042 -0.546,-0.112 -0.686,-0.238 -1.386,-0.35 -2.044,-0.35 -1.148,0 -2.31,0.434 -3.178,1.204 -0.98,0.868 -1.512,2.156 -1.512,3.696 0,2.856 1.862,4.76 4.648,4.76 1.582,0 2.982,-0.644 3.822,-1.778 l -0.252,-0.252 c -1.022,0.994 -1.96,1.414 -3.122,1.414 -0.882,0 -1.666,-0.28 -2.268,-0.812 -0.77,-0.686 -1.204,-1.946 -1.204,-3.514 0,-2.534 1.302,-4.158 3.332,-4.158 0.798,0 1.526,0.294 2.086,0.84 0.448,0.448 0.658,0.84 0.924,1.75 z m 2.604,-0.112 c -0.42,0 -0.77,0.35 -0.77,0.798 0,0.406 0.35,0.756 0.756,0.756 0.434,0 0.798,-0.336 0.798,-0.756 0,-0.434 -0.364,-0.798 -0.784,-0.798 z m 0,5.026 c -0.42,0 -0.77,0.35 -0.77,0.798 0,0.406 0.35,0.756 0.756,0.756 0.434,0 0.798,-0.336 0.798,-0.756 0,-0.434 -0.364,-0.798 -0.784,-0.798 z m 3.64,1.4 h 3.864 v -0.21 c -1.078,0 -1.316,-0.154 -1.33,-0.826 v -8.4 l -0.112,-0.028 -2.52,1.274 v 0.196 c 0.546,-0.21 0.882,-0.308 1.008,-0.308 0.294,0 0.42,0.21 0.42,0.658 v 6.342 c -0.028,0.882 -0.266,1.078 -1.33,1.092 z"
     id="text30"
     style="font-size:14px;font-family:Times, serif"
     aria-label="C:1" />
  <path
     id="polygon31"
     style="fill:none;stroke:#000000"
     d="m 1209,241 v -53 h 31.5 v 53 z" />
  <path
     id="polygon32"
     style="fill:none;stroke:#000000"
     d="m 1203,247 v -65 h 43.5 v 65 z" />
  <path
     fill="none"
     stroke="#000000"
     d="m 1159,178.5 c 25.41,0 26.59,23.75 52,23.75"
     id="path32" />
  <path
     id="ellipse33"
     style="stroke:#000000"
     d="m 333,238.5 a 9,9 0 0 1 -9,9 9,9 0 0 1 -9,-9 9,9 0 0 1 9,-9 9,9 0 0 1 9,9 z" />
  <path
     d="m 322.152,243.55 h 3.864 v -0.21 c -1.078,0 -1.316,-0.154 -1.33,-0.826 v -8.4 l -0.112,-0.028 -2.52,1.274 v 0.196 c 0.546,-0.21 0.882,-0.308 1.008,-0.308 0.294,0 0.42,0.21 0.42,0.658 v 6.342 c -0.028,0.882 -0.266,1.078 -1.33,1.092 z"
     id="text33"
     style="font-size:14px;font-family:Times, serif;text-anchor:middle;fill:#ffffff"
     aria-label="1" />
  <path
     fill="none"
     stroke="#000000"
     d="m 333,238.5 c 96.15,0 120.1,-6 216.25,-6 0,0 0,0 527.37,0 59.78,0 74.6,-5.75 134.38,-5.75"
     id="path34" />
  <path
     id="ellipse35"
     style="stroke:#000000"
     d="m 333,136.5 a 9,9 0 0 1 -9,9 9,9 0 0 1 -9,-9 9,9 0 0 1 9,-9 9,9 0 0 1 9,9 z" />
  <path
     d="m 322.152,141.55 h 3.864 v -0.21 c -1.078,0 -1.316,-0.154 -1.33,-0.826 v -8.4 l -0.112,-0.028 -2.52,1.274 v 0.196 c 0.546,-0.21 0.882,-0.308 1.008,-0.308 0.294,0 0.42,0.21 0.42,0.658 v 6.342 c -0.028,0.882 -0.266,1.078 -1.33,1.092 z"
     id="text35"
     style="font-size:14px;font-family:Times, serif;text-anchor:middle;fill:#ffffff"
     aria-label="1" />
  <path
     id="polygon37"
     style="fill:#00ffff"
     d="M 382.25,102 V 37 H 492 v 65 z" />
  <path
     id="polygon38"
     style="fill:none;stroke:#000000"
     d="M 385.25,99 V 40 h 38.25 v 59 z" />
  <path
     id="polygon39"
     style="fill:none;stroke:#000000"
     d="M 391.25,68.5 V 46 h 26.25 v 22.5 z" />
  <path
     d="m 404.134,62.034003 c -0.63,-0.042 -0.77,-0.182 -1.26,-1.218 l -3.486,-7.952 h -0.28 l -2.912,6.874 c -0.896,2.044 -1.064,2.268 -1.736,2.296 v 0.266 h 2.772 v -0.266 c -0.672,0 -0.952,-0.168 -0.952,-0.574 0,-0.168 0.042,-0.364 0.112,-0.546 l 0.644,-1.638 h 3.668 l 0.574,1.344 c 0.168,0.378 0.266,0.742 0.266,0.938 0,0.35 -0.238,0.462 -0.98,0.476 v 0.266 h 3.57 z m -6.86,-3.332 1.61,-3.85 1.624,3.85 z m 8.988,-2.828 c -0.42,0 -0.77,0.35 -0.77,0.798 0,0.406 0.35,0.756 0.756,0.756 0.434,0 0.798,-0.336 0.798,-0.756 0,-0.434 -0.364,-0.798 -0.784,-0.798 z m 0,5.026 c -0.42,0 -0.77,0.35 -0.77,0.798 0,0.406 0.35,0.756 0.756,0.756 0.434,0 0.798,-0.336 0.798,-0.756 0,-0.434 -0.364,-0.798 -0.784,-0.798 z m 3.64,1.4 h 3.864 v -0.21 c -1.078,0 -1.316,-0.154 -1.33,-0.826 v -8.4 l -0.112,-0.028 -2.52,1.274 v 0.196 c 0.546,-0.21 0.882,-0.308 1.008,-0.308 0.294,0 0.42,0.21 0.42,0.658 v 6.342 c -0.028,0.882 -0.266,1.078 -1.33,1.092 z"
     id="text39"
     style="font-size:14px;font-family:Times, serif"
     aria-label="A:1" />
  <path
     id="polygon40"
     style="fill:none;stroke:#000000"
     d="M 391.25,93 V 70.5 H 417.5 V 93 Z" />
  <path
     d="m 394.858,77.798003 c 1.176,0.07 1.33,0.21 1.344,1.26 v 6.216 c -0.014,1.05 -0.196,1.218 -1.344,1.26 v 0.266 h 4.676 c 1.078,0 2.086,-0.294 2.604,-0.77 0.504,-0.448 0.784,-1.078 0.784,-1.75 0,-0.616 -0.238,-1.176 -0.686,-1.582 -0.42,-0.378 -0.798,-0.546 -1.708,-0.77 0.728,-0.182 1.022,-0.322 1.358,-0.616 0.35,-0.308 0.56,-0.812 0.56,-1.4 0,-1.568 -1.26,-2.38 -3.668,-2.38 h -3.92 z m 2.772,4.438 c 1.358,0 2.002,0.084 2.506,0.294 0.798,0.322 1.176,0.896 1.176,1.764 0,0.756 -0.294,1.302 -0.854,1.624 -0.448,0.252 -1.022,0.364 -1.946,0.364 -0.686,0 -0.882,-0.126 -0.882,-0.574 z m 0,-0.546 v -3.22 c 0.014,-0.308 0.07,-0.392 0.308,-0.406 l 0.616,-0.014 c 1.554,-0.042 2.464,0.672 2.464,1.918 0,1.106 -0.714,1.694 -2.058,1.708 z m 8.23199,-1.316 c -0.42,0 -0.77,0.35 -0.77,0.798 0,0.406 0.35,0.756 0.756,0.756 0.434,0 0.798,-0.336 0.798,-0.756 0,-0.434 -0.364,-0.798 -0.784,-0.798 z m 0,5.026 c -0.42,0 -0.77,0.35 -0.77,0.798 0,0.406 0.35,0.756 0.756,0.756 0.434,0 0.798,-0.336 0.798,-0.756 0,-0.434 -0.364,-0.798 -0.784,-0.798 z m 3.64,1.4 h 3.864 v -0.21 c -1.078,0 -1.316,-0.154 -1.33,-0.826 v -8.4 l -0.112,-0.028 -2.52,1.274 v 0.196 c 0.546,-0.21 0.882,-0.308 1.008,-0.308 0.294,0 0.42,0.21 0.42,0.658 v 6.342 c -0.028,0.882 -0.266,1.078 -1.33,1.092 z"
     id="text40"
     style="font-size:14px;font-family:Times, serif"
     aria-label="B:1" />
  <path
     id="polygon41"
     style="fill:none;stroke:#000000"
     d="M 388.25,96 V 43 h 32.25 v 53 z" />
  <path
     id="polygon42"
     style="fill:none;stroke:#000000"
     d="M 425.5,99 V 40 h 24.75 v 59 z" />
  <path
     d="m 433.554,65.086003 c -2.674,0 -4.578,2.002 -4.578,4.83 0,1.316 0.448,2.604 1.204,3.402 0.812,0.882 2.058,1.428 3.29,1.428 2.758,0 4.662,-1.946 4.662,-4.774 0,-1.386 -0.406,-2.59 -1.176,-3.416 -0.882,-0.966 -2.058,-1.47 -3.402,-1.47 z m 0,0.504 c 0.644,0 1.288,0.252 1.792,0.7 0.756,0.686 1.19,2.002 1.19,3.668 0,0.826 -0.168,1.792 -0.462,2.52 -0.126,0.35 -0.364,0.7 -0.686,1.022 -0.49,0.49 -1.12,0.742 -1.862,0.742 -0.644,0 -1.274,-0.252 -1.778,-0.686 -0.714,-0.644 -1.176,-2.058 -1.176,-3.612 0,-1.428 0.392,-2.786 0.98,-3.444 0.546,-0.602 1.232,-0.91 2.002,-0.91 z m 14.28,8.694 c -0.532,-0.042 -0.812,-0.182 -1.218,-0.658 l -2.884,-3.542 c 1.778,-0.35 2.534,-1.05 2.534,-2.338 0,-0.602 -0.182,-1.12 -0.546,-1.526 -0.532,-0.574 -1.708,-0.938 -3.01,-0.938 h -3.864 v 0.266 c 1.036,0.112 1.176,0.238 1.19,1.26 v 6.062 c -0.014,1.19 -0.14,1.33 -1.19,1.414 v 0.266 h 3.878 v -0.266 c -1.078,-0.07 -1.246,-0.238 -1.26,-1.26 v -2.758 l 0.784,-0.028 3.332,4.312 h 2.254 z m -6.37,-7.98 c 0,-0.392 0.154,-0.504 0.714,-0.504 1.75,0 2.562,0.602 2.562,1.918 0,0.7 -0.294,1.288 -0.798,1.554 -0.644,0.364 -1.134,0.448 -2.478,0.476 z"
     id="text42"
     style="font-size:14px;font-family:Times, serif"
     aria-label="OR" />
  <path
     id="polygon43"
     style="fill:none;stroke:#000000"
     d="M 452.25,99 V 40 H 489 v 59 z" />
  <path
     id="polygon44"
     style="fill:none;stroke:#000000"
     d="M 458.25,93 V 46 H 483 v 47 z" />
  <path
     d="m 469.286,72.086003 c -0.42,1.498 -0.896,1.876 -2.408,1.932 h -3.598 l 6.048,-8.526 v -0.21 h -7.364 l -0.28,2.394 h 0.364 c 0.238,-1.414 0.742,-1.82 2.352,-1.862 h 3.094 l -6.118,8.526 v 0.21 h 7.896 l 0.336,-2.464 z m 2.618,-3.962 c -0.42,0 -0.77,0.35 -0.77,0.798 0,0.406 0.35,0.756 0.756,0.756 0.434,0 0.798,-0.336 0.798,-0.756 0,-0.434 -0.364,-0.798 -0.784,-0.798 z m 0,5.026 c -0.42,0 -0.77,0.35 -0.77,0.798 0,0.406 0.35,0.756 0.756,0.756 0.434,0 0.798,-0.336 0.798,-0.756 0,-0.434 -0.364,-0.798 -0.784,-0.798 z m 3.64,1.4 h 3.864 v -0.21 c -1.078,0 -1.316,-0.154 -1.33,-0.826 v -8.4 l -0.112,-0.028 -2.52,1.274 v 0.196 c 0.546,-0.21 0.882,-0.308 1.008,-0.308 0.294,0 0.42,0.21 0.42,0.658 v 6.342 c -0.028,0.882 -0.266,1.078 -1.33,1.092 z"
     id="text44"
     style="font-size:14px;font-family:Times, serif"
     aria-label="Z:1" />
  <path
     id="polygon45"
     style="fill:none;stroke:#000000"
     d="M 455.25,96 V 43 H 486 v 53 z" />
  <path
     id="polygon46"
     style="fill:none;stroke:#000000"
     d="M 382.25,102 V 37 H 492 v 65 z" />
  <path
     fill="none"
     stroke="#000000"
     d="m 333,136.5 c 43.45,0 13.8,-79.25 57.25,-79.25"
     id="path46" />
  <path
     id="polygon48"
     style="fill:#00ffff"
     d="m 377,193 v -65 h 120.25 v 65 z" />
  <path
     id="polygon49"
     style="fill:none;stroke:#000000"
     d="m 380,190 v -59 h 38.25 v 59 z" />
  <path
     id="polygon50"
     style="fill:none;stroke:#000000"
     d="M 386,159.5 V 137 h 26.25 v 22.5 z" />
  <path
     d="m 398.884,153.034 c -0.63,-0.042 -0.77,-0.182 -1.26,-1.218 l -3.486,-7.952 h -0.28 l -2.912,6.874 c -0.896,2.044 -1.064,2.268 -1.736,2.296 v 0.266 h 2.772 v -0.266 c -0.672,0 -0.952,-0.168 -0.952,-0.574 0,-0.168 0.042,-0.364 0.112,-0.546 l 0.644,-1.638 h 3.668 l 0.574,1.344 c 0.168,0.378 0.266,0.742 0.266,0.938 0,0.35 -0.238,0.462 -0.98,0.476 v 0.266 h 3.57 z m -6.86,-3.332 1.61,-3.85 1.624,3.85 z m 8.988,-2.828 c -0.42,0 -0.77,0.35 -0.77,0.798 0,0.406 0.35,0.756 0.756,0.756 0.434,0 0.798,-0.336 0.798,-0.756 0,-0.434 -0.364,-0.798 -0.784,-0.798 z m 0,5.026 c -0.42,0 -0.77,0.35 -0.77,0.798 0,0.406 0.35,0.756 0.756,0.756 0.434,0 0.798,-0.336 0.798,-0.756 0,-0.434 -0.364,-0.798 -0.784,-0.798 z m 3.64,1.4 h 3.864 v -0.21 c -1.078,0 -1.316,-0.154 -1.33,-0.826 v -8.4 l -0.112,-0.028 -2.52,1.274 v 0.196 c 0.546,-0.21 0.882,-0.308 1.008,-0.308 0.294,0 0.42,0.21 0.42,0.658 v 6.342 c -0.028,0.882 -0.266,1.078 -1.33,1.092 z"
     id="text50"
     style="font-size:14px;font-family:Times, serif"
     aria-label="A:1" />
  <path
     id="polygon51"
     style="fill:none;stroke:#000000"
     d="m 386,184 v -22.5 h 26.25 V 184 Z" />
  <path
     d="m 389.618,168.798 c 1.176,0.07 1.33,0.21 1.344,1.26 v 6.216 c -0.014,1.05 -0.196,1.218 -1.344,1.26 v 0.266 h 4.676 c 1.078,0 2.086,-0.294 2.604,-0.77 0.504,-0.448 0.784,-1.078 0.784,-1.75 0,-0.616 -0.238,-1.176 -0.686,-1.582 -0.42,-0.378 -0.798,-0.546 -1.708,-0.77 0.728,-0.182 1.022,-0.322 1.358,-0.616 0.35,-0.308 0.56,-0.812 0.56,-1.4 0,-1.568 -1.26,-2.38 -3.668,-2.38 h -3.92 z m 2.772,4.438 c 1.358,0 2.002,0.084 2.506,0.294 0.798,0.322 1.176,0.896 1.176,1.764 0,0.756 -0.294,1.302 -0.854,1.624 -0.448,0.252 -1.022,0.364 -1.946,0.364 -0.686,0 -0.882,-0.126 -0.882,-0.574 z m 0,-0.546 v -3.22 c 0.014,-0.308 0.07,-0.392 0.308,-0.406 l 0.616,-0.014 c 1.554,-0.042 2.464,0.672 2.464,1.918 0,1.106 -0.714,1.694 -2.058,1.708 z m 8.232,-1.316 c -0.42,0 -0.77,0.35 -0.77,0.798 0,0.406 0.35,0.756 0.756,0.756 0.434,0 0.798,-0.336 0.798,-0.756 0,-0.434 -0.364,-0.798 -0.784,-0.798 z m 0,5.026 c -0.42,0 -0.77,0.35 -0.77,0.798 0,0.406 0.35,0.756 0.756,0.756 0.434,0 0.798,-0.336 0.798,-0.756 0,-0.434 -0.364,-0.798 -0.784,-0.798 z m 3.64,1.4 h 3.864 v -0.21 c -1.078,0 -1.316,-0.154 -1.33,-0.826 v -8.4 l -0.112,-0.028 -2.52,1.274 v 0.196 c 0.546,-0.21 0.882,-0.308 1.008,-0.308 0.294,0 0.42,0.21 0.42,0.658 v 6.342 c -0.028,0.882 -0.266,1.078 -1.33,1.092 z"
     id="text51"
     style="font-size:14px;font-family:Times, serif"
     aria-label="B:1" />
  <path
     id="polygon52"
     style="fill:none;stroke:#000000"
     d="m 383,187 v -53 h 32.25 v 53 z" />
  <path
     id="polygon53"
     style="fill:none;stroke:#000000"
     d="m 420.25,190 v -59 h 35.25 v 59 z" />
  <path
     d="m 433.134,165.284 c -0.63,-0.042 -0.77,-0.182 -1.26,-1.218 l -3.486,-7.952 h -0.28 l -2.912,6.874 c -0.896,2.044 -1.064,2.268 -1.736,2.296 v 0.266 h 2.772 v -0.266 c -0.672,0 -0.952,-0.168 -0.952,-0.574 0,-0.168 0.042,-0.364 0.112,-0.546 l 0.644,-1.638 h 3.668 l 0.574,1.344 c 0.168,0.378 0.266,0.742 0.266,0.938 0,0.35 -0.238,0.462 -0.98,0.476 v 0.266 h 3.57 z m -6.86,-3.332 1.61,-3.85 1.624,3.85 z m 16.982,-5.67 h -3.29 v 0.266 c 1.12,0.07 1.302,0.308 1.344,1.792 v 4.718 l -5.39,-6.776 h -2.394 v 0.266 c 0.602,0 0.798,0.112 1.358,0.77 v 6.174 c -0.028,1.484 -0.21,1.722 -1.358,1.792 v 0.266 h 3.29 v -0.266 c -1.078,-0.056 -1.288,-0.35 -1.316,-1.792 v -5.488 l 6.188,7.7 h 0.238 v -7.364 c 0.042,-1.456 0.224,-1.694 1.33,-1.792 z m 0.434,9.268 h 3.976 c 1.624,0 3.094,-0.462 3.962,-1.246 0.91,-0.826 1.428,-2.072 1.428,-3.43 0,-1.26 -0.406,-2.352 -1.19,-3.122 -0.952,-0.966 -2.478,-1.47 -4.396,-1.47 h -3.78 v 0.266 c 1.106,0.098 1.218,0.21 1.232,1.26 v 6.216 c -0.014,1.022 -0.182,1.19 -1.232,1.26 z m 2.66,-8.204 c 0,-0.434 0.14,-0.546 0.728,-0.546 1.218,0 2.114,0.224 2.786,0.7 1.092,0.756 1.666,1.96 1.666,3.472 0,1.652 -0.574,2.828 -1.708,3.486 -0.714,0.406 -1.526,0.574 -2.744,0.574 -0.56,0 -0.728,-0.126 -0.728,-0.574 z"
     id="text53"
     style="font-size:14px;font-family:Times, serif"
     aria-label="AND" />
  <path
     id="polygon54"
     style="fill:none;stroke:#000000"
     d="m 457.5,190 v -59 h 36.75 v 59 z" />
  <path
     id="polygon55"
     style="fill:none;stroke:#000000"
     d="m 463.5,184 v -47 h 24.75 v 47 z" />
  <path
     d="m 474.536,163.086 c -0.42,1.498 -0.896,1.876 -2.408,1.932 h -3.598 l 6.048,-8.526 v -0.21 h -7.364 l -0.28,2.394 h 0.364 c 0.238,-1.414 0.742,-1.82 2.352,-1.862 h 3.094 l -6.118,8.526 v 0.21 h 7.896 l 0.336,-2.464 z m 2.618,-3.962 c -0.42,0 -0.77,0.35 -0.77,0.798 0,0.406 0.35,0.756 0.756,0.756 0.434,0 0.798,-0.336 0.798,-0.756 0,-0.434 -0.364,-0.798 -0.784,-0.798 z m 0,5.026 c -0.42,0 -0.77,0.35 -0.77,0.798 0,0.406 0.35,0.756 0.756,0.756 0.434,0 0.798,-0.336 0.798,-0.756 0,-0.434 -0.364,-0.798 -0.784,-0.798 z m 3.64,1.4 h 3.864 v -0.21 c -1.078,0 -1.316,-0.154 -1.33,-0.826 v -8.4 l -0.112,-0.028 -2.52,1.274 v 0.196 c 0.546,-0.21 0.882,-0.308 1.008,-0.308 0.294,0 0.42,0.21 0.42,0.658 v 6.342 c -0.028,0.882 -0.266,1.078 -1.33,1.092 z"
     id="text55"
     style="font-size:14px;font-family:Times, serif"
     aria-label="Z:1" />
  <path
     id="polygon56"
     style="fill:none;stroke:#000000"
     d="m 460.5,187 v -53 h 30.75 v 53 z" />
  <path
     id="polygon57"
     style="fill:none;stroke:#000000"
     d="m 377,193 v -65 h 120.25 v 65 z" />
  <path
     fill="none"
     stroke="#000000"
     d="m 333,136.5 c 23.69,0 28.31,11.75 52,11.75"
     id="path57" />
  <path
     id="ellipse58"
     style="stroke:#000000"
     d="m 333,172.5 a 9,9 0 0 1 -9,9 9,9 0 0 1 -9,-9 9,9 0 0 1 9,-9 9,9 0 0 1 9,9 z" />
  <path
     d="m 322.152,177.55 h 3.864 v -0.21 c -1.078,0 -1.316,-0.154 -1.33,-0.826 v -8.4 l -0.112,-0.028 -2.52,1.274 v 0.196 c 0.546,-0.21 0.882,-0.308 1.008,-0.308 0.294,0 0.42,0.21 0.42,0.658 v 6.342 c -0.028,0.882 -0.266,1.078 -1.33,1.092 z"
     id="text58"
     style="font-size:14px;font-family:Times, serif;text-anchor:middle;fill:#ffffff"
     aria-label="1" />
  <path
     fill="none"
     stroke="#000000"
     d="m 333,172.5 c 47.69,0 9.56,-90.75 57.25,-90.75"
     id="path59" />
  <path
     fill="none"
     stroke="#000000"
     d="m 333,172.5 c 23.11,0 28.89,0.25 52,0.25"
     id="path60" />
  <path
     id="ellipse61"
     style="stroke:#000000"
     d="m 671.62,89.5 a 9,9 0 0 1 -9,9 9,9 0 0 1 -9,-9 9,9 0 0 1 9,-9 9,9 0 0 1 9,9 z" />
  <path
     d="m 660.772,94.55 h 3.864 v -0.21 c -1.078,0 -1.316,-0.154 -1.33,-0.826 v -8.399997 l -0.112,-0.028 -2.52,1.274 v 0.196 c 0.546,-0.21 0.882,-0.308 1.008,-0.308 0.294,0 0.42,0.21 0.42,0.658 V 93.248 c -0.028,0.882 -0.266,1.078 -1.33,1.092 z"
     id="text61"
     style="font-size:14px;font-family:Times, serif;text-anchor:middle;fill:#ffffff"
     aria-label="1" />
  <path
     id="polygon63"
     style="fill:#00ffff"
     d="m 828,181 v -65 h 120.25 v 65 z" />
  <path
     id="polygon64"
     style="fill:none;stroke:#000000"
     d="m 831,178 v -59 h 38.25 v 59 z" />
  <path
     id="polygon65"
     style="fill:none;stroke:#000000"
     d="M 837,147.5 V 125 h 26.25 v 22.5 z" />
  <path
     d="m 849.884,141.034 c -0.63,-0.042 -0.77,-0.182 -1.26,-1.218 l -3.486,-7.952 h -0.28 l -2.912,6.874 c -0.896,2.044 -1.064,2.268 -1.736,2.296 v 0.266 h 2.772 v -0.266 c -0.672,0 -0.952,-0.168 -0.952,-0.574 0,-0.168 0.042,-0.364 0.112,-0.546 l 0.644,-1.638 h 3.668 l 0.574,1.344 c 0.168,0.378 0.266,0.742 0.266,0.938 0,0.35 -0.238,0.462 -0.98,0.476 v 0.266 h 3.57 z m -6.86,-3.332 1.61,-3.85 1.624,3.85 z m 8.988,-2.828 c -0.42,0 -0.77,0.35 -0.77,0.798 0,0.406 0.35,0.756 0.756,0.756 0.434,0 0.798,-0.336 0.798,-0.756 0,-0.434 -0.364,-0.798 -0.784,-0.798 z m 0,5.026 c -0.42,0 -0.77,0.35 -0.77,0.798 0,0.406 0.35,0.756 0.756,0.756 0.434,0 0.798,-0.336 0.798,-0.756 0,-0.434 -0.364,-0.798 -0.784,-0.798 z m 3.64,1.4 h 3.864 v -0.21 c -1.078,0 -1.316,-0.154 -1.33,-0.826 v -8.4 l -0.112,-0.028 -2.52,1.274 v 0.196 c 0.546,-0.21 0.882,-0.308 1.008,-0.308 0.294,0 0.42,0.21 0.42,0.658 v 6.342 c -0.028,0.882 -0.266,1.078 -1.33,1.092 z"
     id="text65"
     style="font-size:14px;font-family:Times, serif"
     aria-label="A:1" />
  <path
     id="polygon66"
     style="fill:none;stroke:#000000"
     d="m 837,172 v -22.5 h 26.25 V 172 Z" />
  <path
     d="m 840.618,156.798 c 1.176,0.07 1.33,0.21 1.344,1.26 v 6.216 c -0.014,1.05 -0.196,1.218 -1.344,1.26 v 0.266 h 4.676 c 1.078,0 2.086,-0.294 2.604,-0.77 0.504,-0.448 0.784,-1.078 0.784,-1.75 0,-0.616 -0.238,-1.176 -0.686,-1.582 -0.42,-0.378 -0.798,-0.546 -1.708,-0.77 0.728,-0.182 1.022,-0.322 1.358,-0.616 0.35,-0.308 0.56,-0.812 0.56,-1.4 0,-1.568 -1.26,-2.38 -3.668,-2.38 h -3.92 z m 2.772,4.438 c 1.358,0 2.002,0.084 2.506,0.294 0.798,0.322 1.176,0.896 1.176,1.764 0,0.756 -0.294,1.302 -0.854,1.624 -0.448,0.252 -1.022,0.364 -1.946,0.364 -0.686,0 -0.882,-0.126 -0.882,-0.574 z m 0,-0.546 v -3.22 c 0.014,-0.308 0.07,-0.392 0.308,-0.406 l 0.616,-0.014 c 1.554,-0.042 2.464,0.672 2.464,1.918 0,1.106 -0.714,1.694 -2.058,1.708 z m 8.232,-1.316 c -0.42,0 -0.77,0.35 -0.77,0.798 0,0.406 0.35,0.756 0.756,0.756 0.434,0 0.798,-0.336 0.798,-0.756 0,-0.434 -0.364,-0.798 -0.784,-0.798 z m 0,5.026 c -0.42,0 -0.77,0.35 -0.77,0.798 0,0.406 0.35,0.756 0.756,0.756 0.434,0 0.798,-0.336 0.798,-0.756 0,-0.434 -0.364,-0.798 -0.784,-0.798 z m 3.64,1.4 h 3.864 v -0.21 c -1.078,0 -1.316,-0.154 -1.33,-0.826 v -8.4 l -0.112,-0.028 -2.52,1.274 v 0.196 c 0.546,-0.21 0.882,-0.308 1.008,-0.308 0.294,0 0.42,0.21 0.42,0.658 v 6.342 c -0.028,0.882 -0.266,1.078 -1.33,1.092 z"
     id="text66"
     style="font-size:14px;font-family:Times, serif"
     aria-label="B:1" />
  <path
     id="polygon67"
     style="fill:none;stroke:#000000"
     d="m 834,175 v -53 h 32.25 v 53 z" />
  <path
     id="polygon68"
     style="fill:none;stroke:#000000"
     d="m 871.25,178 v -59 h 35.25 v 59 z" />
  <path
     d="m 884.134,153.284 c -0.63,-0.042 -0.77,-0.182 -1.26,-1.218 l -3.486,-7.952 h -0.28 l -2.912,6.874 c -0.896,2.044 -1.064,2.268 -1.736,2.296 v 0.266 h 2.772 v -0.266 c -0.672,0 -0.952,-0.168 -0.952,-0.574 0,-0.168 0.042,-0.364 0.112,-0.546 l 0.644,-1.638 h 3.668 l 0.574,1.344 c 0.168,0.378 0.266,0.742 0.266,0.938 0,0.35 -0.238,0.462 -0.98,0.476 v 0.266 h 3.57 z m -6.86,-3.332 1.61,-3.85 1.624,3.85 z m 16.982,-5.67 h -3.29 v 0.266 c 1.12,0.07 1.302,0.308 1.344,1.792 v 4.718 l -5.39,-6.776 h -2.394 v 0.266 c 0.602,0 0.798,0.112 1.358,0.77 v 6.174 c -0.028,1.484 -0.21,1.722 -1.358,1.792 v 0.266 h 3.29 v -0.266 c -1.078,-0.056 -1.288,-0.35 -1.316,-1.792 v -5.488 l 6.188,7.7 h 0.238 v -7.364 c 0.042,-1.456 0.224,-1.694 1.33,-1.792 z m 0.434,9.268 h 3.976 c 1.624,0 3.094,-0.462 3.962,-1.246 0.91,-0.826 1.428,-2.072 1.428,-3.43 0,-1.26 -0.406,-2.352 -1.19,-3.122 -0.952,-0.966 -2.478,-1.47 -4.396,-1.47 h -3.78 v 0.266 c 1.106,0.098 1.218,0.21 1.232,1.26 v 6.216 c -0.014,1.022 -0.182,1.19 -1.232,1.26 z m 2.66,-8.204 c 0,-0.434 0.14,-0.546 0.728,-0.546 1.218,0 2.114,0.224 2.786,0.7 1.092,0.756 1.666,1.96 1.666,3.472 0,1.652 -0.574,2.828 -1.708,3.486 -0.714,0.406 -1.526,0.574 -2.744,0.574 -0.56,0 -0.728,-0.126 -0.728,-0.574 z"
     id="text68"
     style="font-size:14px;font-family:Times, serif"
     aria-label="AND" />
  <path
     id="polygon69"
     style="fill:none;stroke:#000000"
     d="m 908.5,178 v -59 h 36.75 v 59 z" />
  <path
     id="polygon70"
     style="fill:none;stroke:#000000"
     d="m 914.5,172 v -47 h 24.75 v 47 z" />
  <path
     d="m 925.536,151.086 c -0.42,1.498 -0.896,1.876 -2.408,1.932 h -3.598 l 6.048,-8.526 v -0.21 h -7.364 l -0.28,2.394 h 0.364 c 0.238,-1.414 0.742,-1.82 2.352,-1.862 h 3.094 l -6.118,8.526 v 0.21 h 7.896 l 0.336,-2.464 z m 2.618,-3.962 c -0.42,0 -0.77,0.35 -0.77,0.798 0,0.406 0.35,0.756 0.756,0.756 0.434,0 0.798,-0.336 0.798,-0.756 0,-0.434 -0.364,-0.798 -0.784,-0.798 z m 0,5.026 c -0.42,0 -0.77,0.35 -0.77,0.798 0,0.406 0.35,0.756 0.756,0.756 0.434,0 0.798,-0.336 0.798,-0.756 0,-0.434 -0.364,-0.798 -0.784,-0.798 z m 3.64,1.4 h 3.864 v -0.21 c -1.078,0 -1.316,-0.154 -1.33,-0.826 v -8.4 l -0.112,-0.028 -2.52,1.274 v 0.196 c 0.546,-0.21 0.882,-0.308 1.008,-0.308 0.294,0 0.42,0.21 0.42,0.658 v 6.342 c -0.028,0.882 -0.266,1.078 -1.33,1.092 z"
     id="text70"
     style="font-size:14px;font-family:Times, serif"
     aria-label="Z:1" />
  <path
     id="polygon71"
     style="fill:none;stroke:#000000"
     d="m 911.5,175 v -53 h 30.75 v 53 z" />
  <path
     id="polygon72"
     style="fill:none;stroke:#000000"
     d="m 828,181 v -65 h 120.25 v 65 z" />
  <path
     fill="none"
     stroke="#000000"
     d="m 673.08,89.5 c 75.33,0 87.59,46.75 162.92,46.75"
     id="path72" />
  <path
     id="ellipse73"
     style="stroke:#000000"
     d="m 559.25,160.5 a 9,9 0 0 1 -9,9 9,9 0 0 1 -9,-9 9,9 0 0 1 9,-9 9,9 0 0 1 9,9 z" />
  <path
     d="m 548.402,165.55 h 3.864 v -0.21 c -1.078,0 -1.316,-0.154 -1.33,-0.826 v -8.4 l -0.112,-0.028 -2.52,1.274 v 0.196 c 0.546,-0.21 0.882,-0.308 1.008,-0.308 0.294,0 0.42,0.21 0.42,0.658 v 6.342 c -0.028,0.882 -0.266,1.078 -1.33,1.092 z"
     id="text73"
     style="font-size:14px;font-family:Times, serif;text-anchor:middle;fill:#ffffff"
     aria-label="1" />
  <path
     id="polygon75"
     style="fill:#00ffff"
     d="m 603.25,180.75 v -40.5 H 722 v 40.5 z" />
  <path
     id="polygon76"
     style="fill:none;stroke:#000000"
     d="m 606.25,177.75 v -34.5 h 38.25 v 34.5 z" />
  <path
     id="polygon77"
     style="fill:none;stroke:#000000"
     d="m 612.25,171.75 v -22.5 h 26.25 v 22.5 z" />
  <path
     d="m 625.134,165.284 c -0.63,-0.042 -0.77,-0.182 -1.26,-1.218 l -3.486,-7.952 h -0.28 l -2.912,6.874 c -0.896,2.044 -1.064,2.268 -1.736,2.296 v 0.266 h 2.772 v -0.266 c -0.672,0 -0.952,-0.168 -0.952,-0.574 0,-0.168 0.042,-0.364 0.112,-0.546 l 0.644,-1.638 h 3.668 l 0.574,1.344 c 0.168,0.378 0.266,0.742 0.266,0.938 0,0.35 -0.238,0.462 -0.98,0.476 v 0.266 h 3.57 z m -6.86,-3.332 1.61,-3.85 1.624,3.85 z m 8.988,-2.828 c -0.42,0 -0.77,0.35 -0.77,0.798 0,0.406 0.35,0.756 0.756,0.756 0.434,0 0.798,-0.336 0.798,-0.756 0,-0.434 -0.364,-0.798 -0.784,-0.798 z m 0,5.026 c -0.42,0 -0.77,0.35 -0.77,0.798 0,0.406 0.35,0.756 0.756,0.756 0.434,0 0.798,-0.336 0.798,-0.756 0,-0.434 -0.364,-0.798 -0.784,-0.798 z m 3.64,1.4 h 3.864 v -0.21 c -1.078,0 -1.316,-0.154 -1.33,-0.826 v -8.4 l -0.112,-0.028 -2.52,1.274 v 0.196 c 0.546,-0.21 0.882,-0.308 1.008,-0.308 0.294,0 0.42,0.21 0.42,0.658 v 6.342 c -0.028,0.882 -0.266,1.078 -1.33,1.092 z"
     id="text77"
     style="font-size:14px;font-family:Times, serif"
     aria-label="A:1" />
  <path
     id="polygon78"
     style="fill:none;stroke:#000000"
     d="m 609.25,174.75 v -28.5 h 32.25 v 28.5 z" />
  <path
     id="polygon79"
     style="fill:none;stroke:#000000"
     d="m 646.5,177.75 v -34.5 h 33.75 v 34.5 z" />
  <path
     d="m 659.398,156.282 h -3.29 v 0.266 c 1.12,0.07 1.302,0.308 1.344,1.792 v 4.718 l -5.39,-6.776 h -2.394 v 0.266 c 0.602,0 0.798,0.112 1.358,0.77 v 6.174 c -0.028,1.484 -0.21,1.722 -1.358,1.792 v 0.266 h 3.29 v -0.266 c -1.078,-0.056 -1.288,-0.35 -1.316,-1.792 v -5.488 l 6.188,7.7 h 0.238 v -7.364 c 0.042,-1.456 0.224,-1.694 1.33,-1.792 z m 4.99801,-0.196 c -2.674,0 -4.578,2.002 -4.578,4.83 0,1.316 0.448,2.604 1.204,3.402 0.812,0.882 2.058,1.428 3.29,1.428 2.758,0 4.662,-1.946 4.662,-4.774 0,-1.386 -0.406,-2.59 -1.176,-3.416 -0.882,-0.966 -2.058,-1.47 -3.402,-1.47 z m 0,0.504 c 0.644,0 1.288,0.252 1.792,0.7 0.756,0.686 1.19,2.002 1.19,3.668 0,0.826 -0.168,1.792 -0.462,2.52 -0.126,0.35 -0.364,0.7 -0.686,1.022 -0.49,0.49 -1.12,0.742 -1.862,0.742 -0.644,0 -1.274,-0.252 -1.778,-0.686 -0.714,-0.644 -1.176,-2.058 -1.176,-3.612 0,-1.428 0.392,-2.786 0.98,-3.444 0.546,-0.602 1.232,-0.91 2.002,-0.91 z m 11.28401,8.694 c -1.148,-0.056 -1.33,-0.224 -1.344,-1.26 v -7.154 h 0.756 c 1.624,0.028 1.918,0.266 2.226,1.792 h 0.336 l -0.084,-2.38 h -7.896 l -0.084,2.38 h 0.336 c 0.322,-1.526 0.616,-1.764 2.226,-1.792 h 0.756 v 7 c -0.014,1.204 -0.14,1.344 -1.316,1.414 v 0.266 h 4.088 z"
     id="text79"
     style="font-size:14px;font-family:Times, serif"
     aria-label="NOT" />
  <path
     id="polygon80"
     style="fill:none;stroke:#000000"
     d="m 682.25,177.75 v -34.5 H 719 v 34.5 z" />
  <path
     id="polygon81"
     style="fill:none;stroke:#000000"
     d="m 688.25,171.75 v -22.5 H 713 v 22.5 z" />
  <path
     d="m 699.286,163.086 c -0.42,1.498 -0.896,1.876 -2.408,1.932 h -3.598 l 6.048,-8.526 v -0.21 h -7.364 l -0.28,2.394 h 0.364 c 0.238,-1.414 0.742,-1.82 2.352,-1.862 h 3.094 l -6.118,8.526 v 0.21 h 7.896 l 0.336,-2.464 z m 2.618,-3.962 c -0.42,0 -0.77,0.35 -0.77,0.798 0,0.406 0.35,0.756 0.756,0.756 0.434,0 0.798,-0.336 0.798,-0.756 0,-0.434 -0.364,-0.798 -0.784,-0.798 z m 0,5.026 c -0.42,0 -0.77,0.35 -0.77,0.798 0,0.406 0.35,0.756 0.756,0.756 0.434,0 0.798,-0.336 0.798,-0.756 0,-0.434 -0.364,-0.798 -0.784,-0.798 z m 3.64,1.4 h 3.864 v -0.21 c -1.078,0 -1.316,-0.154 -1.33,-0.826 v -8.4 l -0.112,-0.028 -2.52,1.274 v 0.196 c 0.546,-0.21 0.882,-0.308 1.008,-0.308 0.294,0 0.42,0.21 0.42,0.658 v 6.342 c -0.028,0.882 -0.266,1.078 -1.33,1.092 z"
     id="text81"
     style="font-size:14px;font-family:Times, serif"
     aria-label="Z:1" />
  <path
     id="polygon82"
     style="fill:none;stroke:#000000"
     d="m 685.25,174.75 v -28.5 H 716 v 28.5 z" />
  <path
     id="polygon83"
     style="fill:none;stroke:#000000"
     d="m 603.25,180.75 v -40.5 H 722 v 40.5 z" />
  <path
     fill="none"
     stroke="#000000"
     d="m 559.25,160.5 c 23.11,0 28.89,0 52,0"
     id="path83" />
  <path
     id="ellipse84"
     style="stroke:#000000"
     d="m 784,160.5 a 9,9 0 0 1 -9,9 9,9 0 0 1 -9,-9 9,9 0 0 1 9,-9 9,9 0 0 1 9,9 z" />
  <path
     d="m 773.152,165.55 h 3.864 v -0.21 c -1.078,0 -1.316,-0.154 -1.33,-0.826 v -8.4 l -0.112,-0.028 -2.52,1.274 v 0.196 c 0.546,-0.21 0.882,-0.308 1.008,-0.308 0.294,0 0.42,0.21 0.42,0.658 v 6.342 c -0.028,0.882 -0.266,1.078 -1.33,1.092 z"
     id="text84"
     style="font-size:14px;font-family:Times, serif;text-anchor:middle;fill:#ffffff"
     aria-label="1" />
  <path
     fill="none"
     stroke="#000000"
     d="m 784,160.5 c 23.11,0 28.89,0.25 52,0.25"
     id="path85" />
  <path
     id="ellipse86"
     style="stroke:#000000"
     d="m 1010.25,155.5 a 9,9 0 0 1 -9,9 9,9 0 0 1 -9,-9 9,9 0 0 1 9,-9 9,9 0 0 1 9,9 z" />
  <path
     d="m 999.402,160.55 h 3.864 v -0.21 c -1.078,0 -1.316,-0.154 -1.33,-0.826 v -8.4 l -0.112,-0.028 -2.52,1.274 v 0.196 c 0.546,-0.21 0.882,-0.308 1.008,-0.308 0.294,0 0.42,0.21 0.42,0.658 v 6.342 c -0.028,0.882 -0.266,1.078 -1.33,1.092 z"
     id="text86"
     style="font-size:14px;font-family:Times, serif;text-anchor:middle;fill:#ffffff"
     aria-label="1" />
  <path
     id="polygon88"
     style="fill:#808080"
     d="m 1054.25,181.75 v -40.5 H 1097 v 40.5 z" />
  <path
     id="polygon89"
     style="fill:none;stroke:#000000"
     d="m 1057.25,178.75 v -34.5 H 1094 v 34.5 z" />
  <path
     id="polygon90"
     style="fill:none;stroke:#000000"
     d="m 1063.25,172.75 v -22.5 H 1088 v 22.5 z" />
  <path
     d="m 1074.286,164.086 c -0.42,1.498 -0.896,1.876 -2.408,1.932 h -3.598 l 6.048,-8.526 v -0.21 h -7.364 l -0.28,2.394 h 0.364 c 0.238,-1.414 0.742,-1.82 2.352,-1.862 h 3.094 l -6.118,8.526 v 0.21 h 7.896 l 0.336,-2.464 z m 2.618,-3.962 c -0.42,0 -0.77,0.35 -0.77,0.798 0,0.406 0.35,0.756 0.756,0.756 0.434,0 0.798,-0.336 0.798,-0.756 0,-0.434 -0.364,-0.798 -0.784,-0.798 z m 0,5.026 c -0.42,0 -0.77,0.35 -0.77,0.798 0,0.406 0.35,0.756 0.756,0.756 0.434,0 0.798,-0.336 0.798,-0.756 0,-0.434 -0.364,-0.798 -0.784,-0.798 z m 3.64,1.4 h 3.864 v -0.21 c -1.078,0 -1.316,-0.154 -1.33,-0.826 v -8.4 l -0.112,-0.028 -2.52,1.274 v 0.196 c 0.546,-0.21 0.882,-0.308 1.008,-0.308 0.294,0 0.42,0.21 0.42,0.658 v 6.342 c -0.028,0.882 -0.266,1.078 -1.33,1.092 z"
     id="text90"
     style="font-size:14px;font-family:Times, serif"
     aria-label="Z:1" />
  <path
     id="polygon91"
     style="fill:none;stroke:#000000"
     d="m 1060.25,175.75 v -28.5 H 1091 v 28.5 z" />
  <path
     id="polygon92"
     style="fill:none;stroke:#000000"
     d="m 1054.25,181.75 v -40.5 H 1097 v 40.5 z" />
  <path
     fill="none"
     stroke="#000000"
     d="m 1010.25,155.5 c 23.26,0 28.74,6 52,6"
     id="path92" />
  <path
     fill="none"
     stroke="#000000"
     d="m 484,69.5 c 75.27,0 92.9,20 168.17,20"
     id="path93" />
  <path
     fill="none"
     stroke="#000000"
     d="m 489.25,160.5 c 23.11,0 28.89,0 52,0"
     id="path94" />
  <path
     fill="none"
     stroke="#000000"
     d="m 714,160.5 c 23.11,0 28.89,0 52,0"
     id="path95" />
  <path
     fill="none"
     stroke="#000000"
     d="m 940.25,148.5 c 23.32,0 28.68,7 52,7"
     id="path96" />
  <path
     fill="none"
     stroke="#000000"
     d="m 225,147.25 c 40.28,0 49.72,-10.75 90,-10.75"
     id="path97" />
  <path
     fill="none"
     stroke="#000000"
     d="m 225,171.75 c 40,0 50,0.75 90,0.75"
     id="path98" />
  <path
     fill="none"
     stroke="#000000"
     d="m 1089,161.5 c 24.31,0 27.69,17 52,17"
     id="path99" />
  <path
     fill="none"
     stroke="#000000"
     d="m 263,250.5 c 23.72,0 28.28,-12 52,-12"
     id="path100" />
  <path
     id="polygon102"
     style="fill:#808080"
     d="m 0.5,238 v -65 h 44.25 v 65 z" />
  <path
     id="polygon103"
     style="fill:none;stroke:#000000"
     d="m 3.5,235 v -59 h 38.25 v 59 z" />
  <path
     id="polygon104"
     style="fill:none;stroke:#000000"
     d="M 9.5,204.5 V 182 h 26.25 v 22.5 z" />
  <path
     d="m 22.384,198.034 c -0.63,-0.042 -0.77,-0.182 -1.26,-1.218 l -3.486,-7.952 h -0.28 l -2.912,6.874 c -0.896,2.044 -1.064,2.268 -1.736,2.296 v 0.266 h 2.772 v -0.266 c -0.672,0 -0.952,-0.168 -0.952,-0.574 0,-0.168 0.042,-0.364 0.112,-0.546 l 0.644,-1.638 h 3.668 l 0.574,1.344 c 0.168,0.378 0.266,0.742 0.266,0.938 0,0.35 -0.238,0.462 -0.98,0.476 v 0.266 h 3.57 z m -6.86,-3.332 1.61,-3.85 1.624,3.85 z m 8.988002,-2.828 c -0.42,0 -0.77,0.35 -0.77,0.798 0,0.406 0.35,0.756 0.756,0.756 0.434,0 0.798,-0.336 0.798,-0.756 0,-0.434 -0.364,-0.798 -0.784,-0.798 z m 0,5.026 c -0.42,0 -0.77,0.35 -0.77,0.798 0,0.406 0.35,0.756 0.756,0.756 0.434,0 0.798,-0.336 0.798,-0.756 0,-0.434 -0.364,-0.798 -0.784,-0.798 z m 3.639998,1.4 h 3.864 v -0.21 c -1.078,0 -1.316,-0.154 -1.33,-0.826 v -8.4 l -0.112,-0.028 -2.52,1.274 v 0.196 c 0.546,-0.21 0.882,-0.308 1.008,-0.308 0.294,0 0.42,0.21 0.42,0.658 v 6.342 c -0.028,0.882 -0.266,1.078 -1.33,1.092 z"
     id="text104"
     style="font-size:14px;font-family:Times, serif"
     aria-label="A:1" />
  <path
     id="polygon105"
     style="fill:none;stroke:#000000"
     d="M 9.5,229 V 206.5 H 35.75 V 229 Z" />
  <path
     d="m 13.117999,213.798 c 1.176,0.07 1.33,0.21 1.344,1.26 v 6.216 c -0.014,1.05 -0.196,1.218 -1.344,1.26 v 0.266 h 4.676 c 1.078,0 2.086,-0.294 2.604,-0.77 0.504,-0.448 0.784,-1.078 0.784,-1.75 0,-0.616 -0.238,-1.176 -0.686,-1.582 -0.42,-0.378 -0.798,-0.546 -1.708,-0.77 0.728,-0.182 1.022,-0.322 1.358,-0.616 0.35,-0.308 0.56,-0.812 0.56,-1.4 0,-1.568 -1.26,-2.38 -3.668,-2.38 h -3.92 z m 2.772,4.438 c 1.358,0 2.002,0.084 2.506,0.294 0.798,0.322 1.176,0.896 1.176,1.764 0,0.756 -0.294,1.302 -0.854,1.624 -0.448,0.252 -1.022,0.364 -1.946,0.364 -0.686,0 -0.882,-0.126 -0.882,-0.574 z m 0,-0.546 v -3.22 c 0.014,-0.308 0.07,-0.392 0.308,-0.406 l 0.616,-0.014 c 1.554,-0.042 2.464,0.672 2.464,1.918 0,1.106 -0.714,1.694 -2.058,1.708 z m 8.231998,-1.316 c -0.42,0 -0.77,0.35 -0.77,0.798 0,0.406 0.35,0.756 0.756,0.756 0.434,0 0.798,-0.336 0.798,-0.756 0,-0.434 -0.364,-0.798 -0.784,-0.798 z m 0,5.026 c -0.42,0 -0.77,0.35 -0.77,0.798 0,0.406 0.35,0.756 0.756,0.756 0.434,0 0.798,-0.336 0.798,-0.756 0,-0.434 -0.364,-0.798 -0.784,-0.798 z m 3.639998,1.4 h 3.864 v -0.21 c -1.078,0 -1.316,-0.154 -1.33,-0.826 v -8.4 l -0.112,-0.028 -2.52,1.274 v 0.196 c 0.546,-0.21 0.882,-0.308 1.008,-0.308 0.294,0 0.42,0.21 0.42,0.658 v 6.342 c -0.028,0.882 -0.266,1.078 -1.33,1.092 z"
     id="text105"
     style="font-size:14px;font-family:Times, serif"
     aria-label="B:1" />
  <path
     id="polygon106"
     style="fill:none;stroke:#000000"
     d="m 6.5,232 v -53 h 32.25 v 53 z" />
  <path
     id="polygon107"
     style="fill:none;stroke:#000000"
     d="m 0.5,238 v -65 h 44.25 v 65 z" />
  <path
     fill="none"
     stroke="#000000"
     d="m 36.75,193.25 c 23.25,0 28.75,-5.75 52,-5.75"
     id="path107" />
  <path
     fill="none"
     stroke="#000000"
     d="m 36.75,217.75 c 23.25,0 28.75,5.75 52,5.75"
     id="path108" />
</svg>
