<?xml version="1.0" encoding="UTF-8" standalone="no"?>
<!-- Generated by graphviz version 11.0.0 (0)
 -->

<!-- Title: SR NOR Latch Pages: 1 -->

<svg
   width="1555.8458pt"
   height="373.43225pt"
   viewBox="0 0 1555.6874 373.16165"
   version="1.1"
   id="svg164"
   sodipodi:docname="latch-mealy.svg"
   inkscape:version="1.3.2 (091e20ef0f, 2023-11-25, custom)"
   xmlns:inkscape="http://www.inkscape.org/namespaces/inkscape"
   xmlns:sodipodi="http://sodipodi.sourceforge.net/DTD/sodipodi-0.dtd"
   xmlns="http://www.w3.org/2000/svg"
   xmlns:svg="http://www.w3.org/2000/svg">
  <defs
     id="defs164" />
  <sodipodi:namedview
     id="namedview164"
     pagecolor="#ffffff"
     bordercolor="#000000"
     borderopacity="0.25"
     inkscape:showpageshadow="2"
     inkscape:pageopacity="0.0"
     inkscape:pagecheckerboard="0"
     inkscape:deskcolor="#d1d1d1"
     inkscape:document-units="pt"
     showgrid="false"
     inkscape:zoom="0.92292963"
     inkscape:cx="933.44061"
     inkscape:cy="271.96006"
     inkscape:window-width="1920"
     inkscape:window-height="1020"
     inkscape:window-x="0"
     inkscape:window-y="32"
     inkscape:window-maximized="1"
     inkscape:current-layer="svg164" />
  <path
     id="polygon2"
     style="fill:none;fill-opacity:0;stroke:#000000"
     d="m 298.68734,372.76531 v -262 H 1418.6873 v 262 z" />
  <path
     id="ellipse3"
     style="stroke:#000000"
     d="m 245.68734,104.76531 a 9,9 0 0 1 -9,9 9,9 0 0 1 -9,-9 9,9 0 0 1 9,-9.000001 9,9 0 0 1 9,9.000001 z" />
  <path
     d="m 234.83934,109.81529 h 3.864 v -0.21 c -1.078,0 -1.316,-0.154 -1.33,-0.826 v -8.4 l -0.112,-0.028 -2.52,1.274 v 0.196 c 0.546,-0.21 0.882,-0.308 1.008,-0.308 0.294,0 0.42,0.21 0.42,0.658 v 6.342 c -0.028,0.882 -0.266,1.078 -1.33,1.092 z"
     id="text3"
     style="font-size:14px;font-family:Times, serif;text-anchor:middle;fill:#ffffff"
     aria-label="1" />
  <path
     id="polygon5"
     style="fill:#ee82ee"
     d="m 289.68734,98.265309 v -65 h 88 v 65 z" />
  <path
     id="polygon6"
     style="fill:none;stroke:#000000"
     d="m 292.68734,95.265309 v -59 h 24.75 v 59 z" />
  <path
     id="polygon7"
     style="fill:none;stroke:#000000"
     d="m 298.68734,64.765309 v -22.5 h 12.75 v 22.5 z" />
  <path
     d="m 303.33934,58.565298 h 3.864 v -0.21 c -1.078,0 -1.316,-0.154 -1.33,-0.826 v -8.4 l -0.112,-0.028 -2.52,1.274 v 0.196 c 0.546,-0.21 0.882,-0.308 1.008,-0.308 0.294,0 0.42,0.21 0.42,0.658 v 6.342 c -0.028,0.882 -0.266,1.078 -1.33,1.092 z"
     id="text7"
     style="font-size:14px;font-family:Times, serif"
     aria-label="1" />
  <path
     id="polygon8"
     style="fill:none;stroke:#000000"
     d="m 298.68734,89.265309 v -22.5 h 12.75 v 22.5 z" />
  <path
     d="m 303.33934,83.065294 h 3.864 v -0.21 c -1.078,0 -1.316,-0.154 -1.33,-0.826 v -8.4 l -0.112,-0.028 -2.52,1.274 v 0.196 c 0.546,-0.21 0.882,-0.308 1.008,-0.308 0.294,0 0.42,0.21 0.42,0.658 v 6.342 c -0.028,0.882 -0.266,1.078 -1.33,1.092 z"
     id="text8"
     style="font-size:14px;font-family:Times, serif"
     aria-label="1" />
  <path
     id="polygon9"
     style="fill:none;stroke:#000000"
     d="m 295.68734,92.265309 v -53 h 18.75 v 53 z" />
  <path
     id="polygon10"
     style="fill:none;stroke:#000000"
     d="m 319.43734,95.265309 v -59 h 28.5 v 59 z" />
  <path
     d="m 322.87134,61.625299 3.598,8.82 h 1.232 l 3.626,-8.82 z m 4.214,7.392 -2.548,-6.37 h 5.11 z m 11.67599,3.276 v -0.7 h -6.958 v 0.7 z m 1.666,-1.848 h 3.864 v -0.21 c -1.078,0 -1.316,-0.154 -1.33,-0.826 v -8.4 l -0.112,-0.028 -2.52,1.274 v 0.196 c 0.546,-0.21 0.882,-0.308 1.008,-0.308 0.294,0 0.42,0.21 0.42,0.658 v 6.342 c -0.028,0.882 -0.266,1.078 -1.33,1.092 z"
     id="text10"
     style="font-size:14px;font-family:Times, serif"
     aria-label="∇_1" />
  <path
     id="polygon11"
     style="fill:none;stroke:#000000"
     d="m 349.93734,95.265309 v -59 h 24.75 v 59 z" />
  <path
     id="polygon12"
     style="fill:none;stroke:#000000"
     d="m 355.93734,89.265309 v -47 h 12.75 v 47 z" />
  <path
     d="m 360.58934,70.815294 h 3.864 v -0.21 c -1.078,0 -1.316,-0.154 -1.33,-0.826 v -8.4 l -0.112,-0.028 -2.52,1.274 v 0.196 c 0.546,-0.21 0.882,-0.308 1.008,-0.308 0.294,0 0.42,0.21 0.42,0.658 v 6.342 c -0.028,0.882 -0.266,1.078 -1.33,1.092 z"
     id="text12"
     style="font-size:14px;font-family:Times, serif"
     aria-label="1" />
  <path
     id="polygon13"
     style="fill:none;stroke:#000000"
     d="m 352.93734,92.265309 v -53 h 18.75 v 53 z" />
  <path
     id="polygon14"
     style="fill:none;stroke:#000000"
     d="m 289.68734,98.265309 v -65 h 88 v 65 z" />
  <path
     fill="none"
     stroke="#000000"
     d="m 245.68734,104.76531 c 25.99,0 26.01,-26.750001 52,-26.750001"
     id="path14" />
  <path
     id="ellipse15"
     style="stroke:#000000"
     d="m 245.68734,53.76531 a 9,9 0 0 1 -9,9 9,9 0 0 1 -9,-9 9,9 0 0 1 9,-9 9,9 0 0 1 9,9 z" />
  <path
     d="m 234.83934,58.815298 h 3.864 v -0.21 c -1.078,0 -1.316,-0.154 -1.33,-0.826 v -8.4 l -0.112,-0.028 -2.52,1.274 v 0.196 c 0.546,-0.21 0.882,-0.308 1.008,-0.308 0.294,0 0.42,0.21 0.42,0.658 v 6.342 c -0.028,0.882 -0.266,1.078 -1.33,1.092 z"
     id="text15"
     style="font-size:14px;font-family:Times, serif;text-anchor:middle;fill:#ffffff"
     aria-label="1" />
  <path
     fill="none"
     stroke="#000000"
     d="m 245.68734,53.765309 c 23.11,0 28.89,-0.25 52,-0.25"
     id="path16" />
  <path
     id="ellipse17"
     style="stroke:#000000"
     d="m 439.68734,79.765306 a 9,9 0 0 1 -9,9 9,9 0 0 1 -9,-9 9,9 0 0 1 9,-9 9,9 0 0 1 9,9 z" />
  <path
     d="m 428.83934,84.815294 h 3.864 v -0.21 c -1.078,0 -1.316,-0.154 -1.33,-0.826 v -8.4 l -0.112,-0.028 -2.52,1.274 v 0.196 c 0.546,-0.21 0.882,-0.308 1.008,-0.308 0.294,0 0.42,0.21 0.42,0.658 v 6.342 c -0.028,0.882 -0.266,1.078 -1.33,1.092 z"
     id="text17"
     style="font-size:14px;font-family:Times, serif;text-anchor:middle;fill:#ffffff"
     aria-label="1" />
  <path
     id="polygon18"
     style="fill:#ffffff"
     d="m 360.68734,157.01531 h -54 v 97.5 h 54 z" />
  <path
     id="polygon19"
     style="fill:#808080"
     d="m 318.30734,250.51531 v -89.5 h 30.75 v 89.5 z" />
  <path
     id="polygon20"
     style="fill:none;stroke:#000000"
     d="m 321.30734,247.51531 v -83.5 h 24.75 v 83.5 z" />
  <path
     id="polygon21"
     style="fill:none;stroke:#000000"
     d="m 327.30734,192.51531 v -22.5 h 12.75 v 22.5 z" />
  <path
     d="m 331.95933,186.31531 h 3.864 v -0.21 c -1.078,0 -1.316,-0.154 -1.33,-0.826 v -8.4 l -0.112,-0.028 -2.52,1.274 v 0.196 c 0.546,-0.21 0.882,-0.308 1.008,-0.308 0.294,0 0.42,0.21 0.42,0.658 v 6.342 c -0.028,0.882 -0.266,1.078 -1.33,1.092 z"
     id="text21"
     style="font-size:14px;font-family:Times, serif"
     aria-label="1" />
  <path
     id="polygon22"
     style="fill:none;stroke:#000000"
     d="m 327.30734,217.01531 v -22.5 h 12.75 v 22.5 z" />
  <path
     d="m 331.95933,210.81531 h 3.864 v -0.21 c -1.078,0 -1.316,-0.154 -1.33,-0.826 v -8.4 l -0.112,-0.028 -2.52,1.274 v 0.196 c 0.546,-0.21 0.882,-0.308 1.008,-0.308 0.294,0 0.42,0.21 0.42,0.658 v 6.342 c -0.028,0.882 -0.266,1.078 -1.33,1.092 z"
     id="text22"
     style="font-size:14px;font-family:Times, serif"
     aria-label="1" />
  <path
     id="polygon23"
     style="fill:none;stroke:#000000"
     d="m 327.30734,241.51531 v -22.5 h 12.75 v 22.5 z" />
  <path
     d="m 331.95933,235.31531 h 3.864 v -0.21 c -1.078,0 -1.316,-0.154 -1.33,-0.826 v -8.4 l -0.112,-0.028 -2.52,1.274 v 0.196 c 0.546,-0.21 0.882,-0.308 1.008,-0.308 0.294,0 0.42,0.21 0.42,0.658 v 6.342 c -0.028,0.882 -0.266,1.078 -1.33,1.092 z"
     id="text23"
     style="font-size:14px;font-family:Times, serif"
     aria-label="1" />
  <path
     id="polygon24"
     style="fill:none;stroke:#000000"
     d="m 324.30734,244.51531 v -77.5 h 18.75 v 77.5 z" />
  <path
     id="polygon25"
     style="fill:none;stroke:#000000"
     d="m 318.30734,250.51531 v -89.5 h 30.75 v 89.5 z" />
  <path
     fill="none"
     stroke="#000000"
     d="m 441.14734,79.765309 c 16.72,0 26.66,-29.54 -19.46,-9 -21.85,9.73 -18.57,23.63 -36,40.000001 -24.13,22.66 -43.36,16.75 -58.38,46.25 -4.89,9.61 -11.78,24.25 -1,24.25"
     id="path25" />
  <path
     id="ellipse26"
     style="stroke:#000000"
     d="m 245.68734,199.76531 a 9,9 0 0 1 -9,9 9,9 0 0 1 -9,-9 9,9 0 0 1 9,-9 9,9 0 0 1 9,9 z" />
  <path
     d="m 234.83934,204.81531 h 3.864 v -0.21 c -1.078,0 -1.316,-0.154 -1.33,-0.826 v -8.4 l -0.112,-0.028 -2.52,1.274 v 0.196 c 0.546,-0.21 0.882,-0.308 1.008,-0.308 0.294,0 0.42,0.21 0.42,0.658 v 6.342 c -0.028,0.882 -0.266,1.078 -1.33,1.092 z"
     id="text26"
     style="font-size:14px;font-family:Times, serif;text-anchor:middle;fill:#ffffff"
     aria-label="1" />
  <path
     fill="none"
     stroke="#000000"
     d="m 245.68734,199.76531 c 35.93,0 44.69,6 80.62,6"
     id="path27" />
  <path
     id="ellipse28"
     style="stroke:#000000"
     d="m 245.68734,235.76531 a 9,9 0 0 1 -9,9 9,9 0 0 1 -9,-9 9,9 0 0 1 9,-9 9,9 0 0 1 9,9 z" />
  <path
     d="m 234.83934,240.81531 h 3.864 v -0.21 c -1.078,0 -1.316,-0.154 -1.33,-0.826 v -8.4 l -0.112,-0.028 -2.52,1.274 v 0.196 c 0.546,-0.21 0.882,-0.308 1.008,-0.308 0.294,0 0.42,0.21 0.42,0.658 v 6.342 c -0.028,0.882 -0.266,1.078 -1.33,1.092 z"
     id="text28"
     style="font-size:14px;font-family:Times, serif;text-anchor:middle;fill:#ffffff"
     aria-label="1" />
  <path
     fill="none"
     stroke="#000000"
     d="m 245.68734,235.76531 c 35.91,0 44.71,-5.5 80.62,-5.5"
     id="path29" />
  <path
     id="ellipse30"
     style="stroke:#000000"
     d="m 31.437336,60.765306 a 9,9 0 0 1 -9,9 9,9 0 0 1 -9,-9 9,9 0 0 1 9,-9 9,9 0 0 1 9,9 z" />
  <path
     d="m 20.589336,65.815294 h 3.864 v -0.21 c -1.078,0 -1.316,-0.154 -1.33,-0.826 v -8.4 l -0.112,-0.028 -2.52,1.274 v 0.196 c 0.546,-0.21 0.882,-0.308 1.008,-0.308 0.294,0 0.42,0.21 0.42,0.658 v 6.342 c -0.028,0.882 -0.266,1.078 -1.33,1.092 z"
     id="text30"
     style="font-size:14px;font-family:Times, serif;text-anchor:middle;fill:#ffffff"
     aria-label="1" />
  <path
     id="polygon32"
     style="fill:#ffff00"
     d="M 75.437336,140.01531 V 99.515309 H 183.68734 v 40.500001 z" />
  <path
     id="polygon33"
     style="fill:none;stroke:#000000"
     d="m 78.437336,137.01531 v -34.5 h 24.750004 v 34.5 z" />
  <path
     id="polygon34"
     style="fill:none;stroke:#000000"
     d="m 84.437336,131.01531 v -22.5 h 12.75 v 22.5 z" />
  <path
     d="m 89.089332,124.81529 h 3.864 v -0.21 c -1.078,0 -1.316,-0.154 -1.33,-0.826 v -8.4 l -0.112,-0.028 -2.52,1.274 v 0.196 c 0.546,-0.21 0.882,-0.308 1.008,-0.308 0.294,0 0.42,0.21 0.42,0.658 v 6.342 c -0.028,0.882 -0.266,1.078 -1.33,1.092 z"
     id="text34"
     style="font-size:14px;font-family:Times, serif"
     aria-label="1" />
  <path
     id="polygon35"
     style="fill:none;stroke:#000000"
     d="m 81.437336,134.01531 v -28.5 h 18.750004 v 28.5 z" />
  <path
     id="polygon36"
     style="fill:none;stroke:#000000"
     d="m 105.18734,137.01531 v -34.5 h 48.75 v 34.5 z" />
  <path
     d="m 115.06134,124.00329 c -0.182,0.014 -0.266,0.014 -0.322,0.014 -0.49,0 -0.616,-0.154 -0.616,-0.798 v -7.938 l -0.07,-0.028 c -0.658,0.224 -1.134,0.378 -2.058,0.616 v 0.224 c 0.112,-0.014 0.182,-0.014 0.308,-0.014 0.518,0 0.644,0.14 0.644,0.714 v 2.184 c -0.532,-0.448 -0.91,-0.602 -1.47,-0.602 -1.61,0 -2.912,1.582 -2.912,3.57 0,1.792 1.036,3.01 2.59,3.01 0.784,0 1.316,-0.28 1.792,-0.938 v 0.896 l 0.056,0.042 2.058,-0.728 z m -2.114,-0.616 c 0,0.098 -0.098,0.266 -0.238,0.42 -0.238,0.28 -0.602,0.42 -1.008,0.42 -1.176,0 -1.932,-1.12 -1.932,-2.856 0,-1.568 0.686,-2.604 1.75,-2.604 0.756,0 1.428,0.658 1.428,1.4 z m 7.952,-0.868 c -0.672,1.064 -1.274,1.47 -2.17,1.47 -0.798,0 -1.4,-0.406 -1.806,-1.204 -0.252,-0.532 -0.35,-0.98 -0.378,-1.848 h 4.312 c -0.112,-0.91 -0.252,-1.316 -0.602,-1.764 -0.42,-0.504 -1.064,-0.798 -1.792,-0.798 -0.7,0 -1.358,0.252 -1.89,0.728 -0.658,0.574 -1.036,1.568 -1.036,2.716 0,1.932 1.008,3.136 2.618,3.136 1.33,0 2.38,-0.826 2.968,-2.338 z m -4.326,-2.03 c 0.154,-1.092 0.63,-1.61 1.484,-1.61 0.854,0 1.19,0.392 1.372,1.61 z m 4.81601,4.326 h 3.304 v -0.21 c -0.882,-0.042 -1.036,-0.182 -1.05,-0.966 v -8.358 l -0.056,-0.028 c -0.714,0.224 -1.232,0.378 -2.226,0.616 v 0.224 h 0.084 c 0.154,-0.014 0.322,-0.028 0.434,-0.028 0.448,0 0.588,0.196 0.588,0.854 v 6.678 c -0.014,0.756 -0.21,0.952 -1.078,1.008 z m 9.786,-0.924 c -0.238,0.196 -0.406,0.266 -0.616,0.266 -0.322,0 -0.42,-0.196 -0.42,-0.812 v -2.73 c 0,-0.728 -0.07,-1.134 -0.28,-1.47 -0.308,-0.504 -0.91,-0.77 -1.736,-0.77 -1.316,0 -2.352,0.686 -2.352,1.568 0,0.322 0.266,0.602 0.602,0.602 0.336,0 0.63,-0.28 0.63,-0.588 0,-0.056 -0.014,-0.126 -0.028,-0.224 -0.028,-0.126 -0.042,-0.238 -0.042,-0.336 0,-0.378 0.448,-0.686 1.008,-0.686 0.686,0 1.064,0.406 1.064,1.162 v 0.854 c -2.142,0.854 -2.394,0.98 -2.996,1.512 -0.308,0.28 -0.504,0.756 -0.504,1.218 0,0.882 0.616,1.498 1.47,1.498 0.616,0 1.19,-0.294 2.044,-1.022 0.07,0.742 0.322,1.022 0.896,1.022 0.476,0 0.77,-0.168 1.26,-0.7 z m -2.17,-0.798 c 0,0.42 -0.07,0.574 -0.364,0.742 -0.35,0.196 -0.728,0.308 -1.022,0.308 -0.49,0 -0.882,-0.476 -0.882,-1.078 v -0.056 c 0.014,-0.84 0.63,-1.372 2.268,-1.946 z m 8.30201,-4.578 h -1.89 v 0.21 c 0.448,0 0.672,0.126 0.672,0.35 0,0.056 -0.014,0.14 -0.056,0.238 l -1.358,3.864 -1.61,-3.542 c -0.084,-0.196 -0.14,-0.392 -0.14,-0.532 0,-0.252 0.21,-0.35 0.812,-0.378 v -0.21 h -2.884 v 0.196 c 0.364,0.056 0.602,0.21 0.714,0.448 l 1.596,3.444 c 0.168,0.378 0.182,0.392 0.252,0.532 0.392,0.7 0.616,1.218 0.616,1.428 0,0.224 -0.322,1.078 -0.56,1.512 -0.21,0.35 -0.504,0.616 -0.7,0.616 -0.084,0 -0.21,-0.028 -0.364,-0.098 -0.252,-0.098 -0.504,-0.154 -0.728,-0.154 -0.336,0 -0.602,0.266 -0.602,0.616 0,0.462 0.434,0.812 1.036,0.812 0.952,0 1.596,-0.77 2.366,-2.8 l 2.156,-5.712 c 0.182,-0.448 0.336,-0.588 0.672,-0.63 z m 7.336,8.148 v -0.7 h -6.958 v 0.7 z m 1.666,-1.848 h 3.864 v -0.21 c -1.078,0 -1.316,-0.154 -1.33,-0.826 v -8.4 l -0.112,-0.028 -2.52,1.274 v 0.196 c 0.546,-0.21 0.882,-0.308 1.008,-0.308 0.294,0 0.42,0.21 0.42,0.658 v 6.342 c -0.028,0.882 -0.266,1.078 -1.33,1.092 z"
     id="text36"
     style="font-size:14px;font-family:Times, serif"
     aria-label="delay_1" />
  <path
     id="polygon37"
     style="fill:none;stroke:#000000"
     d="m 155.93734,137.01531 v -34.5 h 24.75 v 34.5 z" />
  <path
     id="polygon38"
     style="fill:none;stroke:#000000"
     d="m 161.93734,131.01531 v -22.5 h 12.75 v 22.5 z" />
  <path
     d="m 166.58934,124.81529 h 3.864 v -0.21 c -1.078,0 -1.316,-0.154 -1.33,-0.826 v -8.4 l -0.112,-0.028 -2.52,1.274 v 0.196 c 0.546,-0.21 0.882,-0.308 1.008,-0.308 0.294,0 0.42,0.21 0.42,0.658 v 6.342 c -0.028,0.882 -0.266,1.078 -1.33,1.092 z"
     id="text38"
     style="font-size:14px;font-family:Times, serif"
     aria-label="1" />
  <path
     id="polygon39"
     style="fill:none;stroke:#000000"
     d="m 158.93734,134.01531 v -28.5 h 18.75 v 28.5 z" />
  <path
     id="polygon40"
     style="fill:none;stroke:#000000"
     d="M 75.437336,140.01531 V 99.515309 H 183.68734 v 40.500001 z" />
  <path
     fill="none"
     stroke="#000000"
     d="m 31.437336,60.765309 c 34.95,0 17.04,59.000001 52,59.000001"
     id="path40" />
  <path
     id="ellipse41"
     style="stroke:#000000"
     d="m 1464.6873,224.76531 a 9,9 0 0 1 -9,9 9,9 0 0 1 -9,-9 9,9 0 0 1 9,-9 9,9 0 0 1 9,9 z" />
  <path
     d="m 1453.8393,229.81531 h 3.864 v -0.21 c -1.078,0 -1.316,-0.154 -1.33,-0.826 v -8.4 l -0.112,-0.028 -2.52,1.274 v 0.196 c 0.546,-0.21 0.882,-0.308 1.008,-0.308 0.294,0 0.42,0.21 0.42,0.658 v 6.342 c -0.028,0.882 -0.266,1.078 -1.33,1.092 z"
     id="text41"
     style="font-size:14px;font-family:Times, serif;text-anchor:middle;fill:#ffffff"
     aria-label="1" />
  <path
     id="polygon43"
     style="fill:#808080"
     d="m 1508.6873,275.26531 v -65 h 46.5 v 65 z" />
  <path
     id="polygon44"
     style="fill:none;stroke:#000000"
     d="m 1511.6873,272.26531 v -59 h 40.5 v 59 z" />
  <path
     id="polygon45"
     style="fill:none;stroke:#000000"
     d="m 1517.6873,241.76531 v -22.5 h 28.5 v 22.5 z" />
  <path
     d="m 1531.6213,237.79131 c -1.596,-0.042 -2.716,-0.658 -3.85,-2.128 0.952,-0.182 1.456,-0.42 2.1,-0.98 1.036,-0.924 1.568,-2.198 1.568,-3.752 0,-2.814 -1.904,-4.83 -4.578,-4.83 -2.674,0 -4.578,2.016 -4.578,4.858 0,1.372 0.42,2.52 1.246,3.416 0.546,0.588 0.994,0.868 1.988,1.204 l 0.658,0.77 c 0.952,1.12 2.646,1.708 4.886,1.708 0.154,0 0.336,0 0.476,-0.014 h 0.084 z m -4.718,-11.186 c 0.602,0 1.246,0.266 1.736,0.7 0.756,0.672 1.204,2.016 1.204,3.598 0,1.386 -0.406,2.814 -0.966,3.458 -0.518,0.574 -1.246,0.896 -2.016,0.896 -0.672,0 -1.288,-0.238 -1.806,-0.686 -0.728,-0.658 -1.176,-2.044 -1.176,-3.696 0,-1.358 0.406,-2.716 0.98,-3.36 0.574,-0.616 1.232,-0.91 2.044,-0.91 z m 6.916,2.534 c -0.42,0 -0.77,0.35 -0.77,0.798 0,0.406 0.35,0.756 0.756,0.756 0.434,0 0.798,-0.336 0.798,-0.756 0,-0.434 -0.364,-0.798 -0.784,-0.798 z m 0,5.026 c -0.42,0 -0.77,0.35 -0.77,0.798 0,0.406 0.35,0.756 0.756,0.756 0.434,0 0.798,-0.336 0.798,-0.756 0,-0.434 -0.364,-0.798 -0.784,-0.798 z m 3.64,1.4 h 3.864 v -0.21 c -1.078,0 -1.316,-0.154 -1.33,-0.826 v -8.4 l -0.112,-0.028 -2.52,1.274 v 0.196 c 0.546,-0.21 0.882,-0.308 1.008,-0.308 0.294,0 0.42,0.21 0.42,0.658 v 6.342 c -0.028,0.882 -0.266,1.078 -1.33,1.092 z"
     id="text45"
     style="font-size:14px;font-family:Times, serif"
     aria-label="Q:1" />
  <path
     id="polygon46"
     style="fill:none;stroke:#000000"
     d="m 1517.6873,266.26531 v -22.5 h 28.5 v 22.5 z" />
  <path
     d="m 1530.5013,262.29131 c -1.596,-0.042 -2.716,-0.658 -3.85,-2.128 0.952,-0.182 1.456,-0.42 2.1,-0.98 1.036,-0.924 1.568,-2.198 1.568,-3.752 0,-2.814 -1.904,-4.83 -4.578,-4.83 -2.674,0 -4.578,2.016 -4.578,4.858 0,1.372 0.42,2.52 1.246,3.416 0.546,0.588 0.994,0.868 1.988,1.204 l 0.658,0.77 c 0.952,1.12 2.646,1.708 4.886,1.708 0.154,0 0.336,0 0.476,-0.014 h 0.084 z m -4.718,-11.186 c 0.602,0 1.246,0.266 1.736,0.7 0.756,0.672 1.204,2.016 1.204,3.598 0,1.386 -0.406,2.814 -0.966,3.458 -0.518,0.574 -1.246,0.896 -2.016,0.896 -0.672,0 -1.288,-0.238 -1.806,-0.686 -0.728,-0.658 -1.176,-2.044 -1.176,-3.696 0,-1.358 0.406,-2.716 0.98,-3.36 0.574,-0.616 1.232,-0.91 2.044,-0.91 z m 6.426,2.926 c 0.042,-0.252 0.07,-0.434 0.098,-0.56 0.224,-1.064 0.35,-1.904 0.35,-2.31 0,-0.308 -0.266,-0.56 -0.588,-0.56 -0.336,0 -0.602,0.252 -0.602,0.574 0,0.238 0.196,1.498 0.448,2.856 z m 3.01,-0.392 c -0.42,0 -0.77,0.35 -0.77,0.798 0,0.406 0.35,0.756 0.756,0.756 0.434,0 0.798,-0.336 0.798,-0.756 0,-0.434 -0.364,-0.798 -0.784,-0.798 z m 0,5.026 c -0.42,0 -0.77,0.35 -0.77,0.798 0,0.406 0.35,0.756 0.756,0.756 0.434,0 0.798,-0.336 0.798,-0.756 0,-0.434 -0.364,-0.798 -0.784,-0.798 z m 3.64,1.4 h 3.864 v -0.21 c -1.078,0 -1.316,-0.154 -1.33,-0.826 v -8.4 l -0.112,-0.028 -2.52,1.274 v 0.196 c 0.546,-0.21 0.882,-0.308 1.008,-0.308 0.294,0 0.42,0.21 0.42,0.658 v 6.342 c -0.028,0.882 -0.266,1.078 -1.33,1.092 z"
     id="text46"
     style="font-size:14px;font-family:Times, serif"
     aria-label="Q':1" />
  <path
     id="polygon47"
     style="fill:none;stroke:#000000"
     d="m 1514.6873,269.26531 v -53 h 34.5 v 53 z" />
  <path
     id="polygon48"
     style="fill:none;stroke:#000000"
     d="m 1508.6873,275.26531 v -65 h 46.5 v 65 z" />
  <path
     fill="none"
     stroke="#000000"
     d="m 1464.6873,224.76531 c 23.25,0 28.75,5.75 52,5.75"
     id="path48" />
  <path
     id="ellipse49"
     style="stroke:#000000"
     d="m 1464.6873,260.76532 a 9,9 0 0 1 -9,9 9,9 0 0 1 -9,-9 9,9 0 0 1 9,-9 9,9 0 0 1 9,9 z" />
  <path
     d="m 1453.8393,265.81531 h 3.864 v -0.21 c -1.078,0 -1.316,-0.154 -1.33,-0.826 v -8.4 l -0.112,-0.028 -2.52,1.274 v 0.196 c 0.546,-0.21 0.882,-0.308 1.008,-0.308 0.294,0 0.42,0.21 0.42,0.658 v 6.342 c -0.028,0.882 -0.266,1.078 -1.33,1.092 z"
     id="text49"
     style="font-size:14px;font-family:Times, serif;text-anchor:middle;fill:#ffffff"
     aria-label="1" />
  <path
     fill="none"
     stroke="#000000"
     d="m 1464.6873,260.76531 c 23.25,0 28.75,-5.75 52,-5.75"
     id="path50" />
  <path
     id="ellipse51"
     style="stroke:#000000"
     d="m 880.18737,199.76531 a 9,9 0 0 1 -9,9 9,9 0 0 1 -9,-9 9,9 0 0 1 9,-9 9,9 0 0 1 9,9 z" />
  <path
     d="m 869.33937,204.81531 h 3.864 v -0.21 c -1.078,0 -1.316,-0.154 -1.33,-0.826 v -8.4 l -0.112,-0.028 -2.52,1.274 v 0.196 c 0.546,-0.21 0.882,-0.308 1.008,-0.308 0.294,0 0.42,0.21 0.42,0.658 v 6.342 c -0.028,0.882 -0.266,1.078 -1.33,1.092 z"
     id="text51"
     style="font-size:14px;font-family:Times, serif;text-anchor:middle;fill:#ffffff"
     aria-label="1" />
  <path
     id="polygon53"
     style="fill:#00ffff"
     d="m 924.18734,212.26531 v -65 h 109.74996 v 65 z" />
  <path
     id="polygon54"
     style="fill:none;stroke:#000000"
     d="m 927.18734,209.26531 v -59 h 38.25 v 59 z" />
  <path
     id="polygon55"
     style="fill:none;stroke:#000000"
     d="m 933.18734,178.76531 v -22.5 h 26.25 v 22.5 z" />
  <path
     d="m 946.07137,172.29931 c -0.63,-0.042 -0.77,-0.182 -1.26,-1.218 l -3.486,-7.952 h -0.28 l -2.912,6.874 c -0.896,2.044 -1.064,2.268 -1.736,2.296 v 0.266 h 2.772 v -0.266 c -0.672,0 -0.952,-0.168 -0.952,-0.574 0,-0.168 0.042,-0.364 0.112,-0.546 l 0.644,-1.638 h 3.668 l 0.574,1.344 c 0.168,0.378 0.266,0.742 0.266,0.938 0,0.35 -0.238,0.462 -0.98,0.476 v 0.266 h 3.57 z m -6.86,-3.332 1.61,-3.85 1.624,3.85 z m 8.988,-2.828 c -0.42,0 -0.77,0.35 -0.77,0.798 0,0.406 0.35,0.756 0.756,0.756 0.434,0 0.798,-0.336 0.798,-0.756 0,-0.434 -0.364,-0.798 -0.784,-0.798 z m 0,5.026 c -0.42,0 -0.77,0.35 -0.77,0.798 0,0.406 0.35,0.756 0.756,0.756 0.434,0 0.798,-0.336 0.798,-0.756 0,-0.434 -0.364,-0.798 -0.784,-0.798 z m 3.64,1.4 h 3.864 v -0.21 c -1.078,0 -1.316,-0.154 -1.33,-0.826 v -8.4 l -0.112,-0.028 -2.52,1.274 v 0.196 c 0.546,-0.21 0.882,-0.308 1.008,-0.308 0.294,0 0.42,0.21 0.42,0.658 v 6.342 c -0.028,0.882 -0.266,1.078 -1.33,1.092 z"
     id="text55"
     style="font-size:14px;font-family:Times, serif"
     aria-label="A:1" />
  <path
     id="polygon56"
     style="fill:none;stroke:#000000"
     d="m 933.18734,203.26531 v -22.5 h 26.25 v 22.5 z" />
  <path
     d="m 936.79536,188.06331 c 1.176,0.07 1.33,0.21 1.344,1.26 v 6.216 c -0.014,1.05 -0.196,1.218 -1.344,1.26 v 0.266 h 4.676 c 1.078,0 2.086,-0.294 2.604,-0.77 0.504,-0.448 0.784,-1.078 0.784,-1.75 0,-0.616 -0.238,-1.176 -0.686,-1.582 -0.42,-0.378 -0.798,-0.546 -1.708,-0.77 0.728,-0.182 1.022,-0.322 1.358,-0.616 0.35,-0.308 0.56,-0.812 0.56,-1.4 0,-1.568 -1.26,-2.38 -3.668,-2.38 h -3.92 z m 2.772,4.438 c 1.358,0 2.002,0.084 2.506,0.294 0.798,0.322 1.176,0.896 1.176,1.764 0,0.756 -0.294,1.302 -0.854,1.624 -0.448,0.252 -1.022,0.364 -1.946,0.364 -0.686,0 -0.882,-0.126 -0.882,-0.574 z m 0,-0.546 v -3.22 c 0.014,-0.308 0.07,-0.392 0.308,-0.406 l 0.616,-0.014 c 1.554,-0.042 2.464,0.672 2.464,1.918 0,1.106 -0.714,1.694 -2.058,1.708 z m 8.232,-1.316 c -0.42,0 -0.77,0.35 -0.77,0.798 0,0.406 0.35,0.756 0.756,0.756 0.434,0 0.798,-0.336 0.798,-0.756 0,-0.434 -0.364,-0.798 -0.784,-0.798 z m 0,5.026 c -0.42,0 -0.77,0.35 -0.77,0.798 0,0.406 0.35,0.756 0.756,0.756 0.434,0 0.798,-0.336 0.798,-0.756 0,-0.434 -0.364,-0.798 -0.784,-0.798 z m 3.64,1.4 h 3.864 v -0.21 c -1.078,0 -1.316,-0.154 -1.33,-0.826 v -8.4 l -0.112,-0.028 -2.52,1.274 v 0.196 c 0.546,-0.21 0.882,-0.308 1.008,-0.308 0.294,0 0.42,0.21 0.42,0.658 v 6.342 c -0.028,0.882 -0.266,1.078 -1.33,1.092 z"
     id="text56"
     style="font-size:14px;font-family:Times, serif"
     aria-label="B:1" />
  <path
     id="polygon57"
     style="fill:none;stroke:#000000"
     d="m 930.18734,206.26531 v -53 h 32.25 v 53 z" />
  <path
     id="polygon58"
     style="fill:none;stroke:#000000"
     d="m 967.43734,209.26531 v -59 h 24.75 v 59 z" />
  <path
     d="m 975.49137,175.35131 c -2.674,0 -4.578,2.002 -4.578,4.83 0,1.316 0.448,2.604 1.204,3.402 0.812,0.882 2.058,1.428 3.29,1.428 2.758,0 4.662,-1.946 4.662,-4.774 0,-1.386 -0.406,-2.59 -1.176,-3.416 -0.882,-0.966 -2.058,-1.47 -3.402,-1.47 z m 0,0.504 c 0.644,0 1.288,0.252 1.792,0.7 0.756,0.686 1.19,2.002 1.19,3.668 0,0.826 -0.168,1.792 -0.462,2.52 -0.126,0.35 -0.364,0.7 -0.686,1.022 -0.49,0.49 -1.12,0.742 -1.862,0.742 -0.644,0 -1.274,-0.252 -1.778,-0.686 -0.714,-0.644 -1.176,-2.058 -1.176,-3.612 0,-1.428 0.392,-2.786 0.98,-3.444 0.546,-0.602 1.232,-0.91 2.002,-0.91 z m 14.28,8.694 c -0.532,-0.042 -0.812,-0.182 -1.218,-0.658 l -2.884,-3.542 c 1.778,-0.35 2.534,-1.05 2.534,-2.338 0,-0.602 -0.182,-1.12 -0.546,-1.526 -0.532,-0.574 -1.708,-0.938 -3.01,-0.938 h -3.864 v 0.266 c 1.036,0.112 1.176,0.238 1.19,1.26 v 6.062 c -0.014,1.19 -0.14,1.33 -1.19,1.414 v 0.266 h 3.878 v -0.266 c -1.078,-0.07 -1.246,-0.238 -1.26,-1.26 v -2.758 l 0.784,-0.028 3.332,4.312 h 2.254 z m -6.37,-7.98 c 0,-0.392 0.154,-0.504 0.714,-0.504 1.75,0 2.562,0.602 2.562,1.918 0,0.7 -0.294,1.288 -0.798,1.554 -0.644,0.364 -1.134,0.448 -2.478,0.476 z"
     id="text58"
     style="font-size:14px;font-family:Times, serif"
     aria-label="OR" />
  <path
     id="polygon59"
     style="fill:none;stroke:#000000"
     d="m 994.18734,209.26531 v -59 h 36.74996 v 59 z" />
  <path
     id="polygon60"
     style="fill:none;stroke:#000000"
     d="m 1000.1873,203.26531 v -47 h 24.75 v 47 z" />
  <path
     d="m 1011.2233,182.35131 c -0.42,1.498 -0.896,1.876 -2.408,1.932 h -3.598 l 6.048,-8.526 v -0.21 h -7.364 l -0.28,2.394 h 0.364 c 0.238,-1.414 0.742,-1.82 2.352,-1.862 h 3.094 l -6.118,8.526 v 0.21 h 7.896 l 0.336,-2.464 z m 2.618,-3.962 c -0.42,0 -0.77,0.35 -0.77,0.798 0,0.406 0.35,0.756 0.756,0.756 0.434,0 0.798,-0.336 0.798,-0.756 0,-0.434 -0.364,-0.798 -0.784,-0.798 z m 0,5.026 c -0.42,0 -0.77,0.35 -0.77,0.798 0,0.406 0.35,0.756 0.756,0.756 0.434,0 0.798,-0.336 0.798,-0.756 0,-0.434 -0.364,-0.798 -0.784,-0.798 z m 3.64,1.4 h 3.864 v -0.21 c -1.078,0 -1.316,-0.154 -1.33,-0.826 v -8.4 l -0.112,-0.028 -2.52,1.274 v 0.196 c 0.546,-0.21 0.882,-0.308 1.008,-0.308 0.294,0 0.42,0.21 0.42,0.658 v 6.342 c -0.028,0.882 -0.266,1.078 -1.33,1.092 z"
     id="text60"
     style="font-size:14px;font-family:Times, serif"
     aria-label="Z:1" />
  <path
     id="polygon61"
     style="fill:none;stroke:#000000"
     d="m 997.18734,206.26531 v -53 h 30.74996 v 53 z" />
  <path
     id="polygon62"
     style="fill:none;stroke:#000000"
     d="m 924.18734,212.26531 v -65 h 109.74996 v 65 z" />
  <path
     fill="none"
     stroke="#000000"
     d="m 880.18734,199.76531 c 23.36,0 28.63,-7.75 52,-7.75"
     id="path62" />
  <path
     id="ellipse63"
     style="stroke:#000000"
     d="m 1320.6873,199.76531 a 9,9 0 0 1 -9,9 9,9 0 0 1 -9,-9 9,9 0 0 1 9,-9 9,9 0 0 1 9,9 z" />
  <path
     d="m 1309.8393,204.81531 h 3.864 v -0.21 c -1.078,0 -1.316,-0.154 -1.33,-0.826 v -8.4 l -0.112,-0.028 -2.52,1.274 v 0.196 c 0.546,-0.21 0.882,-0.308 1.008,-0.308 0.294,0 0.42,0.21 0.42,0.658 v 6.342 c -0.028,0.882 -0.266,1.078 -1.33,1.092 z"
     id="text63"
     style="font-size:14px;font-family:Times, serif;text-anchor:middle;fill:#ffffff"
     aria-label="1" />
  <path
     id="polygon65"
     style="fill:#808080"
     d="m 1368.3073,275.51531 v -89.5 h 30.75 v 89.5 z" />
  <path
     id="polygon66"
     style="fill:none;stroke:#000000"
     d="m 1371.3073,272.51531 v -83.5 h 24.75 v 83.5 z" />
  <path
     id="polygon67"
     style="fill:none;stroke:#000000"
     d="m 1377.3073,217.51531 v -22.5 h 12.75 v 22.5 z" />
  <path
     d="m 1381.9593,211.31531 h 3.864 v -0.21 c -1.078,0 -1.316,-0.154 -1.33,-0.826 v -8.4 l -0.112,-0.028 -2.52,1.274 v 0.196 c 0.546,-0.21 0.882,-0.308 1.008,-0.308 0.294,0 0.42,0.21 0.42,0.658 v 6.342 c -0.028,0.882 -0.266,1.078 -1.33,1.092 z"
     id="text67"
     style="font-size:14px;font-family:Times, serif"
     aria-label="1" />
  <path
     id="polygon68"
     style="fill:none;stroke:#000000"
     d="m 1377.3073,242.01531 v -22.5 h 12.75 v 22.5 z" />
  <path
     d="m 1381.9593,235.81531 h 3.864 v -0.21 c -1.078,0 -1.316,-0.154 -1.33,-0.826 v -8.4 l -0.112,-0.028 -2.52,1.274 v 0.196 c 0.546,-0.21 0.882,-0.308 1.008,-0.308 0.294,0 0.42,0.21 0.42,0.658 v 6.342 c -0.028,0.882 -0.266,1.078 -1.33,1.092 z"
     id="text68"
     style="font-size:14px;font-family:Times, serif"
     aria-label="1" />
  <path
     id="polygon69"
     style="fill:none;stroke:#000000"
     d="m 1377.3073,266.51531 v -22.5 h 12.75 v 22.5 z" />
  <path
     d="m 1381.9593,260.31531 h 3.864 v -0.21 c -1.078,0 -1.316,-0.154 -1.33,-0.826 v -8.4 l -0.112,-0.028 -2.52,1.274 v 0.196 c 0.546,-0.21 0.882,-0.308 1.008,-0.308 0.294,0 0.42,0.21 0.42,0.658 v 6.342 c -0.028,0.882 -0.266,1.078 -1.33,1.092 z"
     id="text69"
     style="font-size:14px;font-family:Times, serif"
     aria-label="1" />
  <path
     id="polygon70"
     style="fill:none;stroke:#000000"
     d="m 1374.3073,269.51531 v -77.5 h 18.75 v 77.5 z" />
  <path
     id="polygon71"
     style="fill:none;stroke:#000000"
     d="m 1368.3073,275.51531 v -89.5 h 30.75 v 89.5 z" />
  <path
     fill="none"
     stroke="#000000"
     d="m 1320.6873,199.76531 c 24.89,0 30.73,6.5 55.62,6.5"
     id="path71" />
  <path
     id="ellipse72"
     style="stroke:#000000"
     d="m 988.05736,289.76532 a 9,9 0 0 1 -9,9 9,9 0 0 1 -9,-9 9,9 0 0 1 9,-9 9,9 0 0 1 9,9 z" />
  <path
     d="m 977.20936,294.81531 h 3.864 v -0.21 c -1.078,0 -1.316,-0.154 -1.33,-0.826 v -8.4 l -0.112,-0.028 -2.52,1.274 v 0.196 c 0.546,-0.21 0.882,-0.308 1.008,-0.308 0.294,0 0.42,0.21 0.42,0.658 v 6.342 c -0.028,0.882 -0.266,1.078 -1.33,1.092 z"
     id="text72"
     style="font-size:14px;font-family:Times, serif;text-anchor:middle;fill:#ffffff"
     aria-label="1" />
  <path
     fill="none"
     stroke="#000000"
     d="m 989.51734,289.76531 c 172.58996,0 214.19996,-34.5 386.78996,-34.5"
     id="path73" />
  <path
     id="ellipse74"
     style="stroke:#000000"
     d="m 439.68734,196.76531 a 9,9 0 0 1 -9,9 9,9 0 0 1 -9,-9 9,9 0 0 1 9,-9 9,9 0 0 1 9,9 z" />
  <path
     d="m 428.83934,201.81531 h 3.864 v -0.21 c -1.078,0 -1.316,-0.154 -1.33,-0.826 v -8.4 l -0.112,-0.028 -2.52,1.274 v 0.196 c 0.546,-0.21 0.882,-0.308 1.008,-0.308 0.294,0 0.42,0.21 0.42,0.658 v 6.342 c -0.028,0.882 -0.266,1.078 -1.33,1.092 z"
     id="text74"
     style="font-size:14px;font-family:Times, serif;text-anchor:middle;fill:#ffffff"
     aria-label="1" />
  <path
     id="polygon76"
     style="fill:#00ffff"
     d="m 483.68734,269.26531 v -65 h 109.75 v 65 z" />
  <path
     id="polygon77"
     style="fill:none;stroke:#000000"
     d="m 486.68734,266.26531 v -59 h 38.25 v 59 z" />
  <path
     id="polygon78"
     style="fill:none;stroke:#000000"
     d="m 492.68734,235.76531 v -22.5 h 26.25 v 22.5 z" />
  <path
     d="m 505.57134,229.29931 c -0.63,-0.042 -0.77,-0.182 -1.26,-1.218 l -3.486,-7.952 h -0.28 l -2.912,6.874 c -0.896,2.044 -1.064,2.268 -1.736,2.296 v 0.266 h 2.772 v -0.266 c -0.672,0 -0.952,-0.168 -0.952,-0.574 0,-0.168 0.042,-0.364 0.112,-0.546 l 0.644,-1.638 h 3.668 l 0.574,1.344 c 0.168,0.378 0.266,0.742 0.266,0.938 0,0.35 -0.238,0.462 -0.98,0.476 v 0.266 h 3.57 z m -6.86,-3.332 1.61,-3.85 1.624,3.85 z m 8.988,-2.828 c -0.42,0 -0.77,0.35 -0.77,0.798 0,0.406 0.35,0.756 0.756,0.756 0.434,0 0.798,-0.336 0.798,-0.756 0,-0.434 -0.364,-0.798 -0.784,-0.798 z m 0,5.026 c -0.42,0 -0.77,0.35 -0.77,0.798 0,0.406 0.35,0.756 0.756,0.756 0.434,0 0.798,-0.336 0.798,-0.756 0,-0.434 -0.364,-0.798 -0.784,-0.798 z m 3.64,1.4 h 3.864 v -0.21 c -1.078,0 -1.316,-0.154 -1.33,-0.826 v -8.4 l -0.112,-0.028 -2.52,1.274 v 0.196 c 0.546,-0.21 0.882,-0.308 1.008,-0.308 0.294,0 0.42,0.21 0.42,0.658 v 6.342 c -0.028,0.882 -0.266,1.078 -1.33,1.092 z"
     id="text78"
     style="font-size:14px;font-family:Times, serif"
     aria-label="A:1" />
  <path
     id="polygon79"
     style="fill:none;stroke:#000000"
     d="m 492.68734,260.26531 v -22.5 h 26.25 v 22.5 z" />
  <path
     d="m 496.29533,245.06331 c 1.176,0.07 1.33,0.21 1.344,1.26 v 6.216 c -0.014,1.05 -0.196,1.218 -1.344,1.26 v 0.266 h 4.676 c 1.078,0 2.086,-0.294 2.604,-0.77 0.504,-0.448 0.784,-1.078 0.784,-1.75 0,-0.616 -0.238,-1.176 -0.686,-1.582 -0.42,-0.378 -0.798,-0.546 -1.708,-0.77 0.728,-0.182 1.022,-0.322 1.358,-0.616 0.35,-0.308 0.56,-0.812 0.56,-1.4 0,-1.568 -1.26,-2.38 -3.668,-2.38 h -3.92 z m 2.772,4.438 c 1.358,0 2.002,0.084 2.506,0.294 0.798,0.322 1.176,0.896 1.176,1.764 0,0.756 -0.294,1.302 -0.854,1.624 -0.448,0.252 -1.022,0.364 -1.946,0.364 -0.686,0 -0.882,-0.126 -0.882,-0.574 z m 0,-0.546 v -3.22 c 0.014,-0.308 0.07,-0.392 0.308,-0.406 l 0.616,-0.014 c 1.554,-0.042 2.464,0.672 2.464,1.918 0,1.106 -0.714,1.694 -2.058,1.708 z m 8.232,-1.316 c -0.42,0 -0.77,0.35 -0.77,0.798 0,0.406 0.35,0.756 0.756,0.756 0.434,0 0.798,-0.336 0.798,-0.756 0,-0.434 -0.364,-0.798 -0.784,-0.798 z m 0,5.026 c -0.42,0 -0.77,0.35 -0.77,0.798 0,0.406 0.35,0.756 0.756,0.756 0.434,0 0.798,-0.336 0.798,-0.756 0,-0.434 -0.364,-0.798 -0.784,-0.798 z m 3.64,1.4 h 3.864 v -0.21 c -1.078,0 -1.316,-0.154 -1.33,-0.826 v -8.4 l -0.112,-0.028 -2.52,1.274 v 0.196 c 0.546,-0.21 0.882,-0.308 1.008,-0.308 0.294,0 0.42,0.21 0.42,0.658 v 6.342 c -0.028,0.882 -0.266,1.078 -1.33,1.092 z"
     id="text79"
     style="font-size:14px;font-family:Times, serif"
     aria-label="B:1" />
  <path
     id="polygon80"
     style="fill:none;stroke:#000000"
     d="m 489.68734,263.26531 v -53 h 32.25 v 53 z" />
  <path
     id="polygon81"
     style="fill:none;stroke:#000000"
     d="m 526.93734,266.26531 v -59 h 24.75 v 59 z" />
  <path
     d="m 534.99137,232.35131 c -2.674,0 -4.578,2.002 -4.578,4.83 0,1.316 0.448,2.604 1.204,3.402 0.812,0.882 2.058,1.428 3.29,1.428 2.758,0 4.662,-1.946 4.662,-4.774 0,-1.386 -0.406,-2.59 -1.176,-3.416 -0.882,-0.966 -2.058,-1.47 -3.402,-1.47 z m 0,0.504 c 0.644,0 1.288,0.252 1.792,0.7 0.756,0.686 1.19,2.002 1.19,3.668 0,0.826 -0.168,1.792 -0.462,2.52 -0.126,0.35 -0.364,0.7 -0.686,1.022 -0.49,0.49 -1.12,0.742 -1.862,0.742 -0.644,0 -1.274,-0.252 -1.778,-0.686 -0.714,-0.644 -1.176,-2.058 -1.176,-3.612 0,-1.428 0.392,-2.786 0.98,-3.444 0.546,-0.602 1.232,-0.91 2.002,-0.91 z m 14.28,8.694 c -0.532,-0.042 -0.812,-0.182 -1.218,-0.658 l -2.884,-3.542 c 1.778,-0.35 2.534,-1.05 2.534,-2.338 0,-0.602 -0.182,-1.12 -0.546,-1.526 -0.532,-0.574 -1.708,-0.938 -3.01,-0.938 h -3.864 v 0.266 c 1.036,0.112 1.176,0.238 1.19,1.26 v 6.062 c -0.014,1.19 -0.14,1.33 -1.19,1.414 v 0.266 h 3.878 v -0.266 c -1.078,-0.07 -1.246,-0.238 -1.26,-1.26 v -2.758 l 0.784,-0.028 3.332,4.312 h 2.254 z m -6.37,-7.98 c 0,-0.392 0.154,-0.504 0.714,-0.504 1.75,0 2.562,0.602 2.562,1.918 0,0.7 -0.294,1.288 -0.798,1.554 -0.644,0.364 -1.134,0.448 -2.478,0.476 z"
     id="text81"
     style="font-size:14px;font-family:Times, serif"
     aria-label="OR" />
  <path
     id="polygon82"
     style="fill:none;stroke:#000000"
     d="m 553.68734,266.26531 v -59 h 36.75 v 59 z" />
  <path
     id="polygon83"
     style="fill:none;stroke:#000000"
     d="m 559.68734,260.26531 v -47 h 24.75 v 47 z" />
  <path
     d="m 570.72337,239.35131 c -0.42,1.498 -0.896,1.876 -2.408,1.932 h -3.598 l 6.048,-8.526 v -0.21 h -7.364 l -0.28,2.394 h 0.364 c 0.238,-1.414 0.742,-1.82 2.352,-1.862 h 3.094 l -6.118,8.526 v 0.21 h 7.896 l 0.336,-2.464 z m 2.618,-3.962 c -0.42,0 -0.77,0.35 -0.77,0.798 0,0.406 0.35,0.756 0.756,0.756 0.434,0 0.798,-0.336 0.798,-0.756 0,-0.434 -0.364,-0.798 -0.784,-0.798 z m 0,5.026 c -0.42,0 -0.77,0.35 -0.77,0.798 0,0.406 0.35,0.756 0.756,0.756 0.434,0 0.798,-0.336 0.798,-0.756 0,-0.434 -0.364,-0.798 -0.784,-0.798 z m 3.64,1.4 h 3.864 v -0.21 c -1.078,0 -1.316,-0.154 -1.33,-0.826 v -8.4 l -0.112,-0.028 -2.52,1.274 v 0.196 c 0.546,-0.21 0.882,-0.308 1.008,-0.308 0.294,0 0.42,0.21 0.42,0.658 v 6.342 c -0.028,0.882 -0.266,1.078 -1.33,1.092 z"
     id="text83"
     style="font-size:14px;font-family:Times, serif"
     aria-label="Z:1" />
  <path
     id="polygon84"
     style="fill:none;stroke:#000000"
     d="m 556.68734,263.26531 v -53 h 30.75 v 53 z" />
  <path
     id="polygon85"
     style="fill:none;stroke:#000000"
     d="m 483.68734,269.26531 v -65 h 109.75 v 65 z" />
  <path
     fill="none"
     stroke="#000000"
     d="m 439.68734,196.76531 c 26.19,0 25.8,27.75 52,27.75"
     id="path85" />
  <path
     id="polygon87"
     style="fill:#00ffff"
     d="m 483.68734,360.26531 v -65 h 109.75 v 65 z" />
  <path
     id="polygon88"
     style="fill:none;stroke:#000000"
     d="m 486.68734,357.26531 v -59 h 38.25 v 59 z" />
  <path
     id="polygon89"
     style="fill:none;stroke:#000000"
     d="m 492.68734,326.76531 v -22.5 h 26.25 v 22.5 z" />
  <path
     d="m 505.57134,320.29931 c -0.63,-0.042 -0.77,-0.182 -1.26,-1.218 l -3.486,-7.952 h -0.28 l -2.912,6.874 c -0.896,2.044 -1.064,2.268 -1.736,2.296 v 0.266 h 2.772 v -0.266 c -0.672,0 -0.952,-0.168 -0.952,-0.574 0,-0.168 0.042,-0.364 0.112,-0.546 l 0.644,-1.638 h 3.668 l 0.574,1.344 c 0.168,0.378 0.266,0.742 0.266,0.938 0,0.35 -0.238,0.462 -0.98,0.476 v 0.266 h 3.57 z m -6.86,-3.332 1.61,-3.85 1.624,3.85 z m 8.988,-2.828 c -0.42,0 -0.77,0.35 -0.77,0.798 0,0.406 0.35,0.756 0.756,0.756 0.434,0 0.798,-0.336 0.798,-0.756 0,-0.434 -0.364,-0.798 -0.784,-0.798 z m 0,5.026 c -0.42,0 -0.77,0.35 -0.77,0.798 0,0.406 0.35,0.756 0.756,0.756 0.434,0 0.798,-0.336 0.798,-0.756 0,-0.434 -0.364,-0.798 -0.784,-0.798 z m 3.64,1.4 h 3.864 v -0.21 c -1.078,0 -1.316,-0.154 -1.33,-0.826 v -8.4 l -0.112,-0.028 -2.52,1.274 v 0.196 c 0.546,-0.21 0.882,-0.308 1.008,-0.308 0.294,0 0.42,0.21 0.42,0.658 v 6.342 c -0.028,0.882 -0.266,1.078 -1.33,1.092 z"
     id="text89"
     style="font-size:14px;font-family:Times, serif"
     aria-label="A:1" />
  <path
     id="polygon90"
     style="fill:none;stroke:#000000"
     d="m 492.68734,351.26531 v -22.5 h 26.25 v 22.5 z" />
  <path
     d="m 496.29533,336.06331 c 1.176,0.07 1.33,0.21 1.344,1.26 v 6.216 c -0.014,1.05 -0.196,1.218 -1.344,1.26 v 0.266 h 4.676 c 1.078,0 2.086,-0.294 2.604,-0.77 0.504,-0.448 0.784,-1.078 0.784,-1.75 0,-0.616 -0.238,-1.176 -0.686,-1.582 -0.42,-0.378 -0.798,-0.546 -1.708,-0.77 0.728,-0.182 1.022,-0.322 1.358,-0.616 0.35,-0.308 0.56,-0.812 0.56,-1.4 0,-1.568 -1.26,-2.38 -3.668,-2.38 h -3.92 z m 2.772,4.438 c 1.358,0 2.002,0.084 2.506,0.294 0.798,0.322 1.176,0.896 1.176,1.764 0,0.756 -0.294,1.302 -0.854,1.624 -0.448,0.252 -1.022,0.364 -1.946,0.364 -0.686,0 -0.882,-0.126 -0.882,-0.574 z m 0,-0.546 v -3.22 c 0.014,-0.308 0.07,-0.392 0.308,-0.406 l 0.616,-0.014 c 1.554,-0.042 2.464,0.672 2.464,1.918 0,1.106 -0.714,1.694 -2.058,1.708 z m 8.232,-1.316 c -0.42,0 -0.77,0.35 -0.77,0.798 0,0.406 0.35,0.756 0.756,0.756 0.434,0 0.798,-0.336 0.798,-0.756 0,-0.434 -0.364,-0.798 -0.784,-0.798 z m 0,5.026 c -0.42,0 -0.77,0.35 -0.77,0.798 0,0.406 0.35,0.756 0.756,0.756 0.434,0 0.798,-0.336 0.798,-0.756 0,-0.434 -0.364,-0.798 -0.784,-0.798 z m 3.64,1.4 h 3.864 v -0.21 c -1.078,0 -1.316,-0.154 -1.33,-0.826 v -8.4 l -0.112,-0.028 -2.52,1.274 v 0.196 c 0.546,-0.21 0.882,-0.308 1.008,-0.308 0.294,0 0.42,0.21 0.42,0.658 v 6.342 c -0.028,0.882 -0.266,1.078 -1.33,1.092 z"
     id="text90"
     style="font-size:14px;font-family:Times, serif"
     aria-label="B:1" />
  <path
     id="polygon91"
     style="fill:none;stroke:#000000"
     d="m 489.68734,354.26531 v -53 h 32.25 v 53 z" />
  <path
     id="polygon92"
     style="fill:none;stroke:#000000"
     d="m 526.93734,357.26531 v -59 h 24.75 v 59 z" />
  <path
     d="m 534.99137,323.35131 c -2.674,0 -4.578,2.002 -4.578,4.83 0,1.316 0.448,2.604 1.204,3.402 0.812,0.882 2.058,1.428 3.29,1.428 2.758,0 4.662,-1.946 4.662,-4.774 0,-1.386 -0.406,-2.59 -1.176,-3.416 -0.882,-0.966 -2.058,-1.47 -3.402,-1.47 z m 0,0.504 c 0.644,0 1.288,0.252 1.792,0.7 0.756,0.686 1.19,2.002 1.19,3.668 0,0.826 -0.168,1.792 -0.462,2.52 -0.126,0.35 -0.364,0.7 -0.686,1.022 -0.49,0.49 -1.12,0.742 -1.862,0.742 -0.644,0 -1.274,-0.252 -1.778,-0.686 -0.714,-0.644 -1.176,-2.058 -1.176,-3.612 0,-1.428 0.392,-2.786 0.98,-3.444 0.546,-0.602 1.232,-0.91 2.002,-0.91 z m 14.28,8.694 c -0.532,-0.042 -0.812,-0.182 -1.218,-0.658 l -2.884,-3.542 c 1.778,-0.35 2.534,-1.05 2.534,-2.338 0,-0.602 -0.182,-1.12 -0.546,-1.526 -0.532,-0.574 -1.708,-0.938 -3.01,-0.938 h -3.864 v 0.266 c 1.036,0.112 1.176,0.238 1.19,1.26 v 6.062 c -0.014,1.19 -0.14,1.33 -1.19,1.414 v 0.266 h 3.878 v -0.266 c -1.078,-0.07 -1.246,-0.238 -1.26,-1.26 v -2.758 l 0.784,-0.028 3.332,4.312 h 2.254 z m -6.37,-7.98 c 0,-0.392 0.154,-0.504 0.714,-0.504 1.75,0 2.562,0.602 2.562,1.918 0,0.7 -0.294,1.288 -0.798,1.554 -0.644,0.364 -1.134,0.448 -2.478,0.476 z"
     id="text92"
     style="font-size:14px;font-family:Times, serif"
     aria-label="OR" />
  <path
     id="polygon93"
     style="fill:none;stroke:#000000"
     d="m 553.68734,357.26531 v -59 h 36.75 v 59 z" />
  <path
     id="polygon94"
     style="fill:none;stroke:#000000"
     d="m 559.68734,351.26531 v -47 h 24.75 v 47 z" />
  <path
     d="m 570.72337,330.35131 c -0.42,1.498 -0.896,1.876 -2.408,1.932 h -3.598 l 6.048,-8.526 v -0.21 h -7.364 l -0.28,2.394 h 0.364 c 0.238,-1.414 0.742,-1.82 2.352,-1.862 h 3.094 l -6.118,8.526 v 0.21 h 7.896 l 0.336,-2.464 z m 2.618,-3.962 c -0.42,0 -0.77,0.35 -0.77,0.798 0,0.406 0.35,0.756 0.756,0.756 0.434,0 0.798,-0.336 0.798,-0.756 0,-0.434 -0.364,-0.798 -0.784,-0.798 z m 0,5.026 c -0.42,0 -0.77,0.35 -0.77,0.798 0,0.406 0.35,0.756 0.756,0.756 0.434,0 0.798,-0.336 0.798,-0.756 0,-0.434 -0.364,-0.798 -0.784,-0.798 z m 3.64,1.4 h 3.864 v -0.21 c -1.078,0 -1.316,-0.154 -1.33,-0.826 v -8.4 l -0.112,-0.028 -2.52,1.274 v 0.196 c 0.546,-0.21 0.882,-0.308 1.008,-0.308 0.294,0 0.42,0.21 0.42,0.658 v 6.342 c -0.028,0.882 -0.266,1.078 -1.33,1.092 z"
     id="text94"
     style="font-size:14px;font-family:Times, serif"
     aria-label="Z:1" />
  <path
     id="polygon95"
     style="fill:none;stroke:#000000"
     d="m 556.68734,354.26531 v -53 h 30.75 v 53 z" />
  <path
     id="polygon96"
     style="fill:none;stroke:#000000"
     d="m 483.68734,360.26531 v -65 h 109.75 v 65 z" />
  <path
     fill="none"
     stroke="#000000"
     d="m 439.68734,196.76531 c 57.61,0 -5.62,118.75 52,118.75"
     id="path96" />
  <path
     fill="none"
     stroke="#000000"
     d="m 439.68734,196.76531 c 16.22,0 19.83,-4.66 36,-6 55.7,-4.61 69.87,-1.12 125.75,0 99.95,2 127.93,-15.91 224.75,9 17.32,4.46 18.89,12.78 36,18 23.14,7.07 29.91,4.66 54,7 75.25,7.31 94.14996,11 169.74996,11 0,0 0,0 114.37,0 78.26,0 97.75,-5 176,-5"
     id="path97" />
  <path
     id="ellipse98"
     style="stroke:#000000"
     d="m 547.55736,152.76531 a 9,9 0 0 1 -9,9 9,9 0 0 1 -9,-9 9,9 0 0 1 9,-9 9,9 0 0 1 9,9 z" />
  <path
     d="m 536.70936,157.81531 h 3.864 v -0.21 c -1.078,0 -1.316,-0.154 -1.33,-0.826 v -8.4 l -0.112,-0.028 -2.52,1.274 v 0.196 c 0.546,-0.21 0.882,-0.308 1.008,-0.308 0.294,0 0.42,0.21 0.42,0.658 v 6.342 c -0.028,0.882 -0.266,1.078 -1.33,1.092 z"
     id="text98"
     style="font-size:14px;font-family:Times, serif;text-anchor:middle;fill:#ffffff"
     aria-label="1" />
  <path
     fill="none"
     stroke="#000000"
     d="m 549.01734,152.76531 c 170.42,0 212.75,14.75 383.17,14.75"
     id="path99" />
  <path
     id="ellipse100"
     style="stroke:#000000"
     d="m 439.68734,248.76531 a 9,9 0 0 1 -9,9 9,9 0 0 1 -9,-9 9,9 0 0 1 9,-9 9,9 0 0 1 9,9 z" />
  <path
     d="m 428.83934,253.81531 h 3.864 v -0.21 c -1.078,0 -1.316,-0.154 -1.33,-0.826 v -8.4 l -0.112,-0.028 -2.52,1.274 v 0.196 c 0.546,-0.21 0.882,-0.308 1.008,-0.308 0.294,0 0.42,0.21 0.42,0.658 v 6.342 c -0.028,0.882 -0.266,1.078 -1.33,1.092 z"
     id="text100"
     style="font-size:14px;font-family:Times, serif;text-anchor:middle;fill:#ffffff"
     aria-label="1" />
  <path
     fill="none"
     stroke="#000000"
     d="m 439.68734,248.76531 c 23.11,0 28.89,0.25 52,0.25"
     id="path101" />
  <path
     fill="none"
     stroke="#000000"
     d="m 439.68734,248.76531 c 46.68,0 5.32,91.25 52,91.25"
     id="path102" />
  <path
     id="ellipse103"
     style="stroke:#000000"
     d="m 655.43737,234.76531 a 9,9 0 0 1 -9,9 9,9 0 0 1 -9,-9 9,9 0 0 1 9,-9 9,9 0 0 1 9,9 z" />
  <path
     d="m 644.58937,239.81531 h 3.864 v -0.21 c -1.078,0 -1.316,-0.154 -1.33,-0.826 v -8.4 l -0.112,-0.028 -2.52,1.274 v 0.196 c 0.546,-0.21 0.882,-0.308 1.008,-0.308 0.294,0 0.42,0.21 0.42,0.658 v 6.342 c -0.028,0.882 -0.266,1.078 -1.33,1.092 z"
     id="text103"
     style="font-size:14px;font-family:Times, serif;text-anchor:middle;fill:#ffffff"
     aria-label="1" />
  <path
     id="polygon105"
     style="fill:#00ffff"
     d="m 699.43734,253.01531 v -40.5 h 118.75 v 40.5 z" />
  <path
     id="polygon106"
     style="fill:none;stroke:#000000"
     d="m 702.43734,250.01531 v -34.5 h 38.25 v 34.5 z" />
  <path
     id="polygon107"
     style="fill:none;stroke:#000000"
     d="m 708.43734,244.01531 v -22.5 h 26.25 v 22.5 z" />
  <path
     d="m 721.32137,237.54931 c -0.63,-0.042 -0.77,-0.182 -1.26,-1.218 l -3.486,-7.952 h -0.28 l -2.912,6.874 c -0.896,2.044 -1.064,2.268 -1.736,2.296 v 0.266 h 2.772 v -0.266 c -0.672,0 -0.952,-0.168 -0.952,-0.574 0,-0.168 0.042,-0.364 0.112,-0.546 l 0.644,-1.638 h 3.668 l 0.574,1.344 c 0.168,0.378 0.266,0.742 0.266,0.938 0,0.35 -0.238,0.462 -0.98,0.476 v 0.266 h 3.57 z m -6.86,-3.332 1.61,-3.85 1.624,3.85 z m 8.988,-2.828 c -0.42,0 -0.77,0.35 -0.77,0.798 0,0.406 0.35,0.756 0.756,0.756 0.434,0 0.798,-0.336 0.798,-0.756 0,-0.434 -0.364,-0.798 -0.784,-0.798 z m 0,5.026 c -0.42,0 -0.77,0.35 -0.77,0.798 0,0.406 0.35,0.756 0.756,0.756 0.434,0 0.798,-0.336 0.798,-0.756 0,-0.434 -0.364,-0.798 -0.784,-0.798 z m 3.64,1.4 h 3.864 v -0.21 c -1.078,0 -1.316,-0.154 -1.33,-0.826 v -8.4 l -0.112,-0.028 -2.52,1.274 v 0.196 c 0.546,-0.21 0.882,-0.308 1.008,-0.308 0.294,0 0.42,0.21 0.42,0.658 v 6.342 c -0.028,0.882 -0.266,1.078 -1.33,1.092 z"
     id="text107"
     style="font-size:14px;font-family:Times, serif"
     aria-label="A:1" />
  <path
     id="polygon108"
     style="fill:none;stroke:#000000"
     d="m 705.43734,247.01531 v -28.5 h 32.25 v 28.5 z" />
  <path
     id="polygon109"
     style="fill:none;stroke:#000000"
     d="m 742.68734,250.01531 v -34.5 h 33.75 v 34.5 z" />
  <path
     d="m 755.58537,228.54731 h -3.29 v 0.266 c 1.12,0.07 1.302,0.308 1.344,1.792 v 4.718 l -5.39,-6.776 h -2.394 v 0.266 c 0.602,0 0.798,0.112 1.358,0.77 v 6.174 c -0.028,1.484 -0.21,1.722 -1.358,1.792 v 0.266 h 3.29 v -0.266 c -1.078,-0.056 -1.288,-0.35 -1.316,-1.792 v -5.488 l 6.188,7.7 h 0.238 v -7.364 c 0.042,-1.456 0.224,-1.694 1.33,-1.792 z m 4.99801,-0.196 c -2.674,0 -4.578,2.002 -4.578,4.83 0,1.316 0.448,2.604 1.204,3.402 0.812,0.882 2.058,1.428 3.29,1.428 2.758,0 4.662,-1.946 4.662,-4.774 0,-1.386 -0.406,-2.59 -1.176,-3.416 -0.882,-0.966 -2.058,-1.47 -3.402,-1.47 z m 0,0.504 c 0.644,0 1.288,0.252 1.792,0.7 0.756,0.686 1.19,2.002 1.19,3.668 0,0.826 -0.168,1.792 -0.462,2.52 -0.126,0.35 -0.364,0.7 -0.686,1.022 -0.49,0.49 -1.12,0.742 -1.862,0.742 -0.644,0 -1.274,-0.252 -1.778,-0.686 -0.714,-0.644 -1.176,-2.058 -1.176,-3.612 0,-1.428 0.392,-2.786 0.98,-3.444 0.546,-0.602 1.232,-0.91 2.002,-0.91 z m 11.284,8.694 c -1.148,-0.056 -1.33,-0.224 -1.344,-1.26 v -7.154 h 0.756 c 1.624,0.028 1.918,0.266 2.226,1.792 h 0.336 l -0.084,-2.38 h -7.896 l -0.084,2.38 h 0.336 c 0.322,-1.526 0.616,-1.764 2.226,-1.792 h 0.756 v 7 c -0.014,1.204 -0.14,1.344 -1.316,1.414 v 0.266 h 4.088 z"
     id="text109"
     style="font-size:14px;font-family:Times, serif"
     aria-label="NOT" />
  <path
     id="polygon110"
     style="fill:none;stroke:#000000"
     d="m 778.43734,250.01531 v -34.5 h 36.75 v 34.5 z" />
  <path
     id="polygon111"
     style="fill:none;stroke:#000000"
     d="m 784.43734,244.01531 v -22.5 h 24.75 v 22.5 z" />
  <path
     d="m 795.47337,235.35131 c -0.42,1.498 -0.896,1.876 -2.408,1.932 h -3.598 l 6.048,-8.526 v -0.21 h -7.364 l -0.28,2.394 h 0.364 c 0.238,-1.414 0.742,-1.82 2.352,-1.862 h 3.094 l -6.118,8.526 v 0.21 h 7.896 l 0.336,-2.464 z m 2.618,-3.962 c -0.42,0 -0.77,0.35 -0.77,0.798 0,0.406 0.35,0.756 0.756,0.756 0.434,0 0.798,-0.336 0.798,-0.756 0,-0.434 -0.364,-0.798 -0.784,-0.798 z m 0,5.026 c -0.42,0 -0.77,0.35 -0.77,0.798 0,0.406 0.35,0.756 0.756,0.756 0.434,0 0.798,-0.336 0.798,-0.756 0,-0.434 -0.364,-0.798 -0.784,-0.798 z m 3.64,1.4 h 3.864 v -0.21 c -1.078,0 -1.316,-0.154 -1.33,-0.826 v -8.4 l -0.112,-0.028 -2.52,1.274 v 0.196 c 0.546,-0.21 0.882,-0.308 1.008,-0.308 0.294,0 0.42,0.21 0.42,0.658 v 6.342 c -0.028,0.882 -0.266,1.078 -1.33,1.092 z"
     id="text111"
     style="font-size:14px;font-family:Times, serif"
     aria-label="Z:1" />
  <path
     id="polygon112"
     style="fill:none;stroke:#000000"
     d="m 781.43734,247.01531 v -28.5 h 30.75 v 28.5 z" />
  <path
     id="polygon113"
     style="fill:none;stroke:#000000"
     d="m 699.43734,253.01531 v -40.5 h 118.75 v 40.5 z" />
  <path
     fill="none"
     stroke="#000000"
     d="m 655.43734,234.76531 c 23.13,0 28.87,-2 52,-2"
     id="path113" />
  <path
     id="ellipse114"
     style="stroke:#000000"
     d="m 655.43737,322.76532 a 9,9 0 0 1 -9,9 9,9 0 0 1 -9,-9 9,9 0 0 1 9,-9 9,9 0 0 1 9,9 z" />
  <path
     d="m 644.58937,327.81531 h 3.864 v -0.21 c -1.078,0 -1.316,-0.154 -1.33,-0.826 v -8.4 l -0.112,-0.028 -2.52,1.274 v 0.196 c 0.546,-0.21 0.882,-0.308 1.008,-0.308 0.294,0 0.42,0.21 0.42,0.658 v 6.342 c -0.028,0.882 -0.266,1.078 -1.33,1.092 z"
     id="text114"
     style="font-size:14px;font-family:Times, serif;text-anchor:middle;fill:#ffffff"
     aria-label="1" />
  <path
     id="polygon116"
     style="fill:#00ffff"
     d="m 699.43734,338.01531 v -40.5 h 118.75 v 40.5 z" />
  <path
     id="polygon117"
     style="fill:none;stroke:#000000"
     d="m 702.43734,335.01531 v -34.5 h 38.25 v 34.5 z" />
  <path
     id="polygon118"
     style="fill:none;stroke:#000000"
     d="m 708.43734,329.01531 v -22.5 h 26.25 v 22.5 z" />
  <path
     d="m 721.32137,322.54931 c -0.63,-0.042 -0.77,-0.182 -1.26,-1.218 l -3.486,-7.952 h -0.28 l -2.912,6.874 c -0.896,2.044 -1.064,2.268 -1.736,2.296 v 0.266 h 2.772 v -0.266 c -0.672,0 -0.952,-0.168 -0.952,-0.574 0,-0.168 0.042,-0.364 0.112,-0.546 l 0.644,-1.638 h 3.668 l 0.574,1.344 c 0.168,0.378 0.266,0.742 0.266,0.938 0,0.35 -0.238,0.462 -0.98,0.476 v 0.266 h 3.57 z m -6.86,-3.332 1.61,-3.85 1.624,3.85 z m 8.988,-2.828 c -0.42,0 -0.77,0.35 -0.77,0.798 0,0.406 0.35,0.756 0.756,0.756 0.434,0 0.798,-0.336 0.798,-0.756 0,-0.434 -0.364,-0.798 -0.784,-0.798 z m 0,5.026 c -0.42,0 -0.77,0.35 -0.77,0.798 0,0.406 0.35,0.756 0.756,0.756 0.434,0 0.798,-0.336 0.798,-0.756 0,-0.434 -0.364,-0.798 -0.784,-0.798 z m 3.64,1.4 h 3.864 v -0.21 c -1.078,0 -1.316,-0.154 -1.33,-0.826 v -8.4 l -0.112,-0.028 -2.52,1.274 v 0.196 c 0.546,-0.21 0.882,-0.308 1.008,-0.308 0.294,0 0.42,0.21 0.42,0.658 v 6.342 c -0.028,0.882 -0.266,1.078 -1.33,1.092 z"
     id="text118"
     style="font-size:14px;font-family:Times, serif"
     aria-label="A:1" />
  <path
     id="polygon119"
     style="fill:none;stroke:#000000"
     d="m 705.43734,332.01531 v -28.5 h 32.25 v 28.5 z" />
  <path
     id="polygon120"
     style="fill:none;stroke:#000000"
     d="m 742.68734,335.01531 v -34.5 h 33.75 v 34.5 z" />
  <path
     d="m 755.58537,313.54731 h -3.29 v 0.266 c 1.12,0.07 1.302,0.308 1.344,1.792 v 4.718 l -5.39,-6.776 h -2.394 v 0.266 c 0.602,0 0.798,0.112 1.358,0.77 v 6.174 c -0.028,1.484 -0.21,1.722 -1.358,1.792 v 0.266 h 3.29 v -0.266 c -1.078,-0.056 -1.288,-0.35 -1.316,-1.792 v -5.488 l 6.188,7.7 h 0.238 v -7.364 c 0.042,-1.456 0.224,-1.694 1.33,-1.792 z m 4.99801,-0.196 c -2.674,0 -4.578,2.002 -4.578,4.83 0,1.316 0.448,2.604 1.204,3.402 0.812,0.882 2.058,1.428 3.29,1.428 2.758,0 4.662,-1.946 4.662,-4.774 0,-1.386 -0.406,-2.59 -1.176,-3.416 -0.882,-0.966 -2.058,-1.47 -3.402,-1.47 z m 0,0.504 c 0.644,0 1.288,0.252 1.792,0.7 0.756,0.686 1.19,2.002 1.19,3.668 0,0.826 -0.168,1.792 -0.462,2.52 -0.126,0.35 -0.364,0.7 -0.686,1.022 -0.49,0.49 -1.12,0.742 -1.862,0.742 -0.644,0 -1.274,-0.252 -1.778,-0.686 -0.714,-0.644 -1.176,-2.058 -1.176,-3.612 0,-1.428 0.392,-2.786 0.98,-3.444 0.546,-0.602 1.232,-0.91 2.002,-0.91 z m 11.284,8.694 c -1.148,-0.056 -1.33,-0.224 -1.344,-1.26 v -7.154 h 0.756 c 1.624,0.028 1.918,0.266 2.226,1.792 h 0.336 l -0.084,-2.38 h -7.896 l -0.084,2.38 h 0.336 c 0.322,-1.526 0.616,-1.764 2.226,-1.792 h 0.756 v 7 c -0.014,1.204 -0.14,1.344 -1.316,1.414 v 0.266 h 4.088 z"
     id="text120"
     style="font-size:14px;font-family:Times, serif"
     aria-label="NOT" />
  <path
     id="polygon121"
     style="fill:none;stroke:#000000"
     d="m 778.43734,335.01531 v -34.5 h 36.75 v 34.5 z" />
  <path
     id="polygon122"
     style="fill:none;stroke:#000000"
     d="m 784.43734,329.01531 v -22.5 h 24.75 v 22.5 z" />
  <path
     d="m 795.47337,320.35131 c -0.42,1.498 -0.896,1.876 -2.408,1.932 h -3.598 l 6.048,-8.526 v -0.21 h -7.364 l -0.28,2.394 h 0.364 c 0.238,-1.414 0.742,-1.82 2.352,-1.862 h 3.094 l -6.118,8.526 v 0.21 h 7.896 l 0.336,-2.464 z m 2.618,-3.962 c -0.42,0 -0.77,0.35 -0.77,0.798 0,0.406 0.35,0.756 0.756,0.756 0.434,0 0.798,-0.336 0.798,-0.756 0,-0.434 -0.364,-0.798 -0.784,-0.798 z m 0,5.026 c -0.42,0 -0.77,0.35 -0.77,0.798 0,0.406 0.35,0.756 0.756,0.756 0.434,0 0.798,-0.336 0.798,-0.756 0,-0.434 -0.364,-0.798 -0.784,-0.798 z m 3.64,1.4 h 3.864 v -0.21 c -1.078,0 -1.316,-0.154 -1.33,-0.826 v -8.4 l -0.112,-0.028 -2.52,1.274 v 0.196 c 0.546,-0.21 0.882,-0.308 1.008,-0.308 0.294,0 0.42,0.21 0.42,0.658 v 6.342 c -0.028,0.882 -0.266,1.078 -1.33,1.092 z"
     id="text122"
     style="font-size:14px;font-family:Times, serif"
     aria-label="Z:1" />
  <path
     id="polygon123"
     style="fill:none;stroke:#000000"
     d="m 781.43734,332.01531 v -28.5 h 30.75 v 28.5 z" />
  <path
     id="polygon124"
     style="fill:none;stroke:#000000"
     d="m 699.43734,338.01531 v -40.5 h 118.75 v 40.5 z" />
  <path
     fill="none"
     stroke="#000000"
     d="m 655.43734,322.76531 c 23.22,0 28.78,-5 52,-5"
     id="path124" />
  <path
     id="ellipse125"
     style="stroke:#000000"
     d="m 1095.9373,185.76531 a 9,9 0 0 1 -9,9 9,9 0 0 1 -9,-9 9,9 0 0 1 9,-9 9,9 0 0 1 9,9 z" />
  <path
     d="m 1085.0893,190.81531 h 3.864 v -0.21 c -1.078,0 -1.316,-0.154 -1.33,-0.826 v -8.4 l -0.112,-0.028 -2.52,1.274 v 0.196 c 0.546,-0.21 0.882,-0.308 1.008,-0.308 0.294,0 0.42,0.21 0.42,0.658 v 6.342 c -0.028,0.882 -0.266,1.078 -1.33,1.092 z"
     id="text125"
     style="font-size:14px;font-family:Times, serif;text-anchor:middle;fill:#ffffff"
     aria-label="1" />
  <path
     id="polygon127"
     style="fill:#00ffff"
     d="m 1139.9373,209.01531 v -40.5 h 118.75 v 40.5 z" />
  <path
     id="polygon128"
     style="fill:none;stroke:#000000"
     d="m 1142.9373,206.01531 v -34.5 h 38.25 v 34.5 z" />
  <path
     id="polygon129"
     style="fill:none;stroke:#000000"
     d="m 1148.9373,200.01531 v -22.5 h 26.25 v 22.5 z" />
  <path
     d="m 1161.8213,193.54931 c -0.63,-0.042 -0.77,-0.182 -1.26,-1.218 l -3.486,-7.952 h -0.28 l -2.912,6.874 c -0.896,2.044 -1.064,2.268 -1.736,2.296 v 0.266 h 2.772 v -0.266 c -0.672,0 -0.952,-0.168 -0.952,-0.574 0,-0.168 0.042,-0.364 0.112,-0.546 l 0.644,-1.638 h 3.668 l 0.574,1.344 c 0.168,0.378 0.266,0.742 0.266,0.938 0,0.35 -0.238,0.462 -0.98,0.476 v 0.266 h 3.57 z m -6.86,-3.332 1.61,-3.85 1.624,3.85 z m 8.988,-2.828 c -0.42,0 -0.77,0.35 -0.77,0.798 0,0.406 0.35,0.756 0.756,0.756 0.434,0 0.798,-0.336 0.798,-0.756 0,-0.434 -0.364,-0.798 -0.784,-0.798 z m 0,5.026 c -0.42,0 -0.77,0.35 -0.77,0.798 0,0.406 0.35,0.756 0.756,0.756 0.434,0 0.798,-0.336 0.798,-0.756 0,-0.434 -0.364,-0.798 -0.784,-0.798 z m 3.64,1.4 h 3.864 v -0.21 c -1.078,0 -1.316,-0.154 -1.33,-0.826 v -8.4 l -0.112,-0.028 -2.52,1.274 v 0.196 c 0.546,-0.21 0.882,-0.308 1.008,-0.308 0.294,0 0.42,0.21 0.42,0.658 v 6.342 c -0.028,0.882 -0.266,1.078 -1.33,1.092 z"
     id="text129"
     style="font-size:14px;font-family:Times, serif"
     aria-label="A:1" />
  <path
     id="polygon130"
     style="fill:none;stroke:#000000"
     d="m 1145.9373,203.01531 v -28.5 h 32.25 v 28.5 z" />
  <path
     id="polygon131"
     style="fill:none;stroke:#000000"
     d="m 1183.1873,206.01531 v -34.5 h 33.75 v 34.5 z" />
  <path
     d="m 1196.0853,184.54731 h -3.29 v 0.266 c 1.12,0.07 1.302,0.308 1.344,1.792 v 4.718 l -5.39,-6.776 h -2.394 v 0.266 c 0.602,0 0.798,0.112 1.358,0.77 v 6.174 c -0.028,1.484 -0.21,1.722 -1.358,1.792 v 0.266 h 3.29 v -0.266 c -1.078,-0.056 -1.288,-0.35 -1.316,-1.792 v -5.488 l 6.188,7.7 h 0.238 v -7.364 c 0.042,-1.456 0.224,-1.694 1.33,-1.792 z m 4.998,-0.196 c -2.674,0 -4.578,2.002 -4.578,4.83 0,1.316 0.448,2.604 1.204,3.402 0.812,0.882 2.058,1.428 3.29,1.428 2.758,0 4.662,-1.946 4.662,-4.774 0,-1.386 -0.406,-2.59 -1.176,-3.416 -0.882,-0.966 -2.058,-1.47 -3.402,-1.47 z m 0,0.504 c 0.644,0 1.288,0.252 1.792,0.7 0.756,0.686 1.19,2.002 1.19,3.668 0,0.826 -0.168,1.792 -0.462,2.52 -0.126,0.35 -0.364,0.7 -0.686,1.022 -0.49,0.49 -1.12,0.742 -1.862,0.742 -0.644,0 -1.274,-0.252 -1.778,-0.686 -0.714,-0.644 -1.176,-2.058 -1.176,-3.612 0,-1.428 0.392,-2.786 0.98,-3.444 0.546,-0.602 1.232,-0.91 2.002,-0.91 z m 11.284,8.694 c -1.148,-0.056 -1.33,-0.224 -1.344,-1.26 v -7.154 h 0.756 c 1.624,0.028 1.918,0.266 2.226,1.792 h 0.336 l -0.084,-2.38 h -7.896 l -0.084,2.38 h 0.336 c 0.322,-1.526 0.616,-1.764 2.226,-1.792 h 0.756 v 7 c -0.014,1.204 -0.14,1.344 -1.316,1.414 v 0.266 h 4.088 z"
     id="text131"
     style="font-size:14px;font-family:Times, serif"
     aria-label="NOT" />
  <path
     id="polygon132"
     style="fill:none;stroke:#000000"
     d="m 1218.9373,206.01531 v -34.5 h 36.75 v 34.5 z" />
  <path
     id="polygon133"
     style="fill:none;stroke:#000000"
     d="m 1224.9373,200.01531 v -22.5 h 24.75 v 22.5 z" />
  <path
     d="m 1235.9733,191.35131 c -0.42,1.498 -0.896,1.876 -2.408,1.932 h -3.598 l 6.048,-8.526 v -0.21 h -7.364 l -0.28,2.394 h 0.364 c 0.238,-1.414 0.742,-1.82 2.352,-1.862 h 3.094 l -6.118,8.526 v 0.21 h 7.896 l 0.336,-2.464 z m 2.618,-3.962 c -0.42,0 -0.77,0.35 -0.77,0.798 0,0.406 0.35,0.756 0.756,0.756 0.434,0 0.798,-0.336 0.798,-0.756 0,-0.434 -0.364,-0.798 -0.784,-0.798 z m 0,5.026 c -0.42,0 -0.77,0.35 -0.77,0.798 0,0.406 0.35,0.756 0.756,0.756 0.434,0 0.798,-0.336 0.798,-0.756 0,-0.434 -0.364,-0.798 -0.784,-0.798 z m 3.64,1.4 h 3.864 v -0.21 c -1.078,0 -1.316,-0.154 -1.33,-0.826 v -8.4 l -0.112,-0.028 -2.52,1.274 v 0.196 c 0.546,-0.21 0.882,-0.308 1.008,-0.308 0.294,0 0.42,0.21 0.42,0.658 v 6.342 c -0.028,0.882 -0.266,1.078 -1.33,1.092 z"
     id="text133"
     style="font-size:14px;font-family:Times, serif"
     aria-label="Z:1" />
  <path
     id="polygon134"
     style="fill:none;stroke:#000000"
     d="m 1221.9373,203.01531 v -28.5 h 30.75 v 28.5 z" />
  <path
     id="polygon135"
     style="fill:none;stroke:#000000"
     d="m 1139.9373,209.01531 v -40.5 h 118.75 v 40.5 z" />
  <path
     fill="none"
     stroke="#000000"
     d="m 1095.9373,185.76531 c 23.15,0 28.85,3 52,3"
     id="path135" />
  <path
     fill="none"
     stroke="#000000"
     d="m 1025.9373,179.76531 c 23.26,0 28.73,6 52,6"
     id="path136" />
  <path
     fill="none"
     stroke="#000000"
     d="m 585.43734,236.76531 c 23.13,0 28.87,-2 52,-2"
     id="path137" />
  <path
     fill="none"
     stroke="#000000"
     d="m 810.18734,232.76531 c 27.37,0 24.63,-33 52,-33"
     id="path138" />
  <path
     fill="none"
     stroke="#000000"
     d="m 1250.6873,188.76531 c 23.62,0 28.38,11 52,11"
     id="path139" />
  <path
     fill="none"
     stroke="#000000"
     d="m 585.43734,327.76531 c 23.22,0 28.78,-5 52,-5"
     id="path140" />
  <path
     fill="none"
     stroke="#000000"
     d="m 810.18734,317.76531 c 71.5,0 86.92,-28 158.41,-28"
     id="path141" />
  <path
     fill="none"
     stroke="#000000"
     d="m 341.05734,181.26531 c 36.49,0 44.14,15.5 80.63,15.5"
     id="path142" />
  <path
     fill="none"
     stroke="#000000"
     d="m 341.05734,205.76531 c 37.79,0 44.32,-16.51 80.63,-27 46.77,-13.52 57.73,-26 106.41,-26"
     id="path143" />
  <path
     fill="none"
     stroke="#000000"
     d="m 341.05734,230.26531 c 36.77,0 43.86,18.5 80.63,18.5"
     id="path144" />
  <path
     fill="none"
     stroke="#000000"
     d="m 1391.0573,206.26531 c 62.31,0 -128.44,-205.50000145 -190.75,-205.50000145 -964.61996,0 -964.61996,0 -964.61996,0 -75.26,0 -96.86,-4.80000005 -168.250004,19.00000045 -87.58,29.2 -68.8300004,41 -55.46,41"
     id="path145" />
  <path
     fill="none"
     stroke="#000000"
     d="m 1391.0573,230.76531 c 24.87,0 30.76,-6 55.63,-6"
     id="path146" />
  <path
     fill="none"
     stroke="#000000"
     d="m 1391.0573,255.26531 c 24.85,0 30.79,5.5 55.63,5.5"
     id="path147" />
  <path
     fill="none"
     stroke="#000000"
     d="m 175.68734,119.76531 c 24.05,0 27.94,-15 52,-15"
     id="path148" />
  <path
     id="polygon150"
     style="fill:#7fffd4"
     d="m 103.05734,73.015309 v -40.5 h 53 v 40.5 z" />
  <path
     id="polygon151"
     style="fill:none;stroke:#000000"
     d="m 106.05734,70.015309 v -34.5 h 20.25 v 34.5 z" />
  <path
     d="m 115.63734,50.573302 v 7.518 h -3.766 v 0.854 h 8.372 v -0.854 h -3.752 v -7.518 z"
     id="text151"
     style="font-size:14px;font-family:Times, serif"
     aria-label="⊥" />
  <path
     id="polygon152"
     style="fill:none;stroke:#000000"
     d="m 128.30734,70.015309 v -34.5 h 24.75 v 34.5 z" />
  <path
     id="polygon153"
     style="fill:none;stroke:#000000"
     d="m 134.30734,64.015309 v -22.5 h 12.75 v 22.5 z" />
  <path
     d="m 138.95935,57.815298 h 3.864 v -0.21 c -1.078,0 -1.316,-0.154 -1.33,-0.826 v -8.4 l -0.112,-0.028 -2.52,1.274 v 0.196 c 0.546,-0.21 0.882,-0.308 1.008,-0.308 0.294,0 0.42,0.21 0.42,0.658 v 6.342 c -0.028,0.882 -0.266,1.078 -1.33,1.092 z"
     id="text153"
     style="font-size:14px;font-family:Times, serif"
     aria-label="1" />
  <path
     id="polygon154"
     style="fill:none;stroke:#000000"
     d="m 131.30734,67.015309 v -28.5 h 18.75 v 28.5 z" />
  <path
     id="polygon155"
     style="fill:none;stroke:#000000"
     d="m 103.05734,73.015309 v -40.5 h 53 v 40.5 z" />
  <path
     fill="none"
     stroke="#000000"
     d="m 148.05734,52.765309 c 35.39,0 44.24,1 79.63,1"
     id="path155" />
  <path
     fill="none"
     stroke="#000000"
     d="m 369.68734,65.765309 c 23.93,0 28.06,14 52,14"
     id="path156" />
  <path
     id="polygon158"
     style="fill:#808080"
     d="m 107.80734,250.26531 v -65 h 43.5 v 65 z" />
  <path
     id="polygon159"
     style="fill:none;stroke:#000000"
     d="m 110.80734,247.26531 v -59 h 37.5 v 59 z" />
  <path
     id="polygon160"
     style="fill:none;stroke:#000000"
     d="m 116.80734,216.76531 v -22.5 h 25.5 v 22.5 z" />
  <path
     d="m 129.03334,210.29931 c -0.532,-0.042 -0.812,-0.182 -1.218,-0.658 l -2.884,-3.542 c 1.778,-0.35 2.534,-1.05 2.534,-2.338 0,-0.602 -0.182,-1.12 -0.546,-1.526 -0.532,-0.574 -1.708,-0.938 -3.01,-0.938 h -3.864 v 0.266 c 1.036,0.112 1.176,0.238 1.19,1.26 v 6.062 c -0.014,1.19 -0.14,1.33 -1.19,1.414 v 0.266 h 3.878 v -0.266 c -1.078,-0.07 -1.246,-0.238 -1.26,-1.26 v -2.758 l 0.784,-0.028 3.332,4.312 h 2.254 z m -6.37,-7.98 c 0,-0.392 0.154,-0.504 0.714,-0.504 1.75,0 2.562,0.602 2.562,1.918 0,0.7 -0.294,1.288 -0.798,1.554 -0.644,0.364 -1.134,0.448 -2.478,0.476 z m 8.386,1.82 c -0.42,0 -0.77,0.35 -0.77,0.798 0,0.406 0.35,0.756 0.756,0.756 0.434,0 0.798,-0.336 0.798,-0.756 0,-0.434 -0.364,-0.798 -0.784,-0.798 z m 0,5.026 c -0.42,0 -0.77,0.35 -0.77,0.798 0,0.406 0.35,0.756 0.756,0.756 0.434,0 0.798,-0.336 0.798,-0.756 0,-0.434 -0.364,-0.798 -0.784,-0.798 z m 3.63999,1.4 h 3.864 v -0.21 c -1.078,0 -1.316,-0.154 -1.33,-0.826 v -8.4 l -0.112,-0.028 -2.52,1.274 v 0.196 c 0.546,-0.21 0.882,-0.308 1.008,-0.308 0.294,0 0.42,0.21 0.42,0.658 v 6.342 c -0.028,0.882 -0.266,1.078 -1.33,1.092 z"
     id="text160"
     style="font-size:14px;font-family:Times, serif"
     aria-label="R:1" />
  <path
     id="polygon161"
     style="fill:none;stroke:#000000"
     d="m 116.80734,241.26531 v -22.5 h 25.5 v 22.5 z" />
  <path
     d="m 126.81534,225.60131 h -0.294 c -0.056,0.308 -0.21,0.476 -0.448,0.476 -0.14,0 -0.378,-0.056 -0.616,-0.168 -0.518,-0.196 -1.036,-0.308 -1.498,-0.308 -0.588,0 -1.204,0.238 -1.666,0.644 -0.49,0.434 -0.742,1.022 -0.742,1.75 0,1.12 0.616,1.904 2.184,2.73 1.008,0.546 1.736,1.106 2.086,1.638 0.126,0.182 0.196,0.476 0.196,0.826 0,0.924 -0.7,1.568 -1.722,1.568 -1.26,0 -2.128,-0.77 -2.828,-2.478 h -0.322 l 0.42,2.968 h 0.308 c 0.014,-0.266 0.182,-0.462 0.392,-0.462 0.154,0 0.392,0.056 0.658,0.154 0.532,0.21 1.106,0.322 1.652,0.322 1.624,0 2.856,-1.106 2.856,-2.562 0,-1.148 -0.77,-2.044 -2.618,-3.052 -1.47,-0.798 -2.058,-1.414 -2.058,-2.184 0,-0.77 0.588,-1.288 1.456,-1.288 0.63,0 1.218,0.266 1.708,0.77 0.434,0.448 0.63,0.812 0.854,1.638 h 0.35 z m 3.43,3.038 c -0.42,0 -0.77,0.35 -0.77,0.798 0,0.406 0.35,0.756 0.756,0.756 0.434,0 0.798,-0.336 0.798,-0.756 0,-0.434 -0.364,-0.798 -0.784,-0.798 z m 0,5.026 c -0.42,0 -0.77,0.35 -0.77,0.798 0,0.406 0.35,0.756 0.756,0.756 0.434,0 0.798,-0.336 0.798,-0.756 0,-0.434 -0.364,-0.798 -0.784,-0.798 z m 3.63999,1.4 h 3.864 v -0.21 c -1.078,0 -1.316,-0.154 -1.33,-0.826 v -8.4 l -0.112,-0.028 -2.52,1.274 v 0.196 c 0.546,-0.21 0.882,-0.308 1.008,-0.308 0.294,0 0.42,0.21 0.42,0.658 v 6.342 c -0.028,0.882 -0.266,1.078 -1.33,1.092 z"
     id="text161"
     style="font-size:14px;font-family:Times, serif"
     aria-label="S:1" />
  <path
     id="polygon162"
     style="fill:none;stroke:#000000"
     d="m 113.80734,244.26531 v -53 h 31.5 v 53 z" />
  <path
     id="polygon163"
     style="fill:none;stroke:#000000"
     d="m 107.80734,250.26531 v -65 h 43.5 v 65 z" />
  <path
     fill="none"
     stroke="#000000"
     d="m 143.30734,205.51531 c 37.59,0 46.79,-5.75 84.38,-5.75"
     id="path163" />
  <path
     fill="none"
     stroke="#000000"
     d="m 143.30734,230.01531 c 37.59,0 46.79,5.75 84.38,5.75"
     id="path164" />
</svg>
