<?xml version="1.0" encoding="UTF-8" standalone="no"?>
<!-- Generated by graphviz version 11.0.0 (0)
 -->

<!-- Title: SR NOR Latch Pages: 1 -->

<svg
   width="1305.6956pt"
   height="177.53865pt"
   viewBox="0 0 1305.9438 177.75001"
   version="1.1"
   id="svg83"
   sodipodi:docname="latch-interfaces.svg"
   inkscape:version="1.3.2 (091e20ef0f, 2023-11-25, custom)"
   xmlns:inkscape="http://www.inkscape.org/namespaces/inkscape"
   xmlns:sodipodi="http://sodipodi.sourceforge.net/DTD/sodipodi-0.dtd"
   xmlns="http://www.w3.org/2000/svg"
   xmlns:svg="http://www.w3.org/2000/svg">
  <defs
     id="defs83" />
  <sodipodi:namedview
     id="namedview83"
     pagecolor="#ffffff"
     bordercolor="#000000"
     borderopacity="0.25"
     inkscape:showpageshadow="2"
     inkscape:pageopacity="0.0"
     inkscape:pagecheckerboard="0"
     inkscape:deskcolor="#d1d1d1"
     inkscape:document-units="pt"
     inkscape:zoom="1.1446768"
     inkscape:cx="870.1146"
     inkscape:cy="134.53579"
     inkscape:window-width="2560"
     inkscape:window-height="1380"
     inkscape:window-x="1920"
     inkscape:window-y="32"
     inkscape:window-maximized="1"
     inkscape:current-layer="svg83" />
  <path
     id="ellipse2"
     style="stroke:#000000"
     d="m 112.84225,65.25 a 9,9 0 0 1 -9,9 9,9 0 0 1 -9.000003,-9 9,9 0 0 1 9.000003,-9 9,9 0 0 1 9,9 z" />
  <path
     d="m 101.99425,70.300003 h 3.864 v -0.21 c -1.078,0 -1.316,-0.154 -1.33,-0.826 v -8.4 l -0.112,-0.028 -2.52,1.274 v 0.196 c 0.546,-0.21 0.882,-0.308 1.008,-0.308 0.294,0 0.42,0.21 0.42,0.658 v 6.342 c -0.028,0.882 -0.266,1.078 -1.33,1.092 z"
     id="text2"
     style="font-size:14px;font-family:Times, serif;text-anchor:middle;fill:#ffffff"
     aria-label="1" />
  <path
     id="polygon4"
     transform="translate(-0.65775337,202.25)"
     style="fill:#00ffff"
     d="m 267.25,-170.5 v 65 H 157.5 v -65 z" />
  <path
     id="polygon5"
     transform="translate(-0.65775337,202.25)"
     style="fill:none;stroke:#000000"
     d="m 198.75,-167.5 v 59 H 160.5 v -59 z" />
  <path
     id="polygon6"
     transform="translate(-0.65775337,202.25)"
     style="fill:none;stroke:#000000"
     d="M 192.75,-161.5 V -139 H 166.5 v -22.5 z" />
  <path
     d="m 178.72624,56.784003 c -0.63,-0.042 -0.77,-0.182 -1.26,-1.218 l -3.486,-7.952 h -0.28 l -2.912,6.874 c -0.896,2.044 -1.064,2.268 -1.736,2.296 v 0.266 h 2.772 v -0.266 c -0.672,0 -0.952,-0.168 -0.952,-0.574 0,-0.168 0.042,-0.364 0.112,-0.546 l 0.644,-1.638 h 3.668 l 0.574,1.344 c 0.168,0.378 0.266,0.742 0.266,0.938 0,0.35 -0.238,0.462 -0.98,0.476 v 0.266 h 3.57 z m -6.86,-3.332 1.61,-3.85 1.624,3.85 z m 8.988,-2.828 c -0.42,0 -0.77,0.35 -0.77,0.798 0,0.406 0.35,0.756 0.756,0.756 0.434,0 0.798,-0.336 0.798,-0.756 0,-0.434 -0.364,-0.798 -0.784,-0.798 z m 0,5.026 c -0.42,0 -0.77,0.35 -0.77,0.798 0,0.406 0.35,0.756 0.756,0.756 0.434,0 0.798,-0.336 0.798,-0.756 0,-0.434 -0.364,-0.798 -0.784,-0.798 z m 3.64,1.4 h 3.864 v -0.21 c -1.078,0 -1.316,-0.154 -1.33,-0.826 v -8.4 l -0.112,-0.028 -2.52,1.274 v 0.196 c 0.546,-0.21 0.882,-0.308 1.008,-0.308 0.294,0 0.42,0.21 0.42,0.658 v 6.342 c -0.028,0.882 -0.266,1.078 -1.33,1.092 z"
     id="text6"
     style="font-size:14px;font-family:Times, serif"
     aria-label="A:1" />
  <path
     id="polygon7"
     transform="translate(-0.65775337,202.25)"
     style="fill:none;stroke:#000000"
     d="m 192.75,-137 v 22.5 H 166.5 V -137 Z" />
  <path
     d="m 169.46024,72.548003 c 1.176,0.07 1.33,0.21 1.344,1.26 v 6.216 c -0.014,1.05 -0.196,1.218 -1.344,1.26 v 0.266 h 4.676 c 1.078,0 2.086,-0.294 2.604,-0.77 0.504,-0.448 0.784,-1.078 0.784,-1.75 0,-0.616 -0.238,-1.176 -0.686,-1.582 -0.42,-0.378 -0.798,-0.546 -1.708,-0.77 0.728,-0.182 1.022,-0.322 1.358,-0.616 0.35,-0.308 0.56,-0.812 0.56,-1.4 0,-1.568 -1.26,-2.38 -3.668,-2.38 h -3.92 z m 2.772,4.438 c 1.358,0 2.002,0.084 2.506,0.294 0.798,0.322 1.176,0.896 1.176,1.764 0,0.756 -0.294,1.302 -0.854,1.624 -0.448,0.252 -1.022,0.364 -1.946,0.364 -0.686,0 -0.882,-0.126 -0.882,-0.574 z m 0,-0.546 v -3.22 c 0.014,-0.308 0.07,-0.392 0.308,-0.406 l 0.616,-0.014 c 1.554,-0.042 2.464,0.672 2.464,1.918 0,1.106 -0.714,1.694 -2.058,1.708 z m 8.232,-1.316 c -0.42,0 -0.77,0.35 -0.77,0.798 0,0.406 0.35,0.756 0.756,0.756 0.434,0 0.798,-0.336 0.798,-0.756 0,-0.434 -0.364,-0.798 -0.784,-0.798 z m 0,5.026 c -0.42,0 -0.77,0.35 -0.77,0.798 0,0.406 0.35,0.756 0.756,0.756 0.434,0 0.798,-0.336 0.798,-0.756 0,-0.434 -0.364,-0.798 -0.784,-0.798 z m 3.64,1.4 h 3.864 v -0.21 c -1.078,0 -1.316,-0.154 -1.33,-0.826 v -8.4 l -0.112,-0.028 -2.52,1.274 v 0.196 c 0.546,-0.21 0.882,-0.308 1.008,-0.308 0.294,0 0.42,0.21 0.42,0.658 v 6.342 c -0.028,0.882 -0.266,1.078 -1.33,1.092 z"
     id="text7"
     style="font-size:14px;font-family:Times, serif"
     aria-label="B:1" />
  <path
     id="polygon8"
     transform="translate(-0.65775337,202.25)"
     style="fill:none;stroke:#000000"
     d="m 195.75,-164.5 v 53 H 163.5 v -53 z" />
  <path
     id="polygon9"
     transform="translate(-0.65775337,202.25)"
     style="fill:none;stroke:#000000"
     d="m 225.5,-167.5 v 59 h -24.75 v -59 z" />
  <path
     d="m 208.14624,59.836003 c -2.674,0 -4.578,2.002 -4.578,4.83 0,1.316 0.448,2.604 1.204,3.402 0.812,0.882 2.058,1.428 3.29,1.428 2.758,0 4.662,-1.946 4.662,-4.774 0,-1.386 -0.406,-2.59 -1.176,-3.416 -0.882,-0.966 -2.058,-1.47 -3.402,-1.47 z m 0,0.504 c 0.644,0 1.288,0.252 1.792,0.7 0.756,0.686 1.19,2.002 1.19,3.668 0,0.826 -0.168,1.792 -0.462,2.52 -0.126,0.35 -0.364,0.7 -0.686,1.022 -0.49,0.49 -1.12,0.742 -1.862,0.742 -0.644,0 -1.274,-0.252 -1.778,-0.686 -0.714,-0.644 -1.176,-2.058 -1.176,-3.612 0,-1.428 0.392,-2.786 0.98,-3.444 0.546,-0.602 1.232,-0.91 2.002,-0.91 z m 14.28,8.694 c -0.532,-0.042 -0.812,-0.182 -1.218,-0.658 l -2.884,-3.542 c 1.778,-0.35 2.534,-1.05 2.534,-2.338 0,-0.602 -0.182,-1.12 -0.546,-1.526 -0.532,-0.574 -1.708,-0.938 -3.01,-0.938 h -3.864 v 0.266 c 1.036,0.112 1.176,0.238 1.19,1.26 v 6.062 c -0.014,1.19 -0.14,1.33 -1.19,1.414 v 0.266 h 3.878 v -0.266 c -1.078,-0.07 -1.246,-0.238 -1.26,-1.26 v -2.758 l 0.784,-0.028 3.332,4.312 h 2.254 z m -6.37,-7.98 c 0,-0.392 0.154,-0.504 0.714,-0.504 1.75,0 2.562,0.602 2.562,1.918 0,0.7 -0.294,1.288 -0.798,1.554 -0.644,0.364 -1.134,0.448 -2.478,0.476 z"
     id="text9"
     style="font-size:14px;font-family:Times, serif"
     aria-label="OR" />
  <path
     id="polygon10"
     transform="translate(-0.65775337,202.25)"
     style="fill:none;stroke:#000000"
     d="m 264.25,-167.5 v 59 H 227.5 v -59 z" />
  <path
     id="polygon11"
     transform="translate(-0.65775337,202.25)"
     style="fill:none;stroke:#000000"
     d="m 258.25,-161.5 v 47 H 233.5 v -47 z" />
  <path
     d="m 243.87824,66.836003 c -0.42,1.498 -0.896,1.876 -2.408,1.932 h -3.598 l 6.048,-8.526 v -0.21 h -7.364 l -0.28,2.394 h 0.364 c 0.238,-1.414 0.742,-1.82 2.352,-1.862 h 3.094 l -6.118,8.526 v 0.21 h 7.896 l 0.336,-2.464 z m 2.618,-3.962 c -0.42,0 -0.77,0.35 -0.77,0.798 0,0.406 0.35,0.756 0.756,0.756 0.434,0 0.798,-0.336 0.798,-0.756 0,-0.434 -0.364,-0.798 -0.784,-0.798 z m 0,5.026 c -0.42,0 -0.77,0.35 -0.77,0.798 0,0.406 0.35,0.756 0.756,0.756 0.434,0 0.798,-0.336 0.798,-0.756 0,-0.434 -0.364,-0.798 -0.784,-0.798 z m 3.64,1.4 h 3.864 v -0.21 c -1.078,0 -1.316,-0.154 -1.33,-0.826 v -8.4 l -0.112,-0.028 -2.52,1.274 v 0.196 c 0.546,-0.21 0.882,-0.308 1.008,-0.308 0.294,0 0.42,0.21 0.42,0.658 v 6.342 c -0.028,0.882 -0.266,1.078 -1.33,1.092 z"
     id="text11"
     style="font-size:14px;font-family:Times, serif"
     aria-label="Z:1" />
  <path
     id="polygon12"
     transform="translate(-0.65775337,202.25)"
     style="fill:none;stroke:#000000"
     d="m 261.25,-164.5 v 53 H 230.5 v -53 z" />
  <path
     id="polygon13"
     transform="translate(-0.65775337,202.25)"
     style="fill:none;stroke:#000000"
     d="m 267.25,-170.5 v 65 H 157.5 v -65 z" />
  <path
     fill="none"
     stroke="#000000"
     d="m 112.84225,65.25 c 23.85,0 28.15,-13.25 52,-13.25"
     id="path13" />
  <path
     id="ellipse14"
     style="stroke:#000000"
     d="m 328.59225,32.25 a 9,9 0 0 1 -9,9 9,9 0 0 1 -9,-9 9,9 0 0 1 9,-9 9,9 0 0 1 9,9 z" />
  <path
     d="m 317.74425,37.300003 h 3.864 v -0.21 c -1.078,0 -1.316,-0.154 -1.33,-0.826 v -8.4 l -0.112,-0.028 -2.52,1.274 v 0.196 c 0.546,-0.21 0.882,-0.308 1.008,-0.308 0.294,0 0.42,0.21 0.42,0.658 v 6.342 c -0.028,0.882 -0.266,1.078 -1.33,1.092 z"
     id="text14"
     style="font-size:14px;font-family:Times, serif;text-anchor:middle;fill:#ffffff"
     aria-label="1" />
  <path
     id="polygon16"
     transform="translate(-0.65775337,202.25)"
     style="fill:#00ffff"
     d="m 492,-198.25 v 40.5 H 373.25 v -40.5 z" />
  <path
     id="polygon17"
     transform="translate(-0.65775337,202.25)"
     style="fill:none;stroke:#000000"
     d="m 414.5,-195.25 v 34.5 h -38.25 v -34.5 z" />
  <path
     id="polygon18"
     transform="translate(-0.65775337,202.25)"
     style="fill:none;stroke:#000000"
     d="m 408.5,-189.25 v 22.5 h -26.25 v -22.5 z" />
  <path
     d="m 394.47625,29.034003 c -0.63,-0.042 -0.77,-0.182 -1.26,-1.218 l -3.486,-7.952 h -0.28 l -2.912,6.874 c -0.896,2.044 -1.064,2.268 -1.736,2.296 v 0.266 h 2.772 v -0.266 c -0.672,0 -0.952,-0.168 -0.952,-0.574 0,-0.168 0.042,-0.364 0.112,-0.546 l 0.644,-1.638 h 3.668 l 0.574,1.344 c 0.168,0.378 0.266,0.742 0.266,0.938 0,0.35 -0.238,0.462 -0.98,0.476 v 0.266 h 3.57 z m -6.86,-3.332 1.61,-3.85 1.624,3.85 z m 8.98801,-2.828 c -0.42,0 -0.77,0.35 -0.77,0.798 0,0.406 0.35,0.756 0.756,0.756 0.434,0 0.798,-0.336 0.798,-0.756 0,-0.434 -0.364,-0.798 -0.784,-0.798 z m 0,5.026 c -0.42,0 -0.77,0.35 -0.77,0.798 0,0.406 0.35,0.756 0.756,0.756 0.434,0 0.798,-0.336 0.798,-0.756 0,-0.434 -0.364,-0.798 -0.784,-0.798 z m 3.63999,1.4 h 3.864 v -0.21 c -1.078,0 -1.316,-0.154 -1.33,-0.826 v -8.4 l -0.112,-0.028 -2.52,1.274 v 0.196 c 0.546,-0.21 0.882,-0.308 1.008,-0.308 0.294,0 0.42,0.21 0.42,0.658 v 6.342 c -0.028,0.882 -0.266,1.078 -1.33,1.092 z"
     id="text18"
     style="font-size:14px;font-family:Times, serif"
     aria-label="A:1" />
  <path
     id="polygon19"
     transform="translate(-0.65775337,202.25)"
     style="fill:none;stroke:#000000"
     d="m 411.5,-192.25 v 28.5 h -32.25 v -28.5 z" />
  <path
     id="polygon20"
     transform="translate(-0.65775337,202.25)"
     style="fill:none;stroke:#000000"
     d="m 450.25,-195.25 v 34.5 H 416.5 v -34.5 z" />
  <path
     d="m 428.74025,20.032003 h -3.29 v 0.266 c 1.12,0.07 1.302,0.308 1.344,1.792 v 4.718 l -5.39,-6.776 h -2.394 v 0.266 c 0.602,0 0.798,0.112 1.358,0.77 v 6.174 c -0.028,1.484 -0.21,1.722 -1.358,1.792 v 0.266 h 3.29 v -0.266 c -1.078,-0.056 -1.288,-0.35 -1.316,-1.792 v -5.488 l 6.188,7.7 h 0.238 v -7.364 c 0.042,-1.456 0.224,-1.694 1.33,-1.792 z m 4.99802,-0.196 c -2.674,0 -4.578,2.002 -4.578,4.83 0,1.316 0.448,2.604 1.204,3.402 0.812,0.882 2.058,1.428 3.29,1.428 2.758,0 4.662,-1.946 4.662,-4.774 0,-1.386 -0.406,-2.59 -1.176,-3.416 -0.882,-0.966 -2.058,-1.47 -3.402,-1.47 z m 0,0.504 c 0.644,0 1.288,0.252 1.792,0.7 0.756,0.686 1.19,2.002 1.19,3.668 0,0.826 -0.168,1.792 -0.462,2.52 -0.126,0.35 -0.364,0.7 -0.686,1.022 -0.49,0.49 -1.12,0.742 -1.862,0.742 -0.644,0 -1.274,-0.252 -1.778,-0.686 -0.714,-0.644 -1.176,-2.058 -1.176,-3.612 0,-1.428 0.392,-2.786 0.98,-3.444 0.546,-0.602 1.232,-0.91 2.002,-0.91 z m 11.284,8.694 c -1.148,-0.056 -1.33,-0.224 -1.344,-1.26 v -7.154 h 0.756 c 1.624,0.028 1.918,0.266 2.226,1.792 h 0.336 l -0.084,-2.38 h -7.896 l -0.084,2.38 h 0.336 c 0.322,-1.526 0.616,-1.764 2.226,-1.792 h 0.756 v 7 c -0.014,1.204 -0.14,1.344 -1.316,1.414 v 0.266 h 4.088 z"
     id="text20"
     style="font-size:14px;font-family:Times, serif"
     aria-label="NOT" />
  <path
     id="polygon21"
     transform="translate(-0.65775337,202.25)"
     style="fill:none;stroke:#000000"
     d="m 489,-195.25 v 34.5 h -36.75 v -34.5 z" />
  <path
     id="polygon22"
     transform="translate(-0.65775337,202.25)"
     style="fill:none;stroke:#000000"
     d="m 483,-189.25 v 22.5 h -24.75 v -22.5 z" />
  <path
     d="m 468.62825,26.836003 c -0.42,1.498 -0.896,1.876 -2.408,1.932 h -3.598 l 6.048,-8.526 v -0.21 h -7.364 l -0.28,2.394 h 0.364 c 0.238,-1.414 0.742,-1.82 2.352,-1.862 h 3.094 l -6.118,8.526 v 0.21 h 7.896 l 0.336,-2.464 z m 2.618,-3.962 c -0.42,0 -0.77,0.35 -0.77,0.798 0,0.406 0.35,0.756 0.756,0.756 0.434,0 0.798,-0.336 0.798,-0.756 0,-0.434 -0.364,-0.798 -0.784,-0.798 z m 0,5.026 c -0.42,0 -0.77,0.35 -0.77,0.798 0,0.406 0.35,0.756 0.756,0.756 0.434,0 0.798,-0.336 0.798,-0.756 0,-0.434 -0.364,-0.798 -0.784,-0.798 z m 3.64,1.4 h 3.864 v -0.21 c -1.078,0 -1.316,-0.154 -1.33,-0.826 v -8.4 l -0.112,-0.028 -2.52,1.274 v 0.196 c 0.546,-0.21 0.882,-0.308 1.008,-0.308 0.294,0 0.42,0.21 0.42,0.658 v 6.342 c -0.028,0.882 -0.266,1.078 -1.33,1.092 z"
     id="text22"
     style="font-size:14px;font-family:Times, serif"
     aria-label="Z:1" />
  <path
     id="polygon23"
     transform="translate(-0.65775337,202.25)"
     style="fill:none;stroke:#000000"
     d="m 486,-192.25 v 28.5 h -30.75 v -28.5 z" />
  <path
     id="polygon24"
     transform="translate(-0.65775337,202.25)"
     style="fill:none;stroke:#000000"
     d="m 492,-198.25 v 40.5 H 373.25 v -40.5 z" />
  <path
     fill="none"
     stroke="#000000"
     d="m 328.59225,32.25 c 23.38,0 28.62,-8 52,-8"
     id="path24" />
  <path
     id="ellipse25"
     style="stroke:#000000"
     d="m 553.34222,24.25 a 9,9 0 0 1 -9,9 9,9 0 0 1 -9,-9 9,9 0 0 1 9,-9 9,9 0 0 1 9,9 z" />
  <path
     d="m 542.49422,29.300003 h 3.864 v -0.21 c -1.078,0 -1.316,-0.154 -1.33,-0.826 v -8.4 l -0.112,-0.028 -2.52,1.274 v 0.196 c 0.546,-0.21 0.882,-0.308 1.008,-0.308 0.294,0 0.42,0.21 0.42,0.658 v 6.342 c -0.028,0.882 -0.266,1.078 -1.33,1.092 z"
     id="text25"
     style="font-size:14px;font-family:Times, serif;text-anchor:middle;fill:#ffffff"
     aria-label="1" />
  <path
     id="polygon27"
     transform="translate(-0.65775337,202.25)"
     style="fill:#ffff00"
     d="m 706.25,-198.25 v 40.5 H 598 v -40.5 z" />
  <path
     id="polygon28"
     transform="translate(-0.65775337,202.25)"
     style="fill:none;stroke:#000000"
     d="m 625.75,-195.25 v 34.5 H 601 v -34.5 z" />
  <path
     id="polygon29"
     transform="translate(-0.65775337,202.25)"
     style="fill:none;stroke:#000000"
     d="m 619.75,-189.25 v 22.5 H 607 v -22.5 z" />
  <path
     d="m 610.99422,29.300003 h 3.864 v -0.21 c -1.078,0 -1.316,-0.154 -1.33,-0.826 v -8.4 l -0.112,-0.028 -2.52,1.274 v 0.196 c 0.546,-0.21 0.882,-0.308 1.008,-0.308 0.294,0 0.42,0.21 0.42,0.658 v 6.342 c -0.028,0.882 -0.266,1.078 -1.33,1.092 z"
     id="text29"
     style="font-size:14px;font-family:Times, serif"
     aria-label="1" />
  <path
     id="polygon30"
     transform="translate(-0.65775337,202.25)"
     style="fill:none;stroke:#000000"
     d="m 622.75,-192.25 v 28.5 H 604 v -28.5 z" />
  <path
     id="polygon31"
     transform="translate(-0.65775337,202.25)"
     style="fill:none;stroke:#000000"
     d="m 676.5,-195.25 v 34.5 h -48.75 v -34.5 z" />
  <path
     d="m 636.96622,28.488003 c -0.182,0.014 -0.266,0.014 -0.322,0.014 -0.49,0 -0.616,-0.154 -0.616,-0.798 v -7.938 l -0.07,-0.028 c -0.658,0.224 -1.134,0.378 -2.058,0.616 v 0.224 c 0.112,-0.014 0.182,-0.014 0.308,-0.014 0.518,0 0.644,0.14 0.644,0.714 v 2.184 c -0.532,-0.448 -0.91,-0.602 -1.47,-0.602 -1.61,0 -2.912,1.582 -2.912,3.57 0,1.792 1.036,3.01 2.59,3.01 0.784,0 1.316,-0.28 1.792,-0.938 v 0.896 l 0.056,0.042 2.058,-0.728 z m -2.114,-0.616 c 0,0.098 -0.098,0.266 -0.238,0.42 -0.238,0.28 -0.602,0.42 -1.008,0.42 -1.176,0 -1.932,-1.12 -1.932,-2.856 0,-1.568 0.686,-2.604 1.75,-2.604 0.756,0 1.428,0.658 1.428,1.4 z m 7.952,-0.868 c -0.672,1.064 -1.274,1.47 -2.17,1.47 -0.798,0 -1.4,-0.406 -1.806,-1.204 -0.252,-0.532 -0.35,-0.98 -0.378,-1.848 h 4.312 c -0.112,-0.91 -0.252,-1.316 -0.602,-1.764 -0.42,-0.504 -1.064,-0.798 -1.792,-0.798 -0.7,0 -1.358,0.252 -1.89,0.728 -0.658,0.574 -1.036,1.568 -1.036,2.716 0,1.932 1.008,3.136 2.618,3.136 1.33,0 2.38,-0.826 2.968,-2.338 z m -4.326,-2.03 c 0.154,-1.092 0.63,-1.61 1.484,-1.61 0.854,0 1.19,0.392 1.372,1.61 z m 4.81602,4.326 h 3.304 v -0.21 c -0.882,-0.042 -1.036,-0.182 -1.05,-0.966 v -8.358 l -0.056,-0.028 c -0.714,0.224 -1.232,0.378 -2.226,0.616 v 0.224 h 0.084 c 0.154,-0.014 0.322,-0.028 0.434,-0.028 0.448,0 0.588,0.196 0.588,0.854 v 6.678 c -0.014,0.756 -0.21,0.952 -1.078,1.008 z m 9.78599,-0.924 c -0.238,0.196 -0.406,0.266 -0.616,0.266 -0.322,0 -0.42,-0.196 -0.42,-0.812 v -2.73 c 0,-0.728 -0.07,-1.134 -0.28,-1.47 -0.308,-0.504 -0.91,-0.77 -1.736,-0.77 -1.316,0 -2.352,0.686 -2.352,1.568 0,0.322 0.266,0.602 0.602,0.602 0.336,0 0.63,-0.28 0.63,-0.588 0,-0.056 -0.014,-0.126 -0.028,-0.224 -0.028,-0.126 -0.042,-0.238 -0.042,-0.336 0,-0.378 0.448,-0.686 1.008,-0.686 0.686,0 1.064,0.406 1.064,1.162 v 0.854 c -2.142,0.854 -2.394,0.98 -2.996,1.512 -0.308,0.28 -0.504,0.756 -0.504,1.218 0,0.882 0.616,1.498 1.47,1.498 0.616,0 1.19,-0.294 2.044,-1.022 0.07,0.742 0.322,1.022 0.896,1.022 0.476,0 0.77,-0.168 1.26,-0.7 z m -2.17,-0.798 c 0,0.42 -0.07,0.574 -0.364,0.742 -0.35,0.196 -0.728,0.308 -1.022,0.308 -0.49,0 -0.882,-0.476 -0.882,-1.078 v -0.056 c 0.014,-0.84 0.63,-1.372 2.268,-1.946 z m 8.30201,-4.578 h -1.89 v 0.21 c 0.448,0 0.672,0.126 0.672,0.35 0,0.056 -0.014,0.14 -0.056,0.238 l -1.358,3.864 -1.61,-3.542 c -0.084,-0.196 -0.14,-0.392 -0.14,-0.532 0,-0.252 0.21,-0.35 0.812,-0.378 v -0.21 h -2.884 v 0.196 c 0.364,0.056 0.602,0.21 0.714,0.448 l 1.596,3.444 c 0.168,0.378 0.182,0.392 0.252,0.532 0.392,0.7 0.616,1.218 0.616,1.428 0,0.224 -0.322,1.078 -0.56,1.512 -0.21,0.35 -0.504,0.616 -0.7,0.616 -0.084,0 -0.21,-0.028 -0.364,-0.098 -0.252,-0.098 -0.504,-0.154 -0.728,-0.154 -0.336,0 -0.602,0.266 -0.602,0.616 0,0.462 0.434,0.812 1.036,0.812 0.952,0 1.596,-0.77 2.366,-2.8 l 2.156,-5.712 c 0.182,-0.448 0.336,-0.588 0.672,-0.63 z m 7.336,8.148 v -0.7 h -6.958 v 0.7 z m 1.666,-1.848 h 3.864 v -0.21 c -1.078,0 -1.316,-0.154 -1.33,-0.826 v -8.4 l -0.112,-0.028 -2.52,1.274 v 0.196 c 0.546,-0.21 0.882,-0.308 1.008,-0.308 0.294,0 0.42,0.21 0.42,0.658 v 6.342 c -0.028,0.882 -0.266,1.078 -1.33,1.092 z"
     id="text31"
     style="font-size:14px;font-family:Times, serif"
     aria-label="delay_1" />
  <path
     id="polygon32"
     transform="translate(-0.65775337,202.25)"
     style="fill:none;stroke:#000000"
     d="m 703.25,-195.25 v 34.5 H 678.5 v -34.5 z" />
  <path
     id="polygon33"
     transform="translate(-0.65775337,202.25)"
     style="fill:none;stroke:#000000"
     d="m 697.25,-189.25 v 22.5 H 684.5 v -22.5 z" />
  <path
     d="m 688.49422,29.300003 h 3.864 v -0.21 c -1.078,0 -1.316,-0.154 -1.33,-0.826 v -8.4 l -0.112,-0.028 -2.52,1.274 v 0.196 c 0.546,-0.21 0.882,-0.308 1.008,-0.308 0.294,0 0.42,0.21 0.42,0.658 v 6.342 c -0.028,0.882 -0.266,1.078 -1.33,1.092 z"
     id="text33"
     style="font-size:14px;font-family:Times, serif"
     aria-label="1" />
  <path
     id="polygon34"
     transform="translate(-0.65775337,202.25)"
     style="fill:none;stroke:#000000"
     d="m 700.25,-192.25 v 28.5 H 681.5 v -28.5 z" />
  <path
     id="polygon35"
     transform="translate(-0.65775337,202.25)"
     style="fill:none;stroke:#000000"
     d="m 706.25,-198.25 v 40.5 H 598 v -40.5 z" />
  <path
     fill="none"
     stroke="#000000"
     d="m 553.34225,24.25 c 23.11,0 28.89,0 52,0"
     id="path35" />
  <path
     id="ellipse36"
     style="stroke:#000000"
     d="m 767.59222,38.25 a 9,9 0 0 1 -9,9 9,9 0 0 1 -9,-9 9,9 0 0 1 9,-9 9,9 0 0 1 9,9 z" />
  <path
     d="m 756.74422,43.300003 h 3.864 v -0.21 c -1.078,0 -1.316,-0.154 -1.33,-0.826 v -8.4 l -0.112,-0.028 -2.52,1.274 v 0.196 c 0.546,-0.21 0.882,-0.308 1.008,-0.308 0.294,0 0.42,0.21 0.42,0.658 v 6.342 c -0.028,0.882 -0.266,1.078 -1.33,1.092 z"
     id="text36"
     style="font-size:14px;font-family:Times, serif;text-anchor:middle;fill:#ffffff"
     aria-label="1" />
  <path
     id="polygon38"
     transform="translate(-0.65775337,202.25)"
     style="fill:#00ffff"
     d="m 922,-93.5 v 65 H 812.25 v -65 z" />
  <path
     id="polygon39"
     transform="translate(-0.65775337,202.25)"
     style="fill:none;stroke:#000000"
     d="m 853.5,-90.5 v 59 h -38.25 v -59 z" />
  <path
     id="polygon40"
     transform="translate(-0.65775337,202.25)"
     style="fill:none;stroke:#000000"
     d="M 847.5,-84.5 V -62 h -26.25 v -22.5 z" />
  <path
     d="m 833.47622,133.784 c -0.63,-0.042 -0.77,-0.182 -1.26,-1.218 l -3.486,-7.952 h -0.28 l -2.912,6.874 c -0.896,2.044 -1.064,2.268 -1.736,2.296 v 0.266 h 2.772 v -0.266 c -0.672,0 -0.952,-0.168 -0.952,-0.574 0,-0.168 0.042,-0.364 0.112,-0.546 l 0.644,-1.638 h 3.668 l 0.574,1.344 c 0.168,0.378 0.266,0.742 0.266,0.938 0,0.35 -0.238,0.462 -0.98,0.476 v 0.266 h 3.57 z m -6.86,-3.332 1.61,-3.85 1.624,3.85 z m 8.98801,-2.828 c -0.42,0 -0.77,0.35 -0.77,0.798 0,0.406 0.35,0.756 0.756,0.756 0.434,0 0.798,-0.336 0.798,-0.756 0,-0.434 -0.364,-0.798 -0.784,-0.798 z m 0,5.026 c -0.42,0 -0.77,0.35 -0.77,0.798 0,0.406 0.35,0.756 0.756,0.756 0.434,0 0.798,-0.336 0.798,-0.756 0,-0.434 -0.364,-0.798 -0.784,-0.798 z m 3.63999,1.4 h 3.864 v -0.21 c -1.078,0 -1.316,-0.154 -1.33,-0.826 v -8.4 l -0.112,-0.028 -2.52,1.274 v 0.196 c 0.546,-0.21 0.882,-0.308 1.008,-0.308 0.294,0 0.42,0.21 0.42,0.658 v 6.342 c -0.028,0.882 -0.266,1.078 -1.33,1.092 z"
     id="text40"
     style="font-size:14px;font-family:Times, serif"
     aria-label="A:1" />
  <path
     id="polygon41"
     transform="translate(-0.65775337,202.25)"
     style="fill:none;stroke:#000000"
     d="m 847.5,-60 v 22.5 H 821.25 V -60 Z" />
  <path
     d="m 824.20022,149.548 c 1.176,0.07 1.33,0.21 1.344,1.26 v 6.216 c -0.014,1.05 -0.196,1.218 -1.344,1.26 v 0.266 h 4.676 c 1.078,0 2.086,-0.294 2.604,-0.77 0.504,-0.448 0.784,-1.078 0.784,-1.75 0,-0.616 -0.238,-1.176 -0.686,-1.582 -0.42,-0.378 -0.798,-0.546 -1.708,-0.77 0.728,-0.182 1.022,-0.322 1.358,-0.616 0.35,-0.308 0.56,-0.812 0.56,-1.4 0,-1.568 -1.26,-2.38 -3.668,-2.38 h -3.92 z m 2.772,4.438 c 1.358,0 2.002,0.084 2.506,0.294 0.798,0.322 1.176,0.896 1.176,1.764 0,0.756 -0.294,1.302 -0.854,1.624 -0.448,0.252 -1.022,0.364 -1.946,0.364 -0.686,0 -0.882,-0.126 -0.882,-0.574 z m 0,-0.546 v -3.22 c 0.014,-0.308 0.07,-0.392 0.308,-0.406 l 0.616,-0.014 c 1.554,-0.042 2.464,0.672 2.464,1.918 0,1.106 -0.714,1.694 -2.058,1.708 z m 8.232,-1.316 c -0.42,0 -0.77,0.35 -0.77,0.798 0,0.406 0.35,0.756 0.756,0.756 0.434,0 0.798,-0.336 0.798,-0.756 0,-0.434 -0.364,-0.798 -0.784,-0.798 z m 0,5.026 c -0.42,0 -0.77,0.35 -0.77,0.798 0,0.406 0.35,0.756 0.756,0.756 0.434,0 0.798,-0.336 0.798,-0.756 0,-0.434 -0.364,-0.798 -0.784,-0.798 z m 3.63999,1.4 h 3.864 v -0.21 c -1.078,0 -1.316,-0.154 -1.33,-0.826 v -8.4 l -0.112,-0.028 -2.52,1.274 v 0.196 c 0.546,-0.21 0.882,-0.308 1.008,-0.308 0.294,0 0.42,0.21 0.42,0.658 v 6.342 c -0.028,0.882 -0.266,1.078 -1.33,1.092 z"
     id="text41"
     style="font-size:14px;font-family:Times, serif"
     aria-label="B:1" />
  <path
     id="polygon42"
     transform="translate(-0.65775337,202.25)"
     style="fill:none;stroke:#000000"
     d="m 850.5,-87.5 v 53 h -32.25 v -53 z" />
  <path
     id="polygon43"
     transform="translate(-0.65775337,202.25)"
     style="fill:none;stroke:#000000"
     d="m 880.25,-90.5 v 59 H 855.5 v -59 z" />
  <path
     d="m 862.89622,136.836 c -2.674,0 -4.578,2.002 -4.578,4.83 0,1.316 0.448,2.604 1.204,3.402 0.812,0.882 2.058,1.428 3.29,1.428 2.758,0 4.662,-1.946 4.662,-4.774 0,-1.386 -0.406,-2.59 -1.176,-3.416 -0.882,-0.966 -2.058,-1.47 -3.402,-1.47 z m 0,0.504 c 0.644,0 1.288,0.252 1.792,0.7 0.756,0.686 1.19,2.002 1.19,3.668 0,0.826 -0.168,1.792 -0.462,2.52 -0.126,0.35 -0.364,0.7 -0.686,1.022 -0.49,0.49 -1.12,0.742 -1.862,0.742 -0.644,0 -1.274,-0.252 -1.778,-0.686 -0.714,-0.644 -1.176,-2.058 -1.176,-3.612 0,-1.428 0.392,-2.786 0.98,-3.444 0.546,-0.602 1.232,-0.91 2.002,-0.91 z m 14.28001,8.694 c -0.532,-0.042 -0.812,-0.182 -1.218,-0.658 l -2.884,-3.542 c 1.778,-0.35 2.534,-1.05 2.534,-2.338 0,-0.602 -0.182,-1.12 -0.546,-1.526 -0.532,-0.574 -1.708,-0.938 -3.01,-0.938 h -3.864 v 0.266 c 1.036,0.112 1.176,0.238 1.19,1.26 v 6.062 c -0.014,1.19 -0.14,1.33 -1.19,1.414 v 0.266 h 3.878 v -0.266 c -1.078,-0.07 -1.246,-0.238 -1.26,-1.26 v -2.758 l 0.784,-0.028 3.332,4.312 h 2.254 z m -6.37,-7.98 c 0,-0.392 0.154,-0.504 0.714,-0.504 1.75,0 2.562,0.602 2.562,1.918 0,0.7 -0.294,1.288 -0.798,1.554 -0.644,0.364 -1.134,0.448 -2.478,0.476 z"
     id="text43"
     style="font-size:14px;font-family:Times, serif"
     aria-label="OR" />
  <path
     id="polygon44"
     transform="translate(-0.65775337,202.25)"
     style="fill:none;stroke:#000000"
     d="m 919,-90.5 v 59 h -36.75 v -59 z" />
  <path
     id="polygon45"
     transform="translate(-0.65775337,202.25)"
     style="fill:none;stroke:#000000"
     d="m 913,-84.5 v 47 h -24.75 v -47 z" />
  <path
     d="m 898.62822,143.836 c -0.42,1.498 -0.896,1.876 -2.408,1.932 h -3.598 l 6.048,-8.526 v -0.21 h -7.364 l -0.28,2.394 h 0.364 c 0.238,-1.414 0.742,-1.82 2.352,-1.862 h 3.094 l -6.118,8.526 v 0.21 h 7.896 l 0.336,-2.464 z m 2.618,-3.962 c -0.42,0 -0.77,0.35 -0.77,0.798 0,0.406 0.35,0.756 0.756,0.756 0.434,0 0.798,-0.336 0.798,-0.756 0,-0.434 -0.364,-0.798 -0.784,-0.798 z m 0,5.026 c -0.42,0 -0.77,0.35 -0.77,0.798 0,0.406 0.35,0.756 0.756,0.756 0.434,0 0.798,-0.336 0.798,-0.756 0,-0.434 -0.364,-0.798 -0.784,-0.798 z m 3.64,1.4 h 3.864 v -0.21 c -1.078,0 -1.316,-0.154 -1.33,-0.826 v -8.4 l -0.112,-0.028 -2.52,1.274 v 0.196 c 0.546,-0.21 0.882,-0.308 1.008,-0.308 0.294,0 0.42,0.21 0.42,0.658 v 6.342 c -0.028,0.882 -0.266,1.078 -1.33,1.092 z"
     id="text45"
     style="font-size:14px;font-family:Times, serif"
     aria-label="Z:1" />
  <path
     id="polygon46"
     transform="translate(-0.65775337,202.25)"
     style="fill:none;stroke:#000000"
     d="m 916,-87.5 v 53 h -30.75 v -53 z" />
  <path
     id="polygon47"
     transform="translate(-0.65775337,202.25)"
     style="fill:none;stroke:#000000"
     d="m 922,-93.5 v 65 H 812.25 v -65 z" />
  <path
     fill="none"
     stroke="#000000"
     d="m 767.59225,38.25 c 46.49,0 5.51,90.75 52,90.75"
     id="path47" />
  <path
     id="polygon49"
     transform="translate(-0.65775337,202.25)"
     style="fill:#808080"
     d="m 1299.25,-177.5 v 65 h -46.5 v -65 z" />
  <path
     id="polygon50"
     transform="translate(-0.65775337,202.25)"
     style="fill:none;stroke:#000000"
     d="m 1296.25,-174.5 v 59 h -40.5 v -59 z" />
  <path
     id="polygon51"
     transform="translate(-0.65775337,202.25)"
     style="fill:none;stroke:#000000"
     d="m 1290.25,-168.5 v 22.5 h -28.5 v -22.5 z" />
  <path
     d="m 1275.0363,52.276003 c -1.596,-0.042 -2.716,-0.658 -3.85,-2.128 0.952,-0.182 1.456,-0.42 2.1,-0.98 1.036,-0.924 1.568,-2.198 1.568,-3.752 0,-2.814 -1.904,-4.83 -4.578,-4.83 -2.674,0 -4.578,2.016 -4.578,4.858 0,1.372 0.42,2.52 1.246,3.416 0.546,0.588 0.994,0.868 1.988,1.204 l 0.658,0.77 c 0.952,1.12 2.646,1.708 4.886,1.708 0.154,0 0.336,0 0.476,-0.014 h 0.084 z m -4.718,-11.186 c 0.602,0 1.246,0.266 1.736,0.7 0.756,0.672 1.204,2.016 1.204,3.598 0,1.386 -0.406,2.814 -0.966,3.458 -0.518,0.574 -1.246,0.896 -2.016,0.896 -0.672,0 -1.288,-0.238 -1.806,-0.686 -0.728,-0.658 -1.176,-2.044 -1.176,-3.696 0,-1.358 0.406,-2.716 0.98,-3.36 0.574,-0.616 1.232,-0.91 2.044,-0.91 z m 6.916,2.534 c -0.42,0 -0.77,0.35 -0.77,0.798 0,0.406 0.35,0.756 0.756,0.756 0.434,0 0.798,-0.336 0.798,-0.756 0,-0.434 -0.364,-0.798 -0.784,-0.798 z m 0,5.026 c -0.42,0 -0.77,0.35 -0.77,0.798 0,0.406 0.35,0.756 0.756,0.756 0.434,0 0.798,-0.336 0.798,-0.756 0,-0.434 -0.364,-0.798 -0.784,-0.798 z m 3.64,1.4 h 3.864 v -0.21 c -1.078,0 -1.316,-0.154 -1.33,-0.826 v -8.4 l -0.112,-0.028 -2.52,1.274 v 0.196 c 0.546,-0.21 0.882,-0.308 1.008,-0.308 0.294,0 0.42,0.21 0.42,0.658 v 6.342 c -0.028,0.882 -0.266,1.078 -1.33,1.092 z"
     id="text51"
     style="font-size:14px;font-family:Times, serif"
     aria-label="Q:1" />
  <path
     id="polygon52"
     transform="translate(-0.65775337,202.25)"
     style="fill:none;stroke:#000000"
     d="m 1290.25,-144 v 22.5 h -28.5 V -144 Z" />
  <path
     d="m 1273.9063,76.776003 c -1.596,-0.042 -2.716,-0.658 -3.85,-2.128 0.952,-0.182 1.456,-0.42 2.1,-0.98 1.036,-0.924 1.568,-2.198 1.568,-3.752 0,-2.814 -1.904,-4.83 -4.578,-4.83 -2.674,0 -4.578,2.016 -4.578,4.858 0,1.372 0.42,2.52 1.246,3.416 0.546,0.588 0.994,0.868 1.988,1.204 l 0.658,0.77 c 0.952,1.12 2.646,1.708 4.886,1.708 0.154,0 0.336,0 0.476,-0.014 h 0.084 z m -4.718,-11.186 c 0.602,0 1.246,0.266 1.736,0.7 0.756,0.672 1.204,2.016 1.204,3.598 0,1.386 -0.406,2.814 -0.966,3.458 -0.518,0.574 -1.246,0.896 -2.016,0.896 -0.672,0 -1.288,-0.238 -1.806,-0.686 -0.728,-0.658 -1.176,-2.044 -1.176,-3.696 0,-1.358 0.406,-2.716 0.98,-3.36 0.574,-0.616 1.232,-0.91 2.044,-0.91 z m 6.426,2.926 c 0.042,-0.252 0.07,-0.434 0.098,-0.56 0.224,-1.064 0.35,-1.904 0.35,-2.31 0,-0.308 -0.266,-0.56 -0.588,-0.56 -0.336,0 -0.602,0.252 -0.602,0.574 0,0.238 0.196,1.498 0.448,2.856 z m 3.01,-0.392 c -0.42,0 -0.77,0.35 -0.77,0.798 0,0.406 0.35,0.756 0.756,0.756 0.434,0 0.798,-0.336 0.798,-0.756 0,-0.434 -0.364,-0.798 -0.784,-0.798 z m 0,5.026 c -0.42,0 -0.77,0.35 -0.77,0.798 0,0.406 0.35,0.756 0.756,0.756 0.434,0 0.798,-0.336 0.798,-0.756 0,-0.434 -0.364,-0.798 -0.784,-0.798 z m 3.64,1.4 h 3.864 v -0.21 c -1.078,0 -1.316,-0.154 -1.33,-0.826 v -8.4 l -0.112,-0.028 -2.52,1.274 v 0.196 c 0.546,-0.21 0.882,-0.308 1.008,-0.308 0.294,0 0.42,0.21 0.42,0.658 v 6.342 c -0.028,0.882 -0.266,1.078 -1.33,1.092 z"
     id="text52"
     style="font-size:14px;font-family:Times, serif"
     aria-label="Q':1" />
  <path
     id="polygon53"
     transform="translate(-0.65775337,202.25)"
     style="fill:none;stroke:#000000"
     d="m 1293.25,-171.5 v 53 h -34.5 v -53 z" />
  <path
     id="polygon54"
     transform="translate(-0.65775337,202.25)"
     style="fill:none;stroke:#000000"
     d="m 1299.25,-177.5 v 65 h -46.5 v -65 z" />
  <path
     fill="none"
     stroke="#000000"
     d="m 767.59225,38.25 c 91.44,0 114.31,0 205.75,0 0,0 0,0 114.37995,0 76.66,0 95.7,6.75 172.37,6.75"
     id="path54" />
  <path
     id="ellipse55"
     style="stroke:#000000"
     d="m 220.72224,134.25 a 9,9 0 0 1 -9,9 9,9 0 0 1 -9,-9 9,9 0 0 1 9,-9 9,9 0 0 1 9,9 z" />
  <path
     d="m 209.87424,139.3 h 3.864 v -0.21 c -1.078,0 -1.316,-0.154 -1.33,-0.826 v -8.4 l -0.112,-0.028 -2.52,1.274 v 0.196 c 0.546,-0.21 0.882,-0.308 1.008,-0.308 0.294,0 0.42,0.21 0.42,0.658 v 6.342 c -0.028,0.882 -0.266,1.078 -1.33,1.092 z"
     id="text55"
     style="font-size:14px;font-family:Times, serif;text-anchor:middle;fill:#ffffff"
     aria-label="1" />
  <path
     fill="none"
     stroke="#000000"
     d="m 222.17225,134.25 c 92.95,0 115.85,12 208.79,12 0,0 0,0 221.5,0 74.35,0 92.78,7.25 167.13,7.25"
     id="path56" />
  <path
     id="ellipse57"
     style="stroke:#000000"
     d="m 983.34222,135.25 a 9,9 0 0 1 -9,9 9,9 0 0 1 -9,-9 9,9 0 0 1 9,-9 9,9 0 0 1 9,9 z" />
  <path
     d="m 972.49422,140.3 h 3.864 v -0.21 c -1.078,0 -1.316,-0.154 -1.33,-0.826 v -8.4 l -0.112,-0.028 -2.52,1.274 v 0.196 c 0.546,-0.21 0.882,-0.308 1.008,-0.308 0.294,0 0.42,0.21 0.42,0.658 v 6.342 c -0.028,0.882 -0.266,1.078 -1.33,1.092 z"
     id="text57"
     style="font-size:14px;font-family:Times, serif;text-anchor:middle;fill:#ffffff"
     aria-label="1" />
  <path
     id="polygon59"
     transform="translate(-0.65775337,202.25)"
     style="fill:#00ffff"
     d="m 1146.75,-91.25 v 40.5 H 1028 v -40.5 z" />
  <path
     id="polygon60"
     transform="translate(-0.65775337,202.25)"
     style="fill:none;stroke:#000000"
     d="m 1069.25,-88.25 v 34.5 H 1031 v -34.5 z" />
  <path
     id="polygon61"
     transform="translate(-0.65775337,202.25)"
     style="fill:none;stroke:#000000"
     d="m 1063.25,-82.25 v 22.5 H 1037 v -22.5 z" />
  <path
     d="m 1049.2263,136.034 c -0.63,-0.042 -0.77,-0.182 -1.26,-1.218 l -3.486,-7.952 h -0.28 l -2.912,6.874 c -0.896,2.044 -1.064,2.268 -1.736,2.296 v 0.266 h 2.772 v -0.266 c -0.672,0 -0.952,-0.168 -0.952,-0.574 0,-0.168 0.042,-0.364 0.112,-0.546 l 0.644,-1.638 h 3.668 l 0.574,1.344 c 0.168,0.378 0.266,0.742 0.266,0.938 0,0.35 -0.238,0.462 -0.98,0.476 v 0.266 h 3.57 z m -6.86,-3.332 1.61,-3.85 1.624,3.85 z m 8.988,-2.828 c -0.42,0 -0.77,0.35 -0.77,0.798 0,0.406 0.35,0.756 0.756,0.756 0.434,0 0.798,-0.336 0.798,-0.756 0,-0.434 -0.364,-0.798 -0.784,-0.798 z m 0,5.026 c -0.42,0 -0.77,0.35 -0.77,0.798 0,0.406 0.35,0.756 0.756,0.756 0.434,0 0.798,-0.336 0.798,-0.756 0,-0.434 -0.364,-0.798 -0.784,-0.798 z m 3.64,1.4 h 3.864 v -0.21 c -1.078,0 -1.316,-0.154 -1.33,-0.826 v -8.4 l -0.112,-0.028 -2.52,1.274 v 0.196 c 0.546,-0.21 0.882,-0.308 1.008,-0.308 0.294,0 0.42,0.21 0.42,0.658 v 6.342 c -0.028,0.882 -0.266,1.078 -1.33,1.092 z"
     id="text61"
     style="font-size:14px;font-family:Times, serif"
     aria-label="A:1" />
  <path
     id="polygon62"
     transform="translate(-0.65775337,202.25)"
     style="fill:none;stroke:#000000"
     d="m 1066.25,-85.25 v 28.5 H 1034 v -28.5 z" />
  <path
     id="polygon63"
     transform="translate(-0.65775337,202.25)"
     style="fill:none;stroke:#000000"
     d="m 1105,-88.25 v 34.5 h -33.75 v -34.5 z" />
  <path
     d="m 1083.4903,127.032 h -3.29 v 0.266 c 1.12,0.07 1.302,0.308 1.344,1.792 v 4.718 l -5.39,-6.776 h -2.394 v 0.266 c 0.602,0 0.798,0.112 1.358,0.77 v 6.174 c -0.028,1.484 -0.21,1.722 -1.358,1.792 v 0.266 h 3.29 v -0.266 c -1.078,-0.056 -1.288,-0.35 -1.316,-1.792 v -5.488 l 6.188,7.7 h 0.238 v -7.364 c 0.042,-1.456 0.224,-1.694 1.33,-1.792 z m 4.998,-0.196 c -2.674,0 -4.578,2.002 -4.578,4.83 0,1.316 0.448,2.604 1.204,3.402 0.812,0.882 2.058,1.428 3.29,1.428 2.758,0 4.662,-1.946 4.662,-4.774 0,-1.386 -0.406,-2.59 -1.176,-3.416 -0.882,-0.966 -2.058,-1.47 -3.402,-1.47 z m 0,0.504 c 0.644,0 1.288,0.252 1.792,0.7 0.756,0.686 1.19,2.002 1.19,3.668 0,0.826 -0.168,1.792 -0.462,2.52 -0.126,0.35 -0.364,0.7 -0.686,1.022 -0.49,0.49 -1.12,0.742 -1.862,0.742 -0.644,0 -1.274,-0.252 -1.778,-0.686 -0.714,-0.644 -1.176,-2.058 -1.176,-3.612 0,-1.428 0.392,-2.786 0.98,-3.444 0.546,-0.602 1.232,-0.91 2.002,-0.91 z m 11.284,8.694 c -1.148,-0.056 -1.33,-0.224 -1.344,-1.26 v -7.154 h 0.756 c 1.624,0.028 1.918,0.266 2.226,1.792 h 0.336 l -0.084,-2.38 h -7.896 l -0.084,2.38 h 0.336 c 0.322,-1.526 0.616,-1.764 2.226,-1.792 h 0.756 v 7 c -0.014,1.204 -0.14,1.344 -1.316,1.414 v 0.266 h 4.088 z"
     id="text63"
     style="font-size:14px;font-family:Times, serif"
     aria-label="NOT" />
  <path
     id="polygon64"
     transform="translate(-0.65775337,202.25)"
     style="fill:none;stroke:#000000"
     d="m 1143.75,-88.25 v 34.5 H 1107 v -34.5 z" />
  <path
     id="polygon65"
     transform="translate(-0.65775337,202.25)"
     style="fill:none;stroke:#000000"
     d="m 1137.75,-82.25 v 22.5 H 1113 v -22.5 z" />
  <path
     d="m 1123.3783,133.836 c -0.42,1.498 -0.896,1.876 -2.408,1.932 h -3.598 l 6.048,-8.526 v -0.21 h -7.364 l -0.28,2.394 h 0.364 c 0.238,-1.414 0.742,-1.82 2.352,-1.862 h 3.094 l -6.118,8.526 v 0.21 h 7.896 l 0.336,-2.464 z m 2.618,-3.962 c -0.42,0 -0.77,0.35 -0.77,0.798 0,0.406 0.35,0.756 0.756,0.756 0.434,0 0.798,-0.336 0.798,-0.756 0,-0.434 -0.364,-0.798 -0.784,-0.798 z m 0,5.026 c -0.42,0 -0.77,0.35 -0.77,0.798 0,0.406 0.35,0.756 0.756,0.756 0.434,0 0.798,-0.336 0.798,-0.756 0,-0.434 -0.364,-0.798 -0.784,-0.798 z m 3.64,1.4 h 3.864 v -0.21 c -1.078,0 -1.316,-0.154 -1.33,-0.826 v -8.4 l -0.112,-0.028 -2.52,1.274 v 0.196 c 0.546,-0.21 0.882,-0.308 1.008,-0.308 0.294,0 0.42,0.21 0.42,0.658 v 6.342 c -0.028,0.882 -0.266,1.078 -1.33,1.092 z"
     id="text65"
     style="font-size:14px;font-family:Times, serif"
     aria-label="Z:1" />
  <path
     id="polygon66"
     transform="translate(-0.65775337,202.25)"
     style="fill:none;stroke:#000000"
     d="m 1140.75,-85.25 v 28.5 H 1110 v -28.5 z" />
  <path
     id="polygon67"
     transform="translate(-0.65775337,202.25)"
     style="fill:none;stroke:#000000"
     d="m 1146.75,-91.25 v 40.5 H 1028 v -40.5 z" />
  <path
     fill="none"
     stroke="#000000"
     d="m 983.34225,135.25 c 23.17995,0 28.81995,-4 51.99995,-4"
     id="path67" />
  <path
     id="ellipse68"
     style="stroke:#000000"
     d="m 1208.0923,76.25 a 9,9 0 0 1 -9,9 9,9 0 0 1 -9,-9 9,9 0 0 1 9,-9 9,9 0 0 1 9,9 z" />
  <path
     d="m 1197.2443,81.300003 h 3.864 v -0.21 c -1.078,0 -1.316,-0.154 -1.33,-0.826 v -8.4 l -0.112,-0.028 -2.52,1.274 v 0.196 c 0.546,-0.21 0.882,-0.308 1.008,-0.308 0.294,0 0.42,0.21 0.42,0.658 v 6.342 c -0.028,0.882 -0.266,1.078 -1.33,1.092 z"
     id="text68"
     style="font-size:14px;font-family:Times, serif;text-anchor:middle;fill:#ffffff"
     aria-label="1" />
  <path
     fill="none"
     stroke="#ff0000"
     d="m 1209.5522,76.25 c 4.02,0 2,-6.32 -1,-9 -6.11,-5.47 -10.26,-0.17 -18.46,0 -95.51,2 -119.22,9 -214.74995,9 -544.38,0 -544.38,0 -544.38,0 -70.34,0 -86.23,19.04 -156.37,24.5 -48.19,3.75 -73.88,33.47 -108.75,0 -7.78,-7.47 -11.79,-24.25 -1,-24.25"
     id="path69" />
  <path
     fill="none"
     stroke="#000000"
     d="m 1208.0922,76.25 c 23.31,0 28.69,-6.75 52,-6.75"
     id="path70" />
  <path
     fill="none"
     stroke="#000000"
     d="m 258.59225,64.25 c 27.14,0 24.86,-32 52,-32"
     id="path71" />
  <path
     fill="none"
     stroke="#000000"
     d="m 483.34225,24.25 c 23.11,0 28.89,0 52,0"
     id="path72" />
  <path
     fill="none"
     stroke="#000000"
     d="m 697.59225,24.25 c 23.93,0 28.07,14 52,14"
     id="path73" />
  <path
     fill="none"
     stroke="#000000"
     d="m 913.34225,141.25 c 23.26,0 28.74,-6 52,-6"
     id="path74" />
  <path
     fill="none"
     stroke="#000000"
     d="m 1138.0922,131.25 c 33.64,0 18.36,-55 52,-55"
     id="path75" />
  <path
     id="polygon77"
     transform="translate(-0.65775337,202.25)"
     style="fill:#808080"
     d="m 51.5,-137.5 v 65 H 8 v -65 z" />
  <path
     id="polygon78"
     transform="translate(-0.65775337,202.25)"
     style="fill:none;stroke:#000000"
     d="m 48.5,-134.5 v 59 H 11 v -59 z" />
  <path
     id="polygon79"
     transform="translate(-0.65775337,202.25)"
     style="fill:none;stroke:#000000"
     d="M 42.5,-128.5 V -106 H 17 v -22.5 z" />
  <path
     d="m 28.568247,89.784003 c -0.532,-0.042 -0.812,-0.182 -1.218,-0.658 l -2.884,-3.542 c 1.778,-0.35 2.534,-1.05 2.534,-2.338 0,-0.602 -0.182,-1.12 -0.546,-1.526 -0.532,-0.574 -1.708,-0.938 -3.01,-0.938 h -3.864 v 0.266 c 1.036,0.112 1.176,0.238 1.19,1.26 v 6.062 c -0.014,1.19 -0.14,1.33 -1.19,1.414 v 0.266 h 3.878 v -0.266 c -1.078,-0.07 -1.246,-0.238 -1.26,-1.26 v -2.758 l 0.784,-0.028 3.332,4.312 h 2.254 z m -6.37,-7.98 c 0,-0.392 0.154,-0.504 0.714,-0.504 1.75,0 2.562,0.602 2.562,1.918 0,0.7 -0.294,1.288 -0.798,1.554 -0.644,0.364 -1.134,0.448 -2.478,0.476 z m 8.385997,1.82 c -0.42,0 -0.77,0.35 -0.77,0.798 0,0.406 0.35,0.756 0.756,0.756 0.434,0 0.798,-0.336 0.798,-0.756 0,-0.434 -0.364,-0.798 -0.784,-0.798 z m 0,5.026 c -0.42,0 -0.77,0.35 -0.77,0.798 0,0.406 0.35,0.756 0.756,0.756 0.434,0 0.798,-0.336 0.798,-0.756 0,-0.434 -0.364,-0.798 -0.784,-0.798 z m 3.639999,1.4 h 3.864 v -0.21 c -1.078,0 -1.316,-0.154 -1.33,-0.826 v -8.4 l -0.112,-0.028 -2.52,1.274 v 0.196 c 0.546,-0.21 0.882,-0.308 1.008,-0.308 0.294,0 0.42,0.21 0.42,0.658 v 6.342 c -0.028,0.882 -0.266,1.078 -1.33,1.092 z"
     id="text79"
     style="font-size:14px;font-family:Times, serif"
     aria-label="R:1" />
  <path
     id="polygon80"
     transform="translate(-0.65775337,202.25)"
     style="fill:none;stroke:#000000"
     d="m 42.5,-104 v 22.5 H 17 V -104 Z" />
  <path
     d="m 26.350247,105.086 h -0.294 c -0.056,0.308 -0.21,0.476 -0.448,0.476 -0.14,0 -0.378,-0.056 -0.616,-0.168 -0.518,-0.196 -1.036,-0.308 -1.498,-0.308 -0.588,0 -1.204,0.238 -1.666,0.644 -0.49,0.434 -0.742,1.022 -0.742,1.75 0,1.12 0.616,1.904 2.184,2.73 1.008,0.546 1.736,1.106 2.086,1.638 0.126,0.182 0.196,0.476 0.196,0.826 0,0.924 -0.7,1.568 -1.722,1.568 -1.26,0 -2.128,-0.77 -2.828,-2.478 h -0.322 l 0.42,2.968 h 0.308 c 0.014,-0.266 0.182,-0.462 0.392,-0.462 0.154,0 0.392,0.056 0.658,0.154 0.532,0.21 1.106,0.322 1.652,0.322 1.624,0 2.856,-1.106 2.856,-2.562 0,-1.148 -0.77,-2.044 -2.618,-3.052 -1.47,-0.798 -2.058,-1.414 -2.058,-2.184 0,-0.77 0.588,-1.288 1.456,-1.288 0.63,0 1.218,0.266 1.708,0.77 0.434,0.448 0.63,0.812 0.854,1.638 h 0.35 z m 3.429997,3.038 c -0.42,0 -0.77,0.35 -0.77,0.798 0,0.406 0.35,0.756 0.756,0.756 0.434,0 0.798,-0.336 0.798,-0.756 0,-0.434 -0.364,-0.798 -0.784,-0.798 z m 0,5.026 c -0.42,0 -0.77,0.35 -0.77,0.798 0,0.406 0.35,0.756 0.756,0.756 0.434,0 0.798,-0.336 0.798,-0.756 0,-0.434 -0.364,-0.798 -0.784,-0.798 z m 3.639998,1.4 h 3.864 v -0.21 c -1.078,0 -1.316,-0.154 -1.33,-0.826 v -8.4 l -0.112,-0.028 -2.52,1.274 v 0.196 c 0.546,-0.21 0.882,-0.308 1.008,-0.308 0.294,0 0.42,0.21 0.42,0.658 v 6.342 c -0.028,0.882 -0.266,1.078 -1.33,1.092 z"
     id="text80"
     style="font-size:14px;font-family:Times, serif"
     aria-label="S:1" />
  <path
     id="polygon81"
     transform="translate(-0.65775337,202.25)"
     style="fill:none;stroke:#000000"
     d="m 45.5,-131.5 v 53 H 14 v -53 z" />
  <path
     id="polygon82"
     transform="translate(-0.65775337,202.25)"
     style="fill:none;stroke:#000000"
     d="m 51.5,-137.5 v 65 H 8 v -65 z" />
  <path
     fill="none"
     stroke="#000000"
     d="m 42.842247,85 c 24.72,0 27.28,-19.75 52,-19.75"
     id="path82" />
  <path
     fill="none"
     stroke="#000000"
     d="m 42.842247,109.5 c 71.260003,0 87.160003,24.75 158.420003,24.75"
     id="path83" />
</svg>
