<?xml version="1.0" encoding="UTF-8" standalone="no"?>
<!-- Generated by graphviz version 11.0.0 (0)
 -->

<!-- Title: XOR Pages: 1 -->

<svg
   width="871.00641pt"
   height="156.95612pt"
   viewBox="0 0 871.24998 156.55775"
   version="1.1"
   id="svg71"
   sodipodi:docname="xor.svg"
   inkscape:version="1.3.2 (091e20ef0f, 2023-11-25, custom)"
   xmlns:inkscape="http://www.inkscape.org/namespaces/inkscape"
   xmlns:sodipodi="http://sodipodi.sourceforge.net/DTD/sodipodi-0.dtd"
   xmlns="http://www.w3.org/2000/svg"
   xmlns:svg="http://www.w3.org/2000/svg">
  <defs
     id="defs71" />
  <sodipodi:namedview
     id="namedview71"
     pagecolor="#ffffff"
     bordercolor="#000000"
     borderopacity="0.25"
     inkscape:showpageshadow="2"
     inkscape:pageopacity="0.0"
     inkscape:pagecheckerboard="0"
     inkscape:deskcolor="#d1d1d1"
     inkscape:document-units="pt"
     inkscape:zoom="1.6837248"
     inkscape:cx="580.55805"
     inkscape:cy="121.15994"
     inkscape:window-width="2560"
     inkscape:window-height="1380"
     inkscape:window-x="1920"
     inkscape:window-y="32"
     inkscape:window-maximized="1"
     inkscape:current-layer="svg71" />
  <path
     id="ellipse2"
     style="stroke:#000000"
     d="m 106.75,60.722459 a 9,9 0 0 1 -9,9 9,9 0 0 1 -9,-9 9,9 0 0 1 9,-9 9,9 0 0 1 9,9 z" />
  <path
     d="m 95.902,65.772462 h 3.864 v -0.21 c -1.078,0 -1.316,-0.154 -1.33,-0.826 v -8.4 l -0.112,-0.028 -2.52,1.274 v 0.196 c 0.546,-0.21 0.882,-0.308 1.008,-0.308 0.294,0 0.42,0.21 0.42,0.658 v 6.342 c -0.028,0.882 -0.266,1.078 -1.33,1.092 z"
     id="text2"
     style="font-size:14px;font-family:Times, serif;text-anchor:middle;fill:#ffffff"
     aria-label="1" />
  <path
     id="polygon4"
     style="fill:#00ffff"
     d="M 156,65.222459 V 0.22245907 H 265.75 V 65.222459 Z" />
  <path
     id="polygon5"
     style="fill:none;stroke:#000000"
     d="M 159,62.222459 V 3.2224591 h 38.25 V 62.222459 Z" />
  <path
     id="polygon6"
     style="fill:none;stroke:#000000"
     d="M 165,31.722459 V 9.2224591 h 26.25 V 31.722459 Z" />
  <path
     d="m 177.884,25.256462 c -0.63,-0.042 -0.77,-0.182 -1.26,-1.218 l -3.486,-7.952 h -0.28 l -2.912,6.874 c -0.896,2.044 -1.064,2.268 -1.736,2.296 v 0.266 h 2.772 v -0.266 c -0.672,0 -0.952,-0.168 -0.952,-0.574 0,-0.168 0.042,-0.364 0.112,-0.546 l 0.644,-1.638 h 3.668 l 0.574,1.344 c 0.168,0.378 0.266,0.742 0.266,0.938 0,0.35 -0.238,0.462 -0.98,0.476 v 0.266 h 3.57 z m -6.86,-3.332 1.61,-3.85 1.624,3.85 z m 8.988,-2.828 c -0.42,0 -0.77,0.35 -0.77,0.798 0,0.406 0.35,0.756 0.756,0.756 0.434,0 0.798,-0.336 0.798,-0.756 0,-0.434 -0.364,-0.798 -0.784,-0.798 z m 0,5.026 c -0.42,0 -0.77,0.35 -0.77,0.798 0,0.406 0.35,0.756 0.756,0.756 0.434,0 0.798,-0.336 0.798,-0.756 0,-0.434 -0.364,-0.798 -0.784,-0.798 z m 3.64,1.4 h 3.864 v -0.21 c -1.078,0 -1.316,-0.154 -1.33,-0.826 v -8.4 l -0.112,-0.028 -2.52,1.274 v 0.196 c 0.546,-0.21 0.882,-0.308 1.008,-0.308 0.294,0 0.42,0.21 0.42,0.658 v 6.342 c -0.028,0.882 -0.266,1.078 -1.33,1.092 z"
     id="text6"
     style="font-size:14px;font-family:Times, serif"
     aria-label="A:1" />
  <path
     id="polygon7"
     style="fill:none;stroke:#000000"
     d="m 165,56.222459 v -22.5 h 26.25 v 22.5 z" />
  <path
     d="m 168.618,41.020462 c 1.176,0.07 1.33,0.21 1.344,1.26 v 6.216 c -0.014,1.05 -0.196,1.218 -1.344,1.26 v 0.266 h 4.676 c 1.078,0 2.086,-0.294 2.604,-0.77 0.504,-0.448 0.784,-1.078 0.784,-1.75 0,-0.616 -0.238,-1.176 -0.686,-1.582 -0.42,-0.378 -0.798,-0.546 -1.708,-0.77 0.728,-0.182 1.022,-0.322 1.358,-0.616 0.35,-0.308 0.56,-0.812 0.56,-1.4 0,-1.568 -1.26,-2.38 -3.668,-2.38 h -3.92 z m 2.772,4.438 c 1.358,0 2.002,0.084 2.506,0.294 0.798,0.322 1.176,0.896 1.176,1.764 0,0.756 -0.294,1.302 -0.854,1.624 -0.448,0.252 -1.022,0.364 -1.946,0.364 -0.686,0 -0.882,-0.126 -0.882,-0.574 z m 0,-0.546 v -3.22 c 0.014,-0.308 0.07,-0.392 0.308,-0.406 l 0.616,-0.014 c 1.554,-0.042 2.464,0.672 2.464,1.918 0,1.106 -0.714,1.694 -2.058,1.708 z m 8.232,-1.316 c -0.42,0 -0.77,0.35 -0.77,0.798 0,0.406 0.35,0.756 0.756,0.756 0.434,0 0.798,-0.336 0.798,-0.756 0,-0.434 -0.364,-0.798 -0.784,-0.798 z m 0,5.026 c -0.42,0 -0.77,0.35 -0.77,0.798 0,0.406 0.35,0.756 0.756,0.756 0.434,0 0.798,-0.336 0.798,-0.756 0,-0.434 -0.364,-0.798 -0.784,-0.798 z m 3.64,1.4 h 3.864 v -0.21 c -1.078,0 -1.316,-0.154 -1.33,-0.826 v -8.4 l -0.112,-0.028 -2.52,1.274 v 0.196 c 0.546,-0.21 0.882,-0.308 1.008,-0.308 0.294,0 0.42,0.21 0.42,0.658 v 6.342 c -0.028,0.882 -0.266,1.078 -1.33,1.092 z"
     id="text7"
     style="font-size:14px;font-family:Times, serif"
     aria-label="B:1" />
  <path
     id="polygon8"
     style="fill:none;stroke:#000000"
     d="M 162,59.222459 V 6.2224591 h 32.25 V 59.222459 Z" />
  <path
     id="polygon9"
     style="fill:none;stroke:#000000"
     d="M 199.25,62.222459 V 3.2224591 H 224 V 62.222459 Z" />
  <path
     d="m 207.304,28.308462 c -2.674,0 -4.578,2.002 -4.578,4.83 0,1.316 0.448,2.604 1.204,3.402 0.812,0.882 2.058,1.428 3.29,1.428 2.758,0 4.662,-1.946 4.662,-4.774 0,-1.386 -0.406,-2.59 -1.176,-3.416 -0.882,-0.966 -2.058,-1.47 -3.402,-1.47 z m 0,0.504 c 0.644,0 1.288,0.252 1.792,0.7 0.756,0.686 1.19,2.002 1.19,3.668 0,0.826 -0.168,1.792 -0.462,2.52 -0.126,0.35 -0.364,0.7 -0.686,1.022 -0.49,0.49 -1.12,0.742 -1.862,0.742 -0.644,0 -1.274,-0.252 -1.778,-0.686 -0.714,-0.644 -1.176,-2.058 -1.176,-3.612 0,-1.428 0.392,-2.786 0.98,-3.444 0.546,-0.602 1.232,-0.91 2.002,-0.91 z m 14.28,8.694 c -0.532,-0.042 -0.812,-0.182 -1.218,-0.658 l -2.884,-3.542 c 1.778,-0.35 2.534,-1.05 2.534,-2.338 0,-0.602 -0.182,-1.12 -0.546,-1.526 -0.532,-0.574 -1.708,-0.938 -3.01,-0.938 h -3.864 v 0.266 c 1.036,0.112 1.176,0.238 1.19,1.26 v 6.062 c -0.014,1.19 -0.14,1.33 -1.19,1.414 v 0.266 h 3.878 v -0.266 c -1.078,-0.07 -1.246,-0.238 -1.26,-1.26 v -2.758 l 0.784,-0.028 3.332,4.312 h 2.254 z m -6.37,-7.98 c 0,-0.392 0.154,-0.504 0.714,-0.504 1.75,0 2.562,0.602 2.562,1.918 0,0.7 -0.294,1.288 -0.798,1.554 -0.644,0.364 -1.134,0.448 -2.478,0.476 z"
     id="text9"
     style="font-size:14px;font-family:Times, serif"
     aria-label="OR" />
  <path
     id="polygon10"
     style="fill:none;stroke:#000000"
     d="M 226,62.222459 V 3.2224591 h 36.75 V 62.222459 Z" />
  <path
     id="polygon11"
     style="fill:none;stroke:#000000"
     d="M 232,56.222459 V 9.2224591 h 24.75 V 56.222459 Z" />
  <path
     d="m 243.036,35.308462 c -0.42,1.498 -0.896,1.876 -2.408,1.932 h -3.598 l 6.048,-8.526 v -0.21 h -7.364 l -0.28,2.394 h 0.364 c 0.238,-1.414 0.742,-1.82 2.352,-1.862 h 3.094 l -6.118,8.526 v 0.21 h 7.896 l 0.336,-2.464 z m 2.618,-3.962 c -0.42,0 -0.77,0.35 -0.77,0.798 0,0.406 0.35,0.756 0.756,0.756 0.434,0 0.798,-0.336 0.798,-0.756 0,-0.434 -0.364,-0.798 -0.784,-0.798 z m 0,5.026 c -0.42,0 -0.77,0.35 -0.77,0.798 0,0.406 0.35,0.756 0.756,0.756 0.434,0 0.798,-0.336 0.798,-0.756 0,-0.434 -0.364,-0.798 -0.784,-0.798 z m 3.64,1.4 h 3.864 v -0.21 c -1.078,0 -1.316,-0.154 -1.33,-0.826 v -8.4 l -0.112,-0.028 -2.52,1.274 v 0.196 c 0.546,-0.21 0.882,-0.308 1.008,-0.308 0.294,0 0.42,0.21 0.42,0.658 v 6.342 c -0.028,0.882 -0.266,1.078 -1.33,1.092 z"
     id="text11"
     style="font-size:14px;font-family:Times, serif"
     aria-label="Z:1" />
  <path
     id="polygon12"
     style="fill:none;stroke:#000000"
     d="M 229,59.222459 V 6.2224591 h 30.75 V 59.222459 Z" />
  <path
     id="polygon13"
     style="fill:none;stroke:#000000"
     d="M 156,65.222459 V 0.22245907 H 265.75 V 65.222459 Z" />
  <path
     fill="none"
     stroke="#000000"
     d="m 106.75,60.722459 c 31.1,0 26.15,-40.25 57.25,-40.25"
     id="path13" />
  <path
     id="polygon15"
     style="fill:#00ffff"
     d="M 150.75,156.22246 V 91.222459 H 271 v 65.000001 z" />
  <path
     id="polygon16"
     style="fill:none;stroke:#000000"
     d="M 153.75,153.22246 V 94.222459 H 192 v 59.000001 z" />
  <path
     id="polygon17"
     style="fill:none;stroke:#000000"
     d="m 159.75,122.72246 v -22.5 H 186 v 22.5 z" />
  <path
     d="m 172.634,116.25646 c -0.63,-0.042 -0.77,-0.182 -1.26,-1.218 l -3.486,-7.952 h -0.28 l -2.912,6.874 c -0.896,2.044 -1.064,2.268 -1.736,2.296 v 0.266 h 2.772 v -0.266 c -0.672,0 -0.952,-0.168 -0.952,-0.574 0,-0.168 0.042,-0.364 0.112,-0.546 l 0.644,-1.638 h 3.668 l 0.574,1.344 c 0.168,0.378 0.266,0.742 0.266,0.938 0,0.35 -0.238,0.462 -0.98,0.476 v 0.266 h 3.57 z m -6.86,-3.332 1.61,-3.85 1.624,3.85 z m 8.988,-2.828 c -0.42,0 -0.77,0.35 -0.77,0.798 0,0.406 0.35,0.756 0.756,0.756 0.434,0 0.798,-0.336 0.798,-0.756 0,-0.434 -0.364,-0.798 -0.784,-0.798 z m 0,5.026 c -0.42,0 -0.77,0.35 -0.77,0.798 0,0.406 0.35,0.756 0.756,0.756 0.434,0 0.798,-0.336 0.798,-0.756 0,-0.434 -0.364,-0.798 -0.784,-0.798 z m 3.64,1.4 h 3.864 v -0.21 c -1.078,0 -1.316,-0.154 -1.33,-0.826 v -8.4 l -0.112,-0.028 -2.52,1.274 v 0.196 c 0.546,-0.21 0.882,-0.308 1.008,-0.308 0.294,0 0.42,0.21 0.42,0.658 v 6.342 c -0.028,0.882 -0.266,1.078 -1.33,1.092 z"
     id="text17"
     style="font-size:14px;font-family:Times, serif"
     aria-label="A:1" />
  <path
     id="polygon18"
     style="fill:none;stroke:#000000"
     d="m 159.75,147.22246 v -22.5 H 186 v 22.5 z" />
  <path
     d="m 163.358,132.02046 c 1.176,0.07 1.33,0.21 1.344,1.26 v 6.216 c -0.014,1.05 -0.196,1.218 -1.344,1.26 v 0.266 h 4.676 c 1.078,0 2.086,-0.294 2.604,-0.77 0.504,-0.448 0.784,-1.078 0.784,-1.75 0,-0.616 -0.238,-1.176 -0.686,-1.582 -0.42,-0.378 -0.798,-0.546 -1.708,-0.77 0.728,-0.182 1.022,-0.322 1.358,-0.616 0.35,-0.308 0.56,-0.812 0.56,-1.4 0,-1.568 -1.26,-2.38 -3.668,-2.38 h -3.92 z m 2.772,4.438 c 1.358,0 2.002,0.084 2.506,0.294 0.798,0.322 1.176,0.896 1.176,1.764 0,0.756 -0.294,1.302 -0.854,1.624 -0.448,0.252 -1.022,0.364 -1.946,0.364 -0.686,0 -0.882,-0.126 -0.882,-0.574 z m 0,-0.546 v -3.22 c 0.014,-0.308 0.07,-0.392 0.308,-0.406 l 0.616,-0.014 c 1.554,-0.042 2.464,0.672 2.464,1.918 0,1.106 -0.714,1.694 -2.058,1.708 z m 8.23199,-1.316 c -0.42,0 -0.77,0.35 -0.77,0.798 0,0.406 0.35,0.756 0.756,0.756 0.434,0 0.798,-0.336 0.798,-0.756 0,-0.434 -0.364,-0.798 -0.784,-0.798 z m 0,5.026 c -0.42,0 -0.77,0.35 -0.77,0.798 0,0.406 0.35,0.756 0.756,0.756 0.434,0 0.798,-0.336 0.798,-0.756 0,-0.434 -0.364,-0.798 -0.784,-0.798 z m 3.64,1.4 h 3.864 v -0.21 c -1.078,0 -1.316,-0.154 -1.33,-0.826 v -8.4 l -0.112,-0.028 -2.52,1.274 v 0.196 c 0.546,-0.21 0.882,-0.308 1.008,-0.308 0.294,0 0.42,0.21 0.42,0.658 v 6.342 c -0.028,0.882 -0.266,1.078 -1.33,1.092 z"
     id="text18"
     style="font-size:14px;font-family:Times, serif"
     aria-label="B:1" />
  <path
     id="polygon19"
     style="fill:none;stroke:#000000"
     d="M 156.75,150.22246 V 97.222459 H 189 v 53.000001 z" />
  <path
     id="polygon20"
     style="fill:none;stroke:#000000"
     d="M 194,153.22246 V 94.222459 h 35.25 v 59.000001 z" />
  <path
     d="m 206.884,128.50646 c -0.63,-0.042 -0.77,-0.182 -1.26,-1.218 l -3.486,-7.952 h -0.28 l -2.912,6.874 c -0.896,2.044 -1.064,2.268 -1.736,2.296 v 0.266 h 2.772 v -0.266 c -0.672,0 -0.952,-0.168 -0.952,-0.574 0,-0.168 0.042,-0.364 0.112,-0.546 l 0.644,-1.638 h 3.668 l 0.574,1.344 c 0.168,0.378 0.266,0.742 0.266,0.938 0,0.35 -0.238,0.462 -0.98,0.476 v 0.266 h 3.57 z m -6.86,-3.332 1.61,-3.85 1.624,3.85 z m 16.982,-5.67 h -3.29 v 0.266 c 1.12,0.07 1.302,0.308 1.344,1.792 v 4.718 l -5.39,-6.776 h -2.394 v 0.266 c 0.602,0 0.798,0.112 1.358,0.77 v 6.174 c -0.028,1.484 -0.21,1.722 -1.358,1.792 v 0.266 h 3.29 v -0.266 c -1.078,-0.056 -1.288,-0.35 -1.316,-1.792 v -5.488 l 6.188,7.7 h 0.238 v -7.364 c 0.042,-1.456 0.224,-1.694 1.33,-1.792 z m 0.434,9.268 h 3.976 c 1.624,0 3.094,-0.462 3.962,-1.246 0.91,-0.826 1.428,-2.072 1.428,-3.43 0,-1.26 -0.406,-2.352 -1.19,-3.122 -0.952,-0.966 -2.478,-1.47 -4.396,-1.47 h -3.78 v 0.266 c 1.106,0.098 1.218,0.21 1.232,1.26 v 6.216 c -0.014,1.022 -0.182,1.19 -1.232,1.26 z m 2.66,-8.204 c 0,-0.434 0.14,-0.546 0.728,-0.546 1.218,0 2.114,0.224 2.786,0.7 1.092,0.756 1.666,1.96 1.666,3.472 0,1.652 -0.574,2.828 -1.708,3.486 -0.714,0.406 -1.526,0.574 -2.744,0.574 -0.56,0 -0.728,-0.126 -0.728,-0.574 z"
     id="text20"
     style="font-size:14px;font-family:Times, serif"
     aria-label="AND" />
  <path
     id="polygon21"
     style="fill:none;stroke:#000000"
     d="M 231.25,153.22246 V 94.222459 H 268 v 59.000001 z" />
  <path
     id="polygon22"
     style="fill:none;stroke:#000000"
     d="m 237.25,147.22246 v -47 H 262 v 47 z" />
  <path
     d="m 248.286,126.30846 c -0.42,1.498 -0.896,1.876 -2.408,1.932 h -3.598 l 6.048,-8.526 v -0.21 h -7.364 l -0.28,2.394 h 0.364 c 0.238,-1.414 0.742,-1.82 2.352,-1.862 h 3.094 l -6.118,8.526 v 0.21 h 7.896 l 0.336,-2.464 z m 2.618,-3.962 c -0.42,0 -0.77,0.35 -0.77,0.798 0,0.406 0.35,0.756 0.756,0.756 0.434,0 0.798,-0.336 0.798,-0.756 0,-0.434 -0.364,-0.798 -0.784,-0.798 z m 0,5.026 c -0.42,0 -0.77,0.35 -0.77,0.798 0,0.406 0.35,0.756 0.756,0.756 0.434,0 0.798,-0.336 0.798,-0.756 0,-0.434 -0.364,-0.798 -0.784,-0.798 z m 3.64,1.4 h 3.864 v -0.21 c -1.078,0 -1.316,-0.154 -1.33,-0.826 v -8.4 l -0.112,-0.028 -2.52,1.274 v 0.196 c 0.546,-0.21 0.882,-0.308 1.008,-0.308 0.294,0 0.42,0.21 0.42,0.658 v 6.342 c -0.028,0.882 -0.266,1.078 -1.33,1.092 z"
     id="text22"
     style="font-size:14px;font-family:Times, serif"
     aria-label="Z:1" />
  <path
     id="polygon23"
     style="fill:none;stroke:#000000"
     d="M 234.25,150.22246 V 97.222459 H 265 v 53.000001 z" />
  <path
     id="polygon24"
     style="fill:none;stroke:#000000"
     d="M 150.75,156.22246 V 91.222459 H 271 v 65.000001 z" />
  <path
     fill="none"
     stroke="#000000"
     d="m 106.75,60.722459 c 32.29,0 19.71,50.750001 52,50.750001"
     id="path24" />
  <path
     id="ellipse25"
     style="stroke:#000000"
     d="m 106.75,96.722459 a 9,9 0 0 1 -9,9.000001 9,9 0 0 1 -9,-9.000001 9,9 0 0 1 9,-9 9,9 0 0 1 9,9 z" />
  <path
     d="m 95.902,101.77246 h 3.864 v -0.21 c -1.078,0 -1.316,-0.154 -1.33,-0.826 v -8.400001 l -0.112,-0.028 -2.52,1.274 v 0.196 c 0.546,-0.21 0.882,-0.308 1.008,-0.308 0.294,0 0.42,0.21 0.42,0.658 v 6.342001 c -0.028,0.882 -0.266,1.078 -1.33,1.092 z"
     id="text25"
     style="font-size:14px;font-family:Times, serif;text-anchor:middle;fill:#ffffff"
     aria-label="1" />
  <path
     fill="none"
     stroke="#000000"
     d="m 106.75,96.722459 c 34.3,0 22.95,-51.75 57.25,-51.75"
     id="path26" />
  <path
     fill="none"
     stroke="#000000"
     d="m 106.75,96.722459 c 28.96,0 23.04,39.250001 52,39.250001"
     id="path27" />
  <path
     id="ellipse28"
     style="stroke:#000000"
     d="m 445.38,37.722459 a 9,9 0 0 1 -9,9 9,9 0 0 1 -9,-9 9,9 0 0 1 9,-9 9,9 0 0 1 9,9 z" />
  <path
     d="m 434.532,42.772462 h 3.864 v -0.21 c -1.078,0 -1.316,-0.154 -1.33,-0.826 v -8.4 l -0.112,-0.028 -2.52,1.274 v 0.196 c 0.546,-0.21 0.882,-0.308 1.008,-0.308 0.294,0 0.42,0.21 0.42,0.658 v 6.342 c -0.028,0.882 -0.266,1.078 -1.33,1.092 z"
     id="text28"
     style="font-size:14px;font-family:Times, serif;text-anchor:middle;fill:#ffffff"
     aria-label="1" />
  <path
     id="polygon30"
     style="fill:#00ffff"
     d="m 601.75,99.222459 v -65 H 722 v 65 z" />
  <path
     id="polygon31"
     style="fill:none;stroke:#000000"
     d="m 604.75,96.222459 v -59 H 643 v 59 z" />
  <path
     id="polygon32"
     style="fill:none;stroke:#000000"
     d="m 610.75,65.722459 v -22.5 H 637 v 22.5 z" />
  <path
     d="m 623.634,59.256462 c -0.63,-0.042 -0.77,-0.182 -1.26,-1.218 l -3.486,-7.952 h -0.28 l -2.912,6.874 c -0.896,2.044 -1.064,2.268 -1.736,2.296 v 0.266 h 2.772 v -0.266 c -0.672,0 -0.952,-0.168 -0.952,-0.574 0,-0.168 0.042,-0.364 0.112,-0.546 l 0.644,-1.638 h 3.668 l 0.574,1.344 c 0.168,0.378 0.266,0.742 0.266,0.938 0,0.35 -0.238,0.462 -0.98,0.476 v 0.266 h 3.57 z m -6.86,-3.332 1.61,-3.85 1.624,3.85 z m 8.988,-2.828 c -0.42,0 -0.77,0.35 -0.77,0.798 0,0.406 0.35,0.756 0.756,0.756 0.434,0 0.798,-0.336 0.798,-0.756 0,-0.434 -0.364,-0.798 -0.784,-0.798 z m 0,5.026 c -0.42,0 -0.77,0.35 -0.77,0.798 0,0.406 0.35,0.756 0.756,0.756 0.434,0 0.798,-0.336 0.798,-0.756 0,-0.434 -0.364,-0.798 -0.784,-0.798 z m 3.64,1.4 h 3.864 v -0.21 c -1.078,0 -1.316,-0.154 -1.33,-0.826 v -8.4 l -0.112,-0.028 -2.52,1.274 v 0.196 c 0.546,-0.21 0.882,-0.308 1.008,-0.308 0.294,0 0.42,0.21 0.42,0.658 v 6.342 c -0.028,0.882 -0.266,1.078 -1.33,1.092 z"
     id="text32"
     style="font-size:14px;font-family:Times, serif"
     aria-label="A:1" />
  <path
     id="polygon33"
     style="fill:none;stroke:#000000"
     d="m 610.75,90.222459 v -22.5 H 637 v 22.5 z" />
  <path
     d="m 614.358,75.020462 c 1.176,0.07 1.33,0.21 1.344,1.26 v 6.216 c -0.014,1.05 -0.196,1.218 -1.344,1.26 v 0.266 h 4.676 c 1.078,0 2.086,-0.294 2.604,-0.77 0.504,-0.448 0.784,-1.078 0.784,-1.75 0,-0.616 -0.238,-1.176 -0.686,-1.582 -0.42,-0.378 -0.798,-0.546 -1.708,-0.77 0.728,-0.182 1.022,-0.322 1.358,-0.616 0.35,-0.308 0.56,-0.812 0.56,-1.4 0,-1.568 -1.26,-2.38 -3.668,-2.38 h -3.92 z m 2.772,4.438 c 1.358,0 2.002,0.084 2.506,0.294 0.798,0.322 1.176,0.896 1.176,1.764 0,0.756 -0.294,1.302 -0.854,1.624 -0.448,0.252 -1.022,0.364 -1.946,0.364 -0.686,0 -0.882,-0.126 -0.882,-0.574 z m 0,-0.546 v -3.22 c 0.014,-0.308 0.07,-0.392 0.308,-0.406 l 0.616,-0.014 c 1.554,-0.042 2.464,0.672 2.464,1.918 0,1.106 -0.714,1.694 -2.058,1.708 z m 8.23199,-1.316 c -0.42,0 -0.77,0.35 -0.77,0.798 0,0.406 0.35,0.756 0.756,0.756 0.434,0 0.798,-0.336 0.798,-0.756 0,-0.434 -0.364,-0.798 -0.784,-0.798 z m 0,5.026 c -0.42,0 -0.77,0.35 -0.77,0.798 0,0.406 0.35,0.756 0.756,0.756 0.434,0 0.798,-0.336 0.798,-0.756 0,-0.434 -0.364,-0.798 -0.784,-0.798 z m 3.64,1.4 h 3.864 v -0.21 c -1.078,0 -1.316,-0.154 -1.33,-0.826 v -8.4 l -0.112,-0.028 -2.52,1.274 v 0.196 c 0.546,-0.21 0.882,-0.308 1.008,-0.308 0.294,0 0.42,0.21 0.42,0.658 v 6.342 c -0.028,0.882 -0.266,1.078 -1.33,1.092 z"
     id="text33"
     style="font-size:14px;font-family:Times, serif"
     aria-label="B:1" />
  <path
     id="polygon34"
     style="fill:none;stroke:#000000"
     d="m 607.75,93.222459 v -53 H 640 v 53 z" />
  <path
     id="polygon35"
     style="fill:none;stroke:#000000"
     d="m 645,96.222459 v -59 h 35.25 v 59 z" />
  <path
     d="m 657.884,71.506462 c -0.63,-0.042 -0.77,-0.182 -1.26,-1.218 l -3.486,-7.952 h -0.28 l -2.912,6.874 c -0.896,2.044 -1.064,2.268 -1.736,2.296 v 0.266 h 2.772 v -0.266 c -0.672,0 -0.952,-0.168 -0.952,-0.574 0,-0.168 0.042,-0.364 0.112,-0.546 l 0.644,-1.638 h 3.668 l 0.574,1.344 c 0.168,0.378 0.266,0.742 0.266,0.938 0,0.35 -0.238,0.462 -0.98,0.476 v 0.266 h 3.57 z m -6.86,-3.332 1.61,-3.85 1.624,3.85 z m 16.982,-5.67 h -3.29 v 0.266 c 1.12,0.07 1.302,0.308 1.344,1.792 v 4.718 l -5.39,-6.776 h -2.394 v 0.266 c 0.602,0 0.798,0.112 1.358,0.77 v 6.174 c -0.028,1.484 -0.21,1.722 -1.358,1.792 v 0.266 h 3.29 v -0.266 c -1.078,-0.056 -1.288,-0.35 -1.316,-1.792 v -5.488 l 6.188,7.7 h 0.238 v -7.364 c 0.042,-1.456 0.224,-1.694 1.33,-1.792 z m 0.434,9.268 h 3.976 c 1.624,0 3.094,-0.462 3.962,-1.246 0.91,-0.826 1.428,-2.072 1.428,-3.43 0,-1.26 -0.406,-2.352 -1.19,-3.122 -0.952,-0.966 -2.478,-1.47 -4.396,-1.47 h -3.78 v 0.266 c 1.106,0.098 1.218,0.21 1.232,1.26 v 6.216 c -0.014,1.022 -0.182,1.19 -1.232,1.26 z m 2.66,-8.204 c 0,-0.434 0.14,-0.546 0.728,-0.546 1.218,0 2.114,0.224 2.786,0.7 1.092,0.756 1.666,1.96 1.666,3.472 0,1.652 -0.574,2.828 -1.708,3.486 -0.714,0.406 -1.526,0.574 -2.744,0.574 -0.56,0 -0.728,-0.126 -0.728,-0.574 z"
     id="text35"
     style="font-size:14px;font-family:Times, serif"
     aria-label="AND" />
  <path
     id="polygon36"
     style="fill:none;stroke:#000000"
     d="m 682.25,96.222459 v -59 H 719 v 59 z" />
  <path
     id="polygon37"
     style="fill:none;stroke:#000000"
     d="m 688.25,90.222459 v -47 H 713 v 47 z" />
  <path
     d="m 699.286,69.308462 c -0.42,1.498 -0.896,1.876 -2.408,1.932 h -3.598 l 6.048,-8.526 v -0.21 h -7.364 l -0.28,2.394 h 0.364 c 0.238,-1.414 0.742,-1.82 2.352,-1.862 h 3.094 l -6.118,8.526 v 0.21 h 7.896 l 0.336,-2.464 z m 2.618,-3.962 c -0.42,0 -0.77,0.35 -0.77,0.798 0,0.406 0.35,0.756 0.756,0.756 0.434,0 0.798,-0.336 0.798,-0.756 0,-0.434 -0.364,-0.798 -0.784,-0.798 z m 0,5.026 c -0.42,0 -0.77,0.35 -0.77,0.798 0,0.406 0.35,0.756 0.756,0.756 0.434,0 0.798,-0.336 0.798,-0.756 0,-0.434 -0.364,-0.798 -0.784,-0.798 z m 3.64,1.4 h 3.864 v -0.21 c -1.078,0 -1.316,-0.154 -1.33,-0.826 v -8.4 l -0.112,-0.028 -2.52,1.274 v 0.196 c 0.546,-0.21 0.882,-0.308 1.008,-0.308 0.294,0 0.42,0.21 0.42,0.658 v 6.342 c -0.028,0.882 -0.266,1.078 -1.33,1.092 z"
     id="text37"
     style="font-size:14px;font-family:Times, serif"
     aria-label="Z:1" />
  <path
     id="polygon38"
     style="fill:none;stroke:#000000"
     d="m 685.25,93.222459 v -53 H 716 v 53 z" />
  <path
     id="polygon39"
     style="fill:none;stroke:#000000"
     d="m 601.75,99.222459 v -65 H 722 v 65 z" />
  <path
     fill="none"
     stroke="#000000"
     d="m 446.83,37.722459 c 72.79,0 90.13,16.75 162.92,16.75"
     id="path39" />
  <path
     id="ellipse40"
     style="stroke:#000000"
     d="m 333,103.72246 a 9,9 0 0 1 -9,9 9,9 0 0 1 -9,-9 9,9 0 0 1 9,-9.000001 9,9 0 0 1 9,9.000001 z" />
  <path
     d="m 322.152,108.77246 h 3.864 v -0.21 c -1.078,0 -1.316,-0.154 -1.33,-0.826 v -8.400001 l -0.112,-0.028 -2.52,1.274001 v 0.196 c 0.546,-0.21 0.882,-0.308 1.008,-0.308 0.294,0 0.42,0.21 0.42,0.658 v 6.342 c -0.028,0.882 -0.266,1.078 -1.33,1.092 z"
     id="text40"
     style="font-size:14px;font-family:Times, serif;text-anchor:middle;fill:#ffffff"
     aria-label="1" />
  <path
     id="polygon42"
     style="fill:#00ffff"
     d="M 377,113.97246 V 73.472459 h 118.75 v 40.500001 z" />
  <path
     id="polygon43"
     style="fill:none;stroke:#000000"
     d="M 380,110.97246 V 76.472459 h 38.25 v 34.500001 z" />
  <path
     id="polygon44"
     style="fill:none;stroke:#000000"
     d="M 386,104.97246 V 82.472459 h 26.25 v 22.500001 z" />
  <path
     d="m 398.884,98.506459 c -0.63,-0.042 -0.77,-0.182 -1.26,-1.218 l -3.486,-7.951997 h -0.28 l -2.912,6.873997 c -0.896,2.044 -1.064,2.268 -1.736,2.296 v 0.266 h 2.772 v -0.266 c -0.672,0 -0.952,-0.168 -0.952,-0.574 0,-0.168 0.042,-0.364 0.112,-0.546 l 0.644,-1.638 h 3.668 l 0.574,1.344 c 0.168,0.378 0.266,0.742 0.266,0.938 0,0.35 -0.238,0.462 -0.98,0.476 v 0.266 h 3.57 z m -6.86,-3.332 1.61,-3.849997 1.624,3.849997 z m 8.988,-2.828 c -0.42,0 -0.77,0.35 -0.77,0.798 0,0.406 0.35,0.756 0.756,0.756 0.434,0 0.798,-0.336 0.798,-0.756 0,-0.434 -0.364,-0.798 -0.784,-0.798 z m 0,5.026 c -0.42,0 -0.77,0.35 -0.77,0.798 0,0.406 0.35,0.756 0.756,0.756 0.434,0 0.798,-0.336 0.798,-0.756 0,-0.434 -0.364,-0.798 -0.784,-0.798 z m 3.64,1.4 h 3.864 v -0.21 c -1.078,0 -1.316,-0.154 -1.33,-0.826 v -8.399997 l -0.112,-0.028 -2.52,1.274 v 0.196 c 0.546,-0.21 0.882,-0.308 1.008,-0.308 0.294,0 0.42,0.21 0.42,0.658 v 6.341997 c -0.028,0.882 -0.266,1.078 -1.33,1.092 z"
     id="text44"
     style="font-size:14px;font-family:Times, serif"
     aria-label="A:1" />
  <path
     id="polygon45"
     style="fill:none;stroke:#000000"
     d="M 383,107.97246 V 79.472459 h 32.25 v 28.500001 z" />
  <path
     id="polygon46"
     style="fill:none;stroke:#000000"
     d="M 420.25,110.97246 V 76.472459 H 454 v 34.500001 z" />
  <path
     d="m 433.148,89.504462 h -3.29 v 0.266 c 1.12,0.07 1.302,0.308 1.344,1.792 v 4.717997 l -5.39,-6.775997 h -2.394 v 0.266 c 0.602,0 0.798,0.112 1.358,0.77 v 6.173997 c -0.028,1.484 -0.21,1.722 -1.358,1.792 v 0.266 h 3.29 v -0.266 c -1.078,-0.056 -1.288,-0.35 -1.316,-1.792 v -5.487997 l 6.188,7.699997 h 0.238 v -7.363997 c 0.042,-1.456 0.224,-1.694 1.33,-1.792 z m 4.99801,-0.196 c -2.674,0 -4.578,2.002 -4.578,4.829997 0,1.316 0.448,2.604 1.204,3.402 0.812,0.882 2.058,1.428 3.29,1.428 2.758,0 4.662,-1.946 4.662,-4.774 0,-1.386 -0.406,-2.589997 -1.176,-3.415997 -0.882,-0.966 -2.058,-1.47 -3.402,-1.47 z m 0,0.504 c 0.644,0 1.288,0.252 1.792,0.7 0.756,0.686 1.19,2.001997 1.19,3.667997 0,0.826 -0.168,1.792 -0.462,2.52 -0.126,0.35 -0.364,0.7 -0.686,1.022 -0.49,0.49 -1.12,0.742 -1.862,0.742 -0.644,0 -1.274,-0.252 -1.778,-0.686 -0.714,-0.644 -1.176,-2.058 -1.176,-3.612 0,-1.428 0.392,-2.785997 0.98,-3.443997 0.546,-0.602 1.232,-0.91 2.002,-0.91 z m 11.28401,8.693997 c -1.148,-0.056 -1.33,-0.224 -1.344,-1.26 v -7.153997 h 0.756 c 1.624,0.028 1.918,0.266 2.226,1.792 h 0.336 l -0.084,-2.38 h -7.896 l -0.084,2.38 h 0.336 c 0.322,-1.526 0.616,-1.764 2.226,-1.792 h 0.756 v 6.999997 c -0.014,1.204 -0.14,1.344 -1.316,1.414 v 0.266 h 4.088 z"
     id="text46"
     style="font-size:14px;font-family:Times, serif"
     aria-label="NOT" />
  <path
     id="polygon47"
     style="fill:none;stroke:#000000"
     d="M 456,110.97246 V 76.472459 h 36.75 v 34.500001 z" />
  <path
     id="polygon48"
     style="fill:none;stroke:#000000"
     d="M 462,104.97246 V 82.472459 h 24.75 v 22.500001 z" />
  <path
     d="m 473.036,96.308459 c -0.42,1.498 -0.896,1.876 -2.408,1.932 h -3.598 l 6.048,-8.525997 v -0.21 h -7.364 l -0.28,2.394 h 0.364 c 0.238,-1.414 0.742,-1.82 2.352,-1.862 h 3.094 l -6.118,8.525997 v 0.21 h 7.896 l 0.336,-2.464 z m 2.618,-3.962 c -0.42,0 -0.77,0.35 -0.77,0.798 0,0.406 0.35,0.756 0.756,0.756 0.434,0 0.798,-0.336 0.798,-0.756 0,-0.434 -0.364,-0.798 -0.784,-0.798 z m 0,5.026 c -0.42,0 -0.77,0.35 -0.77,0.798 0,0.406 0.35,0.756 0.756,0.756 0.434,0 0.798,-0.336 0.798,-0.756 0,-0.434 -0.364,-0.798 -0.784,-0.798 z m 3.64,1.4 h 3.864 v -0.21 c -1.078,0 -1.316,-0.154 -1.33,-0.826 v -8.399997 l -0.112,-0.028 -2.52,1.274 v 0.196 c 0.546,-0.21 0.882,-0.308 1.008,-0.308 0.294,0 0.42,0.21 0.42,0.658 v 6.341997 c -0.028,0.882 -0.266,1.078 -1.33,1.092 z"
     id="text48"
     style="font-size:14px;font-family:Times, serif"
     aria-label="Z:1" />
  <path
     id="polygon49"
     style="fill:none;stroke:#000000"
     d="M 459,107.97246 V 79.472459 h 30.75 v 28.500001 z" />
  <path
     id="polygon50"
     style="fill:none;stroke:#000000"
     d="M 377,113.97246 V 73.472459 h 118.75 v 40.500001 z" />
  <path
     fill="none"
     stroke="#000000"
     d="m 333,103.72246 c 23.53,0 28.47,-10.000001 52,-10.000001"
     id="path50" />
  <path
     id="ellipse51"
     style="stroke:#000000"
     d="m 557.75,86.722459 a 9,9 0 0 1 -9,9 9,9 0 0 1 -9,-9 9,9 0 0 1 9,-9 9,9 0 0 1 9,9 z" />
  <path
     d="m 546.902,91.772462 h 3.864 v -0.21 c -1.078,0 -1.316,-0.154 -1.33,-0.826 v -8.4 l -0.112,-0.028 -2.52,1.274 v 0.196 c 0.546,-0.21 0.882,-0.308 1.008,-0.308 0.294,0 0.42,0.21 0.42,0.658 v 6.342 c -0.028,0.882 -0.266,1.078 -1.33,1.092 z"
     id="text51"
     style="font-size:14px;font-family:Times, serif;text-anchor:middle;fill:#ffffff"
     aria-label="1" />
  <path
     fill="none"
     stroke="#000000"
     d="m 557.75,86.722459 c 23.37,0 28.63,-7.75 52,-7.75"
     id="path52" />
  <path
     id="ellipse53"
     style="stroke:#000000"
     d="m 784,66.722459 a 9,9 0 0 1 -9,9 9,9 0 0 1 -9,-9 9,9 0 0 1 9,-9 9,9 0 0 1 9,9 z" />
  <path
     d="m 773.152,71.772462 h 3.864 v -0.21 c -1.078,0 -1.316,-0.154 -1.33,-0.826 v -8.4 l -0.112,-0.028 -2.52,1.274 v 0.196 c 0.546,-0.21 0.882,-0.308 1.008,-0.308 0.294,0 0.42,0.21 0.42,0.658 v 6.342 c -0.028,0.882 -0.266,1.078 -1.33,1.092 z"
     id="text53"
     style="font-size:14px;font-family:Times, serif;text-anchor:middle;fill:#ffffff"
     aria-label="1" />
  <path
     id="polygon55"
     style="fill:#808080"
     d="m 828,86.972459 v -40.5 h 42.75 v 40.5 z" />
  <path
     id="polygon56"
     style="fill:none;stroke:#000000"
     d="m 831,83.972459 v -34.5 h 36.75 v 34.5 z" />
  <path
     id="polygon57"
     style="fill:none;stroke:#000000"
     d="m 837,77.972459 v -22.5 h 24.75 v 22.5 z" />
  <path
     d="m 848.036,69.308462 c -0.42,1.498 -0.896,1.876 -2.408,1.932 h -3.598 l 6.048,-8.526 v -0.21 h -7.364 l -0.28,2.394 h 0.364 c 0.238,-1.414 0.742,-1.82 2.352,-1.862 h 3.094 l -6.118,8.526 v 0.21 h 7.896 l 0.336,-2.464 z m 2.618,-3.962 c -0.42,0 -0.77,0.35 -0.77,0.798 0,0.406 0.35,0.756 0.756,0.756 0.434,0 0.798,-0.336 0.798,-0.756 0,-0.434 -0.364,-0.798 -0.784,-0.798 z m 0,5.026 c -0.42,0 -0.77,0.35 -0.77,0.798 0,0.406 0.35,0.756 0.756,0.756 0.434,0 0.798,-0.336 0.798,-0.756 0,-0.434 -0.364,-0.798 -0.784,-0.798 z m 3.64,1.4 h 3.864 v -0.21 c -1.078,0 -1.316,-0.154 -1.33,-0.826 v -8.4 l -0.112,-0.028 -2.52,1.274 v 0.196 c 0.546,-0.21 0.882,-0.308 1.008,-0.308 0.294,0 0.42,0.21 0.42,0.658 v 6.342 c -0.028,0.882 -0.266,1.078 -1.33,1.092 z"
     id="text57"
     style="font-size:14px;font-family:Times, serif"
     aria-label="Z:1" />
  <path
     id="polygon58"
     style="fill:none;stroke:#000000"
     d="m 834,80.972459 v -28.5 h 30.75 v 28.5 z" />
  <path
     id="polygon59"
     style="fill:none;stroke:#000000"
     d="m 828,86.972459 v -40.5 h 42.75 v 40.5 z" />
  <path
     fill="none"
     stroke="#000000"
     d="m 784,66.722459 c 23.11,0 28.89,0 52,0"
     id="path59" />
  <path
     fill="none"
     stroke="#000000"
     d="m 257.75,32.722459 c 74.77,0 93.39,5 168.17,5"
     id="path60" />
  <path
     fill="none"
     stroke="#000000"
     d="m 263,123.72246 c 24.76,0 27.24,-20 52,-20"
     id="path61" />
  <path
     fill="none"
     stroke="#000000"
     d="m 487.75,93.722459 c 23.32,0 28.68,-7 52,-7"
     id="path62" />
  <path
     fill="none"
     stroke="#000000"
     d="m 714,66.722459 c 23.11,0 28.89,0 52,0"
     id="path63" />
  <path
     id="polygon65"
     style="fill:#808080"
     d="M 0.5,111.22246 V 46.222459 h 44.25 v 65.000001 z" />
  <path
     id="polygon66"
     style="fill:none;stroke:#000000"
     d="M 3.5,108.22246 V 49.222459 h 38.25 v 59.000001 z" />
  <path
     id="polygon67"
     style="fill:none;stroke:#000000"
     d="m 9.5,77.722459 v -22.5 h 26.25 v 22.5 z" />
  <path
     d="m 22.384,71.256462 c -0.63,-0.042 -0.77,-0.182 -1.26,-1.218 l -3.486,-7.952 h -0.28 l -2.912,6.874 c -0.896,2.044 -1.064,2.268 -1.736,2.296 v 0.266 h 2.772 v -0.266 c -0.672,0 -0.952,-0.168 -0.952,-0.574 0,-0.168 0.042,-0.364 0.112,-0.546 l 0.644,-1.638 h 3.668 l 0.574,1.344 c 0.168,0.378 0.266,0.742 0.266,0.938 0,0.35 -0.238,0.462 -0.98,0.476 v 0.266 h 3.57 z m -6.86,-3.332 1.61,-3.85 1.624,3.85 z m 8.988002,-2.828 c -0.42,0 -0.77,0.35 -0.77,0.798 0,0.406 0.35,0.756 0.756,0.756 0.434,0 0.798,-0.336 0.798,-0.756 0,-0.434 -0.364,-0.798 -0.784,-0.798 z m 0,5.026 c -0.42,0 -0.77,0.35 -0.77,0.798 0,0.406 0.35,0.756 0.756,0.756 0.434,0 0.798,-0.336 0.798,-0.756 0,-0.434 -0.364,-0.798 -0.784,-0.798 z m 3.639998,1.4 h 3.864 v -0.21 c -1.078,0 -1.316,-0.154 -1.33,-0.826 v -8.4 l -0.112,-0.028 -2.52,1.274 v 0.196 c 0.546,-0.21 0.882,-0.308 1.008,-0.308 0.294,0 0.42,0.21 0.42,0.658 v 6.342 c -0.028,0.882 -0.266,1.078 -1.33,1.092 z"
     id="text67"
     style="font-size:14px;font-family:Times, serif"
     aria-label="A:1" />
  <path
     id="polygon68"
     style="fill:none;stroke:#000000"
     d="M 9.5,102.22246 V 79.722459 h 26.25 v 22.500001 z" />
  <path
     d="m 13.117999,87.020462 c 1.176,0.07 1.33,0.21 1.344,1.26 v 6.215997 c -0.014,1.05 -0.196,1.218 -1.344,1.26 v 0.266 h 4.676 c 1.078,0 2.086,-0.294 2.604,-0.77 0.504,-0.448 0.784,-1.078 0.784,-1.75 0,-0.616 -0.238,-1.176 -0.686,-1.581997 -0.42,-0.378 -0.798,-0.546 -1.708,-0.77 0.728,-0.182 1.022,-0.322 1.358,-0.616 0.35,-0.308 0.56,-0.812 0.56,-1.4 0,-1.568 -1.26,-2.38 -3.668,-2.38 h -3.92 z m 2.772,4.438 c 1.358,0 2.002,0.084 2.506,0.294 0.798,0.322 1.176,0.895997 1.176,1.763997 0,0.756 -0.294,1.302 -0.854,1.624 -0.448,0.252 -1.022,0.364 -1.946,0.364 -0.686,0 -0.882,-0.126 -0.882,-0.574 z m 0,-0.546 v -3.22 c 0.014,-0.308 0.07,-0.392 0.308,-0.406 l 0.616,-0.014 c 1.554,-0.042 2.464,0.672 2.464,1.918 0,1.106 -0.714,1.694 -2.058,1.708 z m 8.231998,-1.316 c -0.42,0 -0.77,0.35 -0.77,0.798 0,0.406 0.35,0.756 0.756,0.756 0.434,0 0.798,-0.336 0.798,-0.756 0,-0.434 -0.364,-0.798 -0.784,-0.798 z m 0,5.025997 c -0.42,0 -0.77,0.35 -0.77,0.798 0,0.406 0.35,0.756 0.756,0.756 0.434,0 0.798,-0.336 0.798,-0.756 0,-0.434 -0.364,-0.798 -0.784,-0.798 z m 3.639998,1.4 h 3.864 v -0.21 c -1.078,0 -1.316,-0.154 -1.33,-0.826 v -8.399997 l -0.112,-0.028 -2.52,1.274 v 0.196 c 0.546,-0.21 0.882,-0.308 1.008,-0.308 0.294,0 0.42,0.21 0.42,0.658 v 6.341997 c -0.028,0.882 -0.266,1.078 -1.33,1.092 z"
     id="text68"
     style="font-size:14px;font-family:Times, serif"
     aria-label="B:1" />
  <path
     id="polygon69"
     style="fill:none;stroke:#000000"
     d="M 6.5,105.22246 V 52.222459 h 32.25 v 53.000001 z" />
  <path
     id="polygon70"
     style="fill:none;stroke:#000000"
     d="M 0.5,111.22246 V 46.222459 h 44.25 v 65.000001 z" />
  <path
     fill="none"
     stroke="#000000"
     d="m 36.75,66.472459 c 23.25,0 28.75,-5.75 52,-5.75"
     id="path70" />
  <path
     fill="none"
     stroke="#000000"
     d="m 36.75,90.972459 c 23.25,0 28.75,5.75 52,5.75"
     id="path71" />
</svg>
